<svg width="115" height="23" viewBox="0 0 115 23" fill="none" xmlns="http://www.w3.org/2000/svg">
<path d="M32.4857 13.0206C32.4841 13.0993 32.4431 13.1743 32.3715 13.2292C32.2999 13.2841 32.2037 13.3144 32.1038 13.3135H25.0699C25.2502 14.6847 26.5555 15.9396 28.4015 15.9396C29.6639 15.9396 30.5977 15.5628 31.298 14.7686C31.3305 14.7269 31.3755 14.6921 31.4291 14.6673C31.4826 14.6425 31.5431 14.6285 31.6052 14.6265C31.6515 14.6256 31.6976 14.6321 31.7406 14.6457C31.7836 14.6592 31.8227 14.6795 31.8554 14.7053C31.8882 14.7311 31.9139 14.7619 31.9311 14.7958C31.9483 14.8297 31.9565 14.866 31.9554 14.9025C31.9558 14.9529 31.9376 15.0023 31.903 15.0446C31.1915 16.0147 29.7807 16.4916 28.4015 16.4916C26.0354 16.4916 24.3379 14.8187 24.3379 13.0375C24.3379 11.2564 26.0251 9.58345 28.4015 9.58345C30.7788 9.58345 32.4754 11.2394 32.4866 13.0206H32.4857ZM31.7331 12.7615C31.5846 11.3903 30.2484 10.1354 28.4015 10.1354C26.5555 10.1354 25.2502 11.3903 25.0699 12.7615H31.7331ZM41.0378 9.71739C41.0949 9.71886 41.1508 9.73102 41.2007 9.75285C41.2507 9.77469 41.2934 9.80558 41.3253 9.84298C41.3571 9.88038 41.3772 9.92322 41.3839 9.96795C41.3907 10.0127 41.3838 10.058 41.3639 10.1003C41.338 10.1513 41.2928 10.1949 41.2345 10.2252C41.1762 10.2554 41.1075 10.2708 41.0378 10.2694H39.1497V16.1148C39.149 16.1879 39.1118 16.2579 39.0461 16.3096C38.9804 16.3612 38.8915 16.3904 38.7987 16.3908C38.7067 16.3887 38.6191 16.359 38.554 16.3077C38.4889 16.2563 38.4512 16.1873 38.4486 16.1148V10.2694H36.6343C36.5879 10.2706 36.5417 10.2643 36.4985 10.2509C36.4553 10.2374 36.4161 10.2172 36.3833 10.1913C36.3504 10.1654 36.3247 10.1345 36.3076 10.1004C36.2906 10.0664 36.2826 10.03 36.2842 9.99339C36.2851 9.92041 36.3222 9.85061 36.3877 9.79901C36.4532 9.7474 36.5417 9.71809 36.6343 9.71739H38.4486V7.58515C38.4487 7.51444 38.4809 7.4461 38.5392 7.3924C38.5976 7.33871 38.6783 7.30319 38.767 7.29224C38.8165 7.28708 38.8668 7.2904 38.9146 7.30197C38.9624 7.31354 39.0064 7.33309 39.0437 7.35928C39.081 7.38547 39.1107 7.4177 39.1308 7.45376C39.1508 7.48982 39.1608 7.52887 39.16 7.56824V9.71739H41.0378ZM52.5481 12.5437V16.0816C52.5462 16.1266 52.5307 16.1705 52.5031 16.2098C52.4754 16.2492 52.4363 16.2828 52.389 16.3078C52.3417 16.3329 52.2874 16.3488 52.2308 16.3542C52.1742 16.3595 52.1167 16.3542 52.0632 16.3387C51.9984 16.3182 51.9431 16.2827 51.9047 16.2367C51.8664 16.1907 51.8468 16.1366 51.8486 16.0816V12.5437C51.8486 11.3484 50.9887 10.1605 49.3023 10.1605C47.1379 10.1605 46.2042 11.6487 46.3312 13.1796C46.3312 13.2215 46.3527 13.3967 46.3527 13.4217V16.0735C46.3524 16.144 46.3202 16.2121 46.2621 16.2656C46.2039 16.3192 46.1234 16.3547 46.0351 16.3657C45.9856 16.3709 45.9352 16.3676 45.8875 16.356C45.8397 16.3444 45.7957 16.3249 45.7584 16.2987C45.7211 16.2725 45.6914 16.2403 45.6713 16.2042C45.6512 16.1682 45.6413 16.1291 45.6421 16.0897V4.45715C45.6427 4.38412 45.6799 4.31422 45.7454 4.26258C45.8109 4.21093 45.8996 4.18168 45.9922 4.18115C46.0843 4.1832 46.1718 4.21293 46.2369 4.26426C46.3021 4.31558 46.3398 4.3846 46.3424 4.45715V11.0304C46.9465 10.1774 48.0288 9.60036 49.2912 9.60036C51.3706 9.60036 52.5489 11.0304 52.5489 12.5437H52.5481ZM65.1843 13.0206C65.1828 13.0993 65.1417 13.1743 65.0701 13.2292C64.9985 13.2841 64.9023 13.3144 64.8024 13.3135H57.7686C57.9488 14.6847 59.2533 15.9396 61.1001 15.9396C62.3626 15.9396 63.2963 15.5628 63.9966 14.7686C64.0291 14.7269 64.0741 14.6921 64.1277 14.6673C64.1813 14.6425 64.2418 14.6285 64.3038 14.6265C64.3501 14.6256 64.3962 14.6321 64.4392 14.6457C64.4822 14.6592 64.5213 14.6795 64.554 14.7053C64.5868 14.7311 64.6125 14.7619 64.6297 14.7958C64.6469 14.8297 64.6551 14.866 64.654 14.9025C64.6542 14.953 64.6357 15.0023 64.6008 15.0446C63.8902 16.0147 62.4793 16.4916 61.0993 16.4916C58.734 16.4916 57.0365 14.8187 57.0365 13.0375C57.0365 11.2564 58.7237 9.58345 61.1001 9.58345C63.4551 9.58345 65.174 11.2394 65.1852 13.0206H65.1843ZM64.4205 12.7615C64.2721 11.3903 62.9358 10.1354 61.0898 10.1354C59.243 10.1354 57.9385 11.3903 57.7583 12.7615H64.4205ZM73.8317 9.97648C73.8385 10.0508 73.8077 10.1243 73.7459 10.1807C73.6841 10.2372 73.5964 10.272 73.5021 10.2775C71.4338 10.5204 70.5001 11.8503 70.5001 13.3974V16.0485C70.4997 16.1191 70.4675 16.1873 70.4092 16.2408C70.3508 16.2944 70.2702 16.3298 70.1817 16.3407C70.1322 16.3459 70.0819 16.3426 70.0342 16.331C69.9865 16.3194 69.9425 16.2999 69.9052 16.2737C69.868 16.2474 69.8384 16.2152 69.8184 16.1792C69.7984 16.1431 69.7886 16.1041 69.7895 16.0647V10.0184C69.7896 9.94781 69.8216 9.87954 69.8798 9.82586C69.938 9.77218 70.0186 9.7366 70.107 9.7255C70.1566 9.72034 70.2071 9.72367 70.2549 9.73528C70.3027 9.74689 70.3468 9.7665 70.3841 9.79276C70.4214 9.81903 70.4511 9.85134 70.4711 9.88748C70.4911 9.92363 70.501 9.96275 70.5001 10.0022V11.2313C71.0837 10.4534 72.2397 9.71739 73.4498 9.71739C73.63 9.71739 73.8317 9.81818 73.8317 9.97648ZM85.396 13.0206C85.3944 13.0993 85.3534 13.1743 85.2818 13.2292C85.2102 13.2841 85.114 13.3144 85.0141 13.3135H77.9794C78.1596 14.6847 79.4649 15.9396 81.311 15.9396C82.5734 15.9396 83.508 15.5628 84.2074 14.7686C84.24 14.7269 84.285 14.6921 84.3386 14.6674C84.3921 14.6426 84.4526 14.6286 84.5146 14.6265C84.561 14.6255 84.6072 14.6319 84.6503 14.6454C84.6934 14.6589 84.7326 14.6792 84.7654 14.7051C84.7983 14.7309 84.8241 14.7617 84.8413 14.7957C84.8586 14.8296 84.8668 14.866 84.8657 14.9025C84.8658 14.953 84.8473 15.0023 84.8124 15.0446C84.101 16.0147 82.6901 16.4916 81.311 16.4916C78.9449 16.4916 77.2473 14.8187 77.2473 13.0375C77.2473 11.2564 78.9346 9.58345 81.311 9.58345C83.6882 9.58345 85.3849 11.2394 85.396 13.0206ZM84.6425 12.7615C84.494 11.3903 83.1578 10.1354 81.311 10.1354C79.4649 10.1354 78.1596 11.3903 77.9794 12.7615H84.6425ZM96.769 10.0434V16.1148C96.7671 16.1598 96.7517 16.2038 96.724 16.2432C96.6963 16.2826 96.6571 16.3163 96.6097 16.3414C96.5622 16.3665 96.5079 16.3823 96.4511 16.3876C96.3944 16.3929 96.3368 16.3875 96.2833 16.3718C96.2183 16.3516 96.1629 16.316 96.1245 16.27C96.0861 16.224 96.0666 16.1698 96.0687 16.1148V14.9607C95.4851 15.8726 94.4561 16.5335 93.1405 16.5335C91.0508 16.5335 89.8939 15.1034 89.8939 13.5895V10.0353C89.8952 9.96246 89.9325 9.89286 89.9979 9.84133C90.0633 9.78979 90.1516 9.76038 90.244 9.75933C90.336 9.76154 90.4235 9.79132 90.4885 9.84261C90.5536 9.8939 90.5914 9.96283 90.5942 10.0353V13.5895C90.5942 14.7855 91.4541 15.9727 93.1405 15.9727C95.5066 15.9727 96.0687 14.2254 96.0687 12.2927V10.0265C96.0706 9.95926 96.103 9.89474 96.16 9.84463C96.2169 9.79451 96.2948 9.7621 96.3794 9.75324C96.4355 9.74734 96.4926 9.75222 96.5459 9.76745C96.6127 9.79179 96.6692 9.83074 96.7088 9.87966C96.7483 9.92859 96.7692 9.98543 96.769 10.0434ZM114.582 12.5187V16.0735C114.58 16.1184 114.565 16.1624 114.537 16.2017C114.509 16.241 114.47 16.2746 114.423 16.2997C114.376 16.3248 114.321 16.3407 114.265 16.3461C114.208 16.3514 114.151 16.3461 114.097 16.3306C114.054 16.3171 114.015 16.2966 113.982 16.2704C113.949 16.2448 113.923 16.2141 113.906 16.1802C113.889 16.1463 113.881 16.11 113.883 16.0735V12.5187C113.883 11.3233 113.023 10.1524 111.336 10.1524C109.214 10.1524 108.408 11.9423 108.408 13.3304V16.0735C108.406 16.1185 108.391 16.1626 108.363 16.202C108.335 16.2414 108.296 16.275 108.249 16.3001C108.201 16.3252 108.147 16.3411 108.09 16.3464C108.033 16.3517 107.976 16.3462 107.922 16.3306C107.857 16.3103 107.802 16.2747 107.764 16.2287C107.725 16.1827 107.706 16.1285 107.708 16.0735V12.5187C107.708 11.3233 106.848 10.1524 105.161 10.1524C103.018 10.1524 102.137 11.4823 102.212 13.2547C102.212 13.2966 102.233 13.3717 102.212 13.3967V16.0647C102.212 16.1355 102.18 16.2039 102.121 16.2576C102.063 16.3113 101.982 16.3468 101.893 16.3576C101.844 16.3628 101.794 16.3595 101.746 16.3479C101.698 16.3363 101.654 16.3168 101.617 16.2906C101.58 16.2644 101.55 16.2321 101.53 16.1961C101.51 16.16 101.5 16.121 101.501 16.0816V10.0184C101.501 9.94763 101.533 9.87914 101.591 9.82539C101.65 9.77164 101.731 9.7362 101.82 9.7255C101.869 9.72045 101.919 9.72385 101.967 9.73547C102.015 9.74708 102.059 9.76665 102.096 9.79283C102.133 9.81901 102.163 9.8512 102.183 9.88721C102.203 9.92321 102.213 9.9622 102.212 10.0015V11.0135C102.817 10.1612 103.899 9.60036 105.161 9.60036C106.594 9.60036 107.708 10.3194 108.163 11.3646C108.747 10.3276 109.882 9.60036 111.336 9.60036C113.405 9.60036 114.582 11.0142 114.582 12.5187Z" fill="#161616" fill-opacity="0.5"/>
<path opacity="0.6" d="M8.80522 8.37134L0 11.5237L8.80522 15.6299L17.6225 11.5237L8.80608 8.37134H8.80522Z" fill="#161616" fill-opacity="0.5"/>
<path opacity="0.45" d="M0 11.5237L8.80522 15.6299V0L0 11.5237Z" fill="#161616" fill-opacity="0.5"/>
<path opacity="0.8" d="M8.80518 0V15.6299L17.6224 11.5237L8.80518 0Z" fill="#161616" fill-opacity="0.5"/>
<path opacity="0.45" d="M0 12.8455L8.80522 22.6299V16.9428L0 12.8461V12.8455Z" fill="#161616" fill-opacity="0.5"/>
<path opacity="0.8" d="M8.80518 16.9428V22.6299L17.6224 12.8455L8.80603 16.9428H8.80518Z" fill="#161616" fill-opacity="0.5"/>
</svg>
