<svg width="115" height="23" viewBox="0 0 115 23" fill="none" xmlns="http://www.w3.org/2000/svg">
<g clip-path="url(#clip0_147_2207)">
<path d="M3.36102 3.52283L8.70726 0L14.0527 3.52283L12.0876 4.82425L8.70726 2.60283L5.32609 4.82425L3.36102 3.52283ZM14.0518 7.96567L12.0876 6.66425L8.70726 8.88567L5.32609 6.66425L3.36102 7.96567V10.5685L6.74135 12.7899V17.2327L8.70726 18.5342L10.6723 17.2327V12.7899L14.0527 10.5685V7.96567H14.0518ZM14.0518 15.0113V12.4085L12.0876 13.7099V16.3127L14.0527 15.0113H14.0518ZM15.4478 15.9313L12.0674 18.1528V20.7556L17.4128 17.2327V10.1871L15.4478 11.4885V15.9313ZM13.4827 5.74425L15.4469 7.04567V9.6485L17.4128 8.34708V5.74425L15.4478 4.44283L13.4827 5.74425ZM6.74051 19.0958V21.6986L8.70726 23L10.6723 21.6986V19.0958L8.70726 20.3972L6.74135 19.0958H6.74051ZM3.36018 15.0113L5.32526 16.3127V13.7099L3.36018 12.4085V15.0113ZM6.74051 5.74425L8.70642 7.04567L10.6715 5.74425L8.70642 4.44283L6.74051 5.74425ZM1.96423 7.04567L3.93015 5.74425L1.96423 4.44283L0 5.74425V8.34708L1.96507 9.6485V7.04567H1.96423ZM1.96423 11.4885L0 10.1871V17.2327L5.34624 20.7565V18.1528L1.96423 15.9313V11.4885ZM32.9093 14.4344V14.397C32.9093 12.6787 32.1085 11.8191 30.8108 11.2527C31.6116 10.74 32.2848 9.936 32.2848 8.49083V8.45442C32.2848 6.44287 30.8746 5.14433 28.5846 5.14433H23.3794V17.9448H28.7131C31.2431 17.9448 32.9093 16.7747 32.9093 14.4335V14.4344ZM29.8328 8.96521C29.8328 9.91587 29.1445 10.3184 28.055 10.3184H25.7801V7.613H28.2153C29.2562 7.613 29.8328 8.08833 29.8328 8.92975V8.96617V8.96521ZM30.4582 14.0856C30.4582 15.0362 29.8009 15.4752 28.7122 15.4752H25.781V12.6596H28.6316C29.8975 12.6596 30.4574 13.1895 30.4574 14.0492V14.0856H30.4582ZM45.0607 17.9448V5.14433H42.6264V13.0257L37.3725 5.14433H35.0977V17.9448H37.5328V9.80854L42.963 17.9448H45.0615H45.0607ZM57.4429 14.4344V14.397C57.4429 12.6787 56.6421 11.8191 55.3444 11.2527C56.1452 10.74 56.8176 9.936 56.8176 8.49083V8.45442C56.8176 6.44287 55.4082 5.14433 53.1182 5.14433H47.9122V17.9448H53.2458C55.7767 17.9448 57.4429 16.7747 57.4429 14.4335V14.4344ZM54.3673 8.96617C54.3673 9.91683 53.679 10.3193 52.5894 10.3193H50.3146V7.613H52.7489C53.7906 7.613 54.3673 8.08833 54.3673 8.92975V8.96617ZM54.9918 14.0865C54.9918 15.0372 54.3354 15.4761 53.2458 15.4761H50.3154V12.6605H53.1661C54.4311 12.6605 54.9918 13.1905 54.9918 14.0501V14.0865ZM72.3081 15.6841L71.0431 14.2207C70.082 15.2452 69.2015 15.8853 67.824 15.8853C65.6776 15.8853 64.1238 13.8364 64.1238 11.3141C64.1238 8.78983 65.6768 6.77829 67.824 6.77829C69.1049 6.77829 70.0661 7.41846 70.9634 8.36912L72.2284 6.70546C71.1556 5.53533 69.9057 4.71212 67.8399 4.71212C64.4445 4.71212 62.058 7.69254 62.058 11.3495C62.058 15.0439 64.4923 17.9515 67.7593 17.9515C69.8579 17.9515 71.1397 17.0737 72.309 15.6841H72.3081ZM81.859 12.3376V17.732H83.8291V4.93158H81.859V10.2522H76.5094V4.93158H74.5393V17.732H76.5094V12.3366H81.859V12.3376ZM92.6665 4.83958H90.8408L85.9075 17.732H87.9255L89.0788 14.6414H94.3806L95.518 17.732H97.5997L92.6665 4.83958ZM93.6595 12.6481H89.7999L91.7213 7.52771L93.6595 12.6481ZM99.7948 4.93158V17.732H101.765V4.93158H99.7948ZM112.759 13.7818L106.752 4.93158H104.926V17.732H106.864V8.625L113.047 17.732H114.697V4.93158H112.759V13.7818Z" fill="#161616" fill-opacity="0.5"/>
</g>
<defs>
<clipPath id="clip0_147_2207">
<rect width="115" height="23" fill="white"/>
</clipPath>
</defs>
</svg>
