<svg width="115" height="23" viewBox="0 0 115 23" fill="none" xmlns="http://www.w3.org/2000/svg">
<g clip-path="url(#clip0_147_2209)">
<path d="M39.3073 12.1281H43.586C44.1883 12.1281 44.6755 12.643 44.6755 13.271C44.6755 13.9044 44.1883 14.414 43.5869 14.414H38.4251C38.3442 14.414 38.2664 14.445 38.2074 14.5006L36.6509 15.9028C36.4122 16.1195 36.5579 16.5255 36.8686 16.5255H43.3271C43.3271 16.5255 43.3323 16.5255 43.3323 16.5193C43.3323 16.514 43.3376 16.514 43.3376 16.514C43.4201 16.5193 43.4983 16.5255 43.5817 16.5255C45.2935 16.5255 46.6831 15.0686 46.6831 13.271C46.6831 11.5655 45.4331 10.1634 43.8354 10.028C43.8354 10.028 43.8301 10.028 43.8301 10.0227C43.8301 10.0165 43.8301 10.0165 43.8248 10.0165H39.2187C38.6173 10.0165 38.1301 9.50345 38.1301 8.87537C38.1301 8.24111 38.6173 7.73245 39.2187 7.73245H44.37C44.4549 7.73218 44.5365 7.69928 44.5982 7.64045L46.0441 6.23657C46.2723 6.01541 46.1222 5.61999 45.8158 5.61999H39.2231C37.5112 5.61999 36.1216 7.07607 36.1216 8.87361C36.1216 10.6711 37.5112 12.1281 39.2231 12.1281H39.3065H39.3073ZM64.2158 5.61468C64.1703 5.6156 64.1255 5.62559 64.0838 5.6441C64.0422 5.6626 64.0046 5.68924 63.9733 5.72248C63.9419 5.75572 63.9174 5.79489 63.9012 5.83773C63.8849 5.88057 63.8773 5.92623 63.8787 5.97207V16.1735C63.8787 16.3681 64.0288 16.5308 64.2158 16.5308H72.0481C72.0951 16.5297 72.1415 16.519 72.1843 16.4994C72.2272 16.4798 72.2656 16.4517 72.2974 16.4167L73.278 15.318C73.4799 15.0907 73.3298 14.7165 73.0287 14.7165H66.1919C66.1464 14.7156 66.1015 14.7056 66.0599 14.6871C66.0182 14.6686 65.9807 14.6419 65.9493 14.6087C65.918 14.5755 65.8935 14.5363 65.8772 14.4934C65.861 14.4506 65.8534 14.4049 65.8548 14.3591V5.96676C65.8567 5.87444 65.8223 5.78511 65.7592 5.71818C65.6961 5.65126 65.6093 5.61215 65.5177 5.60938H64.2158V5.61468Z" fill="#161616" fill-opacity="0.5"/>
<path fill-rule="evenodd" clip-rule="evenodd" d="M51.6726 5.61548C51.6726 5.62079 51.6726 5.62079 51.6726 5.61548C50.6718 5.66413 49.8677 6.50275 49.8203 7.54836V14.4952C49.8203 15.5833 50.6402 16.4715 51.6726 16.5148H58.7789C59.806 16.4653 60.6312 15.5771 60.6312 14.4944V7.55279C60.5899 6.50894 59.7858 5.66413 58.7842 5.62079H51.6735V5.61548H51.6726ZM53.0008 7.55279C52.9955 7.55279 52.9955 7.55279 53.0008 7.55279C52.3731 7.58021 51.8701 8.11098 51.8438 8.77179V13.1409C51.8438 13.8229 52.3573 14.3864 53.0008 14.4139H57.4568C58.0994 14.3873 58.613 13.8229 58.613 13.1409V8.7709C58.5866 8.11098 58.0845 7.58552 57.4568 7.55367H53.0008V7.55279ZM84.6636 16.1734C84.6636 16.368 84.8137 16.5307 85.0007 16.5307H86.328C86.3736 16.5299 86.4185 16.52 86.4603 16.5016C86.502 16.4831 86.5397 16.4565 86.5711 16.4233C86.6026 16.39 86.6271 16.3508 86.6434 16.3079C86.6597 16.265 86.6674 16.2193 86.666 16.1734V7.64567C86.666 6.55759 85.8513 5.66856 84.8347 5.62609H77.9304C76.8717 5.62609 76.0166 6.53017 76.0166 7.65098V16.1787C76.0166 16.3733 76.1658 16.5361 76.3537 16.5361H77.681C77.7265 16.5351 77.7714 16.5251 77.813 16.5066C77.8547 16.4881 77.8923 16.4615 77.9236 16.4283C77.955 16.395 77.9795 16.3558 77.9957 16.313C78.0119 16.2702 78.0195 16.2245 78.0181 16.1787V12.6641C78.0181 12.4695 78.1691 12.3067 78.3552 12.3067H84.3423C84.5284 12.3067 84.6785 12.4642 84.6785 12.6641V16.1734H84.6636ZM78.0085 10.3632V8.60902C78.0085 7.92698 78.5317 7.37498 79.176 7.37498H83.5013C84.1447 7.37498 84.6688 7.92698 84.6688 8.60902V10.3632C84.6688 10.5578 84.5178 10.7206 84.3308 10.7206H78.3456C78.3001 10.7197 78.2552 10.7097 78.2136 10.6912C78.1719 10.6727 78.1344 10.646 78.103 10.6128C78.0717 10.5796 78.0472 10.5404 78.0309 10.4975C78.0147 10.4547 78.0071 10.409 78.0085 10.3632ZM112.7 16.5307C112.654 16.5298 112.609 16.5198 112.568 16.5013C112.526 16.4828 112.489 16.4562 112.457 16.4229C112.426 16.3897 112.401 16.3505 112.385 16.3077C112.369 16.2649 112.361 16.2192 112.363 16.1734V12.6588C112.365 12.5665 112.33 12.4771 112.267 12.4102C112.204 12.3433 112.117 12.3042 112.026 12.3014H105.972C105.926 12.3023 105.882 12.3123 105.84 12.3308C105.798 12.3493 105.761 12.376 105.729 12.4092C105.698 12.4424 105.674 12.4816 105.657 12.5245C105.641 12.5673 105.633 12.613 105.635 12.6588V16.1734C105.635 16.368 105.485 16.5307 105.298 16.5307H103.96C103.914 16.5298 103.869 16.5198 103.828 16.5013C103.786 16.4828 103.749 16.4562 103.717 16.4229C103.686 16.3897 103.661 16.3505 103.645 16.3077C103.629 16.2649 103.621 16.2192 103.623 16.1734V7.64567C103.623 6.53017 104.488 5.6199 105.558 5.6199H112.534C113.561 5.66944 114.385 6.55759 114.385 7.64036V16.1681C114.385 16.3627 114.235 16.5254 114.048 16.5254H112.7V16.5307ZM105.635 8.60902V10.3632C105.635 10.5578 105.786 10.7206 105.972 10.7206H112.026C112.071 10.7197 112.116 10.7097 112.158 10.6912C112.199 10.6727 112.237 10.646 112.268 10.6128C112.3 10.5796 112.324 10.5404 112.34 10.4975C112.357 10.4547 112.364 10.409 112.363 10.3632V8.60902C112.363 7.92698 111.833 7.37498 111.186 7.37498H106.812C106.159 7.37498 105.635 7.92698 105.635 8.60902Z" fill="#161616" fill-opacity="0.5"/>
<path d="M91.6662 5.61554C91.7645 5.61554 91.8576 5.658 91.9199 5.73938L97.8753 13.1525C98.0772 13.401 98.4661 13.2498 98.4661 12.9189V5.97204C98.4661 5.77742 98.6162 5.61465 98.8032 5.61465H100.131C100.318 5.61465 100.469 5.77212 100.469 5.97204V16.1734C100.469 16.368 100.318 16.5308 100.131 16.5308H98.4819C98.4767 16.5308 98.4714 16.5255 98.4714 16.5202C98.4714 16.5149 98.4714 16.5149 98.4661 16.5087L92.408 9.15046C92.2052 8.90188 91.8163 9.05846 91.8163 9.384V16.1787C91.8163 16.3733 91.6662 16.5361 91.4792 16.5361H90.1405C90.095 16.5352 90.0501 16.5252 90.0085 16.5067C89.9668 16.4882 89.9293 16.4616 89.8979 16.4283C89.8666 16.3951 89.8421 16.3559 89.8258 16.3131C89.8096 16.2702 89.802 16.2246 89.8034 16.1787V5.97204C89.8034 5.77742 89.9544 5.61465 90.1405 5.61465H91.6662V5.61554ZM5.24239 16.905C5.32271 16.8197 5.41935 16.7517 5.52646 16.705C5.63358 16.6583 5.74897 16.634 5.86567 16.6334H27.4699C27.864 16.6334 28.0607 17.1315 27.7806 17.419L23.5116 21.8748C23.4313 21.9598 23.3348 22.0276 23.2278 22.0741C23.1208 22.1207 23.0057 22.1449 22.8892 22.1455H1.28498C0.889943 22.1455 0.693301 21.6474 0.97334 21.3608L5.24239 16.9041V16.905ZM5.24239 0.270692C5.32279 0.185544 5.41946 0.117668 5.52657 0.0711481C5.63368 0.0246284 5.74903 0.000426886 5.86567 0L27.4699 0C27.864 0 28.0607 0.498038 27.7806 0.785538L23.5116 5.23515C23.4314 5.32036 23.3349 5.38833 23.2279 5.435C23.1209 5.48167 23.0057 5.50607 22.8892 5.50673H1.28498C0.889943 5.50673 0.693301 5.00869 0.97334 4.72119L5.24239 0.270692ZM23.5116 8.533C23.4313 8.44796 23.3348 8.38015 23.2278 8.33363C23.1208 8.28711 23.0057 8.26285 22.8892 8.26231H1.28498C0.889943 8.26231 0.693301 8.76123 0.97334 9.04785L5.24239 13.4983C5.40918 13.6717 5.63128 13.769 5.86567 13.769H27.4699C27.864 13.769 28.0607 13.271 27.7806 12.9844L23.5116 8.533Z" fill="#161616" fill-opacity="0.5"/>
</g>
<defs>
<clipPath id="clip0_147_2209">
<rect width="115" height="23" fill="white"/>
</clipPath>
</defs>
</svg>
