<svg width="115" height="23" viewBox="0 0 115 23" fill="none" xmlns="http://www.w3.org/2000/svg">
<g clip-path="url(#clip0_147_2213)">
<path d="M27.1488 9.43672C24.9397 9.43672 23.1205 10.2321 21.6649 11.8469C20.2105 13.4387 19.4821 15.3257 19.4821 17.4417C19.4821 18.8964 19.9498 20.079 20.8599 20.9885C21.769 21.8989 22.9902 22.3531 24.5235 22.3531C26.5771 22.3531 28.3185 21.6028 29.7741 20.1011C30.7346 19.0105 31.1245 18.3511 31.3326 17.8729C31.8662 16.7408 32.1401 15.5278 32.1387 14.3031C32.1387 12.8704 31.7488 11.7108 30.969 10.8014C30.1892 9.89097 28.8902 9.43672 27.1488 9.43672ZM27.2266 19.0325C26.473 19.6928 25.5892 20.033 24.6024 20.033C23.874 20.033 23.2771 19.8059 22.8609 19.3516C22.4448 18.8964 22.2367 18.2591 22.2367 17.4637C22.2367 15.8729 22.6791 14.5312 23.5882 13.4387C24.472 12.3472 25.6155 11.8019 26.9922 11.8019C28.5518 11.8019 29.3053 12.6203 29.3053 14.2801C29.3316 16.7143 28.0064 18.3511 27.2266 19.0335V19.0325ZM10.1529 9.36001e-06C4.7479 9.36001e-06 0.328613 3.84293 0.328613 8.59626C0.328613 9.55076 0.511518 10.4832 0.848851 11.3927C1.08323 12.006 1.86195 12.3472 2.59028 12.1431C3.29123 11.938 3.68114 11.2566 3.44785 10.6193C3.16274 9.91144 3.03053 9.16337 3.05795 8.41322C3.16199 5.20759 6.12461 2.5693 9.78819 2.41022C13.869 2.22813 17.2468 5.07055 17.2468 8.5953C17.2442 10.1769 16.5515 11.6979 15.3101 12.8475C14.0687 13.9971 12.3725 14.6885 10.568 14.7804C10.568 14.7804 9.19128 14.8494 8.51552 14.9395C8.17709 14.9855 7.91752 15.0305 7.73571 15.0545C7.65795 15.0765 7.58018 15.0085 7.60537 14.9395L7.83976 13.939L9.08723 8.82338C9.16178 8.51568 9.09423 8.19467 8.8993 7.93039C8.70437 7.66612 8.3979 7.48002 8.04676 7.41272C7.69542 7.34805 7.32912 7.40743 7.02758 7.57795C6.72605 7.74846 6.5137 8.01629 6.43676 8.32313C6.43676 8.32313 3.37009 20.8294 3.3438 20.9655C3.26922 21.273 3.33663 21.5939 3.53133 21.8582C3.72604 22.1224 4.03224 22.3086 4.38318 22.3761C4.73468 22.4411 5.10127 22.3818 5.40305 22.2113C5.70484 22.0408 5.91735 21.7728 5.99428 21.4657C6.02057 21.3296 6.43676 19.6698 6.43676 19.6698C6.58449 19.0614 6.94328 18.5077 7.46412 18.0844C7.98497 17.661 8.64246 17.3887 9.3468 17.3046C9.65895 17.2596 10.8801 17.1915 10.8801 17.1915C15.9478 16.8504 19.9498 13.1436 19.9498 8.6183C19.9586 7.48825 19.7116 6.36785 19.2231 5.32175C18.7345 4.27565 18.014 3.32456 17.1032 2.52334C16.1924 1.72211 15.1094 1.08663 13.9164 0.653541C12.7235 0.220454 11.4444 -0.00166176 10.1529 9.36001e-06ZM110.65 15.4177C109.999 15.2356 109.272 15.5087 109.012 16.077C107.816 18.6923 106.336 20.011 104.516 20.011C103.58 20.011 103.112 19.3056 103.112 17.9189C103.112 17.1455 103.373 15.6218 103.892 13.3707L104.282 11.7798H107.973C108.597 11.7798 109.168 11.3927 109.272 10.8464C109.313 10.6769 109.31 10.5015 109.264 10.333C109.217 10.1645 109.129 10.0072 109.005 9.87233C108.88 9.73747 108.723 9.62851 108.545 9.55334C108.366 9.47816 108.171 9.43865 107.973 9.43768H104.88L105.53 6.79938C105.573 6.62344 105.57 6.44128 105.522 6.26632C105.474 6.09135 105.382 5.92803 105.252 5.78838C105.122 5.64872 104.959 5.53627 104.773 5.45931C104.587 5.38235 104.384 5.34284 104.178 5.34368C103.529 5.34368 102.983 5.73084 102.826 6.29913L102.048 9.43672H93.4195C91.2104 9.43672 89.3912 10.2321 87.9356 11.8469C86.48 13.4387 85.7528 15.3257 85.7528 17.4417C85.747 17.9864 85.8255 18.5292 85.9861 19.0555C85.2851 19.6928 84.5316 20.011 83.7255 20.011C83.1801 20.011 82.7902 19.8739 82.5558 19.6018C82.3225 19.3286 82.1922 18.8734 82.1922 18.2371C82.1922 17.3267 82.4003 15.985 82.8417 14.2121L85.1033 5.07055C85.1462 4.89467 85.1435 4.71262 85.0954 4.53778C85.0473 4.36294 84.955 4.19975 84.8254 4.0602C84.6957 3.92066 84.532 3.8083 84.3462 3.7314C84.1604 3.65449 83.9573 3.61499 83.7518 3.6158C83.4362 3.61713 83.1305 3.71234 82.8849 3.88579C82.6393 4.05925 82.4684 4.30063 82.4003 4.5703L81.0477 10.1421C80.1323 9.67698 79.092 9.43353 78.0336 9.43672C75.7993 9.43672 73.9264 10.1871 72.4194 11.7108C70.9386 13.2346 70.1851 15.1446 70.1851 17.4417C70.1851 18.1691 70.2891 18.8054 70.4972 19.3967C69.8992 19.8289 69.2749 20.034 68.5992 20.034C68.0538 20.034 67.6639 19.8969 67.378 19.6238C67.1184 19.3516 66.9881 18.8964 66.9881 18.2601C66.9881 17.6918 67.1184 16.8044 67.4043 15.5538C67.4413 15.3854 67.4377 15.2122 67.3937 15.0451C67.3496 14.8781 67.2661 14.721 67.1486 14.5839C67.031 14.4468 66.8819 14.3327 66.7109 14.2491C66.5399 14.1654 66.3508 14.1139 66.1557 14.0981C65.8256 14.068 65.4939 14.1403 65.2186 14.3026C64.9434 14.4648 64.742 14.7065 64.6498 14.9855C64.1295 16.5543 63.48 17.7598 62.7517 18.5783C61.8689 19.5558 60.9073 20.056 59.8931 20.056C59.2962 20.056 58.8023 19.8068 58.4124 19.3056C58.0488 18.8054 57.8669 18.146 57.8669 17.3506C57.8669 15.7358 58.3083 14.3942 59.2174 13.3707C60.1275 12.3251 61.2972 11.8019 62.7517 11.8019C63.48 11.8019 64.2084 11.938 64.8316 12.166C65.2215 12.3021 65.6891 12.3021 66.0528 12.0971C66.9881 11.5968 66.8851 10.3692 65.8972 10.028C65.3507 9.82388 65.0648 9.77884 64.8316 9.73284C64.2073 9.5958 63.4275 9.48272 62.8043 9.48272C60.5952 9.50476 58.7245 10.2551 57.2427 11.7568C56.4362 12.5703 55.8343 13.523 55.476 14.5533C54.176 18.2371 52.4609 20.079 50.4084 20.079C49.7063 20.079 49.1861 19.8739 48.875 19.4877C48.5366 19.1015 48.3811 18.6013 48.3811 18.01C48.3811 17.8049 48.3811 17.6458 48.4074 17.5318C49.7063 17.0775 50.772 16.3722 51.5507 15.4397C52.3316 14.5082 52.7467 13.4617 52.7467 12.3472C52.7467 10.4602 51.577 9.52776 49.2124 9.52776C47.5487 9.52776 46.0942 10.051 44.7942 11.0966L46.2509 5.13955C46.2938 4.9666 46.2919 4.78741 46.2451 4.61522C46.1983 4.44303 46.1079 4.28222 45.9806 4.14469C45.8533 4.00716 45.6923 3.89641 45.5095 3.82063C45.3267 3.74484 45.1268 3.70596 44.9245 3.70684C44.6107 3.70443 44.3059 3.79875 44.0636 3.97328C43.8213 4.1478 43.6569 4.39139 43.5993 4.66134L39.5973 21.0354C39.5545 21.2082 39.5566 21.3872 39.6034 21.5592C39.6502 21.7312 39.7405 21.8918 39.8677 22.0292C39.9949 22.1666 40.1557 22.2773 40.3382 22.3531C40.5208 22.4289 40.7205 22.4679 40.9225 22.4672C41.572 22.4672 42.1174 22.081 42.2478 21.5357L43.4952 16.5332C43.7033 15.8959 43.9881 15.2366 44.3791 14.5993C44.769 13.9629 45.3659 13.3486 46.1972 12.7803C46.9566 12.2115 47.927 11.9045 48.9265 11.9169C49.6023 11.9169 49.9396 12.2121 49.9396 12.8263C49.9396 13.5087 49.4982 14.1901 48.6407 14.8273C47.7831 15.4637 46.8478 15.8729 45.8599 16.0099C45.7821 16.7373 45.7306 17.2376 45.7306 17.5557C45.7306 19.0795 46.1194 20.285 46.8992 21.1715C47.679 22.058 48.8225 22.4902 50.3558 22.4902C52.1487 22.4902 53.7083 21.8078 55.0336 20.4662C55.2154 20.2841 55.372 20.102 55.5538 19.8979C55.7619 20.3531 56.0215 20.7623 56.3588 21.1035C57.2164 22.0129 58.3609 22.4681 59.8154 22.4681C61.6609 22.4681 63.2205 21.6948 64.4931 20.126C65.0397 21.6948 66.3649 22.4681 68.5214 22.4681C69.7426 22.4681 70.8346 22.126 71.8477 21.4446C72.6537 22.126 73.6931 22.4672 74.9406 22.4672C76.7861 22.4672 78.3446 21.6948 79.6184 20.125C80.1638 21.6948 81.4901 22.4681 83.6467 22.4681C85.0245 22.4681 86.2457 22.058 87.3113 21.2395C88.2204 22.058 89.3638 22.4681 90.8194 22.4681C92.8718 22.4681 94.6133 21.7168 96.0688 20.216C97.0305 19.1245 97.4204 18.4652 97.6285 17.9879C98.1617 16.8557 98.4353 15.6427 98.4335 14.4181C98.4335 13.4627 98.2517 12.6213 97.9143 11.8939H101.474L101.137 13.2586C100.565 15.6007 100.279 17.1925 100.279 18.0339C100.279 20.9894 101.657 22.4681 104.386 22.4681C107.425 22.4681 109.765 20.6713 111.427 17.0555C111.74 16.3511 111.376 15.6458 110.649 15.4186L110.65 15.4177ZM80.0871 13.962C79.5943 16.032 78.8659 17.5557 77.9569 18.5332C77.0479 19.5107 76.0589 20.011 75.0195 20.011C74.4215 20.011 73.9286 19.7608 73.5387 19.2606C73.1751 18.7603 72.9922 18.101 72.9922 17.3056C72.9922 15.6898 73.4347 14.3491 74.3437 13.3256C75.2527 12.2791 76.4236 11.7568 77.878 11.7568C78.6579 11.7568 79.4891 12.052 80.3993 12.6663L80.0871 13.962ZM95.1083 16.8274C95.1083 16.8274 94.3033 18.3511 93.5487 19.0325C92.7952 19.6928 91.9124 20.033 90.9245 20.033C90.1973 20.033 89.5993 19.8059 89.1831 19.3516C88.7669 18.8964 88.5588 18.2591 88.5588 17.4637C88.5588 15.8729 89.0013 14.5312 89.9103 13.4387C90.8205 12.3472 91.9376 11.8019 93.3154 11.8019C94.875 11.8019 95.6286 12.6203 95.6286 14.2801C95.6286 15.0986 95.4719 15.9409 95.1083 16.8274ZM38.8175 3.6158C38.168 3.6158 37.6215 4.00201 37.4922 4.5703L33.4902 20.9434C33.4473 21.1163 33.4492 21.2954 33.4959 21.4675C33.5426 21.6396 33.6329 21.8004 33.7601 21.9379C33.8873 22.0754 34.0482 22.1862 34.2308 22.262C34.4135 22.3379 34.6133 22.3769 34.8155 22.3761C35.4649 22.3761 36.0104 21.989 36.1407 21.4437L40.169 5.06959C40.2119 4.89371 40.2092 4.71166 40.1611 4.53682C40.113 4.36198 40.0207 4.19879 39.8911 4.05924C39.7614 3.9197 39.5977 3.80734 39.4119 3.73044C39.2261 3.65354 39.023 3.61404 38.8175 3.61484V3.6158ZM113.532 19.7829C113.105 19.7052 112.66 19.7788 112.295 19.9878C111.93 20.1967 111.674 20.5238 111.584 20.8974C111.538 21.0827 111.535 21.2741 111.574 21.4606C111.613 21.647 111.695 21.8248 111.813 21.9835C111.932 22.1422 112.085 22.2787 112.264 22.3851C112.444 22.4915 112.645 22.5657 112.858 22.6033C113.767 22.7623 114.624 22.2851 114.806 21.4887C114.962 20.6933 114.416 19.9429 113.532 19.7829Z" fill="#161616" fill-opacity="0.5"/>
</g>
<defs>
<clipPath id="clip0_147_2213">
<rect width="115" height="23" fill="white"/>
</clipPath>
</defs>
</svg>
