<svg width="115" height="23" viewBox="0 0 115 23" fill="none" xmlns="http://www.w3.org/2000/svg">
<g clip-path="url(#clip0_147_2215)">
<mask id="mask0_147_2215" style="mask-type:alpha" maskUnits="userSpaceOnUse" x="0" y="0" width="115" height="23">
<path d="M0.754883 0H114.571V22.5019H0.754883V0Z" fill="white"/>
</mask>
<g mask="url(#mask0_147_2215)">
<path d="M45.2828 7.16796C45.9809 7.54785 46.5719 8.06972 46.9472 8.78192C47.3778 9.49413 47.5926 10.3483 47.5926 11.2976C47.5926 12.247 47.3769 13.0544 46.8937 13.7666C46.4785 14.459 45.8175 15.0097 45.0136 15.333C44.2086 15.7129 43.2414 15.9024 42.2206 15.9024C41.6503 15.9043 41.0851 15.8076 40.5562 15.6177C40.0187 15.4749 39.5355 15.1902 39.1593 14.8579V19.795H36.0436V6.78885H38.7296L38.9979 7.83337C40.18 6.97841 41.4691 6.55172 42.8117 6.55172C43.7245 6.55172 44.5839 6.74127 45.2828 7.16875V7.16796ZM43.5641 13.0544C44.1007 12.6269 44.3691 12.0574 44.3691 11.3452C44.3691 10.633 44.1016 10.0636 43.6176 9.58851C43.1344 9.11423 42.4898 8.92389 41.7909 8.92389C41.2008 8.92389 40.6632 9.01906 40.2335 9.25699C39.8038 9.44654 39.482 9.77885 39.2128 10.2055V12.3422C39.3741 12.7696 39.6969 13.102 40.0722 13.3391C40.5019 13.577 40.9859 13.719 41.5761 13.719C42.382 13.719 43.0265 13.4811 43.5641 13.0544ZM49.4184 8.82872C49.9016 8.1641 50.5461 7.59385 51.4064 7.21396C52.3057 6.80981 53.2988 6.5985 54.3063 6.59692C55.3805 6.59692 56.3478 6.78727 57.2063 7.21396C58.0122 7.59465 58.6567 8.1641 59.1408 8.87551C59.624 9.58772 59.8388 10.3475 59.8388 11.2493C59.8388 12.1518 59.624 12.9108 59.1399 13.623C58.6567 14.3352 58.0657 14.9047 57.2063 15.2846C56.4004 15.6645 55.3805 15.9016 54.3063 15.9016C53.2321 15.9016 52.2649 15.7113 51.4055 15.3322C50.5461 14.9515 49.9016 14.4304 49.4175 13.7182C48.9547 12.9607 48.7149 12.1114 48.7204 11.2493C48.7204 10.3475 48.9878 9.54013 49.4184 8.82872ZM52.5876 12.9584C53.0173 13.4335 53.6083 13.623 54.3063 13.623C55.0043 13.623 55.5954 13.3851 56.0251 12.9584C56.4548 12.5309 56.6696 11.9139 56.6696 11.2493C56.6696 10.5371 56.4548 9.96761 56.0251 9.54013C55.5419 9.06586 55.0043 8.82872 54.2528 8.82872C53.5539 8.82872 53.0173 9.06586 52.5341 9.49334C52.1035 9.96761 51.8886 10.5371 51.8886 11.2493C51.8886 11.9139 52.1035 12.4841 52.5876 12.9584ZM64.8881 0.0466816V15.6637H61.7724V0.0474747H64.8881V0.0466816ZM77.6709 7.02441L71.3326 19.8417H68.3256L70.688 15.237L66.1772 7.02441H69.7217L72.2998 12.1518L74.8779 7.02441H77.6709ZM89.5944 7.02441V15.6645C89.5994 16.4654 89.3175 17.2468 88.7894 17.8955C88.2518 18.5601 87.5538 19.0828 86.6409 19.4619C85.7272 19.8425 84.7599 20.0313 83.6866 20.0313C82.8807 20.0313 82.1827 19.9361 81.5916 19.7942C81.0006 19.6038 80.5174 19.4143 80.1412 19.2247C79.7115 18.9868 79.2818 18.7021 78.7986 18.323L80.6253 16.4235C81.0192 16.7697 81.4724 17.0583 81.9678 17.2784C82.3975 17.4688 82.9886 17.6108 83.6331 17.6108C84.4381 17.6108 85.0826 17.4204 85.6202 17.0889C86.1569 16.7558 86.4261 16.2339 86.4261 15.6169V14.3828C86.0791 14.8516 85.5965 15.2286 85.0291 15.4741C84.3846 15.7596 83.6331 15.9024 82.7737 15.9024C81.9134 15.9024 81.055 15.7121 80.3026 15.2846C79.551 14.9047 78.96 14.3352 78.4759 13.623C78.0462 12.9108 77.7779 12.1518 77.7779 11.2969C77.7779 10.4427 77.9928 9.6353 78.4759 8.9231C78.96 8.21089 79.551 7.64144 80.3569 7.21396C81.0773 6.80288 81.9171 6.58838 82.7728 6.59692C83.5787 6.59692 84.2776 6.6921 84.9213 6.88244C85.5667 7.07199 86.0499 7.35672 86.3717 7.68903L86.6944 7.02441H89.5944ZM86.4261 12.3414V10.2048C86.2222 9.77941 85.8624 9.42802 85.4053 9.20782C84.8968 8.95479 84.3228 8.82412 83.7401 8.82872C82.9886 8.82872 82.3431 9.06586 81.8065 9.49334C81.2689 9.92003 81.0006 10.4895 81.0006 11.2017C81.0006 11.8663 81.2698 12.4841 81.8065 12.9584C82.0574 13.1879 82.3583 13.3694 82.6908 13.4918C83.0232 13.6143 83.3803 13.6751 83.7401 13.6706C84.9757 13.623 85.8885 13.1955 86.4261 12.3414ZM92.1743 8.82951C92.6575 8.1173 93.302 7.59465 94.1614 7.16796C95.0607 6.76373 96.0538 6.55241 97.0614 6.55092C98.1356 6.55092 99.1028 6.74048 99.9622 7.16796C100.768 7.54785 101.413 8.1173 101.896 8.82951C102.326 9.54092 102.594 10.3007 102.594 11.2025C102.594 12.105 102.379 12.864 101.896 13.5762C101.464 14.2977 100.788 14.8793 99.9622 15.2378C99.1563 15.6177 98.1356 15.8548 97.0614 15.8548C95.9871 15.8548 95.0208 15.6645 94.1614 15.2854C93.302 14.9055 92.6575 14.3836 92.1743 13.6714C91.6902 12.9592 91.4754 12.1526 91.4754 11.1557C91.4754 10.3483 91.6902 9.54092 92.1743 8.82951ZM95.2891 12.9592C95.7188 13.4343 96.3098 13.6238 97.0079 13.6238C97.7059 13.6238 98.2969 13.3859 98.7266 12.9592C99.1563 12.5317 99.3712 11.9147 99.3712 11.2501C99.3712 10.5379 99.1563 9.96841 98.7266 9.54092C98.2969 9.11423 97.7059 8.8771 97.0079 8.8771C96.3098 8.8771 95.7723 9.11423 95.2891 9.54092C94.8059 9.9692 94.5911 10.5854 94.5911 11.2501C94.6446 11.9147 94.8594 12.4841 95.2891 12.9592ZM113.605 7.30913C114.25 7.7842 114.518 8.40123 114.572 9.16103V15.6645H111.402V10.2048C111.349 9.35058 110.866 8.9231 109.953 8.9231C109.254 8.9231 108.664 9.20861 108.234 9.82565C107.804 10.4427 107.59 11.2017 107.59 12.1042V15.6645H104.474V7.02441H107.32L107.535 8.40123C107.894 7.84667 108.414 7.38771 109.039 7.07199C109.684 6.73889 110.436 6.59692 111.296 6.59692C112.208 6.59692 113.014 6.83485 113.605 7.30913ZM22.7232 6.88403C22.1866 6.59851 21.4876 6.59851 20.8975 6.88403L16.7076 9.06665L13.8611 10.4911L9.67116 12.6753C9.13361 12.96 8.43558 12.96 7.84543 12.6753L4.51489 10.9661C3.97733 10.6806 3.60202 10.1588 3.60202 9.5893V6.21782C3.60202 5.64837 3.92384 5.12572 4.51489 4.84099L7.79105 3.18023C8.32861 2.89551 9.02663 2.89551 9.61768 3.18023L12.8938 4.84178C13.4314 5.1273 13.8067 5.64916 13.8067 6.21861V8.40203L16.6541 6.93082V4.74741C16.6541 4.17716 16.3314 3.6553 15.7403 3.37058L9.67206 0.23782C9.1345 -0.0476977 8.43647 -0.0476977 7.84632 0.23782L1.66663 3.37058C1.38757 3.5038 1.15501 3.70267 0.994336 3.94547C0.833666 4.18827 0.751063 4.46568 0.755544 4.74741V11.0605C0.755544 11.6308 1.07826 12.1526 1.6693 12.4373L7.84632 15.5701C8.38299 15.8556 9.08101 15.8556 9.67206 15.5701L13.862 13.4343L16.7085 11.9631L20.8984 9.82644C21.435 9.54172 22.1331 9.54172 22.7241 9.82644L26.0003 11.488C26.5378 11.7735 26.914 12.2954 26.914 12.8648V16.2355C26.914 16.805 26.5913 17.3268 26.0003 17.6115L22.7241 19.3207C22.1874 19.6062 21.4885 19.6062 20.8984 19.3207L17.6213 17.6591C17.0847 17.3744 16.7085 16.8525 16.7085 16.2831V14.0989L13.862 15.5709V17.7543C13.862 18.3237 14.1838 18.8464 14.7748 19.1311L20.9519 22.2639C21.4885 22.5494 22.1874 22.5494 22.7776 22.2639L28.9555 19.1311C29.4922 18.8456 29.8684 18.3237 29.8684 17.7543V11.4412C29.8684 10.871 29.5457 10.3491 28.9546 10.0644L22.7232 6.88403Z" fill="#161616" fill-opacity="0.5"/>
</g>
</g>
<defs>
<clipPath id="clip0_147_2215">
<rect width="115" height="23" fill="white"/>
</clipPath>
</defs>
</svg>
