<svg width="115" height="23" viewBox="0 0 115 23" fill="none" xmlns="http://www.w3.org/2000/svg">
<g clip-path="url(#clip0_147_2220)">
<mask id="mask0_147_2220" style="mask-type:alpha" maskUnits="userSpaceOnUse" x="0" y="0" width="115" height="23">
<path d="M0.48584 0H114.259V23H0.48584V0Z" fill="white"/>
</mask>
<g mask="url(#mask0_147_2220)">
<path d="M31.286 7.48995H32.5221L35.9817 15.508H34.3487L33.5994 13.6732H30.1175L29.3911 15.508H27.793L31.2867 7.48995H31.286ZM33.1008 12.4505L31.864 9.18898L30.6049 12.4505H33.1008ZM37.5153 7.48995H39.1602L41.3489 13.5486L43.6066 7.49069H45.1498L41.9046 15.5073H40.6678L37.5146 7.4892L37.5153 7.48995ZM50.2573 7.48995H51.4941L54.9537 15.508H53.32L52.5714 13.6732H49.0887L48.3631 15.508H46.7635L50.2573 7.48995ZM52.0721 12.4505L50.836 9.18898L49.5769 12.4505H52.0721ZM58.1151 7.48995H59.5441V14.2171H62.9585V15.508H58.1159V7.48995H58.1151ZM68.8636 7.48995H70.1004L73.5593 15.508H71.9263L71.1776 13.6732H67.695L66.9686 15.508H65.3698L68.8636 7.48995ZM70.6783 12.4505L69.4423 9.18898L68.1832 12.4505H70.6783ZM76.7206 7.48995H78.6156L82.5063 13.4469H82.5293V7.49069H83.9582V15.508H82.1435L78.1726 9.35888H78.1504V15.508H76.7206V7.48995ZM93.5307 9.37075C93.2361 9.0532 92.949 8.84175 92.6685 8.73566C92.4051 8.63184 92.1245 8.57824 91.8413 8.57762C91.4251 8.57762 91.0467 8.65256 90.7061 8.80391C90.3785 8.94402 90.0846 9.15245 89.844 9.41527C89.6021 9.67198 89.4137 9.97395 89.2772 10.3212C89.1488 10.6684 89.0843 11.0423 89.0843 11.4422C89.0843 11.8726 89.1488 12.2688 89.2772 12.6316C89.4137 12.9936 89.6021 13.3067 89.844 13.5716C90.0866 13.8357 90.3737 14.0435 90.7061 14.1948C91.0467 14.3454 91.4251 14.4204 91.8413 14.4204C92.1685 14.4199 92.4911 14.3424 92.7828 14.1941C93.0922 14.036 93.3801 13.786 93.6449 13.4469L94.8239 14.2853C94.4611 14.7824 94.0189 15.146 93.4966 15.3715C92.9704 15.599 92.4027 15.7147 91.8294 15.7113C91.2455 15.7179 90.6653 15.6183 90.117 15.4175C89.6194 15.2245 89.1645 14.9359 88.7778 14.568C88.4013 14.189 88.1044 13.7384 87.9046 13.2429C87.6931 12.7295 87.587 12.1597 87.587 11.5328C87.587 10.8917 87.6931 10.31 87.9046 9.7892C88.1005 9.28512 88.3977 8.82655 88.7778 8.44185C89.1605 8.06891 89.6166 7.77961 90.117 7.59233C90.6636 7.38396 91.2445 7.28026 91.8294 7.28666C92.374 7.28666 92.877 7.38459 93.3378 7.5812C93.8067 7.76966 94.2415 8.09388 94.6428 8.55462L93.5307 9.37075ZM98.052 7.48995H99.4817V10.684H103.236V7.48995H104.666V15.508H103.236V11.9749H99.4817V15.508H98.052V7.48995ZM108.729 7.48995H114.049V8.78091H110.158V10.7515H113.845V12.0425H110.158V14.2163H114.254V15.5073H108.729V7.49069V7.48995Z" fill="#161616" fill-opacity="0.5"/>
<path fill-rule="evenodd" clip-rule="evenodd" d="M23.5252 11.5C23.5252 17.851 18.3672 23 12.0051 23C5.64303 23 0.48584 17.851 0.48584 11.5C0.48584 5.14903 5.64303 0 12.0044 0C18.3657 0 23.5244 5.14903 23.5244 11.5H23.5252ZM8.74136 16.0763H6.50516C6.03552 16.0763 5.80329 16.0763 5.66232 15.9857C5.58741 15.9373 5.52499 15.8719 5.48012 15.7948C5.43526 15.7177 5.40922 15.6311 5.40413 15.5421C5.39597 15.3759 5.51171 15.1718 5.74394 14.7653L11.2639 5.05184C11.4991 4.63932 11.6178 4.43306 11.7685 4.35739C11.8482 4.31715 11.9362 4.29619 12.0255 4.29619C12.1148 4.29619 12.2029 4.31715 12.2826 4.35739C12.4332 4.43306 12.5519 4.63932 12.7871 5.05184L13.9215 7.02984L13.9275 7.03948C14.1812 7.48242 14.3096 7.70723 14.3652 7.94242C14.4283 8.19913 14.4283 8.47068 14.3652 8.72739C14.3096 8.96481 14.182 9.1911 13.9245 9.63997L11.025 14.7571L11.0176 14.7697C10.7616 15.2164 10.6318 15.4419 10.4537 15.6125C10.2579 15.7995 10.0234 15.9345 9.76523 16.011C9.53078 16.0763 9.26739 16.0763 8.74136 16.0763ZM14.3875 16.0763H17.5904C18.063 16.0763 18.3005 16.0763 18.4422 15.9835C18.5175 15.9349 18.5801 15.869 18.6248 15.7913C18.6696 15.7136 18.6952 15.6264 18.6996 15.5369C18.7078 15.3759 18.5943 15.1807 18.3717 14.7972L18.3494 14.7571L16.7439 12.0164L16.7261 11.986C16.5005 11.6054 16.3863 11.4132 16.2408 11.339C16.1616 11.2986 16.0738 11.2776 15.9849 11.2776C15.8959 11.2776 15.8082 11.2986 15.7289 11.339C15.5805 11.4147 15.4618 11.6157 15.2274 12.0194L13.6285 14.7601L13.6225 14.7697C13.3888 15.1726 13.2716 15.3744 13.2805 15.5398C13.2856 15.6291 13.3115 15.716 13.3562 15.7934C13.4009 15.8708 13.4632 15.9367 13.538 15.9857C13.6767 16.0763 13.9141 16.0763 14.3867 16.0763H14.3875Z" fill="#161616" fill-opacity="0.5"/>
</g>
</g>
<defs>
<clipPath id="clip0_147_2220">
<rect width="115" height="23" fill="white"/>
</clipPath>
</defs>
</svg>
