<svg width="65" height="65" viewBox="0 0 65 65" fill="none" xmlns="http://www.w3.org/2000/svg">
<g clip-path="url(#clip0_217_1480)">
<path d="M74.3031 101.888C90.6594 101.888 103.919 88.6281 103.919 72.2719C103.919 55.9156 90.6594 42.6562 74.3031 42.6562C57.9469 42.6562 44.6875 55.9156 44.6875 72.2719C44.6875 88.6281 57.9469 101.888 74.3031 101.888Z" fill="#0049FF"/>
<path d="M32.7512 41.6677C37.6759 41.6677 41.6684 37.6753 41.6684 32.7505C41.6684 27.8257 37.6759 23.8333 32.7512 23.8333C27.8263 23.8333 23.834 27.8257 23.834 32.7505C23.834 37.6753 27.8263 41.6677 32.7512 41.6677Z" fill="#0049FF"/>
<path d="M16.5 48H11.5C10.3954 48 9.5 48.8954 9.5 50V51C9.5 52.1046 10.3954 53 11.5 53H28C29.1046 53 30 52.1046 30 51V50C30 48.8954 29.1046 48 28 48H27M16.5 48L7.51693 38.0713C7.18423 37.7036 7 37.2254 7 36.7295V13C7 11.8954 7.89543 11 9 11H13.5C14.6046 11 15.5 11.8954 15.5 13V24.5M16.5 48H27M15.5 24.5L12.7055 29.6898C12.2868 30.4675 12.4277 31.4277 13.0522 32.0522L16.5 35.5M15.5 24.5C21.4262 29.2974 24.5485 31.7223 25.9906 32.793C26.5988 33.2446 27 33.9785 27 34.7361V48" stroke="#161616"/>
<path d="M48.5 48H53.5C54.6046 48 55.5 48.8954 55.5 50V51C55.5 52.1046 54.6046 53 53.5 53H37C35.8954 53 35 52.1046 35 51V50C35 48.8954 35.8954 48 37 48H38M48.5 48L57.4831 38.0713C57.8158 37.7036 58 37.2254 58 36.7295V13C58 11.8954 57.1046 11 56 11H51.5C50.3954 11 49.5 11.8954 49.5 13V24.5M48.5 48H38M49.5 24.5L52.2945 29.6898C52.7132 30.4675 52.5723 31.4277 51.9478 32.0522L48.5 35.5M49.5 24.5C43.5738 29.2974 40.4515 31.7223 39.0094 32.793C38.4012 33.2446 38 33.9785 38 34.7361V48" stroke="#161616"/>
<path d="M38.6776 11.1787L25.1953 24.661L26.1488 25.6145L39.6311 12.1322L38.6776 11.1787Z" fill="#4F4F4D"/>
<path d="M28.3711 17.7422C27.7043 17.7422 27.0526 17.5445 26.4982 17.174C25.9439 16.8036 25.5118 16.2771 25.2566 15.6611C25.0015 15.0452 24.9347 14.3673 25.0648 13.7134C25.1948 13.0595 25.5159 12.4588 25.9874 11.9874C26.4588 11.5159 27.0595 11.1949 27.7134 11.0648C28.3673 10.9347 29.0451 11.0015 29.6611 11.2566C30.2771 11.5118 30.8036 11.9438 31.174 12.4982C31.5445 13.0526 31.7422 13.7044 31.7422 14.3711C31.7422 15.2652 31.387 16.1226 30.7548 16.7548C30.1226 17.387 29.2652 17.7422 28.3711 17.7422ZM28.3711 12.3484C27.971 12.3484 27.58 12.4671 27.2474 12.6893C26.9148 12.9116 26.6555 13.2274 26.5024 13.597C26.3493 13.9666 26.3092 14.3733 26.3873 14.7657C26.4653 15.158 26.658 15.5184 26.9408 15.8013C27.2237 16.0842 27.5841 16.2768 27.9765 16.3549C28.3688 16.4329 28.7755 16.3929 29.1451 16.2398C29.5147 16.0867 29.8306 15.8274 30.0528 15.4948C30.2751 15.1622 30.3937 14.7711 30.3937 14.3711C30.3937 13.8346 30.1806 13.3202 29.8013 12.9408C29.422 12.5615 28.9075 12.3484 28.3711 12.3484Z" fill="#4F4F4D"/>
<path d="M35.7891 25.8332C35.1223 25.8332 34.4706 25.6355 33.9162 25.265C33.3618 24.8946 32.9297 24.3681 32.6746 23.7522C32.4194 23.1362 32.3527 22.4583 32.4827 21.8044C32.6128 21.1505 32.9339 20.5498 33.4053 20.0784C33.8768 19.6069 34.4775 19.2859 35.1314 19.1558C35.7853 19.0257 36.4631 19.0925 37.0791 19.3476C37.6951 19.6028 38.2216 20.0348 38.592 20.5892C38.9624 21.1436 39.1601 21.7954 39.1601 22.4621C39.1601 23.3562 38.805 24.2136 38.1728 24.8458C37.5406 25.478 36.6831 25.8332 35.7891 25.8332ZM35.7891 20.4394C35.389 20.4394 34.998 20.5581 34.6653 20.7803C34.3327 21.0026 34.0734 21.3185 33.9203 21.688C33.7673 22.0576 33.7272 22.4643 33.8052 22.8567C33.8833 23.249 34.0759 23.6094 34.3588 23.8923C34.6417 24.1752 35.0021 24.3678 35.3945 24.4459C35.7868 24.5239 36.1935 24.4839 36.5631 24.3308C36.9327 24.1777 37.2486 23.9184 37.4708 23.5858C37.6931 23.2532 37.8117 22.8621 37.8117 22.4621C37.8117 21.9257 37.5986 21.4112 37.2193 21.0319C36.84 20.6525 36.3255 20.4394 35.7891 20.4394Z" fill="#4F4F4D"/>
</g>
<defs>
<clipPath id="clip0_217_1480">
<rect width="65" height="65" fill="white"/>
</clipPath>
</defs>
</svg>
