<svg width="65" height="65" viewBox="0 0 65 65" fill="none" xmlns="http://www.w3.org/2000/svg">
<g clip-path="url(#clip0_217_1468)">
<path d="M74.3031 101.888C90.6594 101.888 103.919 88.6281 103.919 72.2719C103.919 55.9156 90.6594 42.6562 74.3031 42.6562C57.9469 42.6562 44.6875 55.9156 44.6875 72.2719C44.6875 88.6281 57.9469 101.888 74.3031 101.888Z" fill="#0049FF"/>
<path d="M32.7512 41.6677C37.6759 41.6677 41.6684 37.6753 41.6684 32.7505C41.6684 27.8257 37.6759 23.8333 32.7512 23.8333C27.8263 23.8333 23.834 27.8257 23.834 32.7505C23.834 37.6753 27.8263 41.6677 32.7512 41.6677Z" fill="#0049FF"/>
<path d="M22.2192 52.3125H43.7798C45.7134 52.3125 47.2515 50.7217 47.0435 48.8887C45.7007 37.0781 37.687 37.2734 37.687 32C37.687 26.7266 45.8032 27.0195 47.0425 15.1113C47.2378 13.2773 45.7134 11.6875 43.7798 11.6875H22.2192C20.2857 11.6875 18.7651 13.2773 18.9565 15.1113C20.1958 27.0195 28.312 26.6289 28.312 32C28.312 37.3711 20.2983 37.0781 18.9565 48.8887C18.7476 50.7217 20.2857 52.3125 22.2192 52.3125Z" stroke="#161616" stroke-linecap="round" stroke-linejoin="round"/>
<path d="M25.8349 22.0177L25.8348 22.0175C25.7741 21.9345 25.7361 21.8505 25.7187 21.7794C25.701 21.7075 25.7083 21.6662 25.7133 21.6511C25.7134 21.6509 25.7135 21.6506 25.7135 21.6504C25.7157 21.6438 25.719 21.6337 25.7461 21.6181C25.7822 21.5973 25.8721 21.5625 26.0532 21.5625H39.9916C40.1235 21.5625 40.1956 21.5913 40.2302 21.6122C40.2626 21.6317 40.2791 21.6539 40.2893 21.6789C40.3126 21.7361 40.3175 21.8673 40.2108 22.0155L40.2106 22.0159C39.2313 23.3789 37.9522 24.4158 36.7924 25.356C36.6684 25.4565 36.5458 25.5559 36.4251 25.6544C35.8125 26.1545 35.2336 26.6459 34.8092 27.1465C34.3843 27.6478 34.0629 28.2173 34.0629 28.875V38.8359C34.0629 39.7468 34.4819 40.5199 35.0771 41.1888C35.6678 41.8528 36.4664 42.453 37.3017 43.0259C37.6509 43.2653 38.0008 43.4964 38.3502 43.7272C38.8625 44.0656 39.3737 44.4032 39.8795 44.7651C40.7161 45.3638 41.4672 45.9816 42.0291 46.6613C42.4283 47.1444 42.5266 47.6913 42.4223 48.0747C42.3712 48.2622 42.2739 48.4089 42.1406 48.51C42.0083 48.6104 41.8118 48.6875 41.5258 48.6875H24.517C23.9839 48.6875 23.688 48.4012 23.5835 48.0351C23.4719 47.6441 23.5722 47.1158 23.9887 46.6905C24.6012 46.0698 25.3806 45.4826 26.2278 44.8952C26.5601 44.6647 26.9091 44.4301 27.2604 44.194C27.783 43.8428 28.3109 43.488 28.797 43.1379C29.6203 42.545 30.3956 41.9168 30.967 41.2269C31.5418 40.5329 31.9379 39.7427 31.9379 38.8359V28.875C31.9379 28.2226 31.6242 27.6553 31.2063 27.1539C30.7891 26.6534 30.2195 26.1617 29.6142 25.6608C29.4829 25.5522 29.3493 25.4425 29.2139 25.3314C28.0767 24.3982 26.8201 23.367 25.8349 22.0177Z" fill="white" stroke="#161616"/>
<path d="M53.696 34.84C53.696 35.232 53.592 35.592 53.384 35.92C53.184 36.24 52.876 36.504 52.46 36.712C52.044 36.92 51.528 37.036 50.912 37.06V38.44H50.468V37.06C49.884 37.036 49.332 36.92 48.812 36.712C48.3 36.504 47.9 36.24 47.612 35.92L47.888 35.464C48.168 35.752 48.54 35.996 49.004 36.196C49.468 36.388 49.956 36.496 50.468 36.52V33.04C49.916 32.904 49.46 32.76 49.1 32.608C48.74 32.456 48.44 32.232 48.2 31.936C47.96 31.64 47.84 31.252 47.84 30.772C47.84 30.172 48.06 29.664 48.5 29.248C48.948 28.832 49.604 28.6 50.468 28.552V27.16H50.912V28.54C51.368 28.556 51.808 28.632 52.232 28.768C52.664 28.896 53.036 29.072 53.348 29.296L53.12 29.788C52.792 29.564 52.436 29.396 52.052 29.284C51.668 29.164 51.288 29.096 50.912 29.08V32.56C51.52 32.712 52.008 32.86 52.376 33.004C52.744 33.148 53.056 33.368 53.312 33.664C53.568 33.952 53.696 34.344 53.696 34.84ZM48.452 30.76C48.452 31.248 48.624 31.612 48.968 31.852C49.312 32.084 49.812 32.284 50.468 32.452V29.092C49.804 29.14 49.3 29.32 48.956 29.632C48.62 29.936 48.452 30.312 48.452 30.76ZM50.912 36.52C51.632 36.488 52.172 36.32 52.532 36.016C52.9 35.712 53.084 35.332 53.084 34.876C53.084 34.524 52.988 34.24 52.796 34.024C52.604 33.8 52.36 33.628 52.064 33.508C51.768 33.388 51.384 33.268 50.912 33.148V36.52Z" fill="#161616"/>
<path d="M17.696 34.84C17.696 35.232 17.592 35.592 17.384 35.92C17.184 36.24 16.876 36.504 16.46 36.712C16.044 36.92 15.528 37.036 14.912 37.06V38.44H14.468V37.06C13.884 37.036 13.332 36.92 12.812 36.712C12.3 36.504 11.9 36.24 11.612 35.92L11.888 35.464C12.168 35.752 12.54 35.996 13.004 36.196C13.468 36.388 13.956 36.496 14.468 36.52V33.04C13.916 32.904 13.46 32.76 13.1 32.608C12.74 32.456 12.44 32.232 12.2 31.936C11.96 31.64 11.84 31.252 11.84 30.772C11.84 30.172 12.06 29.664 12.5 29.248C12.948 28.832 13.604 28.6 14.468 28.552V27.16H14.912V28.54C15.368 28.556 15.808 28.632 16.232 28.768C16.664 28.896 17.036 29.072 17.348 29.296L17.12 29.788C16.792 29.564 16.436 29.396 16.052 29.284C15.668 29.164 15.288 29.096 14.912 29.08V32.56C15.52 32.712 16.008 32.86 16.376 33.004C16.744 33.148 17.056 33.368 17.312 33.664C17.568 33.952 17.696 34.344 17.696 34.84ZM12.452 30.76C12.452 31.248 12.624 31.612 12.968 31.852C13.312 32.084 13.812 32.284 14.468 32.452V29.092C13.804 29.14 13.3 29.32 12.956 29.632C12.62 29.936 12.452 30.312 12.452 30.76ZM14.912 36.52C15.632 36.488 16.172 36.32 16.532 36.016C16.9 35.712 17.084 35.332 17.084 34.876C17.084 34.524 16.988 34.24 16.796 34.024C16.604 33.8 16.36 33.628 16.064 33.508C15.768 33.388 15.384 33.268 14.912 33.148V36.52Z" fill="#161616"/>
</g>
<defs>
<clipPath id="clip0_217_1468">
<rect width="65" height="65" fill="white"/>
</clipPath>
</defs>
</svg>
