<svg width="65" height="65" viewBox="0 0 65 65" fill="none" xmlns="http://www.w3.org/2000/svg">
<g clip-path="url(#clip0_217_1458)">
<path d="M74.3031 101.888C90.6594 101.888 103.919 88.6281 103.919 72.2719C103.919 55.9156 90.6594 42.6562 74.3031 42.6562C57.9469 42.6562 44.6875 55.9156 44.6875 72.2719C44.6875 88.6281 57.9469 101.888 74.3031 101.888Z" fill="#0049FF"/>
<path d="M32.7512 41.6677C37.6759 41.6677 41.6684 37.6753 41.6684 32.7505C41.6684 27.8257 37.6759 23.8333 32.7512 23.8333C27.8263 23.8333 23.834 27.8257 23.834 32.7505C23.834 37.6753 27.8263 41.6677 32.7512 41.6677Z" fill="#0049FF"/>
<path d="M38 28L31.075 36L28 32.9875" stroke="white" stroke-linecap="round" stroke-linejoin="round"/>
<path d="M53.2245 17.9736C44.4921 16.4072 40.8817 15.2471 32.9999 11.6875C25.1181 15.2471 21.5077 16.4072 12.7753 17.9736C11.1933 43.0479 31.4941 51.7061 32.9999 52.3125C34.5058 51.7061 54.8066 43.0479 53.2245 17.9736Z" stroke="#161616" stroke-linecap="round" stroke-linejoin="round"/>
</g>
<defs>
<clipPath id="clip0_217_1458">
<rect width="65" height="65" fill="white"/>
</clipPath>
</defs>
</svg>
