<svg width="65" height="65" viewBox="0 0 65 65" fill="none" xmlns="http://www.w3.org/2000/svg">
<g clip-path="url(#clip0_217_1435)">
<path d="M74.3031 101.888C90.6594 101.888 103.919 88.6281 103.919 72.2719C103.919 55.9156 90.6594 42.6562 74.3031 42.6562C57.9469 42.6562 44.6875 55.9156 44.6875 72.2719C44.6875 88.6281 57.9469 101.888 74.3031 101.888Z" fill="#0049FF"/>
<path d="M32.7512 41.6677C37.6759 41.6677 41.6684 37.6753 41.6684 32.7505C41.6684 27.8257 37.6759 23.8333 32.7512 23.8333C27.8263 23.8333 23.834 27.8257 23.834 32.7505C23.834 37.6753 27.8263 41.6677 32.7512 41.6677Z" fill="#0049FF"/>
<path d="M11.125 10.125V52.3125C11.125 52.7269 11.2896 53.1243 11.5826 53.4174C11.8757 53.7104 12.2731 53.875 12.6875 53.875H54.875" stroke="#161616" stroke-linecap="round" stroke-linejoin="round"/>
<path d="M23.2344 28.875H19.3281C18.2494 28.875 17.375 29.7494 17.375 30.8281V45.6719C17.375 46.7506 18.2494 47.625 19.3281 47.625H23.2344C24.3131 47.625 25.1875 46.7506 25.1875 45.6719V30.8281C25.1875 29.7494 24.3131 28.875 23.2344 28.875Z" stroke="#161616" stroke-linecap="round" stroke-linejoin="round"/>
<path d="M37.2969 24.1875H33.3906C32.3119 24.1875 31.4375 25.0619 31.4375 26.1406V45.6719C31.4375 46.7506 32.3119 47.625 33.3906 47.625H37.2969C38.3756 47.625 39.25 46.7506 39.25 45.6719V26.1406C39.25 25.0619 38.3756 24.1875 37.2969 24.1875Z" stroke="#161616" stroke-linecap="round" stroke-linejoin="round"/>
<path d="M51.3242 17.9375H47.418C46.3393 17.9375 45.4648 18.8119 45.4648 19.8906V45.6719C45.4648 46.7506 46.3393 47.625 47.418 47.625H51.3242C52.4029 47.625 53.2773 46.7506 53.2773 45.6719V19.8906C53.2773 18.8119 52.4029 17.9375 51.3242 17.9375Z" stroke="#161616" stroke-linecap="round" stroke-linejoin="round"/>
<path d="M23.696 20.84C23.696 21.232 23.592 21.592 23.384 21.92C23.184 22.24 22.876 22.504 22.46 22.712C22.044 22.92 21.528 23.036 20.912 23.06V24.44H20.468V23.06C19.884 23.036 19.332 22.92 18.812 22.712C18.3 22.504 17.9 22.24 17.612 21.92L17.888 21.464C18.168 21.752 18.54 21.996 19.004 22.196C19.468 22.388 19.956 22.496 20.468 22.52V19.04C19.916 18.904 19.46 18.76 19.1 18.608C18.74 18.456 18.44 18.232 18.2 17.936C17.96 17.64 17.84 17.252 17.84 16.772C17.84 16.172 18.06 15.664 18.5 15.248C18.948 14.832 19.604 14.6 20.468 14.552V13.16H20.912V14.54C21.368 14.556 21.808 14.632 22.232 14.768C22.664 14.896 23.036 15.072 23.348 15.296L23.12 15.788C22.792 15.564 22.436 15.396 22.052 15.284C21.668 15.164 21.288 15.096 20.912 15.08V18.56C21.52 18.712 22.008 18.86 22.376 19.004C22.744 19.148 23.056 19.368 23.312 19.664C23.568 19.952 23.696 20.344 23.696 20.84ZM18.452 16.76C18.452 17.248 18.624 17.612 18.968 17.852C19.312 18.084 19.812 18.284 20.468 18.452V15.092C19.804 15.14 19.3 15.32 18.956 15.632C18.62 15.936 18.452 16.312 18.452 16.76ZM20.912 22.52C21.632 22.488 22.172 22.32 22.532 22.016C22.9 21.712 23.084 21.332 23.084 20.876C23.084 20.524 22.988 20.24 22.796 20.024C22.604 19.8 22.36 19.628 22.064 19.508C21.768 19.388 21.384 19.268 20.912 19.148V22.52Z" fill="#161616"/>
</g>
<defs>
<clipPath id="clip0_217_1435">
<rect width="65" height="65" fill="white"/>
</clipPath>
</defs>
</svg>
