<svg width="65" height="65" viewBox="0 0 65 65" fill="none" xmlns="http://www.w3.org/2000/svg">
<g clip-path="url(#clip0_217_1496)">
<path d="M74.3031 101.888C90.6594 101.888 103.919 88.6281 103.919 72.2719C103.919 55.9156 90.6594 42.6562 74.3031 42.6562C57.9469 42.6562 44.6875 55.9156 44.6875 72.2719C44.6875 88.6281 57.9469 101.888 74.3031 101.888Z" fill="#0049FF"/>
<path d="M32.7512 41.6677C37.6759 41.6677 41.6684 37.6753 41.6684 32.7505C41.6684 27.8257 37.6759 23.8333 32.7512 23.8333C27.8263 23.8333 23.834 27.8257 23.834 32.7505C23.834 37.6753 27.8263 41.6677 32.7512 41.6677Z" fill="#0049FF"/>
<path d="M14.5263 44.2924L6 54.2398H60V30.0819L52.8947 22.9766L40.1053 35.7661L35.8421 31.5029L18.7895 48.5556L14.5263 44.2924Z" stroke="#161616"/>
<circle cx="50.0525" cy="44.148" r="7.60526" stroke="#161616"/>
<path d="M36.1587 10.0058L36.0846 9.51135L36.1587 10.0058ZM36.7219 10.6046L37.2109 10.7089L36.7219 10.6046ZM27.4673 11.3091L27.3931 10.8146V10.8146L27.4673 11.3091ZM27.1772 12.1461L27.5414 11.8036V11.8036L27.1772 12.1461ZM29.035 14.1215L29.3776 14.4858L29.7418 14.1432L29.3992 13.779L29.035 14.1215ZM14.3071 27.9728L13.9645 27.6085H13.9645L14.3071 27.9728ZM14.2637 29.3863L13.8995 29.7289H13.8995L14.2637 29.3863ZM16.0366 31.2714L16.4009 30.9289H16.4009L16.0366 31.2714ZM17.4502 31.3148L17.7927 31.679H17.7927L17.4502 31.3148ZM32.1781 17.4635L32.5423 17.121L32.1998 16.7568L31.8356 17.0993L32.1781 17.4635ZM34.0351 19.4381L34.3993 19.0955V19.0955L34.0351 19.4381ZM34.8883 19.1998L34.3993 19.0955V19.0955L34.8883 19.1998ZM36.2329 10.5003L36.2329 10.5003L37.2109 10.7089C37.3566 10.026 36.7752 9.4078 36.0846 9.51135L36.2329 10.5003ZM27.5414 11.8036L36.2329 10.5003L36.0846 9.51135L27.3931 10.8146L27.5414 11.8036ZM27.5414 11.8036V11.8036L27.3931 10.8146C26.5952 10.9343 26.2602 11.9009 26.813 12.4887L27.5414 11.8036ZM29.3992 13.779L27.5414 11.8036L26.813 12.4887L28.6708 14.4641L29.3992 13.779ZM14.6496 28.337L29.3776 14.4858L28.6925 13.7573L13.9645 27.6085L14.6496 28.337ZM14.628 29.0438C14.4388 28.8426 14.4485 28.5262 14.6496 28.337L13.9645 27.6085C13.3611 28.1761 13.332 29.1254 13.8995 29.7289L14.628 29.0438ZM16.4009 30.9289L14.628 29.0438L13.8995 29.7289L15.6724 31.614L16.4009 30.9289ZM17.1076 30.9506C16.9065 31.1398 16.5901 31.13 16.4009 30.9289L15.6724 31.614C16.24 32.2175 17.1893 32.2466 17.7927 31.679L17.1076 30.9506ZM31.8356 17.0993L17.1076 30.9506L17.7927 31.679L32.5206 17.8278L31.8356 17.0993ZM34.3993 19.0955L32.5423 17.121L31.8139 17.8061L33.6709 19.7806L34.3993 19.0955ZM34.3993 19.0955L34.3993 19.0955L33.6709 19.7806C34.2236 20.3683 35.209 20.0932 35.3773 19.3041L34.3993 19.0955ZM36.2329 10.5003L34.3993 19.0955L35.3773 19.3041L37.2109 10.7089L36.2329 10.5003Z" fill="#161616"/>
<path d="M52.696 46.84C52.696 47.232 52.592 47.592 52.384 47.92C52.184 48.24 51.876 48.504 51.46 48.712C51.044 48.92 50.528 49.036 49.912 49.06V50.44H49.468V49.06C48.884 49.036 48.332 48.92 47.812 48.712C47.3 48.504 46.9 48.24 46.612 47.92L46.888 47.464C47.168 47.752 47.54 47.996 48.004 48.196C48.468 48.388 48.956 48.496 49.468 48.52V45.04C48.916 44.904 48.46 44.76 48.1 44.608C47.74 44.456 47.44 44.232 47.2 43.936C46.96 43.64 46.84 43.252 46.84 42.772C46.84 42.172 47.06 41.664 47.5 41.248C47.948 40.832 48.604 40.6 49.468 40.552V39.16H49.912V40.54C50.368 40.556 50.808 40.632 51.232 40.768C51.664 40.896 52.036 41.072 52.348 41.296L52.12 41.788C51.792 41.564 51.436 41.396 51.052 41.284C50.668 41.164 50.288 41.096 49.912 41.08V44.56C50.52 44.712 51.008 44.86 51.376 45.004C51.744 45.148 52.056 45.368 52.312 45.664C52.568 45.952 52.696 46.344 52.696 46.84ZM47.452 42.76C47.452 43.248 47.624 43.612 47.968 43.852C48.312 44.084 48.812 44.284 49.468 44.452V41.092C48.804 41.14 48.3 41.32 47.956 41.632C47.62 41.936 47.452 42.312 47.452 42.76ZM49.912 48.52C50.632 48.488 51.172 48.32 51.532 48.016C51.9 47.712 52.084 47.332 52.084 46.876C52.084 46.524 51.988 46.24 51.796 46.024C51.604 45.8 51.36 45.628 51.064 45.508C50.768 45.388 50.384 45.268 49.912 45.148V48.52Z" fill="#161616"/>
</g>
<defs>
<clipPath id="clip0_217_1496">
<rect width="65" height="65" fill="white"/>
</clipPath>
</defs>
</svg>
