<svg width="65" height="65" viewBox="0 0 65 65" fill="none" xmlns="http://www.w3.org/2000/svg">
<g clip-path="url(#clip0_217_1448)">
<path d="M74.3031 101.888C90.6594 101.888 103.919 88.6281 103.919 72.2719C103.919 55.9156 90.6594 42.6562 74.3031 42.6562C57.9469 42.6562 44.6875 55.9156 44.6875 72.2719C44.6875 88.6281 57.9469 101.888 74.3031 101.888Z" fill="#0049FF"/>
<path d="M32.7512 41.6677C37.6759 41.6677 41.6684 37.6753 41.6684 32.7505C41.6684 27.8257 37.6759 23.8333 32.7512 23.8333C27.8263 23.8333 23.834 27.8257 23.834 32.7505C23.834 37.6753 27.8263 41.6677 32.7512 41.6677Z" fill="#0049FF"/>
<path d="M50.875 19.75H15.125C12.4326 19.75 10.25 21.8906 10.25 24.5312V46.8438C10.25 49.4844 12.4326 51.625 15.125 51.625H50.875C53.5674 51.625 55.75 49.4844 55.75 46.8438V24.5312C55.75 21.8906 53.5674 19.75 50.875 19.75Z" stroke="#161616" stroke-linejoin="round"/>
<path d="M21.625 19.75V16.5625C21.625 15.7171 21.9674 14.9064 22.5769 14.3086C23.1864 13.7108 24.013 13.375 24.875 13.375H41.125C41.987 13.375 42.8136 13.7108 43.4231 14.3086C44.0326 14.9064 44.375 15.7171 44.375 16.5625V19.75M55.75 30.9062H10.25M39.5 30.9062V33.2969C39.5 33.5082 39.4144 33.7109 39.262 33.8604C39.1097 34.0098 38.903 34.0938 38.6875 34.0938H27.3125C27.097 34.0938 26.8903 34.0098 26.738 33.8604C26.5856 33.7109 26.5 33.5082 26.5 33.2969V30.9062" stroke="#161616" stroke-linecap="round" stroke-linejoin="round"/>
</g>
<defs>
<clipPath id="clip0_217_1448">
<rect width="65" height="65" fill="white"/>
</clipPath>
</defs>
</svg>
