<svg width="21" height="19" viewBox="0 0 21 19" fill="none" xmlns="http://www.w3.org/2000/svg">
<path d="M10.3398 6.17423L13.346 9.18036L13.3603 9.0229C13.3603 7.44347 12.0767 6.15991 10.4973 6.15991L10.3398 6.17423Z" fill="#0049FF"/>
<path d="M10.4983 4.25129C13.1322 4.25129 15.2699 6.389 15.2699 9.02294C15.2699 9.63848 15.1459 10.2254 14.9311 10.7646L17.7226 13.556C19.1636 12.3535 20.2992 10.798 21.0007 9.02294C19.3449 4.83346 15.2747 1.86548 10.4983 1.86548C9.16222 1.86548 7.88345 2.10405 6.69531 2.53349L8.75666 4.59006C9.2958 4.38012 9.88271 4.25129 10.4983 4.25129Z" fill="#0049FF"/>
<path d="M0.954313 1.65061L3.13018 3.82648L3.56442 4.26071C1.98977 5.49179 0.744376 7.12848 0 9.02279C1.651 13.2123 5.72597 16.1803 10.4976 16.1803C11.9769 16.1803 13.3892 15.894 14.6824 15.3738L15.088 15.7794L17.8699 18.5661L19.0866 17.3541L2.17108 0.433838L0.954313 1.65061ZM6.23178 6.92329L7.70622 8.39772C7.66327 8.60292 7.63464 8.80807 7.63464 9.02279C7.63464 10.6022 8.9182 11.8858 10.4976 11.8858C10.7124 11.8858 10.9175 11.8572 11.118 11.8142L12.5924 13.2886C11.9577 13.6036 11.2516 13.7945 10.4976 13.7945C7.86368 13.7945 5.72597 11.6567 5.72597 9.02279C5.72597 8.26889 5.91685 7.56267 6.23178 6.92329Z" fill="#0049FF"/>
</svg>
