<svg width="24" height="24" viewBox="0 0 24 24" fill="none" xmlns="http://www.w3.org/2000/svg">
<path d="M10.1297 9.00003V15.743C10.1375 16.2361 10.3388 16.7063 10.6903 17.0523C11.0417 17.3982 11.5151 17.5921 12.0082 17.5921C12.5013 17.5921 12.9747 17.3982 13.3261 17.0523C13.6776 16.7063 13.8789 16.2361 13.8867 15.743L13.8928 6.90472C13.8979 6.48328 13.8193 6.06502 13.6616 5.67418C13.5039 5.28334 13.2701 4.9277 12.9739 4.62787C12.6777 4.32804 12.3249 4.09 11.936 3.92753C11.5471 3.76506 11.1298 3.6814 10.7084 3.6814C10.2869 3.6814 9.86961 3.76506 9.48071 3.92753C9.09182 4.09 8.73904 4.32804 8.44283 4.62787C8.14661 4.9277 7.91286 5.28334 7.75512 5.67418C7.59738 6.06502 7.51879 6.48328 7.52391 6.90472V15.8025C7.51532 16.3959 7.62477 16.985 7.84588 17.5356C8.067 18.0863 8.39537 18.5875 8.81191 19.0101C9.22845 19.4327 9.72484 19.7683 10.2722 19.9973C10.8196 20.2264 11.4071 20.3443 12.0005 20.3443C12.5939 20.3443 13.1813 20.2264 13.7287 19.9973C14.2761 19.7683 14.7725 19.4327 15.189 19.0101C15.6056 18.5875 15.9339 18.0863 16.1551 17.5356C16.3762 16.985 16.4856 16.3959 16.477 15.8025V7.48785" stroke="#161616" stroke-miterlimit="10" stroke-linecap="round"/>
</svg>
