<svg width="24" height="25" viewBox="0 0 24 25" fill="none" xmlns="http://www.w3.org/2000/svg">
<path d="M12.2955 9.51453C11.68 9.45374 11.0607 9.58469 10.5225 9.88945C9.98426 10.1942 9.55339 10.6579 9.28886 11.217C9.02434 11.7761 8.93909 12.4033 9.04479 13.0127C9.1505 13.6221 9.44198 14.184 9.87934 14.6213C10.3167 15.0587 10.8786 15.3502 11.488 15.4559C12.0974 15.5616 12.7246 15.4763 13.2837 15.2118C13.8428 14.9473 14.3065 14.5164 14.6112 13.9782C14.916 13.44 15.0469 12.8207 14.9861 12.2052C14.9168 11.5151 14.6111 10.8703 14.1207 10.3799C13.6304 9.88958 12.9855 9.58384 12.2955 9.51453V9.51453ZM19.5189 12.5C19.517 12.8261 19.4931 13.1517 19.4472 13.4745L21.5664 15.1367C21.6587 15.2132 21.7209 15.3199 21.7419 15.4379C21.763 15.556 21.7415 15.6776 21.6813 15.7812L19.6764 19.25C19.6156 19.3527 19.5204 19.4305 19.4077 19.4699C19.295 19.5093 19.1721 19.5076 19.0605 19.4652L16.9558 18.6177C16.8398 18.5714 16.714 18.5547 16.5899 18.5691C16.4658 18.5834 16.3472 18.6283 16.2447 18.6997C15.9235 18.9209 15.586 19.1174 15.235 19.2875C15.1247 19.3411 15.0293 19.4211 14.9572 19.5203C14.8851 19.6196 14.8385 19.7351 14.8216 19.8566L14.5061 22.1014C14.4854 22.22 14.4242 22.3276 14.3329 22.406C14.2415 22.4844 14.1258 22.5287 14.0055 22.5312H9.99582C9.87748 22.5292 9.76337 22.4869 9.67228 22.4113C9.5812 22.3357 9.51857 22.2314 9.49473 22.1155L9.17973 19.8739C9.16204 19.7511 9.11427 19.6345 9.04067 19.5346C8.96707 19.4346 8.86992 19.3544 8.75785 19.3011C8.40733 19.1319 8.07094 18.9349 7.75192 18.7119C7.64977 18.6408 7.53155 18.5963 7.40791 18.5823C7.28426 18.5683 7.15908 18.5853 7.04364 18.6317L4.93942 19.4788C4.82791 19.5212 4.70499 19.523 4.59231 19.4837C4.47964 19.4444 4.38444 19.3666 4.32348 19.2641L2.31864 15.7953C2.25836 15.6917 2.23682 15.57 2.25785 15.452C2.27888 15.334 2.34112 15.2272 2.43348 15.1508L4.22457 13.7445C4.3227 13.6666 4.39982 13.5655 4.44893 13.4502C4.49805 13.335 4.5176 13.2093 4.50582 13.0845C4.48895 12.8891 4.47864 12.6941 4.47864 12.4986C4.47864 12.3031 4.48848 12.1109 4.50582 11.9197C4.51632 11.7957 4.4958 11.6711 4.44613 11.557C4.39646 11.4429 4.3192 11.343 4.22129 11.2662L2.43114 9.86C2.34027 9.78317 2.27935 9.67681 2.25904 9.55957C2.23872 9.44232 2.26032 9.32167 2.32004 9.21875L4.32489 5.75C4.38577 5.64734 4.48094 5.56946 4.59362 5.5301C4.7063 5.49074 4.82926 5.49242 4.94082 5.53484L7.04551 6.38234C7.16157 6.42856 7.28729 6.44525 7.41139 6.43094C7.5355 6.41662 7.65411 6.37174 7.7566 6.30031C8.07782 6.07912 8.41535 5.88262 8.76629 5.7125C8.87662 5.65887 8.97206 5.57891 9.04416 5.47966C9.11627 5.38042 9.16283 5.26494 9.17973 5.14344L9.4952 2.89859C9.51592 2.78004 9.57717 2.67236 9.66848 2.59396C9.75979 2.51555 9.8755 2.4713 9.99582 2.46875H14.0055C14.1238 2.4708 14.238 2.51309 14.329 2.58867C14.4201 2.66425 14.4828 2.7686 14.5066 2.88453L14.8216 5.12609C14.8393 5.24894 14.8871 5.36551 14.9607 5.46544C15.0343 5.56537 15.1314 5.64557 15.2435 5.69891C15.594 5.8681 15.9304 6.06514 16.2494 6.28813C16.3516 6.35919 16.4698 6.40373 16.5934 6.41772C16.7171 6.43172 16.8423 6.41473 16.9577 6.36828L19.0619 5.52125C19.1734 5.47879 19.2963 5.47704 19.409 5.51631C19.5217 5.55558 19.6169 5.63336 19.6779 5.73594L21.6827 9.20469C21.743 9.30832 21.7645 9.42999 21.7435 9.54802C21.7225 9.66604 21.6602 9.77278 21.5679 9.84922L19.7768 11.2555C19.6782 11.3331 19.6006 11.4342 19.5511 11.5494C19.5016 11.6647 19.4817 11.7905 19.4932 11.9155C19.5086 12.1095 19.5189 12.3045 19.5189 12.5Z" stroke="#161616" stroke-linecap="round" stroke-linejoin="round"/>
</svg>
