<svg width="289" height="246" viewBox="0 0 289 246" fill="none" xmlns="http://www.w3.org/2000/svg">
<path d="M0.234375 245.86L91.3813 89.2805L180.799 245.86H0.234375Z" fill="#0B929F"/>
<path opacity="0.2" d="M102.79 109.29L112.644 159.12L102.79 177.575L97.604 194.516L80.8786 216.86L70.5063 233.629L52.4844 245.859H180.799L102.79 109.29Z" fill="black"/>
<path d="M183.565 0.12207H179.07V61.146H183.565V0.12207Z" fill="#424B4E"/>
<path d="M233.004 25.7941H196.398V5.22241H233.004L226.132 15.5515L233.004 25.7941Z" fill="#C92E09"/>
<path d="M214.075 0.12207L196.398 5.22184V25.7935L214.075 20.6938V0.12207Z" fill="#A82707"/>
<path d="M214.077 0.12207H179.07V20.6938H214.077V0.12207Z" fill="#FD3A0B"/>
<path d="M108.109 118.669L98.5577 131.332L83.6906 113.526L71.6328 123.207L91.3835 89.2805L108.109 118.669Z" fill="#F0F0F0"/>
<path d="M86.6719 245.859L181.363 53.8838L288.76 245.859H86.6719Z" fill="#0B929F"/>
<path opacity="0.2" d="M181.539 54.0989L187.719 112.659L199.95 129.298L204.877 154.019L210.193 178.653L219.312 194.471L229.209 202.466V224.551L239.84 245.857H288.763L181.539 54.0989Z" fill="black"/>
<path d="M199.949 87.0321L187.718 107.647L175.79 96.6698L164.251 124.675L153.922 109.506L181.409 53.8838L199.949 87.0321Z" fill="#F0F0F0"/>
<path opacity="0.2" d="M183.138 189.546C180.847 186.132 178.384 182.934 175.92 179.736L174.883 178.396L173.543 179.909C171.858 181.853 170.172 183.798 168.487 185.786C167.622 184.576 166.801 183.366 165.937 182.156C164.511 180.211 163.084 178.18 161.615 176.278C158.633 172.389 155.737 168.499 152.626 164.739L150.119 161.714L147.828 164.782C143.636 170.444 139.574 176.278 135.684 182.199C133.739 185.138 131.838 188.163 130.023 191.189C128.207 194.257 126.392 197.326 124.75 200.48C127.343 198.017 129.807 195.424 132.227 192.831C134.647 190.195 137.024 187.602 139.315 184.879C143.075 180.514 146.705 176.019 150.249 171.481C152.453 174.334 154.7 177.099 156.948 179.909C158.46 181.81 160.102 183.625 161.658 185.527C163.214 187.385 164.813 189.244 166.455 191.059L168.616 193.436L170.215 191.016C171.944 188.423 173.543 185.786 175.186 183.15C177.735 185.311 180.372 187.515 183.138 189.546Z" fill="black"/>
<path opacity="0.2" d="M62.0779 194.733C60.9975 191.492 59.5713 188.553 57.9722 185.7L56.7189 183.453L54.9038 185.83C52.6564 188.812 50.7116 191.924 48.8965 195.122C48.3346 194.56 47.7727 193.998 47.1677 193.436L45.1797 191.664L44.2721 193.696C43.0188 196.591 41.8951 199.53 41.1172 202.685C42.8459 201.043 44.3153 199.271 45.7415 197.455C46.3898 198.32 46.9949 199.227 47.6864 200.049L49.5015 202.382L51.2302 199.746C53.3047 196.548 55.2063 193.263 56.8918 189.806C58.534 191.578 60.1763 193.263 62.0779 194.733Z" fill="black"/>
</svg>
