<svg width="1728" height="540" viewBox="0 0 1728 540" fill="none" xmlns="http://www.w3.org/2000/svg">
<g opacity="0.2">
<path d="M825.847 935.806C773.321 945.959 720.292 953.104 667.148 957.22C643.523 959.042 619.307 960.21 597.008 953.712C539.991 937.073 512.499 876.848 499.316 821.024C487.154 769.615 481.488 716.527 482.461 663.266C483.421 610.486 490.817 556.651 478.898 505.655C466.987 454.676 429.665 405.462 375.363 398.607C343.059 394.536 309.409 406.15 282.195 424.893C255 443.628 233.466 469.018 214.129 495.219C191.988 525.231 170.686 558.167 137.081 575.714C102.288 593.876 57.5091 591.043 27.4205 568.804C-15.3884 537.162 -22.2091 478.784 -33.4111 427.458C-47.6231 362.239 -75.5288 297.729 -127.761 255.038C-180.012 212.354 -260.387 196.576 -322.853 230.165" stroke="#0049FF" stroke-miterlimit="10"/>
<path d="M830.963 920.94C779.626 930.891 727.79 937.791 675.869 941.629C652.782 943.322 629.132 944.37 607.328 938.052C551.574 921.944 523.984 864.097 510.098 810.269C506.798 797.493 503.929 784.592 501.462 771.602C494.386 734.206 490.775 696.063 490.703 657.759C490.632 606.622 496.776 554.379 484.617 504.768C472.484 455.165 435.814 409.101 383.96 399.498C364.455 395.909 345.153 396.015 326.27 400.673C313.412 403.832 300.764 408.761 288.889 415.279C283.459 418.257 278.155 421.533 272.969 425.129C252.237 439.552 234.233 458.98 217.729 478.877C216.088 480.844 214.474 482.82 212.849 484.822C187.656 515.672 162.145 547.776 126.282 564.373C91.7406 580.36 48.7205 578.34 19.2222 556.756C-22.7611 526.06 -30.4625 469.88 -42.4598 420.695C-43.4008 416.822 -44.4049 412.956 -45.4537 409.089C-61.3063 350.693 -89.2695 294.536 -137.442 257.082C-188.794 217.152 -266.743 203.326 -327.078 236.803" stroke="#0049FF" stroke-miterlimit="10"/>
<path d="M836.078 906.083C785.938 915.849 735.269 922.494 684.563 926.036C662.016 927.601 638.949 928.522 617.611 922.416C563.112 906.822 535.404 851.361 520.853 799.514C517.399 787.197 514.338 774.772 511.679 762.256C504.054 726.192 499.789 689.342 498.927 652.268C497.805 602.782 502.698 552.132 490.325 503.914C477.978 455.706 441.891 412.429 392.528 400.43C372.616 395.591 353.812 392.713 334.586 395.142C321.476 396.798 308.273 400.23 295.531 405.654C289.704 408.121 283.923 411.003 278.24 414.317C255.473 427.591 235.385 447.853 216.99 468.317C215.157 470.346 213.349 472.385 211.542 474.424C183.298 506.112 153.748 537.372 115.445 553.057C81.294 567.036 39.9206 565.671 10.9753 544.758C-30.2084 515 -38.7905 461.017 -51.5496 413.999C-52.5494 410.296 -53.6124 406.6 -54.7201 402.903C-71.4628 347.143 -99.7976 294.06 -147.138 259.202C-197.609 222.035 -273.122 210.135 -331.3 243.511" stroke="#0049FF" stroke-miterlimit="10"/>
<path d="M841.2 891.241C792.231 900.813 742.774 907.205 693.272 910.477C671.271 911.931 648.754 912.697 627.919 906.788C574.676 891.707 546.869 838.624 531.622 788.792C528.002 776.959 524.769 765.001 521.93 752.936C513.755 718.203 508.81 682.638 507.183 646.802C505.011 598.966 508.671 549.901 496.076 503.061C483.489 456.237 447.958 415.428 401.132 401.345C380.753 395.219 362.523 389.428 342.935 389.637C329.593 389.78 315.814 391.724 302.213 396.071C295.978 398.053 289.749 400.507 283.545 403.53C258.735 415.637 236.582 436.727 216.266 457.79C214.258 459.874 212.25 461.958 210.249 464.059C178.962 496.603 145.517 526.997 104.633 541.748C71.0035 553.87 31.1199 553 2.76485 532.743C-37.5931 503.93 -47.0634 452.128 -60.6104 407.268C-61.6691 403.735 -62.791 400.209 -63.9575 396.682C-81.5794 343.532 -110.297 293.548 -156.831 261.278C-206.429 226.855 -279.49 216.918 -335.529 250.199" stroke="#0049FF" stroke-miterlimit="10"/>
<path d="M846.296 876.394C798.525 885.782 750.261 891.929 701.967 894.887C680.505 896.213 658.571 896.852 638.202 891.156C586.196 876.596 558.29 825.89 542.385 778.057C538.592 766.691 535.186 755.201 532.155 743.61C523.431 710.209 517.833 675.938 515.421 641.349C512.218 595.156 514.608 547.692 501.792 502.228C488.983 456.781 454.007 418.13 409.726 402.29C388.807 394.805 371.198 386.164 351.274 384.161C337.684 382.759 323.338 383.231 308.888 386.477C302.258 387.947 295.57 389.999 288.843 392.73C261.998 403.688 237.754 425.596 215.547 447.225C213.345 449.372 211.144 451.518 208.942 453.664C174.586 487.055 137.378 516.631 93.789 530.417C60.8003 540.858 22.3054 540.3 -5.47801 520.705C-45.0103 492.839 -55.3613 443.235 -69.7036 400.515C-70.8397 397.16 -72.0019 393.796 -73.2273 390.439C-91.7469 339.908 -120.847 293.023 -166.538 263.325C-215.236 231.655 -285.872 223.67 -339.781 256.84" stroke="#0049FF" stroke-miterlimit="10"/>
<path d="M851.408 861.538C804.826 870.722 757.755 876.625 710.665 879.313C689.742 880.509 668.366 881.012 648.5 875.513C597.749 861.466 569.726 813.146 553.136 767.302C549.197 756.413 545.599 745.398 542.387 734.257C533.114 702.188 526.836 669.201 523.659 635.851C519.406 591.309 520.563 545.429 507.507 501.35C494.484 457.297 460.099 420.478 418.301 403.198C396.8 394.31 379.872 382.855 359.587 378.631C345.745 375.724 330.854 374.675 315.526 376.852C308.507 377.828 301.352 379.462 294.104 381.9C265.223 391.71 238.914 414.444 214.778 436.656C212.402 438.857 210 441.049 207.605 443.257C170.199 477.486 129.319 506.307 82.9407 519.083C50.6901 527.967 13.4682 527.604 -13.7175 508.682C-52.4242 481.763 -63.6633 434.339 -78.7859 393.794C-79.9885 390.592 -81.2206 387.423 -82.4974 384.253C-101.889 336.35 -131.378 292.547 -176.246 265.428C-224.062 236.521 -292.262 230.462 -344.032 263.538" stroke="#0049FF" stroke-miterlimit="10"/>
<path d="M856.534 846.693C811.149 855.693 765.246 861.341 719.371 863.733C698.987 864.8 678.176 865.184 658.794 859.889C609.298 846.357 581.184 800.432 563.91 756.577C559.797 746.155 556.045 735.598 552.623 724.941C542.801 694.204 535.87 662.511 531.902 630.39C526.598 587.499 526.504 543.211 513.226 500.509C499.981 457.833 466.242 422.617 426.872 404.125C404.77 393.74 388.55 379.582 367.903 373.138C353.821 368.702 338.363 366.182 322.186 367.257C314.752 367.73 307.157 368.954 299.395 371.118C268.479 379.778 240.096 403.323 214.059 426.126C211.489 428.389 208.894 430.643 206.317 432.889C165.867 467.973 121.403 496.085 72.1153 507.779C40.6627 515.244 4.65361 514.938 -21.9604 496.679C-59.8675 470.697 -71.9688 425.462 -87.8792 387.076C-89.1406 384.043 -90.4316 381.045 -91.7672 378.045C-112.056 332.76 -141.91 292.048 -185.945 267.526C-232.881 241.381 -298.637 237.267 -348.268 270.248" stroke="#0049FF" stroke-miterlimit="10"/>
<path d="M861.638 831.818C817.443 840.616 772.732 846.02 728.08 848.133C708.235 849.072 688.007 849.328 669.102 844.221C620.87 831.219 592.631 787.662 574.699 745.806C570.42 735.869 566.495 725.779 562.892 715.572C552.521 686.166 544.918 655.775 540.177 624.876C533.804 583.643 532.459 540.948 518.952 499.605C505.493 458.323 475.785 417.693 435.477 405C415.527 389.286 397.235 376.247 376.245 367.574C361.931 361.627 345.89 357.601 328.854 357.599C321.031 357.578 312.969 358.383 304.685 360.255C271.733 367.767 241.26 392.128 213.313 415.506C210.543 417.815 207.773 420.123 205.003 422.432C161.502 458.354 113.524 485.871 61.2817 496.377C30.6537 502.537 -4.15042 502.166 -30.1928 484.571C-67.2742 459.535 -80.2637 416.481 -96.962 380.252C-98.2822 377.389 -99.6321 374.561 -101.027 371.731C-122.187 329.074 -152.438 291.426 -195.642 269.501C-241.678 246.11 -305.016 243.931 -352.509 276.818" stroke="#0049FF" stroke-miterlimit="10"/>
<path d="M866.764 816.977C823.766 825.591 780.241 830.732 736.786 832.557C717.479 833.367 697.809 833.487 679.396 828.602C632.42 816.113 604.082 774.934 585.446 735.075C581.014 725.597 576.896 715.983 573.102 706.251C562.182 678.176 553.918 649.062 548.393 619.409C541.007 579.812 538.411 538.71 524.689 498.76C510.99 458.864 482.387 419.473 444.074 405.941C424.032 388.325 405.94 372.989 384.606 362.087C370.033 354.618 353.444 349.113 335.559 348.01C327.339 347.477 318.8 347.889 310.013 349.461C275.026 355.823 242.487 381.012 212.63 404.964C209.685 407.327 206.722 409.698 203.733 412.06C157.163 448.828 105.753 475.839 50.4745 485.069C20.7422 490.037 -12.9466 489.497 -38.3913 472.574C-74.647 448.484 -88.5172 407.628 -106.003 373.556C-107.382 370.864 -108.791 368.206 -110.263 365.554C-132.321 325.515 -162.937 290.958 -205.334 271.621C-250.497 250.974 -311.384 250.757 -356.746 283.533" stroke="#0049FF" stroke-miterlimit="10"/>
<path d="M871.875 802.119C830.074 810.547 787.735 815.426 745.484 816.981C726.697 817.67 707.611 817.663 689.693 812.957C643.953 800.99 615.517 762.189 596.223 724.328C591.625 715.335 587.335 706.188 583.36 696.905C571.891 670.163 562.954 642.35 556.638 613.927C548.202 575.98 544.373 536.462 530.411 497.898C516.49 459.378 488.967 421.217 452.648 406.847C432.494 387.336 414.613 369.678 392.925 356.572C378.12 347.592 360.967 340.573 342.203 338.401C333.577 337.383 324.59 337.367 315.287 338.664C278.265 343.878 243.654 369.877 211.876 394.428C208.738 396.854 205.582 399.287 202.411 401.686C152.797 439.31 97.9713 465.952 39.6406 473.768C10.7969 477.631 -21.7509 476.826 -46.6239 460.566C-82.0539 437.424 -96.8124 398.747 -115.086 366.834C-116.524 364.312 -118.011 361.831 -119.523 359.341C-142.453 321.93 -173.458 290.455 -215.031 273.698C-259.294 255.805 -317.737 257.531 -360.979 290.221" stroke="#0049FF" stroke-miterlimit="10"/>
<path d="M876.996 787.275C836.366 795.509 795.22 800.143 754.203 801.394C735.955 801.955 717.452 801.82 700.001 797.327C655.516 785.873 626.962 749.458 606.984 713.587C602.231 705.052 597.75 696.38 593.583 687.573C581.546 662.17 571.975 635.644 564.867 608.45C555.407 572.162 550.301 534.228 536.117 497.041C521.982 459.915 495.532 422.966 461.233 407.767C440.968 386.362 423.286 366.407 401.247 351.055C386.202 340.546 368.482 332.056 348.869 328.782C339.847 327.252 330.4 326.834 320.576 327.84C281.519 331.905 244.817 358.721 211.147 383.839C207.816 386.327 204.478 388.798 201.113 391.259C148.449 429.721 90.2299 456.15 28.8058 462.405C0.888159 465.249 -30.5748 464.101 -54.8686 448.522C-89.499 426.316 -105.138 389.837 -124.181 360.074C-125.678 357.722 -127.223 355.411 -128.794 353.091C-152.622 318.298 -184.01 289.923 -224.732 275.754C-268.115 260.623 -324.121 264.277 -365.225 296.873" stroke="#0049FF" stroke-miterlimit="10"/>
<path d="M882.105 772.397C842.672 780.447 802.711 784.818 762.898 785.798C745.19 786.231 727.244 785.959 710.295 781.663C667.066 770.722 638.421 736.702 617.759 702.82C612.84 694.77 608.185 686.566 603.831 678.19C591.252 654.137 581.009 628.913 573.117 602.965C562.607 568.329 556.268 531.979 541.844 496.176C527.488 460.427 502.135 424.7 469.831 408.664C449.473 385.355 431.983 363.086 409.59 345.531C394.286 333.5 376.009 323.514 355.538 319.163C346.108 317.148 336.213 316.303 325.868 317.017C284.775 319.933 246.007 347.576 210.41 373.276C206.904 375.819 203.354 378.36 199.788 380.866C144.073 420.166 82.4654 446.546 17.9621 451.067C-9.04407 452.961 -39.389 451.394 -63.1112 436.478C-96.9159 415.219 -113.436 380.938 -133.267 353.332C-134.841 351.158 -136.426 349.009 -138.068 346.885C-162.767 314.72 -194.544 289.426 -234.443 277.837C-276.944 265.468 -330.507 271.066 -369.479 303.55" stroke="#0049FF" stroke-miterlimit="10"/>
<path d="M887.221 757.555C848.978 765.403 810.21 769.529 771.594 770.221C754.424 770.525 737.062 770.126 720.579 766.043C678.606 755.616 649.843 723.982 628.522 692.098C623.431 684.515 618.622 676.77 614.057 668.878C600.922 646.138 590.017 622.191 581.353 597.465C569.793 564.479 562.202 529.722 547.557 495.296C532.986 460.941 508.713 426.443 478.385 409.577C457.915 384.374 440.636 359.782 417.881 340.006C402.344 326.464 383.493 314.989 362.154 309.545C352.328 307.018 341.975 305.771 331.115 306.21C287.986 307.978 247.128 336.438 209.646 362.722C205.947 365.327 202.215 367.905 198.457 370.474C139.68 410.638 74.687 437.131 7.10027 439.757C-18.9905 440.76 -48.2398 438.722 -71.3718 424.461C-104.351 404.148 -121.759 372.048 -142.378 346.599C-144.011 344.595 -145.655 342.617 -147.355 340.662C-172.952 311.116 -205.094 288.913 -244.168 279.904C-285.769 270.288 -336.915 277.821 -373.722 310.221" stroke="#0049FF" stroke-miterlimit="10"/>
<path d="M892.339 742.698C855.292 750.361 817.711 754.225 780.317 754.639C763.686 754.814 746.882 754.278 730.901 750.392C690.191 740.495 661.322 711.221 639.306 681.353C634.068 674.247 629.067 666.976 624.322 659.534C610.637 638.126 599.071 615.455 589.623 591.976C577.031 560.633 568.19 527.469 553.323 494.419C538.511 461.448 511.501 432.759 487.029 410.478C461.691 387.413 449.369 356.491 426.289 334.479C410.512 319.407 391.105 306.436 368.906 299.915C358.691 296.894 347.853 295.237 336.489 295.376C291.325 295.994 248.394 325.265 209.003 352.123C205.104 354.773 201.185 357.431 197.245 360.037C135.417 401.039 67.0036 427.868 -3.64885 428.383C-28.8388 428.565 -56.9594 425.979 -79.5122 412.398C-111.673 393.014 -129.962 363.111 -151.361 339.838C-153.053 338.004 -154.756 336.196 -156.515 334.411C-182.991 307.475 -215.515 288.372 -253.765 281.942C-294.493 275.071 -343.187 284.566 -377.863 316.854" stroke="#0049FF" stroke-miterlimit="10"/>
<path d="M897.441 727.855C861.584 735.316 825.203 738.952 788.999 739.06C772.907 739.107 756.667 738.452 741.171 734.77C701.698 725.396 672.73 698.499 650.049 670.612C644.645 663.99 639.463 657.17 634.526 650.202C620.292 630.126 608.055 608.757 597.834 586.499C584.192 556.807 574.099 525.236 559.01 493.563C543.985 461.986 518.241 433.888 495.576 411.408C470.175 386.2 458.042 353.213 434.582 328.988C418.572 312.404 398.59 297.945 375.543 290.322C364.913 286.798 353.634 284.731 341.748 284.578C294.542 284.03 249.553 314.145 208.233 341.585C204.159 344.29 200.041 346.993 195.888 349.669C131.01 391.509 59.1389 418.897 -14.5244 417.072C-38.8432 416.465 -65.824 413.305 -87.8052 400.388C-119.159 381.958 -138.31 354.245 -160.504 333.113C-162.255 331.448 -164.036 329.818 -165.835 328.195C-193.201 303.895 -226.104 287.848 -263.533 284.041C-303.38 279.931 -349.63 291.37 -382.175 323.547" stroke="#0049FF" stroke-miterlimit="10"/>
<path d="M902.557 713.002C867.897 720.278 832.683 723.659 797.701 723.49C782.148 723.407 766.492 722.625 751.473 719.131C713.255 710.269 684.17 685.759 660.812 659.878C655.234 653.724 649.887 647.388 644.77 640.87C629.987 622.126 617.096 602.051 606.091 581.039C591.399 552.998 580.073 523.011 564.744 492.723C549.497 462.523 525.136 435.028 504.163 412.336C478.779 384.868 466.709 349.932 442.906 323.478C426.656 305.366 406.117 289.41 382.211 280.711C371.192 276.692 359.446 274.206 347.039 273.762C297.797 272.064 250.717 302.997 207.514 331.021C203.247 333.788 198.953 336.546 194.6 339.267C126.678 381.963 51.2692 410.131 -25.3424 405.751C-48.7937 404.399 -74.631 400.623 -96.022 388.361C-126.55 370.878 -146.589 345.345 -169.572 326.37C-171.381 324.876 -173.221 323.415 -175.097 321.971C-203.343 300.281 -236.628 287.333 -273.232 286.105C-312.18 284.75 -356.012 298.124 -386.412 330.224" stroke="#0049FF" stroke-miterlimit="10"/>
<path d="M907.675 698.155C874.212 705.246 840.184 708.365 806.417 707.9C791.403 707.689 776.305 706.77 761.777 703.498C724.815 695.15 695.638 673.034 671.596 649.143C665.872 643.465 660.325 637.587 655.017 631.544C639.684 614.132 626.114 595.341 614.343 575.568C598.62 549.17 586.032 520.801 570.474 491.872C555.005 463.049 532.108 436.143 512.771 413.263C487.59 383.455 475.39 346.633 451.251 317.967C434.75 298.351 413.655 280.899 388.881 271.106C377.466 266.576 365.262 263.688 352.34 262.969C301.063 260.123 251.91 291.865 206.779 320.471C202.318 323.301 197.824 326.104 193.296 328.88C122.305 372.422 43.2991 401.642 -36.1653 394.419C-58.7971 392.363 -83.4242 387.921 -104.236 376.34C-133.938 359.803 -154.866 336.451 -178.628 319.651C-180.497 318.327 -182.395 317.036 -184.331 315.762C-213.466 296.708 -247.124 286.834 -282.903 288.185C-320.97 289.592 -362.358 304.91 -390.627 336.899" stroke="#0049FF" stroke-miterlimit="10"/>
<path d="M912.786 683.296C880.494 690.193 847.678 693.059 815.115 692.323C800.648 692.001 786.107 690.946 772.075 687.853C736.368 680.018 707.074 660.289 682.366 638.378C676.468 633.167 670.775 627.766 665.267 622.181C649.386 606.1 635.162 588.603 622.581 570.068C605.808 545.32 591.987 518.536 576.189 490.992C560.506 463.563 539.136 437.239 521.346 414.169C496.542 381.967 484.072 343.339 459.571 312.453C442.829 291.307 421.16 272.366 395.526 261.497C383.73 256.491 371.059 253.184 357.634 252.165C304.321 248.17 253.078 280.73 206.062 309.92C201.427 312.804 196.74 315.669 192.012 318.49C117.959 362.895 35.2266 393.43 -46.9984 383.119C-68.8219 380.384 -92.2465 375.259 -112.468 364.333C-141.371 348.733 -163.153 327.588 -187.711 312.928C-189.638 311.774 -191.596 310.654 -193.582 309.566C-223.597 293.123 -257.655 286.356 -292.592 290.279C-329.778 294.448 -368.73 311.693 -394.86 343.587" stroke="#0049FF" stroke-miterlimit="10"/>
<path d="M917.909 668.441C886.814 675.153 855.183 677.756 823.836 676.724C809.907 676.274 795.942 675.074 782.384 672.211C747.933 664.89 718.54 647.538 693.136 627.642C687.092 622.908 681.199 617.964 675.5 612.854C659.069 598.105 644.173 581.911 630.82 564.597C612.996 541.499 597.924 516.308 581.923 490.132C565.999 464.088 546.269 438.402 529.932 415.078C505.673 380.409 492.765 340.048 467.921 306.933C450.928 284.284 428.702 263.847 402.209 251.901C389.991 246.374 376.879 242.657 362.914 241.354C307.584 236.202 254.257 269.597 205.313 299.369C200.485 302.316 195.597 305.226 190.683 308.127C113.597 353.363 26.9991 385.5 -57.8278 371.804C-78.9061 368.397 -101.039 362.592 -120.715 352.319C-148.792 337.666 -171.481 318.709 -196.808 306.199C-198.813 305.223 -200.836 304.255 -202.875 303.355C-233.779 289.548 -268.209 285.855 -302.314 292.375C-338.608 299.28 -375.127 318.495 -399.118 350.295" stroke="#0049FF" stroke-miterlimit="10"/>
<path d="M923.024 653.589C893.119 660.099 862.662 662.465 832.538 661.155C819.148 660.575 805.748 659.256 792.685 656.573C759.478 649.79 729.979 634.799 703.917 616.902C697.699 612.635 691.641 608.175 685.761 603.515C668.781 590.098 653.224 575.18 639.087 559.113C620.232 537.658 603.909 514.06 587.667 489.269C571.53 464.619 553.479 439.614 538.555 415.992C515.068 378.821 501.468 336.753 476.289 301.427C459.03 277.239 436.229 255.313 408.869 242.273C396.262 236.252 382.691 232.134 368.222 230.531C310.857 224.23 255.458 258.435 204.604 288.781C199.575 291.773 194.52 294.755 189.405 297.701C109.269 343.775 18.664 377.803 -68.643 360.442C-89.0059 356.396 -109.843 349.868 -128.921 340.268C-156.173 326.561 -179.75 309.785 -205.857 299.45C-207.921 298.644 -209.996 297.863 -212.101 297.116C-243.884 285.919 -278.697 285.325 -311.996 294.433C-347.409 304.099 -381.465 325.251 -403.344 356.948" stroke="#0049FF" stroke-miterlimit="10"/>
<path d="M928.136 638.735C899.428 645.061 870.157 647.165 841.23 645.566C828.379 644.858 815.562 643.412 802.965 640.941C771.014 634.672 741.397 622.066 714.65 606.158C708.268 602.376 702.029 598.366 695.957 594.181C678.428 582.096 662.218 568.472 647.289 553.634C627.384 533.83 609.809 511.824 593.346 488.41C576.987 465.137 560.684 440.868 547.093 416.919C524.553 377.192 510.114 333.48 484.565 295.916C467.092 270.208 443.717 246.794 415.515 232.67C402.538 226.147 388.475 221.6 373.491 219.723C314.091 212.273 256.6 247.295 203.844 278.233C198.64 281.28 193.385 284.307 188.077 287.315C104.879 334.253 10.0936 370.432 -79.4901 349.112C-99.2082 344.416 -118.661 337.168 -137.167 328.231C-163.593 315.471 -188.05 300.892 -214.954 292.698C-217.076 292.062 -219.218 291.434 -221.374 290.874C-254.048 282.312 -289.231 284.792 -321.706 296.48C-356.238 308.908 -387.858 331.987 -407.598 363.589" stroke="#0049FF" stroke-miterlimit="10"/>
<path d="M933.249 623.874C855.061 641.293 772.368 624.219 706.217 584.833C640.067 545.447 589.765 485.103 555.715 417.824C534.318 375.538 518.835 330.168 492.931 290.4C467.028 250.632 427.904 215.792 378.787 208.916C317.352 200.317 257.796 236.166 203.13 267.679C113.232 319.505 7.19288 364.972 -90.3104 337.783C-138.883 324.246 -180.684 293.513 -230.631 284.659C-299.855 272.387 -377.679 309.158 -411.811 370.267" stroke="#0049FF" stroke-miterlimit="10"/>
<path d="M-208 -63.9532C-171.613 -101.071 -133.119 -135.864 -92.8225 -168.089C-74.9044 -182.402 -56.151 -196.493 -34.5695 -202.882C20.5897 -219.237 76.7738 -181.937 118.988 -140.736C157.88 -102.789 192.502 -59.9099 221.903 -13.2702C251.039 32.9449 275.62 83.5268 314.057 121.231C352.513 158.935 410.329 181.395 457.782 158.045C486.007 144.156 506.431 115.934 517.629 85.043C528.828 54.1521 531.732 20.5724 532.397 -12.5424C533.156 -50.4485 531.58 -90.4571 548.588 -123.774C566.202 -158.243 603.728 -179.976 640.475 -176.944C692.749 -172.638 731.3 -125.796 769.357 -87.4044C817.721 -38.6218 876.657 2.17527 942.75 10.9493C1008.84 19.7233 1082.28 -9.99511 1113.35 -72.7272" stroke="#0049FF" stroke-miterlimit="10"/>
<path d="M-203.688 -48.3463C-167.946 -84.8776 -130.003 -118.943 -90.2183 -150.299C-72.5279 -164.248 -54.0214 -177.894 -32.8194 -184.202C9.7742 -196.857 53.0322 -177.753 89.9695 -149.894C100.029 -142.313 109.634 -134.085 118.612 -125.654C157.258 -89.4466 191.822 -48.2654 221.376 -3.32395C250.645 41.193 275.32 90.2788 313.51 126.81C334.921 147.31 361.627 163.685 389.454 171.125C413.693 177.594 438.899 177.149 461.791 166.313C465.872 164.373 469.82 162.149 473.597 159.642C496.887 144.237 513.78 118.845 523.973 91.4514C527.257 82.6572 529.895 73.6406 532.059 64.5229C537.696 40.7078 540.164 15.9424 541.663 -8.39832C544.093 -47.0322 545.327 -86.8387 563.7 -119.792C581.941 -152.522 618.005 -173.709 653.899 -170.96C704.977 -167.038 742.996 -122.561 780.465 -86.4545C783.426 -83.604 786.406 -80.7939 789.443 -78.0242C835.244 -36.0344 889.492 -2.51529 949.359 3.91359C1013.19 10.767 1083.56 -19.2951 1112.98 -80.8141" stroke="#0049FF" stroke-miterlimit="10"/>
<path d="M-199.383 -32.7189C-164.287 -68.6437 -126.894 -101.981 -87.622 -132.508C-70.1783 -146.073 -51.8995 -159.315 -31.0772 -165.522C10.7762 -177.975 53.2939 -160.063 89.7946 -133.62C99.7597 -126.423 109.269 -118.599 118.209 -110.573C156.608 -76.0834 191.116 -36.6207 220.802 6.6226C250.223 49.4413 275.05 97.011 312.937 132.41C335.24 153.253 362.629 170.235 391.215 178.322C416.061 185.337 442.141 185.357 465.792 174.562C470.024 172.641 474.105 170.397 478.035 167.85C502.216 152.243 519.546 126.062 530.308 97.86C533.763 88.8232 536.591 79.564 538.945 70.224C545.114 45.8226 548.379 20.5114 550.903 -4.25391C555.003 -43.5954 558.989 -83.1794 578.767 -115.829C597.559 -146.841 632.218 -167.483 667.276 -164.996C717.159 -161.438 754.646 -119.347 791.527 -85.5246C794.431 -82.856 797.373 -80.2278 800.353 -77.6199C845.376 -38.3795 898.182 -7.73116 955.922 -3.10157C1017.48 1.85149 1084.79 -28.5947 1112.55 -88.8603" stroke="#0049FF" stroke-miterlimit="10"/>
<path d="M-195.055 -17.1114C-160.604 -52.45 -123.762 -85.0593 -85.0211 -114.737C-67.8052 -127.918 -49.7921 -140.756 -29.3305 -146.861C11.7636 -159.113 53.5601 -142.394 89.6432 -117.386C99.5134 -110.573 108.947 -103.153 117.83 -95.5315C155.982 -62.7605 190.452 -25.0161 220.271 16.529C249.806 57.6899 274.823 103.723 312.368 138.01C335.563 159.197 363.598 176.786 392.962 185.519C418.434 193.08 445.349 193.586 469.778 182.831C474.163 180.91 478.396 178.646 482.458 176.078C507.532 160.249 525.317 133.28 536.649 104.269C540.274 94.9895 543.273 85.4877 545.855 75.9253C552.555 50.9376 556.636 25.0604 560.185 -0.109268C565.956 -40.1785 572.637 -79.4796 593.896 -111.867C613.124 -141.16 646.492 -161.256 680.715 -159.012C729.421 -155.838 766.358 -116.112 802.65 -84.5742C805.516 -82.0875 808.401 -79.6413 811.325 -77.2153C855.57 -40.7244 906.951 -12.9468 962.547 -10.0963C1021.83 -7.04356 1086.1 -37.8536 1112.19 -96.886" stroke="#0049FF" stroke-miterlimit="10"/>
<path d="M-190.742 -1.48416C-156.956 -36.2162 -120.645 -68.118 -82.4169 -96.9469C-65.4288 -109.764 -47.6625 -122.177 -27.5804 -128.181C12.7544 -140.231 53.8106 -124.704 89.4951 -101.111C99.2514 -94.6826 108.609 -87.6674 117.454 -80.4501C155.36 -49.3975 189.772 -13.3513 219.725 26.4754C249.392 65.9382 274.618 110.394 311.821 143.59C335.927 165.1 364.607 183.316 394.75 192.716C420.83 200.803 448.599 201.794 473.806 191.079C478.323 189.158 482.708 186.894 486.922 184.286C512.888 168.254 531.129 140.497 543.011 110.677C546.807 101.135 549.996 91.3908 552.767 81.606C559.999 56.032 564.877 29.609 569.471 4.01476C576.911 -36.7823 586.212 -75.7801 609.008 -107.924C628.597 -135.54 660.77 -155.029 694.139 -153.068C741.649 -150.278 778.054 -112.918 813.758 -83.6848C816.567 -81.3801 819.414 -79.1158 822.299 -76.8718C865.785 -43.1303 915.705 -18.2235 969.175 -17.1722C1026.19 -16.0401 1087.39 -47.2141 1111.84 -104.993" stroke="#0049FF" stroke-miterlimit="10"/>
<path d="M-186.438 14.123C-153.296 -20.0229 -117.536 -51.1968 -79.8205 -79.1766C-63.0602 -91.6098 -45.5596 -103.618 -25.8382 -109.522C13.7374 -121.389 54.0723 -107.035 89.3203 -84.8574C98.9816 -78.8329 108.263 -72.2018 117.052 -65.3889C154.729 -36.0546 189.066 -1.72684 219.17 36.4016C248.97 74.1864 274.424 117.025 311.248 149.19C336.265 171.044 365.59 189.886 396.511 199.913C423.217 208.546 451.841 210.022 477.807 199.347C482.476 197.427 486.994 195.162 491.359 192.514C518.237 176.28 536.895 147.714 549.347 117.086C553.314 107.301 556.692 97.3142 559.654 87.307C567.417 61.1467 573.054 34.1374 578.711 8.15907C587.746 -33.3658 599.685 -72.0603 624.094 -103.962C643.949 -129.94 675.002 -148.802 707.535 -147.104C753.849 -144.678 789.724 -109.683 824.839 -82.7549C827.61 -80.6322 830.4 -78.5499 833.228 -76.4878C875.936 -45.4755 924.414 -23.4597 975.758 -24.2077C1030.5 -24.9759 1088.64 -56.5138 1111.43 -113.08" stroke="#0049FF" stroke-miterlimit="10"/>
<path d="M-182.125 29.7302C-149.629 -3.82934 -114.419 -34.2553 -77.2163 -61.386C-60.7027 -73.435 -43.4299 -85.0191 -24.0692 -90.8415C14.7472 -102.506 54.3608 -89.3253 89.1912 -68.5831C98.7387 -62.9426 107.945 -56.7361 116.695 -50.3073C154.107 -22.7116 188.387 9.89772 218.623 46.3482C248.557 82.455 274.257 123.677 310.682 154.79C336.629 176.947 366.6 196.436 398.28 207.131C425.613 216.309 455.071 218.25 481.816 207.616C486.637 205.716 491.306 203.411 495.805 200.742C523.574 184.306 542.688 154.952 555.69 123.495C559.828 113.467 563.397 103.238 566.566 93.0081C574.861 66.2615 581.315 38.7063 587.996 12.3237C598.702 -29.9289 613.146 -68.3 639.207 -99.9794C659.251 -124.34 689.279 -142.556 720.959 -141.12C766.077 -139.078 801.42 -106.449 835.947 -81.8047C838.661 -79.8639 841.413 -77.9433 844.184 -76.0834C886.114 -47.8206 933.149 -28.6957 982.367 -31.2228C1034.83 -33.8914 1089.91 -65.8134 1111.06 -121.126" stroke="#0049FF" stroke-miterlimit="10"/>
<path d="M-177.82 45.3578C-145.97 12.4048 -111.31 -17.3136 -74.6389 -43.5952C-58.3531 -55.2804 -41.346 -66.4399 -22.3459 -72.1612C15.7112 -83.624 54.5846 -71.6356 89.0163 -52.3287C98.4689 -47.0724 107.599 -41.2703 116.292 -35.2457C153.476 -9.34828 187.699 21.5427 218.069 56.295C248.135 90.7036 274.101 130.288 310.108 160.39C337.005 182.851 367.583 202.966 400.041 214.328C427.981 224.052 458.313 226.478 485.836 215.885C490.79 213.984 495.611 211.68 500.261 208.971C528.923 192.312 548.473 162.169 562.045 129.924C566.354 119.654 570.093 109.161 573.472 98.7094C582.298 71.3765 589.549 43.2553 597.274 16.4683C609.65 -26.5122 626.524 -64.58 654.331 -96.0168C674.489 -118.821 703.549 -136.329 734.394 -135.136C778.335 -133.458 813.146 -103.214 847.066 -80.8543C849.742 -79.0955 852.437 -77.3569 855.151 -75.6789C896.303 -50.1656 941.895 -33.9114 988.987 -38.2378C1039.17 -42.8269 1091.22 -75.0926 1110.69 -129.172" stroke="#0049FF" stroke-miterlimit="10"/>
<path d="M-173.492 60.9648C-142.287 28.5981 -108.178 -0.392474 -72.0191 -25.8249C-55.9611 -37.126 -39.2007 -47.8812 -20.5803 -53.5014C16.7177 -64.7621 54.8318 -53.9058 88.8649 -36.0747C98.2036 -31.1823 107.258 -25.8047 115.894 -20.1845C152.831 3.97431 186.997 33.1671 217.519 66.2212C247.718 98.9518 273.969 136.858 309.539 165.99C337.385 188.754 368.571 209.516 401.807 221.525C430.373 231.775 461.54 234.686 489.841 224.153C494.947 222.253 499.92 219.948 504.703 217.199C534.257 200.338 554.263 169.407 568.385 136.332C572.865 125.82 576.794 115.085 580.381 104.41C589.739 76.5114 597.806 47.8039 606.556 20.6125C620.602 -23.0957 639.849 -60.9007 669.441 -92.0342C689.655 -113.302 717.804 -130.062 747.814 -129.152C790.559 -127.858 824.839 -99.9794 858.17 -79.9043C860.789 -78.3274 863.447 -76.7707 866.123 -75.2747C906.496 -52.5108 950.646 -39.1274 995.612 -45.2531C1043.54 -51.7426 1092.51 -84.3924 1110.33 -137.239" stroke="#0049FF" stroke-miterlimit="10"/>
<path d="M-169.18 76.5721C-138.639 44.8118 -105.061 16.5289 -69.4149 -8.0545C-53.5847 -18.9715 -37.0901 -29.3224 -18.8302 -34.8415C17.7084 -45.8999 55.1013 -36.2162 88.7168 -19.8206C97.9606 -15.3123 106.939 -10.339 115.518 -5.1231C152.209 17.3173 186.318 44.7916 216.972 76.1476C247.304 107.2 273.84 143.428 308.974 171.57C337.768 194.637 369.543 216.087 403.557 228.722C432.75 239.518 464.752 242.914 493.831 232.402C499.089 230.501 504.195 228.176 509.149 225.407C539.613 208.344 560.056 176.604 574.728 142.741C579.379 131.986 583.498 121.008 587.275 110.111C597.164 81.6262 606.047 52.3729 615.804 24.757C631.52 -19.679 653.064 -57.2617 684.534 -88.0717C704.749 -107.864 732.063 -123.835 761.218 -123.188C802.768 -122.258 836.516 -96.7649 869.24 -78.9743C871.821 -77.5793 874.421 -76.2046 877.041 -74.8905C916.635 -54.8761 959.343 -44.3635 1002.18 -52.2682C1047.83 -60.6581 1093.75 -93.6717 1109.9 -145.285" stroke="#0049FF" stroke-miterlimit="10"/>
<path d="M-164.875 92.1995C-134.98 61.0255 -101.953 33.4905 -66.8185 9.73604C-51.235 -0.796794 -34.9682 -10.7434 -17.088 -16.1614C18.6915 -27.0177 55.363 -18.5267 88.5609 -3.56647C97.6909 0.557713 106.593 5.12666 115.135 9.93821C151.578 30.6602 185.649 56.4161 216.437 86.0739C246.902 115.428 273.76 149.958 308.438 177.15C338.182 200.5 370.564 222.617 405.337 235.919C435.137 247.261 468.013 251.122 497.851 240.67C503.261 238.79 508.518 236.445 513.605 233.635C544.962 216.37 565.841 183.841 581.083 149.15C585.904 138.152 590.194 126.932 594.18 115.792C604.601 86.7208 614.281 56.9013 625.081 28.8812C642.487 -16.2625 666.251 -53.6834 699.639 -84.1295C719.778 -102.486 746.314 -117.628 774.634 -117.224C814.988 -116.678 848.204 -93.5505 880.34 -78.0646C882.883 -76.8516 885.427 -75.6588 887.989 -74.5267C926.805 -57.2617 968.07 -49.6198 1008.78 -59.3238C1052.16 -69.6343 1095.02 -103.012 1109.52 -153.371" stroke="#0049FF" stroke-miterlimit="10"/>
<path d="M-160.562 107.807C-131.313 77.219 -98.8359 50.4119 -64.2143 27.5267C-48.8586 17.3577 -32.8575 7.85595 -15.3379 2.51877C19.7013 -8.13537 55.6135 -0.83718 88.4129 12.7079C97.4479 16.448 106.274 20.5924 114.759 25.0198C150.956 44.0234 184.97 68.0609 215.89 96.0205C246.488 123.697 273.669 156.488 307.873 182.75C338.603 206.342 371.554 229.167 407.106 243.116C437.533 255.004 471.243 259.35 501.86 248.918C507.402 247.038 512.812 244.693 518.051 241.843C550.3 224.355 571.634 191.038 587.446 155.538C592.438 144.298 596.917 132.815 601.112 121.473C612.064 91.8154 622.561 61.4299 634.386 33.0256C653.462 -12.8458 679.39 -50.1656 714.79 -80.167C734.834 -97.149 760.61 -111.381 788.095 -111.26C827.253 -111.098 859.939 -90.3158 891.485 -77.1346C893.972 -76.1035 896.477 -75.0927 898.983 -74.1223C937.021 -59.6068 976.843 -54.8357 1015.43 -66.3389C1056.55 -78.5497 1096.35 -112.291 1109.18 -161.417" stroke="#0049FF" stroke-miterlimit="10"/>
<path d="M-156.234 123.434C-127.63 93.4531 -95.6846 67.3535 -61.6135 45.3174C-46.4855 35.5326 -30.7312 26.4351 -13.5912 21.199C20.6887 10.7268 55.8797 16.8524 88.2425 28.9824C97.1826 32.3181 105.914 36.0784 114.361 40.1015C150.33 57.3867 184.268 79.7058 215.34 105.967C246.071 131.945 273.574 162.998 307.304 188.35C339.021 212.185 372.542 235.717 408.891 250.334C439.944 262.767 474.508 267.578 505.884 257.207C511.579 255.327 517.121 252.962 522.512 250.111C555.653 232.422 577.424 198.316 593.805 162.007C598.987 150.504 603.637 138.799 608.022 127.235C619.505 96.991 630.875 66.0798 643.649 37.2307C664.49 -9.32804 692.431 -46.6883 729.88 -76.1438C749.773 -91.7915 774.866 -105.094 801.496 -105.236C839.477 -105.438 871.612 -87.0406 902.571 -76.1438C905.019 -75.2948 907.468 -74.4659 909.935 -73.6774C947.214 -61.9114 985.575 -60.0312 1022.04 -73.3135C1060.87 -87.4247 1097.62 -121.55 1108.8 -169.443" stroke="#0049FF" stroke-miterlimit="10"/>
<path d="M-151.93 139.041C-123.989 109.647 -92.5757 84.2949 -59.0171 63.0877C-44.1169 53.687 -28.6283 44.9939 -11.849 39.8589C21.6717 29.5888 56.1414 34.5217 88.0866 45.2163C96.9318 48.1679 105.587 51.5238 113.977 55.1426C149.699 70.7094 183.581 91.3303 214.786 115.873C245.649 140.194 273.513 169.508 306.73 193.929C339.454 217.987 373.525 242.267 410.652 257.511C442.312 270.469 477.731 275.786 509.885 265.456C515.731 263.596 521.426 261.21 526.949 258.319C561.001 240.428 583.209 205.534 600.14 168.396C605.493 156.65 610.333 144.702 614.927 132.916C626.942 102.086 639.109 70.6083 652.927 41.3549C675.438 -5.91147 705.41 -43.3728 745.004 -72.2016C764.726 -86.5554 789.135 -98.8875 814.931 -99.2919C851.716 -99.8781 883.32 -83.8464 913.69 -75.2341C916.081 -74.5468 918.492 -73.9201 920.902 -73.3136C957.403 -64.2767 994.321 -65.2876 1028.66 -80.3691C1065.22 -96.4009 1098.91 -130.87 1108.44 -177.53" stroke="#0049FF" stroke-miterlimit="10"/>
<path d="M-147.617 154.649C-120.322 125.84 -89.459 101.216 -56.4129 80.8581C-41.7595 71.8213 -26.4986 63.5528 -10.099 58.5188C22.6625 48.451 56.4109 52.191 87.9385 61.4705C96.6699 64.038 105.249 66.9896 113.601 70.204C149.077 84.0322 182.901 102.955 214.258 125.8C245.235 148.442 273.441 175.977 306.165 199.529C339.894 223.81 374.516 248.818 412.421 264.708C444.708 278.212 480.962 283.994 513.894 273.704C519.873 271.844 525.719 269.459 531.394 266.527C566.339 248.433 588.983 212.731 606.484 174.805C612.007 162.816 617.018 150.605 621.821 138.597C634.367 107.18 647.35 75.1571 662.193 45.4791C686.375 -2.51502 718.34 -40.1987 760.098 -68.2391C779.63 -81.3597 803.375 -92.6608 828.335 -93.3077C863.925 -94.2579 894.997 -80.6117 924.778 -74.2839C927.132 -73.7785 929.486 -73.3337 931.839 -72.9092C967.562 -66.6218 1003.04 -70.5034 1035.23 -87.3842C1069.51 -105.316 1100.14 -140.17 1108.02 -185.576" stroke="#0049FF" stroke-miterlimit="10"/>
<path d="M-143.312 170.276C-116.663 142.074 -86.3502 118.158 -53.8165 98.6488C-39.3909 89.9961 -24.3768 82.1319 -8.35672 77.199C23.6455 67.3333 56.6726 69.8806 87.7637 77.7449C96.4001 79.9283 104.904 82.4553 113.198 85.2857C148.427 97.3954 182.195 114.6 213.684 135.746C244.814 156.691 273.38 182.447 305.591 205.109C340.346 229.571 375.499 255.348 414.163 271.905C447.076 285.955 484.184 292.223 517.876 281.973C524.007 280.113 530.005 277.727 535.813 274.755C571.649 256.439 594.749 219.969 612.801 181.213C618.495 168.982 623.696 156.529 628.688 144.298C641.766 112.315 655.546 79.7059 671.414 49.6236C697.267 0.921851 731.148 -37.1257 775.146 -64.2766C794.488 -76.2044 817.588 -86.4138 841.694 -87.3437C876.088 -88.678 906.628 -77.3972 935.821 -73.3539C938.118 -73.0304 940.434 -72.7676 942.749 -72.525C977.694 -68.9871 1011.73 -75.7394 1041.79 -94.3993C1073.81 -114.232 1101.39 -149.449 1107.6 -193.622" stroke="#0049FF" stroke-miterlimit="10"/>
<path d="M-138.984 185.883C-112.98 158.267 -83.2178 135.079 -51.1967 116.439C-36.9988 108.171 -22.2505 100.731 -6.59103 95.8791C24.6519 86.2156 56.9578 87.5701 87.6313 93.999C96.1728 95.7982 104.581 97.921 112.838 100.347C147.82 110.738 181.531 126.224 213.172 145.693C244.434 164.939 273.381 188.916 305.06 210.709C340.839 235.333 376.524 261.898 415.967 279.102C449.487 293.698 487.45 300.43 521.919 290.221C528.202 288.361 534.333 285.955 540.293 282.963C577.022 264.445 600.577 227.166 619.179 187.602C625.044 175.128 630.434 162.432 635.635 149.979C649.245 117.41 663.841 84.2546 680.734 53.768C708.257 4.33842 744.036 -34.2146 790.312 -60.3142C809.445 -71.1099 831.9 -80.1871 855.171 -81.3799C888.369 -83.0983 918.397 -74.1626 946.983 -72.4239C949.241 -72.2824 951.5 -72.1813 953.759 -72.1409C987.925 -71.3525 1020.53 -80.9755 1048.46 -101.435C1078.2 -123.188 1102.72 -158.769 1107.28 -201.709" stroke="#0049FF" stroke-miterlimit="10"/>
<path d="M-134.672 201.51C-109.332 174.501 -80.1011 152.041 -48.6114 134.23C-34.6413 126.325 -20.1398 119.31 -4.85998 114.559C25.6237 105.098 57.2083 105.259 87.4642 110.273C95.8918 111.668 104.244 113.407 112.424 115.428C147.16 124.101 180.813 137.869 212.588 155.639C243.983 173.207 273.289 195.365 304.456 216.329C341.28 241.095 377.477 268.488 417.698 286.339C451.845 301.481 490.661 308.699 525.89 298.53C532.306 296.69 538.608 294.264 544.701 291.232C582.34 272.511 606.313 234.443 625.484 194.071C631.52 181.355 637.082 168.396 642.491 155.72C656.632 122.565 672.045 88.8435 689.963 57.9526C719.156 7.79524 756.777 -31.4452 805.368 -56.3115C824.311 -65.9953 846.121 -73.9202 868.537 -75.3758C900.559 -77.4581 930.036 -70.9079 958.033 -71.474C960.235 -71.5144 962.456 -71.5953 964.658 -71.7368C998.046 -73.6978 1029.21 -86.1916 1055.01 -108.45C1082.47 -132.103 1103.94 -168.049 1106.85 -209.755" stroke="#0049FF" stroke-miterlimit="10"/>
<path d="M-130.367 217.118C-105.673 190.695 -76.9923 168.962 -46.0151 152C-32.2917 144.48 -18.0369 137.869 -3.11772 133.219C26.6067 123.939 57.47 122.848 87.3083 126.527C95.641 127.518 103.898 128.872 112.041 130.49C146.548 137.444 180.145 149.493 212.052 165.565C243.561 181.456 273.266 201.773 303.921 221.909C341.807 246.796 378.498 275.018 419.497 293.516C454.251 309.184 493.922 316.887 529.929 306.778C536.497 304.939 542.931 302.513 549.176 299.44C587.708 280.497 612.136 241.64 631.858 200.459C638.065 187.5 643.816 174.299 649.434 161.401C664.107 127.659 680.317 93.3922 699.26 62.0768C730.142 11.2118 769.566 -28.8978 820.511 -52.3693C839.265 -61.0018 860.409 -67.6935 881.991 -69.4119C912.816 -71.8783 941.763 -67.6934 969.171 -70.544C971.335 -70.7664 973.499 -71.0292 975.644 -71.3527C1008.25 -76.0631 1037.98 -91.4479 1061.65 -115.485C1086.85 -141.059 1105.25 -177.368 1106.5 -217.822" stroke="#0049FF" stroke-miterlimit="10"/>
<path d="M-126.055 232.725C-102.006 206.888 -73.8756 185.883 -43.4109 169.771C-29.9153 162.634 -15.9072 156.428 -1.36768 151.879C27.6165 142.802 57.7395 140.517 87.1413 142.761C95.3791 143.368 103.541 144.318 111.646 145.531C145.907 150.747 179.447 161.098 211.487 175.472C243.147 189.704 273.232 208.182 303.336 227.489C342.286 252.456 379.47 281.548 421.247 300.713C456.628 316.927 497.134 325.115 533.919 315.027C540.638 313.187 547.206 310.741 553.602 307.648C593.026 288.502 617.892 248.858 638.182 206.868C644.56 193.667 650.501 180.223 656.309 167.102C671.513 132.774 688.539 97.941 708.507 66.2212C741.06 14.6285 782.287 -26.5527 835.586 -48.4068C854.169 -56.0284 874.63 -61.4667 895.377 -63.4479C925.006 -66.2782 953.421 -64.479 980.222 -69.614C982.329 -70.0183 984.455 -70.4631 986.562 -70.9483C1018.41 -78.4082 1046.68 -96.6638 1068.22 -122.501C1091.15 -149.975 1106.5 -186.648 1106.09 -225.868" stroke="#0049FF" stroke-miterlimit="10"/>
<path d="M-121.727 248.352C-98.3228 223.122 -70.7433 202.825 -40.7911 187.581C-27.5233 180.829 -13.7809 175.027 0.397976 170.579C28.6229 161.704 58.0247 158.227 87.0088 159.056C95.1328 159.278 103.238 159.804 111.286 160.633C145.3 164.13 178.783 172.763 210.975 185.438C242.749 197.952 273.214 214.591 302.805 233.089C342.836 258.117 380.495 288.098 423.051 307.91C459.058 324.67 500.418 333.323 537.962 323.295C544.815 321.456 551.553 319.009 558.082 315.876C598.398 296.529 623.719 256.075 644.579 213.277C651.128 199.833 657.259 186.146 663.257 172.783C678.992 137.869 696.834 102.47 717.827 70.3454C752.05 18.0451 795.081 -24.4097 850.752 -44.4443C869.202 -51.0754 888.961 -55.24 908.854 -57.484C937.287 -60.6985 965.17 -61.2645 991.383 -68.684C993.452 -69.2703 995.521 -69.897 997.571 -70.5642C1028.64 -80.7736 1055.46 -101.9 1074.88 -129.536C1095.53 -158.911 1107.83 -195.968 1105.76 -233.955" stroke="#0049FF" stroke-miterlimit="10"/>
<path d="M-117.422 263.96C-64.5594 206.706 11.4599 176.887 86.834 175.29C162.208 173.713 236.766 198.802 302.213 238.669C343.345 263.717 381.459 294.648 424.774 315.108C468.089 335.567 519.224 344.624 562.501 324.084C616.673 298.389 644.139 235.232 670.124 178.484C712.888 85.144 772.185 -11.4104 865.819 -40.4819C912.456 -54.9569 963.42 -50.9136 1008.48 -70.18C1070.99 -96.8861 1112.57 -170.697 1105.32 -242.001" stroke="#0049FF" stroke-miterlimit="10"/>
<path d="M984.383 1658.42C929.072 1621.99 926.49 1532.71 958.929 1472.67C991.368 1412.63 1047.87 1372.94 1098.1 1328.93C1148.32 1284.92 1196.61 1228.39 1200.77 1159.25C1206.06 1070.89 1137.47 990.646 1146.25 902.582C1153.11 833.947 1205.74 782.031 1261.05 753.04C1292.33 736.645 1328.47 730.903 1360.84 717.358C1507.64 655.96 1638.15 755.082 1729.62 674.459C1828.66 587.163 1823.61 489.457 1805.32 441.321C1781.87 379.66 1703.37 243.057 1548.77 280.7C1485.96 295.984 1421.52 308.983 1357.23 304.738C1260.96 298.39 1167.34 217.705 1161.19 115.187C1156.98 44.9344 1191.2 -28.1486 1167.38 -93.8322C1151.38 -137.965 1110.84 -168.512 1067.6 -179.369C1024.36 -190.225 978.745 -183.695 936 -170.777" stroke="#0049FF" stroke-miterlimit="10"/>
<path d="M988.689 1658.18C933.492 1618.45 928.481 1527.58 961.034 1465.03C992.808 1403.97 1049.87 1363.28 1101.17 1320.2C1151.87 1277.62 1200.75 1224.01 1207.45 1157.29C1215.93 1072.02 1153.39 992.465 1162.59 904.867C1170.07 835.221 1218.91 781.606 1272.49 749.32C1303.28 730.782 1339.73 722.21 1373.19 707.654C1515.04 645.933 1642.61 740.102 1732.24 661.358C1828.6 576.63 1825.89 481.431 1808.69 432.971C1786.92 371.553 1710.96 240.348 1561.54 273.038C1499.95 286.522 1436 297.439 1372.34 292.911C1278.55 286.442 1187.73 209.356 1179.53 110.537C1173.85 42.1646 1204.92 -29.9277 1181.59 -94.9847C1165.71 -139.542 1126.76 -170.979 1084.79 -184.039C1042.44 -197.22 997.022 -194.026 953.707 -183.533" stroke="#0049FF" stroke-miterlimit="10"/>
<path d="M993.015 1657.93C937.913 1614.91 930.491 1522.46 963.158 1457.37C994.306 1395.32 1051.86 1353.59 1104.26 1311.44C1155.42 1270.28 1204.9 1219.6 1214.15 1155.29C1225.82 1073.13 1169.16 994.204 1178.94 907.091C1186.89 836.414 1232.1 781.02 1283.96 745.54C1314.27 724.798 1351 713.456 1385.54 697.869C1522.47 636.067 1647.07 725.04 1734.85 648.177C1828.55 566.017 1828.15 473.344 1812.09 424.541C1791.95 363.406 1718.53 237.497 1574.33 265.315C1513.9 276.98 1450.5 285.835 1387.46 281.024C1296.16 274.433 1208.11 200.905 1197.86 105.806C1190.7 39.2939 1218.64 -31.7876 1195.79 -96.2381C1180.02 -141.2 1142.62 -173.587 1101.97 -188.81C1060.47 -204.356 1015.3 -204.437 971.377 -196.391" stroke="#0049FF" stroke-miterlimit="10"/>
<path d="M997.333 1657.67C942.345 1611.38 932.532 1517.33 965.293 1449.7C995.834 1386.67 1053.86 1343.91 1107.35 1302.67C1158.96 1262.9 1209.05 1215.17 1220.84 1153.29C1235.72 1074.24 1185.02 995.963 1195.29 909.335C1203.79 837.627 1245.3 780.373 1295.43 741.78C1325.27 718.794 1362.28 704.743 1397.93 688.105C1530.02 626.404 1651.56 709.999 1737.5 635.016C1828.52 555.423 1830.43 465.278 1815.5 416.151C1796.99 355.299 1726.04 234.586 1587.13 257.613C1527.82 267.438 1465.03 274.069 1402.6 269.177C1313.81 262.202 1228.45 192.475 1216.22 101.116C1207.57 36.4637 1232.24 -33.5463 1210.02 -97.4509C1194.24 -142.797 1158.52 -176.174 1119.17 -193.54C1078.53 -211.472 1033.59 -214.828 989.096 -209.208" stroke="#0049FF" stroke-miterlimit="10"/>
<path d="M1001.65 1657.43C946.753 1607.84 934.567 1512.25 967.404 1442.06C997.338 1378.06 1055.8 1334.23 1110.43 1293.94C1162.45 1255.54 1213.19 1210.78 1227.54 1151.31C1245.61 1075.35 1200.91 997.722 1211.65 911.579C1220.73 838.84 1258.5 779.666 1306.9 737.999C1336.26 712.728 1373.56 696.05 1410.31 678.32C1537.62 616.902 1656.06 694.938 1740.14 621.835C1828.48 544.789 1832.72 457.211 1818.92 407.721C1802.02 347.172 1733.48 231.554 1599.97 249.89C1541.75 257.876 1479.59 262.424 1417.77 257.289C1331.46 250.133 1248.8 183.984 1234.6 96.3856C1224.43 33.5525 1245.97 -35.4063 1224.28 -98.7044C1208.6 -144.455 1174.45 -178.863 1136.41 -198.332C1096.61 -218.69 1051.91 -225.26 1006.83 -222.086" stroke="#0049FF" stroke-miterlimit="10"/>
<path d="M1005.96 1657.19C951.181 1604.3 936.623 1507.18 969.517 1434.42C998.881 1369.46 1057.74 1324.54 1113.51 1285.2C1165.95 1248.18 1217.43 1206.44 1234.23 1149.35C1255.62 1076.55 1216.8 999.521 1228 913.843C1237.64 840.073 1271.64 778.877 1318.37 734.259C1347.26 706.684 1384.86 687.397 1422.67 668.576C1545.25 607.602 1660.52 679.917 1742.79 608.694C1828.45 534.216 1834.98 449.185 1822.32 399.331C1807.04 339.086 1740.83 228.461 1612.77 242.208C1555.6 248.334 1494.1 250.8 1432.9 245.443C1349.08 238.104 1269.06 175.513 1252.96 91.7157C1241.23 30.6818 1259.68 -37.1853 1238.5 -99.8971C1222.92 -146.052 1190.32 -181.511 1153.61 -203.042C1114.65 -225.887 1070.21 -235.631 1024.54 -234.883" stroke="#0049FF" stroke-miterlimit="10"/>
<path d="M1010.29 1656.94C955.61 1600.78 938.736 1502.11 971.668 1426.76C1000.48 1360.85 1059.72 1314.82 1116.63 1276.45C1169.47 1240.81 1221.63 1202.05 1240.95 1147.34C1265.55 1077.68 1232.73 1001.28 1244.37 916.087C1254.58 841.306 1284.8 778.028 1329.86 730.499C1358.24 700.558 1396.16 678.744 1435.07 658.831C1552.96 598.464 1665.03 664.896 1745.45 595.553C1828.44 523.643 1837.25 441.159 1825.76 390.961C1812.06 331.039 1748.17 225.266 1625.61 234.525C1569.46 238.771 1508.64 239.196 1448.09 233.596C1366.78 226.075 1289.32 167.022 1271.36 87.0253C1258.05 27.7705 1273.43 -39.0049 1252.78 -101.09C1237.29 -147.649 1206.27 -184.221 1170.87 -207.753C1132.74 -233.104 1088.55 -245.982 1042.3 -247.68" stroke="#0049FF" stroke-miterlimit="10"/>
<path d="M1014.61 1656.7C960.038 1597.24 940.829 1497.05 973.78 1419.12C1002.04 1352.28 1061.63 1305.11 1119.69 1267.69C1172.93 1233.39 1225.77 1197.66 1247.62 1145.36C1275.43 1078.81 1248.63 1003.06 1260.7 918.331C1271.5 842.519 1297.86 777.118 1341.29 726.739C1369.16 694.412 1407.42 670.132 1447.42 649.067C1560.68 589.428 1669.48 649.855 1748.06 582.392C1828.39 513.049 1839.43 433.133 1829.13 382.551C1816.98 322.953 1753.66 205.252 1638.37 226.823C1583.97 236.992 1523.13 227.571 1463.19 221.729C1384.36 214.046 1309.42 158.491 1289.68 82.3149C1274.78 24.819 1287.12 -40.8242 1266.96 -102.323C1251.57 -149.306 1222.13 -187.01 1188.04 -212.503C1150.74 -240.402 1106.8 -256.394 1059.97 -260.518" stroke="#0049FF" stroke-miterlimit="10"/>
<path d="M1018.93 1656.46C964.476 1593.71 942.933 1492.02 975.903 1411.47C1003.65 1343.71 1063.56 1295.37 1122.78 1258.96C1176.4 1225.99 1229.93 1193.3 1254.32 1143.4C1285.33 1079.98 1264.55 1004.86 1277.06 920.616C1288.47 843.792 1310.94 776.208 1352.77 722.998C1380.11 688.246 1418.73 661.54 1459.79 639.322C1568.46 580.512 1673.95 634.834 1750.69 569.251C1828.35 502.476 1841.65 425.127 1832.54 374.181C1821.95 314.927 1761.1 200.359 1651.18 219.141C1597.61 228.299 1537.65 215.967 1478.33 209.902C1401.99 202.078 1329.5 149.98 1308.03 77.6649C1291.48 21.9076 1300.84 -42.6036 1281.2 -103.496C1265.9 -150.884 1238.05 -189.76 1205.25 -217.194C1168.81 -247.681 1125.11 -266.725 1077.68 -273.315" stroke="#0049FF" stroke-miterlimit="10"/>
<path d="M1023.23 1656.2C968.869 1590.17 945.048 1486.94 978.018 1403.79C1005.26 1335.1 1065.44 1285.59 1125.86 1250.19C1179.86 1218.55 1234.07 1188.89 1261.01 1141.38C1295.21 1081.09 1280.48 1006.62 1293.41 922.819C1305.4 844.965 1323.95 775.198 1364.25 719.198C1391.01 682.019 1430.03 652.928 1472.17 629.517C1576.3 571.657 1678.44 619.752 1753.34 556.05C1828.32 491.842 1843.86 417.081 1835.95 365.731C1826.87 306.82 1768.58 195.568 1663.98 211.398C1611.13 219.403 1552.18 204.322 1493.47 197.994C1419.61 190.029 1349.52 141.408 1326.4 72.914C1308.16 18.8953 1314.57 -44.4837 1295.42 -104.769C1280.24 -152.561 1253.98 -192.651 1222.48 -221.985C1186.91 -255.08 1143.42 -277.177 1095.4 -286.193" stroke="#0049FF" stroke-miterlimit="10"/>
<path d="M1027.57 1655.95C973.32 1586.63 947.221 1481.91 980.153 1396.15C1006.88 1326.54 1067.35 1275.84 1128.95 1241.45C1183.31 1211.11 1238.22 1184.5 1267.72 1139.42C1305.11 1082.25 1296.44 1008.42 1309.78 925.084C1322.4 846.219 1336.96 774.207 1375.72 715.458C1401.89 675.813 1441.36 644.417 1484.56 619.773C1584.19 562.964 1682.93 604.732 1756.01 542.909C1828.31 481.269 1846.07 409.096 1839.39 357.341C1831.82 298.794 1776.18 190.999 1676.82 203.715C1624.58 210.387 1566.73 192.738 1508.64 186.147C1437.28 178.04 1369.49 132.877 1344.78 68.2239C1324.79 15.9236 1328.34 -46.303 1309.67 -105.982C1294.59 -154.199 1269.96 -195.501 1239.7 -226.716C1205.04 -262.459 1161.73 -287.568 1113.13 -299.01" stroke="#0049FF" stroke-miterlimit="10"/>
<path d="M1031.87 1655.71C977.721 1583.09 949.363 1476.9 982.257 1388.51C1008.51 1317.99 1069.23 1266.06 1132.02 1232.72C1186.74 1203.67 1242.34 1180.14 1274.4 1137.44C1314.98 1083.38 1312.38 1010.2 1326.1 927.348C1339.33 847.452 1349.86 773.196 1387.16 711.718C1412.71 669.607 1452.67 635.926 1496.89 610.049C1592.06 554.372 1687.37 589.731 1758.6 529.789C1828.23 470.716 1848.21 401.13 1842.77 348.992C1836.69 290.809 1783.64 206.667 1689.59 196.053C1637.92 190.211 1581.23 181.174 1523.75 174.321C1454.87 166.093 1389.31 124.386 1363.11 63.5742C1341.34 13.0125 1342.04 -48.082 1323.88 -107.135C1308.9 -155.755 1285.92 -198.332 1256.9 -231.386C1223.15 -269.817 1180.02 -297.878 1130.82 -311.767" stroke="#0049FF" stroke-miterlimit="10"/>
<path d="M1036.2 1655.47C982.164 1579.58 951.566 1471.88 984.404 1380.87C1010.18 1309.44 1071.13 1256.27 1135.13 1223.97C1190.2 1196.19 1246.51 1175.75 1281.12 1135.46C1324.87 1084.51 1328.36 1011.97 1342.48 929.592C1356.34 848.685 1362.81 772.145 1398.67 707.937C1423.57 663.34 1464.06 627.415 1509.31 600.264C1600.06 545.8 1692 574.831 1761.28 516.608C1828.34 460.244 1850.4 393.104 1846.2 340.562C1841.59 282.722 1790.66 202.321 1702.42 188.331C1651.57 180.264 1595.77 169.57 1538.94 162.433C1472.54 154.104 1409.13 115.854 1381.51 58.8436C1357.88 10.0407 1355.83 -49.9418 1338.14 -108.388C1323.29 -157.433 1301.96 -201.263 1274.13 -236.157C1241.35 -277.277 1198.34 -308.31 1148.57 -324.625" stroke="#0049FF" stroke-miterlimit="10"/>
<path d="M1040.51 1655.23C986.561 1576.04 953.743 1466.87 986.504 1373.2C1011.81 1300.87 1072.98 1246.43 1138.2 1215.21C1193.61 1188.69 1250.63 1171.34 1287.79 1133.46C1334.73 1085.62 1344.32 1013.75 1358.82 931.836C1373.32 849.918 1375.67 771.094 1410.12 704.177C1434.36 657.092 1475.42 618.984 1521.68 590.499C1608.06 537.309 1696.49 559.79 1763.91 503.467C1828.3 449.67 1852.52 385.119 1849.61 332.171C1846.44 274.696 1797.64 197.772 1715.23 180.628C1665.19 170.216 1610.28 157.985 1554.08 150.566C1490.17 142.136 1428.8 107.383 1399.87 54.1328C1374.31 7.08883 1369.6 -51.7819 1352.38 -109.622C1337.65 -159.091 1318.01 -204.174 1291.36 -240.908C1259.57 -284.738 1216.65 -318.701 1166.29 -337.462" stroke="#0049FF" stroke-miterlimit="10"/>
<path d="M1044.84 1654.98C991.013 1572.5 955.974 1461.85 988.64 1365.56C1013.49 1292.34 1074.87 1236.6 1141.29 1206.48C1197.03 1181.19 1254.76 1166.95 1294.48 1131.49C1344.59 1086.78 1360.29 1015.55 1375.17 934.1C1390.32 851.172 1388.52 770.083 1421.58 700.437C1445.12 650.866 1486.82 610.615 1534.02 580.755C1616.06 528.899 1700.94 544.769 1766.52 490.326C1828.23 439.097 1854.62 377.133 1852.98 323.802C1851.24 266.69 1804.62 193.021 1728.01 172.966C1678.79 160.088 1624.77 146.462 1569.2 138.76C1507.77 130.248 1448.4 99.0139 1418.22 49.4832C1390.66 4.25875 1383.33 -53.5809 1366.59 -110.794C1352 -160.668 1334.04 -207.045 1308.55 -245.598C1277.76 -292.157 1234.92 -329.052 1183.99 -350.239" stroke="#0049FF" stroke-miterlimit="10"/>
<path d="M1049.15 1654.72C995.433 1568.94 958.173 1456.82 990.764 1357.9C1015.17 1283.77 1076.73 1226.74 1144.38 1197.72C1200.47 1173.67 1258.89 1162.55 1301.2 1129.49C1354.48 1087.87 1376.29 1017.33 1391.53 936.324C1407.32 852.364 1401.34 769.011 1433.06 696.656C1455.9 644.599 1498.26 602.245 1546.42 570.97C1624.15 520.509 1705.44 529.708 1769.2 477.145C1828.23 428.483 1856.74 369.107 1856.44 315.372C1856.11 258.603 1811.74 187.967 1740.86 165.243C1692.5 149.737 1639.35 134.878 1584.38 126.872C1525.44 118.28 1467.97 90.6441 1436.61 44.7727C1406.98 1.42832 1397.13 -55.4207 1380.84 -112.027C1366.38 -162.326 1350.13 -209.997 1325.78 -250.349C1296.04 -299.637 1253.25 -339.443 1201.72 -363.077" stroke="#0049FF" stroke-miterlimit="10"/>
<path d="M1053.48 1654.48C999.858 1565.42 960.434 1451.83 992.892 1350.24C1016.87 1275.21 1078.61 1216.83 1147.47 1188.97C1203.89 1166.13 1263.03 1158.14 1307.9 1127.51C1364.35 1088.98 1392.29 1019.13 1407.9 938.588C1424.35 853.638 1414.14 767.98 1444.55 692.896C1466.64 638.352 1509.75 593.956 1558.81 561.225C1632.27 512.22 1709.92 514.667 1771.86 464.004C1828.21 417.89 1858.85 361.101 1859.85 306.982C1860.92 250.557 1818.91 182.731 1753.67 157.541C1706.24 139.224 1653.87 123.334 1599.53 115.005C1543.06 106.352 1487.45 82.3552 1454.99 40.0621C1423.19 -1.32124 1410.89 -57.2605 1395.06 -113.24C1380.73 -163.964 1366.23 -212.908 1342.98 -255.08C1314.32 -307.097 1271.53 -349.835 1219.43 -375.894" stroke="#0049FF" stroke-miterlimit="10"/>
<path d="M1057.81 1654.24C1004.3 1561.89 962.697 1446.83 995.022 1342.6C1018.58 1266.68 1080.48 1206.94 1150.57 1180.22C1207.33 1158.58 1267.12 1153.61 1314.61 1125.51C1374.17 1089.95 1408.3 1020.91 1424.26 940.812C1441.38 854.851 1426.92 766.929 1456.02 689.116C1477.35 632.064 1521.25 585.708 1571.18 551.441C1640.42 503.911 1714.29 499.484 1774.48 450.823C1828.07 407.155 1860.88 353.076 1863.26 298.572C1865.69 242.491 1826.21 177.272 1766.47 149.838C1720.08 128.53 1668.38 111.811 1614.66 103.138C1560.68 94.4246 1506.85 74.1676 1473.33 35.3518C1439.35 -3.96948 1424.68 -59.1203 1409.3 -114.473C1395.11 -165.621 1382.35 -215.839 1360.2 -259.831C1332.64 -314.577 1289.84 -360.226 1237.15 -388.731" stroke="#0049FF" stroke-miterlimit="10"/>
<path d="M1062.11 1653.99C1008.7 1558.35 964.946 1441.84 997.138 1334.95C1020.28 1258.13 1082.33 1197.04 1153.64 1171.48C1210.71 1151.02 1271.24 1149.22 1321.28 1123.55C1384.03 1091.1 1424.29 1022.73 1440.59 943.096C1458.4 856.125 1439.66 765.939 1467.47 685.396C1488.03 625.858 1532.8 577.601 1583.54 541.717C1648.59 495.724 1718.76 484.483 1777.11 437.702C1828.02 396.602 1862.9 345.09 1866.64 290.202C1870.44 234.465 1833.66 171.692 1779.26 142.156C1734.08 117.633 1682.85 100.308 1629.8 91.2911C1578.28 82.5373 1526.24 66.1012 1491.69 30.6818C1455.46 -6.47632 1438.45 -60.9398 1423.55 -115.666C1409.5 -167.239 1398.51 -218.71 1377.42 -264.541C1351 -322.017 1308.16 -370.597 1254.88 -401.529" stroke="#0049FF" stroke-miterlimit="10"/>
<path d="M1066.43 1653.75C1013.13 1554.83 967.238 1436.85 999.259 1327.31C1021.98 1249.6 1084.18 1187.11 1156.73 1162.75C1214.14 1143.46 1275.4 1144.86 1327.97 1121.57C1393.91 1092.21 1440.44 1024.55 1456.93 945.34C1475.59 857.419 1452.38 764.907 1478.93 681.635C1498.71 619.631 1544.42 569.534 1595.91 531.952C1656.8 487.516 1723.24 469.442 1779.74 424.541C1827.97 386.008 1864.93 337.044 1870.06 281.812C1875.2 226.398 1841.38 165.971 1792.06 134.474C1748.31 106.494 1697.37 88.8043 1644.94 79.4238C1595.91 70.6498 1545.61 58.1155 1510.04 25.9712C1471.49 -8.86199 1452.32 -62.82 1437.76 -116.899C1423.94 -168.937 1414.64 -221.621 1394.64 -269.292C1369.35 -329.477 1326.46 -380.989 1272.59 -414.366" stroke="#0049FF" stroke-miterlimit="10"/>
<path d="M1070.75 1653.51C1017.54 1551.29 969.671 1431.89 1001.37 1319.65C1023.79 1241.09 1086.01 1177.14 1159.81 1154C1217.55 1135.88 1279.54 1140.45 1334.68 1119.59C1403.81 1093.35 1456.39 1026.35 1473.3 947.584C1492.58 858.631 1465.1 763.896 1490.4 677.855C1509.36 613.364 1556.13 561.549 1608.27 522.187C1665.06 479.328 1727.72 454.401 1782.37 411.38C1827.94 375.415 1866.91 328.997 1873.44 273.402C1879.91 218.312 1849.35 160.189 1804.84 126.751C1762.78 95.1522 1711.83 77.3414 1660.05 67.5768C1613.49 58.8028 1564.98 50.2715 1528.38 21.2809C1487.5 -11.0859 1466.05 -64.6396 1451.96 -118.112C1438.26 -170.554 1430.78 -224.512 1411.82 -274.023C1387.71 -336.917 1344.72 -391.38 1290.26 -427.184" stroke="#0049FF" stroke-miterlimit="10"/>
<path d="M1075.07 1653.24C1021.98 1547.73 971.831 1426.84 1003.51 1311.99C1025.43 1232.5 1087.88 1167.16 1162.9 1145.22C1220.98 1128.24 1283.69 1136.02 1341.37 1117.57C1413.69 1094.44 1472.34 1028.09 1489.66 949.808C1509.55 859.845 1477.81 762.866 1501.88 674.074C1520.03 607.117 1567.93 553.664 1620.66 512.402C1673.39 471.14 1732.21 439.34 1785.04 398.199C1827.94 364.801 1868.94 320.931 1876.89 264.972C1884.67 210.185 1857.72 154.427 1817.69 119.028C1777.67 83.629 1726.37 65.8586 1675.23 55.6896C1631.14 46.9156 1584.45 42.5084 1546.77 16.5706C1503.57 -13.1882 1479.8 -66.4791 1466.23 -119.325C1452.66 -172.192 1447 -227.403 1429.07 -278.753C1406.16 -344.356 1363.07 -401.751 1308.02 -440.001" stroke="#0049FF" stroke-miterlimit="10"/>
</g>
</svg>
