<svg width="616" height="500" viewBox="0 0 616 500" fill="none" xmlns="http://www.w3.org/2000/svg">
<g clip-path="url(#clip0_569_4068)">
<rect width="616" height="500" fill="white"/>
<mask id="mask0_569_4068" style="mask-type:luminance" maskUnits="userSpaceOnUse" x="-134" y="0" width="750" height="500">
<path d="M616 0H-134V500H616V0Z" fill="white"/>
</mask>
<g mask="url(#mask0_569_4068)">
<path opacity="0.05" d="M616 0H291.19C279.85 24.63 281.39 51.2 301.12 73.32C343.42 120.75 450.53 134.63 475.96 187.14C491.57 219.38 467.08 256.22 426.15 276.31C385.23 296.4 331.48 301.83 280.89 298.67C230.29 295.51 181.65 284.55 133.11 274.52C84.57 264.48 34.78 255.22 -16.03 255.64C-57.01 255.97 -97.58 263.07 -134 275.57V500H616V0Z" fill="#0049FF"/>
</g>
<mask id="mask1_569_4068" style="mask-type:luminance" maskUnits="userSpaceOnUse" x="-134" y="0" width="750" height="500">
<path d="M616 0H-134V500H616V0Z" fill="white"/>
</mask>
<g mask="url(#mask1_569_4068)">
<path d="M634.56 380.35C613.01 380.35 593.79 390.32 581.25 405.9C565.34 393.12 545.14 385.47 523.15 385.47C471.87 385.47 430.31 427.04 430.31 478.31C430.31 479.33 430.33 480.34 430.36 481.34C421.24 472.04 408.56 466.25 394.5 466.25C393.85 466.25 393.2 466.27 392.55 466.3C384.66 431.42 353.5 405.36 316.23 405.36C312.09 405.36 308.03 405.69 304.07 406.31C291.75 373.6 298.73 335.28 325.06 308.95L330.06 303.95L296.9 270.79L291.9 275.79C258.05 309.64 204.35 311.53 168.26 281.48C155.13 243.12 118.77 215.55 75.9597 215.55C61.9197 215.55 48.5697 218.53 36.5097 223.87C18.0897 211.69 -3.9803 204.6 -27.7203 204.6C-55.3203 204.6 -80.6803 214.19 -100.65 230.22C-113.32 222.29 -128.29 217.68 -144.35 217.68C-189.9 217.68 -226.82 254.6 -226.82 300.15C-226.82 333.62 -206.87 362.41 -178.23 375.33C-198.77 398.07 -211.28 428.21 -211.28 461.27C-211.28 532.11 -153.85 589.53 -83.0203 589.53C-25.6803 589.53 22.8697 551.9 39.2897 499.99H432.85C442.62 540.8 479.33 571.15 523.14 571.15C562.37 571.15 595.91 546.82 609.51 512.43C617.27 515.48 625.71 517.18 634.55 517.18C672.34 517.18 702.97 486.55 702.97 448.76C702.97 410.97 672.35 380.35 634.56 380.35Z" fill="#E6EDFF"/>
</g>
<mask id="mask2_569_4068" style="mask-type:luminance" maskUnits="userSpaceOnUse" x="-134" y="0" width="750" height="500">
<path d="M616 0H-134V500H616V0Z" fill="white"/>
</mask>
<g mask="url(#mask2_569_4068)">
<path d="M304.36 324.17C306.83 320.25 309.62 315.21 307.83 310.94C306.05 306.67 301.27 303.95 296.64 304.1C296.79 299.47 294.07 294.7 289.8 292.91C285.53 291.13 280.49 293.92 276.57 296.38C272.47 298.96 269.3 302.97 267.72 307.55C268.59 306.85 269.66 306.4 270.78 306.26C267.46 310.45 264.93 315.26 263.35 320.36C264.37 319.6 265.38 318.84 266.4 318.07C262.58 323.58 261.46 330.88 263.46 337.29C269.86 339.29 277.16 338.18 282.68 334.35C281.92 335.37 281.16 336.38 280.39 337.4C285.49 335.82 290.3 333.28 294.49 329.97C294.35 331.08 293.9 332.15 293.2 333.03C297.77 331.45 301.78 328.27 304.36 324.17Z" fill="#E0E0E0"/>
<path d="M299.123 316.47C300.443 314.37 301.933 311.68 300.983 309.39C300.033 307.1 297.473 305.65 295.003 305.73C295.083 303.25 293.633 300.7 291.343 299.75C289.053 298.8 286.363 300.29 284.263 301.61C282.073 302.99 280.373 305.14 279.533 307.58C280.003 307.21 280.573 306.96 281.163 306.89C279.393 309.13 278.033 311.7 277.183 314.43C277.723 314.02 278.273 313.62 278.813 313.21C276.763 316.16 276.173 320.06 277.243 323.49C280.663 324.56 284.573 323.96 287.523 321.92C287.113 322.46 286.703 323.01 286.303 323.55C289.033 322.7 291.603 321.35 293.843 319.57C293.763 320.16 293.523 320.74 293.153 321.2C295.603 320.36 297.743 318.66 299.123 316.47Z" fill="#E0E0E0"/>
<path d="M438.277 161.983L394.5 205.76L395.207 206.467L438.984 162.69L438.277 161.983Z" fill="#F2F6FF"/>
<path d="M325.649 240.93L261.169 240.53L254.039 264.76L293.569 284.73L325.649 240.93Z" fill="#0049FF"/>
<path d="M261.386 252.52C256.656 263.93 251.346 272.57 249.536 271.81C247.716 271.06 250.076 261.2 254.806 249.79C259.536 238.38 264.846 229.74 266.656 230.5C268.476 231.25 266.116 241.11 261.386 252.52Z" fill="#0049FF"/>
<path opacity="0.2" d="M261.386 252.52C256.656 263.93 251.346 272.57 249.536 271.81C247.716 271.06 250.076 261.2 254.806 249.79C259.536 238.38 264.846 229.74 266.656 230.5C268.476 231.25 266.116 241.11 261.386 252.52Z" fill="#161616"/>
<path d="M360.044 275.33L360.444 339.81L336.214 346.94L316.234 307.41L360.044 275.33Z" fill="#0049FF"/>
<path d="M351.171 346.182C362.579 341.455 371.215 336.146 370.46 334.324C369.705 332.503 359.845 334.859 348.437 339.586C337.029 344.313 328.393 349.622 329.148 351.443C329.903 353.265 339.763 350.909 351.171 346.182Z" fill="#0049FF"/>
<path opacity="0.2" d="M351.171 346.182C362.579 341.455 371.215 336.146 370.46 334.324C369.705 332.503 359.845 334.859 348.437 339.586C337.029 344.313 328.393 349.622 329.148 351.443C329.903 353.265 339.763 350.909 351.171 346.182Z" fill="#161616"/>
<path opacity="0.2" d="M325.648 240.93L302.758 240.79C291.938 252.07 282.508 263.69 274.648 275.17L293.568 284.73L325.648 240.93Z" fill="#161616"/>
<path opacity="0.2" d="M316.234 307.41L325.114 324.98C336.834 316.93 348.694 307.25 360.164 296.13L360.034 275.34L316.234 307.41Z" fill="#161616"/>
<path d="M380.154 220.81C362.514 217.72 333.044 232.12 307.104 258.06C295.484 269.68 286.194 282 279.734 293.66C283.844 298.56 288.244 303.37 292.924 308.05C297.604 312.73 302.414 317.12 307.314 321.24C318.974 314.79 331.294 305.49 342.914 293.87C368.844 267.93 383.254 238.46 380.154 220.81Z" fill="#4D4D4D"/>
<path d="M410.077 190.9C387.397 186.92 349.507 205.44 316.157 238.79C301.217 253.73 289.267 269.57 280.977 284.56C286.267 290.86 291.917 297.04 297.927 303.05C303.947 309.07 310.127 314.71 316.427 320C331.407 311.7 347.257 299.75 362.187 284.82C395.537 251.47 414.057 213.58 410.077 190.9Z" fill="#F2F6FF"/>
<path opacity="0.1" d="M287.883 292.46C291.113 296.04 294.453 299.57 297.923 303.05C301.403 306.53 304.933 309.86 308.513 313.09C319.213 304.02 330.503 293.63 341.883 282.24C379.393 244.73 406.253 208.12 410.073 190.89C392.843 194.7 356.243 221.56 318.723 259.08C307.343 270.47 296.953 281.76 287.883 292.46Z" fill="#161616"/>
<path d="M306.575 299.63C297.195 309.01 288.415 315.45 286.975 314.01C285.535 312.57 291.965 303.79 301.355 294.41C310.735 285.03 319.515 278.59 320.955 280.03C322.395 281.47 315.955 290.25 306.575 299.63Z" fill="#0049FF"/>
<path d="M362.453 257.34C372.847 257.34 381.273 248.914 381.273 238.52C381.273 228.126 372.847 219.7 362.453 219.7C352.059 219.7 343.633 228.126 343.633 238.52C343.633 248.914 352.059 257.34 362.453 257.34Z" fill="#0049FF"/>
<path opacity="0.2" d="M362.452 253.91C370.952 253.91 377.842 247.02 377.842 238.52C377.842 230.02 370.952 223.13 362.452 223.13C353.953 223.13 347.062 230.02 347.062 238.52C347.062 247.02 353.953 253.91 362.452 253.91Z" fill="#161616"/>
<path d="M362.451 251.83C369.802 251.83 375.761 245.871 375.761 238.52C375.761 231.169 369.802 225.21 362.451 225.21C355.1 225.21 349.141 231.169 349.141 238.52C349.141 245.871 355.1 251.83 362.451 251.83Z" fill="#94DDFF"/>
<path opacity="0.1" d="M375.745 238.11C375.125 239.35 374.305 240.51 373.275 241.54C368.075 246.74 359.655 246.74 354.455 241.54C351.965 239.05 350.675 235.81 350.575 232.54C348.065 237.53 348.885 243.77 353.045 247.93C358.245 253.13 366.665 253.13 371.865 247.93C374.565 245.23 375.845 241.65 375.745 238.11Z" fill="#161616"/>
<path d="M369.883 234.86C371.325 234.86 372.493 233.691 372.493 232.25C372.493 230.808 371.325 229.64 369.883 229.64C368.442 229.64 367.273 230.808 367.273 232.25C367.273 233.691 368.442 234.86 369.883 234.86Z" fill="#F2F6FF"/>
<path d="M366.474 229.97C367.098 229.97 367.604 229.464 367.604 228.84C367.604 228.216 367.098 227.71 366.474 227.71C365.85 227.71 365.344 228.216 365.344 228.84C365.344 229.464 365.85 229.97 366.474 229.97Z" fill="#F2F6FF"/>
</g>
<mask id="mask3_569_4068" style="mask-type:luminance" maskUnits="userSpaceOnUse" x="-134" y="0" width="750" height="500">
<path d="M616 0H-134V500H616V0Z" fill="white"/>
</mask>
<g mask="url(#mask3_569_4068)">
<path opacity="0.5" d="M218.811 32.6701C236.854 32.6701 251.481 18.0432 251.481 7.62939e-05C251.481 -18.0431 236.854 -32.6699 218.811 -32.6699C200.767 -32.6699 186.141 -18.0431 186.141 7.62939e-05C186.141 18.0432 200.767 32.6701 218.811 32.6701Z" fill="#0049FF"/>
</g>
<mask id="mask4_569_4068" style="mask-type:luminance" maskUnits="userSpaceOnUse" x="-134" y="0" width="750" height="500">
<path d="M616 0H-134V500H616V0Z" fill="white"/>
</mask>
<g mask="url(#mask4_569_4068)">
<path opacity="0.5" d="M616.001 358.23C651.055 358.23 679.471 329.814 679.471 294.76C679.471 259.707 651.055 231.29 616.001 231.29C580.948 231.29 552.531 259.707 552.531 294.76C552.531 329.814 580.948 358.23 616.001 358.23Z" fill="#0049FF"/>
</g>
<mask id="mask5_569_4068" style="mask-type:luminance" maskUnits="userSpaceOnUse" x="-134" y="0" width="750" height="500">
<path d="M616 0H-134V500H616V0Z" fill="white"/>
</mask>
<g mask="url(#mask5_569_4068)">
<path opacity="0.5" d="M204.034 224.78C208.971 224.78 212.974 220.777 212.974 215.84C212.974 210.902 208.971 206.9 204.034 206.9C199.096 206.9 195.094 210.902 195.094 215.84C195.094 220.777 199.096 224.78 204.034 224.78Z" fill="#0049FF"/>
</g>
<mask id="mask6_569_4068" style="mask-type:luminance" maskUnits="userSpaceOnUse" x="-134" y="0" width="750" height="500">
<path d="M616 0H-134V500H616V0Z" fill="white"/>
</mask>
<g mask="url(#mask6_569_4068)">
<path d="M381.071 500C367.811 470.54 338.211 450.02 303.811 450.02C276.681 450.02 252.551 462.79 237.041 482.63C230.501 470.99 220.421 461.62 208.251 455.96C210.181 447.12 211.201 437.93 211.201 428.51C211.201 357.62 153.741 300.16 82.8513 300.16C77.3213 300.16 71.8712 300.52 66.5312 301.2C38.1512 274.04 -0.328735 257.35 -42.7087 257.35C-129.979 257.35 -200.719 328.1 -200.719 415.36C-200.719 502.62 -129.969 573.37 -42.7087 573.37C13.4213 573.37 62.7013 544.1 90.7413 500H381.071Z" fill="#D5E1FF"/>
</g>
</g>
<defs>
<clipPath id="clip0_569_4068">
<rect width="616" height="500" fill="white"/>
</clipPath>
</defs>
</svg>
