<svg width="101" height="100" viewBox="0 0 101 100" fill="none" xmlns="http://www.w3.org/2000/svg">
<g clip-path="url(#clip0_594_4475)">
<rect width="100" height="100" transform="translate(0.5)" fill="white"/>
<path d="M100.5 50C100.5 77.6154 78.1154 100 50.5 100C22.8846 100 0.5 77.6154 0.5 50C0.5 22.3846 22.8846 0 50.5 0C78.1154 0 100.5 22.3846 100.5 50Z" fill="#B2C1E5"/>
<path d="M74.1357 65.4998C74.1357 64.9921 74.3203 64.5306 74.6203 64.1537C75.0511 62.4075 75.528 60.2614 76.0357 57.5845C76.0126 57.4614 75.9972 57.3383 75.9972 57.2075C75.9972 56.8075 76.1203 56.4383 76.3126 56.1152C76.7818 53.4922 77.0742 51.3152 77.228 49.5383C76.9126 49.1537 76.7126 48.6845 76.7126 48.1614C76.7126 47.5537 76.9665 47.0075 77.3819 46.6075C77.428 42.546 76.6126 41.5998 76.6126 41.5998C73.3049 39.8306 64.9357 41.9537 61.2588 41.2537C60.0203 41.0152 57.2357 40.4845 56.6511 39.3845C55.5049 37.2537 57.8049 32.2998 57.5665 29.8845C57.3819 27.9537 55.9126 24.1691 54.628 22.7229C53.9588 21.9691 53.128 20.7306 52.128 20.746C51.8819 20.746 51.5588 20.8614 51.228 21.0306C50.6896 21.3075 50.1357 21.7229 49.9434 22.0614C48.8511 23.9383 50.3357 28.6691 49.7126 30.7537C48.8049 33.7383 45.3049 39.1075 43.0819 41.2922C42.2434 42.1229 39.3203 43.7383 39.3203 43.7383V70.3614C39.3203 70.3614 41.9742 70.0921 42.9049 70.3614C49.2742 72.1614 66.2895 73.5383 72.3895 70.9537C72.3895 70.9537 73.0896 69.8998 74.1819 65.8768C74.1511 65.746 74.1357 65.6306 74.1357 65.4998Z" fill="#EFC498"/>
<path d="M78.1095 43.9306C78.3864 45.7922 77.1095 47.5229 75.2479 47.7999L64.571 49.3383C62.7095 49.6153 60.9787 48.3383 60.7018 46.4768C60.4249 44.6153 61.7018 42.8845 63.5633 42.6076L74.2403 41.0691C76.0941 40.7922 77.8326 42.0691 78.1095 43.9306Z" fill="#FFD3A6"/>
<path d="M78.6386 52.3384C78.7617 54.323 77.254 56.023 75.2771 56.1538L63.8694 56.5845C61.8848 56.7076 60.1848 55.1999 60.0617 53.223C59.9386 51.2384 61.4463 49.5384 63.4233 49.4153L74.8309 48.9845C76.8156 48.8461 78.5156 50.3538 78.6386 52.3384Z" fill="#FFD3A6"/>
<path d="M78.1325 60.9384C78.0864 62.8691 76.4787 64.3999 74.5402 64.3537L63.4633 63.5845C61.5325 63.5384 60.0017 61.9307 60.0479 59.9999C60.094 58.0691 61.7017 56.5384 63.6325 56.5845L74.7094 57.3537C76.6556 57.3999 78.1864 59.0076 78.1325 60.9384Z" fill="#FFD3A6"/>
<path d="M75.2104 68.1001C75.0873 69.8001 73.6104 71.077 71.9104 70.9539L62.495 69.6616C60.795 69.5385 59.5258 68.0616 59.6489 66.3693C59.7719 64.6693 61.2489 63.4001 62.9412 63.5231L72.3566 64.8155C74.0566 64.9308 75.3335 66.4078 75.2104 68.1001Z" fill="#FFD3A6"/>
<path d="M56.6433 39.3845C55.4971 37.2537 57.7971 32.2998 57.5587 29.8845C57.374 27.9537 55.9048 24.1691 54.6202 22.7229C53.951 21.9691 53.1202 20.7306 52.1202 20.746C51.874 20.746 51.551 20.8614 51.2202 21.0306C50.6817 21.3075 50.1279 21.7229 49.9356 22.0614C48.8433 23.9383 50.3279 28.6691 49.7048 30.7537C48.7971 33.7383 45.2971 39.1075 43.074 41.2922C42.2356 42.1229 39.3125 43.7383 39.3125 43.7383V59.9614C41.1356 60.9768 43.151 61.5537 45.2894 61.5537C53.2433 61.5537 59.0125 54.0075 59.0125 44.3383C59.0048 43.3537 57.0356 40.1306 56.6433 39.3845Z" fill="#FFD3A6"/>
<path d="M41.1383 42.646H38.4922V70.6922H41.1383V42.646Z" fill="white"/>
<path d="M0.5 49.9998C0.5 57.7767 2.27693 65.1382 5.44616 71.7075H39.4V42.3767H1.07692C0.692308 44.8613 0.5 47.4075 0.5 49.9998Z" fill="#2C5871"/>
</g>
<defs>
<clipPath id="clip0_594_4475">
<rect width="100" height="100" fill="white" transform="translate(0.5)"/>
</clipPath>
</defs>
</svg>
