<svg width="100" height="100" viewBox="0 0 100 100" fill="none" xmlns="http://www.w3.org/2000/svg">
<g clip-path="url(#clip0_594_4447)">
<rect width="100" height="100" fill="white"/>
<path d="M100 50C100 77.6154 77.6154 100 50 100C22.3846 100 0 77.6154 0 50C0 22.3846 22.3846 0 50 0C77.6077 0 100 22.3846 100 50Z" fill="#B2C1E5"/>
<path d="M42.6176 67.1232C42.6176 67.1232 42.8483 65.9002 43.0483 65.3617L46.6099 55.6232C46.0253 55.6079 45.433 55.7617 44.956 56.1155L34.8407 63.5848C34.1791 63.8694 33.7253 64.4002 33.5407 65.0232C33.3022 65.6771 33.3791 66.4232 33.7868 67.0694L36.1868 75.354L38.2714 83.9155L46.6022 76.954C44.9791 76.3232 42.2637 71.3771 42.6176 67.1232Z" fill="#FB9C1C"/>
<path d="M38.1874 59.254C38.1874 60.7694 39.4105 61.9925 40.9259 61.9925H61.4874C63.0028 61.9925 64.2259 60.7617 64.2259 59.2463V23.5925C64.2259 22.0771 62.9951 20.854 61.4797 20.854H40.9182C39.4028 20.854 38.172 22.0771 38.1797 23.5925V59.254H38.1874Z" fill="#E54217"/>
<path d="M59.2679 20.8542H54.9141V61.9927H59.2679V20.8542Z" fill="#414042"/>
<path d="M52.878 42.108H52.0703V59.8696H52.878V42.108Z" fill="white"/>
<path d="M50.2843 42.108H49.4766V59.8696H50.2843V42.108Z" fill="white"/>
<path d="M48.0968 42.108H47.2891V59.8696H48.0968V42.108Z" fill="white"/>
<path d="M52.8799 24.0619H43.6953V33.3465H52.8799V24.0619Z" fill="#FBFFF9"/>
<path d="M57.5455 63.2157L57.2917 56.1003C57.507 53.8542 56.1301 51.8388 54.207 51.5772C52.2916 51.3157 50.5532 52.9388 50.3301 55.1772L50.9532 62.8695C50.3147 63.8465 47.8686 70.3926 45.4609 70.308C43.7301 70.2542 39.4763 65.4234 38.3455 60.0772C38.3455 60.0772 38.1455 58.4849 38.1455 57.7311V44.2465C37.5917 44.4926 37.084 44.9388 36.7609 45.5849L29.8301 59.2311C29.307 59.8695 29.0609 60.7234 29.107 61.5695C29.107 62.4695 29.4378 63.3465 30.0378 63.9618L34.7224 81.5311L39.6224 91.0618H55.1301C55.1301 91.0695 59.7763 70.4465 57.5455 63.2157Z" fill="#FFD3A6"/>
<path d="M56.1787 99.6001V90.4232H39.1172V98.7925C42.6172 99.5694 46.2556 99.9925 49.9941 99.9925C52.0941 100 54.1556 99.854 56.1787 99.6001Z" fill="white"/>
</g>
<defs>
<clipPath id="clip0_594_4447">
<rect width="100" height="100" fill="white"/>
</clipPath>
</defs>
</svg>
