<svg width="101" height="100" viewBox="0 0 101 100" fill="none" xmlns="http://www.w3.org/2000/svg">
<rect x="0.5" width="100" height="100" rx="50" fill="#B2C1E5"/>
<path d="M8 99.8599L35.3955 52.7979L62.2714 99.8599H8Z" fill="#0B929F"/>
<path opacity="0.2" d="M38.8232 58.8123L41.7849 73.7895L38.8232 79.3362L37.2645 84.4281L32.2374 91.1439L29.1199 96.1839L23.7031 99.86H62.2698L38.8232 58.8123Z" fill="black"/>
<path d="M63.1009 26H61.75V44.3416H63.1009V26Z" fill="#424B4E"/>
<path d="M77.9633 33.7158H66.9609V27.5327H77.9633L75.8979 30.6373L77.9633 33.7158Z" fill="#C92E09"/>
<path d="M72.2738 26L66.9609 27.5328V33.7159L72.2738 32.1831V26Z" fill="#A82707"/>
<path d="M72.2717 26H61.75V32.1831H72.2717V26Z" fill="#FD3A0B"/>
<path d="M40.4243 61.6309L37.5536 65.4369L33.0851 60.0851L29.4609 62.9949L35.3973 52.7979L40.4243 61.6309Z" fill="#F0F0F0"/>
<path d="M33.9766 99.8599L62.4372 42.1592L94.7169 99.8599H33.9766Z" fill="#0B929F"/>
<path opacity="0.2" d="M62.4922 42.2244L64.3497 59.8255L68.0258 64.8266L69.5067 72.2568L71.1044 79.661L73.8453 84.4152L76.8199 86.8183V93.4561L80.0154 99.8601H94.7199L62.4922 42.2244Z" fill="black"/>
<path d="M68.0216 52.1224L64.3455 58.3185L60.7604 55.0191L57.2921 63.4365L54.1875 58.8771L62.449 42.1592L68.0216 52.1224Z" fill="#F0F0F0"/>
<path opacity="0.2" d="M62.9711 82.934C62.2826 81.9078 61.5422 80.9466 60.8018 79.9854L60.4901 79.5827L60.0874 80.0373C59.5808 80.6218 59.0742 81.2064 58.5676 81.8039C58.3078 81.4402 58.061 81.0765 57.8012 80.7128C57.3725 80.1283 56.9438 79.5177 56.5022 78.9462C55.6059 77.7771 54.7356 76.608 53.8003 75.4779L53.0469 74.5686L52.3584 75.4909C51.0984 77.1925 49.8774 78.9462 48.7083 80.7258C48.1238 81.6091 47.5522 82.5184 47.0066 83.4277C46.4611 84.3499 45.9155 85.2722 45.4219 86.2205C46.2013 85.48 46.9417 84.7007 47.6691 83.9213C48.3966 83.1289 49.111 82.3495 49.7995 81.5312C50.9296 80.2192 52.0207 78.8682 53.0859 77.5043C53.7483 78.3616 54.4238 79.193 55.0993 80.0373C55.5539 80.6088 56.0475 81.1544 56.5152 81.726C56.9828 82.2846 57.4634 82.8431 57.957 83.3887L58.6065 84.1031L59.0872 83.3757C59.6067 82.5963 60.0874 81.8039 60.581 81.0115C61.3474 81.661 62.1398 82.3235 62.9711 82.934Z" fill="black"/>
<path opacity="0.2" d="M26.5891 84.4929C26.2644 83.5187 25.8357 82.6353 25.3551 81.778L24.9784 81.1025L24.4328 81.817C23.7573 82.7133 23.1728 83.6486 22.6272 84.6098C22.4584 84.4409 22.2895 84.272 22.1076 84.1032L21.5101 83.5706L21.2373 84.1811C20.8606 85.0514 20.5229 85.9348 20.2891 86.883C20.8087 86.3894 21.2503 85.8568 21.679 85.3112C21.8738 85.571 22.0557 85.8438 22.2635 86.0906L22.8091 86.7921L23.3287 85.9997C23.9522 85.0384 24.5237 84.0512 25.0303 83.012C25.5239 83.5446 26.0176 84.0512 26.5891 84.4929Z" fill="black"/>
</svg>
