<svg width="101" height="100" viewBox="0 0 101 100" fill="none" xmlns="http://www.w3.org/2000/svg">
<g clip-path="url(#clip0_594_4326)">
<rect x="0.5" width="100" height="100" rx="50" fill="#B2C1E5"/>
<path d="M73.4672 66.7785C73.4432 66.9228 73.4071 67.067 73.3711 67.1993C72.8541 68.7983 70.9907 70.6497 68.7064 69.724C69.56 71.7197 66.2419 74.2924 63.4166 72.6814C63.7773 75.146 60.3149 76.8171 57.8623 75.2783C58.5236 76.7089 54.6404 78.921 51.2621 76.769C51.0096 76.6127 50.7451 76.4324 50.4566 76.2521C49.0019 75.3263 47.1745 74.1361 45.1428 72.8257C45.1307 72.8257 45.1307 72.8137 45.1187 72.8137C43.4476 71.7317 41.6443 70.5535 39.8289 69.3633C38.0496 68.1971 36.2463 67.0069 34.5632 65.8768C33.1325 64.9151 31.774 63.9893 30.5597 63.1598C30.175 62.8953 29.8024 62.5827 29.4297 62.2461C28.2515 61.1882 27.1334 59.8897 26.1596 59.1323C25.7989 58.8438 25.4503 58.6394 25.1377 58.5553C25.0175 58.5192 24.8973 58.4952 24.7891 58.4952L32.1707 39.3076C32.291 39.3317 32.4472 39.3677 32.6396 39.3918C32.9402 39.4399 33.3369 39.512 33.8178 39.5841C37.6529 40.1612 46.2729 41.2793 48.2445 41.5918C48.6412 41.652 49.074 41.8443 49.5309 42.1088C52.2479 43.6957 55.9147 48.3363 57.8022 49.9113C60.0143 51.7627 73.2027 65.3479 73.4071 65.7927C73.5153 66.0452 73.5274 66.3938 73.4672 66.7785Z" fill="#FFDAB8"/>
<path opacity="0.2" d="M51.6651 74.8818L50.4388 76.2524C48.9841 75.3267 47.1568 74.1365 45.125 72.826L46.9764 70.7342C47.83 69.7724 49.3568 69.7243 50.3907 70.65L51.3285 71.4795C52.3744 72.3932 52.5187 73.9201 51.6651 74.8818Z" fill="black"/>
<path opacity="0.2" d="M47.5428 70.0728L45.1023 72.8138C43.4312 71.7318 41.6279 70.5536 39.8125 69.3634L42.8541 65.9251C43.7077 64.9633 45.2345 64.9152 46.2685 65.8409L47.2182 66.6825C48.2521 67.5841 48.3844 69.111 47.5428 70.0728Z" fill="black"/>
<path opacity="0.2" d="M43.9243 64.7228L42.8543 65.9251L39.8126 69.3634C38.0333 68.1973 36.23 67.0071 34.5469 65.877L38.6585 61.2364L39.2356 60.5872C40.0891 59.6254 41.616 59.5773 42.6499 60.503L43.5876 61.3326C44.6336 62.2342 44.7778 63.7611 43.9243 64.7228Z" fill="black"/>
<path opacity="0.2" d="M38.6592 61.2365L34.5476 65.8771C33.1169 64.9153 31.7584 63.9896 30.5442 63.1601C30.1594 62.8956 29.7868 62.583 29.4141 62.2464L33.9825 57.1009C34.8361 56.1391 36.3629 56.091 37.3969 57.0167L38.3346 57.8462C39.3685 58.7479 39.5248 60.2747 38.6592 61.2365Z" fill="black"/>
<path d="M50.8569 71.9724L49.9192 71.1429C48.8852 70.2292 47.3584 70.2653 46.5048 71.2271L43.3911 74.7496C42.6938 75.5431 42.4293 76.5409 42.6096 77.3945C42.7058 77.8634 42.9342 78.2962 43.3069 78.6208L44.2447 79.4503C45.1583 80.2558 46.613 80.1596 47.683 79.27C47.8273 79.1618 47.9595 79.0295 48.0798 78.8973L51.1935 75.3868C52.0351 74.413 51.8908 72.8861 50.8569 71.9724Z" fill="#F7CEA8"/>
<path d="M46.7319 67.1634L45.7941 66.3219C44.7602 65.4082 43.2334 65.4442 42.3798 66.406L37.3064 72.1406C36.4528 73.1024 36.5971 74.6292 37.631 75.5429L38.5808 76.3845C39.6147 77.2982 41.1415 77.2501 41.9951 76.2883L47.0685 70.5537C47.9101 69.6039 47.7658 68.0771 46.7319 67.1634Z" fill="#F7CEA8"/>
<path d="M43.1143 61.8135L42.1766 60.984C41.1427 60.0703 39.6159 60.1063 38.7623 61.0681L32.6189 68.005C31.7653 68.9668 31.9096 70.4936 32.9435 71.4073L33.8812 72.2368C34.9152 73.1505 36.442 73.1144 37.2956 72.1527L43.4389 65.2158C44.2925 64.254 44.1483 62.7272 43.1143 61.8135Z" fill="#F7CEA8"/>
<path d="M37.8456 58.3269L36.9078 57.4974C35.8739 56.5837 34.3471 56.6198 33.4935 57.5816L27.9392 63.8572C27.0856 64.819 27.2299 66.3458 28.2638 67.2595L29.2016 68.089C30.2355 69.0027 31.7623 68.9666 32.6159 68.0049L38.1822 61.7292C39.0238 60.7675 38.8795 59.2406 37.8456 58.3269Z" fill="#F7CEA8"/>
<path opacity="0.2" d="M32.6016 68.0169C33.0344 67.4158 33.4912 66.8508 33.9601 66.2737C34.4169 65.7086 34.9098 65.1556 35.3907 64.6026C35.8836 64.0616 36.3645 63.5086 36.8815 62.9796L37.6509 62.1981C37.9154 61.9457 38.1679 61.6812 38.4444 61.4287C38.228 61.7293 37.9996 62.0178 37.7832 62.3063L37.0859 63.1599C36.629 63.737 36.1361 64.29 35.6552 64.831C35.1623 65.372 34.6814 65.925 34.1644 66.454C33.6595 66.983 33.1426 67.512 32.6016 68.0169Z" fill="black"/>
<path opacity="0.2" d="M43.1016 75.05C43.6185 74.2565 44.2076 73.5352 44.8207 72.8379C45.4459 72.1406 46.0831 71.4673 46.8164 70.8662C46.2995 71.6597 45.7104 72.381 45.0973 73.0783C44.4721 73.7756 43.8229 74.4488 43.1016 75.05Z" fill="black"/>
<path opacity="0.2" d="M36.9922 72.4891C37.4009 71.912 37.8458 71.359 38.2906 70.806C38.7354 70.253 39.1923 69.724 39.6611 69.195C40.13 68.666 40.5989 68.1491 41.0918 67.6321L41.8372 66.8747C42.0896 66.6343 42.3421 66.3818 42.6066 66.1414C42.4022 66.4299 42.1858 66.7064 41.9694 66.9949L41.3082 67.8245C40.8634 68.3775 40.3945 68.9065 39.9376 69.4355C39.4688 69.9644 38.9879 70.4934 38.495 70.9984C38.0141 71.5033 37.5212 72.0082 36.9922 72.4891Z" fill="black"/>
<path opacity="0.2" d="M59.0312 61.9937C59.6083 62.3784 63.3472 65.2757 63.9123 65.6845C64.4773 66.0933 65.0183 66.5381 65.5593 66.9589C66.1003 67.4037 66.6413 67.8365 67.1583 68.2933L67.9398 68.9786C68.1922 69.219 68.4567 69.4475 68.6972 69.6879C68.4086 69.4956 68.1201 69.2912 67.8315 69.0988L66.99 68.4737C66.437 68.0649 65.8839 67.6321 65.3429 67.1993C64.8019 66.7545 64.2609 66.3217 63.744 65.8648C63.227 65.42 59.5362 62.4866 59.0312 61.9937Z" fill="black"/>
<path opacity="0.2" d="M50.1328 69.1467C50.9744 69.6757 54.9417 72.7414 55.7111 73.3545C56.4806 73.9797 57.226 74.6169 57.9112 75.3382C57.0576 74.8212 56.2762 74.2201 55.5068 73.607C54.7494 72.9818 50.8181 69.8681 50.1328 69.1467Z" fill="black"/>
<path opacity="0.2" d="M54.0312 65.2039C54.5963 65.5765 58.3112 68.4499 58.8522 68.8466C59.3932 69.2433 59.9101 69.6641 60.4391 70.0729C60.9561 70.4937 61.473 70.9144 61.978 71.3593L62.7354 72.0205C62.9758 72.2489 63.2283 72.4773 63.4687 72.7058C63.1802 72.5254 62.9157 72.321 62.6392 72.1287L61.8337 71.5396C61.2927 71.1429 60.7637 70.7221 60.2468 70.3013C59.7298 69.8805 59.2128 69.4597 58.7079 69.0149C58.1789 68.5941 54.5001 65.6727 54.0312 65.2039Z" fill="black"/>
<path opacity="0.2" d="M73.4714 66.7784C66.1138 59.1322 58.5638 50.5604 51.7832 48.6969C50.2324 48.2761 46.6016 51.3418 41.2157 51.438C37.633 51.5101 33.8941 48.0958 34.0023 46.076C34.1105 44.0563 38.3544 45.9077 40.2539 45.7034C41.8048 45.535 45.9524 43.2989 49.5231 42.0967C52.2401 43.6836 55.9069 48.3242 57.7944 49.8991C60.0065 51.7506 73.1949 65.3357 73.3993 65.7806C73.5195 66.045 73.5315 66.3937 73.4714 66.7784Z" fill="black"/>
<path d="M77.0906 60.3228C77.0906 60.3228 76.9103 60.5873 76.6217 61.0321C76.4174 61.3567 76.1528 61.7775 75.8523 62.2463C75.0468 63.5447 74.0369 65.2279 73.508 66.37C65.8618 58.4834 58.8408 49.659 51.7837 47.7234C50.2328 47.3026 45.9529 50.7771 40.5669 50.8733C36.9843 50.9454 33.8946 48.1081 34.0028 46.0764C34.111 44.0566 38.3548 44.9222 40.2544 44.7179C42.1659 44.5135 48.0328 41.1593 51.8799 40.474C55.4144 39.8368 63.7338 39.957 67.1842 40.0412C67.7493 40.0532 68.1821 40.0652 68.4345 40.0652C68.6149 40.0773 68.7111 40.0773 68.7111 40.0773L77.0906 60.3228Z" fill="#F7CEA8"/>
<path d="M17.3482 61.9938L0 53.2776V20L28.06 34.6311L17.3482 61.9938Z" fill="#1DA8B5"/>
<path d="M27.4989 36.0236L17.8828 60.5969L23.458 62.7786L33.0741 38.2053L27.4989 36.0236Z" fill="#F0F0F0"/>
<path opacity="0.2" d="M33.793 39.5722L26.1469 59.1204C25.7862 58.8319 25.4376 58.6275 25.125 58.5433L32.6269 39.3918C32.9274 39.4399 33.3242 39.5 33.793 39.5722Z" fill="black"/>
<path opacity="0.1" d="M27.533 36.0257L17.8984 60.5938L18.7939 60.9449L28.4285 36.3768L27.533 36.0257Z" fill="black"/>
<path opacity="0.2" d="M16.9308 55.7663C16.4619 56.9685 15.1154 57.5576 13.9132 57.0887C12.711 56.6199 12.1219 55.2734 12.5907 54.0712C13.0596 52.8689 14.4061 52.2798 15.6083 52.7487C16.8106 53.2176 17.3997 54.5641 16.9308 55.7663Z" fill="black"/>
<path d="M16.7589 55.3815C16.29 56.5838 14.9436 57.1729 13.7413 56.704C12.5391 56.2351 11.95 54.8886 12.4189 53.6864C12.8877 52.4842 14.2342 51.8951 15.4365 52.3639C16.6387 52.8328 17.2278 54.1793 16.7589 55.3815Z" fill="#FFC300"/>
<path opacity="0.3" d="M16.0614 53.0494C15.857 52.821 15.6046 52.6407 15.304 52.5204C14.2461 52.1117 13.0558 52.6286 12.6471 53.6866C12.5269 53.9872 12.4908 54.2997 12.5148 54.6003C13.3684 53.5423 14.6909 52.9532 16.0614 53.0494Z" fill="white"/>
<path d="M17.8892 60.5992L0 51.8951V51.2458L18.1416 59.962L17.8892 60.5992Z" fill="#0B929F"/>
<path d="M83.4228 61.9938L100.771 53.2776V20L72.7109 34.6311L83.4228 61.9938Z" fill="#424B4E"/>
<path d="M73.2392 36.028L67.6641 38.2097L77.2802 62.783L82.8553 60.6014L73.2392 36.028Z" fill="#F0F0F0"/>
<path opacity="0.2" d="M76.6214 61.0319C76.417 61.3565 76.1525 61.7773 75.8519 62.2462L67.1719 40.041C67.7369 40.053 68.1697 40.0651 68.4222 40.0651L76.6214 61.0319Z" fill="black"/>
<path opacity="0.1" d="M73.2549 36.0304L72.3594 36.3811L81.9808 60.9518L82.8763 60.6011L73.2549 36.0304Z" fill="black"/>
<path opacity="0.2" d="M83.8407 55.7665C84.3096 56.9688 85.6561 57.5579 86.8583 57.089C88.0606 56.6201 88.6497 55.2736 88.1808 54.0714C87.7119 52.8692 86.3654 52.2801 85.1632 52.749C83.961 53.2178 83.3719 54.5643 83.8407 55.7665Z" fill="black"/>
<path d="M84.0126 55.3818C84.4815 56.584 85.828 57.1731 87.0302 56.7042C88.2324 56.2354 88.8215 54.8889 88.3527 53.6866C87.8838 52.4844 86.5373 51.8953 85.3351 52.3642C84.1329 52.8331 83.5438 54.1795 84.0126 55.3818Z" fill="#FFC300"/>
<path opacity="0.3" d="M84.7031 53.0494C84.9075 52.821 85.16 52.6407 85.4605 52.5204C86.5185 52.1117 87.7087 52.6286 88.1174 53.6866C88.2377 53.9872 88.2737 54.2997 88.2497 54.6003C87.3961 53.5423 86.0737 52.9532 84.7031 53.0494Z" fill="white"/>
<path d="M82.8853 60.5992L82.6328 59.962L100.774 51.2458V51.8951L82.8853 60.5992Z" fill="#32393B"/>
</g>
<defs>
<clipPath id="clip0_594_4326">
<rect x="0.5" width="100" height="100" rx="50" fill="white"/>
</clipPath>
</defs>
</svg>
