<svg width="1728" height="745" viewBox="0 0 1728 745" fill="none" xmlns="http://www.w3.org/2000/svg">
<path fill-rule="evenodd" clip-rule="evenodd" d="M1728 71.5912L1669.97 93.6594C1611.93 115.727 1495.87 159.864 1379.8 164.277C1263.73 168.691 1147.67 133.382 1031.6 89.2457C915.533 45.1095 799.467 -7.85402 683.4 0.97323C567.333 9.80048 451.267 80.4185 335.2 102.487C219.133 124.555 103.067 98.073 45.0333 84.8321L-13 71.5912V204H45.0333C103.067 204 219.133 204 335.2 204C451.267 204 567.333 204 683.4 204C799.467 204 915.533 204 1031.6 204C1147.67 204 1263.73 204 1379.8 204C1495.87 204 1611.93 204 1669.97 204H1728V71.5912Z" fill="#0049FF" fill-opacity="0.12"/>
<rect y="203.9" width="1728" height="540" fill="#91B1FF"/>
<path fill-rule="evenodd" clip-rule="evenodd" d="M0 109.8L96.48 94.1C191.52 78.4 384.48 47 576 47C767.52 47 960.48 78.4 1152 94.1C1343.52 109.8 1536.48 109.8 1631.52 109.8H1728V204H1631.52C1536.48 204 1343.52 204 1152 204C960.48 204 767.52 204 576 204C384.48 204 191.52 204 96.48 204H0V109.8Z" fill="#0049FF" fill-opacity="0.09"/>
<path fill-rule="evenodd" clip-rule="evenodd" d="M0 502L96.48 461.5C191.52 421 384.48 340 576 340C767.52 340 960.48 421 1152 461.5C1343.52 502 1536.48 502 1631.52 502H1728V745H1631.52C1536.48 745 1343.52 745 1152 745C960.48 745 767.52 745 576 745C384.48 745 191.52 745 96.48 745H0V502Z" fill="#0049FF" fill-opacity="0.09"/>
<path fill-rule="evenodd" clip-rule="evenodd" d="M1728 516.4L1631.52 478.3C1536.48 440.2 1343.52 364 1152 364C960.48 364 767.52 440.2 576 478.3C384.48 516.4 191.52 516.4 96.4799 516.4H-6.86646e-05V745H96.4799C191.52 745 384.48 745 576 745C767.52 745 960.48 745 1152 745C1343.52 745 1536.48 745 1631.52 745H1728V516.4Z" fill="#0049FF" fill-opacity="0.09"/>
<path fill-rule="evenodd" clip-rule="evenodd" d="M-13 71.5912L45.0333 93.6594C103.067 115.727 219.133 159.864 335.2 164.277C451.267 168.691 567.333 133.382 683.4 89.2457C799.467 45.1095 915.533 -7.85402 1031.6 0.97323C1147.67 9.80048 1263.73 80.4185 1379.8 102.487C1495.87 124.555 1611.93 98.073 1669.97 84.8321L1728 71.5912V204H1669.97C1611.93 204 1495.87 204 1379.8 204C1263.73 204 1147.67 204 1031.6 204C915.533 204 799.467 204 683.4 204C567.333 204 451.267 204 335.2 204C219.133 204 103.067 204 45.0333 204H-13V71.5912Z" fill="#0049FF" fill-opacity="0.29"/>
</svg>
