<svg width="1728" height="182" viewBox="0 0 1728 182" fill="none" xmlns="http://www.w3.org/2000/svg">
<path fill-rule="evenodd" clip-rule="evenodd" d="M1728 118.129L1670.4 98.4412C1612.8 78.7529 1497.6 39.3765 1382.4 35.4388C1267.2 31.5012 1152 63.0023 1036.8 102.379C921.6 141.755 806.4 189.007 691.2 181.132C576 173.256 460.8 110.254 345.6 90.5659C230.4 70.8776 115.2 94.5035 57.6 106.316L-0.00012207 118.129V0H57.6C115.2 0 230.4 0 345.6 0C460.8 0 576 0 691.2 0C806.4 0 921.6 0 1036.8 0C1152 0 1267.2 0 1382.4 0C1497.6 0 1612.8 0 1670.4 0H1728V118.129Z" fill="#0049FF" fill-opacity="0.12"/>
<path fill-rule="evenodd" clip-rule="evenodd" d="M0 103.201L57.6 86.0008C115.2 68.8006 230.4 34.4003 345.6 30.9603C460.8 27.5202 576 55.0405 691.2 89.4408C806.4 123.841 921.6 165.122 1036.8 158.241C1152 151.361 1267.2 96.3209 1382.4 79.1207C1497.6 61.9206 1612.8 82.5608 1670.4 92.8809L1728 103.201V0H1670.4C1612.8 0 1497.6 0 1382.4 0C1267.2 0 1152 0 1036.8 0C921.6 0 806.4 0 691.2 0C576 0 460.8 0 345.6 0C230.4 0 115.2 0 57.6 0H0V103.201Z" fill="#0049FF" fill-opacity="0.12"/>
</svg>
