<svg width="56" height="56" viewBox="0 0 56 56" fill="none" xmlns="http://www.w3.org/2000/svg">
<g clip-path="url(#clip0_147_1948)">
<path d="M11.202 25.3682L11.202 25.3682C12.5994 23.903 13.27 23.2306 13.8855 22.8924C14.4562 22.5788 14.9952 22.5452 16.2593 22.5452C17.4794 22.5452 18.2762 22.5231 19.0952 22.0912C19.875 21.6801 20.6502 20.9078 21.9424 19.5867C26.9894 14.4269 32.8071 10.8702 38.783 9.26571C40.8184 8.71935 42.6902 8.47041 44.173 8.50279C44.9146 8.51899 45.5445 8.60529 46.0429 8.75153C46.546 8.89917 46.8794 9.09722 47.0721 9.31025L47.0721 9.31027C47.4235 9.69853 47.6596 10.4963 47.6852 11.7115C47.7101 12.897 47.5331 14.373 47.1759 15.9982C46.4618 19.248 45.0444 23.0201 43.1874 26.1311C42.2813 27.649 39.7935 30.7603 37.6611 33.0262C35.7732 35.0323 34.7457 36.1316 34.2129 37.0525C33.6426 38.0381 33.6308 38.8313 33.6308 40.0995C33.6308 41.3715 33.597 41.9131 33.2937 42.4711C32.9677 43.0709 32.3199 43.7116 30.8983 45.0518L31.2413 45.4156L30.8983 45.0518C28.7118 47.1133 27.744 47.6465 26.8132 47.6579C25.7604 47.6705 25.3083 47.4722 25.0451 47.0805C24.8957 46.8581 24.7748 46.528 24.6947 46.0267C24.6149 45.5271 24.5805 44.8911 24.5805 44.0809V41.192V40.4411L23.8876 40.7307L22.0531 41.4974C22.0531 41.4975 22.053 41.4975 22.053 41.4975C21.228 41.8419 18.6936 42.5279 16.2897 43.1039C15.0975 43.3895 13.9556 43.6438 13.0991 43.8108C12.7329 43.8822 12.4247 43.9364 12.1895 43.9705C12.2155 43.7715 12.2563 43.5189 12.3105 43.2212C12.4492 42.4584 12.6684 41.4365 12.9235 40.3482C13.436 38.1618 14.0809 35.7603 14.4925 34.6771L15.4061 32.2731L15.6636 31.5955H14.9387H12.0724C11.2776 31.5955 10.6505 31.561 10.1556 31.4824C9.65911 31.4035 9.3272 31.2847 9.10098 31.1374C8.70355 30.8788 8.5 30.4418 8.5 29.4452C8.5 29.0382 8.63649 28.5774 9.05237 27.9298C9.47269 27.2754 10.1553 26.4654 11.202 25.3682ZM21.921 37.5664L22.5863 37.2884L22.0926 36.7627L20.9198 35.514C20.5909 35.1638 20.2675 34.8426 20.0095 34.6062C19.8815 34.4888 19.7632 34.3865 19.6649 34.3107C19.6168 34.2735 19.5641 34.2355 19.5117 34.2042C19.4858 34.1887 19.4507 34.1693 19.4098 34.1524C19.3781 34.1393 19.2977 34.108 19.1935 34.108C18.967 34.108 18.8183 34.2461 18.7772 34.2849C18.7127 34.3456 18.6583 34.4166 18.6151 34.4788C18.5265 34.6065 18.4341 34.7728 18.3439 34.9517C18.1614 35.3143 17.9579 35.7902 17.7753 36.2662C17.5927 36.7422 17.4252 37.233 17.3175 37.6267C17.2644 37.8212 17.2215 38.0073 17.2013 38.1623C17.1914 38.2381 17.1841 38.3264 17.1903 38.4136C17.1943 38.4706 17.2096 38.6621 17.3612 38.814L17.3623 38.8151C17.5059 38.9581 17.6843 38.9809 17.7485 38.9875C17.8371 38.9965 17.9271 38.9917 18.0055 38.9833C18.1653 38.9663 18.3568 38.9254 18.5599 38.8713C18.9708 38.7619 19.4914 38.5815 20.028 38.3574L20.028 38.3573L21.921 37.5664ZM40.1584 19.0301C40.1584 18.6135 40.0808 18.1681 39.9581 17.7796C39.84 17.4056 39.6591 17.0171 39.409 16.767C39.1588 16.5168 38.7703 16.336 38.3963 16.2179C38.0078 16.0952 37.5625 16.0175 37.1458 16.0175C36.2352 16.0175 35.459 16.2517 34.9132 16.7974C34.3674 17.3432 34.1333 18.1194 34.1333 19.0301C34.1333 19.9408 34.3674 20.717 34.9132 21.2627C35.459 21.8085 36.2352 22.0427 37.1458 22.0427C38.0565 22.0427 38.8327 21.8085 39.3785 21.2627C39.9242 20.717 40.1584 19.9408 40.1584 19.0301ZM32.1182 27.0703C32.1182 26.6537 32.0405 26.2084 31.9178 25.8199C31.7997 25.4458 31.6189 25.0574 31.3687 24.8072C31.1186 24.5571 30.7301 24.3762 30.3561 24.2581C29.9676 24.1354 29.5222 24.0578 29.1056 24.0578C28.689 24.0578 28.2437 24.1354 27.8552 24.2581C27.4811 24.3762 27.0926 24.5571 26.8425 24.8072C26.5924 25.0574 26.4115 25.4458 26.2934 25.8199C26.1707 26.2084 26.093 26.6537 26.093 27.0703C26.093 27.981 26.3272 28.7572 26.873 29.303C27.4187 29.8487 28.1949 30.0829 29.1056 30.0829C29.5222 30.0829 29.9676 30.0052 30.3561 29.8826C30.7301 29.7644 31.1186 29.5836 31.3687 29.3334C31.6189 29.0833 31.7997 28.6948 31.9178 28.3208C32.0405 27.9323 32.1182 27.4869 32.1182 27.0703Z" stroke="#0049FF"/>
</g>
<defs>
<clipPath id="clip0_147_1948">
<rect width="55" height="55" fill="white" transform="translate(0.5 0.5)"/>
</clipPath>
</defs>
</svg>
