<svg width="55" height="56" viewBox="0 0 55 56" fill="none" xmlns="http://www.w3.org/2000/svg">
<g clip-path="url(#clip0_147_1955)">
<path d="M15.1957 29.044V42C15.1957 44.7614 17.4342 47 20.1957 47H23.0435M15.1957 29.044V29.044C14.0751 30.1768 12.2322 30.133 11.1668 28.9481L11.0024 28.7653C9.89575 27.5346 9.99406 25.6404 11.2222 24.5309L24.9874 12.0948C26.9219 10.3471 29.8746 10.3791 31.7708 12.1683L44.8299 24.4908C46.0367 25.6295 46.1145 27.5233 45.005 28.7571V28.7571C43.8411 30.0514 41.8329 30.1137 40.591 28.8941L39.9783 28.2923M15.1957 29.044L24.9159 20.1382C26.8764 18.3419 29.8999 18.3943 31.797 20.2575L39.9783 28.2923M23.0435 47V40.4753C23.0435 37.8519 25.1701 35.7253 27.7935 35.7253V35.7253C30.4168 35.7253 32.5435 37.8519 32.5435 40.4753V46.1648V47M23.0435 47H32.5435M39.9783 28.2923V42C39.9783 44.7614 37.7397 47 34.9783 47H32.5435" stroke="#1FACB9"/>
</g>
<defs>
<clipPath id="clip0_147_1955">
<rect width="55" height="55" fill="white" transform="translate(0 0.5)"/>
</clipPath>
</defs>
</svg>
