<svg width="56" height="56" viewBox="0 0 56 56" fill="none" xmlns="http://www.w3.org/2000/svg">
<path d="M38.4091 15.367V15.867H38.9091H47.4475L44.503 45.2889C44.3483 46.537 43.2993 47.5 42.0364 47.5H39.5182V33.357C39.5182 28.81 37.6243 26.0157 34.9512 23.3785L34.9499 23.3772C33.1898 21.653 30.3371 20.1195 27.2903 19.2323L26.8591 15.867H35.3273H35.8273V15.367V8.5H38.4091V15.367ZM8.5 46.181V44.8802H34.8273V46.181C34.8273 46.9023 34.236 47.5 33.4909 47.5H9.83636C9.09129 47.5 8.5 46.9023 8.5 46.181ZM8.51144 32.9479C8.65952 29.7396 10.2335 27.3215 12.5594 25.6701C15.0194 23.9234 18.328 23.0339 21.6636 23.0339C24.9993 23.0339 28.3079 23.9234 30.7679 25.6701C33.0937 27.3215 34.6678 29.7396 34.8158 32.9479H8.51144ZM8.53636 37.6041H34.8091V40.2422H8.53636V37.6041Z" stroke="#FF8070"/>
</svg>
