<svg width="55" height="56" viewBox="0 0 55 56" fill="none" xmlns="http://www.w3.org/2000/svg">
<g clip-path="url(#clip0_147_1971)">
<path d="M33.5368 39.3659C43.6993 35.9784 46.8447 24.1221 43.6993 18.6175C42.3443 16.2462 38.618 14.8065 36.9242 14.3831C35.2297 7.18462 28.5093 5.04082 20.8337 8.87841C1.35485 18.6175 13.6342 39.3659 23.3743 39.3659C24.6438 39.3659 23.3743 42.7534 24.2212 47.4112C24.6067 49.5315 27.1852 48.6815 27.1852 43.1768C27.1852 38.078 30.5719 39.3659 30.5719 44.4471C30.5719 48.2581 33.5368 49.1049 33.5368 44.4471V39.3659Z" stroke="#33D875"/>
<circle cx="27.6077" cy="13.5361" r="2.8875" stroke="#33D875"/>
<circle cx="18.2923" cy="18.6175" r="2.8875" stroke="#33D875"/>
<circle cx="19.139" cy="29.6268" r="2.8875" stroke="#33D875"/>
<circle cx="27.6077" cy="34.7081" r="2.8875" stroke="#33D875"/>
<circle cx="36.9236" cy="28.78" r="2.8875" stroke="#33D875"/>
</g>
<defs>
<clipPath id="clip0_147_1971">
<rect width="55" height="55" fill="white" transform="translate(0 0.5)"/>
</clipPath>
</defs>
</svg>
