<svg width="694" height="590" viewBox="0 0 694 590" fill="none" xmlns="http://www.w3.org/2000/svg">
<path d="M192.245 4.73065C151.25 11.9305 111.947 27.7573 78.5565 55.1295C29.9815 94.9472 3.03435 154.474 0.229619 219.222C-1.62005 261.958 7.9668 303.627 19.5605 344.203C34.4666 396.402 44.0898 455.865 75.2198 500.478C123.686 569.931 217.378 599.193 295.717 586.76C346.335 578.725 399.819 548.151 415.39 492.905C421.156 472.45 423.961 450.465 433.814 431.565C445.625 408.912 467.035 395.682 483.296 377.232C503.388 354.45 607.995 308.534 613 278.5C679.5 175 715.611 86.0131 679.5 31.5C641.818 -25.3916 382.785 18.7703 319.316 6.76203C312.352 5.43777 305.353 4.33209 298.329 3.39354C263.487 -1.26065 227.243 -1.41493 192.245 4.73065Z" fill="#00C2FF" fill-opacity="0.21"/>
</svg>
