<svg width="1251" height="763" viewBox="0 0 1251 763" fill="none" xmlns="http://www.w3.org/2000/svg">
<path fill-rule="evenodd" clip-rule="evenodd" d="M455.696 76.608C547.077 57.4438 641.254 -15.1069 722.225 3.71471C804.406 22.8177 773.791 137.409 847.783 167.749C959.995 213.76 1168.81 130.087 1234.95 213.951C1292.68 287.164 1171.62 403.616 1105.09 494.031C1044.9 575.815 980.326 674.004 871.054 708.44C760.828 743.176 678.016 653.39 566.393 663.793C469.388 672.834 383.323 761.786 287.885 762.791C177.88 763.948 56.8211 741.268 12.9055 669.618C-31.0164 597.958 59.7322 498.504 72.2282 410.939C85.6728 316.727 -0.12847 214.209 88.9817 136.517C180.927 56.3535 331.093 102.74 455.696 76.608Z" fill="url(#paint0_linear_715_6781)"/>
<defs>
<linearGradient id="paint0_linear_715_6781" x1="840.516" y1="96.4111" x2="-31.9844" y2="704.911" gradientUnits="userSpaceOnUse">
<stop stop-color="#0049FF" stop-opacity="0.23"/>
<stop offset="1" stop-color="#00E8FF" stop-opacity="0.16"/>
</linearGradient>
</defs>
</svg>
