<svg width="1101" height="757" viewBox="0 0 1101 757" fill="none" xmlns="http://www.w3.org/2000/svg">
<path fill-rule="evenodd" clip-rule="evenodd" d="M378.055 64.7767C458.895 50.2392 539.302 -18.6504 612.903 5.02144C687.603 29.0471 695.647 121.322 763.627 156.37C866.721 209.52 1020.08 158.618 1083.96 247.878C1139.73 325.804 1037.65 438.036 982.997 526.686C933.561 606.872 881.093 703.567 785.06 732.711C688.189 762.11 609.033 665.885 509.571 670.364C423.134 674.256 350.899 760.338 265.424 756.112C166.904 751.24 57.1641 721.423 13.8649 645.854C-29.4404 570.275 46.4144 473.729 52.7947 385.016C59.6593 289.568 -22.8756 180.18 52.7084 105.763C130.697 28.9779 267.825 84.5997 378.055 64.7767Z" fill="#AEF5FF" fill-opacity="0.5"/>
</svg>
