<svg width="561" height="495" viewBox="0 0 561 495" fill="none" xmlns="http://www.w3.org/2000/svg">
<g opacity="0.5">
<path d="M152.469 357.029L0 345.283L20.3272 433.31L47.2025 417.793L180.617 494.819L259.009 449.572L125.594 372.53L152.469 357.029Z" fill="white"/>
<path d="M47.1705 415.466L21.5831 430.253L2.38867 347.191L146.246 358.27L121.791 372.391L254.973 449.293L180.368 492.368L47.1705 415.466Z" fill="url(#paint0_linear_715_6371)"/>
<path d="M47.1562 413.138L22.8256 427.181L4.79492 349.1L140.025 359.512L117.975 372.251L250.94 449.013L180.105 489.9L47.1562 413.138Z" fill="url(#paint1_linear_715_6371)"/>
<path d="M47.1242 410.811L24.066 424.124L7.18359 351.009L133.802 360.769L114.173 372.096L246.905 448.734L179.856 487.433L47.1242 410.811Z" fill="url(#paint2_linear_715_6371)"/>
<path d="M47.1097 408.483L25.3084 421.067L9.57422 352.917L127.596 362.01L110.372 371.956L242.871 448.455L179.609 484.982L47.1097 408.483Z" fill="url(#paint3_linear_715_6371)"/>
<path d="M47.0777 406.156L26.5488 417.995L11.9629 354.826L121.373 363.251L106.57 371.801L238.836 448.176L179.344 482.514L47.0777 406.156Z" fill="url(#paint4_linear_715_6371)"/>
<path d="M47.0632 403.812L27.7912 414.938L14.3535 356.734L115.152 364.508L102.753 371.661L234.787 447.896L179.097 480.047L47.0632 403.812Z" fill="url(#paint5_linear_715_6371)"/>
<path d="M47.0312 401.485L29.0471 411.882L16.7422 358.658L108.928 365.75L98.9509 371.506L230.752 447.617L178.832 477.596L47.0312 401.485Z" fill="url(#paint6_linear_715_6371)"/>
<path d="M47.0013 399.158L30.2896 408.809L19.1484 360.567L102.723 366.991L95.1504 371.367L226.718 447.338L178.585 475.129L47.0013 399.158Z" fill="url(#paint7_linear_715_6371)"/>
<path d="M46.9849 396.83L31.53 405.753L21.5371 362.476L96.4994 368.248L91.3323 371.227L222.683 447.059L178.32 472.662L46.9849 396.83Z" fill="url(#paint8_linear_715_6371)"/>
<path d="M46.9549 394.503L32.7724 402.696L23.9277 364.384L90.2781 369.489L87.5317 371.072L218.65 446.779L178.073 470.194L46.9549 394.503Z" fill="url(#paint9_linear_715_6371)"/>
<path d="M46.9384 392.175L34.0128 399.623L26.3164 366.293L84.0704 370.731L83.7291 370.932L214.614 446.5L177.808 467.742L46.9384 392.175Z" fill="url(#paint10_linear_715_6371)"/>
</g>
<g opacity="0.5">
<path d="M232.397 239.054L79.9434 227.307L100.271 315.335L127.146 299.818L319.245 414.566L397.637 369.303L205.537 254.555L232.397 239.054Z" fill="white"/>
<path d="M127.114 297.49L101.511 312.278L82.332 229.216L226.19 240.295L201.735 254.415L393.602 369.023L318.996 412.114L127.114 297.49Z" fill="url(#paint11_linear_715_6371)"/>
<path d="M127.099 295.163L102.753 309.205L84.7227 231.124L219.968 241.536L197.919 254.276L389.568 368.744L318.734 409.647L127.099 295.163Z" fill="url(#paint12_linear_715_6371)"/>
<path d="M127.069 292.835L104.011 306.149L87.1133 233.033L213.747 242.793L194.118 254.12L385.535 368.465L318.486 407.179L127.069 292.835Z" fill="url(#paint13_linear_715_6371)"/>
<path d="M127.038 290.508L105.252 303.092L89.5176 234.941L207.524 244.034L190.316 253.981L381.5 368.185L318.222 404.712L127.038 290.508Z" fill="url(#paint14_linear_715_6371)"/>
<path d="M127.021 288.18L106.492 300.019L91.9062 236.865L201.316 245.276L186.497 253.825L377.449 367.906L317.972 402.26L127.021 288.18Z" fill="url(#paint15_linear_715_6371)"/>
<path d="M126.991 285.852L107.735 296.962L94.2969 238.774L195.095 246.532L182.697 253.686L373.415 367.627L317.71 399.793L126.991 285.852Z" fill="url(#paint16_linear_715_6371)"/>
<path d="M126.975 283.509L108.975 293.906L96.6855 240.683L188.872 247.774L178.894 253.546L369.38 367.347L317.46 397.326L126.975 283.509Z" fill="url(#paint17_linear_715_6371)"/>
<path d="M126.945 281.182L110.217 290.834L99.0762 242.592L182.65 249.016L175.078 253.391L365.347 367.068L317.213 394.875L126.945 281.182Z" fill="url(#paint18_linear_715_6371)"/>
<path d="M126.928 278.855L111.473 287.777L101.465 244.5L176.443 250.273L171.276 253.252L361.311 366.789L316.948 392.408L126.928 278.855Z" fill="url(#paint19_linear_715_6371)"/>
<path d="M126.898 276.527L112.716 284.72L103.871 246.409L170.221 251.514L167.475 253.096L357.278 366.51L316.701 389.94L126.898 276.527Z" fill="url(#paint20_linear_715_6371)"/>
<path d="M126.866 274.2L113.956 281.648L106.26 248.317L163.998 252.755L163.657 252.957L353.227 366.231L316.437 387.473L126.866 274.2Z" fill="url(#paint21_linear_715_6371)"/>
</g>
<g opacity="0.5">
<path d="M327.563 136.27L175.109 124.539L195.437 212.551L222.312 197.049L458.821 334.002L537.213 288.739L300.703 151.787L327.563 136.27Z" fill="white"/>
<path d="M222.28 194.722L196.677 209.494L177.498 126.448L321.356 137.511L296.901 151.631L533.177 288.46L458.572 331.535L222.28 194.722Z" fill="url(#paint22_linear_715_6371)"/>
<path d="M222.265 192.379L197.935 206.437L179.889 128.356L315.134 138.768L293.085 151.492L529.144 288.18L458.309 329.068L222.265 192.379Z" fill="url(#paint23_linear_715_6371)"/>
<path d="M222.233 190.051L199.175 203.365L182.277 130.264L308.911 140.009L289.282 151.352L525.108 287.901L458.06 326.616L222.233 190.051Z" fill="url(#paint24_linear_715_6371)"/>
<path d="M222.204 187.724L200.418 200.308L184.684 132.173L302.69 141.25L285.482 151.197L521.075 287.622L457.797 324.149L222.204 187.724Z" fill="url(#paint25_linear_715_6371)"/>
<path d="M222.187 185.396L201.658 197.251L187.072 134.082L296.482 142.507L281.663 151.057L517.04 287.343L457.548 321.682L222.187 185.396Z" fill="url(#paint26_linear_715_6371)"/>
<path d="M222.157 183.069L202.901 194.179L189.463 135.99L290.261 143.749L277.863 150.902L512.991 287.063L457.301 319.214L222.157 183.069Z" fill="url(#paint27_linear_715_6371)"/>
<path d="M222.141 180.741L204.141 191.122L191.852 137.899L284.038 144.99L274.06 150.763L508.956 286.784L457.036 316.763L222.141 180.741Z" fill="url(#paint28_linear_715_6371)"/>
<path d="M222.111 178.414L205.383 188.065L194.242 139.808L277.816 146.247L270.244 150.607L504.922 286.505L456.789 314.296L222.111 178.414Z" fill="url(#paint29_linear_715_6371)"/>
<path d="M222.094 176.086L206.639 184.993L196.631 141.716L271.609 147.489L266.442 150.468L500.887 286.225L456.524 311.828L222.094 176.086Z" fill="url(#paint30_linear_715_6371)"/>
<path d="M222.064 173.743L207.882 181.936L199.037 143.625L265.388 148.73L262.641 150.328L496.854 285.946L456.277 309.377L222.064 173.743Z" fill="url(#paint31_linear_715_6371)"/>
<path d="M222.032 171.415L209.122 178.879L201.426 145.533L259.164 149.987L258.823 150.173L492.818 285.667L456.012 306.909L222.032 171.415Z" fill="url(#paint32_linear_715_6371)"/>
</g>
<path d="M527.407 58.5299L463.368 0L399.314 132.484L425.367 117.432V315.676L501.354 271.795V73.5658L527.407 58.5299Z" fill="url(#paint33_linear_715_6371)"/>
<path d="M425.367 315.676L458.961 334.514V136.269L425.367 117.432V315.676Z" fill="url(#paint34_linear_715_6371)"/>
<path d="M561.001 77.3518L496.962 18.8374L432.924 151.305L458.961 136.27V334.514L534.963 290.632V92.4032L561.001 77.3518Z" fill="url(#paint35_linear_715_6371)"/>
<path opacity="0.95" d="M497.893 23.6787L558.254 78.95L561.001 77.3518L496.962 18.8374L432.924 151.305L436.881 149.024L497.893 23.6787Z" fill="#F36DD4"/>
<path opacity="0.95" d="M488.475 263.958V310.835L512.619 296.885V250.024L488.475 263.958Z" fill="url(#paint36_linear_715_6371)"/>
<path opacity="0.95" d="M488.475 159.747V194.427L512.619 180.493V145.812L488.475 159.747Z" fill="url(#paint37_linear_715_6371)"/>
<path opacity="0.95" d="M488.475 108.184V142.849L512.619 128.915V94.2344L488.475 108.184Z" fill="url(#paint38_linear_715_6371)"/>
<path d="M399.314 132.484L432.924 151.306L496.963 18.8376L463.368 0L399.314 132.484Z" fill="#0049FF"/>
<path d="M488.475 263.958V310.82L512.619 296.87V250.024L488.475 263.958ZM506.909 293.735L490.368 303.278V265.2L506.909 255.657V293.735Z" fill="url(#paint39_linear_715_6371)"/>
<path opacity="0.95" d="M509.609 251.762V295.303L488.475 307.499V310.835L512.619 296.885V250.024L509.609 251.762Z" fill="white"/>
<path opacity="0.95" d="M488.475 211.775V246.455L512.619 232.506V197.841L488.475 211.775Z" fill="url(#paint40_linear_715_6371)"/>
<path d="M488.475 108.184V142.864L512.619 128.915V94.2344L488.475 108.184ZM490.368 109.425L497.397 105.36V131.242L490.368 135.308V109.425ZM506.909 125.765L500.112 129.691V103.808L506.909 99.8825V125.765Z" fill="url(#paint41_linear_715_6371)"/>
<path d="M493.953 314.156V317.042L518.423 303.015V300.144L493.953 314.156Z" fill="#CED3F4"/>
<path d="M499.446 320.207V323.714L523.916 309.703V306.18L499.446 320.207Z" fill="#CED3F4"/>
<path d="M493.906 316.949L499.461 320.207L523.916 306.18L518.33 302.906L493.906 316.949Z" fill="url(#paint42_linear_715_6371)"/>
<path d="M488.429 310.897L493.968 314.156L518.423 300.144L509.578 295.256L488.46 307.546L488.429 310.897Z" fill="url(#paint43_linear_715_6371)"/>
<path d="M499.538 323.621V323.093L499.461 323V320.207L493.968 316.98V314.155L488.49 310.928V317.43L499.538 323.621Z" fill="#AFB6E5"/>
<path d="M488.475 159.747V194.427L512.619 180.477V145.797L488.475 159.747ZM490.368 161.004L497.397 156.938V182.821L490.368 186.886V161.004ZM506.909 177.343L500.112 181.269V155.387L506.909 151.461V177.343Z" fill="url(#paint44_linear_715_6371)"/>
<path d="M488.475 211.775V246.456L512.619 232.506V197.825L488.475 211.775ZM490.368 213.032L497.397 208.967V234.849L490.368 238.899V213.032ZM506.909 229.356L500.112 233.282V207.399L506.909 203.474V229.356Z" fill="url(#paint45_linear_715_6371)"/>
<path opacity="0.95" d="M509.609 147.55V178.91L488.475 191.106V194.427L512.619 180.493V145.812L509.609 147.55Z" fill="white"/>
<path opacity="0.95" d="M509.609 199.579V230.923L488.475 243.135V246.455L512.619 232.506V197.841L509.609 199.579Z" fill="white"/>
<path opacity="0.95" d="M509.609 95.9723V127.332L488.475 139.528V142.849L512.619 128.915V94.2344L509.609 95.9723Z" fill="white"/>
<path d="M388.251 202.341L324.212 143.811L260.174 276.279L286.211 261.243V396.039L362.198 352.157V217.377L388.251 202.341Z" fill="url(#paint46_linear_715_6371)"/>
<path d="M286.211 396.039L319.805 414.876V280.08L286.211 261.243V396.039Z" fill="url(#paint47_linear_715_6371)"/>
<path d="M421.844 221.162L357.806 162.633L293.768 295.116L319.805 280.08V414.876L395.807 370.994V236.198L421.844 221.162Z" fill="url(#paint48_linear_715_6371)"/>
<path opacity="0.95" d="M358.737 167.489L419.098 222.761L421.844 221.162L357.806 162.633L293.768 295.116L297.724 292.835L358.737 167.489Z" fill="#F36DD4"/>
<path opacity="0.95" d="M349.319 344.32V391.197L373.464 377.247V330.386L349.319 344.32Z" fill="url(#paint49_linear_715_6371)"/>
<path opacity="0.95" d="M349.319 293.409V328.09L373.464 314.14V279.46L349.319 293.409Z" fill="url(#paint50_linear_715_6371)"/>
<path opacity="0.95" d="M349.319 241.831V276.512L373.464 262.562V227.897L349.319 241.831Z" fill="url(#paint51_linear_715_6371)"/>
<path d="M260.174 276.279L293.768 295.116L357.806 162.633L324.212 143.811L260.174 276.279Z" fill="#0049FF"/>
<path d="M349.319 344.321V391.182L373.464 377.232V330.371L349.319 344.321ZM367.753 374.098L351.212 383.64V345.562L367.753 336.019V374.098Z" fill="url(#paint52_linear_715_6371)"/>
<path opacity="0.95" d="M370.453 332.124V375.665L349.319 387.861V391.197L373.464 377.247V330.386L370.453 332.124Z" fill="white"/>
<path d="M349.319 241.831V276.511L373.464 262.562V227.881L349.319 241.831ZM351.212 243.072L358.459 238.898V264.781L351.212 268.955V243.072ZM367.753 259.412L360.864 263.384V237.502L367.753 233.53V259.412Z" fill="url(#paint53_linear_715_6371)"/>
<path d="M349.319 293.409V328.09L373.464 314.14V279.46L349.319 293.409ZM351.212 294.651L358.459 290.477V316.359L351.212 320.533V294.651ZM367.753 310.99L360.864 314.962V289.08L367.753 285.108V310.99Z" fill="url(#paint54_linear_715_6371)"/>
<path d="M354.797 394.517V397.404L379.267 383.376V380.506L354.797 394.517Z" fill="#CED3F4"/>
<path d="M360.29 400.569V404.076L384.76 390.064V386.542L360.29 400.569Z" fill="#CED3F4"/>
<path d="M354.75 397.311L360.305 400.569L384.76 386.542L379.174 383.268L354.75 397.311Z" fill="url(#paint55_linear_715_6371)"/>
<path d="M349.272 391.259L354.828 394.518L379.267 380.506L370.422 375.618L349.303 387.908L349.272 391.259Z" fill="url(#paint56_linear_715_6371)"/>
<path d="M360.382 403.983V403.456L360.304 403.362V400.569L354.827 397.342V394.518L349.334 391.29V397.792L360.382 403.983Z" fill="#AFB6E5"/>
<path opacity="0.95" d="M370.453 281.213V312.557L349.319 324.754V328.09L373.464 314.14V279.46L370.453 281.213Z" fill="white"/>
<path opacity="0.95" d="M370.453 229.635V260.979L349.319 273.175V276.512L373.464 262.562V227.897L370.453 229.635Z" fill="white"/>
<path d="M249.094 333.024L185.056 274.494L121.018 406.978L147.055 391.942V475.982L223.041 432.1V348.06L249.094 333.024Z" fill="url(#paint57_linear_715_6371)"/>
<path d="M147.055 475.981L180.649 494.803V410.764L147.055 391.942V475.981Z" fill="url(#paint58_linear_715_6371)"/>
<path d="M282.688 351.861L218.65 293.332L154.611 425.8L180.649 410.764V494.803L256.651 450.937V366.897L282.688 351.861Z" fill="url(#paint59_linear_715_6371)"/>
<path opacity="0.95" d="M219.581 298.188L279.942 353.444L282.688 351.861L218.65 293.332L154.611 425.8L158.568 423.519L219.581 298.188Z" fill="#F36DD4"/>
<path opacity="0.95" d="M210.162 424.264V471.125L234.306 457.191V410.314L210.162 424.264Z" fill="url(#paint60_linear_715_6371)"/>
<path opacity="0.95" d="M210.162 371.258V405.938L234.306 391.988V357.308L210.162 371.258Z" fill="url(#paint61_linear_715_6371)"/>
<path d="M121.018 406.978L154.612 425.8L218.65 293.332L185.056 274.494L121.018 406.978Z" fill="#0049FF"/>
<path d="M210.162 424.264V471.125L234.306 457.175V410.314L210.162 424.264ZM228.596 454.041L212.055 463.584V425.505L228.596 415.962V454.041Z" fill="url(#paint62_linear_715_6371)"/>
<path opacity="0.95" d="M231.296 412.067V455.608L210.162 467.804V471.125L234.306 457.191V410.314L231.296 412.067Z" fill="white"/>
<path d="M210.162 371.258V405.938L234.306 391.988V357.308L210.162 371.258ZM212.071 372.499L219.208 368.387V394.269L212.071 398.381V372.499ZM228.596 388.838L221.598 392.873V366.991L228.596 362.956V388.838Z" fill="url(#paint63_linear_715_6371)"/>
<path opacity="0.95" d="M231.296 359.061V390.406L210.162 402.602V405.938L234.306 391.988V357.308L231.296 359.061Z" fill="white"/>
<path d="M215.641 474.461V477.347L240.111 463.32V460.433L215.641 474.461Z" fill="#CED3F4"/>
<path d="M221.133 480.512V484.019L245.603 470.007V466.485L221.133 480.512Z" fill="#CED3F4"/>
<path d="M215.592 477.238L221.147 480.512L245.602 466.485L240.015 463.211L215.592 477.238Z" fill="url(#paint64_linear_715_6371)"/>
<path d="M210.115 471.202L215.67 474.461L240.109 460.433L231.28 455.561L210.146 467.851L210.115 471.202Z" fill="url(#paint65_linear_715_6371)"/>
<path d="M221.226 483.926V483.383L221.148 483.306V480.513L215.671 477.285V474.461L210.178 471.233V477.735L221.226 483.926Z" fill="#AFB6E5"/>
<path d="M490.058 291.967L507.762 255.331L490.058 265.681V291.967Z" fill="#0049FF"/>
<path d="M212.305 451.791L230.01 415.156L212.305 425.505V451.791Z" fill="#0049FF"/>
<defs>
<linearGradient id="paint0_linear_715_6371" x1="213.496" y1="469.075" x2="-59.1498" y2="311.661" gradientUnits="userSpaceOnUse">
<stop stop-color="#F8F8FD"/>
<stop offset="0.5808" stop-color="#FDFDFF"/>
<stop offset="1" stop-color="white"/>
</linearGradient>
<linearGradient id="paint1_linear_715_6371" x1="210.676" y1="467.975" x2="-55.2368" y2="314.448" gradientUnits="userSpaceOnUse">
<stop stop-color="#F0F2FA"/>
<stop offset="0.4388" stop-color="#F7F8FD"/>
<stop offset="0.5808" stop-color="#FAFBFF"/>
<stop offset="1" stop-color="white"/>
</linearGradient>
<linearGradient id="paint2_linear_715_6371" x1="207.854" y1="466.875" x2="-51.326" y2="317.235" gradientUnits="userSpaceOnUse">
<stop stop-color="#E9EBF8"/>
<stop offset="0.3361" stop-color="#F0F1FB"/>
<stop offset="0.5808" stop-color="#F8F9FF"/>
<stop offset="1" stop-color="white"/>
</linearGradient>
<linearGradient id="paint3_linear_715_6371" x1="205.035" y1="465.775" x2="-47.4133" y2="320.022" gradientUnits="userSpaceOnUse">
<stop stop-color="#E2E4F6"/>
<stop offset="0.2783" stop-color="#E9EAF9"/>
<stop offset="0.5808" stop-color="#F6F7FF"/>
<stop offset="1" stop-color="white"/>
</linearGradient>
<linearGradient id="paint4_linear_715_6371" x1="202.213" y1="464.675" x2="-43.5024" y2="322.809" gradientUnits="userSpaceOnUse">
<stop stop-color="#DBDEF3"/>
<stop offset="0.2469" stop-color="#E2E4F6"/>
<stop offset="0.5808" stop-color="#F3F5FF"/>
<stop offset="1" stop-color="white"/>
</linearGradient>
<linearGradient id="paint5_linear_715_6371" x1="199.393" y1="463.574" x2="-39.5897" y2="325.595" gradientUnits="userSpaceOnUse">
<stop stop-color="#D3D7F1"/>
<stop offset="0.2132" stop-color="#DADDF4"/>
<stop offset="0.5123" stop-color="#ECEEFD"/>
<stop offset="0.5808" stop-color="#F1F3FF"/>
<stop offset="1" stop-color="white"/>
</linearGradient>
<linearGradient id="paint6_linear_715_6371" x1="196.572" y1="462.474" x2="-35.6787" y2="328.382" gradientUnits="userSpaceOnUse">
<stop stop-color="#CCD1EE"/>
<stop offset="0.1964" stop-color="#D3D7F1"/>
<stop offset="0.4718" stop-color="#E5E8FA"/>
<stop offset="0.5808" stop-color="#EEF1FF"/>
<stop offset="0.973" stop-color="#FEFEFF"/>
<stop offset="1" stop-color="white"/>
</linearGradient>
<linearGradient id="paint7_linear_715_6371" x1="193.752" y1="461.374" x2="-31.7658" y2="331.169" gradientUnits="userSpaceOnUse">
<stop stop-color="#C5CAEC"/>
<stop offset="0.1795" stop-color="#CCD0EF"/>
<stop offset="0.4311" stop-color="#DEE2F8"/>
<stop offset="0.5808" stop-color="#ECEFFF"/>
<stop offset="0.938" stop-color="#FCFCFF"/>
<stop offset="1" stop-color="white"/>
</linearGradient>
<linearGradient id="paint8_linear_715_6371" x1="190.93" y1="460.274" x2="-27.8548" y2="333.956" gradientUnits="userSpaceOnUse">
<stop stop-color="#BEC3EA"/>
<stop offset="0.1658" stop-color="#C5C9ED"/>
<stop offset="0.3982" stop-color="#D7DBF6"/>
<stop offset="0.5808" stop-color="#EAEDFF"/>
<stop offset="0.9091" stop-color="#FAFAFF"/>
<stop offset="1" stop-color="white"/>
</linearGradient>
<linearGradient id="paint9_linear_715_6371" x1="188.11" y1="459.174" x2="-23.942" y2="336.743" gradientUnits="userSpaceOnUse">
<stop stop-color="#B6BDE7"/>
<stop offset="0.1545" stop-color="#BDC3EA"/>
<stop offset="0.371" stop-color="#CFD4F3"/>
<stop offset="0.5808" stop-color="#E7EBFF"/>
<stop offset="0.8742" stop-color="#F7F8FF"/>
<stop offset="1" stop-color="white"/>
</linearGradient>
<linearGradient id="paint10_linear_715_6371" x1="185.289" y1="458.073" x2="-20.0313" y2="339.53" gradientUnits="userSpaceOnUse">
<stop stop-color="#AFB6E5"/>
<stop offset="0.1449" stop-color="#B6BCE8"/>
<stop offset="0.3485" stop-color="#C8CDF1"/>
<stop offset="0.5808" stop-color="#E5E9FF"/>
<stop offset="0.8551" stop-color="#F5F6FF"/>
<stop offset="1" stop-color="white"/>
</linearGradient>
<linearGradient id="paint11_linear_715_6371" x1="347.959" y1="382.582" x2="4.89308" y2="184.51" gradientUnits="userSpaceOnUse">
<stop stop-color="#F8F8FD"/>
<stop offset="0.5808" stop-color="#FDFDFF"/>
<stop offset="1" stop-color="white"/>
</linearGradient>
<linearGradient id="paint12_linear_715_6371" x1="345.139" y1="381.481" x2="8.80592" y2="187.296" gradientUnits="userSpaceOnUse">
<stop stop-color="#F0F2FA"/>
<stop offset="0.4388" stop-color="#F7F8FD"/>
<stop offset="0.5808" stop-color="#FAFBFF"/>
<stop offset="1" stop-color="white"/>
</linearGradient>
<linearGradient id="paint13_linear_715_6371" x1="342.319" y1="380.381" x2="12.7188" y2="190.083" gradientUnits="userSpaceOnUse">
<stop stop-color="#E9EBF8"/>
<stop offset="0.3361" stop-color="#F0F1FB"/>
<stop offset="0.5808" stop-color="#F8F9FF"/>
<stop offset="1" stop-color="white"/>
</linearGradient>
<linearGradient id="paint14_linear_715_6371" x1="339.498" y1="379.281" x2="16.6296" y2="192.87" gradientUnits="userSpaceOnUse">
<stop stop-color="#E2E4F6"/>
<stop offset="0.2783" stop-color="#E9EAF9"/>
<stop offset="0.5808" stop-color="#F6F7FF"/>
<stop offset="1" stop-color="white"/>
</linearGradient>
<linearGradient id="paint15_linear_715_6371" x1="336.676" y1="378.18" x2="20.5405" y2="195.657" gradientUnits="userSpaceOnUse">
<stop stop-color="#DBDEF3"/>
<stop offset="0.2469" stop-color="#E2E4F6"/>
<stop offset="0.5808" stop-color="#F3F5FF"/>
<stop offset="1" stop-color="white"/>
</linearGradient>
<linearGradient id="paint16_linear_715_6371" x1="333.856" y1="377.08" x2="24.4532" y2="198.443" gradientUnits="userSpaceOnUse">
<stop stop-color="#D3D7F1"/>
<stop offset="0.2132" stop-color="#DADDF4"/>
<stop offset="0.5123" stop-color="#ECEEFD"/>
<stop offset="0.5808" stop-color="#F1F3FF"/>
<stop offset="1" stop-color="white"/>
</linearGradient>
<linearGradient id="paint17_linear_715_6371" x1="331.034" y1="375.98" x2="28.3642" y2="201.23" gradientUnits="userSpaceOnUse">
<stop stop-color="#CCD1EE"/>
<stop offset="0.1964" stop-color="#D3D7F1"/>
<stop offset="0.4718" stop-color="#E5E8FA"/>
<stop offset="0.5808" stop-color="#EEF1FF"/>
<stop offset="0.973" stop-color="#FEFEFF"/>
<stop offset="1" stop-color="white"/>
</linearGradient>
<linearGradient id="paint18_linear_715_6371" x1="328.215" y1="374.88" x2="32.277" y2="204.018" gradientUnits="userSpaceOnUse">
<stop stop-color="#C5CAEC"/>
<stop offset="0.1795" stop-color="#CCD0EF"/>
<stop offset="0.4311" stop-color="#DEE2F8"/>
<stop offset="0.5808" stop-color="#ECEFFF"/>
<stop offset="0.938" stop-color="#FCFCFF"/>
<stop offset="1" stop-color="white"/>
</linearGradient>
<linearGradient id="paint19_linear_715_6371" x1="325.393" y1="373.78" x2="36.1877" y2="206.805" gradientUnits="userSpaceOnUse">
<stop stop-color="#BEC3EA"/>
<stop offset="0.1658" stop-color="#C5C9ED"/>
<stop offset="0.3982" stop-color="#D7DBF6"/>
<stop offset="0.5808" stop-color="#EAEDFF"/>
<stop offset="0.9091" stop-color="#FAFAFF"/>
<stop offset="1" stop-color="white"/>
</linearGradient>
<linearGradient id="paint20_linear_715_6371" x1="322.573" y1="372.679" x2="40.1008" y2="209.591" gradientUnits="userSpaceOnUse">
<stop stop-color="#B6BDE7"/>
<stop offset="0.1545" stop-color="#BDC3EA"/>
<stop offset="0.371" stop-color="#CFD4F3"/>
<stop offset="0.5808" stop-color="#E7EBFF"/>
<stop offset="0.8742" stop-color="#F7F8FF"/>
<stop offset="1" stop-color="white"/>
</linearGradient>
<linearGradient id="paint21_linear_715_6371" x1="319.752" y1="371.579" x2="44.0116" y2="212.378" gradientUnits="userSpaceOnUse">
<stop stop-color="#AFB6E5"/>
<stop offset="0.1449" stop-color="#B6BCE8"/>
<stop offset="0.3485" stop-color="#C8CDF1"/>
<stop offset="0.5808" stop-color="#E5E9FF"/>
<stop offset="0.8551" stop-color="#F5F6FF"/>
<stop offset="1" stop-color="white"/>
</linearGradient>
<linearGradient id="paint22_linear_715_6371" x1="481.907" y1="302.194" x2="88.7531" y2="75.2027" gradientUnits="userSpaceOnUse">
<stop stop-color="#F8F8FD"/>
<stop offset="0.5808" stop-color="#FDFDFF"/>
<stop offset="1" stop-color="white"/>
</linearGradient>
<linearGradient id="paint23_linear_715_6371" x1="479.087" y1="301.093" x2="92.6661" y2="77.9894" gradientUnits="userSpaceOnUse">
<stop stop-color="#F0F2FA"/>
<stop offset="0.4388" stop-color="#F7F8FD"/>
<stop offset="0.5808" stop-color="#FAFBFF"/>
<stop offset="1" stop-color="white"/>
</linearGradient>
<linearGradient id="paint24_linear_715_6371" x1="476.266" y1="299.993" x2="96.5771" y2="80.7762" gradientUnits="userSpaceOnUse">
<stop stop-color="#E9EBF8"/>
<stop offset="0.3361" stop-color="#F0F1FB"/>
<stop offset="0.5808" stop-color="#F8F9FF"/>
<stop offset="1" stop-color="white"/>
</linearGradient>
<linearGradient id="paint25_linear_715_6371" x1="473.446" y1="298.893" x2="100.49" y2="83.5632" gradientUnits="userSpaceOnUse">
<stop stop-color="#E2E4F6"/>
<stop offset="0.2783" stop-color="#E9EAF9"/>
<stop offset="0.5808" stop-color="#F6F7FF"/>
<stop offset="1" stop-color="white"/>
</linearGradient>
<linearGradient id="paint26_linear_715_6371" x1="470.624" y1="297.793" x2="104.401" y2="86.3502" gradientUnits="userSpaceOnUse">
<stop stop-color="#DBDEF3"/>
<stop offset="0.2469" stop-color="#E2E4F6"/>
<stop offset="0.5808" stop-color="#F3F5FF"/>
<stop offset="1" stop-color="white"/>
</linearGradient>
<linearGradient id="paint27_linear_715_6371" x1="467.804" y1="296.692" x2="108.313" y2="89.1368" gradientUnits="userSpaceOnUse">
<stop stop-color="#D3D7F1"/>
<stop offset="0.2132" stop-color="#DADDF4"/>
<stop offset="0.5123" stop-color="#ECEEFD"/>
<stop offset="0.5808" stop-color="#F1F3FF"/>
<stop offset="1" stop-color="white"/>
</linearGradient>
<linearGradient id="paint28_linear_715_6371" x1="464.983" y1="295.593" x2="112.224" y2="91.9239" gradientUnits="userSpaceOnUse">
<stop stop-color="#CCD1EE"/>
<stop offset="0.1964" stop-color="#D3D7F1"/>
<stop offset="0.4718" stop-color="#E5E8FA"/>
<stop offset="0.5808" stop-color="#EEF1FF"/>
<stop offset="0.973" stop-color="#FEFEFF"/>
<stop offset="1" stop-color="white"/>
</linearGradient>
<linearGradient id="paint29_linear_715_6371" x1="462.163" y1="294.492" x2="116.137" y2="94.7106" gradientUnits="userSpaceOnUse">
<stop stop-color="#C5CAEC"/>
<stop offset="0.1795" stop-color="#CCD0EF"/>
<stop offset="0.4311" stop-color="#DEE2F8"/>
<stop offset="0.5808" stop-color="#ECEFFF"/>
<stop offset="0.938" stop-color="#FCFCFF"/>
<stop offset="1" stop-color="white"/>
</linearGradient>
<linearGradient id="paint30_linear_715_6371" x1="459.341" y1="293.392" x2="120.048" y2="97.4975" gradientUnits="userSpaceOnUse">
<stop stop-color="#BEC3EA"/>
<stop offset="0.1658" stop-color="#C5C9ED"/>
<stop offset="0.3982" stop-color="#D7DBF6"/>
<stop offset="0.5808" stop-color="#EAEDFF"/>
<stop offset="0.9091" stop-color="#FAFAFF"/>
<stop offset="1" stop-color="white"/>
</linearGradient>
<linearGradient id="paint31_linear_715_6371" x1="456.522" y1="292.291" x2="123.961" y2="100.284" gradientUnits="userSpaceOnUse">
<stop stop-color="#B6BDE7"/>
<stop offset="0.1545" stop-color="#BDC3EA"/>
<stop offset="0.371" stop-color="#CFD4F3"/>
<stop offset="0.5808" stop-color="#E7EBFF"/>
<stop offset="0.8742" stop-color="#F7F8FF"/>
<stop offset="1" stop-color="white"/>
</linearGradient>
<linearGradient id="paint32_linear_715_6371" x1="453.7" y1="291.191" x2="127.872" y2="103.071" gradientUnits="userSpaceOnUse">
<stop stop-color="#AFB6E5"/>
<stop offset="0.1449" stop-color="#B6BCE8"/>
<stop offset="0.3485" stop-color="#C8CDF1"/>
<stop offset="0.5808" stop-color="#E5E9FF"/>
<stop offset="0.8551" stop-color="#F5F6FF"/>
<stop offset="1" stop-color="white"/>
</linearGradient>
<linearGradient id="paint33_linear_715_6371" x1="399.32" y1="157.838" x2="527.402" y2="157.838" gradientUnits="userSpaceOnUse">
<stop stop-color="#AFB6E5"/>
<stop offset="0.1449" stop-color="#B6BCE8"/>
<stop offset="0.3485" stop-color="#C8CDF1"/>
<stop offset="0.5808" stop-color="#E5E9FF"/>
<stop offset="0.9546" stop-color="#F5F4FC"/>
<stop offset="1" stop-color="#F7F6FB"/>
</linearGradient>
<linearGradient id="paint34_linear_715_6371" x1="490.31" y1="143.107" x2="350.163" y2="384.322" gradientUnits="userSpaceOnUse">
<stop stop-color="#AFB6E5"/>
<stop offset="0.1531" stop-color="#B8BFE9"/>
<stop offset="0.9646" stop-color="#E5E9FF"/>
</linearGradient>
<linearGradient id="paint35_linear_715_6371" x1="711.271" y1="214.609" x2="429.22" y2="168.742" gradientUnits="userSpaceOnUse">
<stop stop-color="#AFB6E5"/>
<stop offset="0.1449" stop-color="#B6BCE8"/>
<stop offset="0.3485" stop-color="#C8CDF1"/>
<stop offset="0.5808" stop-color="#E5E9FF"/>
<stop offset="0.9546" stop-color="#F5F4FC"/>
<stop offset="1" stop-color="#F7F6FB"/>
</linearGradient>
<linearGradient id="paint36_linear_715_6371" x1="517.625" y1="299.992" x2="484.211" y2="261.714" gradientUnits="userSpaceOnUse">
<stop offset="0.00505051" stop-color="#5277F7"/>
<stop offset="0.393" stop-color="#7670F4"/>
<stop offset="0.5253" stop-color="#836DF3"/>
<stop offset="0.6478" stop-color="#8C6DF3"/>
<stop offset="0.846" stop-color="#A46DF3"/>
<stop offset="1" stop-color="#BB6DF3"/>
</linearGradient>
<linearGradient id="paint37_linear_715_6371" x1="514.045" y1="182.155" x2="484.861" y2="156.143" gradientUnits="userSpaceOnUse">
<stop offset="0.00505051" stop-color="#5277F7"/>
<stop offset="0.393" stop-color="#7670F4"/>
<stop offset="0.5253" stop-color="#836DF3"/>
<stop offset="0.6478" stop-color="#8C6DF3"/>
<stop offset="0.846" stop-color="#A46DF3"/>
<stop offset="1" stop-color="#BB6DF3"/>
</linearGradient>
<linearGradient id="paint38_linear_715_6371" x1="516.23" y1="129.952" x2="481.336" y2="104.575" gradientUnits="userSpaceOnUse">
<stop offset="0.00505051" stop-color="#5277F7"/>
<stop offset="0.393" stop-color="#7670F4"/>
<stop offset="0.5253" stop-color="#836DF3"/>
<stop offset="0.6478" stop-color="#8C6DF3"/>
<stop offset="0.846" stop-color="#A46DF3"/>
<stop offset="1" stop-color="#BB6DF3"/>
</linearGradient>
<linearGradient id="paint39_linear_715_6371" x1="541.027" y1="287.008" x2="474.291" y2="276.156" gradientUnits="userSpaceOnUse">
<stop stop-color="#273B98"/>
<stop offset="1" stop-color="#10054D"/>
</linearGradient>
<linearGradient id="paint40_linear_715_6371" x1="514.045" y1="234.179" x2="484.861" y2="208.167" gradientUnits="userSpaceOnUse">
<stop offset="0.00505051" stop-color="#5277F7"/>
<stop offset="0.393" stop-color="#7670F4"/>
<stop offset="0.5253" stop-color="#836DF3"/>
<stop offset="0.6478" stop-color="#8C6DF3"/>
<stop offset="0.846" stop-color="#A46DF3"/>
<stop offset="1" stop-color="#BB6DF3"/>
</linearGradient>
<linearGradient id="paint41_linear_715_6371" x1="488.47" y1="118.544" x2="512.619" y2="118.544" gradientUnits="userSpaceOnUse">
<stop stop-color="#273B98"/>
<stop offset="1" stop-color="#10054D"/>
</linearGradient>
<linearGradient id="paint42_linear_715_6371" x1="531.837" y1="267.868" x2="505.661" y2="317.755" gradientUnits="userSpaceOnUse">
<stop stop-color="#AFB6E5"/>
<stop offset="0.1449" stop-color="#B6BCE8"/>
<stop offset="0.3485" stop-color="#C8CDF1"/>
<stop offset="0.5808" stop-color="#E5E9FF"/>
<stop offset="0.9546" stop-color="#F5F4FC"/>
<stop offset="1" stop-color="#F7F6FB"/>
</linearGradient>
<linearGradient id="paint43_linear_715_6371" x1="510.886" y1="338.017" x2="501.369" y2="296.567" gradientUnits="userSpaceOnUse">
<stop stop-color="#AFB6E5"/>
<stop offset="0.1449" stop-color="#B6BCE8"/>
<stop offset="0.3485" stop-color="#C8CDF1"/>
<stop offset="0.5808" stop-color="#E5E9FF"/>
<stop offset="0.9546" stop-color="#F5F4FC"/>
<stop offset="1" stop-color="#F7F6FB"/>
</linearGradient>
<linearGradient id="paint44_linear_715_6371" x1="488.47" y1="170.122" x2="512.619" y2="170.122" gradientUnits="userSpaceOnUse">
<stop stop-color="#273B98"/>
<stop offset="1" stop-color="#10054D"/>
</linearGradient>
<linearGradient id="paint45_linear_715_6371" x1="488.47" y1="222.146" x2="512.619" y2="222.146" gradientUnits="userSpaceOnUse">
<stop stop-color="#273B98"/>
<stop offset="1" stop-color="#10054D"/>
</linearGradient>
<linearGradient id="paint46_linear_715_6371" x1="260.166" y1="269.922" x2="388.248" y2="269.922" gradientUnits="userSpaceOnUse">
<stop stop-color="#AFB6E5"/>
<stop offset="0.1449" stop-color="#B6BCE8"/>
<stop offset="0.3485" stop-color="#C8CDF1"/>
<stop offset="0.5808" stop-color="#E5E9FF"/>
<stop offset="0.9546" stop-color="#F5F4FC"/>
<stop offset="1" stop-color="#F7F6FB"/>
</linearGradient>
<linearGradient id="paint47_linear_715_6371" x1="335.801" y1="281.619" x2="240.351" y2="445.904" gradientUnits="userSpaceOnUse">
<stop stop-color="#AFB6E5"/>
<stop offset="0.1531" stop-color="#B8BFE9"/>
<stop offset="0.9646" stop-color="#E5E9FF"/>
</linearGradient>
<linearGradient id="paint48_linear_715_6371" x1="557.665" y1="324.342" x2="295.15" y2="281.653" gradientUnits="userSpaceOnUse">
<stop stop-color="#AFB6E5"/>
<stop offset="0.1449" stop-color="#B6BCE8"/>
<stop offset="0.3485" stop-color="#C8CDF1"/>
<stop offset="0.5808" stop-color="#E5E9FF"/>
<stop offset="0.9546" stop-color="#F5F4FC"/>
<stop offset="1" stop-color="#F7F6FB"/>
</linearGradient>
<linearGradient id="paint49_linear_715_6371" x1="378.472" y1="380.354" x2="345.058" y2="342.077" gradientUnits="userSpaceOnUse">
<stop offset="0.00505051" stop-color="#5277F7"/>
<stop offset="0.393" stop-color="#7670F4"/>
<stop offset="0.5253" stop-color="#836DF3"/>
<stop offset="0.6478" stop-color="#8C6DF3"/>
<stop offset="0.846" stop-color="#A46DF3"/>
<stop offset="1" stop-color="#BB6DF3"/>
</linearGradient>
<linearGradient id="paint50_linear_715_6371" x1="374.892" y1="315.81" x2="345.708" y2="289.798" gradientUnits="userSpaceOnUse">
<stop offset="0.00505051" stop-color="#5277F7"/>
<stop offset="0.393" stop-color="#7670F4"/>
<stop offset="0.5253" stop-color="#836DF3"/>
<stop offset="0.6478" stop-color="#8C6DF3"/>
<stop offset="0.846" stop-color="#A46DF3"/>
<stop offset="1" stop-color="#BB6DF3"/>
</linearGradient>
<linearGradient id="paint51_linear_715_6371" x1="377.077" y1="263.607" x2="342.183" y2="238.23" gradientUnits="userSpaceOnUse">
<stop offset="0.00505051" stop-color="#5277F7"/>
<stop offset="0.393" stop-color="#7670F4"/>
<stop offset="0.5253" stop-color="#836DF3"/>
<stop offset="0.6478" stop-color="#8C6DF3"/>
<stop offset="0.846" stop-color="#A46DF3"/>
<stop offset="1" stop-color="#BB6DF3"/>
</linearGradient>
<linearGradient id="paint52_linear_715_6371" x1="401.873" y1="367.371" x2="335.137" y2="356.518" gradientUnits="userSpaceOnUse">
<stop stop-color="#273B98"/>
<stop offset="1" stop-color="#10054D"/>
</linearGradient>
<linearGradient id="paint53_linear_715_6371" x1="349.317" y1="252.199" x2="373.466" y2="252.199" gradientUnits="userSpaceOnUse">
<stop stop-color="#273B98"/>
<stop offset="1" stop-color="#10054D"/>
</linearGradient>
<linearGradient id="paint54_linear_715_6371" x1="349.317" y1="303.777" x2="373.466" y2="303.777" gradientUnits="userSpaceOnUse">
<stop stop-color="#273B98"/>
<stop offset="1" stop-color="#10054D"/>
</linearGradient>
<linearGradient id="paint55_linear_715_6371" x1="392.683" y1="348.23" x2="366.507" y2="398.117" gradientUnits="userSpaceOnUse">
<stop stop-color="#AFB6E5"/>
<stop offset="0.1449" stop-color="#B6BCE8"/>
<stop offset="0.3485" stop-color="#C8CDF1"/>
<stop offset="0.5808" stop-color="#E5E9FF"/>
<stop offset="0.9546" stop-color="#F5F4FC"/>
<stop offset="1" stop-color="#F7F6FB"/>
</linearGradient>
<linearGradient id="paint56_linear_715_6371" x1="376.797" y1="428.362" x2="362.205" y2="378.875" gradientUnits="userSpaceOnUse">
<stop stop-color="#AFB6E5"/>
<stop offset="0.1449" stop-color="#B6BCE8"/>
<stop offset="0.3485" stop-color="#C8CDF1"/>
<stop offset="0.5808" stop-color="#E5E9FF"/>
<stop offset="0.9546" stop-color="#F5F4FC"/>
<stop offset="1" stop-color="#F7F6FB"/>
</linearGradient>
<linearGradient id="paint57_linear_715_6371" x1="121.012" y1="375.239" x2="249.093" y2="375.239" gradientUnits="userSpaceOnUse">
<stop stop-color="#AFB6E5"/>
<stop offset="0.1449" stop-color="#B6BCE8"/>
<stop offset="0.3485" stop-color="#C8CDF1"/>
<stop offset="0.5808" stop-color="#E5E9FF"/>
<stop offset="0.9546" stop-color="#F5F4FC"/>
<stop offset="1" stop-color="#F7F6FB"/>
</linearGradient>
<linearGradient id="paint58_linear_715_6371" x1="184.363" y1="408.079" x2="124.671" y2="510.819" gradientUnits="userSpaceOnUse">
<stop stop-color="#AFB6E5"/>
<stop offset="0.1531" stop-color="#B8BFE9"/>
<stop offset="0.9646" stop-color="#E5E9FF"/>
</linearGradient>
<linearGradient id="paint59_linear_715_6371" x1="422.531" y1="430.313" x2="160.016" y2="387.624" gradientUnits="userSpaceOnUse">
<stop stop-color="#AFB6E5"/>
<stop offset="0.1449" stop-color="#B6BCE8"/>
<stop offset="0.3485" stop-color="#C8CDF1"/>
<stop offset="0.5808" stop-color="#E5E9FF"/>
<stop offset="0.9546" stop-color="#F5F4FC"/>
<stop offset="1" stop-color="#F7F6FB"/>
</linearGradient>
<linearGradient id="paint60_linear_715_6371" x1="239.317" y1="460.294" x2="205.903" y2="422.016" gradientUnits="userSpaceOnUse">
<stop offset="0.00505051" stop-color="#5277F7"/>
<stop offset="0.393" stop-color="#7670F4"/>
<stop offset="0.5253" stop-color="#836DF3"/>
<stop offset="0.6478" stop-color="#8C6DF3"/>
<stop offset="0.846" stop-color="#A46DF3"/>
<stop offset="1" stop-color="#BB6DF3"/>
</linearGradient>
<linearGradient id="paint61_linear_715_6371" x1="237.922" y1="393.033" x2="203.028" y2="367.655" gradientUnits="userSpaceOnUse">
<stop offset="0.00505051" stop-color="#5277F7"/>
<stop offset="0.393" stop-color="#7670F4"/>
<stop offset="0.5253" stop-color="#836DF3"/>
<stop offset="0.6478" stop-color="#8C6DF3"/>
<stop offset="0.846" stop-color="#A46DF3"/>
<stop offset="1" stop-color="#BB6DF3"/>
</linearGradient>
<linearGradient id="paint62_linear_715_6371" x1="262.718" y1="447.31" x2="195.982" y2="436.458" gradientUnits="userSpaceOnUse">
<stop stop-color="#273B98"/>
<stop offset="1" stop-color="#10054D"/>
</linearGradient>
<linearGradient id="paint63_linear_715_6371" x1="210.162" y1="381.625" x2="234.311" y2="381.625" gradientUnits="userSpaceOnUse">
<stop stop-color="#273B98"/>
<stop offset="1" stop-color="#10054D"/>
</linearGradient>
<linearGradient id="paint64_linear_715_6371" x1="253.527" y1="428.169" x2="227.35" y2="478.057" gradientUnits="userSpaceOnUse">
<stop stop-color="#AFB6E5"/>
<stop offset="0.1449" stop-color="#B6BCE8"/>
<stop offset="0.3485" stop-color="#C8CDF1"/>
<stop offset="0.5808" stop-color="#E5E9FF"/>
<stop offset="0.9546" stop-color="#F5F4FC"/>
<stop offset="1" stop-color="#F7F6FB"/>
</linearGradient>
<linearGradient id="paint65_linear_715_6371" x1="241.003" y1="503.803" x2="222.604" y2="459.816" gradientUnits="userSpaceOnUse">
<stop stop-color="#AFB6E5"/>
<stop offset="0.1449" stop-color="#B6BCE8"/>
<stop offset="0.3485" stop-color="#C8CDF1"/>
<stop offset="0.5808" stop-color="#E5E9FF"/>
<stop offset="0.9546" stop-color="#F5F4FC"/>
<stop offset="1" stop-color="#F7F6FB"/>
</linearGradient>
</defs>
</svg>
