<svg width="411" height="366" viewBox="0 0 411 366" fill="none" xmlns="http://www.w3.org/2000/svg">
<path opacity="0.2" d="M158.351 281.929L242.031 266.319C242.031 266.319 260.971 326.079 264.791 333.809L262.771 338.499L264.031 346.349L180.891 365.269L174.221 360.009L158.351 281.929Z" fill="black" fill-opacity="0.7"/>
<path d="M235.995 259.916L155.062 279.078L174.225 360.011L255.157 340.848L235.995 259.916Z" fill="#0049FF"/>
<mask id="mask0_802_5209" style="mask-type:luminance" maskUnits="userSpaceOnUse" x="155" y="259" width="101" height="102">
<path d="M235.995 259.916L155.062 279.078L174.225 360.011L255.157 340.848L235.995 259.916Z" fill="white"/>
</mask>
<g mask="url(#mask0_802_5209)">
<path opacity="0.2" d="M241.16 281.75L254.59 338.46L177.41 356.729C168.11 333.459 161 304.16 161 304.16L241.16 281.75Z" fill="black" fill-opacity="0.7"/>
</g>
<path d="M235.995 259.916L155.062 279.078L174.225 360.011L255.157 340.848L235.995 259.916Z" stroke="#263238" stroke-miterlimit="10" stroke-linecap="round" stroke-linejoin="round"/>
<path d="M257.68 335.689C237.46 340.479 208.81 344.979 191.53 347.519C182.49 348.839 176.55 349.619 176.55 349.619C168.89 335.579 155.07 279.079 155.07 279.079L236 259.919C236.15 260.609 236.3 261.299 236.45 261.979C246.1 305.709 257.68 335.689 257.68 335.689Z" fill="white"/>
<mask id="mask1_802_5209" style="mask-type:luminance" maskUnits="userSpaceOnUse" x="155" y="259" width="103" height="91">
<path d="M257.68 335.689C237.46 340.479 208.81 344.979 191.53 347.519C182.49 348.839 176.55 349.619 176.55 349.619C168.89 335.579 155.07 279.079 155.07 279.079L236 259.919C236.15 260.609 236.3 261.299 236.45 261.979C246.1 305.709 257.68 335.689 257.68 335.689Z" fill="white"/>
</mask>
<g mask="url(#mask1_802_5209)">
<path opacity="0.4" d="M257.68 335.69C237.46 340.48 208.81 344.979 191.53 347.52C178.55 338.89 175.42 330.429 175.58 322.359C175.76 312.769 217.49 322.14 226.21 312.65C232.43 305.88 232.25 277.139 236.45 261.979C246.1 305.709 257.68 335.69 257.68 335.69Z" fill="#0049FF"/>
</g>
<path d="M257.68 335.689C237.46 340.479 208.81 344.979 191.53 347.519C182.49 348.839 176.55 349.619 176.55 349.619C168.89 335.579 155.07 279.079 155.07 279.079L236 259.919C236.15 260.609 236.3 261.299 236.45 261.979C246.1 305.709 257.68 335.689 257.68 335.689Z" stroke="#263238" stroke-miterlimit="10" stroke-linecap="round" stroke-linejoin="round"/>
<path d="M168.721 291.319C169.821 290.049 171.141 288.97 172.611 288.15C173.011 289.18 173.411 290.199 173.811 291.229C175.211 290.719 176.611 290.21 178.001 289.71C179.401 289.2 180.951 288.55 181.491 287.16C182.261 288.99 184.911 288.679 186.801 288.069C199.881 283.859 213.261 280.57 226.801 278.24" stroke="#263238" stroke-miterlimit="10" stroke-linecap="round" stroke-linejoin="round"/>
<path d="M170.75 302.52C169.87 302.07 170.6 300.51 171.58 300.58C172.56 300.66 173.19 301.72 173.27 302.7C174.12 302.61 174.87 301.92 175.04 301.07C175.5 301.39 175.96 301.71 176.43 302.04C175.95 301.35 176.18 300.28 176.91 299.86C177.63 299.44 178.69 299.76 179.05 300.51C178.95 299.38 179.39 297.73 180.5 298C180.86 298.09 181.13 298.39 181.44 298.61C182.76 299.56 184.94 298.65 185.2 297.05C186.29 298.29 188.24 298.12 189.87 297.84C194.72 297.01 199.58 296.19 204.43 295.36C204.56 294.44 205.03 293.26 205.94 293.38C206.47 293.45 206.82 293.97 207.29 294.24C207.95 294.62 208.78 294.48 209.52 294.32C216.07 292.9 222.52 290.97 228.77 288.53" stroke="#263238" stroke-miterlimit="10" stroke-linecap="round" stroke-linejoin="round"/>
<path d="M175.771 315.289C177.711 315.459 179.691 315.189 181.511 314.499C180.821 313.159 181.241 311.349 182.451 310.449C183.041 310.829 183.621 311.199 184.211 311.579C191.291 311.419 198.341 310.449 205.201 308.689C208.281 307.899 211.311 306.949 214.351 306.009C220.101 304.219 225.861 302.419 231.611 300.629" stroke="#263238" stroke-miterlimit="10" stroke-linecap="round" stroke-linejoin="round"/>
<path opacity="0.2" d="M22.67 172.109L25.57 185.139L28.88 170.389L20.18 23.0593H14.25L22.67 172.109Z" fill="black" fill-opacity="0.7"/>
<path d="M17.3703 21.2694L25.5703 169.469L22.5503 181.659L18.2003 169.879L10.0003 21.6794C9.94027 20.6494 10.7303 19.7794 11.7503 19.7194L15.4003 19.5194C16.4403 19.4594 17.3203 20.2394 17.3703 21.2694Z" fill="#0049FF"/>
<mask id="mask2_802_5209" style="mask-type:luminance" maskUnits="userSpaceOnUse" x="9" y="19" width="17" height="163">
<path d="M17.3703 21.2694L25.5703 169.469L22.5503 181.659L18.2003 169.879L10.0003 21.6794C9.94027 20.6494 10.7303 19.7794 11.7503 19.7194L15.4003 19.5194C16.4403 19.4594 17.3203 20.2394 17.3703 21.2694Z" fill="white"/>
</mask>
<g mask="url(#mask2_802_5209)">
<path opacity="0.2" d="M22.5503 181.659L18.2003 169.879L10.0003 21.6795C9.94027 20.6495 10.7303 19.7795 11.7503 19.7195L12.2603 19.6895L20.5203 168.979L22.5503 181.659Z" fill="black" fill-opacity="0.7"/>
</g>
<path d="M17.3703 21.2694L25.5703 169.469L22.5503 181.659L18.2003 169.879L10.0003 21.6794C9.94027 20.6494 10.7303 19.7794 11.7503 19.7194L15.4003 19.5194C16.4403 19.4594 17.3203 20.2394 17.3703 21.2694Z" stroke="#263238" stroke-miterlimit="10" stroke-linecap="round" stroke-linejoin="round"/>
<path d="M12.4102 22.2192L20.4602 167.709C20.5002 168.409 21.0902 168.939 21.7902 168.899L22.6702 168.849" fill="#0049FF"/>
<path d="M12.4102 22.2192L20.4602 167.709C20.5002 168.409 21.0902 168.939 21.7902 168.899L22.6702 168.849" stroke="#263238" stroke-miterlimit="10" stroke-linecap="round" stroke-linejoin="round"/>
<path opacity="0.2" d="M48.8202 199.729L75.9302 22.5993C77.6702 11.2593 88.2702 3.46933 99.6102 5.20933L359.93 45.0493C371.27 46.7893 379.06 57.3893 377.32 68.7293L350.21 245.859C348.47 257.199 337.87 264.989 326.53 263.249L66.2202 223.409C54.8702 221.669 47.0802 211.069 48.8202 199.729Z" fill="black" fill-opacity="0.7"/>
<path d="M78.5701 15.8594L76.2101 31.2694L70.5401 30.3994C70.0001 30.3194 69.6301 29.8094 69.7101 29.2694L71.7701 15.8094C71.8501 15.2694 72.3601 14.8994 72.9001 14.9794L78.5701 15.8594Z" fill="#0049FF" stroke="#263238" stroke-miterlimit="10" stroke-linecap="round" stroke-linejoin="round"/>
<path d="M118.37 9.78932L102.96 7.42933L103.83 1.75932C103.91 1.21932 104.42 0.849329 104.96 0.929329L118.42 2.98933C118.96 3.06933 119.33 3.57932 119.25 4.11932L118.37 9.78932Z" fill="#0049FF" stroke="#263238" stroke-miterlimit="10" stroke-linecap="round" stroke-linejoin="round"/>
<path d="M136.71 12.5994L121.3 10.2394L122.17 4.56939C122.25 4.02939 122.76 3.65939 123.3 3.73939L136.76 5.79939C137.3 5.87938 137.67 6.38939 137.59 6.92939L136.71 12.5994Z" fill="#0049FF" stroke="#263238" stroke-miterlimit="10" stroke-linecap="round" stroke-linejoin="round"/>
<path d="M45.8202 195.729L72.9302 18.5993C74.6702 7.25933 85.2702 -0.530666 96.6102 1.20933L356.93 41.0493C368.27 42.7893 376.06 53.3893 374.32 64.7293L347.21 241.859C345.47 253.199 334.87 260.989 323.53 259.249L63.2202 219.409C51.8702 217.669 44.0802 207.069 45.8202 195.729Z" fill="#0049FF" stroke="#263238" stroke-miterlimit="10" stroke-linecap="round" stroke-linejoin="round"/>
<path d="M324.55 257.059L62.8899 217.009C53.1899 215.519 46.5199 206.449 48.0099 196.749L75.3299 18.2693C76.8199 8.56929 85.8899 1.89929 95.5899 3.38929L357.25 43.4393C366.95 44.9293 373.62 53.9993 372.13 63.6993L344.81 242.179C343.32 251.889 334.25 258.549 324.55 257.059Z" fill="#757575" stroke="#263238" stroke-miterlimit="10" stroke-linecap="round" stroke-linejoin="round"/>
<path d="M66.0603 108.189C65.9703 108.749 65.4503 109.129 64.9003 109.039C64.3403 108.949 63.9603 108.429 64.0503 107.879C64.1403 107.319 64.6603 106.939 65.2103 107.029C65.7703 107.119 66.1503 107.639 66.0603 108.189Z" fill="#999999" stroke="#263238" stroke-miterlimit="10" stroke-linecap="round" stroke-linejoin="round"/>
<path d="M65.58 117.499C65.42 118.559 64.42 119.289 63.36 119.129C62.3 118.969 61.57 117.969 61.73 116.909C61.89 115.849 62.89 115.119 63.95 115.279C65.01 115.439 65.74 116.429 65.58 117.499Z" fill="#263238"/>
<path d="M69.0097 95.0894C68.8497 96.1494 67.8497 96.8794 66.7897 96.7194C65.7297 96.5594 64.9997 95.5594 65.1597 94.4994C65.3197 93.4394 66.3197 92.7094 67.3797 92.8694C68.4397 93.0294 69.1697 94.0194 69.0097 95.0894Z" fill="#263238"/>
<path d="M64.0799 123.789C63.9599 124.569 63.2399 125.099 62.4599 124.979C61.6799 124.859 61.1499 124.139 61.2699 123.359C61.3899 122.579 62.1099 122.049 62.8899 122.169C63.6699 122.289 64.1999 123.019 64.0799 123.789Z" fill="#263238"/>
<path d="M365.56 60.6294L337.63 243.149C336.89 247.939 332.42 251.229 327.63 250.499L108.42 216.949L103.67 216.219L85.8001 213.479L77.1501 212.159L64.6501 210.249L61.9201 209.829C57.1301 209.099 53.8401 204.619 54.5701 199.829L82.5101 17.3094C83.2401 12.5194 87.7201 9.22944 92.5101 9.96944L174.34 22.4894L186.72 24.3894L198.55 26.1994L213.75 28.5194L219.25 29.3594L358.22 50.6294C363.01 51.3694 366.29 55.8394 365.56 60.6294Z" fill="#263238"/>
<g opacity="0.1">
<path d="M160.08 215.259L67.1198 201.029C65.8598 200.839 64.9898 199.659 65.1898 198.399L74.4197 138.079C74.6097 136.819 75.7898 135.949 77.0498 136.149L170.01 150.379C171.27 150.569 172.14 151.749 171.94 153.009L162.71 213.329C162.52 214.579 161.34 215.449 160.08 215.259ZM76.9297 136.939C76.1097 136.809 75.3398 137.379 75.2198 138.199L65.9897 198.519C65.8597 199.339 66.4297 200.109 67.2497 200.229L160.21 214.459C161.03 214.589 161.8 214.019 161.92 213.199L171.15 152.879C171.28 152.059 170.71 151.289 169.89 151.169L76.9297 136.939Z" fill="white"/>
</g>
<path opacity="0.4" d="M104.97 173.459L125.79 185.269C127.12 182.829 128.06 180.129 128.5 177.219C129.5 170.659 127.81 164.309 124.25 159.299L104.97 173.459Z" fill="#0049FF"/>
<path opacity="0.6" d="M105.17 172.309L123.77 158.649C121.29 155.389 118 152.739 114.14 151.039L110.47 159.729L105.17 172.309Z" fill="#0049FF"/>
<path d="M108.34 149.299L105.12 170.349L113.4 150.719C111.8 150.079 110.11 149.599 108.34 149.299Z" fill="#0049FF"/>
<path opacity="0.1" d="M103.87 173.209L107.55 149.179C94.2997 147.369 81.9897 156.519 79.9597 169.789C79.2997 174.109 79.8097 178.339 81.2497 182.159L103.87 173.209Z" fill="white"/>
<path opacity="0.2" d="M100.51 197.769C110.73 199.329 120.43 194.349 125.38 185.959L104.19 173.939L81.54 182.899C84.73 190.559 91.72 196.419 100.51 197.769Z" fill="#0049FF"/>
<path d="M142.21 163.03L139.45 162.61C139.11 162.56 138.87 162.24 138.93 161.9L139.35 159.14C139.4 158.8 139.72 158.56 140.06 158.62L142.82 159.04C143.16 159.09 143.4 159.41 143.34 159.75L142.92 162.51C142.87 162.85 142.55 163.08 142.21 163.03Z" fill="#0049FF"/>
<path d="M157.82 162.82L145.77 160.98C145.52 160.94 145.34 160.7 145.38 160.45C145.42 160.2 145.66 160.02 145.91 160.06L157.96 161.9C158.21 161.94 158.39 162.18 158.35 162.43C158.31 162.68 158.07 162.85 157.82 162.82Z" fill="#0049FF"/>
<path d="M153.83 164.25L145.46 162.97C145.21 162.93 145.03 162.69 145.07 162.44C145.11 162.19 145.35 162.01 145.6 162.05L153.97 163.33C154.22 163.37 154.4 163.61 154.36 163.86C154.32 164.12 154.09 164.29 153.83 164.25Z" fill="#0049FF"/>
<path opacity="0.6" d="M140.84 171.99L138.08 171.57C137.74 171.52 137.5 171.2 137.56 170.86L137.98 168.1C138.03 167.76 138.35 167.52 138.69 167.58L141.45 168C141.79 168.05 142.03 168.37 141.97 168.71L141.55 171.47C141.5 171.8 141.18 172.04 140.84 171.99Z" fill="#0049FF"/>
<path d="M156.449 171.769L144.399 169.929C144.149 169.889 143.969 169.649 144.009 169.399C144.049 169.149 144.289 168.969 144.539 169.009L156.589 170.849C156.839 170.889 157.019 171.129 156.979 171.379C156.939 171.639 156.699 171.809 156.449 171.769Z" fill="#0049FF"/>
<path d="M152.46 173.209L144.09 171.929C143.84 171.889 143.66 171.649 143.7 171.399C143.74 171.149 143.98 170.969 144.23 171.009L152.6 172.289C152.85 172.329 153.03 172.569 152.99 172.819C152.95 173.079 152.72 173.249 152.46 173.209Z" fill="#0049FF"/>
<path opacity="0.4" d="M139.47 180.949L136.71 180.53C136.37 180.48 136.13 180.159 136.19 179.819L136.61 177.06C136.66 176.72 136.98 176.479 137.32 176.539L140.08 176.959C140.42 177.009 140.66 177.329 140.6 177.669L140.18 180.429C140.13 180.759 139.81 180.999 139.47 180.949Z" fill="#0049FF"/>
<path d="M155.07 180.729L143.02 178.889C142.77 178.849 142.59 178.609 142.63 178.359C142.67 178.109 142.91 177.929 143.16 177.969L155.21 179.809C155.46 179.849 155.64 180.089 155.6 180.339C155.56 180.599 155.33 180.769 155.07 180.729Z" fill="#0049FF"/>
<path d="M151.09 182.169L142.72 180.889C142.47 180.849 142.29 180.609 142.33 180.359C142.37 180.109 142.61 179.929 142.86 179.969L151.23 181.249C151.48 181.289 151.66 181.529 151.62 181.779C151.58 182.039 151.34 182.209 151.09 182.169Z" fill="#0049FF"/>
<path opacity="0.2" d="M138.1 189.9L135.34 189.48C135 189.43 134.76 189.11 134.82 188.77L135.24 186.01C135.29 185.67 135.61 185.43 135.95 185.49L138.71 185.91C139.05 185.96 139.29 186.28 139.23 186.62L138.81 189.38C138.76 189.72 138.44 189.96 138.1 189.9Z" fill="#0049FF"/>
<path d="M153.699 189.69L141.649 187.85C141.399 187.81 141.219 187.57 141.259 187.32C141.299 187.07 141.539 186.89 141.789 186.93L153.839 188.77C154.089 188.81 154.269 189.05 154.229 189.3C154.189 189.56 153.959 189.73 153.699 189.69Z" fill="#0049FF"/>
<path d="M149.72 191.13L141.35 189.85C141.1 189.81 140.92 189.57 140.96 189.32C141 189.07 141.24 188.89 141.49 188.93L149.86 190.21C150.11 190.25 150.29 190.49 150.25 190.74C150.21 191 149.97 191.17 149.72 191.13Z" fill="#0049FF"/>
<path opacity="0.1" d="M136.73 198.86L133.97 198.44C133.63 198.39 133.39 198.07 133.45 197.73L133.87 194.97C133.92 194.63 134.24 194.39 134.58 194.45L137.34 194.87C137.68 194.92 137.92 195.24 137.86 195.58L137.44 198.34C137.39 198.68 137.07 198.92 136.73 198.86Z" fill="white"/>
<path d="M152.329 198.65L140.279 196.81C140.029 196.77 139.849 196.53 139.889 196.28C139.929 196.03 140.169 195.85 140.419 195.89L152.469 197.73C152.719 197.77 152.899 198.01 152.859 198.26C152.819 198.52 152.589 198.69 152.329 198.65Z" fill="#0049FF"/>
<path d="M148.35 200.09L139.98 198.81C139.73 198.77 139.55 198.53 139.59 198.28C139.63 198.03 139.87 197.85 140.12 197.89L148.49 199.17C148.74 199.21 148.92 199.45 148.88 199.7C148.84 199.95 148.6 200.13 148.35 200.09Z" fill="#0049FF"/>
<g opacity="0.1">
<path d="M335.23 175.649L184.11 152.519C182.85 152.329 181.67 153.189 181.47 154.449L180.83 158.609L180.71 159.409L179.85 165.019L179.73 165.819L178.87 171.419L178.75 172.219L177.89 177.819L177.77 178.619L176.91 184.229L176.79 185.029L175.93 190.629L175.81 191.429L174.95 197.029L174.83 197.829L173.97 203.439L173.85 204.239L172.99 209.839L172.87 210.639L172.23 214.799C172.04 216.059 172.91 217.239 174.17 217.439L325.29 240.569C326.55 240.759 327.73 239.889 327.92 238.629L328.56 234.469L328.68 233.669L329.54 228.069L329.66 227.269L330.52 221.659L330.64 220.859L331.5 215.259L331.62 214.459L332.48 208.859L332.6 208.059L333.46 202.449L333.58 201.649L334.44 196.049L334.56 195.249L335.42 189.649L335.54 188.849L336.4 183.239L336.52 182.439L337.16 178.279C337.35 177.019 336.49 175.849 335.23 175.649ZM327.13 238.489C327 239.309 326.23 239.879 325.42 239.749L174.3 216.619C173.48 216.489 172.91 215.719 173.04 214.899L173.68 210.739L327.77 234.329L327.13 238.489ZM327.89 233.529L173.8 209.939L174.66 204.339L328.75 227.929L327.89 233.529ZM328.87 227.129L174.77 203.549L175.63 197.939L329.72 221.529L328.87 227.129ZM329.85 220.729L175.76 197.139L176.62 191.539L330.71 215.129L329.85 220.729ZM330.83 214.329L176.74 190.739L177.6 185.139L331.69 208.729L330.83 214.329ZM331.81 207.929L177.72 184.339L178.58 178.729L332.67 202.319L331.81 207.929ZM332.79 201.519L178.7 177.929L179.56 172.329L333.65 195.919L332.79 201.519ZM333.77 195.119L179.67 171.529L180.53 165.929L334.62 189.519L333.77 195.119ZM334.74 188.729L180.65 165.139L181.51 159.529L335.6 183.119L334.74 188.729ZM181.63 158.729L182.27 154.569C182.4 153.749 183.17 153.189 183.99 153.319L335.11 176.449C335.92 176.569 336.49 177.339 336.37 178.159L335.73 182.319L181.63 158.729Z" fill="white"/>
</g>
<g opacity="0.1">
<path d="M351.369 67.9894L93.8493 28.5694C92.4093 28.3494 91.0693 29.3394 90.8493 30.7794L76.4193 125.059C76.1993 126.499 77.1893 127.839 78.6293 128.059L336.159 167.479C337.599 167.699 338.939 166.709 339.159 165.269L353.589 70.9894C353.799 69.5594 352.809 68.2094 351.369 67.9894ZM141.329 81.5394L159.239 84.2794L157.679 94.4494L139.769 91.7094L141.329 81.5394ZM138.979 91.5894L121.069 88.8494L122.629 78.6794L140.539 81.4194L138.979 91.5894ZM160.039 84.4094L177.949 87.1494L176.389 97.3194L158.479 94.5794L160.039 84.4094ZM252.919 97.8094L235.009 95.0694L236.569 84.8994L254.479 87.6394L252.919 97.8094ZM255.269 87.7594L273.179 90.4994L271.619 100.669L253.709 97.9294L255.269 87.7594ZM197.459 90.1394L215.369 92.8794L213.809 103.049L195.899 100.309L197.459 90.1394ZM195.109 100.179L177.199 97.4394L178.759 87.2694L196.669 90.0094L195.109 100.179ZM216.169 92.9994L234.079 95.7394L232.519 105.909L214.609 103.169L216.169 92.9994ZM234.879 95.8594L252.789 98.5994L251.229 108.769L233.319 106.029L234.879 95.8594ZM234.209 94.9394L216.299 92.1994L217.859 82.0294L235.769 84.7694L234.209 94.9394ZM215.499 92.0794L197.589 89.3394L199.149 79.1694L217.059 81.9094L215.499 92.0794ZM196.789 89.2194L178.879 86.4794L180.439 76.3094L198.349 79.0494L196.789 89.2194ZM178.079 86.3494L160.169 83.6094L161.729 73.4394L179.639 76.1794L178.079 86.3494ZM176.279 98.1194L174.719 108.289L156.809 105.549L158.369 95.3794L176.279 98.1194ZM177.079 98.2394L194.989 100.979L193.429 111.149L175.519 108.409L177.079 98.2394ZM195.789 101.099L213.699 103.839L212.139 114.009L194.229 111.269L195.789 101.099ZM214.499 103.959L232.409 106.699L230.849 116.869L212.939 114.129L214.499 103.959ZM233.209 106.829L251.119 109.569L249.559 119.739L231.649 116.999L233.209 106.829ZM251.919 109.689L269.829 112.429L268.269 122.599L250.359 119.859L251.919 109.689ZM252.039 108.899L253.599 98.7294L271.509 101.469L269.949 111.639L252.039 108.899ZM272.299 101.589L290.209 104.329L288.649 114.499L270.739 111.759L272.299 101.589ZM291.009 104.449L308.919 107.189L307.359 117.359L289.449 114.619L291.009 104.449ZM291.139 103.659L292.699 93.4894L310.609 96.2294L309.049 106.399L291.139 103.659ZM290.339 103.539L272.429 100.799L273.989 90.6294L291.899 93.3694L290.339 103.539ZM274.099 89.8294L275.659 79.6594L293.569 82.3994L292.009 92.5694L274.099 89.8294ZM273.309 89.7094L255.399 86.9694L256.959 76.7994L274.869 79.5394L273.309 89.7094ZM254.599 86.8394L236.689 84.0994L238.249 73.9294L256.159 76.6694L254.599 86.8394ZM235.889 83.9794L217.979 81.2394L219.539 71.0694L237.449 73.8094L235.889 83.9794ZM217.179 81.1094L199.269 78.3694L200.829 68.1994L218.739 70.9394L217.179 81.1094ZM198.469 78.2494L180.559 75.5094L182.119 65.3394L200.029 68.0794L198.469 78.2494ZM179.759 75.3894L161.849 72.6494L163.409 62.4794L181.319 65.2194L179.759 75.3894ZM161.049 72.5194L143.139 69.7794L144.699 59.6094L162.609 62.3494L161.049 72.5194ZM160.929 73.3194L159.369 83.4894L141.459 80.7494L143.019 70.5794L160.929 73.3194ZM140.659 80.6294L122.749 77.8894L124.309 67.7194L142.219 70.4594L140.659 80.6294ZM121.949 77.7594L104.039 75.0194L105.599 64.8494L123.509 67.5894L121.949 77.7594ZM121.829 78.5594L120.269 88.7294L102.359 85.9894L103.919 75.8194L121.829 78.5594ZM120.149 89.5194L118.589 99.6894L100.679 96.9494L102.239 86.7794L120.149 89.5194ZM120.949 89.6494L138.859 92.3894L137.299 102.559L119.389 99.8194L120.949 89.6494ZM139.659 92.5094L157.569 95.2494L156.009 105.419L138.099 102.679L139.659 92.5094ZM155.889 106.219L154.329 116.389L136.419 113.649L137.979 103.479L155.889 106.219ZM156.689 106.339L174.599 109.079L173.039 119.249L155.129 116.509L156.689 106.339ZM175.399 109.199L193.309 111.939L191.749 122.109L173.839 119.369L175.399 109.199ZM194.109 112.069L212.019 114.809L210.459 124.979L192.549 122.239L194.109 112.069ZM212.819 114.929L230.729 117.669L229.169 127.839L211.259 125.099L212.819 114.929ZM231.529 117.789L249.439 120.529L247.879 130.699L229.969 127.959L231.529 117.789ZM250.239 120.659L268.149 123.399L266.589 133.569L248.679 130.829L250.239 120.659ZM268.949 123.519L286.859 126.259L285.299 136.429L267.389 133.689L268.949 123.519ZM269.069 122.719L270.629 112.549L288.539 115.289L286.979 125.459L269.069 122.719ZM289.339 115.419L307.249 118.159L305.689 128.329L287.779 125.589L289.339 115.419ZM308.049 118.279L325.959 121.019L324.399 131.189L306.489 128.449L308.049 118.279ZM308.169 117.489L309.729 107.319L327.639 110.059L326.079 120.229L308.169 117.489ZM309.849 106.519L311.409 96.3494L329.319 99.0894L327.759 109.259L309.849 106.519ZM311.519 95.5594L313.079 85.3894L330.989 88.1294L329.429 98.2994L311.519 95.5594ZM310.729 95.4294L292.819 92.6894L294.379 82.5194L312.289 85.2594L310.729 95.4294ZM294.489 81.7294L296.049 71.5594L313.959 74.2994L312.399 84.4694L294.489 81.7294ZM293.699 81.5994L275.789 78.8594L277.349 68.6894L295.259 71.4294L293.699 81.5994ZM274.989 78.7394L257.069 75.9994L258.629 65.8294L276.539 68.5694L274.989 78.7394ZM256.279 75.8794L238.369 73.1394L239.929 62.9694L257.839 65.7094L256.279 75.8794ZM237.569 73.0094L219.649 70.2694L221.209 60.0994L239.119 62.8394L237.569 73.0094ZM218.859 70.1494L200.949 67.4094L202.509 57.2394L220.419 59.9794L218.859 70.1494ZM200.149 67.2894L182.239 64.5494L183.799 54.3794L201.709 57.1194L200.149 67.2894ZM181.439 64.4194L163.529 61.6794L165.089 51.5094L182.999 54.2494L181.439 64.4194ZM162.729 61.5594L144.819 58.8194L146.379 48.6494L164.289 51.3894L162.729 61.5594ZM144.019 58.6894L126.109 55.9494L127.669 45.7794L145.579 48.5194L144.019 58.6894ZM143.889 59.4894L142.329 69.6594L124.419 66.9194L125.979 56.7494L143.889 59.4894ZM123.629 66.7994L105.719 64.0594L107.279 53.8894L125.189 56.6294L123.629 66.7994ZM104.919 63.9294L87.0093 61.1894L88.5693 51.0194L106.479 53.7594L104.919 63.9294ZM104.799 64.7294L103.239 74.8994L85.3293 72.1594L86.8893 61.9894L104.799 64.7294ZM103.119 75.6894L101.559 85.8594L83.6493 83.1194L85.2093 72.9494L103.119 75.6894ZM101.439 86.6594L99.8793 96.8294L81.9693 94.0894L83.5293 83.9194L101.439 86.6594ZM99.7593 97.6294L98.1993 107.799L80.2893 105.059L81.8493 94.8894L99.7593 97.6294ZM100.559 97.7494L118.469 100.489L116.909 110.659L98.9993 107.919L100.559 97.7494ZM119.269 100.609L137.179 103.349L135.619 113.519L117.709 110.779L119.269 100.609ZM135.499 114.319L133.939 124.489L116.029 121.749L117.589 111.579L135.499 114.319ZM136.299 114.439L154.209 117.179L152.649 127.349L134.739 124.609L136.299 114.439ZM155.009 117.299L172.919 120.039L171.359 130.209L153.449 127.469L155.009 117.299ZM173.719 120.169L191.629 122.909L190.069 133.079L172.159 130.339L173.719 120.169ZM192.429 123.029L210.339 125.769L208.779 135.939L190.869 133.199L192.429 123.029ZM211.139 125.899L229.049 128.639L227.489 138.809L209.579 136.069L211.139 125.899ZM229.849 128.759L247.759 131.499L246.199 141.669L228.289 138.929L229.849 128.759ZM248.559 131.619L266.469 134.359L264.909 144.529L246.999 141.789L248.559 131.619ZM267.269 134.489L285.179 137.229L283.619 147.399L265.709 144.659L267.269 134.489ZM285.979 137.349L303.889 140.089L302.329 150.259L284.419 147.519L285.979 137.349ZM286.099 136.549L287.659 126.379L305.569 129.119L304.009 139.289L286.099 136.549ZM306.369 129.249L324.279 131.989L322.719 142.159L304.809 139.419L306.369 129.249ZM325.079 132.109L342.989 134.849L341.429 145.019L323.519 142.279L325.079 132.109ZM325.199 131.319L326.759 121.149L344.669 123.889L343.109 134.059L325.199 131.319ZM326.879 120.349L328.439 110.179L346.349 112.919L344.789 123.089L326.879 120.349ZM328.559 109.379L330.119 99.2094L348.029 101.949L346.469 112.119L328.559 109.379ZM330.229 98.4194L331.789 88.2494L349.699 90.9894L348.139 101.159L330.229 98.4194ZM331.909 87.4494L333.469 77.2794L351.379 80.0194L349.819 90.1894L331.909 87.4494ZM331.119 87.3294L313.209 84.5894L314.769 74.4194L332.679 77.1594L331.119 87.3294ZM314.879 73.6194L316.439 63.4494L334.349 66.1894L332.789 76.3594L314.879 73.6194ZM314.079 73.4994L296.169 70.7594L297.729 60.5894L315.639 63.3294L314.079 73.4994ZM295.369 70.6394L277.459 67.8994L279.019 57.7294L296.929 60.4694L295.369 70.6394ZM276.659 67.7794L258.749 65.0394L260.309 54.8694L278.219 57.6094L276.659 67.7794ZM257.949 64.9094L240.039 62.1694L241.599 51.9994L259.509 54.7394L257.949 64.9094ZM239.239 62.0494L221.329 59.3094L222.889 49.1394L240.799 51.8794L239.239 62.0494ZM220.529 59.1794L202.619 56.4394L204.179 46.2694L222.089 49.0094L220.529 59.1794ZM201.829 56.3194L183.919 53.5794L185.479 43.4094L203.389 46.1494L201.829 56.3194ZM183.119 53.4594L165.209 50.7194L166.769 40.5494L184.679 43.2894L183.119 53.4594ZM164.399 50.5894L146.489 47.8494L148.049 37.6794L165.959 40.4194L164.399 50.5894ZM145.699 47.7294L127.789 44.9894L129.349 34.8194L147.259 37.5594L145.699 47.7294ZM126.989 44.8694L109.069 42.1194L110.629 31.9494L128.539 34.6894L126.989 44.8694ZM126.859 45.6594L125.299 55.8294L107.389 53.0894L108.949 42.9194L126.859 45.6594ZM106.599 52.9694L88.6893 50.2294L90.2493 40.0594L108.159 42.7994L106.599 52.9694ZM80.1693 105.849L98.0793 108.589L96.5193 118.759L78.6093 116.019L80.1693 105.849ZM98.8793 108.709L116.789 111.449L115.229 121.619L97.3193 118.879L98.8793 108.709ZM115.109 122.419L113.549 132.589L95.6393 129.849L97.1993 119.679L115.109 122.419ZM115.909 122.539L133.819 125.279L132.259 135.449L114.349 132.709L115.909 122.539ZM134.619 125.409L152.529 128.149L150.969 138.319L133.069 135.569L134.619 125.409ZM153.329 128.269L171.239 131.009L169.679 141.179L151.769 138.439L153.329 128.269ZM172.039 131.129L189.949 133.869L188.389 144.039L170.479 141.299L172.039 131.129ZM190.749 133.999L208.659 136.739L207.099 146.909L189.189 144.169L190.749 133.999ZM209.459 136.859L227.369 139.599L225.809 149.769L207.899 147.029L209.459 136.859ZM228.169 139.719L246.079 142.459L244.519 152.629L226.609 149.889L228.169 139.719ZM246.879 142.589L264.789 145.329L263.229 155.499L245.319 152.759L246.879 142.589ZM265.589 145.449L283.499 148.189L281.939 158.359L264.029 155.619L265.589 145.449ZM284.299 148.319L302.209 151.059L300.649 161.229L282.739 158.489L284.299 148.319ZM303.009 151.179L320.919 153.919L319.359 164.089L301.449 161.349L303.009 151.179ZM303.129 150.379L304.689 140.209L322.599 142.949L321.039 153.119L303.129 150.379ZM323.399 143.079L341.309 145.819L339.749 155.989L321.839 153.249L323.399 143.079ZM352.779 70.8694L351.499 79.2294L333.589 76.4894L335.149 66.3194L351.259 68.7794C352.249 68.9394 352.939 69.8694 352.779 70.8694ZM93.7293 29.3694L109.839 31.8294L108.279 41.9994L90.3693 39.2594L91.6493 30.8994C91.7893 29.8994 92.7293 29.2194 93.7293 29.3694ZM77.2093 125.169L78.4893 116.809L96.3993 119.549L94.8393 129.719L78.7293 127.249C77.7493 127.109 77.0593 126.169 77.2093 125.169ZM336.269 166.679L320.159 164.219L321.719 154.049L339.629 156.789L338.349 165.149C338.199 166.139 337.269 166.829 336.269 166.679Z" fill="white"/>
</g>
<path opacity="0.5" d="M342.87 135.649L338.36 165.129C338.21 166.089 337.32 166.739 336.36 166.589L78.6895 127.149C77.7295 126.999 77.0795 126.109 77.2295 125.159L77.8295 121.219C77.8295 121.219 89.9395 111.459 97.5195 112.619C106.48 113.989 108.06 119.069 116.03 120.289C123.99 121.509 132.79 102.989 140.01 104.099C143.91 104.699 144.91 107.699 146.83 110.459C148.25 112.519 150.2 114.429 154.23 115.119C154.32 115.139 154.43 115.159 154.52 115.169C164.32 116.669 177.58 64.6393 191.07 66.7093C197.03 67.6193 199.44 79.1093 201.23 91.7793C203.5 107.799 204.78 125.729 211.03 126.689C222.21 128.399 226.01 105.719 236.4 107.319C242.93 108.319 245.31 120.429 250.81 130.009C254.06 135.689 258.41 140.479 265.38 141.539C271.71 142.509 275.94 141.039 279.23 138.729C285.68 134.219 288.56 126.519 296.62 127.759C301.39 128.489 303.14 132.169 304.91 135.639C306.46 138.669 308.04 141.539 311.72 142.109C316.05 142.769 319.73 136.579 323.64 131.069C326.85 126.549 330.2 122.489 334.19 123.099C338.26 123.719 340.66 128.609 341.87 132.099C342.56 134.099 342.87 135.649 342.87 135.649Z" fill="url(#paint0_linear_802_5209)"/>
<path opacity="0.5" d="M349.07 95.1393L338.36 165.129C338.21 166.089 337.32 166.739 336.36 166.589L78.6895 127.149C77.7295 126.999 77.0795 126.109 77.2295 125.159L77.8295 121.219C88.5295 122.859 94.2395 114.849 101.42 115.949C108.6 117.049 112.32 122.059 119.04 123.089C125.77 124.119 136.12 108.389 143.48 109.519C144.75 109.709 145.85 110.049 146.83 110.459C149.66 111.639 151.61 113.549 154.23 115.119C156.01 116.179 158.09 117.099 160.96 117.539C169.57 118.859 186.8 87.6894 196.79 89.2194C198.53 89.4894 199.97 90.4193 201.23 91.7793C207.13 98.2093 208.65 114.289 216.97 115.559C227.06 117.099 232.46 100.689 242.24 102.189C252.02 103.689 254.92 120.549 266.26 122.289C277.61 124.029 289.88 93.0494 301.65 94.8594C313.41 96.6594 316.78 112.569 327.01 114.129C338.22 115.849 349.07 95.1393 349.07 95.1393Z" fill="url(#paint1_linear_802_5209)"/>
<path d="M344.09 127.679L338.36 165.129C338.21 166.089 337.32 166.739 336.36 166.589L78.6895 127.149C77.7295 126.999 77.0795 126.109 77.2295 125.159L77.5295 123.229C77.8995 122.869 83.9695 117.139 90.1295 118.089C96.4995 119.059 96.5095 124.769 105.4 126.129C114.28 127.489 116.87 120.459 129.47 122.389C142.08 124.319 142.02 133.129 155.05 135.119C168.08 137.109 170.77 126.559 180.02 127.969C189.26 129.379 188.66 134.779 193.91 135.579C199.16 136.379 202.23 128.139 208.7 129.129C215.17 130.119 220.12 143.679 227.41 144.799C232.53 145.579 241.59 135.449 250.82 129.999C254.73 127.699 258.67 126.239 262.36 126.809C269.97 127.969 274.41 133.909 279.24 138.719C282.28 141.749 285.47 144.319 289.69 144.969C295.72 145.889 300.299 140.439 304.93 135.629C308.689 131.719 312.48 128.239 317.09 128.949C320.03 129.399 322.08 130.169 323.67 131.069C327.65 133.309 328.72 136.329 333.51 137.059C339.26 137.939 344.09 127.679 344.09 127.679Z" fill="url(#paint2_linear_802_5209)"/>
<path d="M109.119 25.5294L95.2793 23.4094C93.9293 23.1994 93.0093 21.9494 93.2193 20.5994C93.4293 19.2494 94.6793 18.3294 96.0293 18.5394L109.859 20.6594C111.209 20.8694 112.129 22.1194 111.919 23.4694C111.719 24.8094 110.459 25.7294 109.119 25.5294Z" fill="url(#paint3_linear_802_5209)"/>
<path d="M116.759 22.7393C116.829 22.7393 116.909 22.7493 116.979 22.7593L130.809 24.8793C131.199 24.9393 131.539 25.1493 131.769 25.4593C131.999 25.7793 132.099 26.1593 132.039 26.5493C131.929 27.2593 131.309 27.7893 130.589 27.7893C130.519 27.7893 130.439 27.7793 130.369 27.7693L116.539 25.6493C116.149 25.5893 115.809 25.3793 115.579 25.0693C115.349 24.7493 115.249 24.3693 115.309 23.9793C115.419 23.2693 116.039 22.7393 116.759 22.7393ZM116.759 21.7393C115.559 21.7393 114.509 22.6093 114.329 23.8293C114.119 25.1793 115.049 26.4293 116.389 26.6393L130.219 28.7593C130.349 28.7793 130.469 28.7893 130.599 28.7893C131.799 28.7893 132.849 27.9193 133.029 26.6993C133.239 25.3493 132.309 24.0993 130.969 23.8893L117.139 21.7693C117.009 21.7493 116.879 21.7393 116.759 21.7393Z" fill="url(#paint4_linear_802_5209)"/>
<path d="M137.859 25.9695C137.929 25.9695 138.009 25.9795 138.079 25.9895L151.909 28.1095C152.299 28.1695 152.639 28.3795 152.869 28.6895C153.099 29.0095 153.199 29.3895 153.139 29.7795C153.029 30.4895 152.409 31.0195 151.689 31.0195C151.619 31.0195 151.539 31.0095 151.469 30.9995L137.639 28.8795C137.249 28.8195 136.909 28.6095 136.679 28.2995C136.449 27.9795 136.349 27.5995 136.409 27.2095C136.529 26.4995 137.149 25.9695 137.859 25.9695ZM137.859 24.9695C136.659 24.9695 135.609 25.8395 135.429 27.0595C135.219 28.4095 136.149 29.6595 137.489 29.8695L151.329 31.9895C151.459 32.0095 151.579 32.0195 151.709 32.0195C152.909 32.0195 153.959 31.1495 154.139 29.9295C154.349 28.5795 153.419 27.3295 152.079 27.1195L138.249 24.9995C138.109 24.9795 137.989 24.9695 137.859 24.9695Z" fill="url(#paint5_linear_802_5209)"/>
<path d="M353.329 60.6794L353.499 59.5994L352.699 59.4094C352.679 59.2294 352.639 59.0594 352.569 58.8894L353.189 58.3494L352.539 57.4694L351.839 57.8994C351.699 57.7894 351.549 57.6994 351.389 57.6294L351.439 56.8094L350.359 56.6394L350.169 57.4394C349.989 57.4594 349.819 57.4994 349.649 57.5694L349.109 56.9494L348.229 57.5994L348.659 58.2994C348.549 58.4394 348.459 58.5894 348.389 58.7494L347.569 58.6994L347.399 59.7794L348.199 59.9694C348.219 60.1494 348.259 60.3194 348.329 60.4894L347.709 61.0294L348.359 61.9094L349.059 61.4794C349.199 61.5894 349.349 61.6794 349.509 61.7494L349.459 62.5694L350.539 62.7394L350.729 61.9394C350.909 61.9194 351.079 61.8794 351.249 61.8094L351.789 62.4294L352.669 61.7794L352.239 61.0794C352.349 60.9394 352.439 60.7894 352.509 60.6294L353.329 60.6794ZM350.259 60.9394C349.569 60.8294 349.089 60.1894 349.199 59.4894C349.309 58.7994 349.949 58.3194 350.649 58.4294C351.339 58.5394 351.819 59.1794 351.709 59.8794C351.599 60.5694 350.949 61.0494 350.259 60.9394Z" fill="url(#paint6_linear_802_5209)"/>
<path opacity="0.2" d="M197.791 179.684L194.846 179.233L191.608 200.387L194.554 200.838L197.791 179.684Z" fill="#0049FF"/>
<path d="M197.304 182.869L194.358 182.418L192.835 192.372L195.781 192.823L197.304 182.869Z" fill="#0049FF"/>
<path opacity="0.2" d="M190.354 184.003L187.408 183.552L184.17 204.706L187.116 205.157L190.354 184.003Z" fill="#0049FF"/>
<path d="M186.558 189.124L185.033 199.088L187.979 199.539L189.504 189.575L186.558 189.124Z" fill="#0049FF"/>
<path opacity="0.2" d="M184.342 178.932L181.396 178.481L178.159 199.635L181.104 200.086L184.342 178.932Z" fill="#0049FF"/>
<path d="M183.127 186.897L180.182 186.446L178.657 196.41L181.602 196.861L183.127 186.897Z" fill="#0049FF"/>
<path opacity="0.2" d="M203.774 184.873L200.828 184.422L197.59 205.576L200.536 206.026L203.774 184.873Z" fill="#0049FF"/>
<path d="M203.296 188.052L200.351 187.601L198.825 197.565L201.771 198.016L203.296 188.052Z" fill="#0049FF"/>
<path opacity="0.2" d="M211.352 179.633L208.406 179.183L205.168 200.337L208.114 200.787L211.352 179.633Z" fill="#0049FF"/>
<path d="M210.987 182.017L208.041 181.566L206.516 191.531L209.462 191.981L210.987 182.017Z" fill="#0049FF"/>
<path opacity="0.2" d="M217.143 186.104L214.197 185.653L210.959 206.807L213.905 207.258L217.143 186.104Z" fill="#0049FF"/>
<path d="M217.018 186.897L214.072 186.446L212.547 196.41L215.493 196.861L217.018 186.897Z" fill="#0049FF"/>
<path opacity="0.2" d="M225.454 176.053L222.508 175.603L219.27 196.756L222.216 197.207L225.454 176.053Z" fill="#0049FF"/>
<path d="M225.336 176.858L222.391 176.407L220.867 186.361L223.813 186.812L225.336 176.858Z" fill="#0049FF"/>
<path opacity="0.2" d="M230.035 190.392L227.089 189.941L223.851 211.095L226.797 211.546L230.035 190.392Z" fill="#0049FF"/>
<path d="M229.545 193.578L226.6 193.127L225.075 203.091L228.02 203.542L229.545 193.578Z" fill="#0049FF"/>
<path opacity="0.2" d="M236.474 192.643L233.528 192.192L230.29 213.346L233.236 213.797L236.474 192.643Z" fill="#0049FF"/>
<path d="M235.246 200.608L232.3 200.157L230.775 210.121L233.72 210.572L235.246 200.608Z" fill="#0049FF"/>
<path opacity="0.2" d="M245.134 180.365L242.188 179.915L238.951 201.068L241.896 201.519L245.134 180.365Z" fill="#0049FF"/>
<path d="M243.788 189.138L240.842 188.687L239.318 198.641L242.264 199.092L243.788 189.138Z" fill="#0049FF"/>
<path opacity="0.2" d="M250.324 190.692L247.378 190.241L244.14 211.395L247.086 211.846L250.324 190.692Z" fill="#0049FF"/>
<path d="M249.714 194.679L246.769 194.228L245.245 204.182L248.191 204.633L249.714 194.679Z" fill="#0049FF"/>
<path opacity="0.2" d="M257.792 186.184L254.847 185.733L251.609 206.887L254.555 207.338L257.792 186.184Z" fill="#0049FF"/>
<path d="M257.305 189.369L254.359 188.918L252.834 198.882L255.78 199.333L257.305 189.369Z" fill="#0049FF"/>
<path opacity="0.2" d="M265.873 177.695L262.928 177.244L259.69 198.398L262.636 198.848L265.873 177.695Z" fill="#0049FF"/>
<path d="M265.868 177.697L262.922 177.246L261.397 187.21L264.342 187.661L265.868 177.697Z" fill="#0049FF"/>
<path opacity="0.2" d="M270.454 192.106L267.509 191.655L264.271 212.809L267.217 213.26L270.454 192.106Z" fill="#0049FF"/>
<path d="M270.079 194.498L267.133 194.047L265.608 204.011L268.553 204.462L270.079 194.498Z" fill="#0049FF"/>
<path opacity="0.2" d="M275.643 202.425L272.697 201.974L269.459 223.128L272.405 223.579L275.643 202.425Z" fill="#0049FF"/>
<path d="M275.279 204.808L272.333 204.357L270.808 214.321L273.754 214.772L275.279 204.808Z" fill="#0049FF"/>
<path opacity="0.2" d="M283.974 192.242L281.028 191.791L277.791 212.945L280.736 213.396L283.974 192.242Z" fill="#0049FF"/>
<path d="M282.767 200.2L279.821 199.749L278.296 209.713L281.242 210.164L282.767 200.2Z" fill="#0049FF"/>
<path opacity="0.2" d="M292.435 181.293L289.489 180.842L286.251 201.996L289.197 202.447L292.435 181.293Z" fill="#0049FF"/>
<path d="M290.965 190.859L288.02 190.408L286.494 200.372L289.44 200.823L290.965 190.859Z" fill="#0049FF"/>
<path opacity="0.2" d="M297.223 194.265L294.277 193.814L291.04 214.968L293.985 215.418L297.223 194.265Z" fill="#0049FF"/>
<path d="M296.749 197.439L293.804 196.988L292.279 206.952L295.224 207.403L296.749 197.439Z" fill="#0049FF"/>
<path opacity="0.2" d="M303.302 198.804L300.356 198.353L297.119 219.507L300.064 219.958L303.302 198.804Z" fill="#0049FF"/>
<path d="M301.966 207.568L299.021 207.117L297.495 217.081L300.441 217.532L301.966 207.568Z" fill="#0049FF"/>
<path opacity="0.2" d="M310.935 193.212L307.989 192.761L304.751 213.915L307.697 214.366L310.935 193.212Z" fill="#0049FF"/>
<path d="M310.935 193.219L307.989 192.768L306.464 202.732L309.41 203.183L310.935 193.219Z" fill="#0049FF"/>
<path opacity="0.2" d="M316.554 200.825L313.608 200.374L310.371 221.528L313.316 221.979L316.554 200.825Z" fill="#0049FF"/>
<path d="M316.306 202.419L313.36 201.969L311.835 211.933L314.781 212.383L316.306 202.419Z" fill="#0049FF"/>
<path opacity="0.2" d="M323.616 198.984L320.67 198.533L317.432 219.687L320.378 220.138L323.616 198.984Z" fill="#0049FF"/>
<path d="M323.487 199.779L320.541 199.328L319.016 209.292L321.962 209.743L323.487 199.779Z" fill="#0049FF"/>
<path opacity="0.2" d="M329.814 202.715L326.868 202.264L323.63 223.418L326.576 223.868L329.814 202.715Z" fill="#0049FF"/>
<path d="M328.24 213.067L325.294 212.616L323.769 222.58L326.715 223.031L328.24 213.067Z" fill="#0049FF"/>
<path d="M222.86 232.098L167.386 223.607L167.122 225.327L222.597 233.818L222.86 232.098Z" fill="#999999" stroke="#263238" stroke-miterlimit="10" stroke-linecap="round" stroke-linejoin="round"/>
<path opacity="0.2" d="M258.13 111.15C258.13 111.15 250.61 115.32 255.4 126.62C260.18 137.93 289.32 156.49 288.73 165.93C288.73 165.93 258.82 147.29 250.51 158.05C250.51 158.05 273.1 179.96 275.45 196.44C277.79 212.93 285.48 220.23 303.13 229.63C320.78 239.03 359.25 288.65 359.25 288.65L353.5 205.35L297.51 142.15L269.82 126.38L258.13 111.15Z" fill="black" fill-opacity="0.7"/>
<path d="M410.08 259.67C410.08 259.67 360.78 292.05 360.77 292.05C360.74 292.06 360.72 292.07 360.69 292.07C360.6 292.07 360.52 292.01 360.48 291.92C360.26 291.34 338.45 233.13 333.23 228.59C329.34 225.21 327.64 220.8 327.01 218.65C327.01 218.64 327 218.64 327 218.63C326.99 218.61 326.99 218.58 326.98 218.55C326.79 217.91 326.7 217.49 326.68 217.38C326.49 216.92 322.91 208.9 313.81 202.92C310.38 200.66 306.39 199.04 302.17 197.32C295.97 194.81 289.59 192.22 285.08 187.43C284.32 186.62 283.61 185.75 282.97 184.8C275.8 174.3 264.73 162.71 261.04 160.33C257.21 157.85 250.59 158.27 250.53 158.28C250.41 158.29 250.31 158.21 250.29 158.1C250 156.41 250.57 154.6 251.91 153.01C253.75 150.82 256.6 149.51 259.54 149.51C265.24 149.51 273.09 152.54 277.05 156.28C280.92 159.93 290.17 162.82 291.22 163.14C292.71 162.26 296.18 164.15 297.51 164.95C295.98 159.5 296.6 157.4 296.84 156.87C293.56 152.62 276.48 140.04 267.41 133.73H267.4C264.9 131.98 263.02 130.72 262.2 130.24C257.97 127.75 254.47 119.96 255.15 114.52C255.37 112.75 256.05 111.48 257.16 110.74C258.12 110.1 259.21 109.98 260.01 110.01C260.69 110.03 261.17 110.15 261.22 110.16C261.26 110.18 261.3 110.2 261.33 110.23C261.41 110.34 269.9 120.41 272.84 121.99C274.28 122.76 281.94 126.63 289.22 130.23C290.33 130.78 291.43 131.33 292.5 131.85C292.52 130.3 292.59 124.22 293 122.36C293.28 121.12 295.26 119.35 297.51 118.32C298.56 117.84 300.54 117.15 301.94 117.91C302.49 118.22 303.79 119.02 305.59 120.14C306.47 120.68 307.49 121.32 308.61 122C308.99 121.45 310.18 119.83 310.93 119.39C311.68 118.95 315.83 118.18 317.31 118.7C318.6 119.17 322.74 121.8 327.12 124.58C327.74 124.97 328.37 125.37 329.01 125.77C329.24 125.34 329.78 124.44 330.29 124.24C332.24 123.45 335.4 123.29 337.04 123.88C338.52 124.42 343.6 128.17 348.52 131.8C351.22 133.8 353.81 135.71 355.51 136.86C355.57 136.88 355.62 136.91 355.65 136.96C356.14 137.29 356.55 137.55 356.86 137.73C360.48 139.8 369.38 186.48 369.47 186.95C370.05 190.08 372.17 193.31 374.41 196.73C376.6 200.07 379.08 203.86 380.57 208.22C383.42 216.55 389.91 228.74 399.42 243.64C400.28 244.99 401.17 246.36 402.08 247.75C404.65 251.69 407.39 255.75 410.08 259.67Z" fill="white"/>
<path opacity="0.4" d="M300.21 170.29C298.3 171.8 284.44 170.37 282.74 175.03C281.74 177.78 282.48 181.94 285.08 187.43C284.32 186.62 283.61 185.75 282.97 184.8C275.8 174.3 264.73 162.71 261.04 160.33C257.21 157.85 250.59 158.27 250.53 158.28C250.41 158.29 250.31 158.21 250.29 158.1C250 156.41 250.57 154.6 251.91 153.01C253.75 150.82 256.6 149.51 259.54 149.51C265.24 149.51 273.09 152.54 277.05 156.28C280.92 159.93 290.17 162.82 291.22 163.14C292.71 162.26 296.18 164.15 297.51 164.95C295.98 159.5 296.6 157.4 296.84 156.87C293.56 152.62 276.48 140.04 267.41 133.73H267.4C264.9 131.98 263.02 130.72 262.2 130.24C257.97 127.75 254.47 119.96 255.15 114.52C255.37 112.75 256.05 111.48 257.16 110.74C258.12 110.1 259.21 109.98 260.01 110.01C259.38 110.25 258.75 110.62 258.13 111.15C255.35 113.52 261.98 126.03 265.71 129.49C269.61 133.1 287.15 142.06 293.45 147.4C296.91 150.33 301.45 154.77 301.45 154.77C298.68 159.48 302.11 168.79 300.21 170.29Z" fill="#0049FF"/>
<path d="M364.61 93.7996C364.6 93.7096 364.6 93.6896 364.62 93.7296C364.63 93.7596 364.63 93.7796 364.61 93.7996Z" fill="#0049FF"/>
<path opacity="0.4" d="M399.42 243.64C391.99 236.57 380.93 225.56 378.86 220.73C375.7 213.33 373.59 206.5 369.66 201.52C365.74 196.55 357.76 143.47 355.47 143.32C353.24 143.16 358.35 164.3 358.62 165.4C358.4 164.73 355.54 155.72 352.8 145.45C349.96 134.78 347.09 134.2 347.09 134.2C343.28 134.96 343.26 137.67 341.31 137.63C339.37 137.59 332.67 132.84 332.67 132.84C326.18 133.78 301.83 118.1 301.83 118.1C296.29 118.85 294.99 123.69 299.72 128.23C304.46 132.78 311.52 138.3 311.52 138.3C306.96 140.52 290.22 131.13 290.22 131.13L289.22 130.23C290.33 130.78 291.43 131.33 292.5 131.85C292.52 130.3 292.59 124.22 293 122.36C293.28 121.12 295.26 119.35 297.51 118.32C298.56 117.84 300.54 117.15 301.94 117.91C302.49 118.22 303.79 119.02 305.59 120.14C306.47 120.68 307.49 121.32 308.61 122C308.99 121.45 310.18 119.83 310.93 119.39C311.68 118.95 315.83 118.18 317.31 118.7C318.6 119.17 322.74 121.8 327.12 124.58C327.74 124.97 328.37 125.37 329.01 125.77C329.24 125.34 329.78 124.44 330.29 124.24C332.24 123.45 335.4 123.29 337.04 123.88C338.52 124.42 343.6 128.17 348.52 131.8C351.22 133.8 353.81 135.71 355.51 136.86C355.57 136.88 355.62 136.91 355.65 136.96C356.14 137.29 356.55 137.55 356.86 137.73C360.48 139.8 369.38 186.48 369.47 186.95C370.05 190.08 372.17 193.31 374.41 196.73C376.6 200.07 379.08 203.86 380.57 208.22C383.42 216.55 389.91 228.74 399.42 243.64Z" fill="#0049FF"/>
<path d="M360.689 291.85C360.689 291.85 338.699 233.06 333.379 228.43C328.059 223.8 326.899 217.32 326.899 217.32C326.899 217.32 323.429 208.99 313.939 202.74C304.449 196.49 290.099 194.87 283.149 184.69C276.209 174.51 265.099 162.7 261.159 160.15C257.229 157.6 250.509 158.07 250.509 158.07C249.819 154.13 254.209 149.74 259.539 149.74C264.869 149.74 272.729 152.52 276.899 156.45C281.069 160.38 291.249 163.39 291.249 163.39C292.869 162.23 297.879 165.44 297.879 165.44C295.879 158.67 297.099 156.85 297.099 156.85C293.169 151.53 266.259 132.37 262.319 130.06C258.379 127.75 254.679 120.11 255.379 114.55C256.069 108.99 261.169 110.38 261.169 110.38C261.169 110.38 269.729 120.56 272.739 122.18C275.749 123.8 299.359 135.61 302.829 136.99C306.299 138.38 308.849 136.53 308.849 136.53" stroke="#263238" stroke-miterlimit="10" stroke-linecap="round" stroke-linejoin="round"/>
<path d="M292.719 132.199C292.719 132.199 292.749 124.499 293.209 122.409C293.669 120.329 299.279 116.709 301.829 118.099C304.379 119.489 323.129 131.819 328.019 132.359" stroke="#263238" stroke-miterlimit="10" stroke-linecap="round" stroke-linejoin="round"/>
<path d="M308.659 122.31C308.659 122.31 310.179 120.08 311.039 119.57C311.729 119.16 315.839 118.41 317.229 118.9C320.009 119.9 336.379 131.2 339.159 131.89" stroke="#263238" stroke-miterlimit="10" stroke-linecap="round" stroke-linejoin="round"/>
<path d="M329.089 126.09C329.089 126.09 329.799 124.67 330.369 124.44C332.349 123.64 335.419 123.53 336.969 124.09C339.519 125.02 353.519 136.07 356.759 137.92C359.999 139.77 368.099 180.74 369.259 186.99C370.419 193.24 377.359 199.49 380.369 208.29C383.379 217.09 390.549 230.51 401.899 247.87C403.889 250.92 405.979 254.04 408.069 257.1" stroke="#263238" stroke-miterlimit="10" stroke-linecap="round" stroke-linejoin="round"/>
<path d="M306.989 148.509C306.989 148.509 308.029 143.819 310.809 141.739C313.589 139.659 317.409 142.959 320.179 143.299" stroke="#263238" stroke-miterlimit="10" stroke-linecap="round" stroke-linejoin="round"/>
<path d="M325.909 141.049C325.909 141.049 327.469 135.659 330.249 134.439C333.029 133.219 337.309 136.869 339.159 137.039" stroke="#263238" stroke-miterlimit="10" stroke-linecap="round" stroke-linejoin="round"/>
<path d="M344.139 136.179C344.139 136.179 346.219 134.209 347.089 134.199C347.959 134.189 351.599 138.009 352.379 138.269C353.159 138.529 354.119 137.099 355.459 137.079" stroke="#263238" stroke-miterlimit="10" stroke-linecap="round" stroke-linejoin="round"/>
<path d="M337.81 131.3C337.81 131.3 340.32 131.07 342.14 132.37" stroke="#263238" stroke-miterlimit="10" stroke-linecap="round" stroke-linejoin="round"/>
<path d="M297.089 156.839C297.089 156.839 295.699 153.279 296.399 151.459" stroke="#263238" stroke-miterlimit="10" stroke-linecap="round" stroke-linejoin="round"/>
<path d="M299.779 130.719C299.779 130.719 301.429 132.659 301.519 134.199C301.609 135.739 305.559 137.629 305.559 137.629" stroke="#263238" stroke-miterlimit="10" stroke-linecap="round" stroke-linejoin="round"/>
<path d="M326.249 131.9C326.249 131.9 328.509 131.09 329.729 131.9" stroke="#263238" stroke-miterlimit="10" stroke-linecap="round" stroke-linejoin="round"/>
<path d="M297.089 161.53C297.089 161.53 296.629 157.94 299.779 155.51" stroke="#263238" stroke-miterlimit="10" stroke-linecap="round" stroke-linejoin="round"/>
<path d="M297.869 165.439C297.869 165.439 295.289 167.669 295.289 169.059" stroke="#263238" stroke-miterlimit="10" stroke-linecap="round" stroke-linejoin="round"/>
<path d="M285.999 161.53C289.059 162.67 291.599 167.43 293.449 168.24" stroke="#263238" stroke-miterlimit="10" stroke-linecap="round" stroke-linejoin="round"/>
<path d="M323.079 146.37C324.929 149.03 329.099 168.36 333.259 174.49" stroke="#263238" stroke-miterlimit="10" stroke-linecap="round" stroke-linejoin="round"/>
<path d="M338.589 140.91C338.939 141.14 341.369 148.66 341.369 148.66" stroke="#263238" stroke-miterlimit="10" stroke-linecap="round" stroke-linejoin="round"/>
<path d="M369.659 188.56C370.639 194.87 372.959 199.73 372.959 199.73" stroke="#263238" stroke-miterlimit="10" stroke-linecap="round" stroke-linejoin="round"/>
<path d="M327.209 218.579C326.889 217.309 325.549 208.979 323.909 206.199" stroke="#263238" stroke-miterlimit="10" stroke-linecap="round" stroke-linejoin="round"/>
<path opacity="0.2" d="M46.96 348.56C46.96 348.56 79.5 304.81 104.03 296.8C128.57 288.79 129.78 277.92 128.78 257.64C127.78 237.36 128.52 216.92 121.82 214.48C115.12 212.04 129.9 185.56 122.8 175.07L76.38 248.02L46.96 348.56Z" fill="black" fill-opacity="0.7"/>
<path d="M39.0696 360.75C38.9296 360.71 38.7696 360.65 38.5796 360.59C38.9696 360.81 39.2096 360.95 39.2796 360.98C39.2496 360.94 39.1796 360.87 39.0696 360.75ZM118.17 226.54C114.12 224.67 106.23 215.9 105.24 214.8C110.26 206.38 115.18 198.26 116.89 196.31C120.44 192.27 124.77 180.64 123.01 175C121.4 169.82 116.13 170.65 115.41 170.79C115.36 170.8 115.33 170.81 115.33 170.81C115.27 170.82 115.23 170.85 115.2 170.9C115.09 171.09 104.36 189.18 101.03 193.51C99.4396 195.57 95.7796 200.26 92.0696 204.96C91.8796 204.93 91.4796 204.86 90.9596 204.79C89.2396 204.58 86.0796 204.32 83.9096 204.99C83.8396 205.01 83.7596 205.04 83.6796 205.07C82.9096 205.36 81.6996 206.01 80.2496 206.89C80.1096 206.83 79.8296 206.71 79.4596 206.56C77.8796 205.9 74.6096 204.63 73.0596 204.56C71.1696 204.46 64.5096 207.55 60.5296 210.06C59.9096 209.86 56.1396 208.73 52.1096 208.89C49.0596 209.02 42.8396 211.55 37.8396 213.58C35.6196 214.48 33.6996 215.26 32.5796 215.61C32.2396 215.72 31.9196 215.81 31.6096 215.91C28.6296 216.8 26.9896 217.3 24.9096 221.46C22.7496 225.78 20.4196 241.89 19.2996 249.63L19.1496 250.68C18.7196 253.64 18.7896 258.94 18.8596 264.55C18.9696 272.35 19.0796 280.41 17.9196 283.57C16.1896 288.26 13.6296 291.98 11.7596 294.69C11.4296 295.16 11.1296 295.6 10.8496 296.02C9.08961 298.63 8.22961 300.93 7.13961 303.83C6.29961 306.05 5.24961 308.49 4.22961 310.72C2.34961 314.85 0.599609 318.26 0.599609 318.26C0.599609 318.26 35.9796 357.32 39.0696 360.75C39.3796 360.86 39.5596 360.91 39.5796 360.91C39.6996 360.71 46.2396 349.53 53.1696 338.5C59.1396 328.98 65.3996 319.57 68.0696 317.41C72.4496 313.86 74.6496 308.97 75.7296 305.49C77.1696 300.86 86.3596 295.15 95.2496 289.63C105.08 283.53 115.23 277.22 115.59 272C115.78 269.3 116.4 264.83 117.12 259.64C119.07 245.58 121.49 228.07 118.17 226.54ZM101.33 249.02L96.9596 253.3C96.3396 249.8 92.0896 245.15 91.4196 244.44C91.7796 242.9 91.9296 241.06 92.0696 239.34C92.2296 237.39 92.3996 235.37 92.8796 235.01C93.3596 234.65 95.5696 231.04 99.1696 225C99.4696 229.23 103.13 233.89 103.67 234.56L101.33 249.02Z" fill="white"/>
<path opacity="0.4" d="M49.4395 236.029C48.1495 247.549 36.8595 276.129 36.8595 276.129L34.8195 247.339C34.8195 247.339 26.1095 286.409 23.6595 287.819C21.2095 289.219 17.0195 296.699 14.6395 302.629C13.0495 306.619 7.62949 309.349 4.22949 310.719C5.24949 308.489 6.29949 306.049 7.13949 303.829C8.22949 300.929 9.08949 298.629 10.8495 296.019C11.1295 295.599 11.4295 295.16 11.7595 294.689C13.6295 291.979 16.1895 288.259 17.9195 283.569C19.0795 280.409 18.9695 272.349 18.8595 264.549C18.7895 258.939 18.7195 253.639 19.1495 250.679L19.2995 249.629C20.4195 241.889 22.7495 225.779 24.9095 221.459C26.9895 217.299 28.6295 216.8 31.6095 215.91C31.9195 215.81 32.2395 215.719 32.5795 215.609C33.6995 215.259 35.6195 214.479 37.8395 213.579C42.8395 211.549 49.0595 209.019 52.1095 208.889C56.1395 208.729 59.9095 209.859 60.5295 210.059C64.5095 207.549 71.1695 204.459 73.0595 204.559C74.6095 204.629 77.8795 205.899 79.4595 206.559C72.8695 210.029 61.6995 218.309 61.6995 218.309C49.0295 221.009 49.4395 236.029 49.4395 236.029Z" fill="#0049FF"/>
<path opacity="0.4" d="M71.8193 220.729C71.8193 220.729 78.7293 215.999 81.9693 214.479C85.2093 212.959 86.2493 206.899 83.9693 205.189C83.8893 205.129 83.7993 205.089 83.6793 205.069C83.7593 205.039 83.8393 205.009 83.9093 204.989C86.0793 204.319 89.2393 204.579 90.9593 204.789C86.7693 211.079 83.4893 215.899 82.6193 216.939C79.6893 220.439 71.8193 220.729 71.8193 220.729Z" fill="#0049FF"/>
<path opacity="0.4" d="M88.3496 260.199L89.8796 260.859C88.9496 264.569 88.3496 260.199 88.3496 260.199Z" fill="#0049FF"/>
<path opacity="0.4" d="M118.17 226.54C114.12 224.67 106.23 215.9 105.24 214.8C110.26 206.38 115.18 198.26 116.89 196.31C120.44 192.27 124.77 180.64 123.01 175C121.4 169.82 116.13 170.65 115.41 170.79L115.38 171.01C115.38 171.01 121.08 171.72 121.07 179.96C121.06 188.21 106.26 204.53 106.26 204.53C106.26 204.53 91.0399 233.08 90.0299 232.65C89.0199 232.22 86.7999 251.73 86.7999 251.73C86.7999 251.73 91.0399 255.34 90.0299 260.2C89.9799 260.44 89.9299 260.66 89.8799 260.86L96.3999 263.67C96.3999 263.67 102.94 259.08 106.26 265.83C109.59 272.57 74.3799 296.7 71.6099 300.26C71.6099 300.26 71.2199 313.71 66.0799 315.69C62.7499 316.97 56.8799 329.69 53.1699 338.5C59.1399 328.98 65.3999 319.57 68.0699 317.41C72.4499 313.86 74.6499 308.97 75.7299 305.49C77.1699 300.86 86.3599 295.15 95.2499 289.63C105.08 283.53 115.23 277.22 115.59 272C115.78 269.3 116.4 264.83 117.12 259.64C119.07 245.58 121.49 228.07 118.17 226.54ZM101.33 249.02L96.9599 253.3C96.3399 249.8 92.0899 245.15 91.4199 244.44C91.7799 242.9 91.9299 241.06 92.0699 239.34C92.2299 237.39 92.3999 235.37 92.8799 235.01C93.3599 234.65 95.5699 231.04 99.1699 225C99.4699 229.23 103.13 233.89 103.67 234.56L101.33 249.02Z" fill="#0049FF"/>
<path d="M75.5293 220.99C75.5293 220.99 79.5793 220.31 82.6193 216.94C85.6593 213.56 97.8193 198.03 101.189 193.64C104.569 189.25 115.369 171.01 115.369 171.01C115.369 171.01 121.109 169.66 122.799 175.06C124.489 180.46 120.439 191.94 116.719 196.16C113.009 200.38 94.0893 233.82 92.7393 234.83C91.3893 235.84 92.3993 245.31 89.6993 247.33" stroke="#263238" stroke-miterlimit="10" stroke-linecap="round" stroke-linejoin="round"/>
<path d="M91.1797 244.5C91.1797 244.5 96.4697 250.04 96.7997 253.75L101.53 249.12L103.89 234.5C103.89 234.5 99.2197 228.87 99.3597 224.26" stroke="#263238" stroke-miterlimit="10" stroke-linecap="round" stroke-linejoin="round"/>
<path d="M104.98 214.83C104.98 214.83 113.69 224.71 118.08 226.74C122.47 228.77 116.05 262.2 115.38 271.99C114.7 281.78 78.5696 295.61 75.5296 305.42C74.3196 309.32 72.0396 313.91 67.9296 317.24C62.0696 321.99 39.3896 360.8 39.3896 360.8" stroke="#263238" stroke-miterlimit="10" stroke-linecap="round" stroke-linejoin="round"/>
<path d="M92.1591 205.19C92.1591 205.19 87.0091 204.24 83.9691 205.19C80.9291 206.14 68.0991 215.25 65.0591 216.94C62.0191 218.63 57.6291 218.97 56.6191 220.99" stroke="#263238" stroke-miterlimit="10" stroke-linecap="round" stroke-linejoin="round"/>
<path d="M80.27 207.129C80.27 207.129 75.08 204.869 73.06 204.769C71.03 204.669 62.93 208.499 59.21 211.199C55.5 213.899 51.89 215.249 49.75 215.819" stroke="#263238" stroke-miterlimit="10" stroke-linecap="round" stroke-linejoin="round"/>
<path d="M60.5496 210.29C60.5496 210.29 56.4996 208.92 52.1096 209.1C47.7196 209.28 36.2396 214.69 32.6396 215.81C29.0396 216.94 27.3496 217.05 25.0996 221.55C22.8496 226.05 20.3696 243.73 19.3596 250.71C18.3496 257.69 20.1496 278.12 18.1196 283.64C16.0896 289.16 12.9596 293.26 11.0296 296.14C7.17961 301.86 7.60961 306.18 0.599609 318.27" stroke="#263238" stroke-miterlimit="10" stroke-linecap="round" stroke-linejoin="round"/>
<path d="M52.3993 222.51C48.0093 226.39 48.8293 233.83 49.4393 236.02C50.0593 238.22 47.3293 246.99 46.4893 251.72" stroke="#263238" stroke-miterlimit="10" stroke-linecap="round" stroke-linejoin="round"/>
<path d="M80.27 226.229C72.33 226.399 69.79 231.799 69.29 235.349" stroke="#263238" stroke-miterlimit="10" stroke-linecap="round" stroke-linejoin="round"/>
<path d="M46.4891 218.29C44.1291 218.12 38.0491 221.84 36.8691 227.91" stroke="#263238" stroke-miterlimit="10" stroke-linecap="round" stroke-linejoin="round"/>
<path d="M103.899 234.5C103.899 234.5 105.079 231.12 106.259 230.79" stroke="#263238" stroke-miterlimit="10" stroke-linecap="round" stroke-linejoin="round"/>
<path d="M101.53 249.13C101.53 249.13 100.4 252.91 99.3597 254.94C98.3197 256.97 99.3597 260.13 99.3597 260.13" stroke="#263238" stroke-miterlimit="10" stroke-linecap="round" stroke-linejoin="round"/>
<path d="M96.8099 253.75C96.6399 257.13 92.9299 260.75 92.1699 260.12" stroke="#263238" stroke-miterlimit="10" stroke-linecap="round" stroke-linejoin="round"/>
<path d="M65.0097 248.01C64.8897 251.72 58.1396 278.91 58.1396 278.91" stroke="#263238" stroke-miterlimit="10" stroke-linecap="round" stroke-linejoin="round"/>
<defs>
<linearGradient id="paint0_linear_802_5209" x1="210.039" y1="66.6492" x2="210.039" y2="166.611" gradientUnits="userSpaceOnUse">
<stop stop-color="#0049FF"/>
<stop offset="1" stop-color="#00E0FF" stop-opacity="0"/>
</linearGradient>
<linearGradient id="paint1_linear_802_5209" x1="213.139" y1="89.1648" x2="213.139" y2="166.611" gradientUnits="userSpaceOnUse">
<stop stop-color="#0049FF"/>
<stop offset="1" stop-color="#00E0FF" stop-opacity="0"/>
</linearGradient>
<linearGradient id="paint2_linear_802_5209" x1="210.649" y1="117.983" x2="210.649" y2="166.611" gradientUnits="userSpaceOnUse">
<stop stop-color="#0049FF"/>
<stop offset="1" stop-color="#00E0FF" stop-opacity="0"/>
</linearGradient>
<linearGradient id="paint3_linear_802_5209" x1="102.569" y1="18.5095" x2="102.569" y2="25.5567" gradientUnits="userSpaceOnUse">
<stop stop-color="#0049FF"/>
<stop offset="1" stop-color="#00E0FF" stop-opacity="0"/>
</linearGradient>
<linearGradient id="paint4_linear_802_5209" x1="123.679" y1="21.7393" x2="123.679" y2="28.7893" gradientUnits="userSpaceOnUse">
<stop stop-color="#0049FF"/>
<stop offset="1" stop-color="#00E0FF" stop-opacity="0"/>
</linearGradient>
<linearGradient id="paint5_linear_802_5209" x1="144.784" y1="24.9695" x2="144.784" y2="32.0195" gradientUnits="userSpaceOnUse">
<stop stop-color="#0049FF"/>
<stop offset="1" stop-color="#00E0FF" stop-opacity="0"/>
</linearGradient>
<linearGradient id="paint6_linear_802_5209" x1="350.449" y1="56.6394" x2="350.449" y2="62.7394" gradientUnits="userSpaceOnUse">
<stop stop-color="#0049FF"/>
<stop offset="1" stop-color="#00E0FF" stop-opacity="0"/>
</linearGradient>
</defs>
</svg>
