<svg version="1.2" xmlns="http://www.w3.org/2000/svg" viewBox="0 0 586 532" width="586" height="532"><defs><linearGradient id="P" gradientUnits="userSpaceOnUse"/><linearGradient id="g1" x1="-138" y1="0" x2="0" y2="0" href="#P"><stop stop-color="#a694ff"/><stop offset="0" stop-color="#9782ff"/><stop offset=".1" stop-color="#7b60ff"/><stop offset=".2" stop-color="#694bff"/><stop offset=".2" stop-color="#6343ff"/><stop offset=".3" stop-color="#6c4eff"/><stop offset=".5" stop-color="#8066ff"/><stop offset=".7" stop-color="#8c74ff"/><stop offset=".9" stop-color="#9079ff"/></linearGradient><linearGradient id="g2" x1="-138" y1="0" x2="0" y2="0" href="#P"><stop stop-color="#a694ff"/><stop offset="0" stop-color="#9782ff"/><stop offset=".1" stop-color="#7b60ff"/><stop offset=".2" stop-color="#694bff"/><stop offset=".2" stop-color="#6343ff"/><stop offset=".3" stop-color="#6c4eff"/><stop offset=".5" stop-color="#8066ff"/><stop offset=".7" stop-color="#8c74ff"/><stop offset=".9" stop-color="#9079ff"/></linearGradient><linearGradient id="g3" x1="-138" y1="0" x2="0" y2="0" href="#P"><stop stop-color="#a694ff"/><stop offset="0" stop-color="#9782ff"/><stop offset=".1" stop-color="#7b60ff"/><stop offset=".2" stop-color="#694bff"/><stop offset=".2" stop-color="#6343ff"/><stop offset=".3" stop-color="#6c4eff"/><stop offset=".5" stop-color="#8066ff"/><stop offset=".7" stop-color="#8c74ff"/><stop offset=".9" stop-color="#9079ff"/></linearGradient><linearGradient id="g4" x1="331.6" y1="339.5" x2="351" y2="366.9" href="#P"><stop offset=".2" stop-color="#6343ff"/><stop offset=".3" stop-color="#6c4eff"/><stop offset=".5" stop-color="#856cff"/><stop offset=".6" stop-color="#9079ff"/><stop offset=".8" stop-color="#927bff"/><stop offset=".9" stop-color="#9782ff"/><stop offset="1" stop-color="#a18dff"/><stop offset="1" stop-color="#a694ff"/></linearGradient><linearGradient id="g5" x1="355" y1="372.9" x2="374.3" y2="400.3" href="#P"><stop offset=".2" stop-color="#6343ff"/><stop offset=".3" stop-color="#6c4eff"/><stop offset=".5" stop-color="#856cff"/><stop offset=".6" stop-color="#9079ff"/><stop offset=".8" stop-color="#927bff"/><stop offset=".9" stop-color="#9782ff"/><stop offset="1" stop-color="#a18dff"/><stop offset="1" stop-color="#a694ff"/></linearGradient><linearGradient id="g6" x1="395.8" y1="348.8" x2="415.2" y2="376.1" href="#P"><stop offset=".2" stop-color="#6343ff"/><stop offset=".3" stop-color="#6c4eff"/><stop offset=".5" stop-color="#856cff"/><stop offset=".6" stop-color="#9079ff"/><stop offset=".8" stop-color="#927bff"/><stop offset=".9" stop-color="#9782ff"/><stop offset="1" stop-color="#a18dff"/><stop offset="1" stop-color="#a694ff"/></linearGradient><linearGradient id="g7" x1="412.6" y1="372.6" x2="432" y2="399.9" href="#P"><stop offset=".2" stop-color="#6343ff"/><stop offset=".3" stop-color="#6c4eff"/><stop offset=".5" stop-color="#856cff"/><stop offset=".6" stop-color="#9079ff"/><stop offset=".8" stop-color="#927bff"/><stop offset=".9" stop-color="#9782ff"/><stop offset="1" stop-color="#a18dff"/><stop offset="1" stop-color="#a694ff"/></linearGradient><linearGradient id="g8" x1="305" y1="324.5" x2="293" y2="383.7" href="#P"><stop offset=".2" stop-color="#6343ff"/><stop offset=".3" stop-color="#6c4eff"/><stop offset=".5" stop-color="#856cff"/><stop offset=".6" stop-color="#9079ff"/><stop offset=".8" stop-color="#927bff"/><stop offset=".9" stop-color="#9782ff"/><stop offset="1" stop-color="#a18dff"/><stop offset="1" stop-color="#a694ff"/></linearGradient><linearGradient id="g9" x1="303.9" y1="339" x2="291.9" y2="398.2" href="#P"><stop offset=".2" stop-color="#6343ff"/><stop offset=".3" stop-color="#6c4eff"/><stop offset=".5" stop-color="#856cff"/><stop offset=".6" stop-color="#9079ff"/><stop offset=".8" stop-color="#927bff"/><stop offset=".9" stop-color="#9782ff"/><stop offset="1" stop-color="#a18dff"/><stop offset="1" stop-color="#a694ff"/></linearGradient><linearGradient id="g10" x1="302.9" y1="353.5" x2="290.8" y2="412.7" href="#P"><stop offset=".2" stop-color="#6343ff"/><stop offset=".3" stop-color="#6c4eff"/><stop offset=".5" stop-color="#856cff"/><stop offset=".6" stop-color="#9079ff"/><stop offset=".8" stop-color="#927bff"/><stop offset=".9" stop-color="#9782ff"/><stop offset="1" stop-color="#a18dff"/><stop offset="1" stop-color="#a694ff"/></linearGradient><linearGradient id="g11" x1="350.5" y1="441.2" x2="360.8" y2="135.1" href="#P"><stop offset=".3" stop-color="#6343ff" stop-opacity="0"/><stop offset=".4" stop-color="#6646ff" stop-opacity=".3"/><stop offset=".5" stop-color="#6f51ff" stop-opacity=".6"/><stop offset=".6" stop-color="#7d63ff" stop-opacity=".8"/><stop offset=".7" stop-color="#9079ff"/></linearGradient></defs><style>.a{fill:none;stroke:#fff;stroke-width:.8}.b{opacity:.5;fill:none;stroke:#fff;stroke-width:.8}.c{opacity:.2;fill:none;stroke:#fff;stroke-width:.8}.d{opacity:.5;fill:none;stroke:#fff;stroke-width:.9}.e{opacity:.2;fill:none;stroke:#fff;stroke-width:.9}.f{fill:#f3645b}.g{fill:#fff}.h{fill:#ffd601}.i{fill:#8dface}.j{fill:#0049ff}.k{fill:#fff;stroke:#044cff}.l{fill:#f8f6ff;stroke:#0049ff}.m{fill:#0049ff;stroke:#0049ff}.n{fill:#e2dbff}.o{fill:none;stroke:url(#g1);stroke-width:2.2}.p{fill:none;stroke:url(#g2);stroke-width:2.2}.q{fill:none;stroke:url(#g3);stroke-width:2.2}.r{fill:none;stroke:#e2dbff;stroke-width:2.4}.s{fill:url(#g4)}.t{fill:url(#g5)}.u{fill:url(#g6)}.v{fill:url(#g7)}.w{fill:url(#g8)}.x{fill:url(#g9)}.y{fill:url(#g10)}.z{fill:url(#g11)}.A{fill:none;stroke:#e2dbff;stroke-width:2.7}.B{fill:none;stroke:#e2dbff;stroke-width:1.6}.C{fill:none;stroke:#e2dbff;stroke-width:1.6;stroke-dasharray:4.8861}.D{fill:none;stroke:#e2dbff;stroke-width:1.6;stroke-dasharray:6.5148}.E{opacity:.9;fill:#5df5ec}.F{opacity:.4;fill:#0049ff}.G{opacity:.7;fill:#0049ff}</style><path class="a" d="m576.4 405.3c-15.5-3.7-25.1-19.2-21.4-34.7 3.6-15.4 19.1-25 34.6-21.3 15.5 3.6 25 19.1 21.4 34.6-3.7 15.4-19.2 25-34.6 21.4z"/><path class="b" d="m545.6 414.5c-20.6-20.6-20.6-54 0-74.7 20.6-20.6 54.1-20.6 74.7 0 20.6 20.7 20.6 54.1 0 74.7-20.6 20.7-54.1 20.7-74.7 0z"/><path class="c" d="m531.4 428.8c-28.5-28.5-28.5-74.7 0-103.2 28.5-28.5 74.6-28.5 103.1 0 28.5 28.5 28.5 74.7 0 103.2-28.5 28.4-74.6 28.4-103.1 0z"/><path class="a" d="m61.2 194.2c-17.7-17.7-17.7-46.3 0-64 17.7-17.7 46.3-17.7 64 0 17.7 17.7 17.7 46.3 0 64-17.7 17.7-46.3 17.7-64 0z"/><path class="d" d="m34.4 220.9c-32.4-32.4-32.4-85 0-117.5 32.5-32.4 85.1-32.4 117.5 0 32.5 32.5 32.5 85.1 0 117.5-32.4 32.5-85 32.5-117.5 0z"/><path class="e" d="m12.1 243.3c-44.8-44.8-44.8-117.4 0-162.2 44.8-44.8 117.4-44.8 162.2 0 44.8 44.8 44.8 117.4 0 162.2-44.8 44.8-117.4 44.8-162.2 0z"/><path class="f" d="m42.5 226.5c0-2.8-4.3-2.8-4.3 0 0 2.7 4.3 2.7 4.3 0z"/><path class="g" d="m136.3 110.9c0.1-2.8-4.3-2.8-4.2 0-0.1 2.8 4.3 2.8 4.2 0z"/><path class="h" d="m7.3 121.1c0.1-2.8-4.3-2.8-4.2 0-0.1 2.7 4.3 2.7 4.2 0z"/><path class="i" d="m50.1 165.3c0-2.7-4.3-2.7-4.3 0 0 2.8 4.3 2.8 4.3 0z"/><path class="j" d="m504.1 96.1l-33.5 400c-0.7 8.2-2.6 14.6-5.1 19.5-5.1 10.2-15.8 16.4-27.2 16.4h-180c-32.9 0-32.1-32.6-32.1-32.6l206.9-2.8 27.2-445.9c27 0.6 47 0.6 43.8 45.4z"/><path class="k" d="m481.4 59.2c3.7 5.3 5 12.1 4.2 18.7l-34.9 411.1c-1 15.4-13.8 27.3-29.2 27.3h-180.1c-9 0-15.7-9.3-14.6-21.2h-0.5 0.5l37.7-422.6c0.6-5.9 2.9-11.3 6.3-15.1 3.3-3.9 7.7-6.2 12.2-6.2h173.2 9.8c6.1 0 11.9 2.9 15.4 8z"/><path class="j" d="m440.7 326.6h-178.6c-3.1 0-5.5-2.6-5.2-5.7l13.4-123.7c0.2-3.2 3-5.8 6.3-5.8h178.6c3.1 0 5.4 2.5 5.2 5.6l-13.4 123.8c-0.2 3.2-3.1 5.8-6.3 5.8z"/><path class="j" d="m361.1 494.9h-50.1c-1.8 0-3.3-1.5-3.3-3.3 0-1.9 1.5-3.4 3.3-3.4h50.1c4.3 0 4.3 6.8 0 6.7z"/><path fill-rule="evenodd" class="l" d="m485.6 77.9l-9 106.4h-221.9l9.8-111.8q0 0 0 0c0.5-5.9 2.9-11.3 6.3-15.1 3.3-3.9 7.7-6.2 12.2-6.2h173.2 9.8c6.8-0.2 12.2 3.4 15.6 8.5 3.5 5.2 5 12 4 18.2zm-63.2-6.9c-1.3 0-2.2 0.4-2.8 1.2-0.7 0.7-1 1.7-1 2.6 0 0.9 0.3 1.9 1 2.6 0.6 0.8 1.5 1.3 2.8 1.2q0 0 0 0v-0.5c4.3 0.1 4.3-6.7 0-6.6z"/><path class="m" d="m404.4 77.6h-92.6c-1.5 0-2.8-1.3-2.8-2.8 0-1.5 1.3-2.7 2.8-2.7h92.6c1.5 0 2.8 1.2 2.8 2.7 0 1.5-1.3 2.8-2.8 2.8z"/><path fill-rule="evenodd" class="j" d="m278 143q-1.4 0-2.6-0.5-1.1-0.5-1.8-1.3-0.8-0.9-1.1-2-0.2-1.2 0-2.6 0.3-1.3 1-2.5 0.7-1.2 1.8-2 1.1-0.9 2.4-1.3 1.3-0.5 2.7-0.5 1.6 0 2.8 0.5 1.1 0.5 1.8 1.6l-1.8 1.3q-0.5-0.7-1.3-1-0.7-0.4-1.7-0.4-1 0-1.9 0.3-0.9 0.3-1.6 0.9-0.7 0.6-1.2 1.4-0.4 0.8-0.6 1.7-0.2 1 0 1.8 0.1 0.8 0.6 1.3 0.5 0.6 1.3 0.9 0.7 0.4 1.7 0.4 1 0 1.9-0.4 0.9-0.4 1.7-1.1l1.3 1.4q-1.1 1-2.5 1.5-1.3 0.6-2.9 0.6zm10.8-0.1q-1.2 0-2.1-0.4-0.8-0.5-1.2-1.4-0.3-0.9 0-2.3l1-5.4h2.2l-0.9 5.1q-0.3 1.2 0.2 1.9 0.4 0.6 1.5 0.6 0.8 0 1.4-0.3 0.7-0.4 1.1-1 0.5-0.6 0.7-1.6l0.9-4.7h2.2l-1.8 9.4h-2.1l0.2-1.2q-0.5 0.5-1.2 0.8-1 0.5-2.1 0.5zm3.3-1.3q0.3-0.3 0.5-0.6l-0.2-0.8zm4.8 1.2l1.8-9.3h2.1l-0.2 1.3q0.5-0.6 1.2-1 1.1-0.5 2.5-0.5l-0.4 2.1q-0.2 0-0.3 0-0.1 0-0.3 0-1.2 0-2.1 0.7-0.9 0.7-1.2 2.2l-0.9 4.5zm3.7-8q-0.2 0.2-0.3 0.5l0.1 0.7zm3.7 8l1.8-9.3h2.2l-0.3 1.3q0.5-0.6 1.3-1 1-0.4 2.4-0.4l-0.4 2q-0.2 0-0.3 0-0.1 0-0.2 0-1.3 0-2.2 0.7-0.9 0.8-1.2 2.2l-0.8 4.5zm3.6-8q-0.1 0.2-0.3 0.5l0.1 0.7zm8.2 8.2q-1.6 0-2.7-0.6-1.1-0.7-1.5-1.8-0.5-1-0.2-2.4 0.3-1.4 1.1-2.5 0.8-1.1 2.1-1.7 1.2-0.6 2.6-0.6 1.4 0 2.4 0.6 1 0.6 1.4 1.7 0.4 1 0.2 2.5-0.1 0.2-0.1 0.3-0.1 0.2-0.1 0.4h-7.5q0 0.5 0.2 0.9 0.2 0.6 0.9 1 0.6 0.3 1.6 0.3 0.8 0 1.5-0.2 0.6-0.3 1.3-0.8l0.9 1.4q-0.8 0.7-1.9 1.1-1 0.4-2.2 0.4zm-2.3-4.1q0-0.3 0.1-0.6v-0.4q0.1-0.2 0.2-0.5h-0.5l-0.3 1.5zm5.7-1.5q0 0.2 0 0.5l0.9-0.5zm-0.1-1q-0.2-0.6-0.8-0.9-0.5-0.4-1.4-0.4-0.8 0-1.5 0.4-0.6 0.3-1.1 1-0.3 0.4-0.5 0.9h5.4q0.1-0.5-0.1-1zm10.6-3q1.1 0 1.9 0.4 0.9 0.4 1.2 1.4 0.4 0.9 0.1 2.3l-1 5.4h-2.3l1-5.1q0.2-1.3-0.3-1.9-0.4-0.6-1.5-0.6-0.8 0-1.5 0.3-0.6 0.3-1.1 0.9-0.4 0.7-0.6 1.6l-0.9 4.8h-2.3l1.8-9.4h2.2l-0.3 1.2q0.6-0.5 1.3-0.8 1-0.5 2.3-0.5zm-3.6 1.3q-0.2 0.2-0.4 0.5l0.2 0.8zm12.1 8.3q-1.6 0-2.3-0.8-0.7-0.8-0.4-2.4l0.9-4.5h-1.6l0.4-1.7h1.5l0.4-2.2h2.3l-0.4 2.2h2.5l-0.3 1.7h-2.6l-0.8 4.5q-0.1 0.6 0.1 1 0.3 0.4 0.9 0.4 0.8 0 1.4-0.4l0.3 1.6q-0.5 0.3-1.1 0.4-0.6 0.2-1.2 0.2zm-70.5 21.5l2.3-12.3h5.9q2.2 0 3.3 0.9 1 0.8 0.7 2.3-0.2 1-0.8 1.7-0.6 0.6-1.3 1 0.2 0.1 0.4 0.2 0.7 0.3 1.1 1.1 0.3 0.7 0.1 1.7-0.3 1.6-1.7 2.5-1.4 0.9-3.8 0.9zm10.1-6.4q-0.6-0.2-1.4-0.2l-0.5 0.6q0.9 0 1.8-0.4 0 0 0.1 0zm-7.4 4.6h3.7q1.3 0 2.1-0.4 0.8-0.5 1-1.4 0.1-0.9-0.5-1.3-0.6-0.5-1.9-0.5h-3.8zm0.7-3.5l0.4-1.8h-0.2l-0.4 1.8zm3.7-1.8q1.2 0 1.9-0.4 0.8-0.4 0.9-1.3 0.2-0.8-0.4-1.3-0.6-0.4-1.8-0.4h-3.3l-0.6 3.4zm12.3 7.1l0.2-1.1q-0.4 0.5-1.1 0.8-0.9 0.5-2.1 0.5-1.1 0-1.9-0.4-0.7-0.4-1-1-0.3-0.6-0.2-1.5 0.2-0.7 0.7-1.4 0.5-0.6 1.4-1 1-0.4 2.4-0.4h2.5v-0.1q0.2-1-0.3-1.5-0.5-0.5-1.7-0.5-0.8 0-1.6 0.2-0.8 0.3-1.4 0.7l-0.6-1.6q0.9-0.6 2-0.9 1.1-0.3 2.3-0.3 2 0 3 1 0.9 1 0.5 3l-1 5.5zm-1.7-4q-1.1 0-1.6 0.4-0.4 0.3-0.5 0.9-0.2 0.6 0.3 0.9 0.4 0.4 1.2 0.4 0.9 0 1.6-0.4 0.7-0.4 1.1-1.1l0.2-1.1zm6.7 4l2.5-13h2.2l-2.5 13zm11.1 0l0.2-1.1q-0.4 0.5-1.1 0.8-0.9 0.5-2.1 0.5-1.1 0-1.9-0.4-0.7-0.4-1-1-0.3-0.6-0.2-1.5 0.2-0.7 0.7-1.4 0.5-0.6 1.4-1 1-0.4 2.4-0.4h2.5v-0.1q0.2-1-0.3-1.5-0.5-0.5-1.7-0.5-0.8 0-1.6 0.2-0.8 0.3-1.4 0.7l-0.6-1.6q0.9-0.6 2-0.9 1.1-0.3 2.3-0.3 2 0 3 1 0.9 1 0.6 3l-1.1 5.5zm-1.7-4q-1.1 0-1.6 0.4-0.4 0.3-0.5 0.9-0.2 0.6 0.3 0.9 0.4 0.4 1.2 0.4 0.9 0 1.6-0.4 0.7-0.4 1.1-1.1l0.2-1.1zm13.9-5.5q1.2 0 2 0.5 0.8 0.4 1.2 1.3 0.3 0.9 0 2.4l-1 5.3h-2.2l0.9-5.1q0.3-1.2-0.2-1.8-0.5-0.6-1.6-0.6-0.7 0-1.4 0.3-0.7 0.3-1.1 0.9-0.5 0.6-0.7 1.6l-0.9 4.7h-2.2l1.8-9.4h2.1l-0.2 1.3q0.5-0.5 1.2-0.9 1.1-0.5 2.3-0.5zm-3.5 1.4q-0.3 0.2-0.5 0.5l0.2 0.8zm13 8.3q-1.5 0-2.6-0.6-1-0.7-1.5-1.8-0.5-1.1-0.2-2.4 0.3-1.5 1.2-2.5 0.8-1.1 2.1-1.7 1.3-0.6 2.8-0.6 1.4 0 2.3 0.5 1 0.6 1.4 1.6l-1.9 1q-0.3-0.6-0.9-1-0.6-0.3-1.3-0.3-0.8 0-1.5 0.4-0.8 0.3-1.3 1-0.5 0.6-0.6 1.6-0.2 0.9 0 1.5 0.3 0.7 0.9 1 0.6 0.4 1.4 0.4 0.7 0 1.4-0.3 0.7-0.3 1.2-1l1.6 1q-0.8 1-2 1.6-1.1 0.6-2.5 0.6zm10.3 0q-1.6 0-2.6-0.6-1.1-0.7-1.6-1.8-0.4-1.1-0.1-2.4 0.2-1.5 1.1-2.5 0.8-1.1 2.1-1.7 1.2-0.6 2.6-0.6 1.4 0 2.4 0.6 1 0.6 1.4 1.6 0.4 1.1 0.1 2.6 0 0.1 0 0.3-0.1 0.2-0.1 0.4h-7.5q0 0.4 0.1 0.9 0.3 0.6 1 1 0.6 0.3 1.5 0.3 0.8 0 1.5-0.2 0.7-0.3 1.3-0.8l1 1.3q-0.8 0.8-1.9 1.2-1 0.4-2.3 0.4zm-2.2-4.1q0-0.3 0-0.6l0.1-0.4q0.1-0.3 0.1-0.5h-0.4l-0.3 1.5zm5.7-1.5q0 0.2-0.1 0.5l1-0.5zm-0.1-1q-0.3-0.6-0.8-0.9-0.6-0.4-1.4-0.4-0.8 0-1.5 0.4-0.7 0.3-1.1 0.9-0.4 0.5-0.5 1h5.4q0-0.5-0.1-1z"/><path fill-rule="evenodd" class="j" d="m372.7 164.1l0.6-2.7q-1.6 0-2.9-0.5-1.6-0.6-2.3-1.6l1.1-1.3q0.6 0.8 2 1.4 1.1 0.5 2.5 0.6l1.6-6.2q-0.6-0.1-1.2-0.3-1-0.3-1.9-0.8-0.7-0.4-1.1-1.2-0.4-0.8 0-2.1 0.3-1.3 1.2-2.3 0.9-1 2.4-1.6 1.2-0.5 2.8-0.6l0.7-2.7h1.2l-0.7 2.7q1.3 0 2.4 0.4 1.3 0.4 2.1 1l-0.9 1.4q-0.9-0.7-2.1-1-0.9-0.3-1.8-0.3l-1.6 6.1q0.7 0.2 1.4 0.4 1 0.3 1.8 0.8 0.8 0.4 1.2 1.2 0.3 0.8 0 2.1-0.3 1.2-1.2 2.2-0.9 1-2.5 1.6-1.3 0.5-3 0.6l-0.6 2.7zm4.2-4.5q1.1-0.4 1.7-1 0.6-0.7 0.8-1.5 0.3-0.9-0.1-1.5-0.4-0.6-1.3-0.9-0.7-0.3-1.6-0.6l-1.5 5.9q1.1-0.1 2-0.4zm-1.5-12.9q-1.1 0.4-1.7 1.1-0.7 0.7-0.9 1.5-0.2 1 0.2 1.5 0.4 0.6 1.3 0.9 0.6 0.3 1.4 0.5l1.5-5.8q-1 0.1-1.8 0.3zm12.4 14.7q-1.8 0-3.3-0.5-1.5-0.6-2.2-1.5l1.2-1.4q0.6 0.8 1.8 1.4 1.2 0.5 2.8 0.5 2.2 0 3.5-0.9 1.4-0.9 1.8-2.4 0.2-1.1-0.1-1.8-0.3-0.8-1.4-1.2-1.2-0.4-3.3-0.4h-3.6l3-8.2h9.2l-0.4 1.5h-7.7l-1.9 5.2h2.2q2.5 0 3.9 0.6 1.4 0.6 1.8 1.7 0.4 1.1 0 2.5-0.3 1.4-1.3 2.5-0.9 1.1-2.4 1.8-1.6 0.6-3.6 0.6zm1.3-14.9l0.3-0.8-1.1 0.8zm-1.9 5.2h-1l0.7 0.8zm15.6 9.8q-2 0-3.2-1-1.3-1-1.7-2.8-0.4-1.9 0.3-4.5 0.6-2.6 2-4.4 1.3-1.9 3.1-2.9 1.7-1 3.7-1 1.9 0 3.2 1 1.2 1 1.6 2.9 0.4 1.8-0.2 4.4-0.7 2.6-2 4.5-1.4 1.8-3.1 2.8-1.8 1-3.7 1zm0.4-1.6q1.4 0 2.7-0.7 1.3-0.8 2.3-2.3 1.1-1.5 1.6-3.7 0.6-2.2 0.3-3.7-0.2-1.5-1.1-2.3-0.9-0.7-2.4-0.7-1.5 0-2.8 0.7-1.3 0.8-2.3 2.3-1 1.5-1.6 3.7-0.5 2.2-0.3 3.7 0.3 1.5 1.2 2.3 0.9 0.7 2.4 0.7zm15.5 1.6q-2 0-3.3-1-1.2-1-1.6-2.8-0.4-1.9 0.3-4.5 0.6-2.6 2-4.4 1.3-1.9 3-2.9 1.8-1 3.8-1 1.9 0 3.2 1 1.2 1 1.6 2.9 0.4 1.8-0.2 4.4-0.7 2.6-2 4.5-1.4 1.8-3.1 2.8-1.8 1-3.7 1zm0.3-1.6q1.5 0 2.8-0.7 1.3-0.8 2.3-2.3 1-1.5 1.6-3.7 0.6-2.2 0.3-3.7-0.2-1.5-1.1-2.3-0.9-0.7-2.4-0.7-1.5 0-2.8 0.7-1.3 0.8-2.3 2.3-1 1.5-1.6 3.7-0.5 2.2-0.3 3.7 0.2 1.5 1.2 2.3 0.9 0.7 2.3 0.7zm9.9 1.6q-0.5 0-0.8-0.4-0.3-0.4-0.2-0.9 0.2-0.6 0.6-0.9 0.5-0.4 1-0.4 0.6 0 0.8 0.4 0.3 0.3 0.2 0.9-0.1 0.5-0.6 0.9-0.5 0.4-1 0.4zm10.2 0q-1.9 0-3.2-1-1.3-1-1.6-2.8-0.4-1.9 0.2-4.5 0.7-2.6 2-4.4 1.3-1.9 3.1-2.9 1.8-1 3.7-1 2 0 3.2 1 1.3 1 1.7 2.9 0.4 1.8-0.3 4.4-0.6 2.6-2 4.5-1.3 1.8-3.1 2.8-1.7 1-3.7 1zm0.4-1.6q1.5 0 2.8-0.7 1.3-0.8 2.3-2.3 1-1.5 1.6-3.7 0.5-2.2 0.3-3.7-0.3-1.5-1.2-2.3-0.9-0.7-2.4-0.7-1.4 0-2.7 0.7-1.4 0.8-2.4 2.3-1 1.5-1.5 3.7-0.6 2.2-0.3 3.7 0.2 1.5 1.1 2.3 1 0.7 2.4 0.7zm15.5 1.6q-1.9 0-3.2-1-1.3-1-1.7-2.8-0.3-1.9 0.3-4.5 0.7-2.6 2-4.4 1.3-1.9 3.1-2.9 1.8-1 3.7-1 2 0 3.2 1 1.3 1 1.7 2.9 0.4 1.8-0.3 4.4-0.6 2.6-2 4.5-1.3 1.8-3.1 2.8-1.8 1-3.7 1zm0.4-1.6q1.5 0 2.8-0.7 1.3-0.8 2.3-2.3 1-1.5 1.6-3.7 0.5-2.2 0.3-3.7-0.3-1.5-1.2-2.3-0.9-0.7-2.4-0.7-1.4 0-2.7 0.7-1.4 0.8-2.4 2.3-1 1.5-1.5 3.7-0.6 2.2-0.4 3.7 0.3 1.5 1.2 2.3 1 0.7 2.4 0.7zm15.5 1.6q-1.9 0-3.2-1-1.3-1-1.7-2.8-0.4-1.9 0.3-4.5 0.7-2.6 2-4.4 1.3-1.9 3.1-2.9 1.8-1 3.7-1 1.9 0 3.2 1 1.3 1 1.7 2.9 0.4 1.8-0.3 4.4-0.6 2.6-2 4.5-1.3 1.8-3.1 2.8-1.8 1-3.7 1zm0.4-1.6q1.5 0 2.8-0.7 1.3-0.8 2.3-2.3 1-1.5 1.5-3.7 0.6-2.2 0.4-3.7-0.3-1.5-1.2-2.3-0.9-0.7-2.4-0.7-1.4 0-2.8 0.7-1.3 0.8-2.3 2.3-1 1.5-1.5 3.7-0.6 2.2-0.4 3.7 0.3 1.5 1.2 2.3 0.9 0.7 2.4 0.7z"/><path class="j" d="m447.2 106.1c0.9-10.5-14.8-9.4-15.4 0-0.9 10.5 14.8 9.3 15.4 0z"/><path class="n" d="m439 112.1c-3.9 0.2-6.3-4.1-1.7-4.9 1.5 1.1 2.9 0.4 4.5 0.1 4.4 1.4-0.2 4.9-2.8 4.8z"/><path class="n" d="m439.4 107c-2.4 0-3.3-2.9-1.4-4.6 4.4-3.4 6.3 4.5 1.4 4.6z"/><path class="j" d="m466.8 106.9c-0.3 1.5 1.5 2.2 1.1 3.7q-5.6 0-11.2 0c0-1.2 1.3-1.8 1.8-2.8 0.7-3.1 0.6-7.4 4.9-7.6-1.5-1.7 2.3-1.8 0.5 0q0.6 0 1.1 0.3c-0.9 0.6-1.6 1.6-1.8 2.8-0.3 2.1 1.5 3.9 3.6 3.6z"/><path class="j" d="m464.4 111.3q-2.2 0-4.4 0c-0.3 2.8 4.1 2.8 4.4 0z"/><path class="f" d="m469.4 103.1c0.4-3.3-4.5-2.8-4.7 0-0.4 3.3 4.5 2.9 4.7 0z"/><path class="o" d="m275.3 110.9h18"/><path class="p" d="m275.8 106.2h18.1"/><path class="q" d="m276.4 101.5h18"/><path class="j" d="m433.7 410.8h-178.7c-3.1 0-5.4-2.5-5.2-5.6l4.5-59.2c0.3-3.2 3.1-5.8 6.3-5.8h178.7c3.1 0 5.4 2.5 5.2 5.6l-4.5 59.2c-0.3 3.2-3.1 5.8-6.3 5.8z"/><path class="j" d="m428.5 460.2h-178.6c-3.1 0-5.4-2.5-5.2-5.6l1.9-24.4c0.3-3.2 3.1-5.8 6.3-5.8h178.6c3.1 0 5.5 2.5 5.2 5.6l-1.9 24.4c-0.2 3.2-3 5.8-6.3 5.8z"/><path class="r" d="m340.1 354.9c13.9 0 13.9 34.2 27.8 34.2 13.9 0 13.9-34.2 27.8-34.2 13.9 0 13.9 34.2 27.8 34.2"/><path class="s" d="m347.2 355.8c0.4-6.2-9-5.8-9.2 0-0.4 6.2 9.1 5.8 9.2 0z"/><path class="t" d="m370.6 389.2c0.4-6.2-9.1-5.8-9.3 0-0.3 6.2 9.1 5.8 9.3 0z"/><path class="u" d="m411.5 365.1c0.4-6.2-9.1-5.8-9.3 0-0.4 6.2 9.1 5.8 9.3 0z"/><path class="v" d="m428.2 388.9c0.4-6.2-9-5.8-9.2 0-0.4 6.2 9.1 5.8 9.2 0z"/><path class="n" d="m269.3 361c0.3-4.8-6.9-4.4-7.1 0-0.3 4.7 7 4.4 7.1 0z"/><path class="w" d="m321.9 362.7h-48.6v-3.4h48.6z"/><path class="n" d="m268.2 375.5c0.3-4.8-7-4.5-7.1 0-0.3 4.7 6.9 4.4 7.1 0z"/><path class="x" d="m320.8 377.2h-48.7v-3.4h48.7z"/><path class="n" d="m267.2 390c0.2-4.8-7-4.5-7.1 0-0.3 4.7 6.9 4.4 7.1 0z"/><path class="y" d="m319.8 391.7h-48.7v-3.5h48.7z"/><path class="n" d="m344.2 439.8c0.7-11.1-16.2-10.3-16.5 0-0.7 11.1 16.2 10.3 16.5 0z"/><path class="n" d="m394.2 439.8c0.7-11.1-16.2-10.3-16.5 0-0.7 11.1 16.2 10.3 16.5 0z"/><path class="n" d="m294.1 439.8c0.7-11.1-16.2-10.3-16.5 0-0.7 11.1 16.2 10.3 16.5 0z"/><path class="z" d="m265.8 230.6c18.4 0 18.4 51.6 36.9 51.6 18.4 0 18.4-51.6 36.9-51.6 18.5 0 16.6 25.8 35 25.8 18.5 0 20.4-25.8 38.8-25.8 18.5 0 17.7 28.6 40.8 23.8l-7.3 72.2-190 1.8z"/><path class="n" d="m305.3 312.5c0.4-6.2-9-5.8-9.2 0-0.4 6.2 9.1 5.8 9.2 0z"/><path class="n" d="m343 287.2c0.4-6.3-9.1-5.8-9.3 0-0.3 6.2 9.1 5.8 9.3 0z"/><path class="n" d="m413.6 287.5c0.3-6.3-9.1-5.8-9.3 0-0.4 6.2 9.1 5.8 9.3 0z"/><path class="A" d="m454.2 253.9c-23.1 4.8-22.3-23.3-40.8-23.3-18.4 0-20.3 25.8-38.8 25.8-18.4 0-16.5-25.8-35-25.8-18.5 0-18.5 51.6-36.9 51.6-18.5 0-18.5-51.6-36.9-51.6"/><path class="B" d="m301.1 305.3l0.2-2.2"/><path class="C" d="m301.6 299.3l1.2-13.1"/><path class="B" d="m303 284.3l0.2-2.2"/><path class="B" d="m338.4 278.2l0.2-2.3"/><path class="D" d="m339 271.2l3.2-35.9"/><path class="B" d="m342.4 232.9l0.2-2.3"/><path class="B" d="m409.7 278.1l0.2-2.2"/><path class="D" d="m410.3 271.1l3.2-35.9"/><path class="B" d="m413.7 232.8l0.2-2.2"/><path class="n" d="m360.2 214.3c-0.6 5.5-10.4 2.8-13.6 3.4l-4 5.4-2.9-5.4c-15.7 0.6-13.2 0.4-11.9-14 0.2-1.9 1.9-3.4 3.7-3.4h26.7c5.7-0.2 2.6 9.1 2 14z"/><path class="E" d="m419 373.4v-151.5c0-4 3.3-7.3 7.4-7.3h149.2c4 0 7.4 3.3 7.4 7.3v151.5c0 4.1-3.4 7.4-7.4 7.4h-149.2c-4.1 0-7.4-3.3-7.4-7.4z"/><path class="F" d="m441.4 247.2v-2.5c0-1.9 1.5-3.4 3.4-3.4h112.3c1.9 0 3.5 1.5 3.5 3.4v2.5c0 1.9-1.6 3.4-3.5 3.4h-112.3c-1.9 0-3.4-1.5-3.4-3.4z"/><path class="G" d="m441.4 247.2v-2.5c0-1.9 1.5-3.4 3.4-3.4h41.6c1.9 0 3.4 1.5 3.4 3.4v2.5c0 1.9-1.5 3.4-3.4 3.4h-41.6c-1.9 0-3.4-1.5-3.4-3.4z"/><path class="j" d="m441.4 247.2v-2.5c0-1.9 1.5-3.4 3.4-3.4h15.6c1.9 0 3.4 1.5 3.4 3.4v2.5c0 1.9-1.5 3.4-3.4 3.4h-15.6c-1.9 0-3.4-1.5-3.4-3.4z"/><path class="F" d="m441.4 275.9v-2.5c0-1.9 1.5-3.4 3.4-3.4h112.3c1.9 0 3.5 1.5 3.5 3.4v2.5c0 1.9-1.6 3.5-3.5 3.5h-112.3c-1.9 0-3.4-1.6-3.4-3.5z"/><path class="G" d="m441.4 275.9v-2.5c0-1.9 1.5-3.4 3.4-3.4h81.6c1.8 0 3.4 1.5 3.4 3.4v2.5c0 1.9-1.5 3.5-3.4 3.5h-81.6c-1.9 0-3.4-1.6-3.4-3.5z"/><path class="j" d="m441.4 275.9v-2.5c0-1.9 1.5-3.4 3.4-3.4h33.9c1.9 0 3.5 1.5 3.5 3.4v2.5c0 1.9-1.6 3.5-3.5 3.5h-33.9c-1.9 0-3.4-1.6-3.4-3.5z"/><path class="F" d="m441.4 304.5v-2.5c0-1.9 1.5-3.4 3.4-3.4h112.3c1.9 0 3.5 1.5 3.5 3.4v2.5c0 1.9-1.6 3.4-3.5 3.4h-112.3c-1.9 0-3.4-1.5-3.4-3.4z"/><path class="G" d="m441.4 304.5v-2.5c0-1.9 1.5-3.4 3.4-3.4h52.9c1.9 0 3.5 1.5 3.5 3.4v2.5c0 1.9-1.6 3.4-3.5 3.4h-52.9c-1.9 0-3.4-1.5-3.4-3.4z"/><path class="j" d="m441.4 304.5v-2.5c0-1.9 1.5-3.4 3.4-3.4h15.6c1.9 0 3.4 1.5 3.4 3.4v2.5c0 1.9-1.5 3.4-3.4 3.4h-15.6c-1.9 0-3.4-1.5-3.4-3.4z"/><path class="F" d="m441.4 333.6v-2.6c0-1.8 1.5-3.4 3.4-3.4h112.3c1.9 0 3.5 1.6 3.5 3.4v2.6c0 1.8-1.6 3.4-3.5 3.4h-112.3c-1.9 0-3.4-1.6-3.4-3.4z"/><path class="G" d="m441.4 333.6v-2.6c0-1.8 1.5-3.4 3.4-3.4h94.5c1.9 0 3.4 1.6 3.4 3.4v2.6c0 1.8-1.5 3.4-3.4 3.4h-94.5c-1.9 0-3.4-1.6-3.4-3.4z"/><path class="j" d="m441.4 333.6v-2.6c0-1.8 1.5-3.4 3.4-3.4h59.1c1.9 0 3.4 1.6 3.4 3.4v2.6c0 1.8-1.5 3.4-3.4 3.4h-59.1c-1.9 0-3.4-1.6-3.4-3.4z"/><path class="F" d="m441.4 362.9v-2.5c0-1.9 1.5-3.4 3.4-3.4h112.3c1.9 0 3.5 1.5 3.5 3.4v2.5c0 1.9-1.6 3.4-3.5 3.4h-112.3c-1.9 0-3.4-1.5-3.4-3.4z"/><path class="G" d="m441.4 362.9v-2.5c0-1.9 1.5-3.4 3.4-3.4h71.5c1.9 0 3.4 1.5 3.4 3.4v2.5c0 1.9-1.5 3.4-3.4 3.4h-71.5c-1.9 0-3.4-1.5-3.4-3.4z"/><path class="j" d="m441.4 362.9v-2.5c0-1.9 1.5-3.4 3.4-3.4h39.7c1.8 0 3.4 1.5 3.4 3.4v2.5c0 1.9-1.6 3.4-3.4 3.4h-39.7c-1.9 0-3.4-1.5-3.4-3.4z"/></svg>