<svg version="1.2" xmlns="http://www.w3.org/2000/svg" viewBox="0 0 685 572" width="685" height="572"><defs><clipPath clipPathUnits="userSpaceOnUse" id="cp1"><path d="m366.54-126.24c80.12-14.27 159.63-82.82 232.69-58.95 74.16 24.24 80.75 115.97 148.27 151.19 102.4 53.41 255.99 3.51 319.62 92.87 55.55 78.01-45.32 189.78-99.24 278.15-48.77 79.94-100.49 176.35-195.63 205.16-95.97 29.06-174.77-67.3-273.38-63.14-85.71 3.61-157.06 89.36-241.84 84.87-97.71-5.18-206.63-35.31-249.8-110.92-43.19-75.63 31.73-171.82 37.78-260.4 6.5-95.32-75.69-204.84-0.97-278.93 77.09-76.44 213.25-20.45 322.5-39.9z"/></clipPath><clipPath clipPathUnits="userSpaceOnUse" id="cp2"><path d="m94.82 521.68c98.88-114.25 199.33-229.94 324.82-314.08 7.73-5.17 16-10.38 25.26-10.92 15.82-0.94 29.03 11.78 38.29 24.68 22.56 31.55 34.43 69.3 45.98 106.34 14.16 45.39 28.27 90.79 42.43 136.18 17.48 56.09 36.31 114.48 74.34 158.43 4.94 5.71 1.17 14.65-6.38 15.1-128.14 8-603.04-1.39-613.96-13.98-12.09-13.93 2.21-24.44 13.44-37.3 18.74-21.35 37.22-42.97 55.78-64.45z"/></clipPath><clipPath clipPathUnits="userSpaceOnUse" id="cp3"><path d="m94.82 521.68c98.88-114.25 199.33-229.94 324.82-314.08 7.73-5.17 16-10.38 25.26-10.92 15.82-0.94 29.03 11.78 38.29 24.68 22.56 31.55 34.43 69.3 45.98 106.34 14.16 45.39 28.27 90.79 42.43 136.18 17.48 56.09 36.31 114.48 74.34 158.43 4.94 5.71 1.17 14.65-6.38 15.1-128.14 8-603.04-1.39-613.96-13.98-12.09-13.93 2.21-24.44 13.44-37.3 18.74-21.35 37.22-42.97 55.78-64.45z"/></clipPath><clipPath clipPathUnits="userSpaceOnUse" id="cp4"><path d="m94.82 521.68c98.88-114.25 199.33-229.94 324.82-314.08 7.73-5.17 16-10.38 25.26-10.92 15.82-0.94 29.03 11.78 38.29 24.68 22.56 31.55 34.43 69.3 45.98 106.34 14.16 45.39 28.27 90.79 42.43 136.18 17.48 56.09 36.31 114.48 74.34 158.43 4.94 5.71 1.17 14.65-6.38 15.1-128.14 8-603.04-1.39-613.96-13.98-12.09-13.93 2.21-24.44 13.44-37.3 18.74-21.35 37.22-42.97 55.78-64.45z"/></clipPath><clipPath clipPathUnits="userSpaceOnUse" id="cp5"><path d="m94.82 521.68c98.88-114.25 199.33-229.94 324.82-314.08 7.73-5.17 16-10.38 25.26-10.92 15.82-0.94 29.03 11.78 38.29 24.68 22.56 31.55 34.43 69.3 45.98 106.34 14.16 45.39 28.27 90.79 42.43 136.18 17.48 56.09 36.31 114.48 74.34 158.43 4.94 5.71 1.17 14.65-6.38 15.1-128.14 8-603.04-1.39-613.96-13.98-12.09-13.93 2.21-24.44 13.44-37.3 18.74-21.35 37.22-42.97 55.78-64.45z"/></clipPath><clipPath clipPathUnits="userSpaceOnUse" id="cp6"><path d="m245.07 191.2c7.06 0.54 6.11-2.92 12.04-6.79 16.05-10.56 23.56-17.44 42.07-22.43 3.42 2.74 6.79 8.45 8.23 12.54-22.16 16.36-35.42 27.6-53.58 48.32-1.03 1.17-2.15 2.42-3.68 2.74-1.48 0.31-2.97-0.36-4.36-1.03-15.82-7.69-31.42-15.91-46.66-24.68-6.78-3.91-12.76-33.3-0.71-36.36 8.76-2.25 42.87 27.37 46.65 27.69z"/></clipPath><clipPath clipPathUnits="userSpaceOnUse" id="cp7"><path d="m206.24 158.75c0.89 0.04 1.88 0.13 2.6 0.72 0.68 0.53 0.99 1.39 1.31 2.24 7.59 21.67 16.04 43.01 25.39 63.96 2.11 4.72 4.45 9.66 8.63 12.76 0.4 0.32 0.85 0.68 0.76 1.17-0.09 0.32-0.36 0.5-0.58 0.68-14.65 9.75-20.18 14.96-34.83 24.67-4.72 3.15-19.51 4.86-24.72 7.1-8.54-18.33-11.06-32.76-11.6-52.99-0.45-16.63 0.94-33.21 2.7-49.75 0.63-6.16-0.23-11.1 6.52-12.09 7.28-1.04 16.4 1.08 23.82 1.53z"/></clipPath><clipPath clipPathUnits="userSpaceOnUse" id="cp8"><path d="m156.8 317.94c1.84-0.13 3.46 1.4 3.37 3.24-0.4 13.17-3.01 25.89-3.78 39.15-0.09 1.34-0.27 2.96-1.43 3.68-0.68 0.45-1.58 0.45-2.39 0.45-21.61 0.05-51.55-2.11-62.96-3.82-1.13-1.71 0.58-18.07 0.53-25.08 0-5.84 0-13.48 1.71-16.09 1.13-1.75 12.27-1.39 17.53-1.3 3.46 0.04 36.54 0.45 47.42-0.23z"/></clipPath></defs><style>.a{fill:#ffbab2}.b{fill:#0049ff}.c{fill:#fff}.d{fill:#1b2c3e}.e{fill:none;stroke:#1b2c3e;stroke-linecap:round;stroke-width:2.1}.f{fill:#c7e7ef}</style><g clip-path="url(#cp1)"><path class="a" d="m196.9 138.9c2.1 1 3.6 8.3 5.7 9.2 0.7 0.4 1.6 1 1.3 1.8-2.3 5.1-2.7 10.1-3.1 15.5-5.2 0-15.8-0.5-16-7.5-0.2-5 6.6-21.4 12.1-19z"/><path class="b" d="m122.8 126.2c-0.6-12.4 1.1-24 3.1-32.9 4.2-18.4 16.9-34.8 33.6-43.6 16.8-8.8 37.5-9.9 55.1-2.8 12.1 4.9 23.2 5.5 36.3 6.5 6.1 0.4 12.5 0.5 18.1-2 5.6-2.5 10.2-8.3 9.5-14.5 3.9 15.5 8.6 30.9 13.8 45.9 0.9 2.5 1.9 5.2 4.2 6.4-18.8 13.8-42.2 20.4-64.8 14.7-12-3-22.9-9.2-34.3-13.9-11.5-4.7-27.5-4.7-39.3-0.9-24.6 7.9-36.8 34.1-35.3 37.1z"/><path class="c" d="m470.7 205.3c8.5-8.1 21-10.2 32.7-10.1-1.8-4.7-3.3-23.6 6.1-31.7 9.4-8.2 29.7-5.7 33.1 1.1 4.4-10.4 16.3-17 27.5-15.4 11.2 1.6 20.6 11.3 21.9 22.5 4.8-6.8 22.3-5.6 29.1-0.7 6.8 4.8 9.7 12 7.2 19.5 2.8-1.7 16-6 25 2.9 12 12 1.8 22.5 0.1 26.1 11.7-5.7 27.1 4.1 28.9 16.9 1.8 12.9-7.8 25.6-20.2 29.7-12.3 4.1-26.3 0.6-37.1-6.6-3.1 16.4-22.7 27.3-38.3 21.4-10.2-3.9-17.2-13.2-23.4-22.2-3.3 4.7-9.3 6.6-14.8 8.2-10.1 2.8-20.4 5.5-30.7 4.4-10.4-1.1-20.9-7-24.5-16.8-0.5-1.4-0.9-2.9-1.8-4.1-1.5-1.8-4-2.3-6.2-3.1-17.5-6.1-31-26.4-14.6-42z"/><path class="c" d="m509.4 359.3c6.8-3.7 14.6-6 22.2-4.7 7.7 1.3 14.9 6.8 16.4 14.4 2.3-7.8 5.8-16.5 13.5-18.9 5.7-1.8 12 0.7 16.3 4.8 4.3 4 7.1 9.5 9.7 14.8-0.2-8.7 10.3-14.9 18.4-12 8.1 2.9 12.4 12.8 10.5 21.2 5.4-3.3 13-2.7 17.9 1.5 4.9 4.2 6.7 11.5 4.4 17.5-2.8 6.8-9.8 10.8-13.4 17.2 6.8-3.5 16-1.5 20.6 4.6 4.7 6.1 4.3 15.4-0.9 21.1-3.5 3.9-8.7 5.9-13.8 7.6-38.2 12.8-78.9 17.7-119.1 14.3-2.9-0.3-5.9-0.6-8.5-2-5.4-2.8-7.6-9.2-9.2-15.1-4-14.4-11.6-33.3-10.8-48.4 0.9-15.7 12.4-30.5 25.8-37.9z"/><path class="c" d="m278.9 367.8c-3.7 17.5-4.7 33.7-12.1 50.4-8.2 18.5-19.7 35.4-31.8 51.7-12 16-24.9 31.8-41.5 42.9-34.1 22.9-78.3 25.6-119 21.1-44-4.9-27.1-35.2-20.8-38.6-8.4-0.9-13.8-2.7-25.4-17.2-18-22.5 10.2-50 31.8-51.5-1.4-11.3-2.5-23.7 4.1-32.9 5.5-7.7 15.4-11.2 24.8-11.3 9.4-0.1 18.6 2.8 27.6 5.7-4.4-10.7-7.4-22.2-5.6-33.6 1.7-11.3 8.8-22.4 19.6-26.4 9.6-3.5 20.4-1 30.2 1.9 2-11.1 11.2-20.6 22.3-23 11.1-2.4 23.4 2.5 29.7 11.9 6.6-4.8 14.8-8.6 22.7-6.7 8 2 13.9 11.9 9.3 18.7 7.7-10.1 24.9-10.2 33.4-0.7 10.1 11.3 3.4 25 0.7 37.6z"/><path class="d" d="m94.8 521.7c98.9-114.3 199.4-230 324.8-314.1 7.8-5.2 16-10.4 25.3-10.9 15.8-1 29 11.8 38.3 24.7 22.6 31.5 34.4 69.3 46 106.3 14.1 45.4 28.2 90.8 42.4 136.2 17.5 56.1 36.3 114.5 74.3 158.4 5 5.7 1.2 14.7-6.3 15.1-128.2 8-603.1-1.4-614-14-12.1-13.9 2.2-24.4 13.4-37.3 18.8-21.3 37.3-42.9 55.8-64.4z"/><path class="d" d="m206.2 158.7c0.9 0.1 1.9 0.2 2.6 0.8 0.7 0.5 1 1.4 1.3 2.2 7.6 21.7 16.1 43 25.4 64 2.2 4.7 4.5 9.6 8.7 12.7 0.4 0.3 0.8 0.7 0.7 1.2-0.1 0.3-0.3 0.5-0.5 0.7-14.7 9.7-20.2 14.9-34.9 24.7-4.7 3.1-19.5 4.8-24.7 7.1-8.5-18.4-11.1-32.8-11.6-53-0.4-16.7 0.9-33.3 2.7-49.8 0.6-6.1-0.2-11.1 6.5-12.1 7.3-1 16.4 1.1 23.8 1.5z"/><path class="d" d="m195.8 255.2c10.8-16 37.3-13.3 53.6-17.2 12.3-2.8 23.9-8.8 36.6-9.5 1.9-0.1 3.9 0 5.5 0.9 1.8 1 2.8 2.8 3.8 4.5 9.7 16.7 21.8 31.9 35.7 45.1-3.6 3.6-7.3 7.3-10.9 10.9-0.5 0.5-0.9 0.9-1.5 1.2-2.6 1-3.6-3-5.4-5.2-4.1-4.8-8.7-9.4-16.1-13.4-7.4-4.1-14.8-10-20.6-16.1-12.1 9.8-27.6 16.6-41.8 23.2-6.6 3.1-13.5 5.8-20.7 5.6-13.8-0.2-26.9-17.1-18.2-30z"/><path class="d" d="m189.4 262.5c6.3-5.1 18.5-0.6 25 1.6 4.9 1.6 9.9 3.3 14.8 5 1.1 0.3 2.3 0.8 2.9 1.6 0.9 1.3 0.7 2.9 0.6 4.4-2.8 21.5-5.9 43-9 64.5-0.2 1.4-0.5 2.9-1.2 4.2-0.9 1.5-2.5 2.5-3.9 3.4-19.1 12.5-35.5 29.4-47.3 48.9-3.9-5.2-7.8-10.3-11.7-15.5-0.5-0.7-1.1-1.5-1.2-2.4-0.3-1.6 0.8-3 1.8-4.2 7.9-9.4 15.8-18.9 23.7-28.3 1.4-1.8 3-3.6 3.7-5.8 0.9-2.9 0.5-5.9 0-8.8q-3.1-20.9-3.5-42.1c-0.1-7.2-1.1-21.3 5.3-26.5z"/><path class="d" d="m315.9 287.4c0.2-3.5 0.8-6.6 4.6-7.8 4.4-1.3 11.2 1.8 16 1.9 1.6 0.1 16.4 1.1 16.7 0.6-1.5 2.4-4.2 3.9-6.7 5.2-9.2 4.8-18.3 9.5-27.4 14.3-1.4 0.7-3.2-12.2-3.2-14.2z"/><path class="d" d="m150.7 390.8c-2.9-4 4.5-8.5 11-10.6 5-1.5 10.6 0.1 12 5.7 1 4.2-2 7.6-3 11.5-1.1 4.3-0.4 5.8 1 9.9 1.5 4.8 10.1 11.6 7.8 12.8-5 2.5-11.1-0.5-15-4.6-5.1-5.4-4.1-11.2-13.8-24.7z"/><path class="d" d="m177.7 160.5c7.3-5.3 2.2 10.5 7.1 17.5 5.8 8.4-8.1 50.4-15.6 54.9-1.9 1.1-8.2 6.6-9.5 8.4-1 1.3-1.5 2.9-2 4.4-5.9 17.2-12.4 36.8-16.9 54.4-5.4 0.6-9.6-1-15-0.4 9.4-27.4 9.1-57.8 21.6-83.9 3.8-8.1 11.3-26.3 16.2-33.8 3.7-5.5 8.6-17.6 14.1-21.5z"/><path class="d" d="m245.1 191.2c7 0.5 6.1-2.9 12-6.8 16.1-10.6 23.6-17.4 42.1-22.4 3.4 2.7 6.8 8.4 8.2 12.5-22.1 16.4-35.4 27.6-53.6 48.3-1 1.2-2.1 2.5-3.7 2.8-1.4 0.3-2.9-0.4-4.3-1.1-15.8-7.6-31.4-15.9-46.7-24.6-6.7-3.9-12.7-33.3-0.7-36.4 8.8-2.2 42.9 27.4 46.7 27.7z"/><path class="a" d="m329.4 160.7c-5.5 4.8-12.8 6.9-19.9 8.9-0.3 0.1-0.8 0.2-1.1 0.1-0.4-0.2-0.6-0.5-0.8-0.9-1.1-1.9-2.1-3.9-3.2-5.8-0.3-0.6-0.6-1.2-0.6-1.8 0.1-0.7 0.6-1.3 1.1-1.9 3.5-3.9 8.8-11.5 14.7-10.6 3.3 0.5 13.6 8.7 9.8 12z"/><path class="b" d="m156.8 317.9c1.8-0.1 3.5 1.4 3.4 3.3-0.4 13.1-3 25.9-3.8 39.1-0.1 1.4-0.3 3-1.4 3.7-0.7 0.5-1.6 0.5-2.4 0.5-21.6 0-51.6-2.2-63-3.9-1.1-1.7 0.6-18 0.5-25 0-5.9 0-13.5 1.8-16.1 1.1-1.8 12.2-1.4 17.5-1.3 3.4 0 36.5 0.4 47.4-0.3z"/><path class="b" d="m140.8 322.6c0.9-4.7-2.8-9-6.6-11.8-2.9-2.3-6.7-4.3-10.3-3.1-2.7 0.9-4.5 3.7-5.8 6.4-1.6 3.6-2.6 7.5-2.8 11.4-2.2 0.7-3.9 0.5-6.3 0.6-1.2-3.1 0.7-6.9 4.4-14.3 0.8-1.5 5.3-8.5 12-9.2 5.5-0.5 10.3 1.9 14.5 5.5 4.1 3.5 6.1 9.5 5.1 14.9-2.7 0.4-1.5-0.8-4.2-0.4z"/><path class="a" d="m225.2 127.2c0.7 2.7 1.6 6.5 3.4 8.8 0.7 0.8 0.3 2.1-0.8 2.3-2.4 0.4-5.3-0.1-7.2 1-1.9 1.1-2 1.9-2.5 4-1 3.9-1.8 5.7-3.9 9.1-1.3 2.1-2.7 3.2-3.6 3.6-1 0.3-2.1 0-3.1-0.3-6.8-1.9-13.9-4.5-18.2-10.3-3.8-5.1-4.7-12.1-2.8-18.2 1.9-6.2 6.4-11.3 11.9-14.6 14.2-8.4 23.3 1.3 26.8 14.6z"/><path class="e" d="m273.8 24c11.9 46.6 63.9 205.6 87.6 252.2 0.3 0.7 0.6 1.6 0 2.1-0.5 0.4-1.1-1.2-0.4-0.9z"/><path class="a" d="m133 295c5.4 0.5 8.9 5.5 9.1 10.7 0.1 2.5-0.5 5.1-1.2 7.5-0.1 0.7-0.3 1.3-0.9 1.6-0.6 0.4-1.4 0.2-2 0-2.8-0.8-5.6-1.7-8.3-2.7-3-1.2-5.9-2.5-8.8-3.9 1.9-6.2 3.8-13.9 12.1-13.2z"/><path class="f" d="m123.9 296.2c0.1-0.7 3.4-5.2 3.4-5.2 0 0 16.9 4.3 16.9 4.8 0 0.6-0.8 4.9-1.5 4.9-0.8 0-19-2.9-18.8-4.5z"/><path class="f" d="m296 160.5c0.4-1.6 8-2.6 8.5-1.9 0.4 0.6 7.5 11.7 7.1 13.4-0.4 1.8-3.7 5.1-4.7 5.1-0.9 0-11.3-15.1-10.9-16.6z"/><path class="f" d="m176.7 160.5c0.8-3.1 2.3-3.8 4.9-4 2.6-0.2 9.9 0 18.1 1.1 3.1 0.4 6 15.8 4.3 15.8-1.6 0-27.3-12.9-27.3-12.9z"/><path class="f" d="m215.5 171c0 0-15.6-11.1-15.9-12.6-0.4-1.5 8.4-0.3 9.5 0.6 1.1 0.9 7.3 11.4 6.4 12z"/><path class="a" d="m329.2 159.2c-0.4 1.8-7 7.6-9.2 8-2.3 0.4-4.5-8.2-4.9-11.6-0.4-3.4 6-5.3 6-5.3 0 0 8.4 7 8.1 8.9z"/><path class="a" d="m305.7 159.7c0 0 4.5-14.8 6.8-14.8 2.2 0-1 14.3-0.5 16.9 0.3 2.6-6.3-2.1-6.3-2.1z"/><path class="f" d="m156.6 375.5q11.5 15.9 24.7 30.4c0.8 0.8-2.7 2.1-3.4 1.3q-13.3-14.4-24.7-30.3c-0.8-1.1 2.8-2.3 3.4-1.4z"/><path class="c" d="m179.9 273.5c16.9 4.7 36.4 3.9 51.1-6.7 10.6-7.6 13.8-18.3 16.7-30.3 0.3-1.3 4-1.8 3.7-0.4-3.9 16.6-9.6 28.7-25.7 36.1-15.2 7.1-31.9 7.8-48 3.4-2.1-0.6 1.1-2.4 2.2-2.1z"/><path class="c" d="m281.1 251.8c-2.7 3.3-3.1 7.6-1.5 11.4 0.6 1.5-3.1 2.6-3.7 1-1.9-4.6-0.9-9.5 2.2-13.3 0.9-1.2 4.5-0.9 3 0.9z"/><path class="c" d="m218.1 194.3c2.9 9.9 6.1 19.6 10 29.2 1.6 4.1 3.4 8.1 5.3 12.1 1.8 3.8 5.7 15.8 10.7 17.5 2.2 0.8-0.5 3.1-2.1 2.5-7-2.4-10.2-14.6-13.2-21.1-5.8-12.7-10.5-25.8-14.3-39.2-0.5-1.7 3.2-2.7 3.6-1z"/><path class="c" d="m305.4 399.1c-2.4 3.2-4.1 6.6-5.3 10.4-0.4 1.2-4.1 1.7-3.7 0.6 1.2-4 3.1-7.7 5.6-11 0.6-0.9 4.2-1.2 3.4 0z"/><path class="c" d="m348.9 378.7c-2.2 3.7-3.4 7.6-3.6 11.9-0.1 1.5-3.9 2.1-3.8 0.4 0.3-4.5 1.6-8.7 3.9-12.6 0.8-1.2 4.5-1.4 3.5 0.3z"/><path class="c" d="m343.2 420.3c0.4 0 1.5 0.1 0.9 0.7-2.8 3-4.9 6.3-6.5 10-0.4 1.1-4 1.4-3.6 0.6 1.6-3.9 3.9-7.4 6.7-10.4 0.6-0.6 1.7-1 2.5-0.9z"/><path class="c" d="m282 363.1c0.6 0.3 1 0.7 0.3 1.3-3.2 2.7-5.2 6.3-5.7 10.4-0.2 1.3-3.9 1.9-3.7 0.5 0.6-4.5 2.9-8.5 6.5-11.5 0.5-0.5 1.9-1 2.6-0.7z"/><path class="c" d="m254.3 403.3c-1.9 3.4-3.8 6.7-5.7 10.1-0.9 1.5-4.6 1.4-3.6-0.4 1.9-3.4 3.8-6.7 5.7-10.1 0.8-1.4 4.6-1.4 3.6 0.4z"/><path class="c" d="m274.6 443.7c-2.7 3.6-4.6 7.6-5.8 12-0.3 1.1-4 1.6-3.7 0.5 1.2-4.5 3.3-8.7 6.1-12.5 0.7-0.8 4.3-1.2 3.4 0z"/><path class="c" d="m377.4 433.6c0.3 3.4-0.2 6.6-1.8 9.7-0.5 1-4 1.3-3.6 0.6 1.5-3 2.1-6 1.7-9.3 0-1.1 3.6-1.9 3.7-1z"/><path class="c" d="m348.2 465.9c-0.6 2.2-1.2 4.5-1.8 6.7-0.3 1.3-4.1 1.8-3.7 0.4 0.6-2.2 1.2-4.4 1.8-6.7 0.4-1.3 4.1-1.9 3.7-0.4z"/><path class="c" d="m208.3 443.5c0.6 0.5 0.3 1-0.3 1.3-4.1 2-7.5 4.9-10.3 8.5-0.7 0.8-4.3 1.2-3.4 0 3.1-3.9 6.9-7.1 11.4-9.4 0.6-0.2 2.1-0.8 2.6-0.4z"/><path class="c" d="m220 478.6c0.7 0.2 1.1 0.8 0.4 1.4q-3.3 2.9-5 6.9c-0.5 1.3-4.2 1.6-3.5-0.1 1.3-3 3.1-5.5 5.5-7.5 0.6-0.6 1.8-1.1 2.6-0.7z"/><path class="c" d="m297.2 518.2q-0.3 3.7-1.2 7.3c-0.4 1.4-4.1 1.9-3.7 0.3q0.9-3.6 1.2-7.3c0.1-1.5 3.8-2.1 3.7-0.3z"/><path class="c" d="m306.9 458.8c0.1 0 1.9-0.2 1.5 0.3-1.5 1.9-2.3 4-2.4 6.5 0 1-3.7 1.5-3.7 1 0.1-2.6 0.9-4.8 2.5-6.9 0.4-0.5 1.4-0.8 2.1-0.9z"/><path class="c" d="m442.2 385.3q0.1 5 0.5 10.1c0.2 1.4-3.6 2.1-3.6 1q-0.5-5.1-0.5-10.1c-0.1-1.4 3.6-2.2 3.6-1z"/><path class="c" d="m427.5 426.7c0 3 0 5.9 0 9 0 1.6-3.8 2.2-3.8 0.2 0-3 0-6 0-9 0-1.6 3.8-2.2 3.8-0.2z"/><path class="c" d="m410 468.1c-0.6 3.4-0.7 6.9-0.5 10.4 0.1 1.4-3.6 2.1-3.7 1q-0.4-5.5 0.5-10.9c0.2-1.3 3.9-1.9 3.7-0.5z"/><path class="c" d="m380.1 514.2c-0.5 1.8-0.6 3.5-0.4 5.4 0.2 1.4-3.5 2.2-3.7 1-0.2-2.1-0.1-4 0.4-6 0.4-1.3 4.1-1.8 3.7-0.4z"/><path class="c" d="m482.2 380.7q1 5.2 2.2 10.3c0.2 0.8-3.5 1.7-3.7 1q-1.1-5.2-2.2-10.3c-0.2-0.8 3.5-1.7 3.7-1z"/><path class="c" d="m471.3 430.2c-0.2 3.8 0.2 7.6 1.1 11.3 0.3 1-3.4 1.9-3.6 0.9-0.9-3.7-1.3-7.4-1.2-11.2 0-1.2 3.7-1.7 3.7-1z"/><path class="c" d="m466.8 482.4q1.1 3.7 2.2 7.3c0.6 1.7-3.1 2.7-3.7 1q-1-3.6-2.2-7.3c-0.5-1.6 3.1-2.7 3.7-1z"/><path class="c" d="m517.6 363.2q3.3 3 6 6.5c1.1 1.4-2.5 2.8-3.4 1.5-1.9-2.2-3.8-4.4-6-6.4-1.2-1.2 2.3-2.7 3.4-1.6z"/><path class="c" d="m520.8 405.8c-0.3 3.7 0 7.3 1 10.9 0.5 1.6-3.2 2.5-3.6 1-1.2-3.8-1.5-7.6-1.1-11.5 0.1-1.5 3.8-2.1 3.7-0.4z"/><path class="c" d="m540.8 448.2c0.6 1.9 1.2 3.8 1.8 5.6 0.6 1.7-3.1 2.7-3.7 1-0.6-1.8-1.2-3.7-1.8-5.6-0.6-1.6 3.1-2.7 3.7-1z"/><path class="c" d="m516.8 481c-0.3 2.2-0.1 4.3 0.4 6.5 0.2 1.1-3.4 2-3.7 1-0.5-2.3-0.6-4.6-0.3-7 0.1-0.9 3.7-1.7 3.6-0.5z"/><path class="c" d="m506.2 533.4c-0.1 2.6 0.5 5 1.9 7.3 1 1.6-2.5 3-3.4 1.6-1.6-2.7-2.4-5.5-2.3-8.6 0.1-1.7 3.8-2.2 3.8-0.3z"/><path class="c" d="m425.9 547c0.6 2.7 0.7 5.4 0.4 8.1-0.1 1.1-3.8 1.9-3.7 0.6 0.2-2.6 0.1-5.1-0.4-7.7-0.2-1.2 3.5-2 3.7-1z"/><path class="c" d="m232.7 543.9c-0.8 2.5-1.4 4.8-2.1 7.2-0.4 1.1-4 1.6-3.7 0.6 0.7-2.4 1.4-4.8 2.1-7.2 0.3-1.1 3.9-1.6 3.7-0.6z"/><path class="c" d="m163.5 518.7c0.3 0 1.6 0.1 0.9 0.7q-3.2 2.9-4.5 7.1c-0.2 1-3.9 1.5-3.6 0.6q1.3-4.5 4.7-7.5c0.7-0.6 1.6-1 2.5-0.9z"/><path class="c" d="m233.9 452.4c-0.7-0.3-1-0.9-0.4-1.5 1.8-1.6 3.5-3.2 5.3-4.8 0.6-0.6 1.8-1 2.6-0.7 0.7 0.3 1 0.9 0.4 1.5-1.8 1.6-3.5 3.2-5.3 4.8-0.6 0.6-1.8 1-2.6 0.7z"/><path class="c" d="m304.8 437.5c1.7-1.1 3.3-2.2 5-3.3 1.1-0.7 4.3-0.5 2.3 0.9-1.7 1-3.4 2.2-5.1 3.3-1.1 0.7-4.3 0.4-2.2-0.9z"/><path class="c" d="m278.5 404c-0.7 2.2-1.4 4.5-2.1 6.8-0.3 1-3.9 1.4-3.6 0.5 0.6-2.2 1.3-4.5 2-6.7 0.3-1.1 3.9-1.5 3.7-0.6z"/><path class="c" d="m248.9 377.2c0.3 0 1.5 0 0.9 0.6q-3.3 3.1-7.4 4.8c-0.4 0.2-2 0.9-2.5 0.5-0.6-0.4-0.2-0.7 0.4-0.9q3.4-1.5 6.1-4.1c0.6-0.6 1.8-0.9 2.5-0.9z"/><path class="c" d="m222.4 413.4c0.4 0 1.5 0.3 0.9 0.9-2.1 2.1-3.8 4.4-5 7.1-0.5 1.1-4.1 1.4-3.7 0.5 1.3-2.8 3.1-5.3 5.3-7.5 0.6-0.6 1.6-1 2.5-1z"/><path class="c" d="m322.4 375.9c-0.6 2.8-1.6 5.4-2.9 7.8-0.6 1-4 1.2-3.7 0.7 1.4-2.5 2.4-5.1 2.9-7.8 0.3-1 3.9-1.6 3.7-0.7z"/><path class="c" d="m366.5 398.7c-1 1.4-1.2 2.9-0.7 4.5 0.4 1.8-3.3 2.7-3.7 1-0.6-2.4-0.1-4.6 1.3-6.6 1-1.5 4.4-0.9 3.1 1.1z"/><path class="c" d="m360.1 355.7c-1.2 2.6-2.2 5.3-2.8 8-0.4 1.7-4.2 2.1-3.8 0.3 0.7-3 1.7-5.9 3.1-8.7 0.7-1.5 4.4-1.5 3.5 0.4z"/><path class="c" d="m336.5 359.9c-1.6 0.7-2.5 1.9-3.1 3.5-0.5 1.5-4.1 1.6-3.5-0.3 0.9-2.5 2.7-4.3 5.1-5.3 1.8-0.8 3.9 1 1.5 2.1z"/><path class="c" d="m358.8 333.9c-0.7 2.4-1.4 4.9-2.1 7.3-0.3 1.3-4.1 1.8-3.7 0.4 0.7-2.4 1.4-4.9 2.1-7.3 0.4-1.4 4.2-1.9 3.7-0.4z"/><path class="c" d="m281.6 343c-1.3 1.9-2.3 3.8-3.1 5.9-0.6 1.7-4.3 1.6-3.5-0.5 0.9-2.3 2-4.5 3.5-6.5 1-1.5 4.5-0.8 3.1 1.1z"/><path class="c" d="m299.5 369.2q-0.7 3.5-0.7 7.1c0 1.1-3.7 1.6-3.7 1 0-2.5 0.2-5 0.7-7.5 0.2-0.9 3.8-1.5 3.7-0.6z"/><path class="c" d="m279.7 387.4c0.5 0.1 1.6 0.6 1 1.3-1 1.3-1.9 2.5-2.9 3.9-0.5 0.6-1.5 1.1-2.4 1-0.6-0.1-1.6-0.6-1.1-1.3 1-1.3 2-2.5 3-3.8 0.5-0.7 1.5-1.2 2.4-1.1z"/><path class="c" d="m428.5 360q0.7 2.8 1.4 5.5c0.3 1.1-3.4 2-3.7 1q-0.6-2.7-1.4-5.5c-0.3-1 3.4-2 3.7-1z"/><path class="c" d="m423.8 395.2c-1.7 1.7-2.5 3.7-2.5 6.1 0 1.6-3.7 2.2-3.7 0.3 0-2.8 1.1-5.4 3.1-7.4 1.1-1.2 4.6-0.7 3.1 1z"/><path class="c" d="m405.5 431.9c-1.1 2.3-1.8 4.6-2 7-0.2 1.4-3.9 2.1-3.8 0.4q0.4-4 2.3-7.6c0.7-1.1 4.3-1.4 3.5 0.2z"/><path class="c" d="m481.8 349.3c0.3 2.2 1.2 3.9 2.7 5.4 1.3 1.2-2.2 2.7-3.3 1.6-1.7-1.6-2.8-3.7-3-6-0.2-1.7 3.5-2.6 3.6-1z"/><path class="c" d="m500.4 365.6c1.3 2.2 2.2 4.4 2.8 6.8 0.3 1.1-3.4 2-3.7 1-0.6-2.4-1.5-4.7-2.8-6.8-0.4-0.7 3.1-2.1 3.7-1z"/><path class="c" d="m460.5 403.3c-0.7 1.9-1.2 3.9-1.4 5.9-0.1 1.5-3.9 2.1-3.7 0.3 0.2-2.2 0.8-4.4 1.6-6.5 0.5-1.4 4.2-1.6 3.5 0.3z"/><path class="c" d="m522.2 346.3c0.8 1.3 1.5 2.6 2.2 3.9 0.9 1.5-2.7 2.8-3.4 1.5-0.7-1.3-1.5-2.6-2.2-3.9-0.8-1.5 2.7-2.8 3.4-1.5z"/><path class="c" d="m502.9 399.7c-0.3 1.8-0.5 3.7-0.7 5.6-0.2 1.5-4 2.1-3.8 0.3 0.2-1.9 0.5-3.7 0.7-5.6 0.2-1.6 4-2.1 3.8-0.3z"/><path class="c" d="m496 436.4c0.9 2.9 1.8 5.6 2.8 8.5 0.6 1.7-3.1 2.7-3.7 1-0.9-2.9-1.8-5.7-2.8-8.5-0.6-1.8 3.1-2.8 3.7-1z"/><path class="c" d="m479.6 409.2c1.6 2 2.2 4.2 1.7 6.6-0.2 1.2-3.9 1.8-3.6 0.5 0.3-2.1-0.2-4-1.6-5.7-0.8-1 2.7-2.3 3.5-1.4z"/><path class="c" d="m532.5 387c0.5 1.2 1.2 2.1 2.2 3 1.1 1.1-2.4 2.5-3.4 1.6-1.2-1.1-1.9-2.2-2.6-3.6-0.6-1.3 3.1-2.4 3.8-1z"/><path class="c" d="m545.7 415.9c0.1 2.7 1.2 5.2 3.2 7 1.7 1.4-1.6 3.2-2.8 2.1q-4-3.4-4.2-8.8c-0.1-1.6 3.7-2.2 3.8-0.3z"/><path class="c" d="m517.8 447.2q-0.7 2.1-0.4 4.3c0.3 1.9-3.5 2.8-3.7 1-0.3-2-0.1-3.9 0.5-5.8 0.5-1.6 4.2-1.6 3.6 0.5z"/><path class="c" d="m446.6 455.3c-0.5 3.5-1.1 7.1-1.7 10.6-0.1 1.4-3.9 2-3.6 0.5 0.5-3.6 1.1-7.2 1.6-10.7 0.2-1.4 4-2 3.7-0.5z"/><path class="c" d="m378.4 472.1c-0.4 2.6-0.7 5.2-1.1 7.8-0.2 1.3-3.9 1.9-3.7 0.5 0.4-2.6 0.8-5.3 1.1-7.9 0.2-1.3 3.9-1.9 3.7-0.4z"/><path class="c" d="m317.7 292.8c4.4-4.4 8.9-8.8 12.9-13.6 0.6-0.7 4.1-1.1 3.4-0.3-4.2 4.8-8.6 9.2-13 13.6-0.7 0.7-4.2 1.1-3.3 0.3z"/><path class="c" d="m99.7 330.6q5.8 0 11.6 0c2.5 0-0.1 2-1.4 2q-5.8 0-11.6 0c-2.5 0 0.1-2 1.4-2z"/><path class="c" d="m139.8 330.9q6 0.1 12 0.1c2.5 0.1-0.3 1.9-1.5 1.9q-6-0.1-12-0.2c-2.4 0 0.3-1.9 1.5-1.8z"/><path class="d" d="m223.7 119.3c0.8 4.8-8.2 10.1-15.7 10.1-7.5 0-11.6-1.5-14.6 0.8-3 2.2-3.7 9-7.1 9.3-3.4 0.4-4.9-11.2 0.7-19.5 5.7-8.2 9.4-10.4 18.8-12 5.2-0.8 15.8-2.8 17.9 11.3z"/><g clip-path="url(#cp2)"><path class="c" d="m324.7 267.6c2.4 3.6 8.1 11.2 12.3 11.8 4.3 0.7 9.4-2.4 13.2-3.9 3.3-1.2 7.1-3.7 10.9-3.1 7.2 1.1 4.9 5.3 1 9.2-6 6-13.4 11.2-20.1 16.3-3.1 2.4-7.8 7.2-11.9 7.8-4.7 0.6-5-1.1-7.5-4.6-5.7-8.3-12-14.1-21.8-17.8-2.1-0.8 0.9-2.8 2.3-2.3 8.4 3.3 15.7 8.2 21.1 15.6 5.3 7.5 8.7 5 15.4-0.1 5.3-4 13-9.9 17.7-14.3 4.5-4.3 6.1-5.8 2.6-7-2.9-0.9-10.1 2.9-12.2 4.4-0.7 0.3-2.8 1.6-3.5 1.9-1.8 0.8-4.1 2.1-6.1 1.8-5.8-0.7-13.8-9.8-16.8-14.2-1-1.4 2.6-2.7 3.4-1.5z"/></g><g clip-path="url(#cp3)"><path class="c" d="m344.8 251.2c3.9 7.5 7.3 15.3 10 23.4 0.6 1.7-3.1 2.7-3.7 1-2.6-7.9-5.8-15.4-9.7-22.8-0.9-1.7 2.6-3.1 3.4-1.6z"/></g><g clip-path="url(#cp4)"><path class="c" d="m353.3 228.1c3.2 16.3 7.4 32.5 12.4 48.4 0.3 1.1-3.4 2.1-3.7 0.9-5-15.8-9.1-32-12.4-48.3-0.2-1.2 3.5-2.1 3.7-1z"/></g><g clip-path="url(#cp5)"><path class="c" d="m282.7 301.6c7.6 13.8 15.2 27.6 22.8 41.4 4.2 7.5 3.8 13.2 14.1 9.7 4.4-1.5 9.7-9.3 12.8-13 10.3-11.9 17.1-32.6 29.5-41.5 0.9-0.6 2.2-0.8 3 0 4.6 4.6 3.8 15.2 4.8 21.2 2.3 13 4.9 25.6 6.3 38.9 1.4 12.3 3.9 23.1 8.4 34.7 1.3 3.1 5.4 17 8.3 18.1 0.2 0-3.1 2.4 0.2-1.8 10.1-13.1 15.1-36.6 21.5-51.8 4.9-11.6 9.1-26.2 17-36.3 0.6-0.7 2.7-1.4 3.2-0.3 4.2 7.4 8 15 11.8 22.6 2.5 5.2 6 18.1 10 15.7 4.4-2.6 8.6-19.6 12-24.6 2.2-3.4 4-6.5 7.5-8.7 0.8-0.6 1.8-0.7 2.6-0.3 6.8 3.7 17 15.3 24.6 16 17.7 1.7 35.6-43.5 42-55.8 0.7-1.5 4.5-1.5 3.5 0.4-6.4 12.3-26.1 59.9-43.3 60.1-7.3 0.1-15.4-10.7-21.8-13.5-9.6-4.2-7.9-4.7-14.3 6.9-4.8 8.8-8.4 18.2-12.3 27.4-0.6 1.2-3.1 1.6-3.6 0.2-5.2-11.6-11.4-22.9-16.4-34.5-4.2-9.6-2.3-9.4-6.7-2.8-6.1 9.3-9.7 21.8-14 32.1-6.4 15.3-11.3 39.6-22.1 52.5-0.7 0.7-2.5 1.2-3.2 0.2-19.2-27.3-19.8-64.7-25.1-96.4-0.2-1.8-0.5-11.2-1.9-12.5-3.8-3.7 1.4-2.1-4 0.6-4.6 2.4-10.8 16.7-14.1 21.2-8 11.2-18.5 27-32.4 31.5-0.7 0.2-1.5 0-2-0.4-13.9-13.7-22.5-38.4-31.9-55.5-1-1.7 2.6-3.1 3.2-1.7z"/></g><g clip-path="url(#cp6)"><path class="c" d="m217.6 168.5c4.9 10.2 9.5 20.4 12.6 31.3 2.8 10 5.4 25 16.6 28.7 1.4 0.5-1.9 2.2-3 1.8-9-3.1-12.2-12.8-15-21.2-4.5-13.6-8.7-26.5-15-39.5-0.5-1.1 3.1-2.3 3.8-1.1z"/></g><g clip-path="url(#cp7)"><path class="c" d="m189.3 193.4c-1.2 17.4-10.7 38.4-25.4 48.3-1.5 1-4.5-0.3-2.4-1.7 13.7-9.3 22.9-30 24-46.2 0.1-1.7 3.9-2.2 3.8-0.4z"/></g><g clip-path="url(#cp8)"><path class="c" d="m81.8 336.4c23.6-0.3 47.2-0.2 70.8 0.1 2.4 0.1-0.2 2-1.5 2-23.6-0.3-47.2-0.4-70.8-0.2-2.5 0.1 0.1-1.9 1.5-1.9z"/></g></g></svg>