<svg width="444" height="386" viewBox="0 0 444 386" fill="none" xmlns="http://www.w3.org/2000/svg">
<path d="M158.029 319.94H110.279V385.12H158.029V319.94Z" fill="#CCF8FC"/>
<path d="M241.059 229.41H193.309V385.12H241.059V229.41Z" fill="#CCF8FC"/>
<path d="M326.139 193.27H278.389V385.12H326.139V193.27Z" fill="#CCF8FC"/>
<path d="M411.219 130.08H363.469V385.12H411.219V130.08Z" fill="#CCF8FC"/>
<path d="M426.219 45.88H420.999C420.799 45.89 420.639 45.73 420.629 45.53C420.629 45.52 420.629 45.52 420.629 45.51C420.619 45.31 420.789 45.14 420.989 45.13H420.999H426.199C426.409 45.13 426.579 45.3 426.579 45.51C426.579 45.71 426.419 45.87 426.219 45.88ZM415.019 45.88H409.019C408.819 45.89 408.659 45.73 408.649 45.53C408.649 45.52 408.649 45.52 408.649 45.51C408.639 45.31 408.809 45.14 409.009 45.13H409.019H415.019C415.229 45.13 415.399 45.3 415.399 45.51C415.399 45.71 415.239 45.88 415.029 45.88C415.019 45.88 415.009 45.88 414.999 45.88H415.019ZM403.019 45.88H397.019C396.819 45.89 396.659 45.73 396.649 45.53C396.649 45.52 396.649 45.52 396.649 45.51C396.639 45.31 396.809 45.14 397.009 45.13H397.019H403.019C403.229 45.13 403.399 45.3 403.399 45.51C403.399 45.71 403.239 45.88 403.029 45.88C403.019 45.88 403.009 45.88 402.999 45.88H403.019ZM391.019 45.88H385.019C384.819 45.89 384.659 45.73 384.649 45.53C384.649 45.52 384.649 45.52 384.649 45.51C384.639 45.31 384.809 45.14 385.009 45.13H385.019H391.019C391.229 45.13 391.399 45.3 391.399 45.51C391.399 45.71 391.239 45.88 391.029 45.88C391.019 45.88 391.009 45.88 390.999 45.88H391.019ZM379.019 45.88H373.019C372.819 45.89 372.659 45.73 372.649 45.53C372.649 45.52 372.649 45.52 372.649 45.51C372.639 45.31 372.809 45.14 373.009 45.13H373.019H379.019C379.229 45.13 379.399 45.3 379.399 45.51C379.399 45.71 379.239 45.88 379.029 45.88C379.019 45.88 379.009 45.88 378.999 45.88H379.019ZM367.019 45.88H361.019C360.819 45.89 360.659 45.73 360.649 45.53C360.649 45.52 360.649 45.52 360.649 45.51C360.639 45.31 360.809 45.14 361.009 45.13H361.019H367.019C367.229 45.13 367.399 45.3 367.399 45.51C367.399 45.71 367.239 45.88 367.029 45.88C367.019 45.88 367.009 45.88 366.999 45.88H367.019ZM355.019 45.88H349.019C348.819 45.89 348.659 45.73 348.649 45.53C348.649 45.52 348.649 45.52 348.649 45.51C348.639 45.31 348.809 45.14 349.009 45.13H349.019H355.019C355.229 45.13 355.399 45.3 355.399 45.51C355.399 45.71 355.239 45.88 355.029 45.88C355.019 45.88 355.009 45.88 354.999 45.88H355.019ZM343.019 45.88H337.019C336.819 45.89 336.659 45.73 336.649 45.53C336.649 45.52 336.649 45.52 336.649 45.51C336.639 45.31 336.809 45.14 337.009 45.13H337.019H343.019C343.229 45.13 343.399 45.3 343.399 45.51C343.399 45.71 343.239 45.88 343.029 45.88C343.019 45.88 343.009 45.88 342.999 45.88H343.019ZM331.019 45.88H325.019C324.819 45.89 324.659 45.73 324.649 45.53C324.649 45.52 324.649 45.52 324.649 45.51C324.639 45.31 324.809 45.14 325.009 45.13H325.019H331.019C331.229 45.13 331.399 45.3 331.399 45.51C331.399 45.71 331.239 45.88 331.029 45.88C331.019 45.88 331.009 45.88 330.999 45.88H331.019ZM319.019 45.88H313.019C312.819 45.89 312.659 45.73 312.649 45.53C312.649 45.52 312.649 45.52 312.649 45.51C312.639 45.31 312.809 45.14 313.009 45.13H313.019H319.019C319.229 45.13 319.399 45.3 319.399 45.51C319.399 45.71 319.239 45.88 319.029 45.88C319.019 45.88 319.009 45.88 318.999 45.88H319.019ZM307.019 45.88H301.019C300.819 45.89 300.659 45.73 300.649 45.53C300.649 45.52 300.649 45.52 300.649 45.51C300.639 45.31 300.809 45.14 301.009 45.13H301.019H307.019C307.229 45.13 307.399 45.3 307.399 45.51C307.399 45.71 307.239 45.88 307.029 45.88C307.019 45.88 307.009 45.88 306.999 45.88H307.019ZM295.019 45.88H289.019C288.819 45.89 288.659 45.73 288.649 45.53C288.649 45.52 288.649 45.52 288.649 45.51C288.639 45.31 288.809 45.14 289.009 45.13H289.019H295.019C295.229 45.13 295.399 45.3 295.399 45.51C295.399 45.71 295.239 45.88 295.029 45.88C295.019 45.88 295.009 45.88 294.999 45.88H295.019ZM283.019 45.88H277.019C276.819 45.89 276.659 45.73 276.649 45.53C276.649 45.52 276.649 45.52 276.649 45.51C276.639 45.31 276.809 45.14 277.009 45.13H277.019H283.019C283.229 45.13 283.399 45.3 283.399 45.51C283.399 45.71 283.239 45.88 283.029 45.88C283.019 45.88 283.009 45.88 282.999 45.88H283.019ZM271.019 45.88H265.019C264.819 45.89 264.659 45.73 264.649 45.53C264.649 45.52 264.649 45.52 264.649 45.51C264.639 45.31 264.809 45.14 265.009 45.13H265.019H271.019C271.229 45.13 271.399 45.3 271.399 45.51C271.399 45.71 271.239 45.88 271.029 45.88C271.019 45.88 271.009 45.88 270.999 45.88H271.019ZM259.019 45.88H253.019C252.819 45.89 252.659 45.73 252.649 45.53C252.649 45.52 252.649 45.52 252.649 45.51C252.639 45.31 252.809 45.14 253.009 45.13H253.019H259.019C259.229 45.13 259.399 45.3 259.399 45.51C259.399 45.71 259.239 45.88 259.029 45.88C259.019 45.88 259.009 45.88 258.999 45.88H259.019ZM247.019 45.88H241.019C240.819 45.89 240.659 45.73 240.649 45.53C240.649 45.52 240.649 45.52 240.649 45.51C240.639 45.31 240.809 45.14 241.009 45.13H241.019H247.019C247.229 45.13 247.399 45.3 247.399 45.51C247.399 45.71 247.239 45.88 247.029 45.88C247.019 45.88 247.009 45.88 246.999 45.88H247.019ZM235.019 45.88H229.019C228.819 45.89 228.659 45.73 228.649 45.53C228.649 45.52 228.649 45.52 228.649 45.51C228.639 45.31 228.809 45.14 229.009 45.13H229.019H235.019C235.229 45.13 235.399 45.3 235.399 45.51C235.399 45.71 235.239 45.88 235.029 45.88C235.019 45.88 235.009 45.88 234.999 45.88H235.019ZM223.019 45.88H217.019C216.819 45.89 216.659 45.73 216.649 45.53C216.649 45.52 216.649 45.52 216.649 45.51C216.639 45.31 216.809 45.14 217.009 45.13H217.019H223.019C223.229 45.13 223.399 45.3 223.399 45.51C223.399 45.71 223.239 45.88 223.029 45.88C223.019 45.88 223.009 45.88 222.999 45.88H223.019ZM211.019 45.88H205.019C204.819 45.89 204.659 45.73 204.649 45.53C204.649 45.52 204.649 45.52 204.649 45.51C204.639 45.31 204.809 45.14 205.009 45.13H205.019H211.019C211.229 45.13 211.399 45.3 211.399 45.51C211.399 45.71 211.239 45.88 211.029 45.88C211.019 45.88 211.009 45.88 210.999 45.88H211.019ZM199.019 45.88H193.019C192.819 45.89 192.659 45.73 192.649 45.53C192.649 45.52 192.649 45.52 192.649 45.51C192.639 45.31 192.809 45.14 193.009 45.13H193.019H199.019C199.229 45.13 199.399 45.3 199.399 45.51C199.399 45.71 199.239 45.88 199.029 45.88C199.019 45.88 199.009 45.88 198.999 45.88H199.019ZM187.019 45.88H181.019C180.819 45.89 180.659 45.73 180.649 45.53C180.649 45.52 180.649 45.52 180.649 45.51C180.639 45.31 180.809 45.14 181.009 45.13H181.019H187.019C187.229 45.13 187.399 45.3 187.399 45.51C187.399 45.71 187.239 45.88 187.029 45.88C187.019 45.88 187.009 45.88 186.999 45.88H187.019ZM175.019 45.88H169.019C168.819 45.89 168.659 45.73 168.649 45.53C168.649 45.52 168.649 45.52 168.649 45.51C168.639 45.31 168.809 45.14 169.009 45.13H169.019H175.019C175.229 45.13 175.399 45.3 175.399 45.51C175.399 45.71 175.239 45.88 175.029 45.88C175.019 45.88 175.009 45.88 174.999 45.88H175.019ZM163.019 45.88H157.019C156.819 45.89 156.659 45.73 156.649 45.53C156.649 45.52 156.649 45.52 156.649 45.51C156.639 45.31 156.809 45.14 157.009 45.13H157.019H163.019C163.229 45.13 163.399 45.3 163.399 45.51C163.399 45.71 163.239 45.88 163.029 45.88C163.019 45.88 163.009 45.88 162.999 45.88H163.019ZM151.019 45.88H145.019C144.819 45.89 144.659 45.73 144.649 45.53C144.649 45.52 144.649 45.52 144.649 45.51C144.639 45.31 144.809 45.14 145.009 45.13H145.019H151.019C151.229 45.13 151.399 45.3 151.399 45.51C151.399 45.71 151.239 45.88 151.029 45.88C151.019 45.88 151.009 45.88 150.999 45.88H151.019ZM139.019 45.88H133.019C132.819 45.89 132.659 45.73 132.649 45.53C132.649 45.52 132.649 45.52 132.649 45.51C132.639 45.31 132.809 45.14 133.009 45.13H133.019H139.019C139.229 45.13 139.399 45.3 139.399 45.51C139.399 45.71 139.239 45.88 139.029 45.88C139.019 45.88 139.009 45.88 138.999 45.88H139.019ZM127.019 45.88H121.019C120.819 45.89 120.659 45.73 120.649 45.53C120.649 45.52 120.649 45.52 120.649 45.51C120.639 45.31 120.809 45.14 121.009 45.13H121.019H127.019C127.229 45.13 127.399 45.3 127.399 45.51C127.399 45.71 127.239 45.88 127.029 45.88C127.019 45.88 127.009 45.88 126.999 45.88H127.019ZM115.019 45.88H109.019C108.819 45.89 108.659 45.73 108.649 45.53C108.649 45.52 108.649 45.52 108.649 45.51C108.639 45.31 108.809 45.14 109.009 45.13H109.019H115.019C115.229 45.13 115.399 45.3 115.399 45.51C115.399 45.71 115.239 45.88 115.029 45.88C115.019 45.88 115.009 45.88 114.999 45.88H115.019ZM103.019 45.88H97.0193C96.8193 45.89 96.6593 45.73 96.6493 45.53C96.6493 45.52 96.6493 45.52 96.6493 45.51C96.6393 45.31 96.8093 45.14 97.0093 45.13H97.0193H103.019C103.229 45.13 103.399 45.3 103.399 45.51C103.399 45.71 103.239 45.88 103.029 45.88C103.019 45.88 103.009 45.88 102.999 45.88H103.019ZM91.0193 45.88H85.0193C84.8193 45.89 84.6593 45.73 84.6493 45.53C84.6493 45.52 84.6493 45.52 84.6493 45.51C84.6393 45.31 84.8093 45.14 85.0093 45.13H85.0193H91.0193C91.2293 45.13 91.3993 45.3 91.3993 45.51C91.3993 45.71 91.2393 45.88 91.0293 45.88C91.0193 45.88 91.0093 45.88 90.9993 45.88H91.0193ZM79.0193 45.88H73.0193C72.8193 45.89 72.6593 45.73 72.6493 45.53C72.6493 45.52 72.6493 45.52 72.6493 45.51C72.6393 45.31 72.8093 45.14 73.0093 45.13H73.0193H79.0193C79.2293 45.13 79.3993 45.3 79.3993 45.51C79.3993 45.71 79.2393 45.88 79.0293 45.88C79.0193 45.88 79.0093 45.88 78.9993 45.88H79.0193ZM67.0193 45.88H60.9993C60.7993 45.89 60.6393 45.73 60.6293 45.53C60.6293 45.52 60.6293 45.52 60.6293 45.51C60.6193 45.31 60.7893 45.14 60.9893 45.13H60.9993H66.9993C67.2093 45.13 67.3793 45.3 67.3793 45.51C67.3793 45.71 67.2093 45.88 67.0193 45.88C67.0093 45.88 66.9993 45.88 66.9993 45.88H67.0193ZM55.0193 45.88H48.9993C48.7993 45.89 48.6393 45.73 48.6293 45.53C48.6293 45.52 48.6293 45.52 48.6293 45.51C48.6193 45.31 48.7893 45.14 48.9893 45.13H48.9993H54.9993C55.2093 45.13 55.3793 45.3 55.3793 45.51C55.3793 45.71 55.2093 45.88 55.0193 45.88C55.0093 45.88 54.9993 45.88 54.9993 45.88H55.0193ZM43.0193 45.88H36.9993C36.7993 45.89 36.6393 45.73 36.6293 45.53C36.6293 45.52 36.6293 45.52 36.6293 45.51C36.6193 45.31 36.7893 45.14 36.9893 45.13H36.9993H42.9993C43.2093 45.13 43.3793 45.3 43.3793 45.51C43.3793 45.71 43.2093 45.88 43.0193 45.88C43.0093 45.88 42.9993 45.88 42.9993 45.88H43.0193ZM31.0193 45.88H24.9993C24.7993 45.89 24.6393 45.73 24.6293 45.53C24.6293 45.52 24.6293 45.52 24.6293 45.51C24.6193 45.31 24.7893 45.14 24.9893 45.13H24.9993H30.9993C31.2093 45.13 31.3793 45.3 31.3793 45.51C31.3793 45.71 31.2093 45.88 31.0193 45.88C31.0093 45.88 30.9993 45.88 30.9993 45.88H31.0193ZM19.0193 45.88H12.9993C12.7993 45.89 12.6393 45.73 12.6293 45.53C12.6293 45.52 12.6293 45.52 12.6293 45.51C12.6193 45.31 12.7893 45.14 12.9893 45.13H12.9993H18.9993C19.2093 45.13 19.3793 45.3 19.3793 45.51C19.3793 45.71 19.2093 45.88 19.0193 45.88C19.0093 45.88 18.9993 45.88 18.9993 45.88H19.0193ZM7.01933 45.88H0.999327C0.799327 45.89 0.639326 45.73 0.629326 45.53C0.629326 45.52 0.629326 45.52 0.629326 45.51C0.619326 45.31 0.789327 45.14 0.989327 45.13H0.999327H6.99933C7.20933 45.13 7.37933 45.3 7.37933 45.51C7.37933 45.71 7.20933 45.88 7.01933 45.88C7.00933 45.88 6.99933 45.88 6.99933 45.88H7.01933Z" fill="#0049FF"/>
<path d="M426.218 130.45H420.218C420.008 130.42 419.868 130.22 419.908 130.01C419.938 129.85 420.058 129.72 420.218 129.7H426.218C426.428 129.67 426.618 129.81 426.658 130.01C426.688 130.22 426.548 130.41 426.348 130.45C426.298 130.46 426.258 130.46 426.218 130.45ZM414.218 130.45H408.218C408.008 130.42 407.868 130.22 407.908 130.01C407.938 129.85 408.058 129.72 408.218 129.7H414.218C414.428 129.67 414.618 129.81 414.658 130.01C414.688 130.22 414.548 130.41 414.348 130.45C414.298 130.46 414.258 130.46 414.218 130.45ZM402.218 130.45H396.218C396.008 130.42 395.868 130.22 395.908 130.01C395.938 129.85 396.058 129.72 396.218 129.7H402.218C402.428 129.67 402.618 129.81 402.658 130.01C402.688 130.22 402.548 130.41 402.348 130.45C402.298 130.46 402.258 130.46 402.218 130.45ZM390.218 130.45H384.218C384.008 130.42 383.868 130.22 383.908 130.01C383.938 129.85 384.058 129.72 384.218 129.7H390.218C390.428 129.67 390.618 129.81 390.658 130.01C390.688 130.22 390.548 130.41 390.348 130.45C390.298 130.46 390.258 130.46 390.218 130.45ZM378.218 130.45H372.218C372.008 130.42 371.868 130.22 371.908 130.01C371.938 129.85 372.058 129.72 372.218 129.7H378.218C378.428 129.67 378.618 129.81 378.658 130.01C378.688 130.22 378.548 130.41 378.348 130.45C378.298 130.46 378.258 130.46 378.218 130.45ZM366.218 130.45H360.218C360.008 130.42 359.868 130.22 359.908 130.01C359.938 129.85 360.058 129.72 360.218 129.7H366.218C366.428 129.67 366.618 129.81 366.658 130.01C366.688 130.22 366.548 130.41 366.348 130.45C366.298 130.46 366.258 130.46 366.218 130.45ZM354.218 130.45H348.218C348.008 130.42 347.868 130.22 347.908 130.01C347.938 129.85 348.058 129.72 348.218 129.7H354.218C354.428 129.67 354.618 129.81 354.658 130.01C354.688 130.22 354.548 130.41 354.348 130.45C354.298 130.46 354.258 130.46 354.218 130.45ZM342.218 130.45H336.218C336.008 130.42 335.868 130.22 335.908 130.01C335.938 129.85 336.058 129.72 336.218 129.7H342.218C342.428 129.67 342.618 129.81 342.658 130.01C342.688 130.22 342.548 130.41 342.348 130.45C342.298 130.46 342.258 130.46 342.218 130.45ZM330.218 130.45H324.218C324.008 130.42 323.868 130.22 323.908 130.01C323.938 129.85 324.058 129.72 324.218 129.7H330.218C330.428 129.67 330.618 129.81 330.658 130.01C330.688 130.22 330.548 130.41 330.348 130.45C330.298 130.46 330.258 130.46 330.218 130.45ZM318.218 130.45H312.218C312.008 130.42 311.868 130.22 311.908 130.01C311.938 129.85 312.058 129.72 312.218 129.7H318.218C318.428 129.67 318.618 129.81 318.658 130.01C318.688 130.22 318.548 130.41 318.348 130.45C318.298 130.46 318.258 130.46 318.218 130.45ZM306.218 130.45H300.218C300.008 130.42 299.868 130.22 299.908 130.01C299.938 129.85 300.058 129.72 300.218 129.7H306.218C306.428 129.67 306.618 129.81 306.658 130.01C306.688 130.22 306.548 130.41 306.348 130.45C306.298 130.46 306.258 130.46 306.218 130.45ZM294.218 130.45H288.218C288.008 130.42 287.868 130.22 287.908 130.01C287.938 129.85 288.058 129.72 288.218 129.7H294.218C294.428 129.67 294.618 129.81 294.658 130.01C294.688 130.22 294.548 130.41 294.348 130.45C294.298 130.46 294.258 130.46 294.218 130.45ZM282.218 130.45H276.218C276.008 130.42 275.868 130.22 275.908 130.01C275.938 129.85 276.058 129.72 276.218 129.7H282.218C282.428 129.67 282.618 129.81 282.658 130.01C282.688 130.22 282.548 130.41 282.348 130.45C282.298 130.46 282.258 130.46 282.218 130.45ZM270.218 130.45H264.218C264.008 130.42 263.868 130.22 263.908 130.01C263.938 129.85 264.058 129.72 264.218 129.7H270.218C270.428 129.67 270.618 129.81 270.658 130.01C270.688 130.22 270.548 130.41 270.348 130.45C270.298 130.46 270.258 130.46 270.218 130.45ZM258.218 130.45H252.218C252.008 130.42 251.868 130.22 251.908 130.01C251.938 129.85 252.058 129.72 252.218 129.7H258.218C258.428 129.67 258.618 129.81 258.658 130.01C258.688 130.22 258.548 130.41 258.348 130.45C258.298 130.46 258.258 130.46 258.218 130.45ZM246.218 130.45H240.218C240.008 130.42 239.868 130.22 239.908 130.01C239.938 129.85 240.058 129.72 240.218 129.7H246.218C246.428 129.67 246.618 129.81 246.658 130.01C246.688 130.22 246.548 130.41 246.348 130.45C246.298 130.46 246.258 130.46 246.218 130.45ZM234.218 130.45H228.218C228.008 130.42 227.868 130.22 227.908 130.01C227.938 129.85 228.058 129.72 228.218 129.7H234.218C234.428 129.67 234.618 129.81 234.658 130.01C234.688 130.22 234.548 130.41 234.348 130.45C234.298 130.46 234.258 130.46 234.218 130.45ZM222.218 130.45H216.218C216.008 130.42 215.868 130.22 215.908 130.01C215.938 129.85 216.058 129.72 216.218 129.7H222.218C222.428 129.67 222.618 129.81 222.658 130.01C222.688 130.22 222.548 130.41 222.348 130.45C222.298 130.46 222.258 130.46 222.218 130.45ZM210.218 130.45H204.218C204.008 130.42 203.868 130.22 203.908 130.01C203.938 129.85 204.058 129.72 204.218 129.7H210.218C210.428 129.67 210.618 129.81 210.658 130.01C210.688 130.22 210.548 130.41 210.348 130.45C210.298 130.46 210.258 130.46 210.218 130.45ZM198.218 130.45H192.218C192.008 130.42 191.868 130.22 191.908 130.01C191.938 129.85 192.058 129.72 192.218 129.7H198.218C198.428 129.67 198.618 129.81 198.658 130.01C198.688 130.22 198.548 130.41 198.348 130.45C198.298 130.46 198.258 130.46 198.218 130.45ZM186.218 130.45H180.218C180.008 130.42 179.868 130.22 179.908 130.01C179.938 129.85 180.058 129.72 180.218 129.7H186.218C186.428 129.67 186.618 129.81 186.658 130.01C186.688 130.22 186.548 130.41 186.348 130.45C186.298 130.46 186.258 130.46 186.218 130.45ZM174.218 130.45H168.218C168.008 130.42 167.868 130.22 167.908 130.01C167.938 129.85 168.058 129.72 168.218 129.7H174.218C174.428 129.67 174.618 129.81 174.658 130.01C174.688 130.22 174.548 130.41 174.348 130.45C174.298 130.46 174.258 130.46 174.218 130.45ZM162.218 130.45H156.218C156.008 130.42 155.868 130.22 155.908 130.01C155.938 129.85 156.058 129.72 156.218 129.7H162.218C162.428 129.67 162.618 129.81 162.658 130.01C162.688 130.22 162.548 130.41 162.348 130.45C162.298 130.46 162.258 130.46 162.218 130.45ZM150.218 130.45H144.218C144.008 130.42 143.868 130.22 143.908 130.01C143.938 129.85 144.058 129.72 144.218 129.7H150.218C150.428 129.67 150.618 129.81 150.658 130.01C150.688 130.22 150.548 130.41 150.348 130.45C150.298 130.46 150.258 130.46 150.218 130.45ZM138.218 130.45H132.218C132.008 130.42 131.868 130.22 131.908 130.01C131.938 129.85 132.058 129.72 132.218 129.7H138.218C138.428 129.67 138.618 129.81 138.658 130.01C138.688 130.22 138.548 130.41 138.348 130.45C138.298 130.46 138.258 130.46 138.218 130.45ZM126.218 130.45H120.218C120.008 130.42 119.868 130.22 119.908 130.01C119.938 129.85 120.058 129.72 120.218 129.7H126.218C126.428 129.67 126.618 129.81 126.658 130.01C126.688 130.22 126.548 130.41 126.348 130.45C126.298 130.46 126.258 130.46 126.218 130.45ZM114.218 130.45H108.218C108.008 130.42 107.868 130.22 107.908 130.01C107.938 129.85 108.058 129.72 108.218 129.7H114.218C114.428 129.67 114.618 129.81 114.658 130.01C114.688 130.22 114.548 130.41 114.348 130.45C114.298 130.46 114.258 130.46 114.218 130.45ZM102.218 130.45H96.2185C96.0085 130.42 95.8685 130.22 95.9085 130.01C95.9385 129.85 96.0585 129.72 96.2185 129.7H102.218C102.428 129.67 102.618 129.81 102.658 130.01C102.688 130.22 102.548 130.41 102.348 130.45C102.298 130.46 102.258 130.46 102.218 130.45ZM90.2185 130.45H84.2185C84.0085 130.42 83.8685 130.22 83.9085 130.01C83.9385 129.85 84.0585 129.72 84.2185 129.7H90.2185C90.4285 129.67 90.6185 129.81 90.6585 130.01C90.6885 130.22 90.5485 130.41 90.3485 130.45C90.2985 130.46 90.2585 130.46 90.2185 130.45ZM78.2185 130.45H72.2185C72.0085 130.42 71.8685 130.22 71.9085 130.01C71.9385 129.85 72.0585 129.72 72.2185 129.7H78.2185C78.4285 129.67 78.6185 129.81 78.6585 130.01C78.6885 130.22 78.5485 130.41 78.3485 130.45C78.2985 130.46 78.2585 130.46 78.2185 130.45ZM66.2185 130.45H60.2185C60.0085 130.42 59.8685 130.22 59.9085 130.01C59.9385 129.85 60.0585 129.72 60.2185 129.7H66.2185C66.4285 129.67 66.6185 129.81 66.6585 130.01C66.6885 130.22 66.5485 130.41 66.3485 130.45C66.2985 130.46 66.2585 130.46 66.2185 130.45ZM54.2185 130.45H48.2185C48.0085 130.42 47.8685 130.22 47.9085 130.01C47.9385 129.85 48.0585 129.72 48.2185 129.7H54.2185C54.4285 129.67 54.6185 129.81 54.6585 130.01C54.6885 130.22 54.5485 130.41 54.3485 130.45C54.2985 130.46 54.2585 130.46 54.2185 130.45ZM42.2185 130.45H36.2185C36.0085 130.42 35.8685 130.22 35.9085 130.01C35.9385 129.85 36.0585 129.72 36.2185 129.7H42.2185C42.4285 129.67 42.6185 129.81 42.6585 130.01C42.6885 130.22 42.5485 130.41 42.3485 130.45C42.2985 130.46 42.2585 130.46 42.2185 130.45ZM30.2185 130.45H24.2185C24.0085 130.42 23.8685 130.22 23.9085 130.01C23.9385 129.85 24.0585 129.72 24.2185 129.7H30.2185C30.4285 129.67 30.6185 129.81 30.6585 130.01C30.6885 130.22 30.5485 130.41 30.3485 130.45C30.2985 130.46 30.2585 130.46 30.2185 130.45ZM18.2185 130.45H12.2185C12.0085 130.42 11.8685 130.22 11.9085 130.01C11.9385 129.85 12.0585 129.72 12.2185 129.7H18.2185C18.4285 129.67 18.6185 129.81 18.6585 130.01C18.6885 130.22 18.5485 130.41 18.3485 130.45C18.2985 130.46 18.2585 130.46 18.2185 130.45ZM6.21847 130.45H0.998466C0.788466 130.42 0.648466 130.22 0.688466 130.01C0.718466 129.85 0.838466 129.72 0.998466 129.7H6.19847C6.40847 129.67 6.59847 129.81 6.63847 130.01C6.66847 130.22 6.52847 130.41 6.32847 130.45C6.28847 130.46 6.24847 130.46 6.20847 130.45H6.21847Z" fill="#0049FF"/>
<path d="M426.219 215.33H420.999C420.799 215.34 420.639 215.18 420.629 214.98C420.629 214.97 420.629 214.97 420.629 214.96C420.619 214.76 420.789 214.59 420.989 214.58H420.999H426.199C426.409 214.58 426.579 214.75 426.579 214.96C426.579 215.16 426.419 215.32 426.219 215.33ZM415.019 215.33H409.019C408.819 215.34 408.659 215.18 408.649 214.98C408.649 214.97 408.649 214.97 408.649 214.96C408.639 214.76 408.809 214.59 409.009 214.58H409.019H415.019C415.229 214.58 415.399 214.75 415.399 214.96C415.399 215.16 415.239 215.33 415.029 215.33C415.019 215.33 415.009 215.33 414.999 215.33H415.019ZM403.019 215.33H397.019C396.819 215.34 396.659 215.18 396.649 214.98C396.649 214.97 396.649 214.97 396.649 214.96C396.639 214.76 396.809 214.59 397.009 214.58H397.019H403.019C403.229 214.58 403.399 214.75 403.399 214.96C403.399 215.16 403.239 215.33 403.029 215.33C403.019 215.33 403.009 215.33 402.999 215.33H403.019ZM391.019 215.33H385.019C384.819 215.34 384.659 215.18 384.649 214.98C384.649 214.97 384.649 214.97 384.649 214.96C384.639 214.76 384.809 214.59 385.009 214.58H385.019H391.019C391.229 214.58 391.399 214.75 391.399 214.96C391.399 215.16 391.239 215.33 391.029 215.33C391.019 215.33 391.009 215.33 390.999 215.33H391.019ZM379.019 215.33H373.019C372.819 215.34 372.659 215.18 372.649 214.98C372.649 214.97 372.649 214.97 372.649 214.96C372.639 214.76 372.809 214.59 373.009 214.58H373.019H379.019C379.229 214.58 379.399 214.75 379.399 214.96C379.399 215.16 379.239 215.33 379.029 215.33C379.019 215.33 379.009 215.33 378.999 215.33H379.019ZM367.019 215.33H361.019C360.819 215.34 360.659 215.18 360.649 214.98C360.649 214.97 360.649 214.97 360.649 214.96C360.639 214.76 360.809 214.59 361.009 214.58H361.019H367.019C367.229 214.58 367.399 214.75 367.399 214.96C367.399 215.16 367.239 215.33 367.029 215.33C367.019 215.33 367.009 215.33 366.999 215.33H367.019ZM355.019 215.33H349.019C348.819 215.34 348.659 215.18 348.649 214.98C348.649 214.97 348.649 214.97 348.649 214.96C348.639 214.76 348.809 214.59 349.009 214.58H349.019H355.019C355.229 214.58 355.399 214.75 355.399 214.96C355.399 215.16 355.239 215.33 355.029 215.33C355.019 215.33 355.009 215.33 354.999 215.33H355.019ZM343.019 215.33H337.019C336.819 215.34 336.659 215.18 336.649 214.98C336.649 214.97 336.649 214.97 336.649 214.96C336.639 214.76 336.809 214.59 337.009 214.58H337.019H343.019C343.229 214.58 343.399 214.75 343.399 214.96C343.399 215.16 343.239 215.33 343.029 215.33C343.019 215.33 343.009 215.33 342.999 215.33H343.019ZM331.019 215.33H325.019C324.819 215.34 324.659 215.18 324.649 214.98C324.649 214.97 324.649 214.97 324.649 214.96C324.639 214.76 324.809 214.59 325.009 214.58H325.019H331.019C331.229 214.58 331.399 214.75 331.399 214.96C331.399 215.16 331.239 215.33 331.029 215.33C331.019 215.33 331.009 215.33 330.999 215.33H331.019ZM319.019 215.33H313.019C312.819 215.34 312.659 215.18 312.649 214.98C312.649 214.97 312.649 214.97 312.649 214.96C312.639 214.76 312.809 214.59 313.009 214.58H313.019H319.019C319.229 214.58 319.399 214.75 319.399 214.96C319.399 215.16 319.239 215.33 319.029 215.33C319.019 215.33 319.009 215.33 318.999 215.33H319.019ZM307.019 215.33H301.019C300.819 215.34 300.659 215.18 300.649 214.98C300.649 214.97 300.649 214.97 300.649 214.96C300.639 214.76 300.809 214.59 301.009 214.58H301.019H307.019C307.229 214.58 307.399 214.75 307.399 214.96C307.399 215.16 307.239 215.33 307.029 215.33C307.019 215.33 307.009 215.33 306.999 215.33H307.019ZM295.019 215.33H289.019C288.819 215.34 288.659 215.18 288.649 214.98C288.649 214.97 288.649 214.97 288.649 214.96C288.639 214.76 288.809 214.59 289.009 214.58H289.019H295.019C295.229 214.58 295.399 214.75 295.399 214.96C295.399 215.16 295.239 215.33 295.029 215.33C295.019 215.33 295.009 215.33 294.999 215.33H295.019ZM283.019 215.33H277.019C276.819 215.34 276.659 215.18 276.649 214.98C276.649 214.97 276.649 214.97 276.649 214.96C276.639 214.76 276.809 214.59 277.009 214.58H277.019H283.019C283.229 214.58 283.399 214.75 283.399 214.96C283.399 215.16 283.239 215.33 283.029 215.33C283.019 215.33 283.009 215.33 282.999 215.33H283.019ZM271.019 215.33H265.019C264.819 215.34 264.659 215.18 264.649 214.98C264.649 214.97 264.649 214.97 264.649 214.96C264.639 214.76 264.809 214.59 265.009 214.58H265.019H271.019C271.229 214.58 271.399 214.75 271.399 214.96C271.399 215.16 271.239 215.33 271.029 215.33C271.019 215.33 271.009 215.33 270.999 215.33H271.019ZM259.019 215.33H253.019C252.819 215.34 252.659 215.18 252.649 214.98C252.649 214.97 252.649 214.97 252.649 214.96C252.639 214.76 252.809 214.59 253.009 214.58H253.019H259.019C259.229 214.58 259.399 214.75 259.399 214.96C259.399 215.16 259.239 215.33 259.029 215.33C259.019 215.33 259.009 215.33 258.999 215.33H259.019ZM247.019 215.33H241.019C240.819 215.34 240.659 215.18 240.649 214.98C240.649 214.97 240.649 214.97 240.649 214.96C240.639 214.76 240.809 214.59 241.009 214.58H241.019H247.019C247.229 214.58 247.399 214.75 247.399 214.96C247.399 215.16 247.239 215.33 247.029 215.33C247.019 215.33 247.009 215.33 246.999 215.33H247.019ZM235.019 215.33H229.019C228.819 215.34 228.659 215.18 228.649 214.98C228.649 214.97 228.649 214.97 228.649 214.96C228.639 214.76 228.809 214.59 229.009 214.58H229.019H235.019C235.229 214.58 235.399 214.75 235.399 214.96C235.399 215.16 235.239 215.33 235.029 215.33C235.019 215.33 235.009 215.33 234.999 215.33H235.019ZM223.019 215.33H217.019C216.819 215.34 216.659 215.18 216.649 214.98C216.649 214.97 216.649 214.97 216.649 214.96C216.639 214.76 216.809 214.59 217.009 214.58H217.019H223.019C223.229 214.58 223.399 214.75 223.399 214.96C223.399 215.16 223.239 215.33 223.029 215.33C223.019 215.33 223.009 215.33 222.999 215.33H223.019ZM211.019 215.33H205.019C204.819 215.34 204.659 215.18 204.649 214.98C204.649 214.97 204.649 214.97 204.649 214.96C204.639 214.76 204.809 214.59 205.009 214.58H205.019H211.019C211.229 214.58 211.399 214.75 211.399 214.96C211.399 215.16 211.239 215.33 211.029 215.33C211.019 215.33 211.009 215.33 210.999 215.33H211.019ZM199.019 215.33H193.019C192.819 215.34 192.659 215.18 192.649 214.98C192.649 214.97 192.649 214.97 192.649 214.96C192.639 214.76 192.809 214.59 193.009 214.58H193.019H199.019C199.229 214.58 199.399 214.75 199.399 214.96C199.399 215.16 199.239 215.33 199.029 215.33C199.019 215.33 199.009 215.33 198.999 215.33H199.019ZM187.019 215.33H181.019C180.819 215.34 180.659 215.18 180.649 214.98C180.649 214.97 180.649 214.97 180.649 214.96C180.639 214.76 180.809 214.59 181.009 214.58H181.019H187.019C187.229 214.58 187.399 214.75 187.399 214.96C187.399 215.16 187.239 215.33 187.029 215.33C187.019 215.33 187.009 215.33 186.999 215.33H187.019ZM175.019 215.33H169.019C168.819 215.34 168.659 215.18 168.649 214.98C168.649 214.97 168.649 214.97 168.649 214.96C168.639 214.76 168.809 214.59 169.009 214.58H169.019H175.019C175.229 214.58 175.399 214.75 175.399 214.96C175.399 215.16 175.239 215.33 175.029 215.33C175.019 215.33 175.009 215.33 174.999 215.33H175.019ZM163.019 215.33H157.019C156.819 215.34 156.659 215.18 156.649 214.98C156.649 214.97 156.649 214.97 156.649 214.96C156.639 214.76 156.809 214.59 157.009 214.58H157.019H163.019C163.229 214.58 163.399 214.75 163.399 214.96C163.399 215.16 163.239 215.33 163.029 215.33C163.019 215.33 163.009 215.33 162.999 215.33H163.019ZM151.019 215.33H145.019C144.819 215.34 144.659 215.18 144.649 214.98C144.649 214.97 144.649 214.97 144.649 214.96C144.639 214.76 144.809 214.59 145.009 214.58H145.019H151.019C151.229 214.58 151.399 214.75 151.399 214.96C151.399 215.16 151.239 215.33 151.029 215.33C151.019 215.33 151.009 215.33 150.999 215.33H151.019ZM139.019 215.33H133.019C132.819 215.34 132.659 215.18 132.649 214.98C132.649 214.97 132.649 214.97 132.649 214.96C132.639 214.76 132.809 214.59 133.009 214.58H133.019H139.019C139.229 214.58 139.399 214.75 139.399 214.96C139.399 215.16 139.239 215.33 139.029 215.33C139.019 215.33 139.009 215.33 138.999 215.33H139.019ZM127.019 215.33H121.019C120.819 215.34 120.659 215.18 120.649 214.98C120.649 214.97 120.649 214.97 120.649 214.96C120.639 214.76 120.809 214.59 121.009 214.58H121.019H127.019C127.229 214.58 127.399 214.75 127.399 214.96C127.399 215.16 127.239 215.33 127.029 215.33C127.019 215.33 127.009 215.33 126.999 215.33H127.019ZM115.019 215.33H109.019C108.819 215.34 108.659 215.18 108.649 214.98C108.649 214.97 108.649 214.97 108.649 214.96C108.639 214.76 108.809 214.59 109.009 214.58H109.019H115.019C115.229 214.58 115.399 214.75 115.399 214.96C115.399 215.16 115.239 215.33 115.029 215.33C115.019 215.33 115.009 215.33 114.999 215.33H115.019ZM103.019 215.33H97.0193C96.8193 215.34 96.6593 215.18 96.6493 214.98C96.6493 214.97 96.6493 214.97 96.6493 214.96C96.6393 214.76 96.8093 214.59 97.0093 214.58H97.0193H103.019C103.229 214.58 103.399 214.75 103.399 214.96C103.399 215.16 103.239 215.33 103.029 215.33C103.019 215.33 103.009 215.33 102.999 215.33H103.019ZM91.0193 215.33H85.0193C84.8193 215.34 84.6593 215.18 84.6493 214.98C84.6493 214.97 84.6493 214.97 84.6493 214.96C84.6393 214.76 84.8093 214.59 85.0093 214.58H85.0193H91.0193C91.2293 214.58 91.3993 214.75 91.3993 214.96C91.3993 215.16 91.2393 215.33 91.0293 215.33C91.0193 215.33 91.0093 215.33 90.9993 215.33H91.0193ZM79.0193 215.33H73.0193C72.8193 215.34 72.6593 215.18 72.6493 214.98C72.6493 214.97 72.6493 214.97 72.6493 214.96C72.6393 214.76 72.8093 214.59 73.0093 214.58H73.0193H79.0193C79.2293 214.58 79.3993 214.75 79.3993 214.96C79.3993 215.16 79.2393 215.33 79.0293 215.33C79.0193 215.33 79.0093 215.33 78.9993 215.33H79.0193ZM67.0193 215.33H60.9993C60.7993 215.34 60.6393 215.18 60.6293 214.98C60.6293 214.97 60.6293 214.97 60.6293 214.96C60.6193 214.76 60.7893 214.59 60.9893 214.58H60.9993H66.9993C67.2093 214.58 67.3793 214.75 67.3793 214.96C67.3793 215.16 67.2093 215.33 67.0193 215.33C67.0093 215.33 66.9993 215.33 66.9993 215.33H67.0193ZM55.0193 215.33H48.9993C48.7993 215.34 48.6393 215.18 48.6293 214.98C48.6293 214.97 48.6293 214.97 48.6293 214.96C48.6193 214.76 48.7893 214.59 48.9893 214.58H48.9993H54.9993C55.2093 214.58 55.3793 214.75 55.3793 214.96C55.3793 215.16 55.2093 215.33 55.0193 215.33C55.0093 215.33 54.9993 215.33 54.9993 215.33H55.0193ZM43.0193 215.33H36.9993C36.7993 215.34 36.6393 215.18 36.6293 214.98C36.6293 214.97 36.6293 214.97 36.6293 214.96C36.6193 214.76 36.7893 214.59 36.9893 214.58H36.9993H42.9993C43.2093 214.58 43.3793 214.75 43.3793 214.96C43.3793 215.16 43.2093 215.33 43.0193 215.33C43.0093 215.33 42.9993 215.33 42.9993 215.33H43.0193ZM31.0193 215.33H24.9993C24.7993 215.34 24.6393 215.18 24.6293 214.98C24.6293 214.97 24.6293 214.97 24.6293 214.96C24.6193 214.76 24.7893 214.59 24.9893 214.58H24.9993H30.9993C31.2093 214.58 31.3793 214.75 31.3793 214.96C31.3793 215.16 31.2093 215.33 31.0193 215.33C31.0093 215.33 30.9993 215.33 30.9993 215.33H31.0193ZM19.0193 215.33H12.9993C12.7993 215.34 12.6393 215.18 12.6293 214.98C12.6293 214.97 12.6293 214.97 12.6293 214.96C12.6193 214.76 12.7893 214.59 12.9893 214.58H12.9993H18.9993C19.2093 214.58 19.3793 214.75 19.3793 214.96C19.3793 215.16 19.2093 215.33 19.0193 215.33C19.0093 215.33 18.9993 215.33 18.9993 215.33H19.0193ZM7.01933 215.33H0.999327C0.799327 215.34 0.639326 215.18 0.629326 214.98C0.629326 214.97 0.629326 214.97 0.629326 214.96C0.619326 214.76 0.789327 214.59 0.989327 214.58H0.999327H6.99933C7.20933 214.58 7.37933 214.75 7.37933 214.96C7.37933 215.16 7.20933 215.33 7.01933 215.33C7.00933 215.33 6.99933 215.33 6.99933 215.33H7.01933Z" fill="#0049FF"/>
<path d="M426.218 299.9H420.218C420.008 299.87 419.868 299.67 419.908 299.46C419.938 299.3 420.058 299.17 420.218 299.15H426.218C426.428 299.12 426.618 299.26 426.658 299.46C426.688 299.67 426.548 299.86 426.348 299.9C426.298 299.91 426.258 299.91 426.218 299.9ZM414.218 299.9H408.218C408.008 299.87 407.868 299.67 407.908 299.46C407.938 299.3 408.058 299.17 408.218 299.15H414.218C414.428 299.12 414.618 299.26 414.658 299.46C414.688 299.67 414.548 299.86 414.348 299.9C414.298 299.91 414.258 299.91 414.218 299.9ZM402.218 299.9H396.218C396.008 299.87 395.868 299.67 395.908 299.46C395.938 299.3 396.058 299.17 396.218 299.15H402.218C402.428 299.12 402.618 299.26 402.658 299.46C402.688 299.67 402.548 299.86 402.348 299.9C402.298 299.91 402.258 299.91 402.218 299.9ZM390.218 299.9H384.218C384.008 299.87 383.868 299.67 383.908 299.46C383.938 299.3 384.058 299.17 384.218 299.15H390.218C390.428 299.12 390.618 299.26 390.658 299.46C390.688 299.67 390.548 299.86 390.348 299.9C390.298 299.91 390.258 299.91 390.218 299.9ZM378.218 299.9H372.218C372.008 299.87 371.868 299.67 371.908 299.46C371.938 299.3 372.058 299.17 372.218 299.15H378.218C378.428 299.12 378.618 299.26 378.658 299.46C378.688 299.67 378.548 299.86 378.348 299.9C378.298 299.91 378.258 299.91 378.218 299.9ZM366.218 299.9H360.218C360.008 299.87 359.868 299.67 359.908 299.46C359.938 299.3 360.058 299.17 360.218 299.15H366.218C366.428 299.12 366.618 299.26 366.658 299.46C366.688 299.67 366.548 299.86 366.348 299.9C366.298 299.91 366.258 299.91 366.218 299.9ZM354.218 299.9H348.218C348.008 299.87 347.868 299.67 347.908 299.46C347.938 299.3 348.058 299.17 348.218 299.15H354.218C354.428 299.12 354.618 299.26 354.658 299.46C354.688 299.67 354.548 299.86 354.348 299.9C354.298 299.91 354.258 299.91 354.218 299.9ZM342.218 299.9H336.218C336.008 299.87 335.868 299.67 335.908 299.46C335.938 299.3 336.058 299.17 336.218 299.15H342.218C342.428 299.12 342.618 299.26 342.658 299.46C342.688 299.67 342.548 299.86 342.348 299.9C342.298 299.91 342.258 299.91 342.218 299.9ZM330.218 299.9H324.218C324.008 299.87 323.868 299.67 323.908 299.46C323.938 299.3 324.058 299.17 324.218 299.15H330.218C330.428 299.12 330.618 299.26 330.658 299.46C330.688 299.67 330.548 299.86 330.348 299.9C330.298 299.91 330.258 299.91 330.218 299.9ZM318.218 299.9H312.218C312.008 299.87 311.868 299.67 311.908 299.46C311.938 299.3 312.058 299.17 312.218 299.15H318.218C318.428 299.12 318.618 299.26 318.658 299.46C318.688 299.67 318.548 299.86 318.348 299.9C318.298 299.91 318.258 299.91 318.218 299.9ZM306.218 299.9H300.218C300.008 299.87 299.868 299.67 299.908 299.46C299.938 299.3 300.058 299.17 300.218 299.15H306.218C306.428 299.12 306.618 299.26 306.658 299.46C306.688 299.67 306.548 299.86 306.348 299.9C306.298 299.91 306.258 299.91 306.218 299.9ZM294.218 299.9H288.218C288.008 299.87 287.868 299.67 287.908 299.46C287.938 299.3 288.058 299.17 288.218 299.15H294.218C294.428 299.12 294.618 299.26 294.658 299.46C294.688 299.67 294.548 299.86 294.348 299.9C294.298 299.91 294.258 299.91 294.218 299.9ZM282.218 299.9H276.218C276.008 299.87 275.868 299.67 275.908 299.46C275.938 299.3 276.058 299.17 276.218 299.15H282.218C282.428 299.12 282.618 299.26 282.658 299.46C282.688 299.67 282.548 299.86 282.348 299.9C282.298 299.91 282.258 299.91 282.218 299.9ZM270.218 299.9H264.218C264.008 299.87 263.868 299.67 263.908 299.46C263.938 299.3 264.058 299.17 264.218 299.15H270.218C270.428 299.12 270.618 299.26 270.658 299.46C270.688 299.67 270.548 299.86 270.348 299.9C270.298 299.91 270.258 299.91 270.218 299.9ZM258.218 299.9H252.218C252.008 299.87 251.868 299.67 251.908 299.46C251.938 299.3 252.058 299.17 252.218 299.15H258.218C258.428 299.12 258.618 299.26 258.658 299.46C258.688 299.67 258.548 299.86 258.348 299.9C258.298 299.91 258.258 299.91 258.218 299.9ZM246.218 299.9H240.218C240.008 299.87 239.868 299.67 239.908 299.46C239.938 299.3 240.058 299.17 240.218 299.15H246.218C246.428 299.12 246.618 299.26 246.658 299.46C246.688 299.67 246.548 299.86 246.348 299.9C246.298 299.91 246.258 299.91 246.218 299.9ZM234.218 299.9H228.218C228.008 299.87 227.868 299.67 227.908 299.46C227.938 299.3 228.058 299.17 228.218 299.15H234.218C234.428 299.12 234.618 299.26 234.658 299.46C234.688 299.67 234.548 299.86 234.348 299.9C234.298 299.91 234.258 299.91 234.218 299.9ZM222.218 299.9H216.218C216.008 299.87 215.868 299.67 215.908 299.46C215.938 299.3 216.058 299.17 216.218 299.15H222.218C222.428 299.12 222.618 299.26 222.658 299.46C222.688 299.67 222.548 299.86 222.348 299.9C222.298 299.91 222.258 299.91 222.218 299.9ZM210.218 299.9H204.218C204.008 299.87 203.868 299.67 203.908 299.46C203.938 299.3 204.058 299.17 204.218 299.15H210.218C210.428 299.12 210.618 299.26 210.658 299.46C210.688 299.67 210.548 299.86 210.348 299.9C210.298 299.91 210.258 299.91 210.218 299.9ZM198.218 299.9H192.218C192.008 299.87 191.868 299.67 191.908 299.46C191.938 299.3 192.058 299.17 192.218 299.15H198.218C198.428 299.12 198.618 299.26 198.658 299.46C198.688 299.67 198.548 299.86 198.348 299.9C198.298 299.91 198.258 299.91 198.218 299.9ZM186.218 299.9H180.218C180.008 299.87 179.868 299.67 179.908 299.46C179.938 299.3 180.058 299.17 180.218 299.15H186.218C186.428 299.12 186.618 299.26 186.658 299.46C186.688 299.67 186.548 299.86 186.348 299.9C186.298 299.91 186.258 299.91 186.218 299.9ZM174.218 299.9H168.218C168.008 299.87 167.868 299.67 167.908 299.46C167.938 299.3 168.058 299.17 168.218 299.15H174.218C174.428 299.12 174.618 299.26 174.658 299.46C174.688 299.67 174.548 299.86 174.348 299.9C174.298 299.91 174.258 299.91 174.218 299.9ZM162.218 299.9H156.218C156.008 299.87 155.868 299.67 155.908 299.46C155.938 299.3 156.058 299.17 156.218 299.15H162.218C162.428 299.12 162.618 299.26 162.658 299.46C162.688 299.67 162.548 299.86 162.348 299.9C162.298 299.91 162.258 299.91 162.218 299.9ZM150.218 299.9H144.218C144.008 299.87 143.868 299.67 143.908 299.46C143.938 299.3 144.058 299.17 144.218 299.15H150.218C150.428 299.12 150.618 299.26 150.658 299.46C150.688 299.67 150.548 299.86 150.348 299.9C150.298 299.91 150.258 299.91 150.218 299.9ZM138.218 299.9H132.218C132.008 299.87 131.868 299.67 131.908 299.46C131.938 299.3 132.058 299.17 132.218 299.15H138.218C138.428 299.12 138.618 299.26 138.658 299.46C138.688 299.67 138.548 299.86 138.348 299.9C138.298 299.91 138.258 299.91 138.218 299.9ZM126.218 299.9H120.218C120.008 299.87 119.868 299.67 119.908 299.46C119.938 299.3 120.058 299.17 120.218 299.15H126.218C126.428 299.12 126.618 299.26 126.658 299.46C126.688 299.67 126.548 299.86 126.348 299.9C126.298 299.91 126.258 299.91 126.218 299.9ZM114.218 299.9H108.218C108.008 299.87 107.868 299.67 107.908 299.46C107.938 299.3 108.058 299.17 108.218 299.15H114.218C114.428 299.12 114.618 299.26 114.658 299.46C114.688 299.67 114.548 299.86 114.348 299.9C114.298 299.91 114.258 299.91 114.218 299.9ZM102.218 299.9H96.2185C96.0085 299.87 95.8685 299.67 95.9085 299.46C95.9385 299.3 96.0585 299.17 96.2185 299.15H102.218C102.428 299.12 102.618 299.26 102.658 299.46C102.688 299.67 102.548 299.86 102.348 299.9C102.298 299.91 102.258 299.91 102.218 299.9ZM90.2185 299.9H84.2185C84.0085 299.87 83.8685 299.67 83.9085 299.46C83.9385 299.3 84.0585 299.17 84.2185 299.15H90.2185C90.4285 299.12 90.6185 299.26 90.6585 299.46C90.6885 299.67 90.5485 299.86 90.3485 299.9C90.2985 299.91 90.2585 299.91 90.2185 299.9ZM78.2185 299.9H72.2185C72.0085 299.87 71.8685 299.67 71.9085 299.46C71.9385 299.3 72.0585 299.17 72.2185 299.15H78.2185C78.4285 299.12 78.6185 299.26 78.6585 299.46C78.6885 299.67 78.5485 299.86 78.3485 299.9C78.2985 299.91 78.2585 299.91 78.2185 299.9ZM66.2185 299.9H60.2185C60.0085 299.87 59.8685 299.67 59.9085 299.46C59.9385 299.3 60.0585 299.17 60.2185 299.15H66.2185C66.4285 299.12 66.6185 299.26 66.6585 299.46C66.6885 299.67 66.5485 299.86 66.3485 299.9C66.2985 299.91 66.2585 299.91 66.2185 299.9ZM54.2185 299.9H48.2185C48.0085 299.87 47.8685 299.67 47.9085 299.46C47.9385 299.3 48.0585 299.17 48.2185 299.15H54.2185C54.4285 299.12 54.6185 299.26 54.6585 299.46C54.6885 299.67 54.5485 299.86 54.3485 299.9C54.2985 299.91 54.2585 299.91 54.2185 299.9ZM42.2185 299.9H36.2185C36.0085 299.87 35.8685 299.67 35.9085 299.46C35.9385 299.3 36.0585 299.17 36.2185 299.15H42.2185C42.4285 299.12 42.6185 299.26 42.6585 299.46C42.6885 299.67 42.5485 299.86 42.3485 299.9C42.2985 299.91 42.2585 299.91 42.2185 299.9ZM30.2185 299.9H24.2185C24.0085 299.87 23.8685 299.67 23.9085 299.46C23.9385 299.3 24.0585 299.17 24.2185 299.15H30.2185C30.4285 299.12 30.6185 299.26 30.6585 299.46C30.6885 299.67 30.5485 299.86 30.3485 299.9C30.2985 299.91 30.2585 299.91 30.2185 299.9ZM18.2185 299.9H12.2185C12.0085 299.87 11.8685 299.67 11.9085 299.46C11.9385 299.3 12.0585 299.17 12.2185 299.15H18.2185C18.4285 299.12 18.6185 299.26 18.6585 299.46C18.6885 299.67 18.5485 299.86 18.3485 299.9C18.2985 299.91 18.2585 299.91 18.2185 299.9ZM6.21847 299.9H0.998466C0.788466 299.87 0.648466 299.67 0.688466 299.46C0.718466 299.3 0.838466 299.17 0.998466 299.15H6.19847C6.40847 299.12 6.59847 299.26 6.63847 299.46C6.66847 299.67 6.52847 299.86 6.32847 299.9C6.28847 299.91 6.24847 299.91 6.20847 299.9H6.21847Z" fill="#0049FF"/>
<path d="M340.63 385.5C340.43 385.5 340.26 385.33 340.26 385.13V385.12V385C340.25 384.8 340.42 384.63 340.62 384.62H340.63C340.84 384.62 341.01 384.79 341.01 385V385.13C341 385.34 340.84 385.5 340.63 385.5ZM340.63 379.36C340.43 379.36 340.26 379.19 340.26 378.99V372.99C340.25 372.79 340.42 372.62 340.62 372.61H340.63C340.84 372.61 341.01 372.78 341.01 372.99V378.99C341 379.2 340.84 379.36 340.63 379.36ZM340.63 367.36C340.43 367.36 340.26 367.19 340.26 366.99V360.99C340.25 360.79 340.42 360.62 340.62 360.61H340.63C340.84 360.61 341.01 360.78 341.01 360.99V366.99C341 367.2 340.84 367.36 340.63 367.36ZM340.63 355.36C340.43 355.36 340.26 355.19 340.26 354.99V348.99C340.25 348.79 340.42 348.62 340.62 348.61H340.63C340.84 348.61 341.01 348.78 341.01 348.99V354.99C341 355.2 340.84 355.36 340.63 355.36ZM340.63 343.36C340.43 343.36 340.26 343.19 340.26 342.99V336.99C340.25 336.79 340.42 336.62 340.62 336.61H340.63C340.84 336.61 341.01 336.78 341.01 336.99V342.99C341 343.2 340.84 343.36 340.63 343.36ZM340.63 331.36C340.43 331.36 340.26 331.19 340.26 330.99V324.99C340.25 324.79 340.42 324.62 340.62 324.61H340.63C340.84 324.61 341.01 324.78 341.01 324.99V330.99C341 331.2 340.84 331.36 340.63 331.36ZM340.63 319.36C340.43 319.36 340.26 319.19 340.26 318.99V312.99C340.25 312.79 340.42 312.62 340.62 312.61H340.63C340.84 312.61 341.01 312.78 341.01 312.99V318.99C341 319.2 340.84 319.36 340.63 319.36ZM340.63 307.36C340.43 307.36 340.26 307.19 340.26 306.99V300.99C340.25 300.79 340.42 300.62 340.62 300.61H340.63C340.84 300.61 341.01 300.78 341.01 300.99V306.99C341 307.2 340.84 307.36 340.63 307.36ZM340.63 295.36C340.43 295.36 340.26 295.19 340.26 294.99V288.99C340.25 288.79 340.42 288.62 340.62 288.61H340.63C340.84 288.61 341.01 288.78 341.01 288.99V294.99C341 295.2 340.84 295.36 340.63 295.36ZM340.63 283.36C340.43 283.36 340.26 283.19 340.26 282.99V276.99C340.25 276.79 340.42 276.62 340.62 276.61H340.63C340.84 276.61 341.01 276.78 341.01 276.99V282.99C341 283.2 340.84 283.36 340.63 283.36ZM340.63 271.36C340.43 271.36 340.26 271.19 340.26 270.99V264.99C340.25 264.79 340.42 264.62 340.62 264.61H340.63C340.84 264.61 341.01 264.78 341.01 264.99V270.99C341 271.2 340.84 271.36 340.63 271.36ZM340.63 259.36C340.43 259.36 340.26 259.19 340.26 258.99V252.99C340.25 252.79 340.42 252.62 340.62 252.61H340.63C340.84 252.61 341.01 252.78 341.01 252.99V258.99C341 259.2 340.84 259.36 340.63 259.36ZM340.63 247.36C340.43 247.36 340.26 247.19 340.26 246.99V240.99C340.25 240.79 340.42 240.62 340.62 240.61H340.63C340.84 240.61 341.01 240.78 341.01 240.99V246.99C341 247.2 340.84 247.36 340.63 247.36ZM340.63 235.36C340.43 235.36 340.26 235.19 340.26 234.99V228.99C340.25 228.79 340.42 228.62 340.62 228.61H340.63C340.84 228.61 341.01 228.78 341.01 228.99V234.99C341 235.2 340.84 235.36 340.63 235.36ZM340.63 223.36C340.43 223.36 340.26 223.19 340.26 222.99V216.99C340.25 216.79 340.42 216.62 340.62 216.61H340.63C340.84 216.61 341.01 216.78 341.01 216.99V222.99C341 223.2 340.84 223.36 340.63 223.36ZM340.63 211.36C340.43 211.36 340.26 211.19 340.26 210.99V204.99C340.25 204.79 340.42 204.62 340.62 204.61H340.63C340.84 204.61 341.01 204.78 341.01 204.99V210.99C341 211.2 340.84 211.36 340.63 211.36ZM340.63 199.36C340.43 199.36 340.26 199.19 340.26 198.99V192.99C340.25 192.79 340.42 192.62 340.62 192.61H340.63C340.84 192.61 341.01 192.78 341.01 192.99V198.99C341 199.2 340.84 199.36 340.63 199.36ZM340.63 187.36C340.43 187.36 340.26 187.19 340.26 186.99V180.99C340.25 180.79 340.42 180.62 340.62 180.61H340.63C340.84 180.61 341.01 180.78 341.01 180.99V186.99C341 187.2 340.84 187.36 340.63 187.36ZM340.63 175.36C340.43 175.36 340.26 175.19 340.26 174.99V168.99C340.25 168.79 340.42 168.62 340.62 168.61H340.63C340.84 168.61 341.01 168.78 341.01 168.99V174.99C341 175.2 340.84 175.36 340.63 175.36ZM340.63 163.36C340.43 163.36 340.26 163.19 340.26 162.99V156.99C340.25 156.79 340.42 156.62 340.62 156.61H340.63C340.84 156.61 341.01 156.78 341.01 156.99V162.99C341 163.2 340.84 163.36 340.63 163.36ZM340.63 151.36C340.43 151.36 340.26 151.19 340.26 150.99V144.99C340.25 144.79 340.42 144.62 340.62 144.61H340.63C340.84 144.61 341.01 144.78 341.01 144.99V150.99C341 151.2 340.84 151.36 340.63 151.36ZM340.63 139.36C340.43 139.36 340.26 139.19 340.26 138.99V132.99C340.25 132.79 340.42 132.62 340.62 132.61H340.63C340.84 132.61 341.01 132.78 341.01 132.99V138.99C341 139.2 340.84 139.36 340.63 139.36ZM340.63 127.36C340.43 127.36 340.26 127.19 340.26 126.99V120.99C340.25 120.79 340.42 120.62 340.62 120.61H340.63C340.84 120.61 341.01 120.78 341.01 120.99V126.99C341 127.2 340.84 127.36 340.63 127.36ZM340.63 115.36C340.43 115.36 340.26 115.19 340.26 114.99V108.99C340.25 108.79 340.42 108.62 340.62 108.61H340.63C340.84 108.61 341.01 108.78 341.01 108.99V114.99C341 115.2 340.84 115.36 340.63 115.36ZM340.63 103.36C340.43 103.36 340.26 103.19 340.26 102.99V96.99C340.25 96.79 340.42 96.62 340.62 96.61H340.63C340.84 96.61 341.01 96.78 341.01 96.99V102.99C341 103.2 340.84 103.36 340.63 103.36ZM340.63 91.36C340.43 91.36 340.26 91.19 340.26 90.99V84.99C340.25 84.79 340.42 84.62 340.62 84.61H340.63C340.84 84.61 341.01 84.78 341.01 84.99V90.99C341 91.2 340.84 91.36 340.63 91.36ZM340.63 79.36C340.43 79.36 340.26 79.19 340.26 78.99V72.99C340.25 72.79 340.42 72.62 340.62 72.61H340.63C340.84 72.61 341.01 72.78 341.01 72.99V78.99C341 79.2 340.84 79.36 340.63 79.36ZM340.63 67.36C340.43 67.36 340.26 67.19 340.26 66.99V60.99C340.25 60.79 340.42 60.62 340.62 60.61H340.63C340.84 60.61 341.01 60.78 341.01 60.99V66.99C341 67.2 340.84 67.36 340.63 67.36ZM340.63 55.36C340.43 55.36 340.26 55.19 340.26 54.99V48.99C340.25 48.79 340.42 48.62 340.62 48.61H340.63C340.84 48.61 341.01 48.78 341.01 48.99V54.99C341 55.2 340.84 55.36 340.63 55.36ZM340.63 43.36C340.43 43.36 340.26 43.19 340.26 42.99V36.99C340.25 36.79 340.42 36.62 340.62 36.61H340.63C340.84 36.61 341.01 36.78 341.01 36.99V42.99C341 43.2 340.84 43.36 340.63 43.36ZM340.63 31.36C340.43 31.36 340.26 31.19 340.26 30.99V24.99C340.25 24.79 340.42 24.62 340.62 24.61H340.63C340.84 24.61 341.01 24.78 341.01 24.99V30.99C341 31.2 340.84 31.36 340.63 31.36ZM340.63 19.36C340.43 19.36 340.26 19.19 340.26 18.99V13C340.25 12.8 340.42 12.63 340.62 12.62H340.63C340.84 12.63 341 12.79 341 13V19C340.99 19.2 340.83 19.36 340.63 19.36ZM340.63 7.35999C340.43 7.35999 340.26 7.18999 340.26 6.98999V0.999992C340.25 0.799992 340.42 0.629995 340.62 0.619995H340.63C340.84 0.629995 341 0.789992 341 0.999992V6.99999C340.99 7.19999 340.83 7.35999 340.63 7.35999Z" fill="#0049FF"/>
<path d="M256.06 385.5C255.85 385.49 255.69 385.33 255.69 385.12V379.12C255.72 378.91 255.92 378.77 256.13 378.81C256.29 378.84 256.42 378.96 256.44 379.12V385.12C256.44 385.33 256.27 385.5 256.06 385.5ZM256.06 373.5C255.85 373.49 255.69 373.33 255.69 373.12V367.12C255.72 366.91 255.92 366.77 256.13 366.81C256.29 366.84 256.42 366.96 256.44 367.12V373.12C256.44 373.33 256.27 373.5 256.06 373.5ZM256.06 361.5C255.85 361.49 255.69 361.33 255.69 361.12V355.12C255.72 354.91 255.92 354.77 256.13 354.81C256.29 354.84 256.42 354.96 256.44 355.12V361.12C256.44 361.33 256.27 361.5 256.06 361.5ZM256.06 349.5C255.85 349.49 255.69 349.33 255.69 349.12V343.12C255.72 342.91 255.92 342.77 256.13 342.81C256.29 342.84 256.42 342.96 256.44 343.12V349.12C256.44 349.33 256.27 349.5 256.06 349.5ZM256.06 337.5C255.85 337.49 255.69 337.33 255.69 337.12V331.12C255.72 330.91 255.92 330.77 256.13 330.81C256.29 330.84 256.42 330.96 256.44 331.12V337.12C256.44 337.33 256.27 337.5 256.06 337.5ZM256.06 325.5C255.85 325.49 255.69 325.33 255.69 325.12V319.12C255.72 318.91 255.92 318.77 256.13 318.81C256.29 318.84 256.42 318.96 256.44 319.12V325.12C256.44 325.33 256.27 325.5 256.06 325.5ZM256.06 313.5C255.85 313.49 255.69 313.33 255.69 313.12V307.12C255.72 306.91 255.92 306.77 256.13 306.81C256.29 306.84 256.42 306.96 256.44 307.12V313.12C256.44 313.33 256.27 313.5 256.06 313.5ZM256.06 301.5C255.85 301.49 255.69 301.33 255.69 301.12V295.12C255.72 294.91 255.92 294.77 256.13 294.81C256.29 294.84 256.42 294.96 256.44 295.12V301.12C256.44 301.33 256.27 301.5 256.06 301.5ZM256.06 289.5C255.85 289.49 255.69 289.33 255.69 289.12V283.12C255.72 282.91 255.92 282.77 256.13 282.81C256.29 282.84 256.42 282.96 256.44 283.12V289.12C256.44 289.33 256.27 289.5 256.06 289.5ZM256.06 277.5C255.85 277.49 255.69 277.33 255.69 277.12V271.12C255.72 270.91 255.92 270.77 256.13 270.81C256.29 270.84 256.42 270.96 256.44 271.12V277.12C256.44 277.33 256.27 277.5 256.06 277.5ZM256.06 265.5C255.85 265.49 255.69 265.33 255.69 265.12V259.12C255.72 258.91 255.92 258.77 256.13 258.81C256.29 258.84 256.42 258.96 256.44 259.12V265.12C256.44 265.33 256.27 265.5 256.06 265.5ZM256.06 253.5C255.85 253.49 255.69 253.33 255.69 253.12V247.12C255.72 246.91 255.92 246.77 256.13 246.81C256.29 246.84 256.42 246.96 256.44 247.12V253.12C256.44 253.33 256.27 253.5 256.06 253.5ZM256.06 241.5C255.85 241.49 255.69 241.33 255.69 241.12V235.12C255.72 234.91 255.92 234.77 256.13 234.81C256.29 234.84 256.42 234.96 256.44 235.12V241.12C256.44 241.33 256.27 241.5 256.06 241.5ZM256.06 229.5C255.85 229.49 255.69 229.33 255.69 229.12V223.12C255.72 222.91 255.92 222.77 256.13 222.81C256.29 222.84 256.42 222.96 256.44 223.12V229.12C256.44 229.33 256.27 229.5 256.06 229.5ZM256.06 217.5C255.85 217.49 255.69 217.33 255.69 217.12V211.12C255.72 210.91 255.92 210.77 256.13 210.81C256.29 210.84 256.42 210.96 256.44 211.12V217.12C256.44 217.33 256.27 217.5 256.06 217.5ZM256.06 205.5C255.85 205.49 255.69 205.33 255.69 205.12V199.12C255.72 198.91 255.92 198.77 256.13 198.81C256.29 198.84 256.42 198.96 256.44 199.12V205.12C256.44 205.33 256.27 205.5 256.06 205.5ZM256.06 193.5C255.85 193.49 255.69 193.33 255.69 193.12V187.12C255.72 186.91 255.92 186.77 256.13 186.81C256.29 186.84 256.42 186.96 256.44 187.12V193.12C256.44 193.33 256.27 193.5 256.06 193.5ZM256.06 181.5C255.85 181.49 255.69 181.33 255.69 181.12V175.12C255.72 174.91 255.92 174.77 256.13 174.81C256.29 174.84 256.42 174.96 256.44 175.12V181.12C256.44 181.33 256.27 181.5 256.06 181.5ZM256.06 169.5C255.85 169.49 255.69 169.33 255.69 169.12V163.12C255.72 162.91 255.92 162.77 256.13 162.81C256.29 162.84 256.42 162.96 256.44 163.12V169.12C256.44 169.33 256.27 169.5 256.06 169.5ZM256.06 157.5C255.85 157.49 255.69 157.33 255.69 157.12V151.12C255.72 150.91 255.92 150.77 256.13 150.81C256.29 150.84 256.42 150.96 256.44 151.12V157.12C256.44 157.33 256.27 157.5 256.06 157.5ZM256.06 145.5C255.85 145.49 255.69 145.33 255.69 145.12V139.12C255.72 138.91 255.92 138.77 256.13 138.81C256.29 138.84 256.42 138.96 256.44 139.12V145.12C256.44 145.33 256.27 145.5 256.06 145.5ZM256.06 133.5C255.85 133.49 255.69 133.33 255.69 133.12V127.12C255.72 126.91 255.92 126.77 256.13 126.81C256.29 126.84 256.42 126.96 256.44 127.12V133.12C256.44 133.33 256.27 133.5 256.06 133.5ZM256.06 121.5C255.85 121.49 255.69 121.33 255.69 121.12V115.12C255.72 114.91 255.92 114.77 256.13 114.81C256.29 114.84 256.42 114.96 256.44 115.12V121.12C256.44 121.33 256.27 121.5 256.06 121.5ZM256.06 109.5C255.85 109.49 255.69 109.33 255.69 109.12V103.12C255.72 102.91 255.92 102.77 256.13 102.81C256.29 102.84 256.42 102.96 256.44 103.12V109.12C256.44 109.33 256.27 109.5 256.06 109.5ZM256.06 97.5C255.85 97.49 255.69 97.33 255.69 97.12V91.12C255.72 90.91 255.92 90.77 256.13 90.81C256.29 90.84 256.42 90.96 256.44 91.12V97.12C256.44 97.33 256.27 97.5 256.06 97.5ZM256.06 85.5C255.85 85.49 255.69 85.33 255.69 85.12V79.12C255.72 78.91 255.92 78.77 256.13 78.81C256.29 78.84 256.42 78.96 256.44 79.12V85.12C256.44 85.33 256.27 85.5 256.06 85.5ZM256.06 73.5C255.85 73.49 255.69 73.33 255.69 73.12V67.12C255.72 66.91 255.92 66.77 256.13 66.81C256.29 66.84 256.42 66.96 256.44 67.12V73.12C256.44 73.33 256.27 73.5 256.06 73.5ZM256.06 61.5C255.85 61.49 255.69 61.33 255.69 61.12V55.12C255.72 54.91 255.92 54.77 256.13 54.81C256.29 54.84 256.42 54.96 256.44 55.12V61.12C256.44 61.33 256.27 61.5 256.06 61.5ZM256.06 49.5C255.85 49.49 255.69 49.33 255.69 49.12V43.12C255.72 42.91 255.92 42.77 256.13 42.81C256.29 42.84 256.42 42.96 256.44 43.12V49.12C256.44 49.33 256.27 49.5 256.06 49.5ZM256.06 37.5C255.85 37.49 255.69 37.33 255.69 37.12V31.12C255.72 30.91 255.92 30.77 256.13 30.81C256.29 30.84 256.42 30.96 256.44 31.12V37.12C256.44 37.33 256.27 37.5 256.06 37.5ZM256.06 25.5C255.85 25.49 255.69 25.33 255.69 25.12V19.12C255.72 18.91 255.92 18.77 256.13 18.81C256.29 18.84 256.42 18.96 256.44 19.12V25.12C256.44 25.33 256.27 25.5 256.06 25.5ZM256.06 13.5C255.85 13.49 255.69 13.33 255.69 13.12V7.11996C255.72 6.90996 255.92 6.76996 256.13 6.80996C256.29 6.83996 256.42 6.95996 256.44 7.11996V13.12C256.44 13.33 256.27 13.5 256.06 13.5ZM256.06 1.49996C255.85 1.48996 255.69 1.32996 255.69 1.11996V0.99996C255.66 0.78996 255.8 0.599958 256 0.559958C256.21 0.529958 256.4 0.669963 256.44 0.869963C256.45 0.909963 256.45 0.949958 256.44 0.989958V1.11996C256.43 1.33996 256.27 1.49996 256.06 1.49996Z" fill="#0049FF"/>
<path d="M171.179 385.5C170.969 385.49 170.809 385.33 170.809 385.12V385C170.779 384.79 170.919 384.6 171.119 384.56C171.329 384.53 171.519 384.67 171.559 384.87C171.569 384.91 171.569 384.95 171.559 384.99V385.12C171.549 385.34 171.389 385.5 171.179 385.5ZM171.179 379.36C170.979 379.35 170.819 379.19 170.809 378.99V372.99C170.779 372.78 170.919 372.59 171.119 372.55C171.329 372.52 171.519 372.66 171.559 372.86C171.569 372.9 171.569 372.94 171.559 372.98V378.98C171.549 379.2 171.389 379.36 171.179 379.36ZM171.179 367.36C170.979 367.35 170.819 367.19 170.809 366.99V360.99C170.779 360.78 170.919 360.59 171.119 360.55C171.329 360.52 171.519 360.66 171.559 360.86C171.569 360.9 171.569 360.94 171.559 360.98V366.98C171.549 367.2 171.389 367.36 171.179 367.36ZM171.179 355.36C170.979 355.35 170.819 355.19 170.809 354.99V348.99C170.779 348.78 170.919 348.59 171.119 348.55C171.329 348.52 171.519 348.66 171.559 348.86C171.569 348.9 171.569 348.94 171.559 348.98V354.98C171.549 355.2 171.389 355.36 171.179 355.36ZM171.179 343.36C170.979 343.35 170.819 343.19 170.809 342.99V336.99C170.779 336.78 170.919 336.59 171.119 336.55C171.329 336.52 171.519 336.66 171.559 336.86C171.569 336.9 171.569 336.94 171.559 336.98V342.98C171.549 343.2 171.389 343.36 171.179 343.36ZM171.179 331.36C170.979 331.35 170.819 331.19 170.809 330.99V324.99C170.779 324.78 170.919 324.59 171.119 324.55C171.329 324.52 171.519 324.66 171.559 324.86C171.569 324.9 171.569 324.94 171.559 324.98V330.98C171.549 331.2 171.389 331.36 171.179 331.36ZM171.179 319.36C170.979 319.35 170.819 319.19 170.809 318.99V312.99C170.779 312.78 170.919 312.59 171.119 312.55C171.329 312.52 171.519 312.66 171.559 312.86C171.569 312.9 171.569 312.94 171.559 312.98V318.98C171.549 319.2 171.389 319.36 171.179 319.36ZM171.179 307.36C170.979 307.35 170.819 307.19 170.809 306.99V300.99C170.779 300.78 170.919 300.59 171.119 300.55C171.329 300.52 171.519 300.66 171.559 300.86C171.569 300.9 171.569 300.94 171.559 300.98V306.98C171.549 307.2 171.389 307.36 171.179 307.36ZM171.179 295.36C170.979 295.35 170.819 295.19 170.809 294.99V288.99C170.779 288.78 170.919 288.59 171.119 288.55C171.329 288.52 171.519 288.66 171.559 288.86C171.569 288.9 171.569 288.94 171.559 288.98V294.98C171.549 295.2 171.389 295.36 171.179 295.36ZM171.179 283.36C170.979 283.35 170.819 283.19 170.809 282.99V276.99C170.779 276.78 170.919 276.59 171.119 276.55C171.329 276.52 171.519 276.66 171.559 276.86C171.569 276.9 171.569 276.94 171.559 276.98V282.98C171.549 283.2 171.389 283.36 171.179 283.36ZM171.179 271.36C170.979 271.35 170.819 271.19 170.809 270.99V264.99C170.779 264.78 170.919 264.59 171.119 264.55C171.329 264.52 171.519 264.66 171.559 264.86C171.569 264.9 171.569 264.94 171.559 264.98V270.98C171.549 271.2 171.389 271.36 171.179 271.36ZM171.179 259.36C170.979 259.35 170.819 259.19 170.809 258.99V252.99C170.779 252.78 170.919 252.59 171.119 252.55C171.329 252.52 171.519 252.66 171.559 252.86C171.569 252.9 171.569 252.94 171.559 252.98V258.98C171.549 259.2 171.389 259.36 171.179 259.36ZM171.179 247.36C170.979 247.35 170.819 247.19 170.809 246.99V240.99C170.779 240.78 170.919 240.59 171.119 240.55C171.329 240.52 171.519 240.66 171.559 240.86C171.569 240.9 171.569 240.94 171.559 240.98V246.98C171.549 247.2 171.389 247.36 171.179 247.36ZM171.179 235.36C170.979 235.35 170.819 235.19 170.809 234.99V228.99C170.779 228.78 170.919 228.59 171.119 228.55C171.329 228.52 171.519 228.66 171.559 228.86C171.569 228.9 171.569 228.94 171.559 228.98V234.98C171.549 235.2 171.389 235.36 171.179 235.36ZM171.179 223.36C170.979 223.35 170.819 223.19 170.809 222.99V216.99C170.779 216.78 170.919 216.59 171.119 216.55C171.329 216.52 171.519 216.66 171.559 216.86C171.569 216.9 171.569 216.94 171.559 216.98V222.98C171.549 223.2 171.389 223.36 171.179 223.36ZM171.179 211.36C170.979 211.35 170.819 211.19 170.809 210.99V204.99C170.779 204.78 170.919 204.59 171.119 204.55C171.329 204.52 171.519 204.66 171.559 204.86C171.569 204.9 171.569 204.94 171.559 204.98V210.98C171.549 211.2 171.389 211.36 171.179 211.36ZM171.179 199.36C170.979 199.35 170.819 199.19 170.809 198.99V192.99C170.779 192.78 170.919 192.59 171.119 192.55C171.329 192.52 171.519 192.66 171.559 192.86C171.569 192.9 171.569 192.94 171.559 192.98V198.98C171.549 199.2 171.389 199.36 171.179 199.36ZM171.179 187.36C170.979 187.35 170.819 187.19 170.809 186.99V180.99C170.779 180.78 170.919 180.59 171.119 180.55C171.329 180.52 171.519 180.66 171.559 180.86C171.569 180.9 171.569 180.94 171.559 180.98V186.98C171.549 187.2 171.389 187.36 171.179 187.36ZM171.179 175.36C170.979 175.35 170.819 175.19 170.809 174.99V168.99C170.779 168.78 170.919 168.59 171.119 168.55C171.329 168.52 171.519 168.66 171.559 168.86C171.569 168.9 171.569 168.94 171.559 168.98V174.98C171.549 175.2 171.389 175.36 171.179 175.36ZM171.179 163.36C170.979 163.35 170.819 163.19 170.809 162.99V156.99C170.779 156.78 170.919 156.59 171.119 156.55C171.329 156.52 171.519 156.66 171.559 156.86C171.569 156.9 171.569 156.94 171.559 156.98V162.98C171.549 163.2 171.389 163.36 171.179 163.36ZM171.179 151.36C170.979 151.35 170.819 151.19 170.809 150.99V144.99C170.779 144.78 170.919 144.59 171.119 144.55C171.329 144.52 171.519 144.66 171.559 144.86C171.569 144.9 171.569 144.94 171.559 144.98V150.98C171.549 151.2 171.389 151.36 171.179 151.36ZM171.179 139.36C170.979 139.35 170.819 139.19 170.809 138.99V132.99C170.779 132.78 170.919 132.59 171.119 132.55C171.329 132.52 171.519 132.66 171.559 132.86C171.569 132.9 171.569 132.94 171.559 132.98V138.98C171.549 139.2 171.389 139.36 171.179 139.36ZM171.179 127.36C170.979 127.35 170.819 127.19 170.809 126.99V120.99C170.779 120.78 170.919 120.59 171.119 120.55C171.329 120.52 171.519 120.66 171.559 120.86C171.569 120.9 171.569 120.94 171.559 120.98V126.98C171.549 127.2 171.389 127.36 171.179 127.36ZM171.179 115.36C170.979 115.35 170.819 115.19 170.809 114.99V108.99C170.779 108.78 170.919 108.59 171.119 108.55C171.329 108.52 171.519 108.66 171.559 108.86C171.569 108.9 171.569 108.94 171.559 108.98V114.98C171.549 115.2 171.389 115.36 171.179 115.36ZM171.179 103.36C170.979 103.35 170.819 103.19 170.809 102.99V96.99C170.779 96.78 170.919 96.59 171.119 96.55C171.329 96.52 171.519 96.66 171.559 96.86C171.569 96.9 171.569 96.94 171.559 96.98V102.98C171.549 103.2 171.389 103.36 171.179 103.36ZM171.179 91.36C170.979 91.35 170.819 91.19 170.809 90.99V84.99C170.779 84.78 170.919 84.59 171.119 84.55C171.329 84.52 171.519 84.66 171.559 84.86C171.569 84.9 171.569 84.94 171.559 84.98V90.98C171.549 91.2 171.389 91.36 171.179 91.36ZM171.179 79.36C170.979 79.35 170.819 79.19 170.809 78.99V72.99C170.779 72.78 170.919 72.59 171.119 72.55C171.329 72.52 171.519 72.66 171.559 72.86C171.569 72.9 171.569 72.94 171.559 72.98V78.98C171.549 79.2 171.389 79.36 171.179 79.36ZM171.179 67.36C170.979 67.35 170.819 67.19 170.809 66.99V60.99C170.779 60.78 170.919 60.59 171.119 60.55C171.329 60.52 171.519 60.66 171.559 60.86C171.569 60.9 171.569 60.94 171.559 60.98V66.98C171.549 67.2 171.389 67.36 171.179 67.36ZM171.179 55.36C170.979 55.35 170.819 55.19 170.809 54.99V48.99C170.779 48.78 170.919 48.59 171.119 48.55C171.329 48.52 171.519 48.66 171.559 48.86C171.569 48.9 171.569 48.94 171.559 48.98V54.98C171.549 55.2 171.389 55.36 171.179 55.36ZM171.179 43.36C170.979 43.35 170.819 43.19 170.809 42.99V36.99C170.779 36.78 170.919 36.59 171.119 36.55C171.329 36.52 171.519 36.66 171.559 36.86C171.569 36.9 171.569 36.94 171.559 36.98V42.98C171.549 43.2 171.389 43.36 171.179 43.36ZM171.179 31.36C170.979 31.35 170.819 31.19 170.809 30.99V24.99C170.779 24.78 170.919 24.59 171.119 24.55C171.329 24.52 171.519 24.66 171.559 24.86C171.569 24.9 171.569 24.94 171.559 24.98V30.98C171.549 31.2 171.389 31.36 171.179 31.36ZM171.179 19.36C170.979 19.35 170.819 19.19 170.809 18.99V13C170.779 12.79 170.919 12.6 171.119 12.56C171.329 12.53 171.519 12.67 171.559 12.87C171.569 12.91 171.569 12.95 171.559 12.99V18.99C171.549 19.2 171.379 19.36 171.179 19.36ZM171.179 7.35996C170.979 7.34996 170.819 7.18996 170.809 6.98996V0.99996C170.779 0.78996 170.919 0.599958 171.119 0.559958C171.329 0.529958 171.519 0.669963 171.559 0.869963C171.569 0.909963 171.569 0.949958 171.559 0.989958V6.98996C171.549 7.19996 171.379 7.35996 171.179 7.35996Z" fill="#0049FF"/>
<path d="M86.6084 385.5C86.3984 385.49 86.2384 385.33 86.2384 385.12V379.12C86.2684 378.91 86.4684 378.77 86.6784 378.81C86.8384 378.84 86.9684 378.96 86.9884 379.12V385.12C86.9884 385.33 86.8184 385.5 86.6084 385.5ZM86.6084 373.5C86.3984 373.49 86.2384 373.33 86.2384 373.12V367.12C86.2684 366.91 86.4684 366.77 86.6784 366.81C86.8384 366.84 86.9684 366.96 86.9884 367.12V373.12C86.9884 373.33 86.8184 373.5 86.6084 373.5ZM86.6084 361.5C86.3984 361.49 86.2384 361.33 86.2384 361.12V355.12C86.2684 354.91 86.4684 354.77 86.6784 354.81C86.8384 354.84 86.9684 354.96 86.9884 355.12V361.12C86.9884 361.33 86.8184 361.5 86.6084 361.5ZM86.6084 349.5C86.3984 349.49 86.2384 349.33 86.2384 349.12V343.12C86.2684 342.91 86.4684 342.77 86.6784 342.81C86.8384 342.84 86.9684 342.96 86.9884 343.12V349.12C86.9884 349.33 86.8184 349.5 86.6084 349.5ZM86.6084 337.5C86.3984 337.49 86.2384 337.33 86.2384 337.12V331.12C86.2684 330.91 86.4684 330.77 86.6784 330.81C86.8384 330.84 86.9684 330.96 86.9884 331.12V337.12C86.9884 337.33 86.8184 337.5 86.6084 337.5ZM86.6084 325.5C86.3984 325.49 86.2384 325.33 86.2384 325.12V319.12C86.2684 318.91 86.4684 318.77 86.6784 318.81C86.8384 318.84 86.9684 318.96 86.9884 319.12V325.12C86.9884 325.33 86.8184 325.5 86.6084 325.5ZM86.6084 313.5C86.3984 313.49 86.2384 313.33 86.2384 313.12V307.12C86.2684 306.91 86.4684 306.77 86.6784 306.81C86.8384 306.84 86.9684 306.96 86.9884 307.12V313.12C86.9884 313.33 86.8184 313.5 86.6084 313.5ZM86.6084 301.5C86.3984 301.49 86.2384 301.33 86.2384 301.12V295.12C86.2684 294.91 86.4684 294.77 86.6784 294.81C86.8384 294.84 86.9684 294.96 86.9884 295.12V301.12C86.9884 301.33 86.8184 301.5 86.6084 301.5ZM86.6084 289.5C86.3984 289.49 86.2384 289.33 86.2384 289.12V283.12C86.2684 282.91 86.4684 282.77 86.6784 282.81C86.8384 282.84 86.9684 282.96 86.9884 283.12V289.12C86.9884 289.33 86.8184 289.5 86.6084 289.5ZM86.6084 277.5C86.3984 277.49 86.2384 277.33 86.2384 277.12V271.12C86.2684 270.91 86.4684 270.77 86.6784 270.81C86.8384 270.84 86.9684 270.96 86.9884 271.12V277.12C86.9884 277.33 86.8184 277.5 86.6084 277.5ZM86.6084 265.5C86.3984 265.49 86.2384 265.33 86.2384 265.12V259.12C86.2684 258.91 86.4684 258.77 86.6784 258.81C86.8384 258.84 86.9684 258.96 86.9884 259.12V265.12C86.9884 265.33 86.8184 265.5 86.6084 265.5ZM86.6084 253.5C86.3984 253.49 86.2384 253.33 86.2384 253.12V247.12C86.2684 246.91 86.4684 246.77 86.6784 246.81C86.8384 246.84 86.9684 246.96 86.9884 247.12V253.12C86.9884 253.33 86.8184 253.5 86.6084 253.5ZM86.6084 241.5C86.3984 241.49 86.2384 241.33 86.2384 241.12V235.12C86.2684 234.91 86.4684 234.77 86.6784 234.81C86.8384 234.84 86.9684 234.96 86.9884 235.12V241.12C86.9884 241.33 86.8184 241.5 86.6084 241.5ZM86.6084 229.5C86.3984 229.49 86.2384 229.33 86.2384 229.12V223.12C86.2684 222.91 86.4684 222.77 86.6784 222.81C86.8384 222.84 86.9684 222.96 86.9884 223.12V229.12C86.9884 229.33 86.8184 229.5 86.6084 229.5ZM86.6084 217.5C86.3984 217.49 86.2384 217.33 86.2384 217.12V211.12C86.2684 210.91 86.4684 210.77 86.6784 210.81C86.8384 210.84 86.9684 210.96 86.9884 211.12V217.12C86.9884 217.33 86.8184 217.5 86.6084 217.5ZM86.6084 205.5C86.3984 205.49 86.2384 205.33 86.2384 205.12V199.12C86.2684 198.91 86.4684 198.77 86.6784 198.81C86.8384 198.84 86.9684 198.96 86.9884 199.12V205.12C86.9884 205.33 86.8184 205.5 86.6084 205.5ZM86.6084 193.5C86.3984 193.49 86.2384 193.33 86.2384 193.12V187.12C86.2684 186.91 86.4684 186.77 86.6784 186.81C86.8384 186.84 86.9684 186.96 86.9884 187.12V193.12C86.9884 193.33 86.8184 193.5 86.6084 193.5ZM86.6084 181.5C86.3984 181.49 86.2384 181.33 86.2384 181.12V175.12C86.2684 174.91 86.4684 174.77 86.6784 174.81C86.8384 174.84 86.9684 174.96 86.9884 175.12V181.12C86.9884 181.33 86.8184 181.5 86.6084 181.5ZM86.6084 169.5C86.3984 169.49 86.2384 169.33 86.2384 169.12V163.12C86.2684 162.91 86.4684 162.77 86.6784 162.81C86.8384 162.84 86.9684 162.96 86.9884 163.12V169.12C86.9884 169.33 86.8184 169.5 86.6084 169.5ZM86.6084 157.5C86.3984 157.49 86.2384 157.33 86.2384 157.12V151.12C86.2684 150.91 86.4684 150.77 86.6784 150.81C86.8384 150.84 86.9684 150.96 86.9884 151.12V157.12C86.9884 157.33 86.8184 157.5 86.6084 157.5ZM86.6084 145.5C86.3984 145.49 86.2384 145.33 86.2384 145.12V139.12C86.2684 138.91 86.4684 138.77 86.6784 138.81C86.8384 138.84 86.9684 138.96 86.9884 139.12V145.12C86.9884 145.33 86.8184 145.5 86.6084 145.5ZM86.6084 133.5C86.3984 133.49 86.2384 133.33 86.2384 133.12V127.12C86.2684 126.91 86.4684 126.77 86.6784 126.81C86.8384 126.84 86.9684 126.96 86.9884 127.12V133.12C86.9884 133.33 86.8184 133.5 86.6084 133.5ZM86.6084 121.5C86.3984 121.49 86.2384 121.33 86.2384 121.12V115.12C86.2684 114.91 86.4684 114.77 86.6784 114.81C86.8384 114.84 86.9684 114.96 86.9884 115.12V121.12C86.9884 121.33 86.8184 121.5 86.6084 121.5ZM86.6084 109.5C86.3984 109.49 86.2384 109.33 86.2384 109.12V103.12C86.2684 102.91 86.4684 102.77 86.6784 102.81C86.8384 102.84 86.9684 102.96 86.9884 103.12V109.12C86.9884 109.33 86.8184 109.5 86.6084 109.5ZM86.6084 97.5C86.3984 97.49 86.2384 97.33 86.2384 97.12V91.12C86.2684 90.91 86.4684 90.77 86.6784 90.81C86.8384 90.84 86.9684 90.96 86.9884 91.12V97.12C86.9884 97.33 86.8184 97.5 86.6084 97.5ZM86.6084 85.5C86.3984 85.49 86.2384 85.33 86.2384 85.12V79.12C86.2684 78.91 86.4684 78.77 86.6784 78.81C86.8384 78.84 86.9684 78.96 86.9884 79.12V85.12C86.9884 85.33 86.8184 85.5 86.6084 85.5ZM86.6084 73.5C86.3984 73.49 86.2384 73.33 86.2384 73.12V67.12C86.2684 66.91 86.4684 66.77 86.6784 66.81C86.8384 66.84 86.9684 66.96 86.9884 67.12V73.12C86.9884 73.33 86.8184 73.5 86.6084 73.5ZM86.6084 61.5C86.3984 61.49 86.2384 61.33 86.2384 61.12V55.12C86.2684 54.91 86.4684 54.77 86.6784 54.81C86.8384 54.84 86.9684 54.96 86.9884 55.12V61.12C86.9884 61.33 86.8184 61.5 86.6084 61.5ZM86.6084 49.5C86.3984 49.49 86.2384 49.33 86.2384 49.12V43.12C86.2684 42.91 86.4684 42.77 86.6784 42.81C86.8384 42.84 86.9684 42.96 86.9884 43.12V49.12C86.9884 49.33 86.8184 49.5 86.6084 49.5ZM86.6084 37.5C86.3984 37.49 86.2384 37.33 86.2384 37.12V31.12C86.2684 30.91 86.4684 30.77 86.6784 30.81C86.8384 30.84 86.9684 30.96 86.9884 31.12V37.12C86.9884 37.33 86.8184 37.5 86.6084 37.5ZM86.6084 25.5C86.3984 25.49 86.2384 25.33 86.2384 25.12V19.12C86.2684 18.91 86.4684 18.77 86.6784 18.81C86.8384 18.84 86.9684 18.96 86.9884 19.12V25.12C86.9884 25.33 86.8184 25.5 86.6084 25.5ZM86.6084 13.5C86.3984 13.49 86.2384 13.33 86.2384 13.12V7.11996C86.2684 6.90996 86.4684 6.76996 86.6784 6.80996C86.8384 6.83996 86.9684 6.95996 86.9884 7.11996V13.12C86.9884 13.33 86.8184 13.5 86.6084 13.5ZM86.6084 1.49996C86.3984 1.48996 86.2384 1.32996 86.2384 1.11996V0.99996C86.2084 0.78996 86.3484 0.599958 86.5484 0.559958C86.7584 0.529958 86.9484 0.669963 86.9884 0.869963C86.9984 0.909963 86.9984 0.949958 86.9884 0.989958V1.11996C86.9784 1.33996 86.8184 1.49996 86.6084 1.49996Z" fill="#0049FF"/>
<path d="M443.55 53.82L425.65 12.14L383.97 30.03L390.03 44.14L407.63 36.59L377.46 112.16L332.65 168.07L264.45 189.96L263.8 190.17L201.07 223.51L158.45 239.7L145.67 305.61H113.35L86.5003 368.74H3.07031V384.1H96.6503L123.51 320.97H158.33L171.89 251.01L207.42 237.52L269.79 204.37L341.74 181.28L390.87 119.98L421.89 42.28L429.44 59.87L443.55 53.82Z" fill="#0049FF"/>
<path d="M1.73047 385.12H425.51" stroke="#263238" stroke-miterlimit="10" stroke-linecap="round" stroke-linejoin="round"/>
</svg>
