<svg width="612" height="496" viewBox="0 0 612 496" fill="none" xmlns="http://www.w3.org/2000/svg">
<path opacity="0.3" d="M605.362 387.661L425.677 491.439C417.649 496.077 405.508 496.573 398.559 492.559L4.69426 265.176C-2.25545 261.162 -1.39029 254.156 6.63734 249.518L186.323 145.74C194.351 141.103 206.491 140.606 213.441 144.62L607.305 372.003C614.255 376.017 613.39 383.023 605.362 387.661Z" fill="url(#paint0_linear_723_8830)"/>
<path d="M612 303.23L574.982 296.791L213.455 88.058C206.505 84.0442 194.365 84.5548 186.337 89.1785L18.863 185.907L0.0136719 182.631V201.778H0.027858C0.0136749 204.345 1.54544 206.785 4.70827 208.614L398.559 436.012C405.508 440.026 417.649 439.515 425.677 434.891L605.362 331.114C609.816 328.546 612.057 325.242 611.986 322.122H612V303.23Z" fill="url(#paint1_linear_723_8830)"/>
<path d="M605.362 312.08L425.677 415.857C417.649 420.495 405.508 420.992 398.559 416.978L4.69426 189.594C-2.25545 185.581 -1.39029 178.574 6.63734 173.936L186.323 70.1586C194.351 65.5207 206.491 65.0243 213.441 69.0381L607.291 296.436C614.255 300.435 613.39 307.442 605.362 312.08Z" fill="url(#paint2_linear_723_8830)"/>
<path d="M123.422 117.204L95.6937 133.217C94.4882 133.912 92.6727 133.983 91.6232 133.387L91.3395 133.231C90.29 132.635 90.4318 131.572 91.6374 130.877L119.365 114.864C120.571 114.169 122.386 114.098 123.436 114.694L123.72 114.85C124.755 115.445 124.627 116.495 123.422 117.204Z" fill="#0063AD"/>
<path d="M57.2281 192.53L53.7248 194.559L45.4277 189.765L48.9309 187.737L57.2281 192.53Z" fill="white"/>
<path d="M63.6812 188.8L60.178 190.828L51.8809 186.035L55.3841 184.021L63.6812 188.8Z" fill="white"/>
<path d="M70.1201 185.084L66.6169 187.098L58.334 182.319L61.8372 180.291L70.1201 185.084Z" fill="white"/>
<path d="M76.5752 181.354L73.072 183.382L64.7891 178.588L68.2781 176.574L76.5752 181.354Z" fill="white"/>
<g opacity="0.5">
<mask id="mask0_723_8830" style="mask-type:luminance" maskUnits="userSpaceOnUse" x="0" y="66" width="612" height="354">
<path d="M605.362 312.08L425.677 415.857C417.649 420.495 405.508 420.992 398.559 416.978L4.69426 189.594C-2.25545 185.581 -1.39029 178.574 6.63734 173.936L186.323 70.1586C194.351 65.5207 206.491 65.0243 213.441 69.0381L607.291 296.436C614.255 300.435 613.39 307.442 605.362 312.08Z" fill="white"/>
</mask>
<g mask="url(#mask0_723_8830)">
<path d="M432.228 271.204H334.066V429.275H334.095C334.024 430.338 334.605 431.36 335.91 432.111L378.19 456.52C380.927 458.095 385.707 457.896 388.87 456.081L429.618 432.551C431.249 431.615 432.114 430.423 432.213 429.275H432.228V271.204Z" fill="url(#paint3_linear_723_8830)"/>
<path d="M378.203 298.478L335.923 274.069C333.186 272.495 333.526 269.729 336.689 267.899L377.437 244.369C380.6 242.54 385.38 242.341 388.117 243.93L430.397 268.339C433.134 269.913 432.794 272.679 429.631 274.509L388.883 298.038C385.706 299.868 380.926 300.052 378.203 298.478Z" fill="url(#paint4_linear_723_8830)"/>
<path d="M429.617 272.693L388.869 296.223C385.706 298.053 380.926 298.251 378.189 296.663L335.909 272.254C335.044 271.757 334.519 271.133 334.264 270.452C333.768 271.771 334.292 273.133 335.909 274.069L378.189 298.478C380.926 300.053 385.706 299.854 388.869 298.039L429.617 274.509C431.773 273.261 432.581 271.587 432.028 270.14C431.702 271.048 430.907 271.956 429.617 272.693Z" fill="white"/>
<path d="M297.886 269.927H199.725V427.998H199.753C199.682 429.062 200.264 430.083 201.568 430.834L243.848 455.244C246.586 456.818 251.365 456.619 254.528 454.804L295.276 431.274C296.907 430.338 297.772 429.147 297.872 427.998H297.886V269.927Z" fill="url(#paint5_linear_723_8830)"/>
<path d="M243.862 297.201L201.582 272.792C198.845 271.218 199.185 268.452 202.348 266.623L243.096 243.093C246.259 241.263 251.039 241.065 253.776 242.653L296.056 267.062C298.793 268.637 298.453 271.402 295.29 273.232L254.542 296.762C251.379 298.577 246.6 298.776 243.862 297.201Z" fill="url(#paint6_linear_723_8830)"/>
<path d="M295.275 271.417L254.527 294.946C251.364 296.776 246.585 296.975 243.847 295.386L201.567 270.977C200.702 270.481 200.177 269.856 199.922 269.176C199.426 270.495 199.951 271.856 201.567 272.792L243.847 297.201C246.585 298.776 251.364 298.577 254.527 296.762L295.275 273.232C297.431 271.984 298.239 270.31 297.686 268.864C297.36 269.771 296.566 270.665 295.275 271.417Z" fill="white"/>
<path d="M365.058 308.903H266.896V466.973H266.925C266.854 468.037 267.435 469.058 268.74 469.81L311.02 494.219C313.757 495.793 318.537 495.595 321.7 493.779L362.448 470.25C364.079 469.313 364.944 468.122 365.043 466.973H365.058V308.903Z" fill="url(#paint7_linear_723_8830)"/>
<path d="M311.034 336.163L268.754 311.754C266.017 310.179 266.357 307.414 269.52 305.584L310.268 282.054C313.431 280.225 318.211 280.026 320.948 281.614L363.228 306.024C365.965 307.598 365.625 310.364 362.462 312.193L321.714 335.723C318.551 337.553 313.771 337.751 311.034 336.163Z" fill="url(#paint8_linear_723_8830)"/>
<path d="M362.463 310.378L321.715 333.908C318.552 335.737 313.772 335.936 311.035 334.347L268.755 309.938C267.89 309.442 267.365 308.818 267.11 308.137C266.613 309.47 267.138 310.818 268.755 311.754L311.035 336.163C313.772 337.737 318.552 337.539 321.715 335.723L362.463 312.193C364.618 310.945 365.427 309.272 364.874 307.825C364.533 308.747 363.739 309.64 362.463 310.378Z" fill="white"/>
</g>
</g>
<path d="M363.398 28.3475H265.237V200.828H265.266C265.195 201.892 265.776 202.913 267.081 203.665L309.361 228.074C312.098 229.648 316.878 229.45 320.041 227.634L360.789 204.104C362.42 203.168 363.285 201.977 363.384 200.828H363.398V28.3475Z" fill="url(#paint9_linear_723_8830)"/>
<path d="M309.375 55.6213L267.095 31.2122C264.358 29.6379 264.698 26.8722 267.861 25.0425L308.609 1.51279C311.772 -0.316826 316.552 -0.515391 319.289 1.07311L361.569 25.4822C364.306 27.0565 363.966 29.8222 360.803 31.6518L320.055 55.1816C316.892 56.997 312.112 57.1956 309.375 55.6213Z" fill="url(#paint10_linear_723_8830)"/>
<path d="M360.803 29.8366L320.055 53.3664C316.893 55.196 312.113 55.3946 309.376 53.8061L267.096 29.397C266.231 28.9006 265.706 28.2765 265.45 27.5957C264.954 28.9147 265.479 30.2763 267.096 31.2124L309.376 55.6215C312.113 57.1958 316.893 56.9973 320.055 55.1818L360.803 31.6521C362.959 30.404 363.768 28.7304 363.215 27.2837C362.874 28.1914 362.08 29.0849 360.803 29.8366Z" fill="white"/>
<path d="M430.556 105.319H332.395V239.959H332.423C332.352 241.023 332.933 242.044 334.238 242.796L376.518 267.205C379.255 268.779 384.035 268.581 387.198 266.765L427.946 243.236C429.577 242.299 430.442 241.108 430.542 239.959H430.556V105.319Z" fill="url(#paint11_linear_723_8830)"/>
<path d="M376.532 132.593L334.252 108.184C331.515 106.61 331.855 103.844 335.018 102.014L375.766 78.4845C378.929 76.6549 383.709 76.4563 386.446 78.0448L428.726 102.454C431.463 104.028 431.123 106.794 427.96 108.624L387.212 132.153C384.049 133.983 379.269 134.181 376.532 132.593Z" fill="url(#paint12_linear_723_8830)"/>
<path d="M427.961 106.808L387.213 130.338C384.05 132.168 379.27 132.366 376.533 130.778L334.253 106.369C333.388 105.872 332.863 105.248 332.608 104.567C332.111 105.886 332.636 107.248 334.253 108.184L376.533 132.593C379.27 134.168 384.05 133.969 387.213 132.154L427.961 108.624C430.116 107.376 430.925 105.702 430.372 104.255C430.046 105.177 429.251 106.071 427.961 106.808Z" fill="white"/>
<path d="M296.227 207.849H198.065V238.512H198.094C198.023 239.576 198.604 240.597 199.909 241.349L242.189 265.758C244.926 267.333 249.706 267.134 252.869 265.319L293.617 241.789C295.248 240.853 296.113 239.661 296.212 238.512H296.227V207.849Z" fill="url(#paint13_linear_723_8830)"/>
<path d="M242.203 235.122L199.923 210.713C197.186 209.139 197.526 206.373 200.689 204.544L241.437 181.014C244.6 179.184 249.38 178.986 252.117 180.574L294.397 204.983C297.134 206.558 296.794 209.323 293.631 211.153L252.883 234.683C249.72 236.498 244.94 236.697 242.203 235.122Z" fill="url(#paint14_linear_723_8830)"/>
<path d="M293.632 209.338L252.884 232.867C249.721 234.697 244.941 234.896 242.204 233.307L199.924 208.898C199.059 208.402 198.534 207.778 198.279 207.097C197.782 208.416 198.307 209.777 199.924 210.714L242.204 235.123C244.941 236.697 249.721 236.498 252.884 234.683L293.632 211.153C295.787 209.905 296.596 208.231 296.043 206.785C295.702 207.693 294.908 208.586 293.632 209.338Z" fill="white"/>
<path d="M363.383 188.375H265.222V277.658H265.25C265.179 278.722 265.761 279.743 267.065 280.495L309.345 304.904C312.083 306.478 316.862 306.279 320.025 304.464L360.773 280.934C362.404 279.998 363.269 278.807 363.369 277.658H363.383V188.375Z" fill="url(#paint15_linear_723_8830)"/>
<path d="M309.359 215.649L267.08 191.24C264.342 189.666 264.683 186.9 267.845 185.07L308.593 161.541C311.756 159.711 316.536 159.512 319.273 161.101L361.553 185.51C364.29 187.084 363.95 189.85 360.787 191.68L320.039 215.209C316.876 217.025 312.097 217.223 309.359 215.649Z" fill="url(#paint16_linear_723_8830)"/>
<path d="M360.788 189.865L320.04 213.394C316.877 215.224 312.097 215.423 309.36 213.834L267.08 189.425C266.215 188.929 265.69 188.304 265.435 187.624C264.938 188.943 265.463 190.304 267.08 191.24L309.36 215.649C312.097 217.224 316.877 217.025 320.04 215.21L360.788 191.68C362.944 190.432 363.752 188.758 363.199 187.312C362.858 188.219 362.064 189.113 360.788 189.865Z" fill="white"/>
<path d="M605.361 309.626L425.676 413.417C417.648 418.055 405.508 418.552 398.558 414.538L4.69341 187.155C2.06954 185.637 0.566133 183.694 0.126457 181.609C-0.426683 184.587 1.04836 187.495 4.69341 189.608L398.544 417.006C405.493 421.02 417.634 420.509 425.662 415.885L605.347 312.108C610.34 309.228 612.566 305.427 611.857 301.995C611.361 304.676 609.177 307.427 605.361 309.626Z" fill="white"/>
<defs>
<linearGradient id="paint0_linear_723_8830" x1="0.00362726" y1="318.59" x2="611.998" y2="318.59" gradientUnits="userSpaceOnUse">
<stop stop-color="#59BDEF"/>
<stop offset="1" stop-color="#7BDAFF"/>
</linearGradient>
<linearGradient id="paint1_linear_723_8830" x1="22.9009" y1="262.037" x2="609.736" y2="262.037" gradientUnits="userSpaceOnUse">
<stop stop-color="#3A9BD5"/>
<stop offset="0.3002" stop-color="#3796D1"/>
<stop offset="0.6734" stop-color="#2F86C7"/>
<stop offset="1" stop-color="#2573BA"/>
</linearGradient>
<linearGradient id="paint2_linear_723_8830" x1="55.7703" y1="296.957" x2="517.092" y2="102.443" gradientUnits="userSpaceOnUse">
<stop stop-color="#59BDEF"/>
<stop offset="1" stop-color="#7BDAFF"/>
</linearGradient>
<linearGradient id="paint3_linear_723_8830" x1="334.067" y1="364.398" x2="432.221" y2="364.398" gradientUnits="userSpaceOnUse">
<stop offset="0.4032" stop-color="#FD5A05"/>
<stop offset="0.423" stop-color="#FA5505"/>
<stop offset="0.5505" stop-color="#EC3D03"/>
<stop offset="0.6846" stop-color="#E22C01"/>
<stop offset="0.8286" stop-color="#DC2100"/>
<stop offset="1" stop-color="#DA1E00"/>
</linearGradient>
<linearGradient id="paint4_linear_723_8830" x1="339.849" y1="205.906" x2="444.635" y2="363.93" gradientUnits="userSpaceOnUse">
<stop offset="0.4032" stop-color="#FC8B04"/>
<stop offset="0.5099" stop-color="#FC7904"/>
<stop offset="0.6558" stop-color="#FD6805"/>
<stop offset="0.813" stop-color="#FD5D05"/>
<stop offset="1" stop-color="#FD5A05"/>
</linearGradient>
<linearGradient id="paint5_linear_723_8830" x1="199.726" y1="363.118" x2="297.88" y2="363.118" gradientUnits="userSpaceOnUse">
<stop offset="0.4032" stop-color="#FD5A05"/>
<stop offset="0.423" stop-color="#FA5505"/>
<stop offset="0.5505" stop-color="#EC3D03"/>
<stop offset="0.6846" stop-color="#E22C01"/>
<stop offset="0.8286" stop-color="#DC2100"/>
<stop offset="1" stop-color="#DA1E00"/>
</linearGradient>
<linearGradient id="paint6_linear_723_8830" x1="205.509" y1="204.627" x2="310.295" y2="362.65" gradientUnits="userSpaceOnUse">
<stop offset="0.4032" stop-color="#FC8B04"/>
<stop offset="0.5099" stop-color="#FC7904"/>
<stop offset="0.6558" stop-color="#FD6805"/>
<stop offset="0.813" stop-color="#FD5D05"/>
<stop offset="1" stop-color="#FD5A05"/>
</linearGradient>
<linearGradient id="paint7_linear_723_8830" x1="266.901" y1="402.088" x2="365.055" y2="402.088" gradientUnits="userSpaceOnUse">
<stop offset="0.4032" stop-color="#FD5A05"/>
<stop offset="0.423" stop-color="#FA5505"/>
<stop offset="0.5505" stop-color="#EC3D03"/>
<stop offset="0.6846" stop-color="#E22C01"/>
<stop offset="0.8286" stop-color="#DC2100"/>
<stop offset="1" stop-color="#DA1E00"/>
</linearGradient>
<linearGradient id="paint8_linear_723_8830" x1="272.684" y1="243.596" x2="377.47" y2="401.62" gradientUnits="userSpaceOnUse">
<stop offset="0.4032" stop-color="#FC8B04"/>
<stop offset="0.5099" stop-color="#FC7904"/>
<stop offset="0.6558" stop-color="#FD6805"/>
<stop offset="0.813" stop-color="#FD5D05"/>
<stop offset="1" stop-color="#FD5A05"/>
</linearGradient>
<linearGradient id="paint9_linear_723_8830" x1="265.246" y1="128.744" x2="363.4" y2="128.744" gradientUnits="userSpaceOnUse">
<stop offset="0.4032" stop-color="#FD5A05"/>
<stop offset="0.423" stop-color="#FA5505"/>
<stop offset="0.5505" stop-color="#EC3D03"/>
<stop offset="0.6846" stop-color="#E22C01"/>
<stop offset="0.8286" stop-color="#DC2100"/>
<stop offset="1" stop-color="#DA1E00"/>
</linearGradient>
<linearGradient id="paint10_linear_723_8830" x1="271.028" y1="-36.9544" x2="375.815" y2="121.069" gradientUnits="userSpaceOnUse">
<stop offset="0.4032" stop-color="#FC8B04"/>
<stop offset="0.5099" stop-color="#FC7904"/>
<stop offset="0.6558" stop-color="#FD6805"/>
<stop offset="0.813" stop-color="#FD5D05"/>
<stop offset="1" stop-color="#FD5A05"/>
</linearGradient>
<linearGradient id="paint11_linear_723_8830" x1="332.406" y1="186.802" x2="430.56" y2="186.802" gradientUnits="userSpaceOnUse">
<stop offset="0.4032" stop-color="#FD5A05"/>
<stop offset="0.423" stop-color="#FA5505"/>
<stop offset="0.5505" stop-color="#EC3D03"/>
<stop offset="0.6846" stop-color="#E22C01"/>
<stop offset="0.8286" stop-color="#DC2100"/>
<stop offset="1" stop-color="#DA1E00"/>
</linearGradient>
<linearGradient id="paint12_linear_723_8830" x1="338.189" y1="40.0233" x2="442.975" y2="198.047" gradientUnits="userSpaceOnUse">
<stop offset="0.4032" stop-color="#FC8B04"/>
<stop offset="0.5099" stop-color="#FC7904"/>
<stop offset="0.6558" stop-color="#FD6805"/>
<stop offset="0.813" stop-color="#FD5D05"/>
<stop offset="1" stop-color="#FD5A05"/>
</linearGradient>
<linearGradient id="paint13_linear_723_8830" x1="198.071" y1="237.338" x2="296.225" y2="237.338" gradientUnits="userSpaceOnUse">
<stop offset="0.4032" stop-color="#FD5A05"/>
<stop offset="0.423" stop-color="#FA5505"/>
<stop offset="0.5505" stop-color="#EC3D03"/>
<stop offset="0.6846" stop-color="#E22C01"/>
<stop offset="0.8286" stop-color="#DC2100"/>
<stop offset="1" stop-color="#DA1E00"/>
</linearGradient>
<linearGradient id="paint14_linear_723_8830" x1="203.853" y1="142.545" x2="308.64" y2="300.569" gradientUnits="userSpaceOnUse">
<stop offset="0.4032" stop-color="#FC8B04"/>
<stop offset="0.5099" stop-color="#FC7904"/>
<stop offset="0.6558" stop-color="#FD6805"/>
<stop offset="0.813" stop-color="#FD5D05"/>
<stop offset="1" stop-color="#FD5A05"/>
</linearGradient>
<linearGradient id="paint15_linear_723_8830" x1="265.23" y1="247.173" x2="363.384" y2="247.173" gradientUnits="userSpaceOnUse">
<stop offset="0.4032" stop-color="#FD5A05"/>
<stop offset="0.423" stop-color="#FA5505"/>
<stop offset="0.5505" stop-color="#EC3D03"/>
<stop offset="0.6846" stop-color="#E22C01"/>
<stop offset="0.8286" stop-color="#DC2100"/>
<stop offset="1" stop-color="#DA1E00"/>
</linearGradient>
<linearGradient id="paint16_linear_723_8830" x1="271.013" y1="123.075" x2="375.799" y2="281.099" gradientUnits="userSpaceOnUse">
<stop offset="0.4032" stop-color="#FC8B04"/>
<stop offset="0.5099" stop-color="#FC7904"/>
<stop offset="0.6558" stop-color="#FD6805"/>
<stop offset="0.813" stop-color="#FD5D05"/>
<stop offset="1" stop-color="#FD5A05"/>
</linearGradient>
</defs>
</svg>
