<svg width="460" height="513" viewBox="0 0 460 513" fill="none" xmlns="http://www.w3.org/2000/svg">
<path opacity="0.26" d="M454.483 335.623C461.78 339.836 461.817 346.665 454.57 350.878L182.18 509.172C174.933 513.385 163.141 513.385 155.845 509.172L5.6546 422.458C-1.64198 418.244 -1.67924 411.415 5.56767 407.206L277.958 248.912C285.205 244.699 296.996 244.699 304.293 248.912L454.483 335.623Z" fill="#7ABEC1"/>
<path d="M454.5 309.698C461.796 313.911 461.833 320.74 454.587 324.953L182.196 483.247C174.949 487.46 163.158 487.46 155.861 483.247L5.6712 396.533C-1.62538 392.319 -1.66264 385.49 5.58427 381.281L277.975 222.987C285.222 218.774 297.013 218.774 304.309 222.987L454.5 309.698Z" fill="white"/>
<path d="M460 317.379C459.963 320.76 457.355 323.36 454.587 324.953C452.819 325.884 182.329 483.338 180.773 483.996C177.263 485.635 173.364 486.339 169.507 486.401C165.198 493.486 11.7965 398.196 5.6712 396.536C2.00014 394.413 0.166675 391.632 0.174952 388.855C0.812316 395.717 -2.59385 404.532 5.63808 408.675C6.60654 409.143 155.861 495.514 156.731 495.87C159.181 497.112 161.863 497.844 164.578 498.237C170.517 499.024 176.886 498.362 182.167 495.39C183.628 494.426 454.781 337.166 455.936 336.194C458.113 334.638 459.959 332.291 459.967 329.518L460 317.379Z" fill="url(#paint0_linear_723_9578)"/>
<path d="M454.5 309.698C461.796 313.911 461.833 320.74 454.587 324.953L182.196 483.247C174.949 487.46 163.158 487.46 155.861 483.247L5.6712 396.533C-1.62538 392.319 -1.66264 385.49 5.58427 381.281L277.975 222.987C285.222 218.774 297.013 218.774 304.309 222.987L454.5 309.698Z" fill="white"/>
<path d="M103.642 445.659L72.469 427.66C69.9857 426.228 70.3003 423.703 73.1684 422.048C76.0366 420.392 80.4071 420.214 82.8903 421.646L114.063 439.646C116.542 441.078 116.232 443.602 113.364 445.258C110.496 446.909 106.125 447.091 103.642 445.659Z" fill="url(#paint1_linear_723_9578)"/>
<path d="M107.864 446.731C106.262 446.731 104.73 446.408 103.588 445.75L72.4153 427.751C71.302 427.11 70.6895 426.211 70.6895 425.222C70.6895 424.034 71.5752 422.843 73.1148 421.953C76.016 420.277 80.4238 420.099 82.9401 421.551L114.113 439.551C115.226 440.192 115.839 441.09 115.839 442.079C115.839 443.267 114.957 444.459 113.414 445.349C111.828 446.264 109.792 446.731 107.864 446.731ZM103.696 445.564C106.154 446.984 110.467 446.802 113.31 445.163C114.783 444.31 115.628 443.189 115.628 442.079C115.628 441.173 115.052 440.337 114.005 439.737L82.8325 421.738C80.3741 420.318 76.0615 420.5 73.2182 422.139C71.7448 422.992 70.9005 424.113 70.9005 425.222C70.9005 426.129 71.4758 426.965 72.5229 427.565L103.696 445.564Z" fill="#999999"/>
<path d="M88.4873 451.457L67.4543 439.314C67.1356 439.128 66.8749 438.631 66.8749 438.205C66.5024 436.128 88.2141 450.253 88.4914 449.909C88.8101 450.096 89.0709 450.592 89.0709 451.019C89.0667 451.445 88.806 451.639 88.4873 451.457Z" fill="#004166"/>
<path d="M27.5654 383.537L293.044 230.259L443.801 317.301L178.323 470.574L27.5654 383.537Z" fill="url(#paint2_linear_723_9578)"/>
<path d="M361.201 187.522C357.356 213.803 294.443 212.905 292.249 186.715L291.931 299.173C293.387 316.464 320.053 321.021 334.667 318.687C343.863 317.267 354.09 313.882 359.202 305.555C360.207 303.754 360.836 301.743 360.903 299.673C361.056 299.289 361.122 187.295 361.225 186.914C361.225 187.117 361.209 187.319 361.201 187.522Z" fill="url(#paint3_linear_723_9578)"/>
<path d="M351.044 172.689C364.557 180.491 364.632 193.143 351.206 200.94C337.78 208.737 315.944 208.742 302.431 200.94C288.918 193.139 288.848 180.491 302.274 172.689C315.7 164.888 337.532 164.888 351.044 172.689Z" fill="#6AC0E3"/>
<path d="M281.402 271.154C277.557 297.43 214.644 296.541 212.446 270.351L212.235 345.324C213.651 362.508 240.147 367.135 254.695 364.871C264.052 363.476 274.585 360.045 279.639 351.453C282.726 351.685 280.851 272.962 281.427 270.549C281.427 270.752 281.41 270.951 281.402 271.154Z" fill="url(#paint4_linear_723_9578)"/>
<path d="M271.245 256.32C284.758 264.122 284.832 276.774 271.406 284.571C257.98 292.373 236.14 292.373 222.627 284.571C209.114 276.77 209.044 264.122 222.47 256.32C235.892 248.519 257.732 248.519 271.245 256.32Z" fill="#6AC0E3"/>
<path d="M198.076 354.164C194.232 380.445 131.319 379.547 129.125 353.357L129.018 390.841C129.001 395.986 132.399 401.138 139.199 405.066C148.908 410.5 160.555 411.775 171.477 410.392C181.36 408.894 193.16 405.045 197.278 395.054C198.735 393.618 197.795 356.026 198.101 353.555C198.105 353.762 198.089 353.961 198.076 354.164Z" fill="url(#paint5_linear_723_9578)"/>
<path d="M187.92 339.331C201.433 347.132 201.508 359.784 188.082 367.582C174.656 375.379 152.82 375.383 139.307 367.582C125.794 359.78 125.724 347.132 139.15 339.331C152.572 331.529 174.412 331.529 187.92 339.331Z" fill="#6AC0E3"/>
<path d="M362.434 70.2219L346.227 60.8063L357.869 60.9139L374.072 70.3295L362.434 70.2219Z" fill="#C2C2C2"/>
<path d="M326.604 172.184L310.401 162.768L346.226 60.8065L362.433 70.2221L326.604 172.184Z" fill="#0049FF"/>
<path d="M343.872 70.048L327.669 60.6324L373.431 0L389.634 9.41974L343.872 70.048Z" fill="#0049FF"/>
<path d="M248.159 262.379L231.952 252.963L269.3 134.774L285.503 144.193L248.159 262.379Z" fill="#0049FF"/>
<path d="M205.986 251.362L189.778 241.946L231.952 252.963L248.159 262.379L205.986 251.362Z" fill="#0049FF"/>
<path d="M163.345 361.464L147.138 352.049L189.779 241.946L205.986 251.362L163.345 361.464Z" fill="#0049FF"/>
<path d="M389.634 9.41992L343.872 70.0481L362.434 70.222L326.605 172.184L285.503 144.193L248.16 262.379L205.986 251.362L163.345 361.464L174.664 362.437L210.083 270.988L253.54 282.34L289.348 169.026L329.734 196.528L374.072 70.3296L392.63 70.5034L389.634 9.41992Z" fill="#83A7FF"/>
<defs>
<linearGradient id="paint0_linear_723_9578" x1="-0.000196571" y1="407.961" x2="459.999" y2="407.961" gradientUnits="userSpaceOnUse">
<stop offset="0.1531" stop-color="#C5F3E9"/>
<stop offset="1" stop-color="#3F85FA"/>
</linearGradient>
<linearGradient id="paint1_linear_723_9578" x1="72.4738" y1="421.647" x2="78.4148" y2="452.515" gradientUnits="userSpaceOnUse">
<stop offset="0.1531" stop-color="#C5F3E9"/>
<stop offset="1" stop-color="#3F85FA"/>
</linearGradient>
<linearGradient id="paint2_linear_723_9578" x1="38.5" y1="389.679" x2="443.803" y2="350.418" gradientUnits="userSpaceOnUse">
<stop stop-color="#BBD5FF"/>
<stop offset="0.8469" stop-color="#C5F3E9"/>
</linearGradient>
<linearGradient id="paint3_linear_723_9578" x1="291.934" y1="252.99" x2="361.23" y2="252.99" gradientUnits="userSpaceOnUse">
<stop stop-color="#7DC8E7"/>
<stop offset="0.4888" stop-color="#32A9D9"/>
<stop offset="1" stop-color="#101AFF"/>
</linearGradient>
<linearGradient id="paint4_linear_723_9578" x1="212.239" y1="317.882" x2="281.479" y2="317.882" gradientUnits="userSpaceOnUse">
<stop stop-color="#7DC8E7"/>
<stop offset="0.4888" stop-color="#32A9D9"/>
<stop offset="1" stop-color="#101AFF"/>
</linearGradient>
<linearGradient id="paint5_linear_723_9578" x1="129.021" y1="382.135" x2="198.126" y2="382.135" gradientUnits="userSpaceOnUse">
<stop stop-color="#7DC8E7"/>
<stop offset="0.4888" stop-color="#32A9D9"/>
<stop offset="1" stop-color="#101AFF"/>
</linearGradient>
</defs>
</svg>
