<svg width="100" height="100" viewBox="0 0 100 100" fill="none" xmlns="http://www.w3.org/2000/svg">
<g clip-path="url(#clip0_591_3784)">
<rect width="100" height="100" fill="white"/>
<path d="M100 50C100 77.6154 77.6154 100 50 100C22.3846 100 0 77.6154 0 50C0 22.3846 22.3846 0 50 0C77.6154 0 100 22.3846 100 50Z" fill="#B2C1E5"/>
<path d="M73.6357 65.4998C73.6357 64.9921 73.8203 64.5306 74.1203 64.1537C74.5511 62.4075 75.028 60.2614 75.5357 57.5845C75.5126 57.4614 75.4972 57.3383 75.4972 57.2075C75.4972 56.8075 75.6203 56.4383 75.8126 56.1152C76.2818 53.4922 76.5742 51.3152 76.728 49.5383C76.4126 49.1537 76.2126 48.6845 76.2126 48.1614C76.2126 47.5537 76.4665 47.0075 76.8819 46.6075C76.928 42.546 76.1126 41.5998 76.1126 41.5998C72.8049 39.8306 64.4357 41.9537 60.7588 41.2537C59.5203 41.0152 56.7357 40.4845 56.1511 39.3845C55.0049 37.2537 57.3049 32.2998 57.0665 29.8845C56.8819 27.9537 55.4126 24.1691 54.128 22.7229C53.4588 21.9691 52.628 20.7306 51.628 20.746C51.3819 20.746 51.0588 20.8614 50.728 21.0306C50.1896 21.3075 49.6357 21.7229 49.4434 22.0614C48.3511 23.9383 49.8357 28.6691 49.2126 30.7537C48.3049 33.7383 44.8049 39.1075 42.5819 41.2922C41.7434 42.1229 38.8203 43.7383 38.8203 43.7383V70.3614C38.8203 70.3614 41.4742 70.0921 42.4049 70.3614C48.7742 72.1614 65.7895 73.5383 71.8895 70.9537C71.8895 70.9537 72.5896 69.8998 73.6819 65.8768C73.6511 65.746 73.6357 65.6306 73.6357 65.4998Z" fill="#EFC498"/>
<path d="M77.6095 43.9306C77.8864 45.7922 76.6095 47.5229 74.7479 47.7999L64.071 49.3383C62.2095 49.6153 60.4787 48.3383 60.2018 46.4768C59.9249 44.6153 61.2018 42.8845 63.0633 42.6076L73.7403 41.0691C75.5941 40.7922 77.3326 42.0691 77.6095 43.9306Z" fill="#FFD3A6"/>
<path d="M78.1386 52.3384C78.2617 54.323 76.754 56.023 74.7771 56.1538L63.3694 56.5845C61.3848 56.7076 59.6848 55.1999 59.5617 53.223C59.4386 51.2384 60.9463 49.5384 62.9233 49.4153L74.3309 48.9845C76.3156 48.8461 78.0156 50.3538 78.1386 52.3384Z" fill="#FFD3A6"/>
<path d="M77.6325 60.9384C77.5864 62.8691 75.9787 64.3999 74.0402 64.3537L62.9633 63.5845C61.0325 63.5384 59.5017 61.9307 59.5479 59.9999C59.594 58.0691 61.2017 56.5384 63.1325 56.5845L74.2094 57.3537C76.1556 57.3999 77.6864 59.0076 77.6325 60.9384Z" fill="#FFD3A6"/>
<path d="M74.7104 68.1001C74.5873 69.8001 73.1104 71.077 71.4104 70.9539L61.995 69.6616C60.295 69.5385 59.0258 68.0616 59.1489 66.3693C59.2719 64.6693 60.7489 63.4001 62.4412 63.5231L71.8566 64.8155C73.5566 64.9308 74.8335 66.4078 74.7104 68.1001Z" fill="#FFD3A6"/>
<path d="M56.1433 39.3845C54.9971 37.2537 57.2971 32.2998 57.0587 29.8845C56.874 27.9537 55.4048 24.1691 54.1202 22.7229C53.451 21.9691 52.6202 20.7306 51.6202 20.746C51.374 20.746 51.051 20.8614 50.7202 21.0306C50.1817 21.3075 49.6279 21.7229 49.4356 22.0614C48.3433 23.9383 49.8279 28.6691 49.2048 30.7537C48.2971 33.7383 44.7971 39.1075 42.574 41.2922C41.7356 42.1229 38.8125 43.7383 38.8125 43.7383V59.9614C40.6356 60.9768 42.651 61.5537 44.7894 61.5537C52.7433 61.5537 58.5125 54.0075 58.5125 44.3383C58.5048 43.3537 56.5356 40.1306 56.1433 39.3845Z" fill="#FFD3A6"/>
<path d="M40.6383 42.646H37.9922V70.6922H40.6383V42.646Z" fill="white"/>
<path d="M0 49.9998C0 57.7767 1.77693 65.1382 4.94616 71.7075H38.9V42.3767H0.576923C0.192308 44.8613 0 47.4075 0 49.9998Z" fill="#2C5871"/>
</g>
<defs>
<clipPath id="clip0_591_3784">
<rect width="100" height="100" fill="white"/>
</clipPath>
</defs>
</svg>
