<svg width="100" height="100" viewBox="0 0 100 100" fill="none" xmlns="http://www.w3.org/2000/svg">
<g clip-path="url(#clip0_591_3665)">
<rect width="100" height="100" fill="white"/>
<path d="M100 50C100 77.6154 77.6154 100 50 100C22.3846 100 0 77.6154 0 50C0 22.3846 22.3846 0 50 0C77.6077 0 100 22.3846 100 50Z" fill="#B2C1E5"/>
<path d="M47.4461 71.0794C47.4461 71.0794 47.2261 69.8544 47.2212 69.28L47.0801 58.9117C46.5283 59.1055 46.0297 59.4603 45.7101 59.9608L38.9189 70.5433C38.4021 71.0449 38.1671 71.7025 38.2166 72.3505C38.2267 73.0464 38.5643 73.7162 39.1754 74.1748L44.3691 81.061L49.3667 88.3184L54.6712 78.846C52.9299 78.8347 48.6308 75.1803 47.4461 71.0794Z" fill="#FB9C1C"/>
<path d="M65.0171 5.38589L23.4922 21.2161L44.7012 76.8505L86.2261 61.0203L65.0171 5.38589Z" fill="#F0F0F0"/>
<path d="M38.5666 20.6482L29.9141 23.9468L30.3095 24.984L38.962 21.6854L38.5666 20.6482Z" fill="#295C6F"/>
<path d="M39.3557 22.7133L30.7031 26.0118L31.0985 27.049L39.7511 23.7505L39.3557 22.7133Z" fill="#295C6F"/>
<path d="M65.9842 22.0534L33.8594 34.3L34.2548 35.3372L66.3796 23.0906L65.9842 22.0534Z" fill="#295C6F"/>
<path d="M67.1717 25.1556L35.0469 37.4022L35.4423 38.4394L67.5671 26.1927L67.1717 25.1556Z" fill="#295C6F"/>
<path d="M42.3563 38.177L36.2266 40.5138L36.622 41.551L42.7517 39.2142L42.3563 38.177Z" fill="#295C6F"/>
<path d="M69.5389 31.3693L37.4141 43.616L37.8095 44.6531L69.9343 32.4065L69.5389 31.3693Z" fill="#295C6F"/>
<path d="M70.7264 34.4809L38.6016 46.7275L38.997 47.7647L71.1218 35.5181L70.7264 34.4809Z" fill="#295C6F"/>
<path d="M63.0853 40.9458L39.7812 49.8298L40.1766 50.867L63.4807 41.983L63.0853 40.9458Z" fill="#295C6F"/>
<path d="M73.0936 40.6946L40.9688 52.9413L41.3642 53.9785L73.489 41.7318L73.0936 40.6946Z" fill="#295C6F"/>
<path d="M74.2733 43.7969L42.1484 56.0436L42.5438 57.0808L74.6687 44.8341L74.2733 43.7969Z" fill="#295C6F"/>
<path d="M75.4608 46.9085L43.3359 59.1552L43.7313 60.1923L75.8561 47.9457L75.4608 46.9085Z" fill="#295C6F"/>
<path d="M56.7657 57.5874L44.5156 62.2573L44.911 63.2945L57.1611 58.6246L56.7657 57.5874Z" fill="#295C6F"/>
<path d="M64.7967 18.9417L32.6719 31.1884L33.0673 32.2256L65.1921 19.9789L64.7967 18.9417Z" fill="#295C6F"/>
<path d="M78.6132 55.1872L70.8203 58.1581L71.2157 59.1953L79.0087 56.2245L78.6132 55.1872Z" fill="#295C6F"/>
<path d="M79.4101 57.2617L71.6172 60.2325L72.0126 61.2697L79.8055 58.2989L79.4101 57.2617Z" fill="#295C6F"/>
<path d="M59.9993 62.1096L57.2275 55.5514C56.6287 53.3759 54.6241 51.9832 52.734 52.4238C50.8511 52.8617 49.8049 54.9976 50.3938 57.1687L53.7161 64.1345C53.4675 65.2747 53.5137 72.2628 51.2338 73.0414C49.5974 73.6076 43.9018 70.609 40.9408 66.0164C40.9408 66.0164 40.1867 64.5997 39.9182 63.8953L35.1148 51.2953C34.6849 51.7226 34.3695 52.3203 34.2977 53.0392L32.6826 68.259C32.4212 69.0419 32.4954 69.9274 32.8399 70.7017C33.1605 71.5426 33.7819 72.2442 34.5618 72.6055L45.1975 87.3535L53.1711 94.5137L67.6616 88.9896C67.6643 88.9968 64.6595 68.0715 59.9993 62.1096Z" fill="#FFD3A6"/>
<path d="M71.6801 96.595L68.4111 88.0201L52.4688 94.0977L55.45 101.918C58.9972 101.397 62.5477 100.496 66.0409 99.1647C68.0059 98.4238 69.8801 97.5529 71.6801 96.595Z" fill="white"/>
</g>
<defs>
<clipPath id="clip0_591_3665">
<rect width="100" height="100" fill="white"/>
</clipPath>
</defs>
</svg>
