<svg width="100" height="100" viewBox="0 0 100 100" fill="none" xmlns="http://www.w3.org/2000/svg">
<g clip-path="url(#clip0_591_3711)">
<rect width="100" height="100" fill="white"/>
<path d="M100 50C100 77.6154 77.6154 100 50 100C22.3846 100 0 77.6154 0 50C0 22.3846 22.3846 0 50 0C77.6077 0 100 22.3846 100 50Z" fill="#B2C1E5"/>
<path d="M60.8756 80.62L48.5156 68.26C49.0356 67.74 49.8756 67.74 50.4056 68.26L60.8856 78.74C61.4056 79.25 61.4056 80.1 60.8756 80.62Z" fill="#E6E6E6"/>
<path d="M60.8772 80.62C60.6072 80.89 60.2872 81.01 59.9372 81.01C59.5872 81.01 59.2572 80.88 58.9872 80.62L48.5072 70.14C47.9872 69.63 47.9872 68.78 48.5072 68.26L60.8772 80.62Z" fill="white"/>
<path d="M38.0394 80.62L50.3994 68.27C49.8794 67.75 49.0394 67.75 48.5094 68.27L38.0294 78.75C37.5094 79.25 37.5094 80.1 38.0394 80.62Z" fill="#E6E6E6"/>
<path d="M38.0391 80.62C38.3091 80.89 38.6391 81.01 38.9791 81.01C39.3291 81.01 39.6591 80.88 39.9291 80.62L50.4091 70.14C50.9291 69.63 50.9291 68.78 50.4091 68.26L38.0391 80.62Z" fill="white"/>
<path d="M50.7928 19.34V79.67C50.7928 80.4 50.2128 81 49.4728 81C48.7228 81 48.1328 80.4 48.1328 79.67V19.34C48.1328 18.61 48.7328 18.01 49.4728 18.01C50.2028 18.01 50.7928 18.61 50.7928 19.34Z" fill="white"/>
<path d="M50.7966 19.34V79.67C50.7966 80.4 50.2166 81 49.4766 81V18C50.2066 18.01 50.7966 18.61 50.7966 19.34Z" fill="#E6E6E6"/>
<path opacity="0.2" d="M50.7 25.48H48.25V63.24H50.7V25.48Z" fill="black"/>
<path d="M77.0009 23.52V59.32C77.0009 60.41 76.1209 61.28 75.0409 61.28H23.9209C22.8409 61.28 21.9609 60.41 21.9609 59.32V23.52H77.0009Z" fill="#FFFAE6"/>
<path d="M75.0397 61.82H23.9197C22.5497 61.82 21.4297 60.7 21.4297 59.33V22.99H77.5297V59.33C77.5297 60.7 76.4097 61.82 75.0397 61.82ZM22.4897 24.06V59.33C22.4897 60.12 23.1297 60.75 23.9097 60.75H75.0297C75.8197 60.75 76.4497 60.11 76.4497 59.33V24.06H22.4897Z" fill="#1A4A59"/>
<path opacity="0.2" d="M77.0009 23.9399H21.9609V30.3499H77.0009V23.9399Z" fill="black"/>
<path d="M77.38 29.37H21.96C20.88 29.37 20 28.49 20 27.41V24.92C20 23.84 20.87 22.96 21.96 22.96H77.38C78.46 22.96 79.34 23.84 79.34 24.92V27.41C79.34 28.49 78.46 29.37 77.38 29.37Z" fill="#295C6F"/>
<path opacity="0.2" d="M22.0284 25.87H77.3184C77.7384 25.87 78.1184 26 78.4384 26.22V25.87C78.4384 24.82 77.5884 23.97 76.5384 23.97H22.7984C21.7484 23.97 20.8984 24.82 20.8984 25.87V26.22C21.2184 26 21.5984 25.87 22.0284 25.87Z" fill="white"/>
<path d="M37.1784 38.0134L36.4219 38.7701L41.3794 43.7262L42.1358 42.9695L37.1784 38.0134Z" fill="#FD3A0B"/>
<path d="M41.3851 38.0384L36.4297 42.9966L37.1865 43.753L42.1419 38.7948L41.3851 38.0384Z" fill="#FD3A0B"/>
<path d="M50.7958 46.8817L50.0391 47.6382L54.9951 52.5957L55.7518 51.8392L50.7958 46.8817Z" fill="#FD3A0B"/>
<path d="M54.9944 46.8793L50.0391 51.8375L50.7959 52.5939L55.7513 47.6357L54.9944 46.8793Z" fill="#FD3A0B"/>
<path d="M66.7825 40.64C65.0025 40.64 63.5625 39.19 63.5625 37.42C63.5625 35.64 65.0025 34.2 66.7825 34.2C68.5625 34.2 70.0025 35.64 70.0025 37.42C70.0025 39.19 68.5525 40.64 66.7825 40.64ZM66.7825 35.2599C65.5925 35.2599 64.6225 36.2299 64.6225 37.4099C64.6225 38.5999 65.5925 39.5699 66.7825 39.5699C67.9725 39.5699 68.9425 38.5999 68.9425 37.4099C68.9325 36.2299 67.9725 35.2599 66.7825 35.2599Z" fill="#B9D739"/>
<path d="M34.9791 56.26L34.0391 55.76C39.9291 44.66 47.1991 39.58 59.9691 37.64L60.1291 38.69C47.7391 40.58 40.6891 45.51 34.9791 56.26Z" fill="#85BEBF"/>
<path d="M57.8953 42.14L57.2053 41.63L59.7353 38.26L56.1953 35.99L56.6553 35.27L60.9653 38.04L57.8953 42.14Z" fill="#85BEBF"/>
</g>
<defs>
<clipPath id="clip0_591_3711">
<rect width="100" height="100" fill="white"/>
</clipPath>
</defs>
</svg>
