<svg width="402" height="198" viewBox="0 0 402 198" fill="none" xmlns="http://www.w3.org/2000/svg">
<g filter="url(#filter0_d_569_6850)">
<path fill-rule="evenodd" clip-rule="evenodd" d="M36 26C30.4772 26 26 30.4772 26 36V152.483C26 158.005 30.4772 162.483 36 162.483H189.464L198.971 171.211C200.118 172.265 201.882 172.265 203.029 171.211L212.536 162.483H366C371.523 162.483 376 158.005 376 152.483V36C376 30.4772 371.523 26 366 26H36Z" fill="white"/>
<path d="M189.464 162.483L189.803 162.114L189.659 161.983H189.464V162.483ZM198.971 171.211L198.633 171.58L198.633 171.58L198.971 171.211ZM203.029 171.211L203.367 171.58L203.367 171.58L203.029 171.211ZM212.536 162.483V161.983H212.341L212.197 162.114L212.536 162.483ZM26.5 36C26.5 30.7533 30.7533 26.5 36 26.5V25.5C30.201 25.5 25.5 30.201 25.5 36H26.5ZM26.5 152.483V36H25.5V152.483H26.5ZM36 161.983C30.7533 161.983 26.5 157.729 26.5 152.483H25.5C25.5 158.282 30.201 162.983 36 162.983V161.983ZM189.464 161.983H36V162.983H189.464V161.983ZM189.126 162.851L198.633 171.58L199.309 170.843L189.803 162.114L189.126 162.851ZM198.633 171.58C199.972 172.809 202.028 172.809 203.367 171.58L202.691 170.843C201.735 171.721 200.265 171.721 199.309 170.843L198.633 171.58ZM203.367 171.58L212.874 162.851L212.197 162.114L202.691 170.843L203.367 171.58ZM366 161.983H212.536V162.983H366V161.983ZM375.5 152.483C375.5 157.729 371.247 161.983 366 161.983V162.983C371.799 162.983 376.5 158.282 376.5 152.483H375.5ZM375.5 36V152.483H376.5V36H375.5ZM366 26.5C371.247 26.5 375.5 30.7533 375.5 36H376.5C376.5 30.201 371.799 25.5 366 25.5V26.5ZM36 26.5H366V25.5H36V26.5Z" fill="#CEEAFF"/>
</g>
<defs>
<filter id="filter0_d_569_6850" x="0.5" y="0.5" width="401" height="197.001" filterUnits="userSpaceOnUse" color-interpolation-filters="sRGB">
<feFlood flood-opacity="0" result="BackgroundImageFix"/>
<feColorMatrix in="SourceAlpha" type="matrix" values="0 0 0 0 0 0 0 0 0 0 0 0 0 0 0 0 0 0 127 0" result="hardAlpha"/>
<feOffset/>
<feGaussianBlur stdDeviation="12.5"/>
<feComposite in2="hardAlpha" operator="out"/>
<feColorMatrix type="matrix" values="0 0 0 0 0.0203646 0 0 0 0 0.0968386 0 0 0 0 0.2875 0 0 0 0.08 0"/>
<feBlend mode="normal" in2="BackgroundImageFix" result="effect1_dropShadow_569_6850"/>
<feBlend mode="normal" in="SourceGraphic" in2="effect1_dropShadow_569_6850" result="shape"/>
</filter>
</defs>
</svg>
