<svg width="28" height="12" viewBox="0 0 28 12" fill="none" xmlns="http://www.w3.org/2000/svg">
<path d="M26 1.05615H2L11.971 10.2113C13.1185 11.2649 14.8815 11.2649 16.029 10.2113L26 1.05615Z" fill="white"/>
<path d="M26 1.05615L26.3382 1.42445L27.2838 0.556152H26V1.05615ZM2 1.05615V0.556152H0.716158L1.66184 1.42445L2 1.05615ZM11.971 10.2113L11.6328 10.5796L11.6328 10.5796L11.971 10.2113ZM16.029 10.2113L16.3672 10.5796L16.3672 10.5796L16.029 10.2113ZM26 0.556152H2V1.55615H26V0.556152ZM1.66184 1.42445L11.6328 10.5796L12.3092 9.84301L2.33816 0.687853L1.66184 1.42445ZM11.6328 10.5796C12.9716 11.8088 15.0284 11.8088 16.3672 10.5796L15.6908 9.84301C14.7346 10.721 13.2654 10.721 12.3092 9.84301L11.6328 10.5796ZM16.3672 10.5796L26.3382 1.42445L25.6618 0.687853L15.6908 9.84301L16.3672 10.5796Z" fill="#CEEAFF"/>
</svg>
