<svg width="21" height="19" viewBox="0 0 21 19" fill="none" xmlns="http://www.w3.org/2000/svg">
<path d="M17.623 0.5H3.37305C2.67746 0.501979 2.01093 0.779176 1.51908 1.27103C1.02722 1.76289 0.750026 2.42942 0.748047 3.125V12.125C0.750026 12.8206 1.02722 13.4871 1.51908 13.979C2.01093 14.4708 2.67746 14.748 3.37305 14.75H5.24805V18.5L9.64117 14.8372C9.70863 14.7808 9.79374 14.75 9.88164 14.75H17.623C18.3186 14.748 18.9852 14.4708 19.477 13.979C19.9689 13.4871 20.2461 12.8206 20.248 12.125V3.125C20.2461 2.42942 19.9689 1.76289 19.477 1.27103C18.9852 0.779176 18.3186 0.501979 17.623 0.5V0.5Z" stroke="#0049FF" stroke-linejoin="round"/>
</svg>
