<svg width="24" height="25" viewBox="0 0 24 25" fill="none" xmlns="http://www.w3.org/2000/svg">
<path d="M9 21.5H15M18 10.25V11.75C18 15.05 15.3 17.75 12 17.75C8.7 17.75 6 15.05 6 11.75V10.25M12 17.75V21.5" stroke="#161616" stroke-opacity="0.3" stroke-linecap="round" stroke-linejoin="round"/>
<path d="M12 3.50004C11.6055 3.49805 11.2145 3.57429 10.8496 3.72435C10.4848 3.87441 10.1533 4.09531 9.87429 4.37429C9.59531 4.65326 9.37441 4.98477 9.22435 5.34964C9.07429 5.71451 8.99805 6.10552 9.00004 6.50004V11.7032C9.00004 13.3532 10.3594 14.75 12 14.75C13.6407 14.75 15 13.3907 15 11.7032V6.50004C15 4.81254 13.6875 3.50004 12 3.50004Z" stroke="#161616" stroke-opacity="0.3" stroke-linecap="round" stroke-linejoin="round"/>
</svg>
