<svg width="65" height="65" viewBox="0 0 65 65" fill="none" xmlns="http://www.w3.org/2000/svg">
<g clip-path="url(#clip0_147_2037)">
<path d="M74.3031 101.888C90.6594 101.888 103.919 88.6281 103.919 72.2719C103.919 55.9156 90.6594 42.6562 74.3031 42.6562C57.9469 42.6562 44.6875 55.9156 44.6875 72.2719C44.6875 88.6281 57.9469 101.888 74.3031 101.888Z" fill="#0049FF"/>
<path d="M32.7507 41.6678C37.6755 41.6678 41.6679 37.6753 41.6679 32.7506C41.6679 27.8257 37.6755 23.8334 32.7507 23.8334C27.8259 23.8334 23.8335 27.8257 23.8335 32.7506C23.8335 37.6753 27.8259 41.6678 32.7507 41.6678Z" fill="#0049FF"/>
<path d="M11.7 26H6.5V20.8L32.5 6.5L58.5 20.8V26H52M11.7 26V49.4M11.7 26H24.7M11.7 49.4H6.5V57.2H58.5V49.4H52M11.7 49.4H52M52 49.4V26M52 26H39M39 26V49.4H24.7V26M39 26H24.7" stroke="#161616"/>
</g>
<defs>
<clipPath id="clip0_147_2037">
<rect width="65" height="65" fill="white"/>
</clipPath>
</defs>
</svg>
