<svg width="65" height="65" viewBox="0 0 65 65" fill="none" xmlns="http://www.w3.org/2000/svg">
<g clip-path="url(#clip0_147_2048)">
<path d="M74.3031 101.888C90.6594 101.888 103.919 88.6281 103.919 72.2719C103.919 55.9156 90.6594 42.6562 74.3031 42.6562C57.9469 42.6562 44.6875 55.9156 44.6875 72.2719C44.6875 88.6281 57.9469 101.888 74.3031 101.888Z" fill="#0049FF"/>
<path d="M17.0422 30.0219C21.967 30.0219 25.9594 26.0295 25.9594 21.1047C25.9594 16.1799 21.967 12.1875 17.0422 12.1875C12.1174 12.1875 8.125 16.1799 8.125 21.1047C8.125 26.0295 12.1174 30.0219 17.0422 30.0219Z" fill="#0049FF"/>
<path d="M32.9062 36.8334C41.8809 36.8334 49.1562 29.558 49.1562 20.5834C49.1562 11.6087 41.8809 4.33337 32.9062 4.33337C23.9316 4.33337 16.6562 11.6087 16.6562 20.5834C16.6562 29.558 23.9316 36.8334 32.9062 36.8334Z" stroke="#161616" stroke-linecap="round" stroke-linejoin="round"/>
<path d="M18.6431 29.1935L6.5 51.0523L17.5271 50.9989C17.8805 50.9972 18.2281 51.0876 18.5358 51.2612C18.8435 51.4349 19.1006 51.6858 19.2816 51.9892L24.7812 61.2085L35.995 36.539" stroke="#161616" stroke-linecap="round" stroke-linejoin="round"/>
<path d="M46.9396 28.7084L59.3125 51.0521L48.2854 50.9988C47.932 50.997 47.5844 51.0874 47.2767 51.2611C46.969 51.4347 46.7119 51.6857 46.5309 51.989L41.0312 61.2084L32.9062 43.3334" stroke="#161616" stroke-linecap="round" stroke-linejoin="round"/>
<path d="M32.9062 28.7084C37.3936 28.7084 41.0312 25.0707 41.0312 20.5834C41.0312 16.0961 37.3936 12.4584 32.9062 12.4584C28.4189 12.4584 24.7812 16.0961 24.7812 20.5834C24.7812 25.0707 28.4189 28.7084 32.9062 28.7084Z" stroke="#161616" stroke-linecap="round" stroke-linejoin="round"/>
</g>
<defs>
<clipPath id="clip0_147_2048">
<rect width="65" height="65" fill="white"/>
</clipPath>
</defs>
</svg>
