<svg width="65" height="65" viewBox="0 0 65 65" fill="none" xmlns="http://www.w3.org/2000/svg">
<g clip-path="url(#clip0_147_2059)">
<path d="M74.3031 101.888C90.6594 101.888 103.919 88.6281 103.919 72.2719C103.919 55.9156 90.6594 42.6562 74.3031 42.6562C57.9469 42.6562 44.6875 55.9156 44.6875 72.2719C44.6875 88.6281 57.9469 101.888 74.3031 101.888Z" fill="#0049FF"/>
<path d="M32.7507 41.6678C37.6755 41.6678 41.6679 37.6753 41.6679 32.7506C41.6679 27.8257 37.6755 23.8334 32.7507 23.8334C27.8259 23.8334 23.8335 27.8257 23.8335 32.7506C23.8335 37.6753 27.8259 41.6678 32.7507 41.6678Z" fill="#0049FF"/>
<path d="M32.912 10.645C33.5798 10.59 34.2548 10.5625 34.9369 10.5625C48.394 10.5625 59.3119 21.4805 59.3119 34.9375C59.3119 48.3945 48.394 59.3125 34.9369 59.3125C29.7731 59.3123 24.7426 57.6729 20.5702 54.6305C16.3978 51.5881 13.2988 47.2998 11.7197 42.3833" stroke="#161616" stroke-miterlimit="10" stroke-linecap="round"/>
<path d="M32.9063 6.5C18.3219 6.5 6.50003 18.3219 6.50003 32.9062C6.49449 36.6251 7.27721 40.3029 8.79661 43.6973L32.9063 32.9062V6.5Z" stroke="#161616" stroke-linecap="round" stroke-linejoin="round"/>
</g>
<defs>
<clipPath id="clip0_147_2059">
<rect width="65" height="65" fill="white"/>
</clipPath>
</defs>
</svg>
