<svg width="1728" height="503" viewBox="0 0 1728 503" fill="none" xmlns="http://www.w3.org/2000/svg">
<path d="M1137.92 -185.493C1127.99 -148.857 1115.49 -112.73 1100.53 -77.3691C1093.88 -61.6515 1086.5 -45.7354 1073.67 -33.1783C1040.85 -1.07691 983.422 -0.0706489 934.41 -7.05784C889.268 -13.4781 845.016 -24.5471 802.904 -39.9387C761.172 -55.1887 720.806 -74.8747 676.076 -81.3375C631.363 -87.8003 579.337 -77.4116 555.243 -44.3465C540.915 -24.6746 538.626 0.212812 544.225 22.9318C549.825 45.6366 562.671 66.5415 576.916 86.2559C593.237 108.833 612.176 131.68 614.63 158.183C617.167 185.621 599.545 213.669 571.498 226.878C531.593 245.672 482.73 233.88 437.983 226.864C381.132 217.935 320.147 218.02 268.204 239.818C216.261 261.63 176.109 309.01 181.445 358.544" stroke="#0049FF" stroke-miterlimit="10"/>
<path d="M1127.83 -192.906C1118.14 -157.091 1105.86 -121.801 1091.1 -87.3042C1084.53 -71.9693 1077.25 -56.45 1064.73 -44.1622C1032.77 -12.7269 977.201 -10.9979 929.54 -16.9788C918.226 -18.3961 906.961 -20.1251 895.762 -22.1377C863.532 -27.9485 831.895 -36.1971 801.345 -46.77C760.567 -60.9003 721.042 -79.3391 677.333 -85.2633C633.641 -91.2017 584.349 -80.3595 558.904 -49.6329C549.352 -38.0679 542.814 -25.61 540.047 -12.16C538.153 -3.00439 537.741 6.50555 538.861 15.9588C539.372 20.2815 540.162 24.6042 541.249 28.9411C545.63 46.2886 554.935 63.2676 565.129 79.4105C566.134 81.012 567.155 82.5993 568.193 84.2009C584.135 108.975 600.966 134.302 601.888 161.995C602.778 188.669 586.407 215.809 559.085 228.82C520.218 247.344 472.804 236.729 429.49 230.819C426.081 230.351 422.656 229.926 419.214 229.529C367.237 223.548 312.89 225.986 266.513 246.621C217.073 268.617 179.309 314.977 185.287 363.107" stroke="#0049FF" stroke-miterlimit="10"/>
<path d="M1117.73 -200.318C1108.31 -165.326 1096.23 -130.857 1081.65 -97.2254C1075.16 -82.2731 1067.98 -67.1649 1055.79 -55.118C1024.67 -24.3488 970.962 -21.8828 924.651 -26.8858C913.65 -28.0763 902.698 -29.5503 891.812 -31.3077C860.455 -36.3957 829.625 -43.8648 799.783 -53.5873C759.961 -66.5838 721.275 -83.7754 678.604 -89.1752C635.949 -94.5893 589.078 -83.3502 562.579 -54.8912C551.891 -43.4113 543.146 -32.1014 538.485 -19.0482C535.307 -10.1477 533.511 -0.694431 533.462 9.01394C533.429 13.45 533.742 17.9712 534.434 22.549C537.201 40.8886 546.456 59.4408 556.453 76.9584C557.441 78.7016 558.446 80.4307 559.45 82.1598C575.013 109.131 589.786 136.824 589.144 165.836C588.567 191.701 573.284 217.964 546.687 230.804C508.841 249.073 462.876 239.634 421.028 234.815C417.734 234.432 414.424 234.092 411.097 233.78C360.916 229.103 308.89 232.632 264.868 253.452C217.932 275.647 182.54 320.972 189.177 367.685" stroke="#0049FF" stroke-miterlimit="10"/>
<path d="M1107.66 -207.731C1098.49 -173.546 1086.61 -139.928 1072.24 -107.146C1065.85 -92.5767 1058.73 -77.8653 1046.87 -66.0877C1016.59 -35.9847 964.742 -32.7958 919.798 -36.7925C909.126 -37.7421 898.487 -38.9751 887.898 -40.4916C857.414 -44.8569 827.374 -51.5322 798.257 -60.4186C759.39 -72.2812 721.544 -88.2398 679.894 -93.1153C638.26 -97.9907 593.547 -86.4257 566.257 -60.1777C554.383 -48.7544 543.514 -38.6208 536.959 -25.9503C532.496 -17.3191 529.317 -7.90838 528.115 2.0551C527.555 6.61875 527.374 11.3099 527.654 16.1429C528.79 35.4746 537.997 55.5858 547.812 74.5065C548.784 76.3773 549.755 78.2481 550.744 80.1189C565.945 109.287 578.692 139.248 576.419 169.663C574.541 194.678 560.164 220.118 534.291 232.76C497.483 250.759 452.95 242.497 412.552 238.783C409.373 238.486 406.178 238.231 402.967 238.004C354.564 234.617 304.877 239.251 263.194 260.269C218.744 282.662 185.757 326.952 193.053 372.263" stroke="#0049FF" stroke-miterlimit="10"/>
<path d="M1097.58 -215.129C1088.67 -181.766 1077.01 -148.984 1062.8 -117.067C1056.49 -102.88 1049.48 -88.5799 1037.95 -77.0433C1008.5 -47.5922 958.518 -43.6805 914.941 -46.6993C904.582 -47.4079 894.256 -48.4 883.979 -49.6614C854.367 -53.3038 825.135 -59.1997 796.742 -67.2357C758.831 -77.9787 721.825 -92.6759 681.196 -97.0269C640.583 -101.378 597.78 -89.572 569.964 -65.4499C556.821 -54.055 543.893 -45.112 535.461 -32.8383C529.68 -24.4763 525.135 -15.1081 522.763 -4.9037C521.66 -0.226671 521.001 4.64878 520.869 9.73681C520.392 30.0606 529.532 51.745 539.15 72.0404C540.105 74.053 541.061 76.0655 542.016 78.0781C556.838 109.457 567.642 141.615 563.673 173.504C560.675 197.64 547.022 222.272 521.874 234.73C486.103 252.46 443.02 245.374 404.055 242.766C400.991 242.568 397.912 242.383 394.815 242.242C348.192 240.158 300.843 245.898 261.499 267.087C219.552 289.664 188.953 332.933 196.891 376.841" stroke="#0049FF" stroke-miterlimit="10"/>
<path d="M1087.5 -222.541C1078.84 -190 1067.39 -158.055 1053.38 -126.988C1047.15 -113.184 1040.22 -99.2801 1029.02 -88.0128C1000.41 -59.2278 952.29 -54.5791 910.064 -56.6058C900.034 -57.0877 890.021 -57.8247 880.041 -58.8451C851.302 -61.7647 822.86 -66.8669 795.192 -74.0667C758.236 -83.6759 722.07 -97.1401 682.462 -100.953C642.887 -104.779 601.747 -92.8457 573.634 -70.7219C559.174 -59.3412 544.237 -51.617 533.911 -39.726C526.846 -31.6192 520.9 -22.3218 517.376 -11.8481C515.746 -7.05771 514.593 -1.99802 514.049 3.34513C511.958 24.661 521.049 47.9044 530.469 69.603C531.408 71.7431 532.33 73.8973 533.269 76.0516C547.712 109.627 556.655 143.939 550.923 177.345C546.938 200.574 533.878 224.441 509.471 236.7C474.738 254.161 433.087 248.251 395.587 246.749C392.623 246.635 389.675 246.55 386.711 246.494C341.882 245.7 296.856 252.546 259.85 273.918C220.406 296.694 192.178 338.929 200.775 381.433" stroke="#0049FF" stroke-miterlimit="10"/>
<path d="M1077.42 -229.954C1069.02 -198.235 1057.78 -167.111 1043.94 -136.909C1037.8 -123.488 1030.96 -109.981 1020.09 -98.9686C992.328 -70.8497 946.083 -65.4782 905.207 -66.5128C895.49 -66.7538 885.79 -67.264 876.122 -68.0152C848.257 -70.2119 820.622 -74.5346 793.662 -80.8841C757.661 -89.3594 722.335 -101.576 683.748 -104.864C645.194 -108.167 605.553 -96.2049 577.308 -75.9803C561.449 -64.6279 544.601 -58.1084 532.381 -46.6001C524.014 -38.7625 516.702 -29.5077 512.008 -18.793C509.835 -13.8751 508.204 -8.64526 507.265 -3.04701C503.56 19.261 512.585 44.0634 521.824 67.1509C522.746 69.4327 523.652 71.7287 524.558 74.0105C538.639 109.783 545.786 146.207 538.194 181.185C533.352 203.507 520.754 226.609 497.071 238.684C463.359 255.89 423.158 251.142 387.107 250.745C384.258 250.717 381.425 250.717 378.576 250.745C335.526 251.256 292.839 259.192 258.188 280.749C221.248 303.723 195.408 344.924 204.663 386.025" stroke="#0049FF" stroke-miterlimit="10"/>
<path d="M1067.34 -237.366C1059.18 -206.469 1048.15 -176.182 1034.51 -146.844C1028.45 -133.805 1021.72 -120.71 1011.16 -109.952C984.25 -82.4998 939.85 -76.3913 900.341 -76.448C890.953 -76.448 881.566 -76.7172 872.195 -77.2275C845.202 -78.7014 818.374 -82.2305 792.122 -87.7437C757.076 -95.071 722.59 -106.041 685.008 -108.804C647.491 -111.582 604.919 -103.716 580.973 -81.2809C561.605 -72.7914 544.939 -64.6279 530.825 -53.5164C521.174 -45.9481 512.462 -36.7358 506.615 -25.766C503.914 -20.7347 501.79 -15.3207 500.439 -9.46731C495.12 13.8328 504.079 40.2084 513.12 64.6848C514.01 67.1083 514.899 69.5319 515.788 71.9554C529.491 109.924 534.958 148.446 525.406 184.998C519.807 206.427 507.57 228.735 484.613 240.626C451.938 257.562 413.17 253.991 378.568 254.7C375.835 254.756 373.117 254.841 370.383 254.955C329.128 256.755 288.746 265.797 256.451 287.538C222.014 310.696 198.545 350.876 208.46 390.574" stroke="#0049FF" stroke-miterlimit="10"/>
<path d="M1057.25 -244.778C1049.36 -214.704 1038.53 -185.253 1025.07 -156.765C1019.09 -144.109 1012.44 -131.41 1002.23 -120.908C976.16 -94.1214 933.62 -87.2901 895.462 -86.3405C886.387 -86.1138 877.313 -86.128 868.255 -86.3831C842.135 -87.1342 816.097 -89.8837 790.57 -94.5466C756.479 -100.768 722.833 -110.491 686.288 -112.73C649.793 -114.97 608.587 -107.472 584.658 -86.5531C563.742 -78.5313 545.313 -71.1331 529.305 -60.4185C518.354 -53.1053 508.275 -43.9497 501.259 -32.739C498.014 -27.5943 495.412 -21.9818 493.65 -15.8875C486.717 8.40466 495.626 36.3393 504.47 62.2046C505.343 64.7557 506.216 67.321 507.072 69.9005C520.396 110.08 524.282 150.671 512.672 188.824C506.43 209.347 494.441 230.889 472.224 242.582C440.587 259.249 403.268 256.854 370.116 258.668C367.497 258.81 364.895 258.98 362.277 259.192C322.8 262.296 284.757 272.43 254.8 294.369C222.85 317.726 201.786 356.871 212.342 395.166" stroke="#0049FF" stroke-miterlimit="10"/>
<path d="M1047.17 -252.191C1039.55 -222.938 1028.91 -194.323 1015.65 -166.686C1009.75 -154.398 1003.2 -142.111 993.3 -131.878C968.07 -105.743 927.391 -98.189 890.599 -96.2615C881.854 -95.7938 873.093 -95.567 864.331 -95.5812C839.084 -95.6095 813.853 -97.5654 789.035 -101.378C755.899 -106.466 723.093 -114.955 687.569 -116.656C652.095 -118.371 612.239 -111.228 588.326 -91.8254C565.863 -84.2571 545.655 -77.6384 527.77 -67.3065C515.533 -60.2626 504.054 -51.1636 495.886 -39.6837C492.114 -34.4114 489.018 -28.6289 486.861 -22.2795C478.313 3.00482 487.157 32.4984 495.82 59.7669C496.676 62.4597 497.533 65.1667 498.356 67.8737C511.317 110.25 513.738 152.939 499.954 192.665C493.135 212.309 481.327 233.044 459.835 244.552C429.236 260.95 393.349 259.731 361.647 262.651C359.143 262.877 356.656 263.147 354.153 263.43C316.472 267.824 280.751 279.063 253.132 301.186C223.685 324.727 205.01 362.838 216.225 399.744" stroke="#0049FF" stroke-miterlimit="10"/>
<path d="M1037.11 -259.603C1029.73 -231.158 1019.3 -203.38 1006.23 -176.622C1000.41 -164.716 993.956 -152.84 984.388 -142.848C959.997 -117.379 921.179 -109.088 885.738 -106.169C877.306 -105.474 868.857 -104.992 860.409 -104.751C836.035 -104.043 811.611 -105.233 787.5 -108.195C755.336 -112.164 723.353 -119.392 688.851 -120.568C654.414 -121.759 615.893 -114.97 592.013 -97.0979C568.001 -89.9832 546.031 -84.1298 526.236 -74.1947C512.698 -67.4201 499.852 -58.3636 490.514 -46.6427C486.199 -41.2571 482.625 -35.2903 480.056 -28.6858C469.895 -2.40942 478.673 28.6574 487.138 57.3006C487.978 60.1352 488.801 62.9697 489.608 65.8184C502.191 110.392 503.278 155.206 487.187 196.492C479.875 215.256 468.166 235.198 447.415 246.522C417.836 262.665 383.4 262.622 353.146 266.633C350.758 266.945 348.386 267.299 345.998 267.668C310.096 273.365 276.713 285.709 251.45 308.003C224.506 331.743 208.202 368.819 220.076 404.322" stroke="#0049FF" stroke-miterlimit="10"/>
<path d="M1027 -267.015C1019.88 -239.393 1009.65 -212.45 996.775 -186.542C991.044 -175.02 984.671 -163.54 975.431 -153.817C951.881 -129.015 914.941 -120.001 880.85 -116.089C872.747 -115.154 864.611 -114.431 856.443 -113.949C832.958 -112.518 809.341 -112.914 785.955 -115.026C754.746 -117.861 723.603 -123.856 690.122 -124.494C656.706 -125.16 619.535 -118.74 595.672 -102.384C570.112 -95.737 546.364 -90.649 524.69 -81.0966C509.852 -74.5771 495.622 -65.5773 485.132 -53.6013C480.29 -48.0881 476.222 -41.9513 473.241 -35.0916C461.466 -7.82316 470.194 24.8026 478.462 54.849C479.285 57.8111 480.092 60.8016 480.866 63.792C493.07 110.562 492.954 157.545 474.427 200.333C466.67 218.247 455.01 237.352 434.983 248.492C406.443 264.366 373.455 265.499 344.651 270.616C342.378 271.027 340.122 271.452 337.865 271.92C303.758 278.907 272.697 292.357 249.773 314.835C225.333 338.773 211.416 374.814 223.933 408.914" stroke="#0049FF" stroke-miterlimit="10"/>
<path d="M1016.92 -274.428C1010.05 -247.627 1000.04 -221.521 987.341 -196.463C981.692 -185.323 975.417 -174.254 966.508 -164.773C943.797 -140.636 908.718 -130.886 875.994 -125.996C868.204 -124.82 860.381 -123.87 852.525 -123.119C829.897 -120.965 807.071 -120.582 784.393 -121.858C754.139 -123.558 723.836 -128.306 691.376 -128.42C658.998 -128.561 623.178 -122.495 599.33 -107.642C572.222 -101.449 546.695 -97.1401 523.128 -87.9703C507.005 -81.7201 491.392 -72.7629 479.732 -60.5318C474.347 -54.9052 469.801 -48.5841 466.425 -41.4694C453.036 -13.2088 461.699 20.9902 469.785 52.4113C470.592 55.5151 471.366 58.6331 472.123 61.7653C483.965 110.747 482.779 159.94 461.682 204.188C453.53 221.266 441.87 239.535 422.568 250.476C395.065 266.08 363.51 268.391 336.155 274.613C333.998 275.109 331.857 275.619 329.716 276.171C297.387 284.463 268.665 299.004 248.079 321.666C226.142 345.788 214.597 380.809 227.789 413.492" stroke="#0049FF" stroke-miterlimit="10"/>
<path d="M1006.83 -281.84C1000.23 -255.862 990.415 -230.591 977.915 -206.399C972.348 -195.641 966.156 -184.969 957.575 -175.757C935.721 -152.287 902.486 -141.813 871.129 -135.917C863.669 -134.514 856.159 -133.309 848.6 -132.317C826.844 -129.44 804.808 -128.278 782.855 -128.703C753.557 -129.284 724.094 -132.785 692.654 -132.374C661.297 -131.977 629.166 -122.538 603.013 -112.957C575.938 -103.036 547.068 -103.674 521.607 -94.9152C504.183 -88.9343 487.187 -80.0338 474.374 -67.5476C468.461 -61.8076 463.422 -55.2881 459.634 -47.9324C444.631 -18.6797 453.227 17.0783 461.116 49.8883C461.89 53.1339 462.664 56.3936 463.389 59.6534C474.851 110.831 472.76 162.321 448.929 207.958C440.431 224.228 428.722 241.618 410.161 252.375C383.679 267.71 353.573 271.197 327.684 278.524C325.642 279.105 323.616 279.7 321.59 280.338C291.04 289.919 264.657 305.566 246.409 328.412C226.959 352.733 217.819 386.719 231.653 417.999" stroke="#0049FF" stroke-miterlimit="10"/>
<path d="M996.754 -289.238C990.397 -264.082 980.812 -239.648 968.477 -216.305C962.993 -205.931 956.899 -195.655 948.648 -186.698C927.634 -163.88 896.26 -152.683 866.254 -145.81C859.123 -144.165 851.909 -142.72 844.663 -141.473C823.78 -137.873 802.552 -135.917 781.306 -135.506C752.963 -134.953 724.34 -137.207 693.922 -136.271C663.602 -135.35 632.377 -126.563 606.685 -118.201C577.881 -108.833 547.43 -110.165 520.075 -101.775C501.366 -96.063 482.986 -87.205 469.004 -74.4778C462.548 -68.6103 457.031 -61.9207 452.832 -54.3099C436.198 -24.0652 444.762 13.2518 452.453 47.465C453.21 50.8381 453.951 54.2396 454.66 57.6552C465.743 111.03 462.911 164.901 436.181 211.827C427.354 227.318 415.579 243.815 397.743 254.388C372.298 269.468 343.642 274.116 319.185 282.549C317.258 283.215 315.348 283.91 313.438 284.618C284.683 295.503 260.605 312.241 244.729 335.286C227.782 359.805 221.03 392.757 235.506 422.633" stroke="#0049FF" stroke-miterlimit="10"/>
<path d="M986.677 -296.651C980.584 -272.316 971.197 -248.704 959.059 -226.226C953.657 -216.234 947.662 -206.37 939.724 -197.668C919.55 -175.516 890.037 -163.582 861.397 -155.716C854.579 -153.831 847.695 -152.145 840.745 -150.657C820.735 -146.334 800.314 -143.599 779.793 -142.337C752.405 -140.651 724.622 -141.671 695.225 -140.197C665.926 -138.751 635.656 -130.687 610.376 -123.473C579.777 -114.743 547.794 -116.656 518.545 -108.663C498.535 -103.22 478.772 -94.4189 463.637 -81.4366C456.654 -75.4557 450.643 -68.5819 446.032 -60.716C427.784 -29.4791 436.282 9.41105 443.792 44.999C444.533 48.5138 445.258 52.0428 445.933 55.6002C456.654 111.172 453.229 167.537 423.453 215.654C414.329 230.379 402.455 245.969 385.343 256.344C360.936 271.154 333.713 276.979 310.706 286.518C308.894 287.269 307.099 288.048 305.304 288.856C278.328 301.031 256.589 318.874 243.051 342.103C228.608 366.807 224.227 398.738 239.378 427.211" stroke="#0049FF" stroke-miterlimit="10"/>
<path d="M976.602 -304.063C970.772 -280.551 961.583 -257.775 949.626 -236.161C944.307 -226.552 938.394 -217.085 930.802 -208.638C911.467 -187.152 883.832 -174.495 856.543 -165.637C850.054 -163.526 843.467 -161.584 836.83 -159.841C817.693 -154.795 798.062 -151.266 778.266 -149.169C751.833 -146.362 724.906 -146.122 696.513 -144.123C668.236 -142.153 638.938 -134.868 614.069 -128.76C581.675 -120.809 548.144 -123.162 517.017 -115.565C495.723 -110.378 474.577 -101.633 458.272 -88.3957C450.746 -82.3014 444.257 -75.2433 439.251 -67.1223C419.389 -34.8933 427.821 5.55582 435.133 42.5468C435.858 46.2034 436.55 49.8742 437.208 53.5591C447.551 111.342 443.73 170.315 410.71 219.48C401.306 233.483 389.317 248.109 372.946 258.299C349.577 272.841 323.786 279.842 302.245 290.486C300.548 291.322 298.869 292.187 297.189 293.08C272.008 306.558 252.591 325.493 241.392 348.906C229.452 373.808 227.459 404.704 243.253 431.775" stroke="#0049FF" stroke-miterlimit="10"/>
<path d="M966.511 -311.476C960.928 -288.771 951.953 -266.845 940.194 -246.082C934.973 -236.856 929.143 -227.785 921.864 -219.607C903.369 -198.788 877.595 -185.394 851.656 -175.558C845.48 -173.206 839.222 -171.037 832.882 -169.039C814.617 -163.271 795.793 -158.962 776.706 -156C751.228 -152.06 725.141 -150.586 697.77 -148.049C670.53 -145.555 642.22 -139.092 617.73 -134.032C583.557 -126.988 548.494 -129.667 515.474 -122.453C492.878 -117.535 470.349 -108.833 452.891 -95.3403C444.855 -89.1326 437.872 -81.8903 432.453 -73.5284C410.978 -40.3073 419.344 1.71505 426.475 40.0808C427.183 43.865 427.859 47.6774 428.484 51.5041C438.465 111.498 434.413 173.234 397.984 223.321C388.316 236.615 376.195 250.278 360.55 260.27C338.201 274.556 313.876 282.719 293.768 294.469C292.187 295.39 290.622 296.339 289.074 297.317C265.671 312.085 248.593 332.14 239.733 355.723C230.296 380.823 230.675 410.686 247.127 436.352" stroke="#0049FF" stroke-miterlimit="10"/>
<path d="M956.43 -318.888C951.11 -297.005 942.332 -275.916 930.755 -256.018C925.616 -247.174 919.868 -238.514 912.935 -230.577C895.28 -210.424 871.367 -196.308 846.795 -185.465C840.949 -182.886 834.987 -180.462 828.959 -178.209C811.568 -171.718 793.551 -166.616 775.172 -162.817C750.649 -157.743 725.402 -155.022 699.052 -151.975C672.833 -148.942 645.593 -143.358 621.4 -139.305C585.448 -133.295 548.854 -136.172 513.94 -129.355C490.06 -124.692 466.146 -116.047 447.536 -102.299C438.94 -95.9642 431.479 -88.5518 425.649 -79.9205C402.56 -45.7216 410.876 -2.12604 417.81 37.6428C418.502 41.5687 419.144 45.5229 419.77 49.4913C429.371 111.667 425.27 176.338 385.251 227.162C375.303 239.79 363.083 252.432 348.146 262.253C326.835 276.27 303.943 285.624 285.283 298.465C283.818 299.485 282.352 300.52 280.936 301.583C259.328 317.655 244.572 338.801 238.067 362.569C231.117 387.853 233.9 416.694 251.011 440.958" stroke="#0049FF" stroke-miterlimit="10"/>
<path d="M946.354 -326.3C941.281 -305.24 932.717 -284.972 921.337 -265.938C916.281 -257.477 910.632 -249.214 904.012 -241.547C887.213 -222.045 865.145 -207.206 841.94 -195.386C836.406 -192.566 830.774 -189.901 825.043 -187.407C808.524 -180.193 791.298 -174.311 773.643 -169.662C750.076 -163.469 725.669 -159.501 700.339 -155.915C675.158 -152.357 649.038 -147.666 625.092 -144.605C587.411 -139.786 549.219 -142.692 512.427 -136.271C487.23 -131.864 461.933 -123.261 442.154 -109.258C433.03 -102.809 425.092 -95.2127 418.85 -86.3406C394.147 -51.1495 402.398 -5.99495 409.134 35.1629C409.792 39.2305 410.435 43.3122 411.028 47.4224C420.25 111.795 416.281 179.57 372.49 230.974C362.279 242.965 349.927 254.572 335.731 264.195C315.458 277.943 293.999 288.473 276.805 302.419C275.454 303.525 274.12 304.645 272.803 305.793C252.974 323.154 240.557 345.406 236.39 369.372C231.943 394.854 237.115 422.647 254.868 445.522" stroke="#0049FF" stroke-miterlimit="10"/>
<path d="M936.269 -333.713C931.46 -313.474 923.094 -294.043 911.895 -275.859C906.921 -267.781 901.371 -259.929 895.08 -252.503C879.121 -233.667 858.914 -218.091 837.059 -205.279C831.855 -202.218 826.519 -199.312 821.101 -196.563C805.455 -188.626 789.036 -181.965 772.089 -176.466C749.477 -169.138 725.91 -163.923 701.601 -159.813C677.441 -155.731 652.507 -151.961 628.759 -149.849C589.365 -146.348 549.576 -149.169 510.874 -143.131C484.391 -139.007 457.711 -130.447 436.779 -116.203C427.128 -109.655 418.68 -101.86 412.043 -92.7327C385.725 -56.5496 393.91 -9.82184 400.465 32.7249C401.107 36.9201 401.717 41.1436 402.293 45.3954C411.154 111.979 407.464 183.042 359.737 234.815C349.23 246.21 336.779 256.726 323.308 266.165C304.072 279.644 284.062 291.35 268.301 306.402C267.066 307.592 265.831 308.797 264.645 310.03C246.611 328.696 236.516 352.038 234.688 376.189C232.744 401.87 240.287 428.628 258.7 450.1" stroke="#0049FF" stroke-miterlimit="10"/>
<path d="M926.179 -341.125C913.234 -285.95 871.254 -237.437 817.17 -205.761C763.086 -174.084 697.737 -158.423 632.437 -155.149C591.396 -153.094 549.927 -155.702 509.347 -150.047C468.768 -144.392 427.578 -128.859 405.246 -99.1386C377.315 -61.9633 385.451 -13.6765 391.808 30.2591C402.266 102.512 402.117 183.396 346.995 238.642C319.542 266.165 280.708 284.562 256.515 314.268C222.984 355.44 225.586 415.745 262.575 454.664" stroke="#0049FF" stroke-miterlimit="10"/>
<path d="M583.281 605.448C608.891 574.948 636.624 545.78 666.285 518.129C679.477 505.841 693.41 493.61 710.9 486.297C755.58 467.589 808.989 485.744 851.084 508.477C889.852 529.411 925.705 554.312 957.639 582.502C989.292 610.437 1017.7 642.014 1056.04 662.833C1094.4 683.653 1147.03 691.349 1184.09 668.871C1206.14 655.492 1219.41 633.283 1224.44 610.479C1229.46 587.661 1226.99 564.12 1222.69 541.202C1217.77 514.954 1210.54 487.587 1220.17 462.331C1230.14 436.182 1258.97 416.156 1290.77 413.293C1336.02 409.225 1375.8 436.324 1413.93 457.682C1462.37 484.809 1518.66 505.005 1576.36 502.142C1634.06 499.293 1692.36 468.921 1709.66 421.456" stroke="#0049FF" stroke-miterlimit="10"/>
<path d="M589.266 615.638C614.397 585.634 641.785 557.033 671.117 530.048C684.16 518.058 697.945 506.139 715.122 498.939C749.625 484.483 789.348 491.824 824.954 506.068C834.654 509.937 844.058 514.331 852.968 518.923C891.275 538.694 926.815 562.433 958.633 589.432C990.155 616.191 1018.43 646.719 1056.39 666.773C1077.67 678.012 1102.89 685.708 1127.7 687.097C1149.33 688.302 1170.79 684.589 1188.74 674.03C1191.95 672.145 1194.98 670.076 1197.83 667.851C1215.43 654.089 1226.12 634.304 1230.8 614.051C1232.3 607.545 1233.24 600.983 1233.75 594.393C1235.07 577.201 1233.52 559.811 1231.23 542.818C1227.62 515.847 1222.83 488.239 1233.67 463.039C1244.44 438.01 1272.09 418.551 1303.13 415.617C1347.3 411.45 1386.28 436.99 1423.57 456.846C1426.5 458.405 1429.48 459.95 1432.46 461.452C1477.72 484.242 1528.96 500.045 1580.98 496.416C1636.47 492.547 1692.1 462.345 1708.17 415.957" stroke="#0049FF" stroke-miterlimit="10"/>
<path d="M595.227 625.828C619.897 596.321 646.906 568.301 675.941 541.968C688.837 530.261 702.489 518.668 719.354 511.581C753.231 497.352 792.163 503.985 827.193 517.293C836.745 520.907 846.017 525.031 854.828 529.354C892.674 547.977 927.918 570.54 959.604 596.349C990.994 621.931 1019.17 651.382 1056.71 670.7C1078.79 682.066 1104.66 690.088 1130.26 691.817C1152.49 693.305 1174.74 689.819 1193.35 679.189C1196.68 677.29 1199.84 675.192 1202.82 672.91C1221.17 658.894 1232.12 638.499 1237.16 617.608C1238.77 610.904 1239.82 604.144 1240.47 597.384C1242.15 579.724 1241.22 561.824 1239.74 544.42C1237.47 516.74 1235.05 488.905 1247.14 463.72C1258.62 439.81 1285.16 420.904 1315.45 417.899C1358.55 413.633 1396.73 437.614 1433.17 455.967C1436.04 457.413 1438.95 458.83 1441.87 460.219C1486.05 481.223 1535.63 495.24 1585.59 490.662C1638.85 485.787 1691.83 455.741 1706.67 410.43" stroke="#0049FF" stroke-miterlimit="10"/>
<path d="M601.203 636.005C625.413 607.007 652.06 579.554 680.765 553.873C693.529 542.464 707.017 531.182 723.585 524.224C756.852 510.235 794.978 516.145 829.448 528.532C838.868 531.905 848.008 535.746 856.72 539.8C894.105 557.26 929.052 578.647 960.607 603.279C991.865 627.685 1019.98 656.045 1057.07 674.64C1079.97 686.12 1106.49 694.481 1132.84 696.551C1155.68 698.322 1178.74 695.048 1198.01 684.348C1201.47 682.435 1204.74 680.309 1207.84 677.984C1226.91 663.698 1238.13 642.708 1243.53 621.18C1245.26 614.292 1246.43 607.333 1247.22 600.388C1249.26 582.247 1248.95 563.865 1248.29 546.036C1247.33 517.633 1247.25 489.628 1260.64 464.429C1272.74 441.639 1298.27 423.299 1327.82 420.224C1369.85 415.858 1407.21 438.28 1442.82 455.131C1445.62 456.463 1448.45 457.767 1451.32 459.029C1494.45 478.233 1542.36 490.464 1590.23 484.937C1641.27 479.055 1691.59 449.164 1705.19 404.931" stroke="#0049FF" stroke-miterlimit="10"/>
<path d="M607.18 646.195C630.912 617.693 657.213 590.807 685.605 565.778C698.221 554.652 711.56 543.711 727.815 536.851C760.457 523.104 797.792 528.291 831.702 539.757C840.974 542.875 849.999 546.446 858.596 550.231C895.52 566.543 930.17 586.754 961.593 610.196C992.703 633.425 1020.77 660.665 1057.39 678.565C1081.13 690.159 1108.28 698.847 1135.39 701.27C1158.84 703.339 1182.69 700.278 1202.62 689.492C1206.19 687.565 1209.6 685.411 1212.81 683.044C1232.62 668.488 1244.1 646.889 1249.85 624.723C1251.68 617.636 1252.98 610.493 1253.9 603.364C1256.32 584.755 1256.6 565.877 1256.75 547.623C1257.11 518.498 1259.32 490.35 1274.04 465.109C1286.71 443.424 1311.3 425.652 1340.07 422.519C1381.03 418.055 1417.59 438.903 1452.35 454.266C1455.09 455.471 1457.85 456.662 1460.64 457.81C1502.7 475.228 1548.96 485.673 1594.76 479.196C1643.58 472.308 1691.24 442.574 1703.61 399.418" stroke="#0049FF" stroke-miterlimit="10"/>
<path d="M613.156 656.385C636.427 628.379 662.366 602.075 690.445 577.697C702.912 566.869 716.104 556.24 732.063 549.508C764.095 536.001 800.623 540.465 833.973 551.01C843.097 553.873 851.99 557.175 860.488 560.704C896.951 575.855 931.289 594.903 962.58 617.155C993.558 639.193 1021.57 665.314 1057.72 682.52C1082.28 694.212 1110.08 703.254 1137.94 706.018C1162 708.371 1186.64 705.536 1207.24 694.68C1210.95 692.738 1214.47 690.555 1217.82 688.146C1238.37 673.336 1250.1 651.127 1256.22 628.323C1258.17 621.052 1259.58 613.696 1260.65 606.397C1263.44 587.321 1264.29 567.932 1265.3 549.253C1266.91 519.405 1271.42 491.116 1287.55 465.832C1300.69 445.253 1324.4 428.061 1352.42 424.844C1392.31 420.28 1428.06 439.569 1461.99 453.43C1464.65 454.522 1467.36 455.585 1470.07 456.619C1511.06 472.252 1555.68 480.897 1599.39 473.471C1646 465.576 1690.97 435.984 1702.12 393.919" stroke="#0049FF" stroke-miterlimit="10"/>
<path d="M619.141 666.575C641.95 639.066 667.527 613.328 695.277 589.617C707.596 579.086 720.639 568.768 736.301 562.15C767.708 548.884 803.446 552.626 836.235 562.235C845.228 564.843 853.989 567.875 862.388 571.135C898.39 585.138 932.431 603.01 963.591 624.057C994.437 644.919 1022.42 669.891 1058.09 686.431C1083.49 698.223 1111.93 707.619 1140.53 710.723C1165.2 713.373 1190.63 710.751 1211.91 699.81C1215.75 697.84 1219.39 695.643 1222.85 693.191C1244.12 678.112 1256.13 655.307 1262.6 631.866C1264.66 624.397 1266.19 616.857 1267.39 609.373C1270.54 589.815 1272.01 569.945 1273.83 550.84C1276.77 520.255 1283.45 491.853 1301.04 466.512C1314.58 447.01 1337.5 430.413 1364.78 427.14C1403.59 422.477 1438.54 440.207 1471.63 452.551C1474.23 453.529 1476.86 454.465 1479.5 455.386C1519.44 469.219 1562.39 476.092 1604.02 467.716C1648.41 458.802 1690.73 429.379 1700.65 388.391" stroke="#0049FF" stroke-miterlimit="10"/>
<path d="M625.109 676.751C647.441 649.738 672.672 624.581 700.109 601.522C712.296 591.275 725.175 581.283 740.541 574.778C771.338 561.753 806.285 564.772 838.499 573.46C847.343 575.813 855.972 578.59 864.273 581.567C899.813 594.407 933.558 611.103 964.586 630.973C995.3 650.659 1023.26 674.455 1058.43 690.357C1084.68 702.234 1113.73 711.999 1143.09 715.443C1168.37 718.377 1194.61 715.967 1216.53 704.969C1220.48 702.985 1224.25 700.76 1227.83 698.266C1249.85 682.931 1262.1 659.503 1268.93 635.438C1271.11 627.77 1272.75 620.046 1274.1 612.378C1277.63 592.352 1279.69 571.972 1282.34 552.456C1286.59 521.148 1295.4 492.618 1314.5 467.221C1328.37 448.782 1350.59 432.809 1377.09 429.464C1414.82 424.702 1448.97 440.873 1481.22 451.715C1483.76 452.566 1486.32 453.402 1488.89 454.196C1527.76 466.243 1569.07 471.316 1608.61 461.991C1650.77 452.07 1690.43 422.803 1699.1 382.892" stroke="#0049FF" stroke-miterlimit="10"/>
<path d="M631.086 686.942C652.957 660.424 677.825 635.834 704.933 613.427C716.972 603.478 729.703 593.798 744.755 587.42C774.943 574.636 809.067 576.989 840.72 584.699C849.416 586.811 857.93 589.305 866.132 592.012C901.211 603.705 934.66 619.224 965.556 637.904C996.139 656.413 1024.1 679.019 1058.75 694.297C1085.85 706.259 1115.52 716.378 1145.64 720.177C1171.53 723.408 1198.56 721.211 1221.16 710.128C1225.24 708.13 1229.13 705.862 1232.83 703.339C1255.58 687.735 1268.11 663.712 1275.31 639.009C1277.59 631.157 1279.36 623.235 1280.84 615.383C1284.73 594.875 1287.39 574.013 1290.85 554.071C1296.42 522.041 1307.29 493.384 1327.97 467.915C1342.1 450.525 1363.66 435.176 1389.4 431.76C1426.06 426.899 1459.41 441.511 1490.82 450.851C1493.29 451.588 1495.78 452.297 1498.28 452.977C1536.08 463.238 1575.72 466.526 1613.2 456.251C1653.14 445.324 1690.14 416.213 1697.59 377.379" stroke="#0049FF" stroke-miterlimit="10"/>
<path d="M637.047 697.132C658.457 671.111 682.946 647.102 709.758 625.347C721.648 615.681 734.231 606.327 748.987 600.062C778.549 587.519 811.882 589.149 842.976 595.938C851.523 597.795 859.906 600.02 868.009 602.457C902.627 612.988 935.762 627.345 966.543 644.834C996.994 662.153 1024.96 683.568 1059.08 698.237C1087.05 710.27 1117.32 720.772 1148.21 724.91C1174.71 728.425 1202.53 726.455 1225.8 715.301C1230 713.289 1234.03 710.993 1237.84 708.427C1261.32 692.554 1274.1 667.922 1281.66 642.595C1284.05 634.545 1285.94 626.424 1287.57 618.402C1291.82 597.426 1295.1 576.054 1299.38 555.701C1306.27 522.948 1319.13 494.135 1341.46 468.638C1355.79 452.268 1376.77 437.585 1401.75 434.099C1437.34 429.138 1469.9 442.177 1500.45 450.029C1502.86 450.653 1505.28 451.234 1507.72 451.801C1544.46 460.276 1582.44 461.764 1617.83 450.539C1655.56 438.606 1689.9 409.651 1696.1 371.894" stroke="#0049FF" stroke-miterlimit="10"/>
<path d="M643.031 707.322C663.963 681.797 688.107 658.355 714.606 637.266C726.365 627.898 738.782 618.855 753.242 612.719C782.195 600.402 814.721 601.338 845.255 607.177C853.654 608.793 861.921 610.734 869.925 612.903C904.082 622.285 936.921 635.466 967.57 651.765C997.873 667.907 1025.87 688.104 1059.47 702.177C1088.29 714.267 1119.17 725.166 1150.82 729.644C1177.93 733.457 1206.54 731.685 1230.47 720.46C1234.8 718.433 1238.95 716.109 1242.87 713.501C1267.09 697.373 1280.14 672.131 1288.04 646.152C1290.54 637.918 1292.55 629.598 1294.33 621.392C1298.96 599.935 1302.85 578.08 1307.94 557.303C1316.15 523.827 1330.93 494.829 1354.97 469.332C1369.46 453.955 1389.89 439.952 1414.11 436.409C1448.63 431.349 1480.38 442.829 1510.08 449.179C1512.42 449.675 1514.77 450.157 1517.13 450.596C1552.8 457.271 1589.13 456.988 1622.44 444.813C1657.95 431.859 1689.62 403.074 1694.6 366.395" stroke="#0049FF" stroke-miterlimit="10"/>
<path d="M649.008 717.498C669.479 692.469 693.26 669.608 719.429 649.157C731.04 640.086 743.31 631.37 757.456 625.332C785.783 613.257 817.519 613.47 847.493 618.388C855.76 619.748 863.896 621.421 871.784 623.334C905.48 631.554 938.023 643.558 968.524 658.667C998.695 673.633 1026.71 692.582 1059.76 706.089C1089.46 718.221 1120.94 729.516 1153.34 734.349C1181.06 738.445 1210.47 736.9 1235.06 725.591C1239.52 723.55 1243.79 721.197 1247.84 718.533C1272.79 702.135 1286.1 676.298 1294.38 649.681C1297 641.248 1299.12 632.745 1301.03 624.354C1306.02 602.429 1310.52 580.064 1316.43 558.876C1325.97 524.677 1342.62 495.453 1368.41 469.998C1383.02 455.585 1402.93 442.305 1426.4 438.676C1459.84 433.518 1490.79 443.438 1519.64 448.286C1521.92 448.668 1524.21 449.023 1526.49 449.349C1561.1 454.238 1595.78 452.155 1627.01 439.031C1660.29 425.071 1689.31 396.441 1693.05 360.839" stroke="#0049FF" stroke-miterlimit="10"/>
<path d="M654.984 727.688C674.978 703.155 698.413 680.875 724.27 661.076C735.732 652.289 747.853 643.899 761.704 637.974C789.421 626.14 820.366 625.63 849.764 629.627C857.883 630.732 865.887 632.135 873.693 633.779C906.928 640.851 939.174 651.679 969.543 665.597C999.583 679.387 1027.63 697.103 1060.12 710.029C1090.71 722.189 1122.77 733.91 1155.92 739.083C1184.25 743.477 1214.45 742.144 1239.7 730.764C1244.28 728.709 1248.68 726.328 1252.84 723.621C1278.54 706.953 1292.11 680.507 1300.74 653.267C1303.47 644.65 1305.71 635.933 1307.77 627.373C1313.12 604.98 1318.27 582.133 1324.96 560.506C1335.9 525.598 1354.26 496.076 1381.89 470.721C1396.57 457.257 1416.04 444.7 1438.75 441.015C1471.12 435.757 1501.26 444.119 1529.28 447.463C1531.48 447.733 1533.71 447.96 1535.91 448.172C1569.44 451.276 1602.48 447.407 1631.63 433.333C1662.69 418.367 1689.04 389.894 1691.56 355.369" stroke="#0049FF" stroke-miterlimit="10"/>
<path d="M660.969 737.879C680.501 713.842 703.574 692.129 729.101 672.996C740.432 664.506 752.388 656.428 765.942 650.631C793.034 639.038 823.189 637.805 852.026 640.866C859.997 641.716 867.886 642.864 875.577 644.225C908.35 650.149 940.284 659.801 970.537 672.528C1000.44 685.142 1028.52 701.596 1060.47 713.969C1091.93 726.158 1124.59 738.304 1158.5 743.817C1187.43 748.494 1218.43 747.389 1244.35 735.923C1249.06 733.854 1253.57 731.444 1257.86 728.695C1284.29 711.772 1298.11 684.717 1307.1 656.839C1309.93 648.023 1312.3 639.123 1314.49 630.378C1320.21 607.503 1325.99 584.16 1333.47 562.122C1345.73 526.491 1365.81 496.629 1395.36 471.43C1410.08 458.873 1429.1 447.081 1451.05 443.34C1482.36 437.982 1511.69 444.785 1538.87 446.628C1541.01 446.769 1543.17 446.897 1545.31 446.982C1577.78 448.3 1609.16 442.631 1636.23 427.608C1665.09 411.635 1688.77 383.318 1690.04 349.87" stroke="#0049FF" stroke-miterlimit="10"/>
<path d="M666.93 748.069C686.001 724.528 708.712 703.396 733.926 684.915C745.108 676.709 756.917 668.956 770.158 663.273C796.64 651.92 825.988 649.965 854.249 652.105C862.088 652.7 869.828 653.579 877.42 654.67C909.733 659.432 941.37 667.922 971.492 679.458C1001.27 690.881 1029.4 706.075 1060.77 717.909C1093.12 730.098 1126.35 742.683 1161.02 748.551C1190.55 753.511 1222.35 752.618 1248.95 741.096C1253.77 738.998 1258.42 736.575 1262.83 733.783C1289.99 716.591 1304.08 688.926 1313.44 660.424C1316.39 651.424 1318.87 642.325 1321.21 633.397C1327.31 610.054 1333.68 586.215 1341.98 563.751C1355.57 527.398 1377.31 497.111 1408.83 472.153C1423.57 460.474 1442.18 449.49 1463.39 445.678C1493.63 440.221 1522.15 445.451 1548.48 445.805C1550.56 445.834 1552.63 445.834 1554.71 445.805C1586.12 445.323 1615.83 437.883 1640.83 421.91C1667.46 404.931 1688.47 376.77 1688.52 344.399" stroke="#0049FF" stroke-miterlimit="10"/>
<path d="M672.906 758.245C691.5 735.214 713.865 714.635 738.766 696.806C749.8 688.897 761.46 681.456 774.405 675.886C800.261 664.775 828.835 662.082 856.52 663.315C864.211 663.655 871.836 664.265 879.329 665.087C911.18 668.701 942.521 676 972.511 686.36C1002.16 696.607 1030.32 710.525 1061.15 721.821C1094.4 734.009 1128.19 747.048 1163.62 753.256C1193.76 758.514 1226.36 757.834 1253.6 746.226C1258.56 744.114 1263.32 741.662 1267.85 738.828C1295.75 721.381 1310.09 693.106 1319.81 663.953C1322.87 654.755 1325.48 645.472 1327.95 636.359C1334.4 612.534 1341.38 588.199 1350.51 565.324C1365.41 528.248 1388.75 497.465 1422.31 472.804C1437.07 461.962 1455.28 451.814 1475.72 447.931C1504.89 442.375 1532.61 446.046 1558.1 444.898C1560.11 444.813 1562.12 444.686 1564.13 444.544C1594.46 442.276 1622.53 433.035 1645.45 416.113C1669.86 398.114 1688.22 370.122 1687.04 338.829" stroke="#0049FF" stroke-miterlimit="10"/>
<path d="M678.875 768.435C697.007 745.9 718.994 725.902 743.582 708.725C754.484 701.114 765.98 693.985 778.628 688.543C803.875 677.672 831.642 674.257 858.766 674.568C866.309 674.653 873.803 674.994 881.197 675.546C912.587 677.998 943.631 684.135 973.473 693.305C1002.97 702.375 1031.2 715.003 1061.45 725.775C1095.61 737.935 1129.96 751.456 1166.16 758.004C1196.91 763.545 1230.31 763.092 1258.22 751.413C1263.31 749.287 1268.19 746.807 1272.83 743.93C1301.45 726.214 1316.08 697.344 1326.14 667.553C1329.32 658.156 1332.04 648.675 1334.66 639.391C1341.47 615.099 1349.07 590.269 1359.01 566.968C1375.24 529.184 1400.1 497.777 1435.78 473.541C1450.52 463.521 1468.35 454.238 1488.03 450.284C1516.11 444.629 1543.04 446.741 1567.69 444.09C1569.64 443.878 1571.58 443.637 1573.51 443.382C1602.79 439.328 1629.19 428.302 1650.02 410.43C1672.21 391.424 1687.92 363.589 1685.5 333.372" stroke="#0049FF" stroke-miterlimit="10"/>
<path d="M684.859 778.625C702.531 756.587 724.155 737.156 748.43 720.644C759.184 713.317 770.531 706.514 782.883 701.185C807.521 690.556 834.481 686.403 861.045 685.794C868.44 685.624 875.818 685.694 883.114 685.992C914.043 687.296 944.79 692.256 974.5 700.222C1003.86 708.116 1032.14 719.44 1061.82 729.687C1096.88 741.804 1131.81 755.807 1168.75 762.709C1200.11 768.549 1234.3 768.308 1262.89 756.544C1268.09 754.404 1273.1 751.895 1277.88 748.976C1307.24 730.991 1322.11 701.511 1332.55 671.096C1335.83 661.516 1338.68 651.836 1341.43 642.368C1348.63 617.594 1356.83 592.281 1367.57 568.556C1385.12 530.049 1411.46 497.919 1449.27 474.222C1464.01 464.981 1481.45 456.591 1500.39 452.58C1527.4 446.826 1553.52 447.379 1577.33 443.226C1579.21 442.9 1581.09 442.546 1582.95 442.163C1611.16 436.31 1635.91 423.497 1654.67 404.676C1674.65 384.664 1687.68 356.984 1684.02 327.845" stroke="#0049FF" stroke-miterlimit="10"/>
<path d="M690.844 788.801C708.037 767.259 729.315 748.409 753.261 732.535C763.867 725.506 775.066 719.029 787.105 713.813C811.117 703.41 837.286 698.506 863.291 697.018C870.554 696.579 877.8 696.395 884.981 696.423C915.449 696.565 945.883 700.363 975.478 707.138C1004.71 713.856 1033.04 723.862 1062.15 733.612C1098.14 745.673 1133.61 760.186 1171.31 767.429C1203.28 773.551 1238.26 773.523 1267.51 761.689C1272.84 759.534 1277.98 756.997 1282.86 754.035C1312.96 735.795 1328.1 705.706 1338.88 674.653C1342.28 664.874 1345.24 655.01 1348.14 645.358C1355.7 620.117 1364.51 594.294 1376.07 570.157C1394.94 530.927 1422.69 497.947 1462.73 474.916C1477.47 466.441 1494.53 458.972 1512.7 454.876C1538.64 449.022 1563.95 448.016 1586.92 442.361C1588.74 441.908 1590.55 441.44 1592.34 440.93C1619.48 433.291 1642.59 418.693 1659.26 398.922C1677.01 377.903 1687.39 350.38 1682.49 322.318" stroke="#0049FF" stroke-miterlimit="10"/>
<path d="M696.797 798.992C713.529 777.945 734.445 759.662 758.078 744.455C768.552 737.708 779.587 731.557 791.329 726.455C814.732 716.293 840.094 710.667 865.539 708.257C872.653 707.563 879.768 707.123 886.866 706.868C916.873 705.862 947.011 708.47 976.474 714.068C1005.57 719.595 1033.95 728.298 1062.49 737.552C1099.4 749.528 1135.42 764.58 1173.87 772.162C1206.45 778.583 1242.23 778.767 1272.14 766.862C1277.59 764.693 1282.86 762.114 1287.85 759.123C1318.68 740.614 1334.08 709.915 1345.23 678.239C1348.74 668.276 1351.82 658.199 1354.85 648.377C1362.77 622.668 1372.19 596.349 1384.58 571.787C1404.77 531.834 1433.9 497.876 1476.19 475.639C1490.93 467.886 1507.6 461.367 1525.01 457.214C1549.88 451.276 1574.4 448.682 1596.52 441.539C1598.26 440.972 1599.99 440.377 1601.72 439.753C1627.81 430.329 1649.25 413.931 1663.84 393.21C1679.37 371.185 1687.08 343.818 1680.97 316.833" stroke="#0049FF" stroke-miterlimit="10"/>
<path d="M702.781 809.182C719.036 788.631 739.606 770.929 762.926 756.374C773.252 749.925 784.138 744.086 795.584 739.097C818.361 729.176 842.949 722.827 867.801 719.496C874.767 718.547 881.767 717.838 888.75 717.314C918.295 715.145 948.137 716.591 977.468 720.999C1006.44 725.35 1034.88 732.72 1062.84 741.493C1100.69 753.355 1137.23 768.974 1176.45 776.896C1209.63 783.6 1246.21 784.011 1276.78 772.021C1282.36 769.838 1287.74 767.23 1292.87 764.183C1324.44 745.418 1340.1 714.111 1351.61 681.797C1355.24 671.635 1358.43 661.374 1361.61 651.368C1369.91 625.176 1379.92 598.376 1393.13 573.389C1414.66 532.713 1445.14 497.635 1489.7 476.334C1504.48 469.275 1520.72 463.748 1537.38 459.525C1561.18 453.487 1584.9 449.334 1606.17 440.689C1607.85 440.009 1609.52 439.3 1611.18 438.549C1636.2 427.338 1655.98 409.154 1668.49 387.484C1681.8 364.439 1686.86 337.242 1679.49 311.334" stroke="#0049FF" stroke-miterlimit="10"/>
<path d="M708.75 819.372C745.459 772.772 805.95 741.974 870.048 730.735C934.145 719.496 1001.45 726.753 1063.16 745.433C1101.95 757.168 1139.02 773.353 1178.99 781.63C1218.96 789.907 1263.94 789.255 1297.85 769.271C1340.3 744.256 1354.45 697.018 1368.32 654.372C1391.1 584.245 1427.52 509.682 1503.15 477.042C1540.82 460.786 1584.9 456.704 1620.54 437.344C1669.95 410.501 1694.62 354.008 1677.95 305.821" stroke="#0049FF" stroke-miterlimit="10"/>
<path d="M22.4453 -132.374C50.6403 -155.901 81.1904 -177.231 113.47 -196.251C127.798 -204.698 142.785 -212.819 159.583 -216.901C193.262 -225.078 227.633 -215.838 257.854 -201.296C266.138 -197.342 274.125 -192.991 281.717 -188.484C314.178 -169.138 343.921 -146.278 370.156 -120.724C396.128 -95.4115 418.427 -66.5131 450.031 -44.7012C472.544 -29.1678 498.549 -15.5052 526.036 -8.0078C549.751 -1.57335 575.311 -0.212752 598.516 -7.66765C602.699 -8.99989 606.75 -10.6156 610.653 -12.4864C634.748 -24.0089 651.332 -44.5878 662.613 -66.6407C666.204 -73.6704 669.3 -80.8418 672.05 -88.0133C679.247 -106.764 684.846 -126.081 690.644 -144.577C699.932 -174.198 712.465 -201.098 735.077 -223.307C752.468 -240.385 778.522 -253.155 806.009 -252.149C845.156 -250.717 875.821 -227.842 905.779 -210.565C908.134 -209.205 910.522 -207.858 912.926 -206.555C949.306 -186.741 990.117 -173.334 1032.82 -175.105C1078.34 -176.976 1126.13 -199.355 1144.48 -238.132" stroke="#0049FF" stroke-miterlimit="10"/>
<path d="M26.1875 -121.418C53.8225 -144.52 83.895 -165.354 115.713 -183.779C129.844 -191.971 144.6 -199.794 161.085 -203.805C194.106 -211.841 227.834 -203.436 257.709 -189.901C265.911 -186.216 273.832 -182.149 281.375 -177.925C313.638 -159.77 343.332 -138.114 369.682 -113.751C395.769 -89.6287 418.299 -61.8784 449.541 -40.775C472.877 -25.0291 499.409 -10.9271 527.571 -2.96202C551.813 3.8551 578.131 5.55584 602.011 -1.87071C606.309 -3.20295 610.493 -4.81865 614.527 -6.71781C639.396 -18.3962 656.359 -39.5279 668.134 -62.1335C671.873 -69.3333 675.117 -76.6889 678.049 -84.0163C685.707 -103.178 691.998 -122.892 698.701 -141.671C709.439 -171.803 724.079 -198.49 748.207 -220.529C765.697 -236.516 790.911 -248.789 817.673 -247.953C855.799 -246.777 886.003 -225.574 915.433 -209.899C917.755 -208.666 920.094 -207.447 922.449 -206.271C958.154 -188.385 997.713 -176.99 1038.57 -180.023C1082.12 -183.24 1127.27 -205.86 1144.17 -243.772" stroke="#0049FF" stroke-miterlimit="10"/>
<path d="M29.9375 -110.477C57.0126 -133.167 86.6075 -153.491 117.981 -171.321C131.914 -179.243 146.456 -186.783 162.612 -190.723C194.974 -198.618 228.044 -191.007 257.573 -178.506C265.675 -175.076 273.531 -171.307 281.024 -167.366C313.073 -150.43 342.717 -129.964 369.2 -106.792C395.402 -83.8461 418.179 -57.2721 449.042 -36.8491C473.202 -20.8905 500.26 -6.33507 529.098 2.08357C553.883 9.26918 580.926 11.3101 605.481 3.92604C609.911 2.5938 614.226 0.978095 618.376 -0.949407C644.019 -12.7695 661.377 -34.4539 673.63 -57.6406C677.517 -65.0105 680.926 -72.5362 684.038 -80.0195C692.158 -99.5779 699.157 -119.703 706.749 -138.766C718.936 -169.407 735.636 -195.91 761.311 -217.737C778.851 -232.646 803.274 -244.396 829.312 -243.758C866.4 -242.851 896.143 -223.307 925.063 -209.233C927.335 -208.127 929.641 -207.036 931.963 -205.987C966.993 -190.029 1005.3 -180.646 1044.31 -184.941C1085.9 -189.49 1128.39 -212.379 1143.85 -249.427" stroke="#0049FF" stroke-miterlimit="10"/>
<path d="M33.6875 -99.5355C60.1862 -121.801 89.3199 -141.629 120.249 -158.863C133.984 -166.516 148.296 -173.773 164.139 -177.642C195.842 -185.394 228.286 -178.606 257.452 -167.111C265.473 -163.951 273.263 -160.464 280.707 -156.808C312.541 -141.076 342.136 -121.815 368.734 -99.8332C395.051 -78.0637 418.075 -52.6661 448.559 -32.9375C473.543 -16.7664 501.112 -1.72901 530.624 7.12899C555.954 14.6973 583.72 17.0783 608.951 9.70845C613.513 8.3762 617.943 6.74632 622.242 4.80465C648.674 -7.1572 666.411 -29.4085 679.142 -53.1479C683.177 -60.6879 686.751 -68.3837 690.028 -76.0228C698.608 -95.9923 706.316 -116.5 714.781 -135.86C728.417 -167.012 747.11 -193.359 774.415 -214.959C791.955 -228.834 815.654 -240.031 840.95 -239.577C877.001 -238.925 906.283 -221.053 934.676 -208.581C936.915 -207.603 939.172 -206.639 941.444 -205.718C975.799 -191.687 1012.85 -184.317 1050.02 -189.859C1089.63 -195.741 1129.47 -218.885 1143.49 -255.068" stroke="#0049FF" stroke-miterlimit="10"/>
<path d="M37.4141 -88.58C63.3528 -110.434 92.0089 -129.738 122.493 -146.391C136.014 -153.775 150.128 -160.748 165.642 -164.546C196.686 -172.157 228.504 -166.204 257.309 -155.717C265.23 -152.825 272.954 -149.622 280.365 -146.249C311.986 -131.722 341.548 -113.666 368.261 -92.8744C394.693 -72.2955 417.997 -48.0883 448.086 -29.0259C473.893 -12.6563 501.989 2.84873 532.16 12.1744C558.017 20.1254 586.541 22.8324 612.431 15.5051C617.124 14.187 621.686 12.5429 626.1 10.5729C653.307 -1.53067 671.423 -24.3347 684.647 -48.6552C688.83 -56.3652 692.552 -64.2311 696.011 -72.0404C705.052 -92.4209 713.452 -113.326 722.823 -132.969C737.925 -164.617 758.544 -190.851 787.513 -212.195C804.987 -225.064 828.01 -235.68 852.582 -235.396C887.595 -235.013 916.416 -218.8 944.298 -207.943C946.505 -207.093 948.712 -206.257 950.935 -205.463C984.614 -193.36 1020.42 -188.002 1055.74 -194.805C1093.38 -202.033 1130.56 -225.433 1143.15 -260.737" stroke="#0049FF" stroke-miterlimit="10"/>
<path d="M41.1562 -77.6385C66.535 -99.0819 94.7136 -117.875 124.753 -133.919C138.077 -141.048 151.96 -147.709 167.161 -151.45C197.563 -158.919 228.722 -153.803 257.181 -144.307C265.02 -141.685 272.678 -138.78 280.04 -135.676C311.446 -122.354 340.959 -105.502 367.787 -85.9012C394.335 -66.4987 417.918 -43.5104 447.596 -25.0999C474.259 -8.56024 502.849 7.44086 533.696 17.2201C560.096 25.5537 589.345 28.6008 615.909 21.2877C620.718 19.9696 625.412 18.3256 629.957 16.3272C657.938 4.06772 676.449 -19.2891 690.168 -44.1765C694.499 -52.0566 698.386 -60.1067 702.026 -68.0577C711.528 -88.8492 720.636 -110.151 730.896 -130.064C747.447 -162.222 769.944 -188.385 800.659 -209.417C818.05 -221.322 840.415 -231.3 864.262 -231.215C898.238 -231.102 926.598 -216.532 953.969 -207.291C956.127 -206.568 958.301 -205.86 960.474 -205.18C993.478 -195.003 1028.03 -191.659 1061.51 -199.723C1097.18 -208.283 1131.72 -231.938 1142.85 -266.378" stroke="#0049FF" stroke-miterlimit="10"/>
<path d="M44.9141 -66.6828C69.7329 -87.701 97.4503 -105.998 127.012 -121.446C140.138 -128.306 153.807 -134.684 168.679 -138.355C198.422 -145.696 228.956 -141.402 257.035 -132.898C264.792 -130.56 272.368 -127.923 279.697 -125.103C310.906 -112.985 340.352 -97.3385 367.312 -78.9281C393.975 -60.716 417.839 -38.9466 447.104 -21.1739C474.624 -4.46417 503.709 12.033 535.247 22.2799C562.19 30.9962 592.18 34.3693 619.404 27.0987C624.344 25.7806 629.153 24.1224 633.83 22.124C662.585 9.72281 681.475 -14.1867 695.688 -39.6411C700.184 -47.7054 704.219 -55.9114 708.023 -64.0183C717.987 -85.2208 727.852 -106.891 738.936 -127.116C757.019 -159.756 781.261 -185.947 813.755 -206.597C831.014 -217.566 852.786 -226.892 875.892 -226.991C908.847 -227.133 936.729 -214.236 963.59 -206.597C965.714 -206.001 967.839 -205.42 969.98 -204.868C1002.33 -196.619 1035.61 -195.301 1067.25 -204.612C1100.94 -214.505 1132.83 -238.429 1142.53 -272.004" stroke="#0049FF" stroke-miterlimit="10"/>
<path d="M48.6484 -55.7416C72.8909 -76.3489 100.147 -94.1216 129.264 -108.989C142.193 -115.579 155.631 -121.674 170.19 -125.273C199.274 -132.473 229.182 -129.015 256.899 -121.518C264.574 -119.448 272.084 -117.096 279.363 -114.559C310.358 -103.646 339.755 -89.1895 366.83 -71.9837C393.609 -54.9338 417.785 -34.3832 446.606 -17.2625C474.999 -0.396854 504.561 16.6247 536.774 27.311C564.245 36.3958 594.976 40.1232 622.874 32.8809C627.947 31.577 632.888 29.9046 637.68 27.8779C667.226 15.335 686.494 -9.12728 701.185 -35.1627C705.829 -43.3971 710.029 -51.7733 714.014 -60.036C724.439 -81.6495 734.996 -103.717 746.985 -124.225C766.517 -157.361 792.522 -183.623 826.876 -203.833C843.988 -213.896 865.167 -222.541 887.548 -222.825C919.465 -223.236 946.886 -211.997 973.237 -205.959C975.312 -205.477 977.403 -205.038 979.495 -204.613C1011.16 -198.278 1043.2 -198.986 1072.99 -209.559C1104.71 -220.798 1133.94 -244.963 1142.21 -277.674" stroke="#0049FF" stroke-miterlimit="10"/>
<path d="M52.3906 -44.8003C76.0731 -64.9966 102.852 -82.2591 131.524 -96.5311C144.238 -102.866 157.48 -108.663 171.709 -112.192C200.134 -119.25 229.416 -116.628 256.771 -110.123C264.347 -108.323 271.791 -106.254 279.038 -104C309.818 -94.306 339.166 -81.0402 366.373 -65.0249C393.25 -49.1514 417.723 -29.8481 446.116 -13.3367C475.381 3.6848 505.421 21.2166 538.31 32.3564C566.323 41.8238 597.779 45.8772 626.353 38.6633C631.541 37.3594 636.613 35.687 641.537 33.632C671.857 20.9473 691.505 -4.08189 706.689 -30.6701C711.481 -39.0745 715.829 -47.6349 719.996 -56.0535C730.882 -78.0781 742.147 -100.528 755.026 -121.333C776.007 -154.98 803.741 -181.398 839.973 -201.056C856.92 -210.254 877.522 -218.176 899.179 -218.63C930.059 -219.296 957.018 -209.729 982.858 -205.293C984.9 -204.939 986.943 -204.627 988.985 -204.329C1019.98 -199.922 1050.76 -202.643 1078.69 -214.477C1108.43 -227.048 1135.02 -251.482 1141.85 -283.314" stroke="#0049FF" stroke-miterlimit="10"/>
<path d="M56.125 -33.8444C79.2475 -53.6154 105.549 -70.3819 133.777 -84.0586C146.293 -90.1246 159.32 -95.6378 173.22 -99.096C200.987 -106.012 229.643 -104.227 256.619 -98.7133C264.112 -97.1826 271.491 -95.411 278.688 -93.4268C309.254 -84.9373 338.553 -72.8763 365.875 -58.0515C392.884 -43.3685 417.67 -25.3123 445.618 -9.42462C475.773 7.72447 506.273 25.7948 539.821 37.4023C568.378 47.2524 600.575 51.646 629.807 44.4604C635.127 43.1565 640.331 41.4841 645.371 39.4007C676.464 26.5601 696.507 0.992378 712.169 -26.1769C717.11 -34.7514 721.622 -43.4819 725.954 -52.0564C737.301 -74.4778 749.257 -97.3385 763.026 -118.428C785.456 -152.57 814.854 -179.243 853.029 -198.277C869.811 -206.639 889.854 -213.796 910.769 -214.448C940.611 -215.384 967.11 -207.475 992.439 -204.641C994.432 -204.414 996.441 -204.23 998.45 -204.06C1028.77 -201.58 1058.3 -206.313 1084.39 -219.395C1112.17 -233.298 1136.1 -257.987 1141.48 -288.955" stroke="#0049FF" stroke-miterlimit="10"/>
<path d="M59.8828 -22.9033C82.4454 -42.2633 108.269 -58.5195 136.052 -71.5869C148.371 -77.3835 161.167 -82.5991 174.754 -86.0006C201.862 -92.7752 229.893 -91.8256 256.507 -87.3187C263.918 -86.0573 271.214 -84.5691 278.378 -82.8684C308.73 -75.5836 337.979 -64.7272 365.433 -51.0788C392.557 -37.5863 417.673 -20.7774 445.16 -5.49908C476.204 11.7634 507.165 30.3865 541.388 42.4475C570.472 52.6803 603.411 57.3998 633.318 50.2426C638.77 48.9387 644.089 47.2521 649.26 45.1545C681.128 32.1722 701.566 6.03759 717.706 -21.6986C722.795 -30.4432 727.472 -39.3437 731.984 -48.0742C743.793 -70.9066 756.457 -94.15 771.115 -115.523C794.995 -150.175 826.039 -177.203 866.19 -195.5C882.791 -203.068 902.274 -209.432 922.465 -210.268C951.27 -211.472 977.324 -205.208 1002.13 -203.989C1004.09 -203.89 1006.05 -203.819 1008.01 -203.791C1037.65 -203.238 1065.94 -209.984 1090.17 -224.327C1115.98 -239.577 1137.25 -264.521 1141.21 -294.624" stroke="#0049FF" stroke-miterlimit="10"/>
<path d="M63.625 -11.9478C85.6112 -30.8827 110.973 -46.6287 138.296 -59.1149C150.417 -64.6565 162.999 -69.5744 176.257 -72.905C202.706 -79.5379 230.11 -79.4245 256.362 -75.9097C263.674 -74.9317 270.921 -73.7129 278.019 -72.2956C308.157 -66.2155 337.357 -56.5638 364.926 -44.1059C392.166 -31.7897 417.594 -16.2563 444.636 -1.55912C476.586 15.8026 507.993 35.0067 542.89 47.5213C572.518 58.1367 606.197 63.1964 636.764 56.0675C642.33 54.7778 647.798 53.077 653.085 50.9511C685.743 37.8271 706.543 11.1397 723.177 -17.1634C728.414 -26.0781 733.24 -35.1629 737.933 -44.0492C750.203 -67.2926 763.576 -90.9328 779.122 -112.589C804.452 -147.752 837.093 -175.261 879.254 -192.694C895.69 -199.482 914.613 -205.038 934.063 -206.059C961.846 -207.518 987.423 -202.926 1011.71 -203.323C1013.62 -203.352 1015.55 -203.408 1017.46 -203.507C1046.43 -204.882 1073.47 -213.641 1095.85 -229.245C1119.69 -245.827 1138.31 -271.027 1140.83 -300.265" stroke="#0049FF" stroke-miterlimit="10"/>
<path d="M67.3594 -1.00621C88.7856 -19.5301 113.67 -34.7658 140.548 -46.6568C152.455 -51.9291 164.823 -56.5636 177.768 -59.8234C203.558 -66.3287 230.337 -67.094 256.226 -64.5146C263.456 -63.8201 270.62 -62.8705 277.685 -61.7367C307.626 -56.8612 336.776 -48.4143 364.461 -37.1469C391.799 -26.0071 417.573 -11.7634 444.171 2.35273C477.043 19.7995 508.878 39.5847 544.451 52.5528C574.606 63.5367 609.026 68.9365 640.268 61.8501C645.966 60.5604 651.549 58.8597 656.967 56.7054C690.4 43.4255 711.595 16.1854 728.707 -12.6846C734.092 -21.7694 739.082 -31.0242 743.957 -40.0665C756.687 -63.7209 770.752 -87.7438 787.188 -109.697C813.983 -145.356 848.189 -173.475 892.392 -189.93C908.664 -195.981 927.01 -200.673 945.736 -201.877C972.481 -203.606 997.597 -200.673 1021.38 -202.671C1023.26 -202.827 1025.13 -203.011 1026.99 -203.238C1055.29 -206.54 1081.08 -217.326 1101.62 -234.177C1123.49 -252.106 1139.44 -277.56 1140.53 -305.92" stroke="#0049FF" stroke-miterlimit="10"/>
<path d="M71.1016 9.93507C91.9678 -8.17777 116.375 -22.9033 142.808 -34.199C154.517 -39.202 166.671 -43.5531 179.287 -46.742C204.435 -53.1055 230.571 -54.7071 256.082 -53.1339C263.229 -52.7087 270.311 -52.0426 277.343 -51.1922C307.07 -47.5357 336.171 -40.2792 363.97 -30.2023C391.441 -20.2246 417.544 -7.27071 443.664 6.26432C477.459 23.7677 509.721 44.1624 545.97 57.5982C576.668 68.9648 611.813 74.7048 643.73 67.6325C649.56 66.3428 655.258 64.6279 660.808 62.4595C695.015 49.0378 716.589 21.245 734.194 -8.19193C739.728 -17.4468 744.883 -26.8717 749.922 -36.0698C763.114 -60.1353 777.887 -84.555 795.212 -106.792C823.457 -142.961 859.227 -171.831 905.472 -187.152C921.596 -192.495 939.349 -196.308 957.35 -197.696C983.058 -199.681 1007.71 -198.419 1030.97 -202.019C1032.79 -202.303 1034.64 -202.614 1036.47 -202.955C1064.1 -208.184 1088.62 -220.982 1107.32 -239.095C1127.21 -258.356 1140.54 -284.066 1140.17 -311.561" stroke="#0049FF" stroke-miterlimit="10"/>
<path d="M74.8516 20.8909C95.1579 3.20321 119.087 -11.0263 145.076 -21.7126C156.587 -26.4463 168.511 -30.5139 180.813 -33.6319C205.303 -39.8538 230.813 -42.2915 255.962 -41.7104C263.01 -41.5545 270.043 -41.186 277.025 -40.605C306.538 -38.1531 335.589 -32.1013 363.521 -23.2149C391.09 -14.4419 417.523 -2.77774 443.198 10.1904C477.931 27.7363 510.606 48.7546 547.529 62.6439C578.771 74.3932 614.657 80.4592 647.233 73.4295C653.178 72.1397 659.025 70.4248 664.69 68.228C699.67 54.6647 721.64 26.3049 739.74 -3.69896C745.421 -13.1239 750.741 -22.7189 755.945 -32.0871C769.598 -56.5635 785.079 -81.3801 803.294 -103.901C832.987 -140.566 870.323 -170.329 918.626 -184.374C934.634 -189.023 951.778 -191.942 969.038 -193.515C993.709 -195.769 1017.9 -196.166 1040.65 -201.367C1042.44 -201.778 1044.24 -202.217 1046.01 -202.685C1072.97 -209.842 1096.24 -224.653 1113.09 -244.027C1131.01 -264.62 1141.68 -290.599 1139.89 -317.23" stroke="#0049FF" stroke-miterlimit="10"/>
<path d="M78.5938 31.8321C124.46 -8.30525 190.419 -29.2101 255.817 -30.3298C321.216 -31.4352 385.906 -13.8468 442.691 14.102C478.38 31.6621 511.449 53.3465 549.032 67.6893C586.614 82.0322 630.982 88.3816 668.531 73.9821C715.534 55.9684 739.364 11.6926 761.911 -28.0905C799.015 -93.5263 850.465 -161.216 931.706 -181.596C972.171 -191.744 1016.39 -188.909 1055.49 -202.416C1109.72 -221.138 1145.8 -272.883 1139.51 -322.871" stroke="#0049FF" stroke-miterlimit="10"/>
<path d="M365.395 612.903C358.462 564.715 413.748 523.997 469.496 516.499C525.244 509.016 581.173 524.465 636.41 534.371C691.647 544.278 753.801 547.552 799.947 519.603C858.939 483.874 872.592 408.715 933.281 375.154C980.58 348.991 1042.16 356.829 1090.63 376.288C1118.03 387.286 1141.33 405.796 1167.52 418.693C1286.29 477.17 1294.31 596.647 1395.22 614.476C1504.49 633.765 1563.78 587.916 1584.4 556.127C1610.82 515.394 1654.86 409.722 1546.93 336.278C1503.09 306.444 1459.8 274.641 1427.55 235.354C1379.26 176.536 1379.59 86.6242 1441.33 38.0115C1483.66 4.70538 1548.66 -7.46905 1577.42 -50.1859C1596.74 -78.8858 1594.1 -115.891 1577.48 -145.838C1560.87 -175.771 1531.93 -199.454 1500.51 -218.644" stroke="#0049FF" stroke-miterlimit="10"/>
<path d="M367.899 615.312C363.123 565.736 418.097 522.906 475.508 514.388C531.552 506.068 588.403 521.403 643.641 532.331C698.235 543.13 758.842 548.034 804.84 522.636C863.601 490.124 880.12 418.778 940.726 385.656C989.013 359.408 1049.6 364.298 1099.22 381.305C1127.73 391.084 1152.99 408.517 1180.42 421.598C1296.7 477.042 1306.27 592.65 1404.99 610.224C1511.16 629.088 1570.14 585.705 1591.57 554.412C1618.72 514.756 1660.74 412.939 1558.76 340.332C1516.71 310.399 1475.03 277.985 1443.29 238.939C1396.42 181.525 1396 94.8019 1454.28 46.6144C1494.61 13.2799 1557.28 -0.297598 1585.9 -42.4617C1605.55 -71.275 1604.35 -107.756 1589.82 -137.916C1575.18 -168.359 1548.45 -193.374 1518.25 -213.981" stroke="#0049FF" stroke-miterlimit="10"/>
<path d="M370.396 617.707C367.761 566.756 422.438 521.814 481.513 512.248C537.837 503.12 595.61 518.299 650.864 530.275C704.816 541.968 763.891 548.502 809.741 525.641C868.255 496.36 887.573 428.699 948.196 396.144C997.389 369.726 1057.14 371.71 1107.86 386.308C1137.51 394.84 1164.68 411.238 1193.35 424.49C1307.04 477.042 1318.26 588.625 1414.78 605.958C1517.88 624.397 1576.51 583.466 1598.76 552.683C1626.64 514.118 1666.66 416.085 1570.63 344.385C1530.38 314.339 1490.29 281.33 1459.07 242.539C1413.63 186.514 1412.44 102.965 1467.25 55.2455C1505.59 21.8686 1565.92 6.90212 1594.42 -34.6951C1614.4 -63.6359 1614.63 -99.6065 1602.21 -129.965C1589.53 -160.932 1565.03 -187.279 1536.04 -209.29" stroke="#0049FF" stroke-miterlimit="10"/>
<path d="M372.902 620.117C372.408 567.777 426.772 520.765 487.526 510.122C544.147 500.201 602.842 515.196 658.096 528.22C711.39 540.777 768.933 548.984 814.634 528.66C872.918 502.596 895.069 438.719 955.642 406.646C1005.79 380.1 1064.7 379.108 1116.46 391.325C1147.28 398.596 1176.31 413.973 1206.27 427.409C1317.25 477.184 1330.23 584.628 1424.57 601.72C1524.58 619.734 1582.87 581.255 1605.94 550.982C1634.51 513.481 1672.59 419.175 1582.47 348.453C1543.98 318.25 1505.64 284.618 1474.83 246.139C1430.99 191.404 1428.86 111.101 1480.23 63.8626C1516.58 30.429 1574.45 14.0311 1602.94 -26.9567C1623.17 -56.0535 1624.94 -91.4996 1614.58 -122.028C1603.88 -153.548 1581.58 -181.185 1553.83 -204.613" stroke="#0049FF" stroke-miterlimit="10"/>
<path d="M375.406 622.526C377.053 568.797 431.121 519.731 493.539 508.01C550.456 497.324 610.057 512.092 665.327 526.194C717.979 539.615 773.973 549.479 819.543 531.707C877.58 508.86 902.58 448.753 963.12 417.176C1014.22 390.503 1072.34 386.492 1125.11 396.385C1157.11 402.38 1187.99 416.765 1219.21 430.357C1327.42 477.468 1342.24 580.674 1434.38 597.511C1531.32 615.085 1589.22 579.072 1613.15 549.309C1642.42 512.885 1678.57 422.222 1594.35 352.563C1557.62 322.19 1520.96 288.005 1490.61 249.781C1448.25 196.407 1445.3 119.25 1493.21 72.5222C1527.58 39.0035 1583.06 21.2591 1611.46 -19.1759C1631.98 -48.4002 1635.27 -83.3787 1626.95 -114.063C1618.26 -146.164 1598.13 -175.063 1571.6 -199.907" stroke="#0049FF" stroke-miterlimit="10"/>
<path d="M377.914 624.936C381.718 569.832 435.473 518.696 499.554 505.884C556.768 494.447 617.275 508.974 672.562 524.139C724.571 538.411 779.067 550.032 824.439 534.726C882.295 515.21 910.095 458.788 970.585 427.664C1022.66 400.878 1080.01 393.791 1133.73 401.388C1166.95 406.079 1199.62 419.501 1232.13 433.249C1337.47 477.808 1354.22 576.649 1444.15 593.245C1538.01 610.394 1595.55 576.833 1620.32 547.581C1650.26 512.219 1684.52 425.113 1606.17 356.616C1571.21 326.045 1536.21 291.322 1506.36 253.367C1465.46 201.367 1461.69 127.3 1506.16 81.1253C1538.54 47.4932 1591.65 28.4166 1619.96 -11.4373C1640.79 -40.775 1645.6 -75.3141 1639.31 -106.14C1632.62 -138.851 1614.66 -168.996 1589.38 -195.244" stroke="#0049FF" stroke-miterlimit="10"/>
<path d="M380.414 627.331C386.359 570.838 439.818 517.676 505.562 503.744C563.072 491.57 624.502 505.828 679.805 522.084C731.172 537.192 784.12 550.514 829.36 537.745C886.969 521.46 917.634 468.808 978.059 438.167C1031.09 411.267 1087.69 401.062 1142.37 406.405C1176.81 409.778 1211.26 422.265 1245.07 436.154C1347.49 478.247 1366.22 572.652 1453.96 588.994C1544.73 605.717 1601.89 574.608 1627.52 545.866C1658.12 511.568 1690.54 427.92 1618.03 360.67C1584.81 329.858 1551.49 294.653 1522.13 256.953C1482.7 206.328 1478.09 135.308 1519.13 89.7282C1549.53 55.9686 1600.28 35.5881 1628.47 -3.71311C1649.62 -33.1784 1655.97 -67.2923 1651.68 -98.2174C1647.03 -131.538 1631.2 -162.916 1607.14 -190.582" stroke="#0049FF" stroke-miterlimit="10"/>
<path d="M382.922 629.74C391.008 571.872 444.187 516.684 511.578 501.632C569.384 488.721 631.72 502.681 687.039 520.057C737.764 535.973 789.164 551.039 834.256 540.777C891.634 527.738 925.148 478.871 985.524 448.682C1039.53 421.669 1095.39 408.29 1150.99 411.436C1186.66 413.449 1222.88 425.056 1257.99 439.073C1357.43 478.786 1378.2 568.655 1463.74 584.756C1551.42 601.054 1608.19 572.383 1634.68 544.165C1665.93 510.929 1696.59 430.655 1629.87 364.751C1598.4 333.656 1566.77 298.011 1537.88 260.567C1499.9 211.316 1494.45 143.301 1532.08 98.3591C1560.49 64.4294 1608.88 42.7876 1636.97 4.03913C1658.43 -25.5537 1666.37 -59.2424 1664.03 -90.2809C1661.46 -124.239 1647.74 -156.836 1624.9 -185.905" stroke="#0049FF" stroke-miterlimit="10"/>
<path d="M385.422 632.149C395.649 572.893 448.531 515.691 517.586 499.506C575.705 485.886 638.946 499.52 694.266 518.002C744.348 534.726 794.2 551.52 839.144 543.796C896.275 533.989 932.672 488.905 992.965 459.185C1047.94 432.072 1103.06 415.476 1159.6 416.454C1196.51 417.091 1234.47 427.848 1270.91 441.993C1367.32 479.409 1390.18 564.658 1473.53 580.518C1558.13 596.377 1614.49 570.158 1641.88 542.464C1673.73 510.277 1702.73 433.262 1641.73 368.819C1612 337.412 1582.03 301.356 1553.65 264.167C1517.12 216.305 1510.8 151.238 1545.06 106.976C1571.46 72.8622 1617.5 49.959 1645.48 11.7774C1667.26 -17.9288 1676.81 -51.2207 1676.4 -82.3441C1675.94 -116.94 1664.29 -150.742 1642.68 -181.228" stroke="#0049FF" stroke-miterlimit="10"/>
<path d="M387.93 634.545C400.314 573.899 452.9 514.714 523.602 497.38C582.017 483.052 646.181 496.346 701.5 515.961C750.94 533.493 799.244 552.017 844.056 546.829C900.94 540.253 940.219 498.968 1000.45 469.687C1056.41 442.475 1110.79 422.619 1168.23 421.485C1206.39 420.72 1246.07 430.669 1283.85 444.913C1377.19 480.104 1402.16 560.676 1483.33 576.28C1564.86 591.715 1620.79 567.933 1649.08 540.763C1681.54 509.612 1708.96 435.771 1653.59 372.901C1625.63 341.139 1597.32 304.73 1569.42 267.781C1534.34 221.294 1527.11 159.146 1558.02 115.608C1582.41 81.2669 1626.14 57.159 1654 19.5444C1676.1 -10.2894 1687.27 -43.1703 1688.77 -74.393C1690.45 -109.627 1680.83 -144.648 1660.46 -176.536" stroke="#0049FF" stroke-miterlimit="10"/>
<path d="M390.43 636.954C404.955 574.934 457.261 513.75 529.61 495.254C588.338 480.245 653.407 493.157 708.727 513.906C757.541 532.217 804.28 552.484 848.944 549.848C905.581 546.503 947.742 509.03 1007.89 480.189C1064.82 452.892 1118.46 429.734 1176.84 426.502C1216.24 424.32 1257.64 433.503 1296.75 447.818C1386.99 480.855 1414.13 556.665 1493.1 572.043C1571.54 587.052 1627.02 565.693 1656.24 539.077C1689.29 508.96 1715.23 438.181 1665.41 376.982C1639.23 344.81 1612.55 308.088 1585.16 271.395C1551.51 226.297 1543.34 167.012 1570.96 124.239C1593.31 89.643 1634.75 64.3729 1662.48 27.2968C1684.9 -2.65031 1697.74 -35.1343 1701.1 -66.4562C1704.96 -102.328 1697.35 -138.553 1678.19 -171.859" stroke="#0049FF" stroke-miterlimit="10"/>
<path d="M392.93 639.364C409.596 575.954 461.622 512.815 535.617 493.128C594.659 477.425 660.65 489.968 715.953 511.865C764.142 530.942 809.3 552.98 853.849 552.881C910.222 552.753 955.281 519.107 1015.36 490.705C1073.28 463.323 1126.16 436.834 1185.47 431.534C1226.1 427.905 1269.21 436.366 1309.68 450.738C1396.77 481.677 1426.11 552.668 1502.89 567.805C1578.24 582.389 1633.3 563.44 1663.43 537.376C1697.08 508.279 1721.65 440.462 1677.28 381.064C1652.91 348.438 1627.81 311.462 1600.93 275.009C1568.7 231.314 1559.56 174.836 1583.94 132.87C1604.19 97.9908 1643.39 71.5726 1671.01 35.0493C1693.75 4.97464 1708.28 -27.0984 1713.48 -58.5053C1719.54 -95.0145 1713.91 -132.459 1695.99 -167.168" stroke="#0049FF" stroke-miterlimit="10"/>
<path d="M395.438 641.773C414.262 576.989 465.991 511.879 541.633 491.017C600.988 474.647 667.901 486.765 723.188 509.824C770.767 529.666 814.344 553.462 858.745 555.914C914.871 559.004 962.829 529.184 1022.81 501.207C1081.72 473.74 1133.83 443.892 1194.09 436.551C1235.93 431.463 1280.76 439.243 1322.59 453.657C1406.52 482.556 1438.06 548.813 1512.68 563.567C1584.91 577.839 1639.54 561.186 1670.62 535.675C1704.82 507.585 1728.19 442.631 1689.13 385.132C1666.62 351.996 1643.07 314.82 1616.7 278.609C1585.9 236.303 1575.71 182.602 1596.9 141.501C1615.05 106.31 1652.03 78.7724 1679.51 42.816C1702.59 12.6279 1718.81 -19.0341 1725.84 -50.5544C1734.12 -87.7013 1730.45 -126.351 1713.75 -162.477" stroke="#0049FF" stroke-miterlimit="10"/>
<path d="M397.953 644.168C418.918 577.995 470.384 510.944 547.657 488.877C607.34 471.841 675.16 483.533 730.43 507.769C777.383 528.362 819.396 553.93 863.648 558.919C919.528 565.226 970.384 539.247 1030.28 511.695C1090.18 484.157 1141.5 450.908 1202.71 441.568C1245.78 434.992 1292.3 442.149 1335.52 456.563C1416.25 483.463 1450.04 544.817 1522.46 559.315C1591.61 573.162 1645.78 558.904 1677.8 533.96C1712.56 506.876 1734.88 444.686 1700.97 389.199C1680.38 355.496 1658.3 318.179 1632.46 282.209C1603.07 241.306 1591.78 190.341 1609.86 150.118C1625.84 114.587 1660.65 85.9722 1688.02 50.5543C1711.42 20.2529 1729.38 -10.984 1738.2 -42.6177C1748.74 -80.374 1747 -120.27 1731.53 -157.8" stroke="#0049FF" stroke-miterlimit="10"/>
<path d="M400.461 646.577C423.567 579.03 474.769 510.037 553.672 486.751C613.686 469.049 682.427 480.288 737.665 505.728C784.025 527.072 824.44 554.412 868.56 561.951C924.193 571.476 977.948 549.338 1037.75 522.211C1098.63 494.602 1149.14 457.937 1211.35 446.599C1255.62 438.535 1303.84 445.111 1348.47 459.482C1425.99 484.455 1462.06 540.82 1532.28 555.078C1598.35 568.499 1652.04 556.623 1685.01 532.259C1720.34 506.153 1741.77 446.67 1712.85 393.281C1694.27 358.983 1673.57 321.567 1648.24 285.823C1620.26 246.337 1607.81 198.065 1622.84 158.749C1636.58 122.85 1669.32 93.1861 1696.54 58.3068C1720.27 27.9061 1739.97 -2.91969 1750.58 -34.6809C1763.41 -73.0467 1763.54 -114.176 1749.31 -153.123" stroke="#0049FF" stroke-miterlimit="10"/>
<path d="M402.961 648.987C428.208 580.05 479.163 509.13 559.68 484.639C620.023 466.285 689.703 477.057 744.891 503.687C790.642 525.769 829.476 554.88 873.448 564.985C928.834 577.712 985.487 559.429 1045.2 532.727C1107.09 505.048 1156.77 464.953 1219.96 451.631C1265.43 442.05 1315.35 448.102 1361.38 462.402C1435.67 485.475 1474.01 536.823 1542.04 550.84C1605.04 563.823 1658.23 554.341 1692.17 530.559C1728.04 505.431 1748.78 448.584 1724.67 397.349C1708.23 362.399 1688.76 324.926 1663.98 289.423C1637.4 251.341 1623.71 205.761 1635.78 167.367C1647.2 131.084 1677.94 100.386 1705.02 66.0596C1729.1 35.5455 1750.52 5.15903 1762.92 -26.7439C1778.06 -65.6908 1780.07 -108.082 1767.06 -148.446" stroke="#0049FF" stroke-miterlimit="10"/>
<path d="M405.461 651.382C432.865 581.057 483.557 508.223 565.705 482.499C626.377 463.507 696.996 473.797 752.134 501.632C797.309 524.436 834.529 555.333 878.369 568.004C933.524 583.934 993.06 569.52 1052.68 543.215C1115.57 515.479 1164.4 471.912 1228.6 456.634C1275.24 445.522 1326.85 451.12 1374.32 465.293C1445.37 486.524 1486.01 532.798 1551.85 546.574C1611.77 559.117 1664.47 552.002 1699.38 528.83C1735.78 504.665 1756.02 450.426 1736.55 401.402C1722.39 365.758 1704.01 328.285 1679.77 293.009C1654.57 256.344 1639.57 213.443 1648.77 175.97C1657.78 139.305 1686.62 107.572 1713.56 73.7837C1737.97 43.1563 1761.16 13.2234 1775.32 -18.8213C1792.76 -58.3493 1796.65 -102.016 1784.87 -143.783" stroke="#0049FF" stroke-miterlimit="10"/>
<path d="M407.969 653.791C437.514 582.091 487.959 507.344 571.72 480.387C632.722 460.744 704.296 470.537 759.369 499.591C803.95 523.118 839.606 555.744 883.265 571.036C938.222 590.085 1000.61 579.625 1060.14 553.731C1124.04 525.938 1172 478.913 1237.22 461.665C1285.03 449.023 1338.34 454.21 1387.23 468.227C1455.04 487.644 1498.02 528.702 1561.64 542.351C1618.49 554.355 1670.68 549.706 1706.57 527.143C1743.49 503.928 1763.44 452.297 1748.4 405.484C1736.72 369.131 1719.22 331.686 1695.53 296.622C1671.72 261.375 1655.33 221.152 1661.74 184.601C1668.25 147.553 1695.27 114.785 1722.07 81.536C1746.82 50.8094 1771.77 21.3299 1787.68 -10.8848C1807.46 -50.9655 1813.19 -95.9217 1802.63 -139.106" stroke="#0049FF" stroke-miterlimit="10"/>
<path d="M410.461 656.201C442.147 583.112 492.345 506.465 577.704 478.261C639.051 457.98 711.581 467.263 766.571 497.551C810.593 521.786 844.634 556.226 888.145 574.069C942.855 596.335 1008.16 589.73 1067.58 564.248C1132.48 536.412 1179.55 485.886 1245.82 466.71C1294.8 452.538 1349.77 457.385 1400.13 471.161C1464.69 488.82 1509.98 524.72 1571.4 538.127C1625.17 549.706 1676.85 547.382 1713.72 525.457C1751.17 503.191 1771.03 454.21 1760.21 409.58C1751.22 372.518 1734.39 335.102 1711.25 300.251C1688.8 266.435 1670.95 228.919 1674.66 193.246C1678.54 155.83 1703.89 122.028 1730.54 89.3029C1755.65 58.477 1782.35 29.4653 1800 -2.91954C1822.12 -43.5388 1829.68 -89.813 1820.36 -134.401" stroke="#0049FF" stroke-miterlimit="10"/>
<path d="M412.977 658.61C446.804 584.132 496.771 505.601 583.728 476.135C645.421 455.23 718.905 463.975 773.813 495.495C817.259 520.44 849.686 556.694 893.049 577.074C947.529 602.557 1015.78 599.921 1075.05 574.736C1141.02 546.971 1187.14 492.831 1254.45 471.713C1304.56 455.982 1361.23 460.588 1413.08 474.052C1474.39 489.968 1521.99 520.695 1581.21 533.861C1631.9 545.015 1683.07 545.015 1720.93 523.728C1758.91 502.383 1778.89 456.166 1772.08 413.619C1766.04 375.877 1749.59 338.461 1727.04 303.822C1705.96 271.438 1686.58 236.658 1687.65 201.835C1688.82 164.093 1712.65 129.242 1739.06 97.027C1764.59 66.1445 1793 37.5721 1812.38 4.98887C1836.86 -36.1548 1846.24 -83.747 1838.16 -129.752" stroke="#0049FF" stroke-miterlimit="10"/>
<path d="M415.477 661.005C451.445 585.152 501.231 504.849 589.735 474.009C651.807 452.552 726.231 460.687 781.04 493.455C823.942 519.107 854.722 557.19 897.937 580.107C952.17 608.821 1023.3 609.983 1082.49 585.238C1149.45 557.388 1194.66 499.79 1263.06 476.731C1314.31 459.44 1372.64 463.89 1425.98 476.957C1484.07 491.187 1533.95 516.698 1590.97 529.609C1638.58 540.324 1689.22 542.634 1728.09 522.013C1766.58 501.576 1786.87 458.278 1783.92 417.687C1781.12 379.335 1764.74 341.862 1742.8 307.437C1723.07 276.483 1702.1 244.509 1700.61 210.466C1698.94 172.455 1721.27 136.456 1747.57 104.78C1773.43 73.7695 1803.62 45.7215 1824.75 12.9256C1851.58 -28.7282 1862.79 -77.6669 1855.92 -125.075" stroke="#0049FF" stroke-miterlimit="10"/>
<path d="M417.984 663.415C456.11 586.173 505.616 503.9 595.768 471.884C658.152 449.732 733.597 457.371 788.291 491.414C830.633 517.761 859.799 557.672 902.866 583.14C956.868 615.071 1030.86 620.06 1089.99 595.754C1157.92 567.819 1202.24 506.763 1271.71 481.762C1324.09 462.912 1384.06 467.32 1438.93 479.891C1493.79 492.463 1545.97 512.715 1600.79 525.4C1645.31 535.69 1695.45 540.296 1735.31 520.34C1774.32 500.81 1795.08 460.63 1795.8 421.797C1796.53 382.963 1779.92 345.306 1758.58 311.079C1740.18 281.557 1717.59 252.46 1713.59 219.14C1708.99 180.93 1729.91 143.698 1756.09 112.575C1782.28 81.4513 1814.26 53.9135 1837.12 20.9193C1866.32 -21.2307 1879.35 -71.5158 1873.72 -120.341" stroke="#0049FF" stroke-miterlimit="10"/>
<path d="M1070.94 951.094C1022.95 925.555 1020.71 862.968 1048.86 820.875C1077 778.781 1126.03 750.96 1169.61 720.106C1213.18 689.252 1255.08 649.625 1258.69 601.154C1263.28 539.204 1203.76 482.952 1211.39 421.216C1217.33 373.099 1263 336.703 1310.99 316.38C1338.13 304.885 1369.49 300.86 1397.57 291.365C1524.94 248.322 1638.18 317.811 1717.55 261.29C1803.48 200.092 1799.1 131.595 1783.23 97.8491C1762.89 54.622 1694.77 -41.1436 1560.63 -14.7538C1506.13 -4.03921 1450.22 5.0739 1394.44 2.09761C1310.91 -2.35265 1229.69 -58.9163 1224.35 -130.787C1220.69 -180.037 1250.39 -231.272 1229.72 -277.319C1215.84 -308.258 1180.66 -329.674 1143.14 -337.284C1105.62 -344.895 1066.05 -340.317 1028.96 -331.261" stroke="#0049FF" stroke-miterlimit="10"/>
<path d="M1074.67 950.924C1026.78 923.075 1022.43 859.368 1050.68 815.517C1078.25 772.715 1127.75 744.186 1172.27 713.983C1216.26 684.135 1258.66 646.549 1264.48 599.779C1271.84 539.998 1217.57 484.228 1225.56 422.817C1232.05 373.992 1274.43 336.406 1320.92 313.772C1347.63 300.775 1379.25 294.766 1408.29 284.562C1531.36 241.292 1642.05 307.309 1719.81 252.106C1803.43 192.708 1801.07 125.968 1786.15 91.9957C1767.26 48.9387 1701.35 -43.0428 1571.71 -20.1253C1518.27 -10.6721 1462.78 -3.01875 1407.54 -6.19346C1326.17 -10.7288 1247.37 -64.7696 1240.25 -134.046C1235.33 -181.979 1262.29 -232.519 1242.05 -278.127C1228.26 -309.364 1194.47 -331.403 1158.05 -340.558C1121.31 -349.799 1081.9 -347.56 1044.32 -340.204" stroke="#0049FF" stroke-miterlimit="10"/>
<path d="M1078.42 950.754C1030.61 920.594 1024.17 855.782 1052.52 810.146C1079.54 766.65 1129.48 737.397 1174.95 707.847C1219.33 678.991 1262.27 643.46 1270.29 598.376C1280.42 540.778 1231.26 485.447 1239.74 424.376C1246.64 374.828 1285.87 335.995 1330.86 311.121C1357.16 296.58 1389.03 288.629 1419 277.702C1537.81 234.376 1645.91 296.75 1722.08 242.865C1803.37 185.267 1803.03 120.299 1789.1 86.0857C1771.62 43.2271 1707.92 -45.0411 1582.8 -25.5393C1530.37 -17.3616 1475.36 -11.1539 1420.67 -14.5271C1341.45 -19.1474 1265.05 -70.6939 1256.16 -137.363C1249.95 -183.991 1274.19 -233.823 1254.36 -279.006C1240.68 -310.526 1208.23 -333.231 1172.96 -343.903C1136.95 -354.802 1097.76 -354.859 1059.65 -349.218" stroke="#0049FF" stroke-miterlimit="10"/>
<path d="M1082.18 950.57C1034.47 918.114 1025.95 852.183 1054.38 804.774C1080.88 760.584 1131.23 730.608 1177.63 701.696C1222.41 673.818 1265.88 640.356 1276.1 596.973C1289.01 541.557 1245.03 486.68 1253.94 425.95C1261.31 375.679 1297.33 335.541 1340.83 308.486C1366.72 292.371 1398.83 282.521 1429.76 270.857C1544.37 227.601 1649.82 286.206 1724.39 233.639C1803.36 177.841 1805.02 114.644 1792.06 80.2042C1776 37.544 1714.44 -47.0818 1593.92 -30.939C1542.46 -24.051 1487.98 -19.4023 1433.81 -22.8321C1356.77 -27.7217 1282.71 -76.6037 1272.1 -140.651C1264.59 -185.975 1286 -235.056 1266.72 -279.856C1253.03 -311.645 1222.04 -335.045 1187.89 -347.219C1152.63 -359.791 1113.64 -362.143 1075.03 -358.203" stroke="#0049FF" stroke-miterlimit="10"/>
<path d="M1085.92 950.4C1038.29 915.634 1027.72 848.625 1056.21 799.417C1082.18 754.546 1132.9 723.819 1180.3 695.573C1225.44 668.659 1269.46 637.28 1281.92 595.584C1297.59 542.337 1258.81 487.913 1268.13 427.523C1276 376.529 1308.78 335.045 1350.77 305.835C1376.25 288.119 1408.61 276.426 1440.5 263.997C1550.95 220.94 1653.72 275.647 1726.68 224.398C1803.33 170.385 1807 108.989 1795.02 74.2938C1780.37 31.8463 1720.9 -49.208 1605.05 -36.3532C1554.54 -30.755 1500.61 -27.5661 1446.97 -31.166C1372.08 -36.1832 1300.36 -82.5566 1288.04 -143.967C1279.21 -188.016 1297.91 -236.36 1279.08 -280.735C1265.48 -312.808 1235.85 -336.93 1202.85 -350.578C1168.31 -364.85 1129.53 -369.457 1090.41 -367.232" stroke="#0049FF" stroke-miterlimit="10"/>
<path d="M1089.66 950.23C1042.13 913.154 1029.5 845.068 1058.04 794.06C1083.52 748.523 1134.59 717.031 1182.97 689.45C1228.48 663.5 1273.14 634.233 1287.72 594.209C1306.28 543.173 1272.6 489.175 1282.32 429.11C1290.68 377.394 1320.18 334.493 1360.72 303.213C1385.79 283.882 1418.42 270.361 1451.22 257.166C1557.58 214.421 1657.6 265.117 1728.97 215.186C1803.3 162.973 1808.96 103.363 1797.98 68.4125C1784.72 26.1776 1727.28 -51.376 1616.16 -41.7385C1566.55 -37.4442 1513.2 -35.7151 1460.1 -39.4709C1387.37 -44.6156 1317.94 -88.4946 1303.97 -147.241C1293.79 -190.029 1309.8 -237.607 1291.42 -281.571C1277.9 -313.927 1249.62 -338.786 1217.77 -353.88C1183.96 -369.896 1145.41 -376.727 1105.78 -376.203" stroke="#0049FF" stroke-miterlimit="10"/>
<path d="M1093.43 950.06C1045.98 910.688 1031.34 841.51 1059.91 788.688C1084.91 742.485 1136.31 710.213 1185.69 683.313C1231.54 658.327 1276.79 631.158 1293.56 592.806C1314.9 543.966 1286.43 490.407 1296.52 430.683C1305.39 378.258 1331.6 333.897 1370.7 300.577C1395.32 279.587 1428.23 264.294 1461.99 250.334C1564.28 208.014 1661.51 254.586 1731.29 205.973C1803.29 155.561 1810.94 97.7356 1800.97 62.5446C1789.08 20.5364 1733.65 -53.6157 1627.31 -47.1246C1578.59 -44.1483 1525.82 -43.8507 1473.29 -47.7765C1402.73 -53.0488 1335.52 -94.4476 1319.94 -150.529C1308.4 -192.07 1321.74 -238.883 1303.82 -282.407C1290.38 -315.047 1263.47 -340.686 1232.76 -357.183C1199.67 -374.956 1161.33 -383.984 1121.2 -385.174" stroke="#0049FF" stroke-miterlimit="10"/>
<path d="M1097.16 949.89C1049.82 908.208 1033.15 837.967 1061.74 783.331C1086.26 736.476 1137.96 703.411 1188.34 677.177C1234.53 653.125 1280.38 628.082 1299.34 591.417C1323.47 544.76 1300.21 491.655 1310.69 432.256C1320.06 379.108 1342.93 333.259 1380.61 297.941C1404.79 275.278 1437.99 258.257 1472.69 243.489C1570.96 201.679 1665.36 244.042 1733.54 196.747C1803.24 148.134 1812.83 92.1092 1803.88 56.6489C1793.34 14.8674 1738.4 -67.6466 1638.37 -52.5242C1591.17 -45.3953 1538.39 -51.9999 1486.38 -56.0958C1417.98 -61.4815 1352.96 -100.428 1335.83 -153.831C1322.91 -194.139 1333.61 -240.158 1316.12 -283.272C1302.76 -316.209 1277.22 -342.642 1247.64 -360.513C1215.28 -380.072 1177.15 -391.283 1136.53 -394.174" stroke="#0049FF" stroke-miterlimit="10"/>
<path d="M1100.92 949.72C1053.67 905.727 1034.98 834.438 1063.59 777.974C1087.66 730.466 1139.64 696.579 1191.02 671.054C1237.55 647.938 1283.99 625.021 1305.15 590.042C1332.06 545.582 1314.03 492.916 1324.88 433.858C1334.78 380.001 1354.28 332.622 1390.58 295.319C1414.29 270.956 1447.81 252.234 1483.43 236.658C1577.72 195.429 1669.25 233.511 1735.84 187.535C1803.21 140.722 1814.76 86.4968 1806.85 50.7813C1797.66 9.24082 1744.86 -71.0765 1649.49 -57.9099C1603.01 -51.4896 1550.99 -60.1351 1499.52 -64.3869C1433.28 -69.8718 1370.39 -106.395 1351.76 -157.091C1337.4 -196.18 1345.52 -241.405 1328.47 -284.094C1315.2 -317.315 1291.04 -344.569 1262.58 -363.802C1230.96 -385.174 1193.05 -398.525 1151.89 -403.145" stroke="#0049FF" stroke-miterlimit="10"/>
<path d="M1104.65 949.535C1057.48 903.247 1036.81 830.881 1065.42 772.588C1089.05 724.429 1141.28 689.72 1193.7 664.903C1240.55 642.723 1287.59 621.931 1310.96 588.625C1340.64 546.362 1327.86 494.149 1339.07 435.403C1349.48 380.823 1365.57 331.913 1400.53 292.654C1423.75 266.591 1457.62 246.196 1494.18 229.784C1584.53 189.221 1673.15 222.938 1738.13 178.28C1803.19 133.267 1816.67 80.856 1809.81 44.857C1801.93 3.5575 1751.36 -74.4354 1660.6 -63.3381C1614.75 -57.7257 1563.59 -68.2986 1512.65 -72.7347C1448.57 -78.3188 1387.75 -112.404 1367.69 -160.422C1351.87 -198.292 1357.43 -242.723 1340.82 -284.987C1327.64 -318.491 1304.86 -346.596 1277.53 -367.161C1246.66 -390.361 1208.93 -405.852 1167.27 -412.173" stroke="#0049FF" stroke-miterlimit="10"/>
<path d="M1108.41 949.365C1061.34 900.767 1038.69 827.352 1067.27 767.231C1090.46 718.434 1142.93 682.888 1196.37 658.78C1243.54 637.507 1291.18 618.855 1316.77 587.25C1349.22 547.169 1341.69 495.41 1353.27 436.99C1364.22 381.702 1376.85 331.218 1410.48 290.032C1433.19 262.239 1467.43 240.229 1504.92 222.952C1591.36 183.127 1677.03 212.408 1740.44 169.067C1803.17 125.855 1818.59 75.2576 1812.79 38.9753C1806.22 -2.06917 1757.95 -77.6386 1671.73 -68.7239C1626.41 -64.0468 1576.21 -76.4197 1525.82 -81.04C1463.89 -86.7233 1405.08 -118.385 1383.64 -163.71C1366.3 -200.375 1369.38 -243.999 1353.17 -285.837C1340.09 -319.639 1318.72 -348.594 1292.47 -370.477C1262.39 -395.535 1224.81 -413.137 1182.65 -421.159" stroke="#0049FF" stroke-miterlimit="10"/>
<path d="M1112.15 949.195C1065.16 898.287 1040.55 823.837 1069.1 761.873C1091.87 712.439 1144.56 676.029 1199.04 652.658C1246.52 632.291 1294.75 615.794 1322.57 585.861C1357.78 547.963 1355.53 496.658 1367.43 438.578C1378.91 382.567 1388.05 330.51 1420.41 287.41C1442.58 257.889 1477.25 234.277 1515.62 216.135C1598.2 177.104 1680.89 201.892 1742.7 159.869C1803.1 118.457 1820.45 69.6737 1815.72 33.122C1810.45 -7.66728 1764.42 -66.6545 1682.81 -74.0952C1637.99 -78.1911 1588.79 -84.5264 1538.92 -89.331C1479.16 -95.0993 1422.27 -124.338 1399.55 -166.97C1380.66 -202.416 1381.27 -245.246 1365.51 -286.645C1352.51 -320.73 1332.57 -350.578 1307.39 -373.751C1278.1 -400.693 1240.69 -420.365 1198 -430.102" stroke="#0049FF" stroke-miterlimit="10"/>
<path d="M1115.91 949.025C1069.02 895.821 1042.47 820.322 1070.96 756.516C1093.33 706.444 1146.21 669.169 1201.74 646.521C1249.52 627.048 1298.38 612.719 1328.41 584.473C1366.37 548.757 1369.4 497.905 1381.65 440.151C1393.67 383.431 1399.29 329.773 1430.4 284.76C1452.01 253.495 1487.14 228.31 1526.4 209.276C1605.14 171.094 1684.91 191.446 1745.02 150.629C1803.21 111.115 1822.35 64.0472 1818.71 27.2121C1814.7 -13.3363 1770.52 -69.7016 1693.95 -79.5092C1649.83 -85.1641 1601.41 -92.6615 1552.11 -97.6645C1494.5 -103.504 1439.47 -130.319 1415.51 -170.286C1395.01 -204.499 1393.23 -246.55 1377.88 -287.523C1365 -321.907 1346.49 -352.633 1322.35 -377.096C1293.9 -405.923 1256.59 -427.678 1213.4 -439.116" stroke="#0049FF" stroke-miterlimit="10"/>
<path d="M1119.64 948.855C1072.83 893.34 1044.36 816.807 1072.78 751.145C1094.73 700.434 1147.81 662.267 1204.4 640.384C1252.48 621.789 1301.95 609.629 1334.19 583.069C1374.92 549.537 1383.24 499.152 1395.82 441.724C1408.4 384.296 1410.45 329.036 1440.34 282.124C1461.37 249.116 1496.99 222.4 1537.13 202.43C1612.08 165.142 1688.81 180.902 1747.3 141.416C1803.17 103.703 1824.18 58.4489 1821.66 21.3303C1818.91 -18.963 1776.57 -72.8905 1705.06 -84.909C1661.65 -92.208 1614 -100.783 1565.24 -105.984C1509.79 -111.894 1456.54 -136.257 1431.44 -173.588C1409.26 -206.568 1405.18 -247.84 1390.24 -288.388C1377.46 -323.069 1360.41 -354.674 1337.29 -380.426C1309.71 -411.153 1272.47 -434.963 1228.78 -448.115" stroke="#0049FF" stroke-miterlimit="10"/>
<path d="M1123.39 948.685C1076.69 890.86 1046.28 813.292 1074.63 745.787C1096.18 694.453 1149.45 655.379 1207.07 634.261C1255.44 616.531 1305.52 606.554 1339.99 581.694C1383.47 550.344 1397.09 500.413 1410 443.311C1423.14 385.174 1421.58 328.327 1450.27 279.502C1470.69 244.75 1506.87 216.532 1547.83 195.599C1619.01 159.246 1692.66 170.371 1749.56 132.204C1803.1 96.2902 1825.99 52.8505 1824.58 15.4627C1823.06 -24.5755 1782.61 -76.2212 1716.15 -90.2806C1673.44 -99.3087 1626.57 -108.861 1578.35 -114.261C1525.06 -120.228 1473.54 -142.125 1447.35 -176.848C1423.44 -208.553 1417.08 -249.101 1402.56 -289.21C1389.89 -324.174 1374.31 -356.687 1352.2 -383.714C1325.48 -416.354 1288.31 -442.22 1244.13 -457.073" stroke="#0049FF" stroke-miterlimit="10"/>
<path d="M1127.14 948.501C1080.53 888.366 1048.2 809.763 1076.48 740.416C1097.66 688.444 1151.07 648.463 1209.76 628.125C1258.43 611.259 1309.12 603.464 1345.83 580.291C1392.06 551.11 1410.98 501.661 1424.21 444.87C1437.91 386.011 1432.72 327.576 1460.24 276.852C1480.05 240.357 1516.81 210.665 1558.59 188.739C1626.03 153.364 1696.57 159.813 1751.89 122.963C1803.11 88.8494 1827.85 47.2239 1827.58 9.55259C1827.3 -30.2446 1788.8 -79.7644 1727.3 -95.6946C1685.34 -106.565 1639.23 -116.982 1591.53 -122.595C1540.39 -128.618 1490.53 -147.992 1463.32 -180.15C1437.61 -210.537 1429.06 -250.391 1414.93 -290.075C1402.38 -325.337 1388.29 -358.756 1367.16 -387.045C1341.35 -421.598 1304.23 -449.505 1259.52 -466.073" stroke="#0049FF" stroke-miterlimit="10"/>
<path d="M1130.9 948.33C1084.37 885.899 1050.16 806.262 1078.33 735.044C1099.13 682.449 1152.7 641.518 1212.45 621.987C1261.4 605.972 1312.71 600.374 1351.65 578.902C1400.63 551.889 1424.87 502.922 1438.41 446.457C1452.68 386.903 1443.82 326.853 1470.21 274.215C1489.38 235.977 1526.78 204.854 1569.35 181.908C1633.09 147.553 1700.46 149.268 1754.2 113.751C1803.1 81.4226 1829.68 41.6111 1830.55 3.67055C1831.47 -35.8857 1795.03 -83.4355 1738.42 -101.095C1697.27 -113.935 1651.83 -125.075 1604.68 -130.914C1555.68 -136.98 1507.43 -153.803 1479.27 -183.453C1451.68 -212.465 1441.01 -251.681 1427.27 -290.925C1414.84 -326.485 1402.26 -360.797 1382.08 -390.362C1357.21 -426.828 1320.09 -456.79 1274.88 -475.058" stroke="#0049FF" stroke-miterlimit="10"/>
<path d="M1134.65 948.161C1088.23 883.419 1052.13 802.762 1080.18 729.687C1100.61 676.468 1154.32 634.587 1215.14 615.851C1264.38 600.686 1316.26 597.199 1357.46 577.499C1409.14 552.569 1438.76 504.169 1452.61 448.017C1467.46 387.754 1454.91 326.116 1480.16 271.565C1498.67 231.57 1536.76 199.071 1580.08 175.048C1640.16 141.728 1704.25 138.624 1756.48 104.51C1802.97 73.8971 1831.44 35.9848 1833.5 -2.22507C1835.61 -41.5404 1801.35 -87.2619 1749.53 -106.494C1709.28 -121.433 1664.41 -133.153 1617.81 -139.234C1570.97 -145.342 1524.26 -159.543 1495.18 -186.755C1465.7 -214.321 1452.97 -252.984 1439.63 -291.79C1427.31 -327.647 1416.24 -362.852 1397.02 -393.692C1373.11 -432.072 1335.97 -464.074 1290.25 -484.058" stroke="#0049FF" stroke-miterlimit="10"/>
<path d="M1138.38 947.991C1092.04 880.939 1054.07 799.261 1082.01 724.33C1102.08 670.473 1155.92 627.643 1217.79 609.728C1267.32 595.386 1319.84 594.124 1363.25 576.125C1417.69 553.377 1452.63 505.445 1466.77 449.618C1482.22 388.647 1465.97 325.422 1490.09 268.958C1507.93 227.219 1546.78 193.388 1590.8 168.231C1647.24 135.988 1708.13 128.108 1758.75 95.3123C1802.92 66.499 1833.19 30.3867 1836.44 -8.09241C1839.73 -47.1668 1807.81 -91.1734 1760.61 -111.88C1721.42 -129.071 1676.97 -141.218 1630.94 -147.539C1586.24 -153.675 1541.08 -165.198 1511.11 -190.029C1479.67 -216.078 1464.91 -254.26 1451.98 -292.626C1439.8 -328.78 1430.26 -364.864 1411.96 -396.994C1389.04 -437.287 1351.87 -471.345 1305.64 -493.029" stroke="#0049FF" stroke-miterlimit="10"/>
<path d="M1142.13 947.82C1095.89 878.473 1056.07 795.76 1083.85 718.972C1103.56 664.492 1157.53 620.684 1220.48 603.605C1270.3 590.085 1323.44 591.063 1369.06 574.735C1426.27 554.157 1466.64 506.72 1480.95 451.191C1497.14 389.554 1477 324.699 1500.04 266.321C1517.2 222.853 1556.86 187.733 1601.54 161.386C1654.37 130.234 1712.01 117.563 1761.04 86.0856C1802.89 59.0723 1834.95 24.7457 1839.4 -13.9744C1843.86 -52.822 1814.52 -95.1845 1771.73 -117.266C1733.77 -136.881 1689.56 -149.282 1644.08 -155.858C1601.54 -162.009 1557.89 -170.796 1527.03 -193.331C1493.58 -217.751 1476.95 -255.578 1464.32 -293.49C1452.33 -329.971 1444.26 -366.906 1426.9 -400.325C1404.96 -442.517 1367.74 -478.63 1321 -502.029" stroke="#0049FF" stroke-miterlimit="10"/>
<path d="M1145.88 947.65C1099.71 875.992 1058.18 792.288 1085.68 713.601C1105.13 658.525 1159.12 613.696 1223.15 597.469C1273.25 584.77 1327.04 587.973 1374.88 573.346C1434.86 554.95 1480.48 507.982 1495.15 452.764C1511.88 390.404 1488.04 323.99 1509.99 263.671C1526.44 218.459 1567.02 182.135 1612.26 154.54C1661.54 124.494 1715.9 107.019 1763.32 76.8591C1802.86 51.6456 1836.67 19.1049 1842.34 -19.8703C1847.95 -58.4912 1821.44 -99.238 1782.82 -122.68C1746.32 -144.832 1702.12 -157.318 1657.19 -164.164C1616.79 -170.315 1574.7 -176.296 1542.94 -196.619C1507.47 -219.31 1488.86 -256.854 1476.64 -294.341C1464.75 -331.105 1458.26 -368.932 1441.81 -403.641C1420.89 -447.733 1383.59 -485.915 1336.34 -511.015" stroke="#0049FF" stroke-miterlimit="10"/>
<path d="M1149.63 947.466C1103.56 873.498 1060.05 788.745 1087.54 708.229C1106.56 652.502 1160.75 606.695 1225.83 591.318C1276.23 579.413 1330.64 584.869 1380.69 571.929C1443.44 555.716 1494.33 509.201 1509.35 454.324C1526.6 391.255 1499.07 323.268 1519.95 261.021C1535.7 214.08 1577.26 176.607 1623.01 147.681C1668.77 118.754 1719.8 96.4603 1765.64 67.6186C1802.86 44.2051 1838.43 13.4502 1845.33 -25.7801C1852.08 -64.1884 1828.7 -103.277 1793.96 -128.094C1759.25 -152.91 1714.73 -165.368 1670.36 -172.497C1632.11 -178.648 1591.59 -181.738 1558.9 -199.921C1521.42 -220.784 1500.8 -258.143 1489.02 -295.191C1477.25 -332.253 1472.34 -370.959 1456.78 -406.958C1436.9 -452.948 1399.51 -493.185 1351.75 -520" stroke="#0049FF" stroke-miterlimit="10"/>
</svg>
