<svg width="428" height="654" viewBox="0 0 428 654" fill="none" xmlns="http://www.w3.org/2000/svg">
<g opacity="0.2">
<path d="M248.301 45.1382C245.466 108.431 241.898 170.842 237.629 231.931C235.73 259.084 233.623 286.58 229.961 308.273C220.591 363.731 204.198 365.469 190.206 353.398C177.32 342.307 164.688 323.184 152.666 296.594C140.753 270.249 129.23 236.24 116.461 225.075C103.697 213.91 88.8455 231.857 81.9674 288.98C77.8772 322.964 77.2238 365.959 78.8222 405.208C80.4207 444.432 84.0877 480.547 88.1544 514.605C92.8134 553.608 98.22 593.077 98.9205 638.863C99.6445 686.266 94.614 734.72 86.6076 757.54C75.2163 790.006 61.2674 769.635 48.4938 757.515C32.2648 742.09 14.8557 742.237 0.0276962 779.894C-14.8003 817.576 -26.2622 899.428 -24.739 985.001" stroke="#0049FF" stroke-miterlimit="10"/>
<path d="M245.42 32.3325C242.656 94.2049 239.149 155.171 234.936 214.767C233.06 241.259 230.982 268.07 227.409 289.298C218.284 343.604 202.422 346.591 188.816 336.259C185.586 333.81 182.371 330.823 179.174 327.347C169.973 317.308 160.942 303.058 152.221 284.792C140.58 260.381 129.297 228.527 116.82 218.292C104.347 208.033 90.2759 226.764 83.0123 279.847C80.2855 299.826 78.4191 321.348 77.6293 344.584C77.0886 360.401 76.9711 376.83 77.2908 393.161C77.4365 400.629 77.6622 408.097 77.9725 415.589C79.223 445.558 81.8793 474.89 84.7894 502.778C85.0762 505.545 85.3677 508.287 85.6639 511.054C90.2148 553.853 95.0196 597.607 95.2828 645.45C95.5367 691.529 90.8636 738.417 83.064 760.894C71.9689 792.895 58.4337 774.556 46.0692 764.346C45.096 763.538 44.1181 762.804 43.1355 762.118C28.2981 751.786 12.7837 755.997 -0.455323 791.647C-14.5688 829.647 -25.3489 909.735 -23.6423 992.885" stroke="#0049FF" stroke-miterlimit="10"/>
<path d="M242.542 19.5273C239.853 79.9796 236.402 139.526 232.242 197.628C230.389 223.459 228.339 249.559 224.86 270.371C215.975 323.527 200.644 327.788 187.424 319.144C184.283 317.088 181.157 314.541 178.049 311.505C169.098 302.715 160.297 289.812 151.778 273.016C140.41 250.563 129.367 220.864 117.186 211.535C105.009 202.182 91.6291 221.598 84.0646 270.763C81.0135 290.596 78.517 310.134 77.1866 332.684C76.2792 348.061 75.7667 364.392 75.7526 381.164C75.7432 388.827 75.8326 396.638 76.03 404.547C76.8199 436.23 79.462 468.28 82.3157 498.543C82.5978 501.554 82.8846 504.541 83.1714 507.528C87.6141 554.123 91.8312 601.965 91.6479 652.085C91.4833 696.769 87.1205 742.139 79.5278 764.322C68.7241 795.883 55.6027 779.576 43.6566 771.251C42.7163 770.59 41.7713 770.003 40.8217 769.464C26.4967 761.384 11.6451 767.481 -0.921564 803.448C-14.3204 841.791 -24.4236 920.093 -22.5289 1000.79" stroke="#0049FF" stroke-miterlimit="10"/>
<path d="M239.667 6.72168C237.049 65.7784 233.659 123.856 229.555 180.488C227.731 205.658 225.7 231.073 222.315 251.42C213.669 303.425 198.869 308.934 186.039 302.03C182.993 300.389 179.956 298.259 176.933 295.639C168.231 288.098 159.655 276.566 151.343 261.214C140.248 240.72 129.444 213.151 117.555 204.728C105.67 196.305 92.9056 216.285 85.1155 261.63C81.7259 281.365 78.623 298.871 76.7518 320.76C75.4778 335.671 74.5704 351.929 74.2272 369.142C74.0674 377.026 74.0157 385.13 74.0956 393.479C74.42 426.876 77.048 461.62 79.85 494.307C80.1274 497.538 80.4048 500.77 80.6869 504.002C85.0262 554.392 88.665 606.152 88.0163 658.696C87.4803 701.911 83.376 745.861 75.9902 767.701C65.4827 798.796 52.7703 784.522 41.2379 778.107C40.3305 777.593 39.4185 777.152 38.5017 776.76C24.6845 770.908 10.5005 778.915 -1.39859 815.225C-14.0875 853.911 -23.5043 930.425 -21.4216 1008.7" stroke="#0049FF" stroke-miterlimit="10"/>
<path d="M236.788 -6.05908C234.245 51.5775 230.916 108.21 226.859 163.349C225.058 187.858 223.055 212.563 219.764 232.494C211.358 283.373 197.09 290.13 184.65 284.915C181.693 283.691 178.745 281.977 175.812 279.798C167.359 273.505 159.014 263.32 150.909 249.437C140.086 230.878 129.522 205.487 117.924 197.97C106.33 190.454 94.1116 210.849 86.1711 252.522C82.4194 272.208 78.7289 287.657 76.3218 308.861C74.6716 323.307 73.374 339.491 72.697 357.12C72.382 365.2 72.194 373.622 72.1564 382.412C72.02 417.523 74.6293 454.985 77.3749 490.046C77.6475 493.523 77.9202 497 78.1929 500.477C82.4241 554.686 85.5082 610.241 84.3752 665.331C83.5195 707.028 79.6221 749.582 72.4432 771.104C62.2318 801.734 49.9331 789.492 38.8097 784.987C37.9353 784.644 37.0561 784.326 36.1723 784.081C22.8628 780.482 9.34643 790.398 -1.88508 827.002C-13.8594 866.006 -22.5945 940.758 -20.3284 1016.61" stroke="#0049FF" stroke-miterlimit="10"/>
<path d="M233.908 -18.8643C231.435 37.3522 228.167 92.5403 224.167 146.21C222.389 170.058 220.41 194.078 217.213 213.543C209.047 263.271 195.31 271.302 183.255 267.801C180.392 266.968 177.534 265.695 174.685 263.932C166.481 258.888 158.362 250.074 150.464 237.636C139.914 221.035 129.59 197.775 118.283 191.189C106.986 184.578 95.2416 205.194 87.2164 243.414C83.0887 263.075 78.8245 276.419 75.8768 296.962C73.8599 310.967 72.1627 327.029 71.1566 345.123C70.6912 353.399 70.3621 362.139 70.207 371.37C69.6099 408.195 72.205 448.349 74.8942 485.835C75.1622 489.532 75.4255 493.254 75.6934 496.976C79.8165 554.98 82.3693 614.257 80.7333 671.967C79.5956 712.097 75.8674 753.329 68.9 774.508C58.9849 804.673 47.0952 794.463 36.3902 791.867C35.544 791.672 34.7024 791.525 33.8562 791.427C21.0591 790.056 8.20566 801.882 -2.35825 838.804C-13.618 878.151 -21.6761 951.115 -19.222 1024.54" stroke="#0049FF" stroke-miterlimit="10"/>
<path d="M231.034 -31.6699C228.636 23.1264 225.425 76.8945 221.476 129.071C219.723 152.258 217.772 175.592 214.669 194.616C206.742 243.193 193.541 252.473 181.872 250.686C179.098 250.269 176.329 249.388 173.57 248.09C165.615 244.295 157.726 236.827 150.03 225.858C139.753 211.217 129.668 190.111 118.653 184.431C107.647 178.726 96.3311 199.391 88.2683 234.33C83.7409 253.942 78.9315 265.205 75.4431 285.086C73.0548 298.626 70.9674 314.615 69.6275 333.125C69.0069 341.621 68.5415 350.656 68.2735 360.327C67.2157 398.866 69.7921 441.714 72.4295 481.599C72.6928 485.541 72.9514 489.508 73.2099 493.45C77.2296 555.249 79.27 618.174 77.1026 678.602C75.7205 717.165 72.1239 757.075 65.3634 777.935C55.7397 807.66 44.2638 799.457 33.9725 798.772C33.1592 798.723 32.3506 798.723 31.5372 798.772C19.2479 799.653 7.06204 813.365 -2.82959 850.606C-13.3747 890.295 -20.7511 961.471 -18.109 1032.48" stroke="#0049FF" stroke-miterlimit="10"/>
<path d="M228.153 -44.4756C225.826 8.90068 222.676 61.2241 218.783 111.907C217.053 134.433 215.13 157.057 212.117 175.64C204.435 223.067 191.76 233.62 180.482 233.522C177.802 233.522 175.122 233.057 172.447 232.175C164.741 229.629 157.083 223.532 149.589 214.008C139.585 201.349 129.74 182.398 119.011 177.624C108.302 172.825 96.1489 186.414 89.3131 225.173C83.7843 239.839 79.0266 253.942 74.9975 273.138C72.2425 286.212 69.7555 302.127 68.0865 321.078C67.3155 329.77 66.709 339.124 66.3235 349.236C64.805 389.488 67.3625 435.054 69.9436 477.339C70.1974 481.525 70.4513 485.712 70.7052 489.899C74.6167 555.493 76.1775 622.042 73.4508 685.188C71.8523 722.208 68.3592 760.747 61.8055 781.29C52.4781 810.549 41.4111 804.378 31.5336 805.603C30.7532 805.701 29.9774 805.848 29.197 806.043C17.4202 809.153 5.89247 824.774 -3.32687 862.333C-13.1574 902.341 -19.8568 971.755 -17.0266 1040.34" stroke="#0049FF" stroke-miterlimit="10"/>
<path d="M225.275 -57.2808C223.023 -5.3246 219.929 45.5542 216.088 94.7681C214.382 116.633 212.482 138.571 209.567 156.714C202.125 202.99 189.982 214.791 179.089 216.432C176.498 216.824 173.908 216.799 171.322 216.358C163.866 215.061 156.433 210.311 149.146 202.255C139.414 191.507 129.809 174.71 119.377 170.842C108.959 166.973 97.1958 179.925 90.3648 216.064C84.3941 229.923 79.1333 242.704 74.5636 261.214C71.4372 273.848 68.56 289.665 66.5572 309.032C65.631 317.92 64.8882 327.616 64.3852 338.144C62.4059 380.111 64.9493 428.37 67.4739 473.054C67.7231 477.461 67.9723 481.893 68.2168 486.349C72.0201 555.763 73.1297 625.887 69.8152 691.799C68.0334 727.252 64.6108 764.469 58.2687 784.669C49.2374 813.462 38.5842 809.325 29.1204 812.459C28.3729 812.703 27.6301 812.997 26.8826 813.365C15.6134 818.727 4.75333 836.233 -3.79842 874.135C-12.919 914.486 -18.932 982.112 -15.9185 1048.27" stroke="#0049FF" stroke-miterlimit="10"/>
<path d="M222.397 -70.0859C220.22 -19.5499 217.183 29.8844 213.399 77.6292C211.716 98.8573 209.844 120.085 207.019 137.763C199.816 182.913 188.204 195.963 177.701 199.293C175.205 200.101 172.704 200.493 170.203 200.468C162.995 200.419 155.793 197.04 148.708 190.454C139.249 181.664 129.884 166.998 119.743 164.06C109.616 161.097 98.2392 173.437 91.4128 206.956C85.0002 220.031 79.2317 231.465 74.126 249.315C70.6329 261.483 67.3561 277.203 65.0242 297.035C63.9476 306.143 63.0637 316.133 62.4479 327.102C60.0079 370.782 62.5325 421.735 65.0054 468.843C65.2499 473.495 65.4943 478.172 65.7294 482.848C69.4294 556.057 70.1205 629.804 66.1854 698.434C64.2391 732.37 60.8682 768.191 54.733 788.072C45.9979 816.401 35.7536 814.295 26.7035 819.339C25.9889 819.731 25.279 820.196 24.5644 820.686C13.8078 828.276 3.61055 847.692 -4.2736 885.912C-12.6796 926.581 -18.0109 992.42 -14.8093 1056.18" stroke="#0049FF" stroke-miterlimit="10"/>
<path d="M219.521 -82.8916C217.415 -33.7512 214.439 14.2385 210.706 60.4653C209.047 81.0323 207.204 101.55 204.472 118.812C197.509 162.811 186.428 177.134 176.311 182.178C173.904 183.378 171.492 184.21 169.08 184.626C162.122 185.851 155.15 183.794 148.268 178.677C139.086 171.821 129.956 159.334 120.107 157.302C110.276 155.245 99.2796 166.973 92.4626 197.848C85.6081 210.139 79.3365 220.251 73.6855 237.415C69.821 249.119 66.1539 264.764 63.4883 285.013C62.2565 294.317 61.2363 304.625 60.5029 316.035C57.6022 361.429 60.108 415.099 62.5245 464.582C62.7642 469.479 62.9993 474.376 63.2297 479.298C66.8215 556.301 67.1318 633.722 62.5386 705.045C60.4512 737.462 57.1085 771.912 51.1848 791.475C42.7412 819.363 32.9107 819.29 24.2744 826.219C23.5927 826.758 22.9157 827.37 22.234 828.006C11.985 837.849 2.45542 859.175 -4.75644 897.689C-12.4478 938.701 -17.1022 1002.75 -13.7125 1064.09" stroke="#0049FF" stroke-miterlimit="10"/>
<path d="M216.638 -95.6968C214.607 -47.9764 211.688 -1.43135 208.011 43.3264C206.375 63.2323 204.556 83.0647 201.918 99.8611C195.195 142.709 184.65 158.281 174.919 165.039C172.606 166.655 170.283 167.904 167.951 168.736C161.247 171.209 154.505 170.523 147.829 166.875C138.92 161.978 130.03 151.621 120.472 150.52C110.933 149.369 100.322 160.46 93.5101 188.715C86.2137 200.199 79.4343 208.989 73.2474 225.491C69.0114 236.754 64.9495 252.302 61.9547 272.991C60.5725 282.516 59.4113 293.118 58.5604 304.968C55.1989 352.076 57.6906 408.44 60.0507 460.347C60.2858 465.464 60.5161 470.63 60.7371 475.797C64.2208 556.596 64.1879 637.762 58.8989 711.681C56.6845 742.629 53.356 775.634 47.6391 794.879C39.4917 822.302 30.0749 824.26 21.8523 833.099C21.2035 833.809 20.5594 834.544 19.9153 835.352C10.1788 847.423 1.31211 870.659 -5.23216 909.491C-12.209 950.845 -16.1816 1013.11 -12.6086 1072.02" stroke="#0049FF" stroke-miterlimit="10"/>
<path d="M213.763 -108.502C211.802 -62.2022 208.944 -17.1017 205.319 26.1869C203.706 45.4318 201.915 64.5542 199.372 80.9344C192.889 122.632 182.875 139.477 173.533 147.924C171.309 149.956 169.076 151.597 166.834 152.894C160.374 156.616 153.858 157.277 147.384 155.073C138.748 152.135 130.097 143.933 120.831 143.737C111.588 143.492 101.363 153.972 94.5553 179.631C86.8169 190.331 79.5298 197.775 72.8021 213.616C68.1995 224.414 63.7427 239.888 60.4141 261.018C58.8768 270.738 57.5792 281.658 56.6154 293.95C52.7932 342.772 55.2661 401.853 57.5745 456.135C57.8049 461.497 58.0258 466.884 58.2421 472.295C61.6224 556.914 61.2839 641.899 55.2614 718.34C52.9343 747.844 49.6057 779.404 44.0957 798.306C36.2445 825.264 27.2367 829.255 19.4278 840.004C18.8119 840.861 18.2008 841.742 17.5896 842.697C8.36084 857.02 0.161697 882.142 -5.71498 921.292C-11.9772 962.965 -15.2728 1023.47 -11.507 1079.93" stroke="#0049FF" stroke-miterlimit="10"/>
<path d="M210.88 -121.308C208.995 -76.428 206.193 -32.7721 202.624 9.02302C201.035 27.6068 199.267 46.0436 196.818 61.9586C190.579 102.505 181.092 120.599 172.141 130.785C170.011 133.209 167.867 135.29 165.709 137.004C159.499 141.974 153.208 143.982 146.942 143.247C138.578 142.243 130.167 136.196 121.192 136.906C112.241 137.591 103.069 153.898 95.6029 170.45C87.8739 187.589 79.6324 186.487 72.3641 201.618C67.3901 211.951 62.5383 227.327 58.8807 248.898C57.1929 258.814 55.7543 270.077 54.673 282.785C50.3901 333.321 52.8441 395.095 55.0961 451.777C55.3171 457.384 55.538 463.015 55.7449 468.647C59.017 557.06 58.4199 646.012 51.6171 724.853C49.1912 752.961 45.8486 783.003 40.5501 801.587C32.9904 828.079 24.3963 834.103 17.0058 846.761C16.4228 847.765 15.8446 848.793 15.2663 849.895C6.54533 866.447 -0.986227 893.478 -6.19532 932.947C-11.7476 974.962 -14.3568 1033.68 -10.4077 1087.71" stroke="#0049FF" stroke-miterlimit="10"/>
<path d="M208.006 -134.089C206.192 -90.6288 203.455 -48.4175 199.934 -8.09151C198.369 9.83117 196.629 27.5824 194.274 43.0567C188.275 82.4768 179.319 101.82 170.753 113.695C168.717 116.535 166.658 119.032 164.589 121.187C158.628 127.406 152.568 130.785 146.503 131.495C138.412 132.45 130.241 128.557 121.558 130.173C112.903 131.764 103.989 146.945 96.6551 161.39C88.4324 177.575 79.7397 175.273 71.9307 189.768C66.59 199.635 61.3433 214.938 57.3519 236.925C55.5089 247.062 53.934 258.618 52.7351 271.767C47.9868 324.017 50.4315 388.484 52.627 447.59C52.8433 453.417 53.0548 459.294 53.257 465.194C56.421 557.403 55.6124 650.469 47.9821 731.537C45.4622 758.299 42.1007 786.799 37.0091 805.064C29.7456 831.116 21.5652 839.147 14.5837 853.715C14.0337 854.866 13.4883 856.065 12.943 857.29C4.73442 876.094 -2.13894 905.01 -6.67103 944.822C-11.5087 987.18 -13.4363 1044.11 -9.30379 1095.72" stroke="#0049FF" stroke-miterlimit="10"/>
<path d="M205.124 -146.894C203.384 -104.854 200.704 -64.0629 197.239 -25.2304C195.697 -7.96885 193.986 9.07239 191.72 24.1059C185.961 62.3752 177.536 82.9912 169.361 96.5801C167.414 99.8365 165.449 102.75 163.465 105.321C157.753 112.789 151.923 117.514 146.065 119.693C138.247 122.607 130.316 120.844 121.924 123.391C113.56 125.888 104.919 139.82 97.7026 152.282C88.9676 167.365 79.8375 164.059 71.488 177.869C65.7758 187.271 60.1342 202.476 55.8137 224.903C53.8203 235.236 52.1043 247.111 50.7879 260.7C45.5789 314.664 48.0048 381.849 50.1486 443.33C50.3601 449.402 50.567 455.499 50.7597 461.644C53.8203 557.648 52.8424 655.023 44.3424 738.148C41.7379 763.588 38.3482 790.521 33.4635 808.443C26.4961 834.03 18.7248 844.093 12.157 860.571C11.6399 861.868 11.1274 863.215 10.615 864.611C2.91417 885.643 -3.2916 916.469 -7.15611 956.599C-11.2792 999.276 -12.5297 1054.44 -8.20451 1103.63" stroke="#0049FF" stroke-miterlimit="10"/>
<path d="M202.253 -159.699C200.588 -119.079 197.965 -79.7327 194.552 -42.3938C193.033 -25.7933 191.345 -9.43765 189.178 5.15513C183.659 42.2737 175.77 64.1383 167.98 79.4412C166.127 83.0894 164.247 86.4438 162.352 89.4554C156.889 98.1718 151.285 104.268 145.634 107.892C138.089 112.74 130.402 113.156 122.297 116.609C114.225 120.012 105.861 132.597 98.7619 143.15C89.5143 156.886 79.9424 152.821 71.0568 165.945C64.978 174.906 58.9415 190.013 54.2871 212.882C52.1386 223.41 50.2863 235.603 48.8571 249.633C43.1873 305.311 45.5944 375.19 47.6818 439.094C47.8886 445.411 48.0861 451.753 48.2741 458.119C51.2266 557.942 50.1359 659.822 40.7097 744.759C38.0252 768.95 34.6026 794.218 29.9295 811.822C23.2583 836.943 15.896 849.039 9.74663 867.427C9.26239 868.871 8.78285 870.365 8.30332 871.907C1.11496 895.192 -4.42792 927.904 -7.62484 968.352C-11.0333 1011.37 -11.6022 1064.75 -7.09358 1111.51" stroke="#0049FF" stroke-miterlimit="10"/>
<path d="M199.375 -172.505C197.781 -133.281 195.219 -95.4031 191.862 -59.5333C190.371 -43.5938 188.707 -27.9238 186.629 -13.7962C181.35 22.1716 173.992 45.3095 166.587 62.3017C164.824 66.3662 163.038 70.1123 161.228 73.5646C156.014 83.5298 150.64 90.9731 145.192 96.0904C137.919 102.897 130.472 105.443 122.658 109.826C114.882 114.135 106.8 125.3 99.8095 134.041C90.0542 146.21 80.045 141.583 70.6188 154.045C64.1686 162.541 57.7371 177.575 52.7537 200.884C50.4595 211.608 48.4661 224.12 46.9193 238.566C40.7888 295.958 43.1771 368.554 45.2128 434.834C45.4149 441.371 45.6077 447.957 45.7863 454.568C48.6353 558.211 47.4788 664.866 37.0794 751.394C34.3197 774.361 30.8596 797.964 26.3933 815.225C20.0136 839.906 13.0697 854.009 7.32934 874.307C6.87801 875.898 6.43138 877.539 5.98945 879.228C-0.691154 904.741 -5.56645 939.386 -8.09577 980.129C-10.7896 1023.49 -10.6815 1075.08 -5.98487 1119.42" stroke="#0049FF" stroke-miterlimit="10"/>
<path d="M196.491 -185.311C194.973 -147.506 192.467 -111.073 189.162 -76.6972C187.695 -61.4188 186.054 -46.4588 184.075 -32.7475C179.035 2.06953 172.209 26.4561 165.194 45.1868C163.525 49.643 161.824 53.8298 160.103 57.7229C155.138 68.9368 149.995 77.7512 144.748 84.3131C137.748 93.0785 130.541 97.7795 123.019 103.044C115.534 108.283 107.758 117.93 100.852 124.933C90.5888 135.314 80.1424 130.344 70.1755 142.121C63.3586 150.176 56.5322 165.112 51.2197 188.862C48.7656 199.807 46.6359 212.612 44.9716 227.523C38.3804 286.604 40.7545 361.919 42.7338 430.622C42.9313 437.404 43.1146 444.236 43.2933 451.091C46.0341 558.505 44.8635 670.228 33.4392 758.029C30.5996 779.845 27.1112 801.685 22.8471 818.653C16.7636 842.868 10.2287 859.028 4.90208 881.211C4.48366 882.974 4.06524 884.761 3.66093 886.598C-2.50724 914.363 -6.71964 950.894 -8.57667 991.955C-10.5606 1035.63 -9.76611 1085.46 -4.88141 1127.38" stroke="#0049FF" stroke-miterlimit="10"/>
<path d="M193.616 -198.116C192.168 -161.732 189.723 -126.719 186.475 -93.8361C185.031 -79.2189 183.419 -64.9444 181.529 -51.6983C176.734 -18.0076 170.434 7.62773 163.81 28.0478C162.23 32.9202 160.622 37.5233 158.986 41.8326C154.271 54.2952 149.353 64.4563 144.313 72.4872C137.585 83.187 130.618 90.0426 123.387 96.2372C116.199 102.383 108.743 110.487 101.907 115.776C91.1503 124.101 80.2479 119.081 69.7451 130.173C62.552 137.787 55.3307 152.65 49.6844 176.84C47.0799 187.981 44.8138 201.104 43.032 216.432C35.98 277.227 38.3354 355.235 40.2582 426.338C40.4463 433.365 40.6296 440.416 40.7989 447.517C43.4316 558.725 42.2986 675.81 29.7977 764.616C26.8829 785.33 23.3569 805.382 19.3043 822.007C13.517 845.757 7.39114 863.949 2.48293 888.042C2.09742 889.952 1.71662 891.886 1.34051 893.87C-4.31991 923.863 -7.86472 962.304 -9.05416 1003.71C-10.3235 1047.73 -8.8473 1095.74 -3.77926 1135.26" stroke="#0049FF" stroke-miterlimit="10"/>
<path d="M190.737 -210.921C189.364 -175.957 186.976 -142.389 183.779 -110.976C182.359 -97.0193 180.775 -83.4549 178.979 -70.625C174.423 -38.0851 168.655 -11.1766 162.416 10.9574C160.931 16.2461 159.407 21.2654 157.861 26.0154C153.394 39.7267 148.707 51.2345 143.869 60.7345C137.414 73.393 130.687 82.4033 123.748 89.5038C116.851 96.5553 109.733 103.068 102.954 106.716C91.7079 112.764 80.3495 107.892 69.3013 118.322C61.7416 125.447 54.1254 140.236 48.15 164.843C45.395 176.155 42.9832 189.621 41.0886 205.389C33.5758 267.898 35.9124 348.623 37.7835 422.126C37.9669 429.373 38.1408 436.67 38.3054 444.015C40.8347 559.044 39.7816 681.809 26.1571 771.251C23.1577 790.937 19.6034 809.104 15.7577 825.411C10.2666 848.696 4.55444 868.92 0.0552594 894.922C-0.297341 896.979 -0.649943 899.06 -0.988439 901.19C-6.13641 933.436 -9.01833 973.762 -9.54018 1015.48C-10.0949 1059.85 -7.94173 1106.08 -2.68562 1143.17" stroke="#0049FF" stroke-miterlimit="10"/>
<path d="M187.855 -223.727C184.16 -128.408 172.176 -44.5978 156.737 10.1252C141.298 64.8481 122.643 91.9035 104.002 97.5594C92.2863 101.11 80.4483 96.6045 68.8642 106.374C57.2801 116.143 45.522 142.978 39.147 194.322C31.1735 258.545 33.496 341.964 35.3107 417.866C38.296 542.688 38.2537 682.421 22.5183 777.862C14.6812 825.411 3.59543 857.192 -3.31084 908.511C-12.8828 979.639 -12.14 1083.82 -1.58075 1151.06" stroke="#0049FF" stroke-miterlimit="10"/>
<path d="M-76.5312 23.4449C-67.5188 -21.5087 -57.9844 -63.6466 -48.0035 -102.675C-43.5654 -120.01 -38.9205 -137.076 -33.5751 -144.813C-19.913 -164.621 -5.99699 -119.447 4.45879 -69.5474C14.0918 -23.5899 22.6671 28.3418 29.9495 84.8276C37.166 140.799 43.2543 202.059 52.7745 247.723C62.2994 293.387 76.6197 320.589 88.3731 292.309C95.364 275.489 100.423 241.308 103.196 203.896C105.97 166.483 106.689 125.815 106.854 85.709C107.042 39.8005 106.652 -8.65436 110.864 -49.0049C115.227 -90.751 124.522 -117.072 133.623 -113.399C146.571 -108.184 156.119 -51.4533 165.546 -4.9572C177.525 54.124 192.122 103.534 208.492 114.16C224.862 124.786 243.052 88.7941 250.748 12.8186" stroke="#0049FF" stroke-miterlimit="10"/>
<path d="M-75.4609 42.3465C-66.6083 -1.89706 -57.2103 -43.1535 -47.3563 -81.129C-42.9747 -98.0233 -38.3909 -114.55 -33.1395 -122.19C-22.5896 -137.517 -11.8753 -114.379 -2.72646 -80.6393C-0.234749 -71.4576 2.14413 -61.4924 4.36786 -51.2824C13.9398 -7.43058 22.5009 42.4444 29.8209 96.8735C37.0704 150.788 43.1821 210.237 52.6413 254.48C57.9444 279.308 64.5592 299.14 71.4513 308.151C77.4549 315.986 83.6983 315.447 89.3681 302.323C90.3789 299.973 91.3568 297.279 92.2924 294.243C98.0609 275.586 102.245 244.834 104.77 211.657C105.583 201.006 106.237 190.086 106.773 179.044C108.169 150.201 108.78 120.207 109.151 90.7279C109.753 43.938 110.059 -4.27207 114.61 -44.1818C119.128 -83.8223 128.06 -109.482 136.95 -106.152C149.602 -101.402 159.019 -47.5362 168.299 -3.80687C169.032 -0.354549 169.771 3.0488 170.523 6.40318C181.867 57.2575 195.304 97.8529 210.132 105.639C225.942 113.939 243.37 77.5307 250.657 3.02432" stroke="#0049FF" stroke-miterlimit="10"/>
<path d="M-74.3984 61.2734C-65.7057 17.7644 -56.444 -22.6106 -46.7169 -59.5822C-42.3964 -76.0113 -37.869 -92.0487 -32.7116 -99.5655C-22.3452 -114.648 -11.8142 -92.9546 -2.77348 -60.9289C-0.305271 -52.2124 2.0501 -42.7369 4.26444 -33.0165C13.7753 8.7541 22.3223 56.5479 29.6752 108.92C36.9623 160.779 43.1116 218.391 52.4955 261.263C58.0196 286.507 64.8036 307.074 71.8838 316.867C78.0379 325.364 84.4976 325.388 90.3554 312.313C91.4038 309.987 92.4146 307.269 93.3878 304.184C99.3773 285.282 103.67 253.575 106.335 219.419C107.191 208.474 107.891 197.26 108.474 185.949C110.002 156.396 110.811 125.741 111.436 95.7476C112.452 48.1007 113.439 0.160032 118.338 -39.3825C122.992 -76.9417 131.577 -101.94 140.26 -98.9288C152.615 -94.6196 161.9 -43.6428 171.035 -2.68018C171.754 0.551781 172.483 3.73478 173.221 6.89328C184.373 54.4177 197.452 91.5363 211.754 97.1432C227 103.142 243.671 66.2682 250.549 -6.72013" stroke="#0049FF" stroke-miterlimit="10"/>
<path d="M-73.3281 80.1755C-64.7952 37.3766 -55.6699 -2.11697 -46.0744 -38.0603C-41.8103 -54.0242 -37.3487 -69.5718 -32.2807 -76.9662C-22.1023 -91.8038 -11.7499 -71.5551 -2.81268 -41.2677C-0.367978 -33.0164 1.96859 -24.0306 4.16881 -14.8C13.6185 24.8895 22.1562 70.6021 29.542 120.918C36.8573 170.768 43.0536 226.52 52.3529 268.045C58.0979 293.705 65.0418 315.007 72.3148 325.584C78.624 334.741 85.2905 335.353 91.3411 322.327C92.4271 320.001 93.4755 317.259 94.4816 314.15C100.692 294.978 105.097 262.316 107.904 227.181C108.802 215.942 109.545 204.434 110.184 192.853C111.844 162.59 112.854 131.25 113.734 100.767C115.163 52.2387 116.818 4.64075 122.083 -34.5835C126.846 -70.0615 135.111 -94.3991 143.587 -91.6814C155.651 -87.8373 164.8 -39.7252 173.789 -1.52935C174.498 1.48225 175.213 4.44488 175.937 7.38302C186.896 51.5776 199.622 85.2193 213.393 88.6716C228.075 92.3688 243.994 55.0544 250.458 -16.4404" stroke="#0049FF" stroke-miterlimit="10"/>
<path d="M-72.2578 99.1019C-63.8894 57.0375 -54.8958 18.4009 -45.4273 -16.514C-41.2195 -32.0372 -36.8191 -47.0707 -31.8451 -54.3426C-21.8547 -68.9354 -11.6857 -50.1313 -2.84718 -21.5578C-0.430692 -13.7717 1.88707 -5.2756 4.07789 3.46538C13.4665 41.0736 21.99 84.7295 29.4087 132.964C36.7569 180.758 43.005 234.599 52.2196 274.803C58.1904 300.854 65.2941 322.915 72.7598 334.3C79.2195 344.094 86.0975 345.294 92.3409 332.317C93.4598 329.991 94.5458 327.249 95.5895 324.09C102.021 304.674 106.539 271.057 109.482 234.942C110.422 223.385 111.212 211.584 111.899 199.733C113.69 168.76 114.898 136.759 116.036 105.762C117.879 56.352 120.182 9.12129 125.829 -29.8091C130.68 -63.255 138.649 -86.858 146.914 -84.483C158.682 -81.1042 167.699 -35.8568 176.542 -0.452141C177.238 2.33909 177.943 5.08135 178.658 7.79913C189.428 48.6638 201.793 78.8287 215.037 80.1019C229.159 81.4731 244.317 43.7179 250.372 -26.2588" stroke="#0049FF" stroke-miterlimit="10"/>
<path d="M-71.1875 118.004C-62.979 76.6496 -54.1216 38.8945 -44.7801 5.00791C-40.6288 -10.0501 -36.2941 -24.5939 -31.4094 -31.7434C-21.6071 -46.1158 -11.6168 -28.7318 -2.88639 -1.87223C-0.493403 5.42415 1.80555 13.4551 3.98227 21.7064C13.3144 57.2334 21.8192 98.8081 29.2755 144.986C36.6566 190.748 42.9611 242.63 52.0817 281.585C58.2781 308.053 65.5417 330.872 73.2001 343.017C79.8149 353.472 86.9046 355.259 93.336 342.331C94.4925 340.005 95.6115 337.263 96.6928 334.055C103.35 314.394 107.971 279.798 111.055 242.704C112.038 230.853 112.875 218.758 113.608 206.638C115.531 174.955 116.927 142.244 118.328 110.781C120.566 60.4899 123.523 13.6265 129.569 -25.0101C134.487 -56.4727 142.178 -79.3168 150.236 -77.2601C161.708 -74.322 170.593 -31.9392 179.291 0.674158C179.977 3.24503 180.668 5.76694 181.369 8.26436C191.947 45.8236 203.954 72.4873 216.671 71.5813C230.23 70.6509 244.63 32.4551 250.276 -36.0526" stroke="#0049FF" stroke-miterlimit="10"/>
<path d="M-70.125 136.906C-62.0763 96.2616 -53.3553 59.4124 -44.1407 26.5541C-40.0505 11.9614 -35.7723 -2.06827 -30.9769 -9.11981C-21.3627 -23.2474 -11.551 -7.28348 -2.924 17.8376C-0.559219 24.6688 1.72093 32.1856 3.88825 39.9717C13.1546 73.393 21.6452 112.887 29.1345 157.032C36.5485 200.762 42.9141 250.685 51.936 288.367C58.3627 315.202 65.7861 338.805 73.6327 351.758C80.4026 362.874 87.6991 365.224 94.3233 352.345C95.5174 350.044 96.674 347.252 97.7882 344.02C104.666 324.115 109.401 288.563 112.621 250.465C113.646 238.321 114.53 225.932 115.315 213.542C117.369 181.149 118.968 147.777 120.623 115.825C123.274 64.6521 126.852 18.1804 133.307 -20.1868C138.271 -49.6907 145.709 -71.7512 153.556 -70.0128C164.731 -67.5399 173.485 -28.0219 182.036 1.82477C182.709 4.17529 183.39 6.5013 184.077 8.75388C194.462 42.9832 206.112 66.1456 218.302 63.085C231.297 59.8531 244.94 21.192 250.178 -45.7976" stroke="#0049FF" stroke-miterlimit="10"/>
<path d="M-69.0547 155.833C-61.1658 115.923 -52.5812 79.9305 -43.4982 48.1006C-39.4644 33.9486 -35.252 20.4331 -30.546 13.504C-21.1198 -0.378742 -11.4914 14.1406 -2.9632 37.5233C-0.621935 43.8893 1.63942 50.9163 3.79263 58.2127C13.0026 89.5774 21.4791 126.99 29.0012 169.079C36.4482 210.751 42.8796 258.692 51.798 295.15C58.4598 322.352 66.0337 346.714 74.073 360.474C80.9934 372.251 88.5061 375.189 95.3231 362.36C96.5501 360.058 97.7443 357.267 98.8961 353.986C105.995 333.811 110.838 297.304 114.199 258.251C115.266 245.813 116.192 233.106 117.029 220.447C119.215 187.344 121.011 153.286 122.925 120.844C125.99 68.7901 130.169 22.6857 137.057 -15.3877C142.05 -43.0063 149.247 -64.2099 156.887 -62.7653C167.771 -60.7331 176.393 -24.1042 184.794 2.97565C185.457 5.1058 186.125 7.21147 186.797 9.24368C196.99 40.1432 208.282 59.8287 219.946 54.589C232.377 49.031 245.268 9.95374 250.091 -55.5424" stroke="#0049FF" stroke-miterlimit="10"/>
<path d="M-67.9844 174.734C-60.2554 135.535 -51.807 100.424 -42.851 69.6222C-38.8737 55.9354 -34.7224 42.9096 -30.1104 36.1029C-20.8722 22.465 -11.4319 35.6132 -3.00241 57.2086C-0.689348 63.1338 1.5532 69.6467 3.69231 76.4534C12.8411 105.712 21.3035 141.068 28.8633 181.1C36.3431 220.741 42.8451 266.649 51.6554 301.931C58.5523 329.501 66.2766 354.647 74.5086 369.19C81.5842 381.604 89.3038 385.13 96.3135 372.373C97.5781 370.072 98.8099 367.281 99.9946 363.951C107.315 343.531 112.27 306.069 115.768 266.013C116.877 253.281 117.85 240.279 118.739 227.352C121.057 193.563 123.055 158.795 125.222 125.863C128.701 72.9276 133.468 27.1416 140.798 -10.5646C145.805 -36.3223 152.777 -56.62 160.209 -55.5182C170.797 -53.9512 179.287 -20.187 187.543 4.12611C188.192 6.0359 188.85 7.92121 189.513 9.73307C199.513 37.3026 210.448 53.5114 221.585 46.0926C233.456 38.2331 245.586 -1.30946 250 -65.312" stroke="#0049FF" stroke-miterlimit="10"/>
<path d="M-66.9141 193.637C-59.3496 155.171 -51.0329 120.918 -42.2038 91.1443C-38.2829 77.9227 -34.1974 65.3866 -29.6747 58.7023C-20.6246 45.3093 -11.363 57.0374 -3.03692 76.8943C-0.747365 82.3544 1.47637 88.3776 3.60137 94.6946C12.6891 121.872 21.1374 155.147 28.7301 193.122C36.2428 230.731 42.8153 274.607 51.5175 308.689C58.6494 336.626 66.5194 362.604 74.9443 377.907C82.1749 390.982 90.1014 395.095 97.3038 382.363C98.6061 380.062 99.8708 377.246 101.098 373.892C108.643 353.227 113.707 314.786 117.341 273.774C118.493 260.749 119.513 247.454 120.449 234.256C122.898 199.758 125.098 164.329 127.515 130.883C131.407 77.0657 136.743 31.549 144.538 -5.76542C149.545 -29.7358 156.31 -49.0786 163.532 -48.2951C173.823 -47.1688 182.182 -16.2938 190.287 5.25262C190.926 6.94205 191.57 8.60699 192.219 10.1985C202.026 34.4382 212.604 47.1701 223.215 37.5967C234.522 27.4356 245.894 -12.5476 249.895 -75.0566" stroke="#0049FF" stroke-miterlimit="10"/>
<path d="M-65.8516 212.563C-58.4469 174.808 -50.2666 141.46 -41.5644 112.691C-37.7046 99.9341 -33.6756 87.8877 -29.2469 81.3259C-20.3849 68.1777 -11.3019 78.4612 -3.07923 96.5798C-0.817888 101.575 1.38704 107.108 3.50265 112.935C12.5292 138.032 20.9681 169.225 28.5937 205.144C36.1394 240.696 42.7918 282.515 51.3811 315.447C58.7481 343.727 66.7686 370.513 75.3815 386.623C82.7626 400.359 90.9053 405.036 98.2958 392.377C99.6357 390.1 100.938 387.26 102.198 383.857C109.965 362.947 115.136 323.551 118.911 281.536C120.105 268.216 121.168 254.627 122.155 241.136C124.736 205.928 127.134 169.813 129.809 135.877C134.12 81.2035 140.006 35.8826 148.276 -0.991081C153.264 -23.223 159.836 -41.5619 166.851 -41.0723C176.846 -40.4112 185.073 -12.4009 193.033 6.35428C193.663 7.82335 194.293 9.26794 194.927 10.6391C204.541 31.5489 214.762 40.804 224.847 29.0514C235.589 16.5643 246.205 -23.8596 249.797 -84.8506" stroke="#0049FF" stroke-miterlimit="10"/>
<path d="M-64.7812 231.465C-57.5365 194.42 -49.4925 161.954 -40.9172 134.237C-37.1138 121.921 -33.1506 110.414 -28.8113 103.95C-20.1326 91.0465 -11.2376 99.8854 -3.11372 116.29C-0.875882 120.82 1.31024 125.839 3.41174 131.201C12.3772 154.217 20.802 183.329 28.4605 217.191C36.0391 250.71 42.7714 290.424 51.2432 322.229C58.8547 350.803 67.0162 378.446 75.8218 395.34C83.3581 409.737 91.7077 415.001 99.2909 402.367C100.664 400.09 102.004 397.25 103.301 393.798C111.289 372.619 116.573 332.268 120.489 289.273C121.726 275.66 122.835 261.753 123.874 248.017C126.587 212.098 129.187 175.298 132.116 140.897C136.841 85.3416 143.263 40.1431 152.031 3.80811C156.995 -16.7589 163.38 -33.996 170.187 -33.8491C179.886 -33.6532 187.982 -8.48313 195.795 7.48078C196.411 8.7295 197.032 9.95372 197.652 11.129C207.074 28.7089 216.937 34.4872 226.495 20.5555C236.678 5.76687 246.537 -35.0978 249.715 -94.5952" stroke="#0049FF" stroke-miterlimit="10"/>
<path d="M-63.7109 250.392C-56.626 214.081 -48.7136 182.472 -40.2747 155.784C-36.5278 143.933 -32.6257 132.915 -28.3803 126.574C-19.8897 113.891 -11.1734 121.309 -3.15763 136C-0.943299 140.04 1.21932 144.594 3.31141 149.467C12.2205 170.401 20.6265 197.432 28.3226 229.237C35.934 260.7 42.7463 298.308 51.1006 329.012C58.9565 357.879 67.2591 386.379 76.2622 404.081C83.9536 419.139 92.5147 424.967 100.286 412.406C101.696 410.129 103.069 407.264 104.404 403.812C112.613 382.388 118.005 341.083 122.063 297.108C123.346 283.177 124.498 269 125.584 254.995C128.428 218.366 131.244 180.929 134.408 145.99C139.57 89.602 146.491 44.3546 155.767 8.68064C160.694 -10.2704 166.909 -26.3812 173.505 -26.5526C182.912 -26.7974 190.872 -4.51652 198.539 8.68064C199.146 9.70899 199.752 10.7129 200.364 11.6678C209.597 25.9177 219.098 28.1948 228.13 12.1085C237.749 -4.98172 246.85 -46.3116 249.62 -104.315" stroke="#0049FF" stroke-miterlimit="10"/>
<path d="M-62.6406 269.294C-55.7202 233.693 -47.9395 202.99 -39.6276 177.305C-35.937 165.92 -32.1007 155.392 -27.9447 149.173C-19.6421 136.735 -11.1045 142.709 -3.19214 155.661C-1.00131 159.236 1.1425 163.3 3.22049 167.683C12.0684 186.536 20.4603 211.51 28.1893 241.235C35.8337 270.689 42.7353 306.192 50.9626 335.769C59.0677 364.906 67.5067 394.312 76.7025 412.773C84.5443 428.468 93.317 434.907 101.281 422.396C102.729 420.143 104.14 417.254 105.508 413.753C113.942 392.084 119.442 349.823 123.636 304.845C124.962 290.62 126.161 276.149 127.298 261.875C130.274 224.536 133.288 186.414 136.71 150.985C142.286 93.7398 149.71 48.3699 159.517 13.455C164.401 -3.92901 170.447 -18.8646 176.836 -19.3543C185.948 -20.0643 193.775 -0.648081 201.297 9.78233C201.89 10.6148 202.487 11.3738 203.084 12.1084C212.125 23.0529 221.269 21.8287 229.774 3.56326C238.828 -15.853 247.173 -57.5991 249.533 -114.109" stroke="#0049FF" stroke-miterlimit="10"/>
<path d="M-61.5781 288.196C-54.8176 253.306 -47.1732 223.483 -38.9882 198.828C-35.3587 187.883 -31.5789 177.869 -27.5169 171.772C-19.4024 159.579 -11.0434 164.109 -3.23446 175.347C-1.07184 178.456 1.05316 182.031 3.12175 185.924C11.9086 202.672 20.2864 225.589 28.053 253.257C35.7256 280.679 42.7118 314.027 50.8169 342.552C59.1712 371.958 67.7464 402.245 77.135 421.49C85.132 437.846 94.1116 444.848 102.268 432.385C103.749 430.133 105.197 427.244 106.603 423.693C115.258 401.78 120.867 358.54 125.202 312.607C126.57 298.088 127.811 283.299 129 268.755C132.108 230.706 135.324 191.923 139 155.98C144.989 97.8534 152.907 52.2142 163.249 18.2542C168.087 2.36374 173.969 -11.3231 180.151 -12.1066C188.966 -13.2574 196.662 3.26967 204.038 10.9333C204.621 11.5454 205.204 12.0841 205.787 12.5983C214.635 20.213 223.422 15.5119 231.395 -4.93266C239.886 -26.6504 247.474 -68.8618 249.425 -123.854" stroke="#0049FF" stroke-miterlimit="10"/>
<path d="M-60.5078 307.123C-53.9071 272.967 -46.3991 244.002 -38.341 220.374C-34.768 209.895 -31.0492 200.37 -27.0813 194.396C-19.1548 182.448 -10.9745 185.533 -3.27367 195.057C-1.13455 197.702 0.971645 200.762 3.02613 204.19C11.7518 218.856 20.1155 239.692 27.915 265.303C35.6252 290.669 42.7008 321.863 50.679 349.31C59.2871 378.936 67.994 410.154 77.5706 430.207C85.7228 447.223 94.9139 454.814 103.259 442.4C104.777 440.147 106.263 437.258 107.702 433.659C116.578 411.476 122.299 367.306 126.77 320.369C128.181 305.556 129.469 290.473 130.705 275.66C133.944 236.926 137.358 197.432 141.288 160.999C147.691 102.016 156.083 55.9361 166.981 23.0534C171.771 8.60751 177.493 -3.75719 183.464 -4.88347C191.983 -6.49945 199.547 7.16293 206.778 12.0598C207.347 12.4516 207.92 12.7699 208.494 13.0637C217.149 17.3485 225.578 9.17065 233.025 -13.4286C240.956 -37.4479 247.787 -80.0999 249.325 -133.599" stroke="#0049FF" stroke-miterlimit="10"/>
<path d="M-59.4375 326.025C-52.9967 292.579 -45.625 264.495 -37.6938 241.92C-34.1772 231.906 -30.5242 222.896 -26.6456 217.02C-18.9072 205.316 -10.9055 206.956 -3.30816 214.743C-1.19256 216.922 0.890139 219.493 2.93522 222.431C11.5998 235.016 19.9494 253.771 27.7865 277.349C35.5296 300.659 42.6992 329.697 50.5457 356.092C59.4078 385.914 68.2463 418.087 78.0157 438.923C86.3182 456.601 95.7209 464.754 104.259 452.389C105.815 450.137 107.333 447.223 108.809 443.599C117.907 421.172 123.741 376.022 128.348 328.106C129.801 312.999 131.136 297.623 132.424 282.54C135.795 243.096 139.411 202.941 143.595 166.018C150.412 106.154 159.274 59.4617 170.736 27.8522C175.475 14.7775 181.036 3.78391 186.8 2.33932C195.023 0.258139 202.46 11.0803 209.54 13.186C210.1 13.3574 210.659 13.4798 211.219 13.5288C219.681 14.4836 227.758 2.82902 234.674 -21.9493C242.041 -48.2947 248.115 -91.3874 249.243 -143.393" stroke="#0049FF" stroke-miterlimit="10"/>
<path d="M-58.3672 344.951C-52.0909 312.24 -44.8508 285.037 -37.0513 263.466C-33.5911 253.893 -29.9993 245.397 -26.2147 239.643C-18.6643 228.184 -10.8413 228.38 -3.34737 234.452C-1.25997 236.142 0.808623 238.247 2.8349 240.696C11.4384 251.2 19.7738 267.874 27.6439 289.396C35.4199 310.673 42.6788 337.508 50.3984 362.898C59.519 392.892 68.4845 426.068 78.4466 447.688C86.9043 466.027 96.5186 474.768 105.244 462.452C106.833 460.224 108.394 457.286 109.903 453.613C119.226 430.941 125.164 384.836 129.912 335.941C131.407 320.54 132.785 304.845 134.125 289.494C137.627 249.339 141.445 208.499 145.883 171.086C153.113 110.34 162.431 62.8158 174.467 32.6998C179.159 20.9717 184.561 11.3738 190.113 9.61094C198.044 7.08904 205.345 15.022 212.28 14.3365C212.825 14.2875 213.375 14.1895 213.921 14.0181C222.19 11.6431 229.91 -3.48828 236.299 -30.4457C243.102 -59.0926 248.419 -102.626 249.138 -153.138" stroke="#0049FF" stroke-miterlimit="10"/>
<path d="M-57.3047 363.853C-51.1882 331.852 -44.0845 305.531 -36.4119 284.988C-33.0128 275.88 -29.4821 267.874 -25.7869 262.242C-18.4246 251.004 -10.7802 249.682 -3.38969 254.138C-1.3258 255.337 0.719286 256.978 2.73616 258.937C11.2832 267.359 19.6046 281.952 27.5075 301.417C35.3118 320.662 42.6694 345.269 50.262 369.656C59.6459 399.796 68.7336 433.977 78.8885 456.38C87.4967 475.355 97.3225 484.684 106.241 472.442C107.868 470.214 109.461 467.276 111.008 463.554C120.552 440.612 126.602 393.553 131.487 343.678C133.024 327.983 134.449 311.995 135.841 296.374C139.475 255.509 143.49 214.008 148.182 176.081C155.831 114.478 165.595 65.9007 178.214 37.4742C182.859 27.0193 188.096 18.9149 193.441 16.8337C201.076 13.8466 208.246 18.9149 215.035 15.4626C215.571 15.1932 216.107 14.8749 216.638 14.4832C224.715 8.77829 232.077 -9.85444 237.94 -38.9665C244.183 -69.9395 248.739 -113.914 249.049 -162.907" stroke="#0049FF" stroke-miterlimit="10"/>
<path d="M-56.2344 382.755C-50.2778 351.464 -43.3104 326.025 -35.7647 306.51C-32.4221 297.867 -28.9525 290.351 -25.3513 284.842C-18.1723 273.848 -10.7113 271.081 -3.42889 273.799C-1.38851 274.534 0.63307 275.684 2.64054 277.153C11.1265 283.47 19.4337 296.006 27.3696 313.415C35.2115 330.652 42.6631 353.031 50.1194 376.414C59.7666 406.652 68.9765 441.885 79.3242 465.097C88.0875 484.733 98.1201 494.649 107.231 482.432C108.896 480.204 110.522 477.241 112.107 473.495C121.871 450.308 128.03 402.294 133.056 351.439C134.635 335.451 136.107 319.169 137.546 303.278C141.311 261.704 145.528 219.517 150.474 181.101C158.537 118.616 168.748 68.7411 181.95 42.2733C186.552 33.0427 191.62 26.4563 196.759 24.0568C204.098 20.629 211.136 22.8081 217.774 16.5891C218.296 16.0994 218.822 15.5607 219.344 14.9731C227.233 5.93828 234.233 -16.1713 239.569 -47.4625C245.249 -80.7369 249.052 -125.152 248.949 -172.652" stroke="#0049FF" stroke-miterlimit="10"/>
<path d="M-55.1641 401.682C-49.3673 371.125 -42.5363 346.542 -35.1175 328.081C-31.8313 319.903 -28.4275 312.876 -24.9156 307.49C-17.9247 296.741 -10.6423 292.53 -3.46339 293.533C-1.45122 293.803 0.556254 294.439 2.54962 295.443C10.9744 299.679 19.2676 310.134 27.2411 325.486C35.1111 340.642 42.6568 360.792 49.9862 383.196C59.9013 413.508 69.2288 449.818 79.7692 473.813C88.6876 494.111 98.9318 504.59 108.231 492.446C109.928 490.218 111.597 487.255 113.215 483.46C123.2 460.028 129.472 411.035 134.639 359.201C136.261 342.919 137.779 326.343 139.265 310.158C143.162 267.874 147.581 225.001 152.781 186.095C161.258 122.754 171.915 71.3363 185.705 47.0722C190.274 39.0412 195.168 33.9974 200.095 31.2796C207.138 27.3866 214.044 26.701 220.537 17.7152C221.049 17.0052 221.562 16.2461 222.069 15.4381C229.766 3.07346 236.409 -22.5129 241.218 -55.9832C246.333 -91.5592 249.38 -136.439 248.867 -182.446" stroke="#0049FF" stroke-miterlimit="10"/>
<path d="M-54.0938 420.584C-41.0005 351.244 -22.1716 315.129 -3.5026 313.195C15.1664 311.285 33.6333 341.67 49.8435 389.954C60.0313 420.29 69.4716 457.751 80.2001 482.53C90.9286 507.308 103.594 518.277 114.313 493.401C127.731 462.281 134.534 385.791 140.97 317.063C151.562 204.018 166.249 87.08 189.441 51.8713C200.992 34.3404 213.615 39.2373 224.776 15.9035C240.257 -16.4405 250.558 -105.834 248.762 -192.19" stroke="#0049FF" stroke-miterlimit="10"/>
<path d="M27.778 1424.42C25.7987 1341.18 41.5811 1270.83 57.4952 1257.88C73.4092 1244.95 89.375 1271.64 105.143 1288.76C120.912 1305.87 138.654 1311.53 151.828 1263.24C168.668 1201.52 172.565 1071.68 189.89 1013.7C203.392 968.498 220.97 982.038 234.806 1015.66C242.629 1034.66 249.282 1066.63 256.757 1088.91C290.663 1189.94 292.953 1396.34 321.758 1427.14C352.951 1460.47 369.876 1381.26 375.762 1326.34C383.303 1255.97 395.874 1073.41 365.066 946.536C352.551 894.996 340.192 840.053 330.986 772.181C317.202 670.571 317.296 515.241 334.921 431.259C347.004 373.72 365.56 352.688 373.769 278.892C379.283 229.311 378.531 165.381 373.787 113.646C369.044 61.9343 360.784 21.0207 351.813 -12.1313" stroke="#0049FF" stroke-miterlimit="10"/>
<path d="M28.4891 1428.59C27.1257 1342.94 42.8188 1268.95 59.2076 1254.23C75.2063 1239.86 91.4353 1266.35 107.204 1285.23C122.789 1303.89 140.09 1312.36 153.22 1268.48C169.995 1212.32 174.71 1089.06 192.011 1031.84C205.796 986.495 223.092 994.942 237.257 1024.32C245.395 1041.22 252.607 1071.33 260.435 1093.93C293.631 1189.72 296.362 1389.44 324.542 1419.8C354.852 1452.39 371.687 1377.44 377.804 1323.38C385.556 1254.87 397.549 1078.97 368.438 953.539C356.436 901.827 344.537 845.831 335.477 778.376C322.097 679.19 321.975 529.369 338.613 446.121C350.127 388.534 368.015 365.078 376.186 292.236C381.795 242.459 381.452 179.436 377.305 127.333C373.126 74.74 365.495 31.5248 356.873 -4.07568" stroke="#0049FF" stroke-miterlimit="10"/>
<path d="M29.2058 1432.72C28.4536 1344.7 44.0621 1267.06 60.9258 1250.54C77.0044 1234.77 93.4967 1260.99 109.27 1281.68C124.671 1301.88 141.535 1313.17 154.624 1273.67C171.327 1223.09 176.842 1106.2 194.148 1049.96C208.191 1004.32 225.247 1007.75 239.727 1032.97C248.19 1047.71 255.947 1076.03 264.132 1098.93C296.585 1189.72 299.787 1382.48 327.341 1412.43C356.772 1444.28 373.509 1373.57 379.86 1320.39C387.82 1253.77 399.244 1084.41 371.83 960.541C360.34 908.634 348.897 851.609 339.983 784.595C327.012 687.808 326.674 543.471 342.32 461.032C353.265 403.371 370.486 377.515 378.624 305.653C384.326 255.656 384.392 193.514 380.847 141.068C377.227 87.5695 370.232 42.0528 361.957 4.02832" stroke="#0049FF" stroke-miterlimit="10"/>
<path d="M29.9228 1436.89C29.7818 1346.47 45.3009 1265.25 62.6442 1246.86C78.8074 1229.72 95.563 1255.63 111.336 1278.13C126.55 1299.82 142.976 1314 156.022 1278.89C172.66 1233.86 178.984 1123.51 196.275 1068.1C210.591 1022.24 227.407 1020.53 242.184 1041.63C250.98 1054.19 259.268 1080.76 267.82 1103.97C299.503 1189.96 303.207 1375.58 330.136 1405.11C358.688 1436.23 375.326 1369.75 381.912 1317.45C390.069 1252.67 400.939 1089.75 375.213 967.568C364.226 915.392 353.281 857.29 344.485 790.814C331.97 696.255 331.364 557.526 346.027 475.919C356.403 418.16 372.923 389.831 381.057 319.022C386.83 268.755 387.338 207.519 384.381 154.78C381.325 100.326 374.959 52.5813 367.037 12.1084" stroke="#0049FF" stroke-miterlimit="10"/>
<path d="M30.6328 1441.05C31.1029 1348.23 46.5375 1263.46 64.3555 1243.21C80.6034 1224.75 97.6175 1250.27 113.395 1274.63C128.425 1297.82 144.41 1314.86 157.419 1284.15C173.986 1244.68 181.123 1140.85 198.405 1086.29C212.993 1040.21 229.584 1033.28 244.647 1050.37C253.782 1060.73 262.597 1085.58 271.511 1109.06C302.399 1190.45 306.63 1368.75 332.934 1397.83C360.606 1428.2 377.136 1365.98 383.967 1314.56C392.321 1251.64 402.641 1095.01 378.598 974.669C368.114 922.198 357.649 863.142 348.984 797.107C336.892 704.898 336.051 571.604 349.727 490.879C359.539 432.973 375.378 402.318 383.483 332.464C389.341 281.977 390.281 221.549 387.907 168.54C385.424 113.083 379.679 63.1587 372.105 20.2373" stroke="#0049FF" stroke-miterlimit="10"/>
<path d="M31.3516 1445.21C32.4376 1350.02 47.7828 1261.68 66.0757 1239.54C82.4081 1219.78 99.6809 1244.88 115.463 1271.08C130.31 1295.73 145.867 1315.81 158.819 1289.37C175.335 1255.65 183.271 1158.18 200.539 1104.41C215.404 1058.14 231.775 1045.89 247.11 1059.02C256.593 1067.12 265.92 1090.31 275.201 1114.06C305.271 1191.04 310.052 1361.79 335.726 1390.46C362.519 1420.09 378.945 1362.11 386.016 1311.58C394.563 1250.49 404.342 1100 381.978 981.671C371.997 928.858 362.006 868.871 353.483 803.301C341.809 713.467 340.733 585.511 353.426 505.741C362.669 447.639 377.831 414.683 385.913 345.832C391.86 295.149 393.233 235.481 391.437 182.227C389.528 125.716 384.399 73.6378 377.182 28.2925" stroke="#0049FF" stroke-miterlimit="10"/>
<path d="M32.0625 1449.35C33.7597 1351.75 49.0202 1259.91 67.788 1235.85C84.2051 1214.81 101.741 1239.44 117.528 1267.53C132.192 1293.63 147.307 1316.64 160.221 1294.58C176.666 1266.45 185.42 1175.49 202.67 1122.56C217.808 1076.08 233.966 1058.45 249.575 1067.69C259.405 1073.51 269.241 1095.08 278.892 1119.08C308.13 1191.8 313.475 1354.89 338.524 1383.12C364.433 1412.01 380.752 1358.27 388.067 1308.61C396.802 1249.36 406.059 1104.85 385.359 988.674C375.876 935.444 366.366 874.625 357.983 809.496C346.728 722.037 345.412 599.345 357.127 520.603C365.806 462.281 380.291 427.072 388.34 359.177C394.376 308.273 396.191 249.339 394.964 195.914C393.638 138.351 389.12 84.1419 382.251 36.3481" stroke="#0049FF" stroke-miterlimit="10"/>
<path d="M32.7812 1453.51C35.0896 1353.54 50.2702 1258.2 69.5081 1232.2C86.0099 1209.89 103.804 1234.01 119.596 1264.03C134.076 1291.52 148.749 1317.55 161.622 1299.82C178.001 1277.3 187.568 1192.87 204.803 1140.72C220.219 1094.05 236.166 1070.94 252.038 1076.38C262.221 1079.85 272.559 1099.91 282.582 1124.12C310.969 1192.73 316.898 1347.98 341.316 1375.8C366.346 1403.96 382.552 1354.42 390.116 1305.67C399.035 1248.26 407.789 1109.58 388.743 995.725C379.759 942.006 370.728 880.427 362.482 815.739C351.64 730.656 350.084 613.154 360.827 535.514C368.937 476.898 382.749 439.51 390.77 372.569C396.896 321.446 399.162 263.246 398.494 209.625C397.761 150.96 393.844 94.6455 387.324 44.4277" stroke="#0049FF" stroke-miterlimit="10"/>
<path d="M33.4922 1457.67C36.4117 1355.31 51.5077 1256.49 71.2205 1228.52C87.8115 1204.99 105.865 1228.55 121.656 1260.48C135.953 1289.37 150.184 1318.38 163.014 1305.04C179.323 1288.1 189.713 1210.21 206.925 1158.87C222.618 1112.03 238.353 1083.36 254.493 1085.04C265.029 1086.15 275.865 1104.73 286.269 1129.17C313.791 1193.81 320.316 1341.08 344.11 1368.48C368.261 1395.88 384.349 1350.58 392.167 1302.74C401.259 1247.13 409.539 1114.08 392.125 1002.75C383.639 948.495 375.082 886.206 366.982 821.959C356.554 739.274 354.749 626.866 364.528 550.401C372.064 491.466 385.209 451.899 393.197 385.938C399.412 334.619 402.139 277.104 402.021 223.336C401.889 163.57 398.566 105.174 392.397 52.5078" stroke="#0049FF" stroke-miterlimit="10"/>
<path d="M34.2109 1461.81C37.7463 1357.04 52.7577 1254.8 72.9406 1224.85C89.6163 1200.1 107.933 1223.06 123.725 1256.95C137.838 1287.24 151.627 1319.24 164.419 1310.28C180.658 1298.92 191.87 1227.59 209.063 1177.01C225.038 1130 240.562 1095.7 256.961 1093.74C267.854 1092.41 279.179 1109.6 289.964 1134.21C316.611 1195 323.738 1334.2 346.911 1361.16C370.183 1387.82 386.149 1346.74 394.226 1299.8C403.492 1245.98 411.32 1118.42 395.514 1009.8C387.531 954.934 379.449 892.033 371.485 828.202C361.471 747.893 359.408 640.528 368.232 565.312C375.195 505.986 387.677 464.338 395.631 399.356C401.941 347.816 405.128 291.012 405.556 237.072C406.035 176.204 403.29 115.702 397.474 60.6123" stroke="#0049FF" stroke-miterlimit="10"/>
<path d="M34.9297 1465.97C39.0763 1358.83 54.0077 1253.13 74.6607 1221.18C91.4257 1195.25 110.001 1217.55 125.793 1253.4C139.727 1285.03 153.07 1320.05 165.82 1315.49C181.988 1309.71 194.023 1244.98 211.192 1195.15C227.445 1147.99 242.757 1107.99 259.424 1102.4C270.669 1098.63 282.488 1114.5 293.654 1139.23C319.413 1196.3 327.16 1327.27 349.703 1353.84C372.096 1379.76 387.935 1342.87 396.275 1296.88C405.711 1244.85 413.115 1122.58 398.894 1016.86C391.418 961.275 383.802 897.836 375.984 834.445C366.379 756.536 364.047 654.117 371.931 580.223C378.311 520.456 390.14 476.8 398.057 412.748C404.455 361.013 408.122 304.894 409.081 250.783C410.181 188.813 408.009 126.231 402.542 68.6919" stroke="#0049FF" stroke-miterlimit="10"/>
<path d="M35.6406 1470.14C40.3984 1360.59 55.2499 1251.51 76.3731 1217.51C93.2274 1190.38 112.066 1212.05 127.853 1249.87C141.609 1282.83 154.5 1320.9 167.217 1320.73C183.31 1320.51 196.173 1262.39 213.323 1213.32C229.858 1166.02 244.954 1120.25 261.883 1111.1C273.482 1104.83 285.79 1119.45 297.341 1144.27C322.202 1197.72 330.579 1320.37 352.497 1346.52C374.006 1371.71 389.722 1338.97 398.326 1293.95C407.931 1243.68 414.945 1126.52 402.28 1023.91C395.322 967.543 388.157 903.663 380.484 840.689C371.284 765.203 368.674 667.633 375.632 595.134C381.415 534.877 392.604 489.238 400.488 426.142C406.981 374.185 411.128 318.777 412.613 264.519C414.343 201.447 412.735 136.759 407.62 76.7964" stroke="#0049FF" stroke-miterlimit="10"/>
<path d="M36.3516 1474.3C41.7252 1362.38 56.4921 1249.9 78.0854 1213.86C95.029 1185.58 114.131 1206.51 129.913 1246.35C143.495 1280.63 155.935 1321.74 168.61 1325.97C184.632 1331.31 198.322 1279.79 215.445 1231.46C232.261 1184.01 247.136 1132.45 264.338 1119.76C276.285 1110.97 289.082 1124.42 301.023 1149.32C324.981 1199.24 333.984 1313.71 355.286 1339.19C375.906 1363.85 391.5 1335.08 400.372 1291.01C410.137 1242.48 416.808 1130.27 405.656 1030.93C399.229 973.689 392.507 909.466 384.98 846.908C376.188 773.822 373.278 681.05 379.329 610.045C384.51 549.25 395.064 501.677 402.911 439.559C409.497 387.407 414.128 332.709 416.135 278.255C418.5 214.081 417.452 147.312 412.685 84.9009" stroke="#0049FF" stroke-miterlimit="10"/>
<path d="M37.0703 1478.44C43.0551 1364.12 57.7468 1248.28 79.8055 1210.16C96.8432 1180.73 116.203 1200.93 131.981 1242.8C145.385 1278.37 157.378 1322.54 170.01 1331.16C185.962 1342.06 200.48 1297.18 217.578 1249.58C234.677 1202.01 249.327 1144.57 266.801 1128.43C279.095 1117.07 292.377 1129.44 304.713 1154.34C327.759 1200.81 337.406 1306.8 358.078 1331.85C377.819 1355.77 393.282 1331.14 402.421 1288.05C412.346 1241.26 418.716 1133.82 409.036 1037.96C403.159 979.737 396.855 915.269 389.478 853.128C381.091 782.465 377.866 694.419 383.028 624.932C387.588 563.549 397.527 514.115 405.341 452.928C412.021 400.58 417.146 346.616 419.666 291.967C422.675 226.74 422.176 157.816 417.762 92.981" stroke="#0049FF" stroke-miterlimit="10"/>
<path d="M37.7891 1482.6C44.385 1365.91 59.0015 1246.72 81.5257 1206.49C98.6574 1175.91 118.281 1195.32 134.049 1239.27C147.283 1276.15 158.82 1323.38 171.415 1336.4C187.296 1352.86 202.642 1314.61 219.712 1267.75C237.093 1220.05 251.512 1156.71 269.269 1137.12C281.906 1123.19 295.672 1134.55 308.412 1159.38C330.542 1202.52 340.838 1299.9 360.884 1324.53C379.746 1347.71 395.072 1327.2 404.484 1285.11C414.569 1240.01 420.685 1137.25 412.43 1045.01C407.127 985.76 401.217 921.121 393.986 859.371C385.999 791.157 382.445 707.763 386.737 639.843C390.658 577.823 400.004 526.577 407.775 466.321C414.55 413.801 420.173 360.548 423.2 305.678C426.863 239.398 426.9 168.344 422.838 101.061" stroke="#0049FF" stroke-miterlimit="10"/>
<path d="M38.5 1486.76C45.7072 1367.67 60.2531 1245.15 83.238 1202.84C100.464 1171.13 120.355 1189.74 136.109 1235.75C149.17 1273.89 160.255 1324.19 172.808 1341.64C188.619 1363.63 204.791 1332.04 221.838 1285.92C239.506 1238.1 253.685 1168.83 271.724 1145.82C284.705 1129.26 298.954 1139.72 312.095 1164.42C333.302 1204.28 344.247 1292.99 363.668 1317.21C381.651 1339.64 396.836 1323.25 406.526 1282.17C416.765 1238.76 422.684 1140.55 415.802 1052.04C411.11 991.661 405.553 926.924 398.477 865.59C390.889 799.8 386.982 721.058 390.428 654.729C393.686 592.049 402.464 539.015 410.193 479.714C417.066 426.999 423.183 374.504 426.723 319.389C431.043 252.106 431.617 178.873 427.903 109.141" stroke="#0049FF" stroke-miterlimit="10"/>
<path d="M39.2188 1490.9C47.0418 1369.41 61.5125 1243.58 84.9628 1199.14C102.283 1166.33 122.442 1184.11 138.182 1232.2C151.078 1271.59 161.703 1324.97 174.218 1346.86C189.963 1374.38 206.958 1349.48 223.977 1304.03C241.931 1256.12 255.871 1180.85 274.197 1154.46C287.511 1135.26 302.245 1144.93 315.794 1169.42C336.076 1206.1 347.679 1286.04 366.475 1309.84C383.578 1331.51 398.622 1319.21 408.589 1279.18C418.979 1237.44 424.757 1143.73 419.2 1059.04C415.157 997.463 409.91 932.726 402.99 871.784C395.797 808.443 391.514 734.328 394.142 669.591C396.714 606.25 404.946 551.429 412.637 493.058C419.604 440.147 426.224 388.435 430.267 333.076C435.246 264.789 436.355 189.352 432.994 117.196" stroke="#0049FF" stroke-miterlimit="10"/>
<path d="M39.9297 1495.06C48.3639 1371.2 62.7641 1242.06 86.6751 1195.49C104.089 1161.56 124.521 1178.48 140.242 1228.67C152.969 1269.32 163.147 1325.68 175.61 1352.1C191.299 1385 209.108 1366.94 226.103 1322.2C244.344 1274.19 258.034 1192.95 276.652 1163.15C290.3 1141.31 305.518 1150.27 319.476 1174.49C338.832 1208.03 351.102 1278.96 369.263 1302.54C385.492 1323.28 400.391 1315.25 410.635 1276.27C421.176 1236.16 426.869 1146.97 422.577 1066.09C419.243 1003.29 414.246 938.603 407.485 878.028C400.687 817.135 396.009 747.648 397.838 684.502C399.695 620.5 407.41 563.892 415.059 506.451C422.125 453.368 429.248 402.441 433.789 346.787C439.436 277.545 441.072 199.88 438.058 125.276" stroke="#0049FF" stroke-miterlimit="10"/>
<path d="M40.6484 1499.23C49.6938 1372.96 64.0235 1240.55 88.3906 1191.82C105.903 1156.78 126.608 1172.82 142.306 1225.15C154.872 1267.01 164.59 1326.51 177.011 1357.34C192.629 1395.8 211.27 1384.39 228.232 1340.37C246.76 1292.28 260.196 1204.99 279.115 1171.87C293.096 1147.38 308.79 1155.76 323.166 1179.56C341.596 1210.06 354.524 1272.08 372.056 1295.24C387.405 1315.25 402.158 1311.23 412.685 1273.36C423.375 1234.89 429.045 1150.27 425.956 1073.17C423.389 1009.14 418.585 944.504 411.979 884.296C405.571 825.876 400.475 761.066 401.533 699.438C402.642 634.799 409.878 576.403 417.485 519.869C424.654 466.615 432.275 416.495 437.315 360.548C443.629 290.375 445.787 210.433 443.126 133.405" stroke="#0049FF" stroke-miterlimit="10"/>
<path d="M41.3594 1503.39C51.0159 1374.72 65.2798 1239.05 90.1029 1188.15C107.714 1152.03 128.692 1167.14 144.366 1221.59C156.768 1264.69 166.025 1327.32 178.404 1362.53C193.956 1406.55 213.438 1402 230.358 1358.49C249.192 1310.52 262.355 1216.99 281.57 1180.51C295.876 1153.33 312.053 1161.29 326.853 1184.55C344.356 1212.05 357.943 1265.13 374.849 1287.87C389.32 1307.14 403.927 1307.14 414.735 1270.37C425.577 1233.49 431.279 1153.65 429.338 1080.15C427.612 1014.95 422.916 950.306 416.48 890.466C410.462 834.519 404.928 774.434 405.234 714.276C405.568 649.073 412.371 588.866 419.911 533.212C427.199 479.861 435.308 430.5 440.842 374.21C447.828 303.131 450.508 220.912 448.199 141.436" stroke="#0049FF" stroke-miterlimit="10"/>
<path d="M42.0703 1507.53C52.338 1376.48 66.5502 1237.75 91.8152 1184.48C109.535 1147.41 130.78 1161.46 146.426 1218.07C158.673 1262.39 167.46 1328.18 179.796 1367.77C195.278 1417.37 215.583 1419.38 232.479 1376.63C251.595 1328.52 264.5 1229.01 284.025 1189.18C298.656 1159.31 315.308 1166.99 330.535 1189.57C347.117 1214.15 361.357 1258.22 377.633 1280.53C391.225 1299.04 405.682 1303.03 416.777 1267.41C427.764 1232.1 433.556 1157.3 432.714 1087.18C431.915 1020.92 427.237 956.183 420.975 896.71C415.343 843.236 409.358 787.999 408.93 729.187C408.455 663.519 414.83 601.329 422.338 546.606C429.72 493.034 438.337 444.579 444.369 387.921C452.027 315.961 455.229 231.416 453.269 149.516" stroke="#0049FF" stroke-miterlimit="10"/>
<path d="M42.7891 1511.69C53.6727 1378.25 67.8049 1236.11 93.5401 1180.8C111.349 1142.53 132.886 1155.73 148.499 1214.54C160.586 1260.06 168.912 1329.01 181.206 1373.01C196.622 1428.17 217.745 1436.79 234.623 1394.8C254.016 1346.54 266.667 1241.06 286.497 1197.87C301.452 1165.3 318.57 1172.92 334.235 1194.64C349.895 1216.36 364.789 1251.34 380.44 1273.26C393.147 1291.03 407.463 1298.99 418.84 1264.52C429.978 1230.78 435.901 1161.36 436.108 1094.28C436.315 1027.19 431.576 962.132 425.483 903.002C420.232 852.001 413.781 801.734 412.639 744.171C411.327 678.161 417.298 613.84 424.773 560.072C432.248 506.304 441.378 458.731 447.904 401.731C456.239 328.914 459.958 242.043 458.35 157.693" stroke="#0049FF" stroke-miterlimit="10"/>
<path d="M229.187 2008.67C215.487 1964.55 214.848 1856.43 222.882 1783.71C230.917 1710.99 244.913 1662.93 257.353 1609.63C269.792 1556.32 281.753 1487.86 282.782 1404.13C284.094 1297.11 267.103 1199.93 269.28 1093.27C270.977 1010.15 284.014 947.27 297.714 912.16C305.461 892.303 314.413 885.349 322.429 868.945C358.789 794.585 391.115 914.633 413.771 816.988C438.303 711.264 437.052 592.93 432.52 534.633C426.714 459.955 407.269 294.513 368.977 340.103C353.42 358.614 337.459 374.357 321.535 369.215C297.69 361.527 274.503 263.809 272.98 139.648C271.936 54.5647 280.413 -33.9468 274.513 -113.497C270.549 -166.947 260.507 -203.943 249.798 -217.091C239.088 -230.239 227.791 -222.331 217.203 -206.685" stroke="#0049FF" stroke-miterlimit="10"/>
<path d="M230.251 2008.38C216.579 1960.27 215.338 1850.21 223.401 1774.46C231.271 1700.51 245.403 1651.22 258.111 1599.05C270.668 1547.48 282.774 1482.55 284.434 1401.75C286.535 1298.48 271.044 1202.13 273.325 1096.04C275.177 1011.69 287.273 946.756 300.545 907.654C308.171 885.202 317.198 874.821 325.486 857.192C360.619 782.441 392.217 896.489 414.417 801.122C438.285 698.508 437.613 583.21 433.354 524.521C427.961 450.137 409.146 291.232 372.137 330.824C356.882 347.155 341.043 360.376 325.274 354.892C302.045 347.057 279.549 253.697 277.518 134.017C276.112 51.2103 283.809 -36.1016 278.031 -114.893C274.096 -168.857 264.448 -206.93 254.054 -222.747C243.565 -238.711 232.315 -234.842 221.586 -222.135" stroke="#0049FF" stroke-miterlimit="10"/>
<path d="M231.329 2008.09C217.681 1955.98 215.843 1844.02 223.934 1765.18C231.649 1690.03 245.903 1639.5 258.884 1588.45C271.554 1538.6 283.81 1477.21 286.1 1399.33C288.991 1299.82 274.958 1204.24 277.379 1098.73C279.349 1013.13 290.547 946.046 303.391 903.076C310.899 877.955 319.996 864.219 328.553 845.342C362.468 770.492 393.328 878.249 415.072 785.159C438.277 685.654 438.179 573.416 434.201 514.311C429.213 440.27 411.028 287.78 375.312 321.471C360.343 335.598 344.641 346.322 329.028 340.495C306.414 332.513 284.605 243.463 282.066 128.288C280.294 47.7336 287.214 -38.3539 281.554 -116.411C277.647 -170.864 268.385 -210.088 258.315 -228.525C248.038 -247.354 236.848 -247.452 225.97 -237.707" stroke="#0049FF" stroke-miterlimit="10"/>
<path d="M232.395 2007.77C218.776 1951.7 216.345 1837.8 224.46 1755.9C232.024 1679.55 246.396 1627.77 259.644 1577.82C272.427 1529.66 284.834 1471.85 287.754 1396.9C291.44 1301.17 278.882 1206.37 281.426 1101.45C283.532 1014.6 293.814 945.263 306.23 898.522C313.621 870.683 322.788 853.666 331.617 833.516C364.334 758.789 394.437 860.032 415.724 769.219C438.267 672.824 438.742 563.647 435.042 504.15C430.458 430.451 412.885 284.254 378.48 312.142C363.789 324.041 348.237 332.072 332.774 326.147C310.781 317.7 289.639 233.253 286.611 122.607C284.468 44.3057 290.579 -40.4842 285.074 -117.88C281.167 -172.799 272.319 -213.223 262.573 -234.255C252.508 -255.972 241.375 -260.037 230.355 -253.23" stroke="#0049FF" stroke-miterlimit="10"/>
<path d="M233.466 2007.47C219.87 1947.41 216.852 1831.65 224.985 1746.64C232.399 1669.12 246.879 1616.04 260.41 1567.24C273.296 1520.75 285.863 1466.54 289.417 1394.5C293.893 1302.52 282.821 1208.5 285.482 1104.17C287.729 1016.07 297.085 944.405 309.073 893.943C316.346 863.337 325.584 843.138 334.686 821.665C366.218 747.281 395.554 841.791 416.381 753.255C438.261 659.944 439.31 553.877 435.892 493.939C431.708 420.608 414.731 280.581 381.662 302.789C367.243 312.46 351.846 317.969 336.534 311.75C315.157 303.082 294.682 222.969 291.166 116.878C288.646 40.7797 293.982 -42.7371 288.608 -119.398C284.725 -174.807 276.267 -216.479 266.846 -240.058C256.987 -264.714 245.915 -272.671 234.75 -268.827" stroke="#0049FF" stroke-miterlimit="10"/>
<path d="M234.535 2007.18C220.967 1943.13 217.361 1825.51 225.509 1737.39C232.782 1658.72 247.361 1604.31 261.173 1556.67C274.163 1511.83 286.913 1461.27 291.074 1392.13C296.372 1303.96 286.758 1210.67 289.532 1106.91C291.92 1017.57 300.34 943.451 311.915 889.413C319.07 856.017 328.384 832.658 337.749 809.863C368.11 736.018 396.661 823.599 417.037 737.34C438.254 647.139 439.871 544.157 436.736 483.778C432.951 410.814 416.553 276.835 384.833 293.485C370.672 300.903 355.44 303.89 340.283 297.402C319.522 288.514 299.701 212.71 295.714 111.222C292.809 37.303 297.378 -44.8916 292.132 -120.843C288.272 -176.741 280.2 -219.687 271.107 -245.763C261.455 -273.43 250.449 -285.232 239.138 -284.326" stroke="#0049FF" stroke-miterlimit="10"/>
<path d="M235.602 2006.89C222.057 1938.87 217.878 1819.36 226.034 1728.11C233.171 1648.29 247.844 1592.54 261.938 1546.06C275.027 1502.9 287.946 1455.96 292.732 1389.71C298.825 1305.33 290.697 1212.81 293.579 1109.63C296.108 1019.06 303.592 942.423 314.753 884.86C321.782 848.598 331.175 822.179 340.813 798.062C370.013 724.951 397.77 805.407 417.689 721.425C438.244 634.334 440.425 534.437 437.581 473.642C434.186 401.07 418.362 272.967 388.005 284.181C374.098 289.322 359.035 289.837 344.038 283.054C323.898 273.946 304.711 202.427 300.264 105.542C296.968 33.7775 300.776 -47.0949 295.661 -122.287C291.825 -178.675 284.143 -222.967 275.375 -251.467C265.93 -282.171 254.985 -297.768 243.528 -299.824" stroke="#0049FF" stroke-miterlimit="10"/>
<path d="M236.676 2006.59C223.16 1934.58 218.402 1813.24 226.564 1718.85C233.564 1637.91 248.322 1580.78 262.703 1535.46C275.89 1493.91 288.979 1450.65 294.39 1387.31C301.278 1306.7 294.639 1214.96 297.629 1112.35C300.304 1020.53 306.835 941.321 317.591 880.305C324.493 841.154 333.971 811.748 343.877 786.236C371.929 714.006 398.878 787.191 418.341 705.486C438.237 621.504 440.973 524.716 438.421 463.456C435.412 391.276 419.728 248.727 391.172 274.852C377.698 287.168 362.63 275.758 347.783 268.682C328.259 259.378 309.698 192.094 304.808 99.8365C301.118 30.2025 304.174 -49.2988 299.181 -123.781C295.368 -180.683 288.076 -226.346 279.633 -257.221C270.395 -291.01 259.511 -310.377 247.913 -315.372" stroke="#0049FF" stroke-miterlimit="10"/>
<path d="M237.744 2006.3C224.256 1930.3 218.92 1807.14 227.086 1709.6C233.959 1627.52 248.797 1568.98 263.465 1524.89C276.746 1484.95 290.004 1445.36 296.045 1384.93C303.727 1308.12 298.579 1217.14 301.678 1115.11C304.503 1022.07 310.069 940.219 320.431 875.776C327.201 833.687 336.768 801.343 346.937 774.434C373.853 703.209 399.983 768.999 418.99 689.571C438.223 608.699 441.519 515.021 439.262 453.32C436.639 381.556 421.567 242.802 394.341 265.548C381.074 276.639 366.222 261.704 351.531 254.359C332.622 244.883 314.667 181.786 309.35 94.2053C305.251 26.6769 307.568 -51.4532 302.702 -125.201C298.913 -182.592 292.016 -229.676 283.892 -262.902C274.866 -299.824 264.043 -322.889 252.295 -330.871" stroke="#0049FF" stroke-miterlimit="10"/>
<path d="M238.807 2005.98C225.342 1926.02 219.442 1801 227.608 1700.29C234.355 1617.09 249.263 1557.13 264.227 1514.26C277.602 1475.94 291.029 1440.02 297.701 1382.48C306.172 1309.47 302.524 1219.27 305.726 1117.78C308.697 1023.49 313.29 938.995 323.271 871.173C329.9 826.146 339.566 790.912 350.003 762.559C375.795 692.485 401.093 750.733 419.644 673.583C438.214 595.82 442.065 505.276 440.104 443.085C437.857 371.737 423.419 236.999 397.51 256.17C384.422 265.866 369.819 247.601 355.278 239.937C336.985 230.29 319.623 171.405 313.897 88.4514C309.379 23.0287 310.968 -53.7303 306.224 -126.743C302.463 -184.625 295.961 -233.177 288.157 -268.704C279.347 -308.786 268.576 -335.547 256.681 -346.467" stroke="#0049FF" stroke-miterlimit="10"/>
<path d="M239.883 2005.69C226.447 1921.73 219.983 1794.9 228.139 1691.04C234.759 1606.74 249.737 1545.33 264.993 1503.68C278.458 1466.93 292.059 1434.71 299.365 1380.11C308.626 1310.87 306.478 1221.45 309.783 1120.52C312.909 1025.01 316.515 937.795 326.115 866.643C332.598 818.629 342.373 780.604 353.073 750.758C377.75 681.956 402.207 732.541 420.307 657.667C438.214 583.014 442.615 495.604 440.96 432.924C439.084 362.017 425.304 231.465 400.693 246.866C387.755 254.946 373.425 233.571 359.039 225.589C341.362 215.771 324.573 161.072 318.452 82.7707C313.502 19.4292 314.381 -55.9341 309.755 -128.212C306.022 -186.608 299.919 -236.63 292.426 -274.434C283.841 -317.723 273.112 -348.132 261.077 -361.991" stroke="#0049FF" stroke-miterlimit="10"/>
<path d="M240.952 2005.39C227.539 1917.45 220.515 1788.83 228.663 1681.78C235.165 1596.38 250.204 1533.48 265.756 1493.1C279.31 1457.92 293.081 1429.42 301.021 1377.71C311.073 1312.24 310.428 1223.6 313.828 1123.27C317.104 1026.5 319.714 936.571 328.952 862.114C335.28 811.112 345.176 770.321 356.13 738.981C379.703 671.551 403.308 714.374 420.952 641.777C438.197 570.234 443.147 485.958 441.798 422.812C440.294 352.346 427.153 250.441 403.858 237.587C391.061 230.511 377.018 219.566 362.783 211.266C345.721 201.301 329.483 150.789 322.995 77.1398C317.603 15.904 317.777 -58.0883 313.277 -129.608C309.568 -188.493 303.875 -240.057 296.686 -280.089C288.327 -326.635 277.646 -360.619 265.46 -377.44" stroke="#0049FF" stroke-miterlimit="10"/>
<path d="M242.021 2005.1C228.636 1913.19 221.057 1782.76 229.191 1672.53C235.575 1586.02 250.671 1521.63 266.524 1482.5C280.163 1448.86 294.112 1424.11 302.682 1375.31C313.519 1313.61 314.384 1225.76 317.882 1125.98C321.313 1028 322.917 935.298 331.797 857.535C337.966 803.522 347.994 760.013 359.202 727.13C381.679 661.169 404.452 696.329 421.612 625.813C438.222 557.551 443.685 476.237 442.646 412.602C441.503 342.552 428.89 245.177 407.033 228.234C394.438 218.464 380.616 205.512 366.54 196.869C350.095 186.781 334.388 140.457 327.547 71.4103C321.694 12.3046 321.187 -60.3409 316.805 -131.126C313.128 -190.525 307.844 -243.608 300.952 -285.868C292.833 -335.669 282.18 -373.253 269.853 -393.012" stroke="#0049FF" stroke-miterlimit="10"/>
<path d="M243.09 2004.81C229.729 1908.9 221.6 1776.68 229.715 1663.25C235.982 1575.64 251.134 1509.7 267.288 1471.9C281.011 1439.78 295.134 1418.77 304.339 1372.89C315.966 1314.95 318.34 1227.91 321.932 1128.7C325.524 1029.49 326.107 934.024 334.639 852.981C340.643 795.956 350.812 749.803 362.269 715.304C383.665 650.885 405.569 678.112 422.268 609.898C438.215 544.745 444.214 466.566 443.494 402.441C442.709 332.831 430.622 239.668 410.209 218.905C397.816 206.295 384.215 191.482 370.294 182.496C354.465 172.286 339.266 130.198 332.101 65.7053C325.768 8.72977 324.602 -62.5692 320.338 -132.619C316.69 -192.533 311.824 -247.134 305.223 -291.622C297.348 -344.704 286.719 -385.838 274.246 -408.56" stroke="#0049FF" stroke-miterlimit="10"/>
<path d="M244.163 2004.51C230.83 1904.62 222.151 1770.61 230.242 1653.99C236.396 1565.31 251.6 1497.81 268.05 1461.32C281.858 1430.69 296.155 1413.46 305.995 1370.51C318.406 1316.35 322.294 1230.09 325.98 1131.44C329.732 1031.01 329.285 932.8 337.475 848.451C343.305 788.415 353.634 739.666 365.326 703.503C385.645 640.7 406.67 659.92 422.913 593.983C438.197 531.94 444.732 456.895 444.327 392.304C443.895 323.136 432.348 233.914 413.374 209.625C401.183 194.029 387.803 177.526 374.038 168.198C358.824 157.89 344.118 120.061 336.643 60.0738C329.817 5.30196 328.002 -64.7483 323.855 -134.039C320.24 -194.443 315.793 -250.61 309.479 -297.302C301.853 -353.69 291.242 -398.374 278.628 -424.034" stroke="#0049FF" stroke-miterlimit="10"/>
<path d="M245.232 2004.19C231.927 1900.31 222.698 1764.52 230.77 1644.71C236.816 1554.93 252.063 1485.86 268.818 1450.72C282.711 1421.58 297.181 1408.12 307.661 1368.09C320.857 1317.67 326.259 1232.25 330.034 1134.14C333.946 1032.45 332.465 931.503 340.321 843.872C345.977 780.825 356.47 729.53 368.397 691.652C387.649 630.539 407.785 641.679 423.577 578.019C438.198 519.085 445.26 447.174 445.184 382.094C445.104 313.342 434.113 227.793 416.558 200.272C404.579 181.493 391.415 163.496 377.8 153.8C363.202 143.395 348.967 109.924 341.2 54.3688C333.861 1.874 331.421 -66.9765 327.387 -135.533C323.805 -196.451 319.781 -254.185 313.749 -303.056C306.382 -362.75 295.785 -410.96 283.021 -439.582" stroke="#0049FF" stroke-miterlimit="10"/>
<path d="M246.304 2003.9C233.023 1896.05 223.258 1758.47 231.297 1635.43C237.235 1544.57 252.529 1473.86 269.585 1440.12C283.557 1412.45 298.207 1402.78 309.321 1365.69C323.303 1319.02 330.223 1234.42 334.087 1136.88C338.164 1033.99 335.634 930.253 343.166 839.318C348.638 773.259 359.315 719.491 371.468 679.85C389.662 620.5 408.895 623.462 424.236 562.104C438.194 506.255 445.782 437.478 446.031 371.933C446.294 303.596 435.89 221.451 419.732 190.943C407.983 168.76 395.012 149.515 381.552 139.428C367.566 128.948 353.791 99.8852 345.752 48.6636C337.877 -1.45623 334.83 -69.2049 330.909 -137.003C327.36 -198.434 323.768 -257.711 318.009 -308.786C310.91 -371.785 300.313 -423.545 287.408 -455.105" stroke="#0049FF" stroke-miterlimit="10"/>
<path d="M247.373 2003.61C234.12 1891.76 223.815 1752.42 231.821 1626.18C237.655 1534.24 252.987 1461.89 270.349 1429.52C284.406 1403.32 299.215 1397.3 310.978 1363.26C325.73 1320.19 334.183 1236.58 338.137 1139.57C342.378 1035.46 338.795 928.981 346.003 834.74C351.287 765.644 362.161 709.501 374.526 668C391.676 610.437 409.974 605.075 424.882 546.141C438.154 493.254 446.282 427.758 446.87 361.748C447.472 293.828 437.693 214.84 422.898 181.615C411.408 155.808 398.601 135.56 385.296 125.056C371.926 114.503 358.593 89.9694 350.29 42.9591C341.875 -4.66334 338.241 -71.4571 334.433 -138.496C330.916 -200.442 327.757 -261.261 322.27 -314.54C315.444 -380.844 304.842 -436.13 291.791 -470.653" stroke="#0049FF" stroke-miterlimit="10"/>
<path d="M248.436 2003.31C235.206 1887.48 224.37 1746.37 232.343 1616.92C238.074 1523.88 253.443 1449.89 271.106 1418.94C285.243 1394.16 300.235 1391.98 312.628 1360.89C328.171 1321.59 338.142 1238.78 342.181 1142.34C346.59 1037.01 341.95 927.781 348.838 830.235C353.929 758.128 365.02 699.683 377.586 656.223C393.698 600.521 411.079 586.908 425.531 530.25C438.14 480.473 446.781 418.087 447.707 351.611C448.647 284.107 439.536 208.083 426.062 172.311C414.873 142.611 402.184 121.628 389.044 110.708C376.284 100.106 363.393 80.2003 354.837 37.3034C345.862 -7.6992 341.649 -73.6605 337.959 -139.94C334.48 -202.4 331.758 -264.738 326.534 -320.244C319.99 -389.854 309.379 -448.69 296.183 -486.151" stroke="#0049FF" stroke-miterlimit="10"/>
<path d="M249.51 2003.02C236.309 1883.22 224.941 1740.32 232.872 1607.67C238.5 1513.55 253.906 1437.87 271.875 1408.36C286.096 1385 301.267 1386.69 314.29 1358.49C330.623 1322.94 342.146 1240.99 346.231 1145.06C350.852 1038.57 345.103 926.532 351.68 825.68C356.579 750.586 367.9 689.914 380.654 644.397C395.736 590.58 412.191 568.691 426.187 514.311C438.133 467.643 447.286 408.342 448.556 341.45C449.83 274.338 441.452 201.154 429.238 163.007C418.401 129.12 405.783 107.696 392.798 96.3354C380.654 85.7091 368.196 70.5287 359.385 31.5983C349.837 -10.5885 345.089 -75.9377 341.483 -141.434C338.06 -204.457 335.756 -268.264 330.801 -325.998C324.539 -398.889 313.914 -461.275 300.572 -501.699" stroke="#0049FF" stroke-miterlimit="10"/>
<path d="M250.575 2002.72C237.397 1878.93 225.54 1734.33 233.391 1598.39C238.944 1503.24 254.355 1425.8 272.633 1397.76C286.935 1375.82 302.289 1381.36 315.947 1356.09C333.069 1324.31 346.092 1243.17 350.281 1147.77C355.057 1040.04 348.25 925.308 354.517 821.101C359.213 742.996 370.797 680.242 383.712 632.571C397.778 580.663 413.298 550.474 426.833 498.371C438.121 454.813 447.772 398.597 449.39 331.264C450.993 264.544 443.424 194.151 432.399 153.653C421.981 115.384 409.363 93.8132 396.537 81.9871C385.005 71.3609 372.988 61.0284 363.924 25.9176C353.797 -13.2821 348.485 -78.1417 344.996 -142.903C341.602 -206.416 339.75 -271.765 335.053 -331.728C329.082 -407.899 318.434 -473.861 304.946 -517.223" stroke="#0049FF" stroke-miterlimit="10"/>
<path d="M251.645 2002.41C238.496 1874.62 226.075 1728.2 233.921 1589.11C239.351 1492.83 254.819 1413.7 273.398 1387.13C287.785 1366.57 303.318 1375.99 317.605 1353.64C335.517 1325.63 350.044 1245.27 354.332 1150.47C359.259 1041.51 351.398 924.059 357.36 816.523C361.854 735.43 373.72 670.693 386.781 620.72C399.841 570.747 414.41 532.233 427.494 482.407C438.119 441.959 448.274 388.827 450.244 321.054C452.172 254.701 445.496 187.173 435.581 144.301C425.67 101.428 412.962 79.9062 400.297 67.5905C389.376 56.9642 377.811 51.6266 368.478 20.2129C357.778 -15.8283 351.892 -80.3695 348.531 -144.372C345.169 -208.399 343.768 -275.266 339.325 -337.457C333.651 -416.909 322.979 -486.421 309.345 -532.746" stroke="#0049FF" stroke-miterlimit="10"/>
</g>
</svg>
