<svg width="58" height="57" viewBox="0 0 58 57" fill="none" xmlns="http://www.w3.org/2000/svg">
<path d="M25.7531 33.6676C30.6779 33.6676 34.6703 29.6752 34.6703 24.7504C34.6703 19.8256 30.6779 15.8333 25.7531 15.8333C20.8283 15.8333 16.8359 19.8256 16.8359 24.7504C16.8359 29.6752 20.8283 33.6676 25.7531 33.6676Z" fill="#0049FF"/>
<path d="M15.5859 38.2291L22.0443 43.2291C22.8776 44.0624 24.7526 44.4791 26.0026 44.4791H33.9193C36.4193 44.4791 39.1276 42.6041 39.7526 40.1041L44.7526 24.8958C45.7943 21.9791 43.9193 19.4791 40.7943 19.4791H32.4609C31.2109 19.4791 30.1693 18.4374 30.3776 16.9791L31.4193 10.3124C31.8359 8.43743 30.5859 6.3541 28.7109 5.7291C27.0443 5.1041 24.9609 5.93743 24.1276 7.18743L15.5859 19.8958" stroke="#3A3A3A" stroke-width="1.5" stroke-miterlimit="10"/>
<path d="M4.96094 38.229V17.8123C4.96094 14.8956 6.21094 13.854 9.1276 13.854H11.2109C14.1276 13.854 15.3776 14.8956 15.3776 17.8123V38.229C15.3776 41.1456 14.1276 42.1873 11.2109 42.1873H9.1276C6.21094 42.1873 4.96094 41.1456 4.96094 38.229Z" stroke="#3A3A3A" stroke-width="1.5" stroke-linecap="round" stroke-linejoin="round"/>
</svg>
