<svg width="56" height="56" viewBox="0 0 56 56" fill="none" xmlns="http://www.w3.org/2000/svg">
<g clip-path="url(#clip0_569_2621)">
<path d="M23.7531 32.6677C28.6779 32.6677 32.6703 28.6753 32.6703 23.7505C32.6703 18.8257 28.6779 14.8333 23.7531 14.8333C18.8283 14.8333 14.8359 18.8257 14.8359 23.7505C14.8359 28.6753 18.8283 32.6677 23.7531 32.6677Z" fill="#0049FF"/>
<path d="M34.4635 6.96966L34.3118 15.1813C34.2901 16.3079 35.0053 17.803 35.9153 18.4747L41.2885 22.5479C44.7336 25.1479 44.1702 28.333 40.0535 29.633L33.0552 31.8213C31.8852 32.1896 30.6502 33.468 30.3469 34.6597L28.6785 41.0296C27.3569 46.0563 24.0635 46.5546 21.3335 42.1346L17.5201 35.9596C16.8268 34.8329 15.1802 33.988 13.8802 34.053L6.64357 34.4213C1.46524 34.6813 -0.00811787 31.6913 3.37188 27.748L7.66184 22.7646C8.46351 21.8329 8.83183 20.0996 8.4635 18.9296L6.27527 11.9313C4.99694 7.81461 7.29358 5.53964 11.3886 6.88298L17.7803 8.98465C18.8636 9.33131 20.4886 9.09296 21.3986 8.42129L28.0719 3.61129C31.6686 1.01129 34.5502 2.52799 34.4635 6.96966Z" stroke="#222222" stroke-width="1.5" stroke-linecap="round" stroke-linejoin="round"/>
<path d="M44.4712 45.6659L37.9062 39.1009" stroke="#222222" stroke-width="1.5" stroke-linecap="round" stroke-linejoin="round"/>
</g>
<defs>
<clipPath id="clip0_569_2621">
<rect width="65" height="65" fill="white" transform="translate(-9 -9)"/>
</clipPath>
</defs>
</svg>
