<svg width="2130" height="1059" viewBox="0 0 2130 1059" fill="none" xmlns="http://www.w3.org/2000/svg">
<path fill-rule="evenodd" clip-rule="evenodd" d="M1626.94 238.11C1671.73 227.458 1714.7 259.373 1753.59 283.738C1794.94 309.648 1848.27 334.434 1856.66 382.039C1865.05 429.666 1809.45 463.317 1793.26 508.946C1777.67 552.895 1798 609.522 1764.37 642.198C1730.19 675.4 1674.31 678.029 1626.94 670.529C1583.63 663.672 1546.74 636.091 1518.22 603.224C1494.06 575.371 1499.31 534.336 1481.07 502.394C1455.33 457.316 1374.06 429.008 1390.76 379.966C1407.53 330.706 1493.06 362.029 1538.06 335.001C1576.72 311.779 1582.93 248.577 1626.94 238.11Z" fill="#436CFC" fill-opacity="0.1"/>
<path fill-rule="evenodd" clip-rule="evenodd" d="M755.432 750.19C738.645 831.834 813.695 942.181 736.191 991.554C657.602 1041.62 522.204 1008.54 425.484 960.379C343.578 919.598 340.79 831.622 286.257 767.534C222.878 693.05 86.2809 646.049 86.2317 561.685C86.1802 473.596 183.252 406.551 286.033 385.072C378.055 365.842 469.826 432.169 566.034 461.418C657.446 489.209 780.95 479.235 827.072 549.557C873.159 619.824 770.301 677.873 755.432 750.19Z" fill="#436CFC" fill-opacity="0.07"/>
<path fill-rule="evenodd" clip-rule="evenodd" d="M357.518 163.482C406.707 180.601 475.151 155.413 503.546 199.066C532.339 243.331 509.555 306.702 478.403 349.321C452.022 385.413 398.599 377.288 358.629 397.328C312.175 420.619 280.924 483.079 229.747 473.991C176.309 464.501 137.586 409.265 126.618 356.127C116.799 308.552 158.874 270.342 178.547 225.933C197.238 183.739 193.665 121.598 237.248 106.389C280.798 91.193 313.947 148.319 357.518 163.482Z" fill="#436CFC" fill-opacity="0.07"/>
<path fill-rule="evenodd" clip-rule="evenodd" d="M1942.62 87.8803C1991.81 104.999 2060.25 79.8117 2088.65 123.465C2117.44 167.729 2094.66 231.1 2063.5 273.719C2037.12 309.811 1983.7 301.687 1943.73 321.727C1897.28 345.018 1866.03 407.478 1814.85 398.39C1761.41 388.9 1722.69 333.663 1711.72 280.525C1701.9 232.95 1743.98 194.741 1763.65 150.332C1782.34 108.137 1778.77 45.9961 1822.35 30.7878C1865.9 15.5915 1899.05 72.717 1942.62 87.8803Z" fill="#436CFC" fill-opacity="0.07"/>
</svg>
