<svg width="58" height="53" viewBox="0 0 58 53" fill="none" xmlns="http://www.w3.org/2000/svg">
<path d="M25.7531 29.6676C30.6779 29.6676 34.6703 25.6752 34.6703 20.7504C34.6703 15.8256 30.6779 11.8333 25.7531 11.8333C20.8283 11.8333 16.8359 15.8256 16.8359 20.7504C16.8359 25.6752 20.8283 29.6676 25.7531 29.6676Z" fill="#0049FF"/>
<path d="M25.7682 0.47934L44.5182 7.97929C45.2474 8.27096 45.8307 9.14594 45.8307 9.91677V16.8335C45.8307 17.9793 44.8932 18.9168 43.7474 18.9168H6.2474C5.10156 18.9168 4.16406 17.9793 4.16406 16.8335V9.91677C4.16406 9.14594 4.74741 8.27096 5.47657 7.97929L24.2266 0.47934C24.6432 0.312673 25.3516 0.312673 25.7682 0.47934Z" stroke="#3A3A3A" stroke-width="1.5" stroke-miterlimit="10" stroke-linecap="round" stroke-linejoin="round"/>
<path d="M45.8307 41.8333H4.16406V35.5833C4.16406 34.4375 5.10156 33.5 6.2474 33.5H43.7474C44.8932 33.5 45.8307 34.4375 45.8307 35.5833V41.8333Z" stroke="#3A3A3A" stroke-width="1.5" stroke-miterlimit="10" stroke-linecap="round" stroke-linejoin="round"/>
<path d="M8.33594 33.5V18.9167" stroke="#3A3A3A" stroke-width="1.5" stroke-miterlimit="10" stroke-linecap="round" stroke-linejoin="round"/>
<path d="M16.6641 33.5V18.9167" stroke="#3A3A3A" stroke-width="1.5" stroke-miterlimit="10" stroke-linecap="round" stroke-linejoin="round"/>
<path d="M25 33.5V18.9167" stroke="#3A3A3A" stroke-width="1.5" stroke-miterlimit="10" stroke-linecap="round" stroke-linejoin="round"/>
<path d="M33.3359 33.5V18.9167" stroke="#3A3A3A" stroke-width="1.5" stroke-miterlimit="10" stroke-linecap="round" stroke-linejoin="round"/>
<path d="M41.6641 33.5V18.9167" stroke="#3A3A3A" stroke-width="1.5" stroke-miterlimit="10" stroke-linecap="round" stroke-linejoin="round"/>
<path d="M2.08594 41.8333H47.9193" stroke="#3A3A3A" stroke-width="1.5" stroke-miterlimit="10" stroke-linecap="round" stroke-linejoin="round"/>
<path d="M25 13.7083C26.7259 13.7083 28.125 12.3092 28.125 10.5833C28.125 8.85745 26.7259 7.45834 25 7.45834C23.2741 7.45834 21.875 8.85745 21.875 10.5833C21.875 12.3092 23.2741 13.7083 25 13.7083Z" stroke="#3A3A3A" stroke-width="1.5" stroke-miterlimit="10" stroke-linecap="round" stroke-linejoin="round"/>
</svg>
