<svg width="55" height="56" viewBox="0 0 55 56" fill="none" xmlns="http://www.w3.org/2000/svg">
<path d="M22.7531 32.6676C27.6779 32.6676 31.6703 28.6752 31.6703 23.7504C31.6703 18.8256 27.6779 14.8333 22.7531 14.8333C17.8283 14.8333 13.8359 18.8256 13.8359 23.7504C13.8359 28.6752 17.8283 32.6676 22.7531 32.6676Z" fill="#0049FF"/>
<path d="M35.1667 23.9999C40.5833 23.9999 42.8333 21.9165 40.8333 15.0832C39.4792 10.479 35.5208 6.5207 30.9167 5.16653C24.0833 3.16653 22 5.41653 22 10.8332V16.8332C22 21.9165 24.0833 23.9999 28.25 23.9999H35.1667Z" stroke="#3A3A3A" stroke-width="1.5" stroke-linecap="round" stroke-linejoin="round"/>
<path d="M38.667 29.6245C36.7295 39.2703 27.4795 46.2703 16.9586 44.562C9.0628 43.2912 2.70864 36.937 1.41697 29.0412C-0.270531 18.562 6.6878 9.312 16.292 7.35367" stroke="#3A3A3A" stroke-width="1.5" stroke-linecap="round" stroke-linejoin="round"/>
</svg>
