<svg width="52" height="52" viewBox="0 0 52 52" fill="none" xmlns="http://www.w3.org/2000/svg">
<path d="M26.7531 34.6676C31.6779 34.6676 35.6703 30.6752 35.6703 25.7504C35.6703 20.8256 31.6779 16.8333 26.7531 16.8333C21.8283 16.8333 17.8359 20.8256 17.8359 25.7504C17.8359 30.6752 21.8283 34.6676 26.7531 34.6676Z" fill="#0049FF"/>
<path d="M39.0037 15.5134C38.8737 15.4917 38.7221 15.4917 38.5921 15.5134C35.6021 15.405 33.2188 12.9567 33.2188 9.92336C33.2188 6.82503 35.7104 4.33336 38.8087 4.33336C41.9071 4.33336 44.3987 6.8467 44.3987 9.92336C44.3771 12.9567 41.9937 15.405 39.0037 15.5134Z" stroke="#3A3A3A" stroke-width="1.5" stroke-linecap="round" stroke-linejoin="round"/>
<path d="M36.7759 31.287C39.7443 31.7854 43.0159 31.2654 45.3126 29.727C48.3676 27.6904 48.3676 24.3537 45.3126 22.317C42.9943 20.7787 39.6793 20.2587 36.7109 20.7787" stroke="#3A3A3A" stroke-width="1.5" stroke-linecap="round" stroke-linejoin="round"/>
<path d="M12.9341 15.5134C13.0641 15.4917 13.2157 15.4917 13.3457 15.5134C16.3357 15.405 18.7191 12.9567 18.7191 9.92335C18.7191 6.82501 16.2274 4.33334 13.1291 4.33334C10.0307 4.33334 7.53906 6.84668 7.53906 9.92335C7.56073 12.9567 9.94407 15.405 12.9341 15.5134Z" stroke="#3A3A3A" stroke-width="1.5" stroke-linecap="round" stroke-linejoin="round"/>
<path d="M15.1639 31.2868C12.1955 31.7851 8.92385 31.2651 6.62719 29.7268C3.57219 27.6901 3.57219 24.3534 6.62719 22.3168C8.94552 20.7784 12.2605 20.2584 15.2288 20.7784" stroke="#3A3A3A" stroke-width="1.5" stroke-linecap="round" stroke-linejoin="round"/>
<path d="M26.0037 31.6977C25.8737 31.6761 25.7221 31.6761 25.5921 31.6977C22.6021 31.5894 20.2188 29.1411 20.2188 26.1077C20.2188 23.0094 22.7104 20.5177 25.8087 20.5177C28.9071 20.5177 31.3987 23.0311 31.3987 26.1077C31.3771 29.1411 28.9937 31.6111 26.0037 31.6977Z" stroke="#3A3A3A" stroke-width="1.5" stroke-linecap="round" stroke-linejoin="round"/>
<path d="M19.6975 38.5228C16.6425 40.5594 16.6425 43.8961 19.6975 45.9328C23.1642 48.2511 28.8408 48.2511 32.3075 45.9328C35.3625 43.8961 35.3625 40.5594 32.3075 38.5228C28.8625 36.2261 23.1642 36.2261 19.6975 38.5228Z" stroke="#3A3A3A" stroke-width="1.5" stroke-linecap="round" stroke-linejoin="round"/>
</svg>
