<svg width="57" height="56" viewBox="0 0 57 56" fill="none" xmlns="http://www.w3.org/2000/svg">
<path d="M9.04219 21.0219C13.967 21.0219 17.9594 17.0295 17.9594 12.1047C17.9594 7.17986 13.967 3.1875 9.04219 3.1875C4.11736 3.1875 0.125 7.17986 0.125 12.1047C0.125 17.0295 4.11736 21.0219 9.04219 21.0219Z" fill="#0049FF"/>
<path d="M12.9062 37.3252V32.8402" stroke="#3A3A3A" stroke-width="1.5" stroke-linecap="round"/>
<path d="M24 37.325V28.355" stroke="#3A3A3A" stroke-width="1.5" stroke-linecap="round"/>
<path d="M35.0938 37.3243V23.8477" stroke="#3A3A3A" stroke-width="1.5" stroke-linecap="round"/>
<path d="M35.0929 10.6752L34.0963 11.8452C28.5713 18.3019 21.1613 22.8735 12.9062 24.9319" stroke="#3A3A3A" stroke-width="1.5" stroke-linecap="round"/>
<path d="M28.7422 10.6752H35.0905V17.0019" stroke="#3A3A3A" stroke-width="1.5" stroke-linecap="round" stroke-linejoin="round"/>
<path d="M17.5026 45.6667H30.5026C41.3359 45.6667 45.6693 41.3333 45.6693 30.5V17.5C45.6693 6.66668 41.3359 2.33334 30.5026 2.33334H17.5026C6.66927 2.33334 2.33594 6.66668 2.33594 17.5V30.5C2.33594 41.3333 6.66927 45.6667 17.5026 45.6667Z" stroke="#3A3A3A" stroke-width="1.5" stroke-linecap="round" stroke-linejoin="round"/>
</svg>
