<svg width="101" height="100" viewBox="0 0 101 100" fill="none" xmlns="http://www.w3.org/2000/svg">
<g clip-path="url(#clip0_670_5173)">
<path d="M80.5 88C86.8513 88 92 83.0751 92 77C92 70.9249 86.8513 66 80.5 66C74.1487 66 69 70.9249 69 77C69 83.0751 74.1487 88 80.5 88Z" fill="#0049FF"/>
<path d="M50.8828 64.1043C58.4594 64.1043 64.6016 57.9621 64.6016 50.3855C64.6016 42.8088 58.4594 36.6667 50.8828 36.6667C43.3062 36.6667 37.1641 42.8088 37.1641 50.3855C37.1641 57.9621 43.3062 64.1043 50.8828 64.1043Z" fill="#0049FF"/>
<path d="M18.4981 44.6081L18.4981 44.6081C21.1002 41.8798 22.4123 40.5544 23.6417 39.8789C24.8262 39.2281 25.9512 39.1729 28.3089 39.1729C30.6116 39.1729 31.9998 39.1244 33.4279 38.3714C34.8167 37.6391 36.2185 36.2511 38.6636 33.7513C48.1838 24.0182 59.1711 17.2953 70.4763 14.26C74.3262 13.2266 77.8824 12.751 80.7174 12.813C82.1352 12.8439 83.3582 13.009 84.3415 13.2975C85.3295 13.5874 86.0394 13.9912 86.4753 14.4729L86.8461 14.1374L86.4753 14.4729C87.2474 15.3261 87.691 16.9644 87.7394 19.2655C87.7872 21.5369 87.4483 24.3442 86.7733 27.4158C85.4236 33.5585 82.7463 40.6842 79.2344 46.5678C77.5097 49.457 72.8148 55.3241 68.8034 59.5868C65.2402 63.3731 63.3587 65.3909 62.3906 67.064C61.3851 68.8018 61.3568 70.181 61.3568 72.5642C61.3568 74.9348 61.3017 76.065 60.6709 77.2255C60.0174 78.4278 58.7359 79.685 56.0898 82.1797C51.9998 86.0357 50.0663 87.1674 48.1255 87.1911C46.1141 87.2152 45.0614 86.8423 44.4374 85.9134C44.1075 85.4223 43.8661 84.7329 43.7106 83.7597C43.5553 82.7882 43.4906 81.5676 43.4906 80.038V74.6149V73.864L42.7978 74.1536L39.354 75.593C39.3539 75.5931 39.3538 75.5931 39.3538 75.5931C37.766 76.2559 32.9703 77.5517 28.4682 78.6304C26.2269 79.1675 24.0768 79.6464 22.4606 79.9614C21.6511 80.1192 20.9836 80.2343 20.5083 80.2954C20.3798 80.312 20.2691 80.3241 20.176 80.3321C20.1807 80.2598 20.1878 80.1762 20.1977 80.0809C20.2416 79.6598 20.3333 79.0682 20.4647 78.3456C20.7269 76.9037 21.1402 74.9776 21.62 72.931C22.5818 68.828 23.7981 64.2935 24.5824 62.2296L26.2973 57.7168L26.5548 57.0391H25.8299H20.4493C18.9481 57.0391 17.7446 56.9743 16.7824 56.8214C15.8185 56.6682 15.1284 56.4312 14.6322 56.1084C13.6949 55.4984 13.3047 54.4803 13.3047 52.5641C13.3047 51.6881 13.603 50.7409 14.4111 49.4825C15.2238 48.2172 16.5292 46.672 18.4981 44.6081ZM19.8802 80.3417C19.8798 80.3416 19.8819 80.342 19.8818 80.3419L19.8802 80.3417ZM38.7677 67.4044L39.4331 67.1263L38.9394 66.6007L36.7377 64.2566C36.1261 63.6054 35.5269 63.0104 35.0523 62.5755C34.816 62.3589 34.6043 62.1761 34.4339 62.0447C34.3498 61.9798 34.2664 61.9201 34.1895 61.8742C34.1513 61.8514 34.1055 61.8264 34.0555 61.8058C34.0147 61.7889 33.9268 61.7557 33.8169 61.7557C33.5724 61.7557 33.402 61.9062 33.3363 61.9682C33.2471 62.0522 33.1649 62.1573 33.0915 62.2631C32.9424 62.4779 32.7796 62.7689 32.6138 63.0981C32.2799 63.7612 31.9039 64.64 31.5642 65.5254C31.2244 66.4109 30.9154 67.3176 30.7184 68.0379C30.6206 68.3957 30.5462 68.7228 30.512 68.9845C30.4952 69.1136 30.4854 69.2467 30.494 69.3685C30.5004 69.4602 30.5231 69.6763 30.6878 69.8412L30.6889 69.8423C30.8461 69.9989 31.0495 70.0302 31.1489 70.0403C31.2726 70.053 31.4078 70.0469 31.5403 70.0327C31.8082 70.0042 32.143 69.9338 32.5147 69.8348C33.2626 69.6356 34.2209 69.3041 35.2143 68.8891L35.2143 68.8891L38.7677 67.4044ZM72.7332 33.0131C72.7332 32.2813 72.5961 31.4899 72.3775 30.7978C72.1635 30.1202 71.8504 29.4706 71.4548 29.0749C71.0592 28.6793 70.4096 28.3663 69.7319 28.1523C69.0398 27.9337 68.2485 27.7965 67.5167 27.7965C65.8776 27.7965 64.5504 28.2175 63.6357 29.1321C62.7211 30.0468 62.3001 31.374 62.3001 33.0131C62.3001 34.6522 62.7211 35.9794 63.6357 36.894C64.5504 37.8087 65.8776 38.2296 67.5167 38.2296C69.1558 38.2296 70.483 37.8087 71.3976 36.894C72.3123 35.9794 72.7332 34.6522 72.7332 33.0131ZM57.6403 48.106C57.6403 47.3743 57.5031 46.5829 57.2845 45.8908C57.0705 45.2132 56.7575 44.5635 56.3619 44.1679C55.9662 43.7723 55.3166 43.4592 54.639 43.2452C53.9469 43.0267 53.1555 42.8895 52.4237 42.8895C51.6919 42.8895 50.9006 43.0267 50.2085 43.2452C49.5308 43.4592 48.8812 43.7723 48.4856 44.1679C48.09 44.5635 47.7769 45.2132 47.5629 45.8908C47.3443 46.5829 47.2072 47.3743 47.2072 48.106C47.2072 49.7452 47.6281 51.0723 48.5428 51.987C49.4574 52.9016 50.7846 53.3226 52.4237 53.3226C53.1555 53.3226 53.9469 53.1854 54.639 52.9669C55.3166 52.7529 55.9662 52.4398 56.3619 52.0442C56.7575 51.6486 57.0705 50.9989 57.2845 50.3213C57.5031 49.6292 57.6403 48.8378 57.6403 48.106Z" stroke="#161616"/>
</g>
<defs>
<clipPath id="clip0_670_5173">
<rect width="100" height="100" fill="white" transform="translate(0.5)"/>
</clipPath>
</defs>
</svg>
