<svg width="100" height="100" viewBox="0 0 100 100" fill="none" xmlns="http://www.w3.org/2000/svg">
<g clip-path="url(#clip0_670_5186)">
<path d="M80 88C86.3513 88 91.5 83.0751 91.5 77C91.5 70.9249 86.3513 66 80 66C73.6487 66 68.5 70.9249 68.5 77C68.5 83.0751 73.6487 88 80 88Z" fill="#0049FF"/>
<path d="M50.3828 64.1043C57.9594 64.1043 64.1016 57.9621 64.1016 50.3855C64.1016 42.8088 57.9594 36.6667 50.3828 36.6667C42.8062 36.6667 36.6641 42.8088 36.6641 50.3855C36.6641 57.9621 42.8062 64.1043 50.3828 64.1043Z" fill="#0049FF"/>
<path d="M29.3 69.0909L16.5 61.1364L46.9 15L52.5 33.2955L44.7667 45.2273M29.3 69.0909L44.7667 45.2273M29.3 69.0909L56.9 53.9773M84.5 38.8636L71.7 30.9091L44.7667 45.2273M84.5 38.8636L54.9 85L48.5 65.9091L56.9 53.9773M84.5 38.8636L56.9 53.9773" stroke="black"/>
</g>
<defs>
<clipPath id="clip0_670_5186">
<rect width="100" height="100" fill="white"/>
</clipPath>
</defs>
</svg>
