<svg width="101" height="100" viewBox="0 0 101 100" fill="none" xmlns="http://www.w3.org/2000/svg">
<g clip-path="url(#clip0_670_5199)">
<path d="M80.5 88C86.8513 88 92 83.0751 92 77C92 70.9249 86.8513 66 80.5 66C74.1487 66 69 70.9249 69 77C69 83.0751 74.1487 88 80.5 88Z" fill="#0049FF"/>
<path d="M50.8828 64.1041C58.4594 64.1041 64.6016 57.9619 64.6016 50.3854C64.6016 42.8087 58.4594 36.6666 50.8828 36.6666C43.3062 36.6666 37.1641 42.8087 37.1641 50.3854C37.1641 57.9619 43.3062 64.1041 50.8828 64.1041Z" fill="#0049FF"/>
<path d="M61.2182 70.5052C78.9602 64.5912 84.4515 43.8922 78.9602 34.2821C76.5947 30.1423 70.0891 27.6289 67.1321 26.8896C64.1738 14.3223 52.4411 10.5796 39.0409 17.2794C5.03417 34.2821 26.4718 70.5052 43.4763 70.5052C45.6926 70.5052 43.4763 76.4191 44.9548 84.5509C45.6278 88.2525 50.1295 86.7686 50.1295 77.1584C50.1295 68.2567 56.0421 70.5052 56.0421 79.3762C56.0421 86.0294 61.2182 87.5079 61.2182 79.3762V70.5052Z" stroke="#161616"/>
<circle cx="50.8671" cy="25.4109" r="5.41398" stroke="#161616"/>
<circle cx="34.6015" cy="34.2821" r="5.41398" stroke="#161616"/>
<circle cx="36.0859" cy="53.5024" r="5.41398" stroke="#161616"/>
<circle cx="50.8671" cy="62.3736" r="5.41398" stroke="#161616"/>
<circle cx="67.1327" cy="52.024" r="5.41398" stroke="#161616"/>
</g>
<defs>
<clipPath id="clip0_670_5199">
<rect width="100" height="100" fill="white" transform="translate(0.5)"/>
</clipPath>
</defs>
</svg>
