<svg width="101" height="100" viewBox="0 0 101 100" fill="none" xmlns="http://www.w3.org/2000/svg">
<g clip-path="url(#clip0_670_5217)">
<path d="M80.5 88C86.8513 88 92 83.0751 92 77C92 70.9249 86.8513 66 80.5 66C74.1487 66 69 70.9249 69 77C69 83.0751 74.1487 88 80.5 88Z" fill="#0049FF"/>
<path d="M50.8828 64.1041C58.4594 64.1041 64.6016 57.9619 64.6016 50.3854C64.6016 42.8087 58.4594 36.6666 50.8828 36.6666C43.3062 36.6666 37.1641 42.8087 37.1641 50.3854C37.1641 57.9619 43.3062 64.1041 50.8828 64.1041Z" fill="#0049FF"/>
<path d="M88.7415 48.6327C85.4147 33.5933 80.4805 23.9998 72.5721 21.662C71.0404 21.2152 69.4522 20.9923 67.8567 21.0002C62.9948 21.0002 59.1581 23.8931 50.4994 23.8931C41.8406 23.8931 37.9967 21.0002 33.142 21.0002C31.48 20.9916 29.8248 21.2144 28.2241 21.662C20.3048 23.9998 15.4122 33.6024 12.0474 48.6327C8.61214 63.9849 9.23411 76.1152 15.9492 78.444C20.6502 80.0712 24.8539 76.7064 28.8352 71.7542C33.3554 66.113 38.9224 64.3773 50.4994 64.3773C62.0763 64.3773 67.4264 66.113 71.9537 71.7542C75.9315 76.71 80.2907 80.0332 84.8669 78.4729C92.2835 75.9398 92.1786 64.1658 88.7415 48.6327Z" stroke="#161616" stroke-miterlimit="10"/>
<path d="M60.1228 44.1433C60.1228 45.8643 58.7277 47.2594 57.0067 47.2594C55.2858 47.2594 53.8906 45.8643 53.8906 44.1433C53.8906 42.4224 55.2858 41.0272 57.0067 41.0272C58.7277 41.0272 60.1228 42.4224 60.1228 44.1433Z" fill="black" stroke="#161616"/>
<path d="M64.9599 55.2149C64.3432 55.2149 63.7404 55.0319 63.2278 54.6892C62.7152 54.3464 62.3158 53.8593 62.0802 53.2895C61.8446 52.7196 61.7833 52.0927 61.9042 51.488C62.0251 50.8833 62.3226 50.3281 62.7592 49.8926C63.1958 49.4571 63.7517 49.161 64.3567 49.0416C64.9617 48.9222 65.5885 48.9851 66.1577 49.2221C66.727 49.4592 67.2131 49.8598 67.5546 50.3732C67.8961 50.8867 68.0775 51.4899 68.076 52.1066C68.0739 52.9317 67.7447 53.7223 67.1605 54.305C66.5764 54.8877 65.7849 55.2149 64.9599 55.2149Z" fill="black" stroke="#161616"/>
<path d="M68.076 36.1879C68.076 37.9089 66.6808 39.304 64.9599 39.304C63.2389 39.304 61.8438 37.9089 61.8438 36.1879C61.8438 34.4669 63.2389 33.0718 64.9599 33.0718C66.6808 33.0718 68.076 34.4669 68.076 36.1879Z" fill="black" stroke="#161616"/>
<path d="M76.0369 44.1433C76.0369 45.8643 74.6418 47.2594 72.9208 47.2594C71.1998 47.2594 69.8047 45.8643 69.8047 44.1433C69.8047 42.4224 71.1998 41.0272 72.9208 41.0272C74.6418 41.0272 76.0369 42.4224 76.0369 44.1433Z" fill="black" stroke="#161616"/>
<path d="M33.1396 35.4647V52.8221M41.8183 44.1434H24.4609" stroke="#161616" stroke-linecap="round" stroke-linejoin="round"/>
</g>
<defs>
<clipPath id="clip0_670_5217">
<rect width="100" height="100" fill="white" transform="translate(0.5)"/>
</clipPath>
</defs>
</svg>
