<svg width="101" height="100" viewBox="0 0 101 100" fill="none" xmlns="http://www.w3.org/2000/svg">
<g clip-path="url(#clip0_670_5237)">
<path d="M80.5 88C86.8513 88 92 83.0751 92 77C92 70.9249 86.8513 66 80.5 66C74.1487 66 69 70.9249 69 77C69 83.0751 74.1487 88 80.5 88Z" fill="#0049FF"/>
<path d="M50.8828 64.1041C58.4594 64.1041 64.6016 57.9619 64.6016 50.3854C64.6016 42.8087 58.4594 36.6666 50.8828 36.6666C43.3062 36.6666 37.1641 42.8087 37.1641 50.3854C37.1641 57.9619 43.3062 64.1041 50.8828 64.1041Z" fill="#0049FF"/>
<path d="M26.7391 51.978V81C26.7391 83.7614 28.9777 86 31.7391 86H41.6087M26.7391 51.978L26.5541 52.165C24.5314 54.21 21.2046 54.1309 19.2814 51.9921L18.3354 50.94C16.4921 48.8901 16.6558 45.7348 18.7015 43.8867L48.357 17.0948C50.2915 15.3471 53.2442 15.3791 55.1403 17.1683L83.4496 43.8807C85.4241 45.7438 85.5512 48.8419 83.7361 50.8605L82.6675 52.0489C80.7634 54.1664 77.4779 54.2684 75.4461 52.273L73.6957 50.5538M26.7391 51.978L48.2854 32.2371C50.246 30.4408 53.2695 30.4933 55.1666 32.3564L73.6957 50.5538M41.6087 86V69.6374C41.6087 66.8759 43.8473 64.6374 46.6087 64.6374H54.6087C57.3701 64.6374 59.6087 66.8759 59.6087 69.6374V84.4176V86M41.6087 86H59.6087M73.6957 50.5538V81C73.6957 83.7614 71.4571 86 68.6956 86H59.6087" stroke="#161616"/>
</g>
<defs>
<clipPath id="clip0_670_5237">
<rect width="100" height="100" fill="white" transform="translate(0.5)"/>
</clipPath>
</defs>
</svg>
