<svg width="100" height="100" viewBox="0 0 100 100" fill="none" xmlns="http://www.w3.org/2000/svg">
<g clip-path="url(#clip0_670_5249)">
<path d="M80 88C86.3513 88 91.5 83.0751 91.5 77C91.5 70.9249 86.3513 66 80 66C73.6487 66 68.5 70.9249 68.5 77C68.5 83.0751 73.6487 88 80 88Z" fill="#0049FF"/>
<path d="M50.3828 64.1041C57.9594 64.1041 64.1016 57.9619 64.1016 50.3854C64.1016 42.8087 57.9594 36.6666 50.3828 36.6666C42.8062 36.6666 36.6641 42.8087 36.6641 50.3854C36.6641 57.9619 42.8062 64.1041 50.3828 64.1041Z" fill="#0049FF"/>
<path d="M21.6 41.5385H14.5V34.4615L50 15L85.5 34.4615V41.5385H76.625M21.6 41.5385V73.3846M21.6 41.5385H39.35M21.6 73.3846H14.5V84H85.5V73.3846H76.625M21.6 73.3846H76.625M76.625 73.3846V41.5385M76.625 41.5385H58.875M58.875 41.5385V73.3846H39.35V41.5385M58.875 41.5385H39.35" stroke="#161616"/>
</g>
<defs>
<clipPath id="clip0_670_5249">
<rect width="100" height="100" fill="white"/>
</clipPath>
</defs>
</svg>
