<svg width="101" height="99" viewBox="0 0 101 99" fill="none" xmlns="http://www.w3.org/2000/svg">
<g clip-path="url(#clip0_670_5263)">
<path d="M80.5 87C86.8513 87 92 82.0751 92 76C92 69.9249 86.8513 65 80.5 65C74.1487 65 69 69.9249 69 76C69 82.0751 74.1487 87 80.5 87Z" fill="#0049FF"/>
<path d="M50.8828 63.1041C58.4594 63.1041 64.6016 56.9619 64.6016 49.3854C64.6016 41.8087 58.4594 35.6666 50.8828 35.6666C43.3062 35.6666 37.1641 41.8087 37.1641 49.3854C37.1641 56.9619 43.3062 63.1041 50.8828 63.1041Z" fill="#0049FF"/>
<path d="M51 13C37.1979 13 26 23.658 26 36.7847C26 51.8889 42.6667 75.8246 48.7865 84.092C49.0405 84.441 49.3734 84.725 49.7581 84.9208C50.1428 85.1166 50.5683 85.2186 51 85.2186C51.4317 85.2186 51.8572 85.1166 52.2419 84.9208C52.6266 84.725 52.9595 84.441 53.2135 84.092C59.3333 75.8281 76 51.901 76 36.7847C76 23.658 64.8021 13 51 13Z" stroke="#161616" stroke-linecap="round" stroke-linejoin="round"/>
<path d="M50.9974 46.3333C55.5998 46.3333 59.3307 42.6023 59.3307 38C59.3307 33.3976 55.5998 29.6666 50.9974 29.6666C46.395 29.6666 42.6641 33.3976 42.6641 38C42.6641 42.6023 46.395 46.3333 50.9974 46.3333Z" stroke="#161616" stroke-linecap="round" stroke-linejoin="round"/>
</g>
<defs>
<clipPath id="clip0_670_5263">
<rect width="100" height="100" fill="white" transform="translate(0.5 -1)"/>
</clipPath>
</defs>
</svg>
