<svg width="101" height="100" viewBox="0 0 101 100" fill="none" xmlns="http://www.w3.org/2000/svg">
<g clip-path="url(#clip0_670_5277)">
<path d="M80.5 88C86.8513 88 92 83.0751 92 77C92 70.9249 86.8513 66 80.5 66C74.1487 66 69 70.9249 69 77C69 83.0751 74.1487 88 80.5 88Z" fill="#0049FF"/>
<path d="M50.8828 64.1041C58.4594 64.1041 64.6016 57.9619 64.6016 50.3854C64.6016 42.8087 58.4594 36.6666 50.8828 36.6666C43.3062 36.6666 37.1641 42.8087 37.1641 50.3854C37.1641 57.9619 43.3062 64.1041 50.8828 64.1041Z" fill="#0049FF"/>
<path d="M50.1216 55.0714C60.3586 55.0714 68.6574 46.7727 68.6574 36.5357C68.6574 26.2987 60.3586 18 50.1216 18C39.8847 18 31.5859 26.2987 31.5859 36.5357C31.5859 46.7727 39.8847 55.0714 50.1216 55.0714Z" stroke="#161616" stroke-linecap="round" stroke-linejoin="round"/>
<path d="M33.8511 46.3568L20 71.2902L32.5782 71.2294C32.9812 71.2274 33.3778 71.3305 33.7288 71.5286C34.0797 71.7267 34.373 72.0129 34.5795 72.3589L40.8527 82.8751L53.6438 54.7355" stroke="#161616" stroke-linecap="round" stroke-linejoin="round"/>
<path d="M66.1245 45.8036L80.2377 71.2902L67.6595 71.2294C67.2565 71.2273 66.8599 71.3304 66.509 71.5285C66.158 71.7266 65.8648 72.0128 65.6582 72.3589L59.385 82.875L50.1172 62.4857" stroke="#161616" stroke-linecap="round" stroke-linejoin="round"/>
<path d="M50.1194 45.8035C55.2379 45.8035 59.3873 41.6542 59.3873 36.5357C59.3873 31.4172 55.2379 27.2678 50.1194 27.2678C45.0009 27.2678 40.8516 31.4172 40.8516 36.5357C40.8516 41.6542 45.0009 45.8035 50.1194 45.8035Z" stroke="#161616" stroke-linecap="round" stroke-linejoin="round"/>
</g>
<defs>
<clipPath id="clip0_670_5277">
<rect width="100" height="100" fill="white" transform="translate(0.5)"/>
</clipPath>
</defs>
</svg>
