<svg width="35" height="35" viewBox="0 0 35 35" fill="none" xmlns="http://www.w3.org/2000/svg">
<path d="M22.9688 12.0312H25.7031C26.4283 12.0312 27.1238 12.3193 27.6366 12.8321C28.1494 13.3449 28.4375 14.0404 28.4375 14.7656V28.9844C28.4375 29.7096 28.1494 30.4051 27.6366 30.9179C27.1238 31.4307 26.4283 31.7188 25.7031 31.7188H9.29688C8.57167 31.7188 7.87617 31.4307 7.36338 30.9179C6.85059 30.4051 6.5625 29.7096 6.5625 28.9844V14.7656C6.5625 14.0404 6.85059 13.3449 7.36338 12.8321C7.87617 12.3193 8.57167 12.0312 9.29688 12.0312H12.0312" stroke="#0049FF" stroke-linecap="round" stroke-linejoin="round"/>
<path d="M12.0312 18.5938L17.5 24.0625L22.9688 18.5938M17.5 3.28125V22.9688" stroke="#0049FF" stroke-linecap="round" stroke-linejoin="round"/>
</svg>
