<svg width="35" height="35" viewBox="0 0 35 35" fill="none" xmlns="http://www.w3.org/2000/svg">
<g clip-path="url(#clip0_396_1308)">
<path d="M17.5 35C27.165 35 35 27.165 35 17.5C35 7.83502 27.165 0 17.5 0C7.83502 0 0 7.83502 0 17.5C0 27.165 7.83502 35 17.5 35Z" fill="#2F80ED"/>
<path d="M22.3877 15.4493L21.9091 18.5938H19.3457V26.25H15.9278V18.5938H13.125V15.4493H15.9278V13.0225C15.9278 10.2881 17.5684 8.75 20.0635 8.75C21.2597 8.75 22.5244 8.98925 22.5244 8.98925V11.6894H21.1231C19.7559 11.6894 19.3457 12.5098 19.3457 13.3984V15.4493H22.3877Z" fill="#F1F0F5"/>
</g>
<defs>
<clipPath id="clip0_396_1308">
<rect width="35" height="35" fill="white"/>
</clipPath>
</defs>
</svg>
