<svg width="35" height="35" viewBox="0 0 35 35" fill="none" xmlns="http://www.w3.org/2000/svg">
<g clip-path="url(#clip0_396_1316)">
<path d="M17.5 35C27.165 35 35 27.165 35 17.5C35 7.83502 27.165 0 17.5 0C7.83502 0 0 7.83502 0 17.5C0 27.165 7.83502 35 17.5 35Z" fill="#2F80ED"/>
<path d="M13.6263 15.267V25.4867H10.4476V15.267H13.6263Z" fill="#F1F0F5"/>
<path d="M13.8656 12.0198C13.8656 13.0452 13.0453 13.8997 12.0199 13.8997C11.0287 13.8997 10.2084 13.0452 10.2084 12.0198C10.2084 11.0286 11.0287 10.2083 12.0199 10.2083C13.0453 10.2083 13.8656 11.0286 13.8656 12.0198Z" fill="#F1F0F5"/>
<path d="M25.5208 25.4867H22.3421V20.5306C22.3421 19.3343 22.3079 17.8305 20.6673 17.8305C19.0267 17.8305 18.7874 19.0951 18.7874 20.4281V25.4867H15.6086V15.267H18.6507V16.6683H18.6848C19.1292 15.8821 20.1546 15.0277 21.6927 15.0277C24.9055 15.0277 25.5208 17.1468 25.5208 19.8812V25.4867Z" fill="#F1F0F5"/>
</g>
<defs>
<clipPath id="clip0_396_1316">
<rect width="35" height="35" fill="white"/>
</clipPath>
</defs>
</svg>
