<svg width="24" height="24" viewBox="0 0 24 24" fill="none" xmlns="http://www.w3.org/2000/svg">
<g opacity="0.5">
<path d="M12 21C16.9706 21 21 16.9706 21 12C21 7.02944 16.9706 3 12 3C7.02944 3 3 7.02944 3 12C3 16.9706 7.02944 21 12 21Z" stroke="#161616" stroke-linecap="round" stroke-linejoin="round"/>
<path d="M12 10.5021H12V16.8119" stroke="#161616" stroke-miterlimit="10" stroke-linecap="square"/>
<path d="M12.002 8.30095C11.7699 8.30095 11.5429 8.2321 11.3498 8.10311C11.1568 7.97412 11.0063 7.79078 10.9175 7.57628C10.8286 7.36177 10.8054 7.12574 10.8507 6.89802C10.896 6.6703 11.0078 6.46113 11.172 6.29696C11.3361 6.13278 11.5453 6.02098 11.773 5.97568C12.0007 5.93039 12.2368 5.95363 12.4513 6.04248C12.6658 6.13134 12.8491 6.2818 12.9781 6.47485C13.1071 6.6679 13.176 6.89486 13.176 7.12704C13.176 7.43838 13.0523 7.73697 12.8321 7.95712C12.612 8.17727 12.3134 8.30095 12.002 8.30095Z" fill="#161616"/>
</g>
</svg>
