<svg width="24" height="25" viewBox="0 0 24 25" fill="none" xmlns="http://www.w3.org/2000/svg">
<path d="M21.0936 6.5C20.7585 6.50011 20.4279 6.57836 20.1283 6.72853C19.8286 6.87871 19.5681 7.09667 19.3674 7.36512C19.1667 7.63358 19.0313 7.94512 18.9721 8.27503C18.9128 8.60493 18.9313 8.94411 19.026 9.26563L15.6805 12.6106C15.2393 12.4637 14.7623 12.4637 14.3211 12.6106L11.841 10.1305C11.9226 9.81201 11.9303 9.4791 11.8635 9.1572C11.7968 8.8353 11.6573 8.53293 11.4557 8.27321C11.2542 8.01349 10.9959 7.8033 10.7006 7.6587C10.4054 7.5141 10.081 7.43893 9.75224 7.43893C9.42348 7.43893 9.09908 7.5141 8.80384 7.6587C8.50859 7.8033 8.25032 8.01349 8.04876 8.27321C7.84721 8.53293 7.70771 8.8353 7.64093 9.1572C7.57416 9.4791 7.58187 9.81201 7.66349 10.1305L3.51552 14.2756C3.055 14.1393 2.56219 14.1604 2.11497 14.3354C1.66776 14.5105 1.29165 14.8297 1.0461 15.2424C0.80055 15.6552 0.69956 16.138 0.759095 16.6145C0.81863 17.0911 1.03529 17.5342 1.37484 17.8739C1.71438 18.2136 2.15744 18.4304 2.63399 18.49C3.11053 18.5497 3.59338 18.4489 4.00621 18.2035C4.41903 17.9581 4.73829 17.5821 4.91353 17.1349C5.08876 16.6877 5.10997 16.1949 4.9738 15.7344L9.06927 11.6394C9.51046 11.7864 9.98745 11.7864 10.4286 11.6394L12.9093 14.12C12.8277 14.4385 12.8199 14.7714 12.8867 15.0933C12.9535 15.4152 13.093 15.7175 13.2945 15.9773C13.4961 16.237 13.7544 16.4472 14.0496 16.5918C14.3449 16.7364 14.6693 16.8115 14.998 16.8115C15.3268 16.8115 15.6512 16.7364 15.9464 16.5918C16.2417 16.4472 16.4999 16.237 16.7015 15.9773C16.903 15.7175 17.0425 15.4152 17.1093 15.0933C17.1761 14.7714 17.1684 14.4385 17.0868 14.12L20.4843 10.7244C20.7809 10.8119 21.0928 10.8346 21.399 10.7909C21.7051 10.7472 21.9983 10.6382 22.2586 10.4712C22.5189 10.3043 22.7402 10.0833 22.9076 9.82322C23.0749 9.56318 23.1844 9.27018 23.2286 8.96411C23.2727 8.65803 23.2505 8.34604 23.1635 8.0493C23.0764 7.75256 22.9266 7.47802 22.7241 7.2443C22.5216 7.01057 22.2712 6.82314 21.9899 6.69472C21.7085 6.5663 21.4029 6.49989 21.0936 6.5Z" fill="white"/>
</svg>
