<svg width="11" height="15" viewBox="0 0 11 15" fill="none" xmlns="http://www.w3.org/2000/svg">
<path d="M9 5.5H8.5V3C8.5 2.20435 8.18393 1.44129 7.62132 0.87868C7.05871 0.31607 6.29565 0 5.5 0C4.70435 0 3.94129 0.31607 3.37868 0.87868C2.81607 1.44129 2.5 2.20435 2.5 3V5.5H2C1.46974 5.50058 0.961373 5.71148 0.586426 6.08643C0.211479 6.46137 0.000579017 6.96974 0 7.5V13C0.000579017 13.5303 0.211479 14.0386 0.586426 14.4136C0.961373 14.7885 1.46974 14.9994 2 15H9C9.53026 14.9994 10.0386 14.7885 10.4136 14.4136C10.7885 14.0386 10.9994 13.5303 11 13V7.5C10.9994 6.96974 10.7885 6.46137 10.4136 6.08643C10.0386 5.71148 9.53026 5.50058 9 5.5ZM7.5 5.5H3.5V3C3.5 2.46957 3.71071 1.96086 4.08579 1.58579C4.46086 1.21071 4.96957 1 5.5 1C6.03043 1 6.53914 1.21071 6.91421 1.58579C7.28929 1.96086 7.5 2.46957 7.5 3V5.5Z" fill="white"/>
</svg>
