<svg width="25" height="25" viewBox="0 0 25 25" fill="none" xmlns="http://www.w3.org/2000/svg">
<path d="M16 10.5H15.5V8C15.5 7.20435 15.1839 6.44129 14.6213 5.87868C14.0587 5.31607 13.2956 5 12.5 5C11.7044 5 10.9413 5.31607 10.3787 5.87868C9.81607 6.44129 9.5 7.20435 9.5 8V10.5H9C8.46974 10.5006 7.96137 10.7115 7.58643 11.0864C7.21148 11.4614 7.00058 11.9697 7 12.5V18C7.00058 18.5303 7.21148 19.0386 7.58643 19.4136C7.96137 19.7885 8.46974 19.9994 9 20H16C16.5303 19.9994 17.0386 19.7885 17.4136 19.4136C17.7885 19.0386 17.9994 18.5303 18 18V12.5C17.9994 11.9697 17.7885 11.4614 17.4136 11.0864C17.0386 10.7115 16.5303 10.5006 16 10.5ZM14.5 10.5H10.5V8C10.5 7.46957 10.7107 6.96086 11.0858 6.58579C11.4609 6.21071 11.9696 6 12.5 6C13.0304 6 13.5391 6.21071 13.9142 6.58579C14.2893 6.96086 14.5 7.46957 14.5 8V10.5Z" fill="white"/>
</svg>
