<svg width="30" height="30" viewBox="0 0 30 30" fill="none" xmlns="http://www.w3.org/2000/svg">
<rect width="30" height="30" rx="10" fill="white"/>
<path d="M11.1952 22.1874C10.9554 22.187 10.7198 22.1241 10.5116 22.005C10.0429 21.7394 9.75146 21.2238 9.75146 20.664V9.33588C9.75146 8.77456 10.0429 8.26049 10.5116 7.99487C10.7247 7.87238 10.9669 7.80939 11.2127 7.81249C11.4585 7.81558 11.6989 7.88464 11.9089 8.01245L21.5905 13.8078C21.7923 13.9343 21.9586 14.11 22.0739 14.3184C22.1892 14.5267 22.2497 14.761 22.2497 14.9992C22.2497 15.2373 22.1892 15.4716 22.0739 15.68C21.9586 15.8884 21.7923 16.0641 21.5905 16.1906L11.9073 21.9874C11.6924 22.1174 11.4463 22.1865 11.1952 22.1874Z" fill="#161616"/>
</svg>
