<svg width="35" height="35" viewBox="0 0 35 35" fill="none" xmlns="http://www.w3.org/2000/svg">
<path fill-rule="evenodd" clip-rule="evenodd" d="M17.5 35C7.83502 35 0 27.165 0 17.5C0 7.83502 7.83502 0 17.5 0C27.165 0 35 7.83502 35 17.5C35 27.165 27.165 35 17.5 35ZM18.2567 13.1331C16.6894 13.785 13.5569 15.1343 8.85928 17.1809C8.09647 17.4843 7.69687 17.7811 7.66049 18.0712C7.59901 18.5616 8.21313 18.7547 9.0494 19.0177C9.16315 19.0535 9.28102 19.0905 9.40185 19.1298C10.2246 19.3973 11.3314 19.7101 11.9067 19.7226C12.4286 19.7338 13.0111 19.5187 13.6543 19.0771C18.0434 16.1143 20.3091 14.6168 20.4513 14.5845C20.5517 14.5617 20.6907 14.5331 20.7849 14.6168C20.8792 14.7006 20.8699 14.8592 20.8599 14.9017C20.7991 15.1611 18.3884 17.4022 17.1409 18.562C16.752 18.9236 16.4762 19.18 16.4198 19.2386C16.2934 19.3698 16.1647 19.4939 16.0409 19.6132C15.2766 20.3501 14.7034 20.9027 16.0727 21.805C16.7307 22.2386 17.2573 22.5972 17.7826 22.955C18.3563 23.3456 18.9285 23.7353 19.6688 24.2206C19.8575 24.3443 20.0376 24.4727 20.2131 24.5978C20.8807 25.0738 21.4805 25.5014 22.2216 25.4332C22.6521 25.3936 23.0969 24.9887 23.3228 23.7811C23.8566 20.9273 24.906 14.7439 25.1485 12.1958C25.1697 11.9726 25.143 11.6869 25.1215 11.5615C25.1001 11.436 25.0552 11.2573 24.8922 11.1251C24.6991 10.9684 24.4011 10.9354 24.2678 10.9376C23.6617 10.9484 22.7318 11.2717 18.2567 13.1331Z" fill="#2D9CDB"/>
</svg>
