<svg width="35" height="35" viewBox="0 0 35 35" fill="none" xmlns="http://www.w3.org/2000/svg">
<g clip-path="url(#clip0_396_1321)">
<path d="M17.5 35C27.165 35 35 27.165 35 17.5C35 7.83502 27.165 0 17.5 0C7.83502 0 0 7.83502 0 17.5C0 27.165 7.83502 35 17.5 35Z" fill="#2D9CDB"/>
<path d="M14.2553 24.6094C20.8575 24.6094 24.4695 19.1383 24.4695 14.3951C24.4695 14.2413 24.4662 14.0841 24.4593 13.9302C25.1619 13.4221 25.7683 12.7927 26.25 12.0716C25.5956 12.3627 24.9008 12.5529 24.1894 12.6355C24.9384 12.1865 25.4994 11.4811 25.768 10.65C25.0634 11.0677 24.2926 11.3623 23.4889 11.5213C22.9475 10.9459 22.2316 10.565 21.4518 10.4373C20.6722 10.3097 19.8721 10.4424 19.1755 10.8151C18.4787 11.1877 17.9242 11.7795 17.5976 12.4989C17.2709 13.2183 17.1904 14.0252 17.3685 14.7949C15.9413 14.7233 14.5454 14.3527 13.2708 13.7069C11.9963 13.0612 10.8717 12.1548 9.96987 11.0465C9.51154 11.8367 9.37129 12.7718 9.57763 13.6617C9.78396 14.5516 10.3214 15.3295 11.0807 15.8375C10.5107 15.8194 9.95311 15.6658 9.4541 15.3898V15.4341C9.45359 16.2635 9.74028 17.0673 10.2654 17.7091C10.7906 18.3509 11.5218 18.791 12.3348 18.9547C11.8067 19.0992 11.2525 19.1202 10.715 19.0162C10.9444 19.7293 11.3907 20.3531 11.9917 20.8005C12.5927 21.2478 13.3183 21.4963 14.0673 21.5113C12.7957 22.5102 11.2249 23.052 9.60791 23.0494C9.32114 23.0489 9.03467 23.0314 8.75 22.9967C10.3927 24.0507 12.3036 24.6104 14.2553 24.6094Z" fill="#F1F0F5"/>
</g>
<defs>
<clipPath id="clip0_396_1321">
<rect width="35" height="35" fill="white"/>
</clipPath>
</defs>
</svg>
