<svg width="1728" height="563" viewBox="0 0 1728 563" fill="none" xmlns="http://www.w3.org/2000/svg">
<path d="M1798 400.03C1762.88 398.398 1730 401.117 1697.86 429.941C1664.23 459.853 1635.09 454.959 1599.97 427.766C1555.13 393.503 1535.7 380.451 1488.62 396.766C1454.24 408.731 1438.55 380.451 1411.65 347.82C1395.21 327.697 1373.53 332.592 1354.85 342.381C1331.69 354.346 1305.53 373.381 1281.62 372.837C1250.23 372.293 1218.84 338.574 1189.7 319.539C1141.87 287.452 1085.82 278.207 1044.72 328.785C1014.83 365.223 994.654 429.398 961.026 446.801C918.43 469.099 873.592 406.556 849.679 333.68C813.809 223.822 804.841 39.4558 727.122 5.19312C717.407 0.842301 707.692 -1.33311 698.724 5.19312C687.515 13.3509 680.042 34.5611 674.811 55.2275C669.58 75.8938 665.843 98.7357 657.623 115.595C644.919 142.244 646.414 192.278 625.489 206.962C597.092 227.085 575.42 146.051 545.528 134.63C502.932 117.77 483.503 239.593 442.401 264.61C397.563 291.259 358.704 194.997 313.118 166.717C279.49 145.507 243.62 164.542 208.497 170.524C190.561 173.243 171.879 171.612 154.692 160.191C141.24 151.489 121.81 109.613 108.359 115.595C91.1707 123.209 78.4666 146.051 59.7841 150.945C40.3544 156.384 19.4306 150.945 1.49542 135.174" stroke="#0049FF" stroke-miterlimit="10"/>
<path d="M1798 582.765C1706.08 580.589 1619.4 529.467 1537.94 472.363C1522.99 461.486 1505.81 450.609 1489.37 456.591C1464.71 465.293 1449.01 508.801 1423.6 510.433C1402.68 511.52 1386.99 485.415 1368.3 473.451C1346.63 459.854 1321.22 466.924 1297.31 469.1C1236.03 475.626 1227.81 415.802 1200.16 351.628C1182.23 310.295 1157.57 275.489 1127.67 251.559C1117.96 243.945 1108.24 236.875 1097.03 236.875C1077.6 236.875 1061.91 256.998 1043.98 264.068C1005.86 278.752 959.531 235.244 927.397 268.419C916.188 279.839 910.21 298.33 901.242 313.558C882.56 347.277 850.426 364.68 820.534 358.154C806.335 354.891 792.136 346.733 777.937 348.365C750.287 350.54 711.428 373.926 686.02 390.241C674.063 397.855 668.085 414.715 656.875 422.329C639.688 434.293 629.225 419.609 612.785 413.083C602.322 409.276 591.113 411.451 581.398 408.188C569.442 403.838 559.727 392.417 550.759 380.452C531.33 354.891 512.647 326.067 489.48 309.751C465.567 292.892 434.18 291.804 414.751 317.365C406.53 328.786 400.552 345.102 390.09 352.716C372.902 365.224 352.725 348.909 333.295 344.014C290.699 333.137 252.587 380.452 224.937 427.223C198.781 471.275 174.12 514.783 135.261 534.906C92.6649 556.66 44.8379 553.941 4.45723e-05 552.853" stroke="#0049FF" stroke-miterlimit="10"/>
</svg>
