<svg width="101" height="100" viewBox="0 0 101 100" fill="none" xmlns="http://www.w3.org/2000/svg">
<rect x="0.5" width="100" height="100" rx="50" fill="#B2C1E5"/>
<path d="M63.6031 35.8526C63.6031 42.629 58.1095 48.1151 51.3406 48.1151C44.5642 48.1151 39.0781 42.6215 39.0781 35.8526C39.0781 29.0837 44.5642 23.5901 51.3406 23.5901C58.1095 23.5976 63.6031 29.0837 63.6031 35.8526Z" fill="#F18322"/>
<path d="M62.5158 35.8526C62.5158 42.0254 57.5051 47.0285 51.3399 47.0285C45.1672 47.0285 40.1641 42.0254 40.1641 35.8526C40.1641 29.6799 45.1672 24.6768 51.3399 24.6768C57.5127 24.6843 62.5158 29.6874 62.5158 35.8526Z" fill="#FFC300"/>
<path d="M52.2255 35.0376V30.3589C53.6517 30.6306 54.7082 31.5437 54.7082 32.6228C54.7082 33.1057 55.1006 33.4981 55.5835 33.4981C56.0665 33.4981 56.4589 33.1057 56.4589 32.6228C56.4589 30.6004 54.6252 28.9176 52.2179 28.5781V28.3517C52.2179 27.8687 51.8255 27.4763 51.3426 27.4763C50.8596 27.4763 50.4672 27.8687 50.4672 28.3517V28.5781C48.392 28.8648 46.747 30.1552 46.3244 31.7927C46.2565 32.0644 46.2188 32.336 46.2188 32.6152C46.2188 34.6452 48.0524 36.328 50.4672 36.66V41.3386C49.0334 41.0669 47.977 40.1539 47.977 39.0672C47.977 38.5843 47.5846 38.1919 47.1016 38.1919C46.6187 38.1919 46.2188 38.5843 46.2188 39.0672C46.2188 41.0896 48.0524 42.7799 50.4672 43.112V43.3383C50.4672 43.8213 50.8596 44.2137 51.3426 44.2137C51.8255 44.2137 52.2179 43.8213 52.2179 43.3383V43.112C54.6252 42.7799 56.4589 41.0896 56.4589 39.0672C56.4664 37.0599 54.6252 35.3771 52.2255 35.0376ZM47.9996 32.3889C48.143 31.4154 49.1466 30.6155 50.4672 30.3589V34.8942C49.0334 34.6225 47.977 33.7094 47.977 32.6228C47.9845 32.5473 47.9845 32.4643 47.9996 32.3889ZM54.7082 39.0823C54.7082 40.169 53.6517 41.082 52.2255 41.3462V36.8109C53.6442 37.0901 54.7006 37.9957 54.7082 39.0823Z" fill="#F18322"/>
<path d="M30.4584 35.8601C30.4584 39.852 27.2211 43.0893 23.2292 43.0893C19.2373 43.0893 16 39.852 16 35.8601C16 31.8682 19.2373 28.6309 23.2292 28.6309C27.2211 28.6309 30.4584 31.8682 30.4584 35.8601Z" fill="#F18322"/>
<path d="M29.8162 35.86C29.8162 39.4973 26.8656 42.4478 23.2284 42.4478C19.5912 42.4478 16.6406 39.4973 16.6406 35.86C16.6406 32.2228 19.5912 29.2722 23.2284 29.2722C26.8656 29.2722 29.8162 32.2228 29.8162 35.86Z" fill="#FFC300"/>
<path d="M23.7501 35.377V32.6151C24.5953 32.7736 25.214 33.3094 25.214 33.9508C25.214 34.2375 25.4404 34.4715 25.7272 34.4715C26.0139 34.4715 26.2479 34.2375 26.2479 33.9508C26.2479 32.7585 25.1688 31.7624 23.7501 31.5662V31.4304C23.7501 31.1436 23.5162 30.9172 23.237 30.9172C22.9502 30.9172 22.7163 31.1512 22.7163 31.4304V31.5662C21.4938 31.7322 20.5279 32.4944 20.2789 33.4603C20.2411 33.6188 20.2185 33.7772 20.2185 33.9432C20.2185 35.1355 21.2976 36.1316 22.7163 36.3278V39.0822C21.8711 38.9237 21.2523 38.3879 21.2523 37.7465C21.2523 37.4598 21.0184 37.2258 20.7316 37.2258C20.4449 37.2258 20.2109 37.4598 20.2109 37.7465C20.2109 38.9388 21.29 39.9349 22.7087 40.1311V40.2669C22.7087 40.5537 22.9426 40.7876 23.2294 40.7876C23.5162 40.7876 23.7426 40.5537 23.7426 40.2669V40.1311C25.1612 39.9349 26.2403 38.9388 26.2403 37.7465C26.2479 36.5693 25.1688 35.5732 23.7501 35.377ZM21.2599 33.815C21.3429 33.2414 21.9315 32.766 22.7163 32.6227V35.294C21.8711 35.1355 21.2523 34.5998 21.2523 33.9583C21.2523 33.9055 21.2523 33.8602 21.2599 33.815ZM25.214 37.7616C25.214 38.403 24.5877 38.9388 23.7501 39.0973V36.4259C24.5877 36.5844 25.214 37.1202 25.214 37.7616Z" fill="#F18322"/>
<path d="M86.6772 35.8601C86.6772 39.852 83.4399 43.0893 79.448 43.0893C75.456 43.0893 72.2188 39.852 72.2188 35.8601C72.2188 31.8682 75.4485 28.6309 79.448 28.6309C83.4399 28.6309 86.6772 31.8682 86.6772 35.8601Z" fill="#F18322"/>
<path d="M86.035 35.86C86.035 39.4973 83.0844 42.4478 79.4472 42.4478C75.8099 42.4478 72.8594 39.4973 72.8594 35.86C72.8594 32.2228 75.8099 29.2722 79.4472 29.2722C83.0844 29.2722 86.035 32.2228 86.035 35.86Z" fill="#FFC300"/>
<path d="M79.9694 35.377V32.6151C80.8145 32.7736 81.4333 33.3094 81.4333 33.9508C81.4333 34.2375 81.6672 34.4715 81.954 34.4715C82.2408 34.4715 82.4747 34.2375 82.4747 33.9508C82.4747 32.7585 81.3956 31.7624 79.9769 31.5662V31.4304C79.9769 31.1436 79.743 30.9172 79.4562 30.9172C79.1695 30.9172 78.9431 31.1512 78.9431 31.4304V31.5662C77.7206 31.7322 76.7471 32.4944 76.5057 33.4603C76.4679 33.6188 76.4453 33.7772 76.4453 33.9432C76.4453 35.1355 77.5244 36.1316 78.9506 36.3278V39.0822C78.1054 38.9237 77.4867 38.3879 77.4867 37.7465C77.4867 37.4598 77.2527 37.2258 76.9735 37.2258C76.6868 37.2258 76.4528 37.4598 76.4528 37.7465C76.4528 38.9388 77.5319 39.9349 78.9582 40.1311V40.2669C78.9582 40.5537 79.1921 40.7876 79.4713 40.7876C79.7581 40.7876 79.992 40.5537 79.992 40.2669V40.1311C81.4107 39.9349 82.4898 38.9388 82.4898 37.7465C82.4671 36.5693 81.3805 35.5732 79.9694 35.377ZM77.4791 33.815C77.5621 33.2414 78.1507 32.766 78.9355 32.6227V35.294C78.0904 35.1355 77.4716 34.5998 77.4716 33.9583C77.464 33.9055 77.4716 33.8602 77.4791 33.815ZM81.4258 37.7616C81.4258 38.403 80.807 38.9388 79.9618 39.0973V36.4259C80.807 36.5844 81.4258 37.1202 81.4258 37.7616Z" fill="#F18322"/>
<path d="M43.4922 66.5804L46.3673 93.0146C46.3673 93.0146 56.2603 93.7692 66.7645 98.6667C68.5001 98.0932 70.198 97.4216 71.8431 96.6594L80.4608 88.3888C79.2081 83.7479 64.9987 65.7881 64.9987 65.7881L43.4922 66.5804Z" fill="#EFC498"/>
<path d="M53.6007 52.6839L49.3828 52.7568L49.6656 69.1002L53.8835 69.0272L53.6007 52.6839Z" fill="#FC611F"/>
<path d="M51.4566 54.4312C41.141 54.5896 32.6138 46.3191 32.4554 36.0035C32.2969 25.6879 40.5675 17.1532 50.8831 17.0022C61.1987 16.8438 69.7258 25.1144 69.8843 35.4299C70.0428 45.7455 61.7722 54.2727 51.4566 54.4312ZM50.9359 20.398C42.4917 20.5263 35.7304 27.4989 35.8511 35.9431C35.9794 44.3872 42.9596 51.1561 51.3962 51.0203C59.8404 50.892 66.6017 43.9194 66.4734 35.4677C66.3527 27.0311 59.38 20.2697 50.9359 20.398Z" fill="#FD3A0B"/>
<path d="M49.0653 91.7922L55.1475 91.6941L54.7929 65.1467L48.7031 65.2599L49.0653 91.7922Z" fill="#414042"/>
<path d="M57.2152 42.1838C55.0193 44.4477 52.2498 45.8211 49.3672 46.3191C52.6573 47.1945 56.2946 46.3568 58.8301 43.7383C61.3656 41.1273 62.09 37.4599 61.1166 34.2075C60.7015 37.1128 59.4111 39.9124 57.2152 42.1838Z" fill="white"/>
<path d="M49.8606 71.7044C51.732 71.8704 53.3846 70.4819 53.5506 68.6105C53.7166 66.7315 52.3282 65.0789 50.4567 64.9204L43.2426 63.9092C41.3711 63.7432 39.7185 65.1317 39.5525 67.0031C39.3865 68.8821 40.775 70.5272 42.654 70.6932L49.8606 71.7044Z" fill="#FFD3A6"/>
<path d="M50.3168 78.6393C52.1882 78.3903 53.4937 76.6849 53.2447 74.8134C53.0032 72.942 51.2827 71.6289 49.4188 71.878L42.1594 72.4515C40.2955 72.693 38.9825 74.4135 39.2239 76.2774C39.473 78.1413 41.1859 79.4543 43.0498 79.2128L50.3168 78.6393Z" fill="#FFD3A6"/>
<path d="M52.4386 85.4005C54.2497 84.8723 55.2835 82.9858 54.7628 81.1747C54.2421 79.3636 52.348 78.3298 50.5369 78.858L43.4511 80.5257C41.64 81.0464 40.6062 82.9405 41.1269 84.7515C41.6551 86.5551 43.5492 87.5965 45.3527 87.0682L52.4386 85.4005Z" fill="#FFD3A6"/>
<path d="M53.1141 91.0601C54.6082 90.7205 55.5439 89.2339 55.1968 87.7398C54.8572 86.2457 53.3631 85.3099 51.8765 85.6571L46.6394 87.6191C45.1453 87.9587 44.2096 89.4452 44.5567 90.9469C44.8963 92.441 46.3829 93.3692 47.877 93.0297L53.1141 91.0601Z" fill="#FFD3A6"/>
<path d="M57.9005 64.558L53.803 63.2752L50.7468 66.4596C49.4715 67.8029 47.8038 68.2783 46.4681 66.9954C45.1249 65.7201 45.0796 63.5921 46.3624 62.2564L50.46 57.9702C50.46 57.9702 50.9128 57.4193 52.7691 57.1779C55.1235 56.8685 65.1826 60.8906 65.1826 60.8906C66.0956 61.3886 66.6691 62.2564 66.8503 63.1997C66.888 63.2978 66.9408 63.3808 66.9635 63.4789L72.359 75.1604C72.6382 76.0961 72.6004 77.0469 72.3137 77.9147C72.0798 81.9594 68.201 85.8533 64.926 86.8116C60.4058 88.1397 58.391 86.5098 56.6403 80.5558C54.9651 74.8736 57.8854 64.7391 57.9005 64.558Z" fill="#FFD3A6"/>
<path d="M57.9005 64.558L53.803 63.2752L50.7468 66.4596C49.4715 67.8029 47.8038 68.2783 46.4681 66.9954C45.1249 65.7201 45.0796 63.5921 46.3624 62.2564L50.46 57.9702C50.46 57.9702 50.9128 57.4193 52.7691 57.1779C55.1235 56.8685 65.1826 60.8906 65.1826 60.8906C66.0956 61.3886 66.6691 62.2564 66.8503 63.1997C66.888 63.2978 66.9408 63.3808 66.9635 63.4789L72.359 75.1604C72.6382 76.0961 72.6004 77.0469 72.3137 77.9147C72.0798 81.9594 68.201 85.8533 64.926 86.8116C60.4058 88.1397 58.391 86.5098 56.6403 80.5558C54.9651 74.8736 57.8854 64.7391 57.9005 64.558Z" fill="#FFD3A6"/>
<path d="M77.0291 81.858L62 96.8914L63.9265 98.8173L78.9556 83.784L77.0291 81.858Z" fill="white"/>
<path d="M78.6822 82.9028L63.0391 98.546L63.9974 99.5044C71.6417 97.4669 78.5615 93.6334 84.2513 88.4719L78.6822 82.9028Z" fill="#2C5871"/>
</svg>
