<svg width="101" height="100" viewBox="0 0 101 100" fill="none" xmlns="http://www.w3.org/2000/svg">
<g clip-path="url(#clip0_671_6634)">
<path d="M72.722 26.361C72.722 30.9817 68.9818 34.722 64.361 34.722C59.7402 34.722 56 30.9817 56 26.361C56 21.7489 59.7402 18.0087 64.361 18C68.9731 18.0087 72.722 21.7489 72.722 26.361Z" fill="#FFEAA7"/>
<path d="M57.9189 28.5737C57.9189 28.5737 57.143 36.1849 56.5763 38.0942C55.8178 40.6313 51.2144 45.4875 51.136 48.1292C51.1098 49.0795 52.156 49.9077 53.0017 50.3262C54.5536 51.1022 55.0505 50.1867 56.5676 49.3498C59.8544 47.5538 67.4918 42.8545 67.4918 42.8545L69.1047 30.8405H69.1134C69.0611 29.8989 69.4883 28.9573 70.3427 28.408C71.5982 27.6059 73.2721 27.9721 74.0655 29.2276C74.3358 29.6461 74.4666 30.1169 74.4753 30.5877H74.484V30.7272C74.484 30.7446 74.484 30.7533 74.484 30.762L73.4203 45.5485L64.5362 56.3943L73.8563 47.0917C73.8563 47.0917 75.1553 52.0176 74.484 53.9618C73.5598 56.6122 67.4308 63.1336 67.4308 63.1336L72.5311 58.4082C72.5311 58.4082 72.7839 61.1982 72.5136 62.0787C72.1213 63.369 69.5319 66.5774 69.5319 66.5774C69.5319 66.5774 70.0201 68.417 70.0812 69.5504C70.1335 70.3961 70.2468 70.5705 70.0725 71.3987C69.6714 73.3865 67.2302 75.1913 67.2302 75.1913L46.428 88.051L41.0138 90.4573L33.4375 74.4066L36.5936 71.7649C36.5936 71.7649 39.8456 57.7892 40.5343 52.8197C40.7872 51.0237 41.258 47.3707 41.9816 45.7055C42.9581 43.4474 47.9537 39.5241 49.1046 37.3445C49.9154 35.81 51.9555 29.9599 52.5396 28.4168C52.6094 26.9869 53.7864 25.8448 55.2336 25.8535C56.7245 25.8623 57.9277 27.0741 57.9189 28.5737Z" fill="#FFDAB8"/>
<path d="M36.8493 70.5718L33.8594 73.5617L48.5686 88.271L51.5586 85.2811L36.8493 70.5718Z" fill="white"/>
<path d="M19 87.6676C24.4316 93.1602 30.9792 97.5281 38.2765 100.44L51.3019 87.4147L35.2774 71.3902L19 87.6676Z" fill="#424B4E"/>
</g>
<defs>
<clipPath id="clip0_671_6634">
<rect x="0.5" width="100" height="100" rx="50" fill="white"/>
</clipPath>
</defs>
</svg>
