<svg width="101" height="100" viewBox="0 0 101 100" fill="none" xmlns="http://www.w3.org/2000/svg">
<path d="M32.7216 21.94H27.6016V32.43H32.7216V21.94Z" fill="#145A6E"/>
<path d="M76.57 39.07L47.29 16L18 39.07H76.57Z" fill="#145A6E"/>
<path d="M47.2916 19.82L22.8516 39.07V75.19H71.7316V39.07L47.2916 19.82Z" fill="#DCDCDC"/>
<path d="M71.7291 75.19V39.07L47.2891 19.82V75.19H71.7291Z" fill="#E6E6E6"/>
<path d="M43.5363 48.69H29.1562V75.19H43.5363V48.69Z" fill="#145A6E"/>
<path d="M65.4062 43.82H50.9062V65.82H65.4062V43.82Z" fill="#78AA96"/>
<path d="M74.5103 75.19H20.0703V78.19H74.5103V75.19Z" fill="#145A6E"/>
<path d="M68.6703 84.12C75.0503 84.12 82.0203 77.67 82.0203 57.12C75.4903 57.12 69.9403 54.87 68.6703 52.84C67.3903 54.87 61.8403 57.12 55.3203 57.12C55.3203 77.67 62.2903 84.12 68.6703 84.12Z" fill="#0A5064"/>
<path d="M82.0219 57.12C75.4919 57.12 69.9419 54.87 68.6719 52.84V84.12C75.0419 84.12 82.0219 77.67 82.0219 57.12Z" fill="#145A6E"/>
<path d="M80.2028 58.87C79.8828 74.62 75.3428 79.85 71.8728 81.55C70.5528 82.19 69.3828 82.32 68.6628 82.32C68.4828 82.32 68.2828 82.31 68.0528 82.29C67.0528 82.19 65.6128 81.83 64.1028 80.72C63.3528 80.17 62.5928 79.44 61.8528 78.46C61.1528 77.52 60.4828 76.36 59.8728 74.93V74.92C59.4428 73.94 59.0528 72.83 58.7128 71.57C58.3428 70.22 58.0228 68.7 57.7728 67C57.5828 65.75 57.4328 64.4 57.3228 62.94C57.2228 61.67 57.1628 60.31 57.1328 58.87C58.9328 58.76 60.6128 58.5 62.1228 58.13C64.9628 57.46 67.2328 56.42 68.6628 55.36C68.8028 55.46 68.9428 55.56 69.1028 55.66C71.3828 57.17 75.3428 58.58 80.2028 58.87Z" fill="#B4B4B4"/>
<path d="M80.2019 58.87C75.0219 58.56 70.8619 56.99 68.6719 55.37V82.33C71.2819 82.32 79.7719 80.61 80.2019 58.87Z" fill="#DCDCDC"/>
<path d="M69.1003 55.66L57.7703 67C57.5803 65.75 57.4303 64.4 57.3203 62.94L62.1203 58.13C64.9603 57.46 67.2303 56.42 68.6603 55.36C68.8003 55.46 68.9403 55.56 69.1003 55.66Z" fill="#C8C8C8"/>
<path d="M68.6609 61.63V66.13L59.8709 74.92C59.4409 73.94 59.0509 72.83 58.7109 71.57L68.6609 61.63Z" fill="#C8C8C8"/>
<path d="M68.6616 71.65V76.16L64.1016 80.72C63.3516 80.17 62.5916 79.44 61.8516 78.46L68.6616 71.65Z" fill="#C8C8C8"/>
<path d="M68.0469 82.29L68.6569 81.68V82.32C68.4769 82.32 68.2769 82.31 68.0469 82.29Z" fill="#C8C8C8"/>
</svg>
