<svg width="101" height="100" viewBox="0 0 101 100" fill="none" xmlns="http://www.w3.org/2000/svg">
<path d="M71.3066 70.3066C82.5928 59.0204 82.5928 40.7218 71.3066 29.4356C60.0203 18.1494 41.7217 18.1494 30.4355 29.4356C19.1493 40.7218 19.1493 59.0204 30.4355 70.3066C41.7217 81.5929 60.0203 81.5929 71.3066 70.3066Z" fill="#F0F0F0"/>
<path d="M50.8725 19.0894C33.8908 19.0894 20.0781 32.902 20.0781 49.8711C20.0781 66.8528 33.8908 80.6654 50.8725 80.6654C59.054 80.6654 66.5158 77.4585 72.0459 72.2061C72.3489 71.9157 72.652 71.6254 72.9424 71.3097C78.3462 65.767 81.6668 58.1915 81.6668 49.8711C81.6668 32.902 67.8542 19.0894 50.8725 19.0894ZM69.3693 69.5295C64.5336 74.0874 58.0313 76.8777 50.8725 76.8777C35.9866 76.8777 23.8659 64.7569 23.8659 49.8711C23.8659 34.9853 35.9866 22.8771 50.8725 22.8771C65.7583 22.8771 77.8791 34.9853 77.8791 49.8711C77.8791 57.1562 74.9751 63.7721 70.2657 68.633C69.9753 68.936 69.6723 69.2391 69.3693 69.5295Z" fill="#FD3A0B"/>
<path d="M50.8703 71.6632C38.8505 71.6632 29.0781 61.8908 29.0781 49.8711C29.0781 37.8513 38.8505 28.0789 50.8703 28.0789C62.89 28.0789 72.6624 37.8513 72.6624 49.8711C72.6624 61.8782 62.89 71.6632 50.8703 71.6632ZM50.8703 29.3415C39.5575 29.3415 30.3407 38.5457 30.3407 49.8711C30.3407 61.1838 39.5449 70.4007 50.8703 70.4007C62.183 70.4007 71.3998 61.1964 71.3998 49.8711C71.3998 38.5457 62.1956 29.3415 50.8703 29.3415Z" fill="#FD3A0B"/>
<path d="M50.8728 63.9236C43.1206 63.9236 36.8203 57.6233 36.8203 49.8711C36.8203 42.1189 43.1206 35.8186 50.8728 35.8186C58.6251 35.8186 64.9254 42.1189 64.9254 49.8711C64.9254 57.6107 58.6251 63.9236 50.8728 63.9236ZM50.8728 37.0812C43.8276 37.0812 38.0829 42.8133 38.0829 49.8711C38.0829 56.9163 43.815 62.661 50.8728 62.661C57.918 62.661 63.6628 56.9289 63.6628 49.8711C63.6628 42.8133 57.9307 37.0812 50.8728 37.0812Z" fill="#FD3A0B"/>
<path d="M50.8691 55.5527C54.007 55.5527 56.5507 53.009 56.5507 49.8711C56.5507 46.7332 54.007 44.1895 50.8691 44.1895C47.7312 44.1895 45.1875 46.7332 45.1875 49.8711C45.1875 53.009 47.7312 55.5527 50.8691 55.5527Z" fill="#FD3A0B"/>
<path opacity="0.2" d="M72.9368 71.3097C72.6464 71.6254 72.3434 71.9157 72.0404 72.2061L70.7021 70.8678L69.3637 69.5295L50.1094 50.2751L51.0058 49.3787L70.2602 68.633L71.6111 69.984L72.9368 71.3097Z" fill="black"/>
<path d="M73.0802 35.3893L65.6562 35.0863L75.315 25.4276L82.7516 25.7306L73.0802 35.3893Z" fill="#DCDCDC"/>
<path d="M65.3516 27.6623L65.6546 35.0863L75.3133 25.4276L75.0103 17.9909L65.3516 27.6623Z" fill="#BEBEBE"/>
<path d="M77.0912 23.6407L50.7812 49.9506L51.3616 50.5309L77.6715 24.221L77.0912 23.6407Z" fill="#F0F0F0"/>
<path d="M76.5235 23.075L50.1875 49.3589L50.7672 49.9398L77.1032 23.6559L76.5235 23.075Z" fill="#DCDCDC"/>
<path d="M50.7534 50.7927C51.1996 50.7927 51.5614 50.4309 51.5614 49.9847C51.5614 49.5384 51.1996 49.1766 50.7534 49.1766C50.3071 49.1766 49.9453 49.5384 49.9453 49.9847C49.9453 50.4309 50.3071 50.7927 50.7534 50.7927Z" fill="#E6E6E6"/>
<path d="M78.3548 23.3316C78.3548 23.8493 77.9382 24.2786 77.4079 24.2786C76.8902 24.2786 76.4609 23.8493 76.4609 23.3316C76.4609 22.814 76.8776 22.3847 77.4079 22.3847C77.9255 22.3847 78.3548 22.814 78.3548 23.3316Z" fill="#E6E6E6"/>
</svg>
