<svg width="101" height="100" viewBox="0 0 101 100" fill="none" xmlns="http://www.w3.org/2000/svg">
<path d="M70.7394 68.6496C70.8895 68.5696 71.0395 68.5096 71.1895 68.4396C71.0595 68.4896 70.9195 68.5596 70.7895 68.6196C70.7695 68.6296 70.7594 68.6296 70.7394 68.6496ZM69.5295 69.5296C69.7795 69.2996 70.0395 69.0796 70.3195 68.8896C70.1895 68.9796 70.0395 69.0696 69.9095 69.1796C69.7795 69.2896 69.6595 69.4096 69.5295 69.5296ZM77.6595 67.6796L58.1195 50.0096L51.2395 43.7896L48.0395 40.8896C45.0195 38.1696 42.8894 32.9896 42.3594 29.4096C42.0194 27.1296 41.3295 24.7996 39.9395 23.4196C35.9195 19.3996 29.7095 18.9296 25.1795 21.9796C24.9095 22.1596 24.6495 22.3496 24.3995 22.5496L30.7694 26.8596C31.1894 27.1496 31.5795 27.7796 31.6295 28.2896L31.9295 31.0996C31.9295 31.1396 31.9395 31.1696 31.9395 31.2096C31.9395 31.3296 31.9195 31.4496 31.8795 31.5796C31.8795 31.5896 31.8795 31.5896 31.8795 31.5896C31.8495 31.7096 31.7895 31.8296 31.7395 31.9496C31.6195 32.1796 31.4395 32.3796 31.2395 32.5096L28.6495 34.0696C28.2195 34.3296 27.5195 34.3196 27.0895 34.0496L20.7195 29.9896V29.9796L20.1795 29.6396C19.5395 33.2696 20.6095 37.1496 23.4195 39.9596C24.7995 41.3396 27.1295 42.0396 29.4095 42.3696C32.9895 42.8996 38.1695 45.0396 40.8895 48.0596L43.9395 51.4396L50.5595 58.7596L67.6695 77.6896C70.3895 80.6996 74.9295 80.8196 77.8095 77.9496L77.9195 77.8296C78.0095 77.7396 78.0895 77.6496 78.1695 77.5496C80.7795 74.6596 80.5895 70.3196 77.6595 67.6796ZM72.8195 68.0796C74.1895 67.9996 75.5895 68.4896 76.6395 69.5396C78.5995 71.4996 78.5995 74.6896 76.6395 76.6496C75.5695 77.7196 74.1395 78.2096 72.7495 78.0996C72.7295 78.1096 72.7195 78.1096 72.6995 78.0996C72.5795 78.0996 72.4694 78.0796 72.3594 78.0596C72.2194 78.0496 72.0795 78.0196 71.9495 77.9796C71.9295 77.9696 71.8995 77.9696 71.8795 77.9596C71.6995 77.9196 71.5294 77.8596 71.3594 77.8096C70.6894 77.5696 70.0594 77.1896 69.5194 76.6496C67.5594 74.6796 67.5594 71.5096 69.5194 69.5396C69.7694 69.2996 70.0295 69.0796 70.3095 68.8996C70.4395 68.8096 70.5895 68.7296 70.7295 68.6496C70.8795 68.5696 71.0294 68.5096 71.1795 68.4396C71.2595 68.4096 71.3295 68.3796 71.4095 68.3496C71.4895 68.3196 71.5595 68.2996 71.6395 68.2796C71.7995 68.2196 71.9695 68.1796 72.1295 68.1696C72.2495 68.1396 72.3595 68.1196 72.4795 68.1096C72.4795 68.1096 72.4795 68.1096 72.4894 68.1096C72.5894 68.0896 72.6695 68.0896 72.7795 68.0796H72.8195ZM69.9195 69.1796C69.7895 69.2896 69.6595 69.3996 69.5395 69.5296V69.5396C69.7895 69.2996 70.0494 69.0796 70.3294 68.8996C70.1894 68.9796 70.0395 69.0796 69.9195 69.1796ZM70.7895 68.6196C70.7695 68.6296 70.7594 68.6296 70.7394 68.6496C70.8895 68.5696 71.0395 68.5096 71.1895 68.4396C71.0595 68.4796 70.9295 68.5496 70.7895 68.6196Z" fill="#DCDCDC"/>
<path opacity="0.2" d="M31.9206 31.1096C31.9506 31.3797 31.8706 31.6796 31.7306 31.9396L31.8806 31.8496C32.3206 31.5896 32.6306 30.9697 32.5706 30.4597L32.2806 27.6497C32.2306 27.1397 31.8406 26.4996 31.4206 26.2196L25.1706 21.9897C24.9106 22.1697 24.6506 22.3497 24.3906 22.5497L30.7606 26.8696C31.1806 27.1496 31.5606 27.7897 31.6206 28.2997L31.9206 31.1096Z" fill="black"/>
<path opacity="0.3" d="M78.1732 77.5396C78.0932 77.6396 78.0132 77.7296 77.9232 77.8196L77.8132 77.9396C74.9332 80.8096 70.3932 80.6897 67.6732 77.6797L50.5632 58.7496L43.9432 51.4297L40.8932 48.0497C38.1732 45.0297 32.9932 42.8896 29.4132 42.3596C27.1332 42.0296 24.8032 41.3396 23.4232 39.9496C20.6132 37.1396 19.5332 33.2596 20.1832 29.6296L20.7232 29.9696V29.9796C20.4132 33.3196 21.5232 36.7396 24.0832 39.2896C25.4632 40.6696 27.7832 41.3697 30.0632 41.7097C33.6532 42.2397 38.8232 44.3796 41.5532 47.3896L44.7632 50.9496L50.9832 57.8297L68.3232 77.0197C70.9732 79.9397 75.3032 80.1296 78.1732 77.5396Z" fill="white"/>
<path d="M41.6461 44.6996C40.9761 43.9396 41.0061 42.7396 41.7261 42.0296L42.0261 41.7296C42.7461 41.0096 43.9461 40.9796 44.6961 41.6496L71.9061 65.8296C68.6661 66.7696 66.6561 68.7796 65.8161 71.9196L41.6461 44.6996Z" fill="#C8C8C8"/>
<path opacity="0.3" d="M44.7035 41.6496L71.7834 65.7096C71.9234 65.6596 72.0434 65.6096 72.1834 65.5696L44.9634 41.3896C44.2034 40.7196 43.0034 40.7496 42.2834 41.4696L42.0234 41.7296C42.7434 41.0096 43.9435 40.9696 44.7035 41.6496Z" fill="white"/>
<path opacity="0.2" d="M42.2961 44.0497C41.6761 43.3497 41.6661 42.2896 42.2161 41.5696C42.1461 41.6196 42.0861 41.6696 42.0261 41.7296L41.7261 42.0296C41.0061 42.7496 40.9761 43.9496 41.6461 44.6996L65.8261 71.9196C65.9261 71.5696 42.2961 44.0497 42.2961 44.0497Z" fill="black"/>
<path opacity="0.2" d="M69.5369 76.6497C67.5769 74.6897 67.5769 71.4996 69.5369 69.5396C70.4569 68.6196 71.6369 68.1396 72.8369 68.0796C71.4669 68.0096 70.0669 68.4896 69.0169 69.5396C67.0569 71.4996 67.0569 74.6897 69.0169 76.6497C70.0669 77.6997 71.4569 78.1796 72.8269 78.1096C71.6269 78.0396 70.4469 77.5597 69.5369 76.6497Z" fill="black"/>
<path opacity="0.2" d="M57.7853 52.6097L55.2453 55.1497C54.3253 55.1497 53.3853 55.5096 52.5853 56.0896C52.4253 56.2096 52.2553 56.3397 52.1053 56.4897C51.6653 56.8697 51.2853 57.3396 50.9853 57.8396C50.8153 58.1396 50.6753 58.4397 50.5653 58.7597L43.9453 51.4397C44.2253 51.3096 44.5053 51.1396 44.7653 50.9696C45.2553 50.6096 45.6953 50.1797 46.0553 49.6997C46.2253 49.4697 46.3853 49.2297 46.5053 48.9897C46.8553 48.3497 47.0553 47.6596 47.0553 46.9696L48.7453 45.2796L49.0053 45.0197L49.5853 44.4397C50.0453 43.9897 50.6553 43.7797 51.2353 43.8197L58.1153 50.0397C58.6053 50.8397 58.4953 51.8997 57.7853 52.6097Z" fill="black"/>
<path d="M45.1328 46.9496L47.6628 44.4196C48.5028 43.5796 49.8628 43.5796 50.7028 44.4196L55.8528 49.5696C56.6928 50.4096 56.6928 51.7696 55.8528 52.6096L53.3228 55.1396L45.1328 46.9496Z" fill="#FFC300"/>
<path opacity="0.4" d="M51.7206 45.4297L51.2106 44.9196C50.3706 44.0796 49.0106 44.0796 48.1706 44.9196L45.6406 47.4496L46.1506 47.9597L48.6806 45.4297C49.5206 44.5897 50.8806 44.5897 51.7206 45.4297Z" fill="white"/>
<path d="M48.4166 60.0396C45.6866 57.3096 42.9566 54.5796 40.2266 51.8496C42.6466 51.8496 45.1266 49.3796 45.1266 46.9496C47.8566 49.6796 50.5866 52.4096 53.3166 55.1396C50.8966 55.1396 48.4166 57.6196 48.4166 60.0396Z" fill="#FFB600"/>
<path opacity="0.4" d="M46.4069 48.2296C46.1669 47.9896 45.9269 47.7597 45.6969 47.5197C45.3369 49.5897 42.8669 52.0596 40.7969 52.4196C41.0369 52.6596 41.2669 52.8896 41.5069 53.1296C43.5769 52.7696 46.0469 50.2996 46.4069 48.2296Z" fill="white"/>
<path d="M22.1902 78.0797C19.9302 75.8197 19.3502 72.7297 22.1502 69.9297L40.2302 51.8496L48.4202 60.0396L30.3402 78.1196C27.5402 80.9196 24.4502 80.3497 22.1902 78.0797Z" fill="#FFC300"/>
<path opacity="0.4" d="M22.1387 70.7697L40.6387 52.2596L40.2287 51.8496L22.1487 69.9297C20.7687 71.3097 20.2187 72.7496 20.2687 74.1296C20.4487 73.0096 21.0387 71.8697 22.1387 70.7697Z" fill="white"/>
<path d="M23.4897 73.1496C22.8397 72.4996 22.9897 71.2896 23.8297 70.4496L36.9197 57.3596C37.7597 56.5196 38.9697 56.3696 39.6197 57.0196C40.2697 57.6696 40.1197 58.8796 39.2797 59.7196L26.1897 72.8096C25.3497 73.6496 24.1497 73.7996 23.4897 73.1496Z" fill="#FF9F00"/>
<path opacity="0.1" d="M23.8869 70.9296L36.9769 57.8396C37.8169 56.9996 39.0269 56.8496 39.6769 57.4996C39.8369 57.6596 39.9469 57.8596 40.0069 58.0696C40.0069 57.6696 39.8869 57.2896 39.6069 57.0196C38.9569 56.3696 37.7469 56.5196 36.9069 57.3596L23.8169 70.4496C23.1869 71.0796 22.9469 71.9296 23.1469 72.5796C23.1569 72.0296 23.4069 71.4196 23.8869 70.9296Z" fill="black"/>
<path opacity="0.2" d="M39.2706 59.7397L26.1806 72.8297C25.3406 73.6697 24.1306 73.8196 23.4806 73.1696C23.3206 73.0096 23.2106 72.8196 23.1406 72.5996C23.1406 72.9996 23.2606 73.3797 23.5406 73.6497C24.1906 74.2997 25.4006 74.1496 26.2406 73.3096L39.3306 60.2196C39.9606 59.5896 40.2006 58.7396 40.0106 58.0896C40.0006 58.6396 39.7606 59.2497 39.2706 59.7397Z" fill="white"/>
<path d="M26.8413 76.5096C26.1913 75.8596 26.3413 74.6496 27.1813 73.8096L40.2713 60.7196C41.1113 59.8796 42.3213 59.7296 42.9713 60.3796C43.6213 61.0296 43.4713 62.2396 42.6313 63.0796L29.5413 76.1696C28.7013 77.0096 27.4913 77.1596 26.8413 76.5096Z" fill="#FF9F00"/>
<path opacity="0.1" d="M27.2449 74.2896L40.3349 61.1996C41.1749 60.3596 42.385 60.2096 43.035 60.8596C43.195 61.0196 43.305 61.2196 43.375 61.4296C43.375 61.0296 43.255 60.6496 42.975 60.3796C42.325 59.7296 41.1149 59.8796 40.2749 60.7196L27.1849 73.8096C26.5549 74.4396 26.305 75.2896 26.505 75.9396C26.505 75.3796 26.7549 74.7796 27.2449 74.2896Z" fill="black"/>
<path opacity="0.2" d="M42.6222 63.0996L29.5322 76.1896C28.6922 77.0296 27.4822 77.1796 26.8322 76.5296C26.6722 76.3696 26.5622 76.1797 26.4922 75.9597C26.4922 76.3597 26.6122 76.7396 26.8922 77.0096C27.5422 77.6596 28.7522 77.5096 29.5922 76.6696L42.6822 63.5797C43.3122 62.9497 43.5522 62.0996 43.3522 61.4496C43.3522 61.9996 43.1022 62.6096 42.6222 63.0996Z" fill="white"/>
<path d="M76.5125 26.8096L79.7425 22.6896L79.6225 22.5797L77.6925 20.6497L77.5825 20.5396L73.4625 23.7697C73.1525 24.0097 72.7725 24.5096 72.6225 24.8796L72.0425 26.3096L52.3125 46.0396L54.2425 47.9696L73.9725 28.2397L75.4025 27.6596C75.7725 27.4996 76.2625 27.1296 76.5125 26.8096Z" fill="#C8C8C8"/>
<path opacity="0.4" d="M52.6725 46.3796L72.2425 26.8096L72.8225 25.3796C72.9725 25.0096 73.3425 24.5197 73.6625 24.2697L77.7825 21.0396L77.8925 21.1497L79.6025 22.8596L79.7425 22.6797L79.6225 22.5696L77.6925 20.6396L77.5825 20.5296L73.4625 23.7596C73.1525 23.9996 72.7725 24.4996 72.6225 24.8696L72.0425 26.2997L52.3125 46.0296L52.6725 46.3796Z" fill="white"/>
<path opacity="0.2" d="M52.8931 45.4607L52.3203 46.0335L54.2436 47.9568L54.8164 47.384L52.8931 45.4607Z" fill="black"/>
</svg>
