<svg width="101" height="100" viewBox="0 0 101 100" fill="none" xmlns="http://www.w3.org/2000/svg">
<g clip-path="url(#clip0_671_6872)">
<path d="M73.4672 66.7786C73.4432 66.9229 73.4071 67.0672 73.3711 67.1994C72.8541 68.7984 70.9907 70.6498 68.7064 69.7241C69.56 71.7198 66.2419 74.2925 63.4166 72.6816C63.7773 75.1461 60.3149 76.8172 57.8623 75.2784C58.5236 76.709 54.6404 78.9211 51.2621 76.7691C51.0096 76.6128 50.7451 76.4325 50.4566 76.2522C49.0019 75.3265 47.1745 74.1363 45.1428 72.8258C45.1307 72.8258 45.1307 72.8138 45.1187 72.8138C43.4476 71.7318 41.6443 70.5536 39.8289 69.3634C38.0496 68.1973 36.2463 67.007 34.5632 65.877C33.1325 64.9152 31.774 63.9895 30.5597 63.1599C30.175 62.8954 29.8024 62.5829 29.4297 62.2462C28.2515 61.1883 27.1334 59.8899 26.1596 59.1325C25.7989 58.8439 25.4503 58.6395 25.1377 58.5554C25.0175 58.5193 24.8973 58.4953 24.7891 58.4953L32.1707 39.3077C32.291 39.3318 32.4472 39.3678 32.6396 39.3919C32.9402 39.44 33.3369 39.5121 33.8178 39.5842C37.6529 40.1613 46.2729 41.2794 48.2445 41.592C48.6412 41.6521 49.074 41.8444 49.5309 42.1089C52.2479 43.6959 55.9147 48.3365 57.8022 49.9114C60.0143 51.7628 73.2027 65.348 73.4071 65.7928C73.5153 66.0453 73.5274 66.3939 73.4672 66.7786Z" fill="#FFDAB8"/>
<path opacity="0.2" d="M51.6651 74.8817L50.4388 76.2523C48.9841 75.3265 47.1568 74.1363 45.125 72.8259L46.9764 70.734C47.83 69.7723 49.3568 69.7242 50.3907 70.6499L51.3285 71.4794C52.3744 72.3931 52.5187 73.9199 51.6651 74.8817Z" fill="black"/>
<path opacity="0.2" d="M47.5428 70.0727L45.1023 72.8138C43.4312 71.7318 41.6279 70.5536 39.8125 69.3634L42.8541 65.9251C43.7077 64.9633 45.2345 64.9152 46.2685 65.8409L47.2182 66.6825C48.2521 67.5841 48.3844 69.111 47.5428 70.0727Z" fill="black"/>
<path opacity="0.2" d="M43.9243 64.7228L42.8543 65.9251L39.8126 69.3634C38.0333 68.1973 36.23 67.0071 34.5469 65.877L38.6585 61.2364L39.2356 60.5872C40.0891 59.6254 41.616 59.5773 42.6499 60.503L43.5876 61.3326C44.6336 62.2342 44.7778 63.7611 43.9243 64.7228Z" fill="black"/>
<path opacity="0.2" d="M38.6592 61.2364L34.5476 65.877C33.1169 64.9152 31.7584 63.9895 30.5442 63.16C30.1594 62.8955 29.7868 62.5829 29.4141 62.2463L33.9825 57.1007C34.8361 56.139 36.3629 56.0909 37.3969 57.0166L38.3346 57.8461C39.3685 58.7478 39.5248 60.2746 38.6592 61.2364Z" fill="black"/>
<path d="M50.8569 71.9724L49.9192 71.1429C48.8852 70.2292 47.3584 70.2652 46.5048 71.227L43.3911 74.7495C42.6938 75.543 42.4293 76.5409 42.6096 77.3944C42.7058 77.8633 42.9342 78.2961 43.3069 78.6207L44.2447 79.4503C45.1583 80.2557 46.613 80.1596 47.683 79.2699C47.8273 79.1617 47.9595 79.0295 48.0798 78.8972L51.1935 75.3867C52.0351 74.4129 51.8908 72.8861 50.8569 71.9724Z" fill="#F7CEA8"/>
<path d="M46.7319 67.1634L45.7941 66.3218C44.7602 65.4081 43.2334 65.4442 42.3798 66.406L37.3064 72.1406C36.4528 73.1024 36.5971 74.6292 37.631 75.5429L38.5808 76.3845C39.6147 77.2981 41.1415 77.2501 41.9951 76.2883L47.0685 70.5537C47.9101 69.6039 47.7658 68.0771 46.7319 67.1634Z" fill="#F7CEA8"/>
<path d="M43.1143 61.8135L42.1766 60.9839C41.1427 60.0702 39.6159 60.1063 38.7623 61.0681L32.6189 68.0049C31.7653 68.9667 31.9096 70.4935 32.9435 71.4072L33.8812 72.2368C34.9152 73.1505 36.442 73.1144 37.2956 72.1526L43.4389 65.2158C44.2925 64.254 44.1483 62.7272 43.1143 61.8135Z" fill="#F7CEA8"/>
<path d="M37.8456 58.327L36.9078 57.4975C35.8739 56.5838 34.3471 56.6199 33.4935 57.5816L27.9392 63.8573C27.0856 64.8191 27.2299 66.3459 28.2638 67.2596L29.2016 68.0891C30.2355 69.0028 31.7623 68.9667 32.6159 68.005L38.1822 61.7293C39.0238 60.7676 38.8795 59.2407 37.8456 58.327Z" fill="#F7CEA8"/>
<path opacity="0.2" d="M32.6016 68.017C33.0344 67.4159 33.4912 66.8509 33.9601 66.2738C34.4169 65.7088 34.9098 65.1557 35.3907 64.6027C35.8836 64.0617 36.3645 63.5087 36.8815 62.9797L37.6509 62.1983C37.9154 61.9458 38.1679 61.6813 38.4444 61.4288C38.228 61.7294 37.9996 62.0179 37.7832 62.3065L37.0859 63.16C36.629 63.7371 36.1361 64.2901 35.6552 64.8311C35.1623 65.3721 34.6814 65.9252 34.1644 66.4541C33.6595 66.9831 33.1426 67.5121 32.6016 68.017Z" fill="black"/>
<path opacity="0.2" d="M43.1016 75.0499C43.6185 74.2565 44.2076 73.5351 44.8207 72.8379C45.4459 72.1406 46.0831 71.4673 46.8164 70.8662C46.2995 71.6597 45.7104 72.381 45.0973 73.0783C44.4721 73.7756 43.8229 74.4488 43.1016 75.0499Z" fill="black"/>
<path opacity="0.2" d="M36.9922 72.4891C37.4009 71.912 37.8458 71.359 38.2906 70.806C38.7354 70.253 39.1923 69.724 39.6611 69.195C40.13 68.666 40.5989 68.1491 41.0918 67.6321L41.8372 66.8747C42.0896 66.6343 42.3421 66.3818 42.6066 66.1414C42.4022 66.4299 42.1858 66.7064 41.9694 66.9949L41.3082 67.8245C40.8634 68.3775 40.3945 68.9065 39.9376 69.4355C39.4688 69.9644 38.9879 70.4934 38.495 70.9984C38.0141 71.5033 37.5212 72.0082 36.9922 72.4891Z" fill="black"/>
<path opacity="0.2" d="M59.0312 61.9937C59.6083 62.3784 63.3472 65.2757 63.9123 65.6845C64.4773 66.0933 65.0183 66.5381 65.5593 66.9589C66.1003 67.4037 66.6413 67.8365 67.1583 68.2933L67.9398 68.9786C68.1922 69.219 68.4567 69.4475 68.6972 69.6879C68.4086 69.4956 68.1201 69.2912 67.8315 69.0988L66.99 68.4737C66.437 68.0649 65.8839 67.6321 65.3429 67.1993C64.8019 66.7545 64.2609 66.3217 63.744 65.8648C63.227 65.42 59.5362 62.4866 59.0312 61.9937Z" fill="black"/>
<path opacity="0.2" d="M50.1328 69.1468C50.9744 69.6758 54.9417 72.7415 55.7111 73.3546C56.4806 73.9798 57.226 74.617 57.9112 75.3383C57.0576 74.8214 56.2762 74.2202 55.5068 73.6071C54.7494 72.9819 50.8181 69.8682 50.1328 69.1468Z" fill="black"/>
<path opacity="0.2" d="M54.0312 65.2038C54.5963 65.5765 58.3112 68.4498 58.8522 68.8466C59.3932 69.2433 59.9101 69.6641 60.4391 70.0728C60.9561 70.4936 61.473 70.9144 61.978 71.3592L62.7354 72.0205C62.9758 72.2489 63.2283 72.4773 63.4687 72.7057C63.1802 72.5254 62.9157 72.321 62.6392 72.1287L61.8337 71.5396C61.2927 71.1428 60.7637 70.7221 60.2468 70.3013C59.7298 69.8805 59.2128 69.4597 58.7079 69.0149C58.1789 68.5941 54.5001 65.6727 54.0312 65.2038Z" fill="black"/>
<path opacity="0.2" d="M73.4714 66.7784C66.1138 59.1323 58.5638 50.5604 51.7832 48.6969C50.2324 48.2762 46.6016 51.3418 41.2157 51.438C37.633 51.5102 33.8941 48.0958 34.0023 46.0761C34.1105 44.0563 38.3544 45.9078 40.2539 45.7034C41.8048 45.5351 45.9524 43.2989 49.5231 42.0967C52.2401 43.6837 55.9069 48.3243 57.7944 49.8992C60.0065 51.7506 73.1949 65.3358 73.3993 65.7806C73.5195 66.0451 73.5315 66.3937 73.4714 66.7784Z" fill="black"/>
<path d="M77.0906 60.3227C77.0906 60.3227 76.9103 60.5871 76.6217 61.032C76.4174 61.3566 76.1528 61.7774 75.8523 62.2462C75.0468 63.5446 74.0369 65.2277 73.508 66.3699C65.8618 58.4832 58.8408 49.6589 51.7837 47.7233C50.2328 47.3025 45.9529 50.777 40.5669 50.8731C36.9843 50.9453 33.8946 48.108 34.0028 46.0763C34.111 44.0565 38.3548 44.9221 40.2544 44.7177C42.1659 44.5134 48.0328 41.1591 51.8799 40.4739C55.4144 39.8367 63.7338 39.9569 67.1842 40.0411C67.7493 40.0531 68.1821 40.0651 68.4345 40.0651C68.6149 40.0771 68.7111 40.0771 68.7111 40.0771L77.0906 60.3227Z" fill="#F7CEA8"/>
<path d="M17.3482 61.9938L0 53.2776V20L28.06 34.6311L17.3482 61.9938Z" fill="#1DA8B5"/>
<path d="M27.4989 36.0235L17.8828 60.5969L23.458 62.7786L33.0741 38.2052L27.4989 36.0235Z" fill="#F0F0F0"/>
<path opacity="0.2" d="M33.793 39.5722L26.1469 59.1204C25.7862 58.8319 25.4376 58.6275 25.125 58.5434L32.6269 39.3919C32.9274 39.44 33.3242 39.5001 33.793 39.5722Z" fill="black"/>
<path opacity="0.1" d="M27.533 36.0256L17.8984 60.5937L18.7939 60.9448L28.4285 36.3767L27.533 36.0256Z" fill="black"/>
<path opacity="0.2" d="M16.9308 55.7663C16.4619 56.9685 15.1154 57.5576 13.9132 57.0887C12.711 56.6198 12.1219 55.2734 12.5907 54.0711C13.0596 52.8689 14.4061 52.2798 15.6083 52.7487C16.8106 53.2175 17.3997 54.564 16.9308 55.7663Z" fill="black"/>
<path d="M16.7589 55.3815C16.29 56.5837 14.9436 57.1728 13.7413 56.704C12.5391 56.2351 11.95 54.8886 12.4189 53.6864C12.8877 52.4841 14.2342 51.8951 15.4365 52.3639C16.6387 52.8328 17.2278 54.1793 16.7589 55.3815Z" fill="#FFC300"/>
<path opacity="0.3" d="M16.0614 53.0493C15.857 52.8209 15.6046 52.6405 15.304 52.5203C14.2461 52.1116 13.0558 52.6285 12.6471 53.6865C12.5269 53.987 12.4908 54.2996 12.5148 54.6002C13.3684 53.5422 14.6909 52.9531 16.0614 53.0493Z" fill="white"/>
<path d="M17.8892 60.5991L0 51.895V51.2458L18.1416 59.9619L17.8892 60.5991Z" fill="#0B929F"/>
<path d="M83.4228 61.9938L100.771 53.2776V20L72.7109 34.6311L83.4228 61.9938Z" fill="#424B4E"/>
<path d="M73.2392 36.028L67.6641 38.2097L77.2802 62.783L82.8553 60.6014L73.2392 36.028Z" fill="#F0F0F0"/>
<path opacity="0.2" d="M76.6214 61.032C76.417 61.3566 76.1525 61.7774 75.8519 62.2462L67.1719 40.0411C67.7369 40.0531 68.1697 40.0651 68.4222 40.0651L76.6214 61.032Z" fill="black"/>
<path opacity="0.1" d="M73.2549 36.0304L72.3594 36.381L81.9808 60.9517L82.8763 60.6011L73.2549 36.0304Z" fill="black"/>
<path opacity="0.2" d="M83.8407 55.7666C84.3096 56.9688 85.6561 57.5579 86.8583 57.089C88.0606 56.6201 88.6497 55.2736 88.1808 54.0714C87.7119 52.8692 86.3654 52.2801 85.1632 52.749C83.961 53.2178 83.3719 54.5643 83.8407 55.7666Z" fill="black"/>
<path d="M84.0126 55.3818C84.4815 56.584 85.828 57.1731 87.0302 56.7042C88.2324 56.2354 88.8215 54.8889 88.3527 53.6866C87.8838 52.4844 86.5373 51.8953 85.3351 52.3642C84.1329 52.8331 83.5438 54.1796 84.0126 55.3818Z" fill="#FFC300"/>
<path opacity="0.3" d="M84.7031 53.0493C84.9075 52.8209 85.16 52.6406 85.4605 52.5203C86.5185 52.1116 87.7087 52.6285 88.1174 53.6865C88.2377 53.9871 88.2737 54.2996 88.2497 54.6002C87.3961 53.5422 86.0737 52.9531 84.7031 53.0493Z" fill="white"/>
<path d="M82.8853 60.5991L82.6328 59.9619L100.774 51.2458V51.895L82.8853 60.5991Z" fill="#32393B"/>
</g>
<defs>
<clipPath id="clip0_671_6872">
<rect x="0.5" width="100" height="100" rx="50" fill="white"/>
</clipPath>
</defs>
</svg>
