<svg width="101" height="100" viewBox="0 0 101 100" fill="none" xmlns="http://www.w3.org/2000/svg">
<path d="M70.18 81.9894C70.18 83.4775 68.9695 84.688 67.4813 84.688H32.6986C31.2105 84.688 30 83.4775 30 81.9894V18.6986C30 17.2105 31.2105 16 32.6986 16H67.4813C68.9695 16 70.18 17.2105 70.18 18.6986V81.9894Z" fill="#464646"/>
<path d="M67.4773 84.688C68.9654 84.688 70.1759 83.4775 70.1759 81.9894V18.6986C70.1759 17.2105 68.9654 16 67.4773 16H50.0859V84.688H67.4773Z" fill="#505050"/>
<path d="M67.9244 19.4316H32.2422V76.2922H67.9244V19.4316Z" fill="#C8E6F0"/>
<path d="M59.2757 48.2727H41.0625V37.0783C41.0625 32.3918 44.8717 28.5826 49.5583 28.5826H50.7688C55.4553 28.5826 59.2645 32.3918 59.2645 37.0783V48.2727H59.2757ZM43.4835 45.8406H56.8435V37.0672C56.8435 33.7244 54.1227 30.9925 50.7688 30.9925H49.5583C46.2155 30.9925 43.4835 33.7133 43.4835 37.0672V45.8406Z" fill="#145A6E"/>
<path d="M63.7802 46.2182L50.187 35.5235L36.5938 46.2182H63.7802Z" fill="#003C50"/>
<path d="M50.1904 37.2894L38.8516 46.2183V62.9877H61.5292V46.2183L50.1904 37.2894Z" fill="#145A6E"/>
<path d="M61.5263 62.9877V46.2183L50.1875 37.2894V62.9877H61.5263Z" fill="#1E6478"/>
<path d="M62.8277 62.9878H37.5625V64.376H62.8277V62.9878Z" fill="#003C50"/>
<path d="M53.0981 49.9276C53.0981 51.549 51.7876 52.8594 50.1662 52.8594C48.5448 52.8594 47.2344 51.549 47.2344 49.9276C47.2344 48.3062 48.5448 46.9957 50.1662 46.9957C51.7765 46.9957 53.0981 48.3062 53.0981 49.9276Z" fill="#003C50"/>
<path d="M52.1798 58.2567C50.5584 58.2567 49.7587 58.2567 48.1484 58.2567C48.5149 55.1804 48.7037 53.6368 49.0813 50.5605C49.9475 50.5605 50.3918 50.5605 51.258 50.5605C51.6245 53.6479 51.8133 55.1804 52.1798 58.2567Z" fill="#003C50"/>
<path d="M54.9196 77.8914H45.4688V82.0671H54.9196V77.8914Z" fill="#646464"/>
<path opacity="0.3" d="M32.2422 39.7326L52.5432 19.4316H39.8273L32.2422 27.0167V39.7326Z" fill="white"/>
</svg>
