<svg width="101" height="100" viewBox="0 0 101 100" fill="none" xmlns="http://www.w3.org/2000/svg">
<rect x="0.5" width="100" height="100" rx="50" fill="#B2C1E5"/>
<path d="M27.5215 79.8799L21.1258 73.4842C19.8747 72.2332 19.8747 70.2104 21.1258 68.971L22.0612 68.0356L32.97 78.9445L32.0347 79.8799C30.7836 81.1193 28.7725 81.1193 27.5215 79.8799Z" fill="#424B4E"/>
<path d="M32.9899 71.0406L31.4699 69.5206L29.95 68.0006C28.1494 66.2 20.8768 58.9275 13.7445 68.5385C3.68921 82.0898 2.22767 87.8307 2.22767 87.8307L11.7452 81.3415L1 99.9906L19.6491 89.2454L13.1599 98.7629C13.1599 98.7629 18.9008 97.2897 32.4521 87.246C42.0631 80.1138 34.7905 72.8412 32.9899 71.0406Z" fill="#FF9F00"/>
<path d="M14.8179 82.8498C15.4961 81.6806 15.2973 80.1956 14.3385 79.2486C14.3151 79.2252 14.2801 79.1901 14.2567 79.1667C13.4733 78.4418 12.3742 78.1963 11.3921 78.4886C12.7367 76.4074 14.4087 73.9637 16.5016 71.1576C18.0567 69.053 19.6468 67.9305 21.2019 67.8136C23.7975 67.6265 26.323 70.152 27.1532 70.9822L29.9944 73.8234C30.8245 74.6535 33.3501 77.179 33.163 79.7747C33.0461 81.3415 31.9236 82.9199 29.819 84.475C27.0129 86.5679 24.5692 88.2399 22.488 89.5845C22.7803 88.6024 22.5348 87.5033 21.8098 86.7199C21.7865 86.6965 21.7514 86.6615 21.728 86.6381C20.7809 85.691 19.296 85.4805 18.1268 86.1587L10.3047 90.6719L14.8179 82.8498Z" fill="#FFC300"/>
<path d="M47.2779 70.3625C47.2779 70.3625 49.628 80.2659 46.5179 84.1243C42.5542 89.0467 34.4281 90.3797 25.1328 92.4959C33.4811 86.8018 33.446 78.8628 33.446 78.8628C36.4158 77.109 47.2779 70.3625 47.2779 70.3625Z" fill="#295C6F"/>
<path d="M30.6412 53.7127C30.6412 53.7127 20.7379 51.3626 16.8794 54.4727C11.957 58.4364 10.6241 66.5625 8.50781 75.8461C14.2019 67.4978 22.1409 67.5329 22.1409 67.5329C23.8948 64.5865 30.6412 53.7127 30.6412 53.7127Z" fill="#295C6F"/>
<path d="M49.4974 70.1403C41.1375 75.624 33.292 80.1957 33.292 80.1957L20.8047 67.7084C20.8047 67.7084 25.3764 59.8629 30.86 51.5029C32.684 55.3263 35.2797 59.0444 38.612 62.3884C41.9559 65.7324 45.6741 68.328 49.4974 70.1403Z" fill="#FD3A0B"/>
<path d="M66.6376 57.3138C62.9779 60.9735 56.0678 65.8491 49.4968 70.1519C45.6734 68.3279 41.9436 65.7322 38.6113 62.3999C35.2674 59.056 32.6717 55.3378 30.8594 51.5145C35.1621 44.9434 40.0378 38.0333 43.6974 34.3737C48.1872 29.8838 53.25 27.2882 58.0555 25.8149C59.5755 29.3226 61.949 32.8186 65.0708 35.9521C68.2043 39.0856 71.712 41.4475 75.208 42.9674C73.7348 47.7496 71.1274 52.824 66.6376 57.3138Z" fill="#E6E6E6"/>
<path d="M54.7998 55.2561C59.7979 55.2561 63.8496 51.2043 63.8496 46.2063C63.8496 41.2082 59.7979 37.1565 54.7998 37.1565C49.8018 37.1565 45.75 41.2082 45.75 46.2063C45.75 51.2043 49.8018 55.2561 54.7998 55.2561Z" fill="#1DA8B5"/>
<path opacity="0.2" d="M48.3989 41.319C51.9299 37.7879 57.6591 37.7879 61.1902 41.319C62.7686 42.8974 63.6339 44.9085 63.7975 46.9663C64.008 44.4057 63.1428 41.775 61.1902 39.8224C57.6591 36.2913 51.9299 36.2913 48.3989 39.8224C46.4463 41.775 45.5694 44.4057 45.7915 46.9663C45.9552 44.8968 46.8204 42.8857 48.3989 41.319Z" fill="black"/>
<path d="M47.456 53.5372C43.4105 49.4917 43.4105 42.909 47.456 38.8635C51.5015 34.818 58.0842 34.818 62.1297 38.8635C66.1753 42.909 66.1753 49.4917 62.1297 53.5372C58.0842 57.5827 51.5015 57.5827 47.456 53.5372ZM60.6214 40.3718C57.4061 37.1564 52.1797 37.1564 48.9526 40.3718C45.7372 43.5871 45.7372 48.8136 48.9526 52.0289C52.168 55.2443 57.3944 55.2443 60.6214 52.0289C63.8368 48.8253 63.8368 43.5871 60.6214 40.3718Z" fill="#295C6F"/>
<path d="M76.544 36.9928C77.5846 29.8839 76.5206 24.4821 76.5206 24.4821C76.5206 24.4821 71.1188 23.4181 64.0099 24.4587C62.1158 24.7276 60.1047 25.1602 58.0469 25.8033C59.5669 29.311 61.9404 32.807 65.0622 35.9405C68.1957 39.074 71.7034 41.4358 75.1994 42.9558C75.8424 40.8863 76.2633 38.8869 76.544 36.9928Z" fill="#FD3A0B"/>
<path opacity="0.3" d="M47.4569 38.1269C57.594 27.7559 76.5237 24.482 76.5237 24.482C76.5237 24.482 71.8702 24.1663 64.7613 25.2069C62.8672 25.4759 60.8561 25.9085 58.7983 26.5516C53.9928 28.0248 48.9301 30.6321 44.4402 35.1103C40.7806 38.7699 35.9049 45.6684 31.6022 52.2511C26.1185 60.611 21.5469 68.4565 21.5469 68.4565L24.5635 71.4614C24.5635 71.4614 29.1351 63.6159 34.6188 55.256C38.9215 48.6849 43.844 41.8216 47.4569 38.1269Z" fill="white"/>
<path d="M27.8678 75.5889C22.0333 81.4233 16.0703 84.931 16.0703 84.931C16.0703 84.931 19.578 78.9679 25.4124 73.1335C31.2468 67.2991 35.9822 62.5637 37.2099 63.7914C38.4375 65.0191 33.7022 69.7545 27.8678 75.5889Z" fill="#295C6F"/>
</svg>
