<svg width="101" height="100" viewBox="0 0 101 100" fill="none" xmlns="http://www.w3.org/2000/svg">
<g clip-path="url(#clip0_671_6158)">
<rect x="0.5" width="100" height="100" rx="50" fill="#B2C1E5"/>
<path d="M75.8955 46.6423C75.5175 46.8853 75.5445 48.1681 76.9218 51.3007L77.6509 54.4063L76.4492 65.0734L80.2434 64.8168C80.3379 64.1147 80.4324 63.4126 80.5269 62.7104L80.4864 53.3531C78.5691 49.3023 77.3133 45.7241 75.8955 46.6423Z" fill="#FFC17D"/>
<path d="M76.3721 44.5224C75.994 44.7655 76.021 46.0482 77.3983 49.1808L78.1275 52.2864L76.9257 62.9535L80.72 62.6969C80.8145 61.9948 80.909 61.2927 81.0035 60.5905L80.963 51.2332C79.0591 47.1689 77.8034 43.5907 76.3721 44.5224Z" fill="#FFF5E9"/>
<path d="M78.7889 56.3777C80.0446 55.1624 81.1383 59.7803 79.7475 63.3585C78.3568 66.9502 71.2274 69.3807 72.0781 67.8549C72.8072 66.5451 77.2361 57.8765 78.7889 56.3777Z" fill="#EFC498"/>
<path d="M77.4356 41.8759C77.017 42.119 76.828 43.0506 76.909 43.8743C77.017 44.941 77.4761 46.6423 78.8129 50.0855L77.152 61.7788L81.2568 61.6843C81.3919 60.9416 81.5269 60.1855 81.6619 59.4293L82.067 49.3429C80.2036 44.86 79.0154 40.9442 77.4356 41.8759Z" fill="#EFC498"/>
<path d="M25.4283 46.3857C25.8063 46.6287 25.7793 47.9115 24.4021 51.0441L23.6729 54.1497L24.8747 64.8168L21.0804 64.5602C20.9859 63.8581 20.8914 63.156 20.7969 62.4538L20.8374 53.0965C22.7413 49.0322 23.997 45.454 25.4283 46.3857Z" fill="#FFC17D"/>
<path d="M24.6314 44.5224C25.0095 44.7655 24.9825 46.0482 23.6052 49.1808L22.8761 52.2864L24.0778 62.9535L20.2836 62.6969C20.189 61.9948 20.0945 61.2927 20 60.5905L20.0405 51.2332C21.9444 47.1689 23.2001 43.5907 24.6314 44.5224Z" fill="#FFF5E9"/>
<path d="M22.2089 56.3777C20.9532 55.1624 19.8594 59.7803 21.2502 63.3585C22.641 66.9502 29.7704 69.3807 28.9197 67.8549C28.1906 66.5451 23.7617 57.8765 22.2089 56.3777Z" fill="#EFC498"/>
<path d="M23.5611 41.8759C23.9797 42.119 24.1687 43.0506 24.0877 43.8743C23.9797 44.941 23.5206 46.6423 22.1838 50.0855L23.8446 61.7788L19.7398 61.6843C19.6048 60.9416 19.4698 60.1855 19.3348 59.4293L18.9297 49.3429C20.793 44.86 21.9813 40.9442 23.5611 41.8759Z" fill="#EFC498"/>
<path d="M59.4139 76.429C58.3472 76.78 57.2535 77.0771 56.1328 77.2931C57.2535 77.0636 58.3472 76.78 59.4139 76.429Z" fill="white"/>
<path d="M52.3483 77.7659C51.7947 77.7929 51.2546 77.8199 50.6875 77.8199C51.2546 77.8199 51.8082 77.8064 52.3483 77.7659Z" fill="white"/>
<path d="M72.7946 66.9233C72.5516 67.3823 72.7271 67.2203 74.1314 65.0464C73.7803 65.5865 73.4157 66.1131 73.0242 66.6262C72.9566 66.7207 72.8756 66.8287 72.7946 66.9233Z" fill="#0B929F"/>
<path d="M74.8987 37.9062C74.2505 37.6901 73.5619 37.7712 72.9273 37.5821C72.5492 37.4741 72.5627 37.2446 72.5627 36.907C72.5627 36.4614 72.1981 36.2184 71.8201 36.0698C71.2394 35.8403 70.7803 35.4622 70.4563 34.9221C70.2267 34.544 69.3896 33.2883 68.9845 34.1525C68.5929 34.9761 68.2284 35.7053 67.1481 35.6647C66.257 35.6377 65.5818 34.7871 65.5683 33.9364C65.5548 32.8967 66.9591 32.9507 66.8511 31.8435C66.7296 30.6283 65.3253 29.9396 64.3801 29.413C64.3396 29.386 63.705 29.0485 63.7995 28.981C64.1101 28.7784 64.9202 29.116 65.1903 29.2645C65.7709 29.5616 66.5945 30.8038 67.3507 30.3177C68.1338 29.8316 66.4865 28.5219 66.1219 28.3463C65.7439 28.1573 65.1633 28.1978 64.8797 27.8467C64.6367 27.5497 64.6502 27.0906 64.5016 26.7395C64.0966 25.8078 62.8543 25.1732 61.8956 24.9977C61.18 24.8762 60.2078 24.4441 60.1403 23.6339C59.9107 23.5394 59.6677 23.4584 59.4246 23.3909C58.574 23.7959 57.7638 24.2955 56.9132 24.6871C56.5216 24.8627 55.7789 25.2407 55.3604 24.9572C54.6717 24.5116 55.4954 23.1613 54.9418 22.5672C54.5367 22.1351 53.632 22.4997 53.1459 22.4997C53.0244 22.4997 52.5518 22.3377 52.4843 22.5132C52.4168 22.6617 52.5788 22.9183 52.6328 23.0533C52.8624 23.5934 52.8219 24.0795 52.0792 23.9715C51.5121 23.8905 51.0395 23.4449 50.7155 22.9993L49.4867 23.5394C50.1754 25.1867 45.895 23.4314 45.679 24.2685C45.6115 24.5386 46.1111 24.8627 46.3406 24.8627C46.4891 24.8627 46.7862 24.5521 46.9077 24.6601C47.1778 24.9032 47.1913 25.5918 47.2183 25.9294C47.2183 25.9834 47.1913 26.429 47.2993 26.3344C47.9879 25.6863 48.8656 25.3352 49.5542 24.7141C49.7703 24.5116 50.0133 24.228 50.3104 24.147C50.702 24.0525 51.0665 24.4171 51.3231 24.6601C52.2278 25.5378 53.254 26.8475 53.1054 28.1978C53.0784 28.4003 52.9974 28.8189 52.7003 28.7649C52.3088 28.6974 52.0792 27.9953 51.8227 27.7387C51.2826 27.1851 49.8378 26.564 49.4057 27.5902C49.1221 28.2788 50.1078 28.6299 50.5669 28.8459C50.729 28.9269 51.08 29.035 51.1205 29.2375C51.188 29.5211 50.5264 29.6831 50.3644 29.6966C49.4867 29.8181 48.8251 29.089 48.2175 28.5759C47.6504 28.1033 47.9474 29.062 48.1635 29.305C48.2175 29.3725 48.447 29.5481 48.3795 29.6561C48.231 29.8856 47.5693 29.8586 47.3533 29.8721C46.0165 29.9936 44.8958 30.3447 43.7886 31.1279C43.0865 31.6275 42.4383 32.2081 41.8847 32.8697C41.8442 32.9102 41.8172 32.9507 41.7767 33.0047C41.5202 33.9904 41.2906 35.0301 40.845 35.9618C40.602 36.4614 40.494 36.1778 40.467 35.7593C40.4265 34.8006 40.71 33.6529 40.1024 32.8157C39.0087 31.3169 36.5512 33.4503 35.7275 34.2605C35.0659 34.9086 33.9722 36.2319 34.7554 37.177C35.525 38.1087 36.3352 36.7585 37.1183 36.6774C37.4289 36.6504 37.7664 36.718 38.023 36.88C37.5639 37.3121 37.0643 37.6901 36.5917 38.1087C36.3757 38.2978 36.2271 38.5003 36.5917 38.5948C36.9428 38.6893 37.5099 38.6353 37.7799 38.9324C38.0095 39.1889 37.7529 39.6615 37.6584 39.9316C37.4424 40.5527 37.0373 41.9705 37.6584 42.4971C38.1175 42.8887 39.2517 42.3756 39.7378 42.281C42.1278 41.7544 44.7608 41.849 46.1786 44.1444C46.4081 44.509 46.5296 44.914 46.8672 45.1976C47.2183 45.5082 47.6639 45.6702 48.0824 45.8457C48.3795 45.9672 48.7576 46.1158 48.9331 46.3993C49.2032 46.8449 48.7441 47.412 48.5415 47.7901C48.2175 48.3977 47.5288 49.4239 47.6639 50.1666C47.6909 50.3286 47.8259 50.4096 47.9744 50.3421C49.7973 50.4096 51.8767 50.9362 53.3755 52.0164C53.9291 52.4215 54.5097 53.0021 54.4692 53.7448C54.4152 54.7845 53.335 55.4191 52.6463 56.0267C51.4311 57.0934 50.5804 58.1466 50.2564 59.7264C49.9593 61.1442 48.6496 61.6843 47.3263 61.8868C46.1516 65.9511 43.4781 65.3165 43.4781 65.3165C43.181 66.0457 42.7354 67.3419 41.8442 67.5714C41.4797 67.666 41.0476 67.4769 40.7775 67.8145C40.2104 68.4896 40.4805 69.5968 40.6155 70.38C40.6965 70.8121 41.1421 72.2704 40.3995 72.3919C39.7108 72.4999 39.1032 71.9733 38.9007 71.3657C38.5631 70.326 38.7386 69.1107 38.8332 68.0575C38.9547 66.6398 38.8467 65.357 38.4416 63.9797C38.212 63.1831 37.7124 62.1164 38.023 61.2792C38.185 60.8606 38.5901 60.6716 38.8737 60.361C39.2787 59.929 39.5353 59.3754 39.6703 58.7947C39.8594 58.0251 39.9404 56.8369 39.2247 56.2833C38.6036 55.7972 37.5099 55.5946 37.1318 54.852C36.9023 54.3929 37.2803 54.0283 37.4964 53.6637C37.861 53.0561 37.9015 52.381 37.5909 51.7464C37.1453 50.8282 35.9841 50.1801 35.7681 49.1539C35.5115 48.0061 36.9293 46.9799 37.6179 46.2913C38.1445 45.7782 38.6576 45.2651 39.1572 44.725C39.4948 44.3469 39.9134 43.9284 40.1024 43.4423C40.2239 43.1452 40.0349 43.0507 39.7513 43.1047C39.1032 43.2262 38.5496 43.4558 37.861 43.3342C37.3209 43.2397 36.7808 42.9697 36.4162 42.5511C36.3487 41.9705 36.2947 41.3764 36.1461 40.7957C36.0921 40.5797 36.0246 40.3097 35.8356 40.1881C35.4845 39.9451 35.2279 39.9451 34.9849 39.513C34.7689 39.1349 34.6338 38.7569 34.3368 38.4328C34.0667 38.1492 33.7427 37.9602 33.4186 37.7712C32.838 37.4336 32.3519 37.0825 32.4599 36.3399C32.6354 35.0571 33.5806 33.9769 33.8642 32.6942C33.9452 32.3296 33.9992 31.2764 33.3916 31.884C33.081 32.1946 32.865 32.6132 32.6895 33.0182C32.5814 33.2478 32.4329 33.6259 32.1899 33.7474C31.7848 33.9364 32.0818 32.6672 32.1088 32.5591C32.811 30.2502 34.8229 28.981 36.5512 27.4822C36.6997 27.3471 37.7664 26.564 37.6044 26.2939C37.1048 26.2939 36.7267 26.1454 36.4162 25.9159C31.4742 28.8729 27.5044 33.3558 25.1685 38.6218C22.8325 43.9014 22.1979 49.883 23.3726 55.5406C25.3845 65.276 32.703 73.4046 42.1548 76.4562C47.5288 78.198 53.4295 78.2385 58.8305 76.5912C64.3666 74.9034 69.2951 71.4737 72.8192 66.8963C73.1163 66.3427 74.0345 64.8979 74.156 65.0194C73.8454 64.6684 73.5349 64.3308 73.0488 64.5739C72.6302 64.7899 72.2926 65.168 71.9686 65.5055C71.0504 66.5047 70.2132 67.5849 69.2275 68.5166C68.7415 68.9757 68.2284 69.3943 67.7693 69.8804C67.4722 70.2044 67.1887 70.596 66.8376 70.8661C66.149 71.3522 65.6359 69.5428 65.5683 69.1512C65.3658 68.0845 65.9734 67.2069 66.7296 66.5317C67.2292 66.0862 68.4849 65.4785 68.5389 64.7359C68.6064 63.9527 67.6882 63.2236 67.9853 62.4404C68.1608 61.9679 68.7685 61.8193 69.0925 61.4683C69.4706 61.0632 69.6461 60.5366 69.7677 60.01C69.8622 59.6184 69.9027 59.1863 70.1052 58.8352C70.3078 58.5112 70.6723 58.2951 70.8884 57.9576C71.4015 57.1744 71.7525 55.9727 71.0639 55.1895C70.8209 54.906 70.2808 54.7575 70.1727 54.3794C70.0917 54.0958 70.4023 53.8663 70.5913 53.7178C71.1854 53.2452 71.9146 52.7321 71.6715 51.8544C71.4555 51.1253 70.7939 51.9894 70.3753 51.9489C69.8082 51.8949 69.9702 50.7202 69.8892 50.3421C69.7947 49.91 68.3364 50.5176 68.1203 50.5851C67.2427 50.8282 65.9464 51.2468 65.1903 50.5041C64.5421 49.883 64.4611 48.8433 64.1236 48.0602C63.6915 47.0475 62.8948 46.3318 62.2872 45.4271C61.8011 44.7115 62.9083 44.941 63.3269 44.779C64.1506 44.455 64.2856 43.4828 64.2991 42.6996C64.3126 41.9975 64.1911 41.2953 64.1506 40.5932C64.1236 40.1881 64.083 39.6885 64.2856 39.297C64.5691 38.7433 65.3793 38.9324 65.8654 38.7298C66.2435 38.5678 66.2435 38.1627 66.2975 37.8117C66.3785 37.2581 66.7296 37.1635 67.2157 37.0555C68.1608 36.826 69.0655 36.2049 70.0647 36.1914C70.4428 36.1914 70.7398 36.3804 70.8344 36.7585C70.9019 37.0285 70.7939 37.6226 70.9964 37.8387C71.0774 37.9197 71.334 37.9062 71.4555 37.9602C72.0226 38.2573 72.4277 38.8649 72.8057 39.351C72.9408 39.513 73.1838 39.9721 73.4269 39.9856C73.6429 39.9991 73.94 39.6615 74.1155 39.5535C74.5611 39.2699 75.2227 39.1349 75.5333 38.6893C75.7898 38.2978 75.2227 38.0142 74.8987 37.9062Z" fill="#0B929F"/>
<path d="M72.7969 66.9231C72.8779 66.8286 72.9589 66.7206 73.0264 66.6261C73.4045 66.113 73.7826 65.5864 74.1336 65.0463C74.0256 64.9248 73.0939 66.3695 72.7969 66.9231Z" fill="#0B929F"/>
<path d="M22.7812 49.91C22.7812 49.8965 22.7812 49.8695 22.7812 49.856C22.7812 49.883 22.7812 49.8965 22.7812 49.91C22.7812 65.33 35.2712 77.8199 50.6912 77.8199C35.2982 77.8199 22.7812 65.303 22.7812 49.91Z" fill="white"/>
<path d="M25.7962 37.312C25.7827 37.339 25.7557 37.3795 25.7422 37.4065C25.7557 37.3795 25.7692 37.3525 25.7962 37.312Z" fill="white"/>
<path d="M25.2785 38.3787C25.2514 38.4327 25.2244 38.4867 25.2109 38.5272C25.2244 38.4732 25.2514 38.4327 25.2785 38.3787Z" fill="white"/>
<path d="M24.7389 39.6479C24.5904 40.0125 24.4553 40.3906 24.3203 40.7687C24.4418 40.3906 24.5904 40.0125 24.7389 39.6479Z" fill="white"/>
<path d="M25.2098 38.5271C25.0747 38.8377 24.9397 39.1617 24.8047 39.4723C24.9262 39.1617 25.0612 38.8377 25.2098 38.5271Z" fill="white"/>
<path d="M25.7969 37.312C28.1868 32.5996 31.8866 28.6568 36.3964 25.9428C36.707 26.1723 37.0986 26.3208 37.5847 26.3208C37.5847 26.3208 38.1248 26.3208 34.6951 28.9944C31.2789 31.6679 31.5895 35.3811 32.6562 33.0451C33.7229 30.7092 34.6951 31.5599 32.9803 34.8815C31.2654 38.2031 33.8849 37.1229 34.7626 39.1618C35.6538 41.1872 35.9779 38.7297 36.3964 42.5915C36.3964 42.5915 37.4631 43.8742 39.394 43.2261C41.3249 42.5915 39.07 44.941 37.0446 46.8583C35.0057 48.7892 35.6538 49.4238 36.7205 50.5986C37.7872 51.7733 38.2193 52.732 37.2606 54.0282C36.3019 55.311 38.7594 55.743 39.394 56.4857C40.0286 57.2283 39.9341 59.6993 38.4353 60.766C36.9365 61.8327 39.178 64.1822 38.8539 67.5038C38.5298 70.812 38.6109 72.2027 40.1232 72.4188C41.6354 72.6348 39.9206 69.5292 40.5687 68.1385C41.2169 66.7477 41.9595 69.0971 43.4583 65.3569C43.4583 65.3569 46.1318 65.9915 47.3065 61.9272C47.3065 61.9272 49.656 61.6032 50.0881 60.3204C50.5202 59.0377 49.9801 58.187 53.3962 55.4055C56.8124 52.6239 51.0468 50.4905 47.9412 50.3825C47.9412 50.3825 46.807 50.8416 48.7918 47.2769C49.656 45.7241 47.077 46.1022 46.4424 44.7114C45.7943 43.3206 44.309 41.7138 41.3114 42.0379C38.3138 42.362 37.4631 43.4287 37.3551 41.6058C37.2471 39.783 38.6379 38.9323 37.1391 38.7162C35.6403 38.5002 36.3964 38.3922 38.0032 36.8934C38.0032 36.8934 37.0446 36.2453 36.0724 37.2175C35.1137 38.1761 33.3989 36.6774 35.4242 34.5439C37.4631 32.397 40.6633 30.8037 40.4472 34.868C40.2717 38.9593 41.7705 33.0586 41.7705 33.0586C41.7705 33.0586 44.0119 30.1826 46.7935 29.98C49.575 29.764 47.8602 29.656 47.8602 28.6973C47.8602 27.7386 49.1429 30.3041 50.6957 29.656C52.2485 29.0079 49.0349 28.8053 49.3589 27.7386C49.683 26.6719 51.5059 26.9825 52.2485 28.3732C52.9911 29.764 53.8553 27.6306 51.9244 25.3757C49.9936 23.1342 50.3176 24.525 48.4948 25.4837C46.6854 26.4424 47.4281 26.9825 47.104 25.3757C46.7799 23.7688 46.6719 25.4837 45.8213 24.633C44.9571 23.7823 47.3471 24.1739 48.6028 24.3089C49.8585 24.444 49.4535 23.5663 49.4535 23.5663L50.6822 23.0262C50.6822 23.0262 51.4789 24.2009 52.451 23.9849C53.4097 23.7688 51.8164 22.2701 52.7751 22.4861C53.7338 22.7021 55.0165 21.838 55.1246 23.1342C55.2326 24.417 54.3819 26.1318 57.9061 24.2009C58.6217 23.8094 59.0943 23.5663 59.4184 23.4043C56.6639 22.4996 53.7338 22 50.6822 22C39.8126 22 30.4013 28.2382 25.7969 37.312Z" fill="white"/>
<path d="M24.8097 39.4858C24.7827 39.5399 24.7692 39.5939 24.7422 39.6479C24.7557 39.5939 24.7827 39.5399 24.8097 39.4858Z" fill="white"/>
<path d="M60.1328 23.6609C60.1598 23.9174 60.2408 24.2415 60.6864 24.5251C62.0772 25.3757 61.6451 24.6331 63.468 25.6998C65.2908 26.7665 64.1161 27.9412 65.4934 28.1573C66.8841 28.3733 68.1669 30.2907 67.1002 30.3987C66.0335 30.5067 65.9254 29.224 64.3186 29.0079C62.7118 28.7919 64.9668 29.548 66.0335 30.5067C67.1002 31.4654 67.1002 32.6131 66.0335 33.0587C64.9668 33.5043 65.7499 35.9618 67.5052 35.6377C69.2471 35.3137 68.599 33.5043 69.5711 33.9229C70.5298 34.355 70.2193 35.4217 71.8126 36.0563C73.4194 36.7044 71.5965 37.5551 73.5274 37.6631C75.4583 37.7711 76.417 38.5138 74.7021 39.2699C72.9873 40.0261 73.8515 40.6607 72.3527 38.8378C70.8539 37.015 71.0024 38.7568 70.8539 37.015C70.7054 35.2731 68.2884 36.907 67.0056 37.123C65.7229 37.339 66.7896 38.6218 65.6149 38.8378C64.4402 39.0539 63.9 38.7298 64.2241 41.5114C64.5482 44.2929 63.792 44.9275 62.5093 44.9275C61.2265 44.9275 63.5895 46.4263 64.2241 48.3572C64.8587 50.2746 64.9803 51.4628 67.7618 50.7066C70.5433 49.964 69.6792 49.964 70.0032 51.4493C70.3273 52.9481 71.502 50.5986 71.7181 52.0839C71.9341 53.5827 69.0445 53.9068 70.6514 54.8654C72.2582 55.8241 71.0834 58.0791 70.3273 58.6057C69.5847 59.1458 70.1112 61.0631 68.5044 61.9273C66.8976 62.778 69.2471 64.2768 68.2884 65.249C67.3297 66.2076 64.7507 67.3824 65.7229 69.7453C66.6951 72.0948 66.6951 70.704 68.7205 68.9892C70.7459 67.2743 72.4607 64.3983 73.4329 64.5063C73.7705 64.5468 73.946 64.8169 74.1485 65.0464C71.0429 69.8534 66.4925 73.6341 61.132 75.808C71.3805 71.6762 78.6179 61.6438 78.6179 49.91C78.6044 37.8116 70.9079 27.5226 60.1328 23.6609Z" fill="white"/>
<path d="M59.6719 23.4854C59.8339 23.5394 59.9824 23.5934 60.1445 23.6609C59.9824 23.5934 59.8204 23.5394 59.6719 23.4854Z" fill="white"/>
<path d="M80.6222 50.585C79.2854 47.1418 78.9344 44.9679 78.8263 43.9012C78.7453 43.091 78.9344 42.1593 79.3529 41.9028C80.9327 40.9711 82.121 44.8869 83.9978 49.3562L83.5928 59.4427C82.7556 63.9256 82.1075 68.5029 80.5682 70.7849C80.5682 70.7849 75.0456 77.8062 72.9797 82.2351C72.9797 82.2351 73.5468 88.7434 72.4801 93.4018C72.4801 93.4018 64.1085 94.4955 63.2578 91.3764C63.6089 90.9308 64.6486 83.2883 65.0402 80.4123C65.3372 78.2788 64.9591 76.2264 64.7161 74.1065C64.4866 72.1216 64.2435 71.1225 64.7296 69.2186C65.1347 67.6793 66.944 63.1289 67.2546 61.5626C67.8352 58.6325 67.6327 57.1067 68.1053 53.0019C68.1323 52.7589 68.4698 51.9622 68.8749 51.7327C69.8876 51.1791 71.7104 50.855 72.2641 55.1624C72.4261 56.4316 71.7915 60.1178 71.2649 62.0082C70.0631 66.3425 70.9678 66.41 71.0218 66.41C74.1544 66.41 76.1663 61.1305 77.287 59.9558L80.6222 50.585Z" fill="#FFD3A6"/>
<path d="M68.3462 55.0949C68.3462 55.0949 68.1572 52.5024 69.3994 52.0838C70.7902 51.6247 71.0873 54.2307 71.0197 54.6628C71.0197 54.6763 70.5337 56.2696 68.3462 55.0949Z" fill="white"/>
<path d="M81.2291 44.5898C81.2291 44.5898 80.0949 43.1585 80.2299 42.6454C80.3109 42.2944 80.4595 41.9703 80.6755 42.1863C81.2966 42.794 81.9447 44.2117 82.0528 44.5763C82.0528 44.5898 81.8232 45.2244 81.2291 44.5898Z" fill="white"/>
<path d="M76.2474 80.6284H63.1094V102.381H76.2474V80.6284Z" fill="#2C5871"/>
<path d="M20.3757 50.585C21.7124 47.1418 22.0635 44.9679 22.1715 43.9012C22.2525 43.091 22.0635 42.1593 21.6449 41.9028C20.0651 40.9711 18.8769 44.8869 17 49.3562L17.4051 59.4427C18.2422 63.9256 18.8904 68.5029 20.4297 70.7849C20.4297 70.7849 25.9522 77.8062 28.0181 82.2351C28.0181 82.2351 27.451 88.7434 28.5177 93.4018C28.5177 93.4018 36.8894 94.4955 37.74 91.3764C37.389 90.9308 36.3493 83.2883 35.9577 80.4123C35.6606 78.2788 36.0387 76.2264 36.2817 74.1065C36.5113 72.1216 36.7543 71.1225 36.2682 69.2186C35.8632 67.6793 34.0538 63.1289 33.7432 61.5626C33.1626 58.6325 33.3652 57.1067 32.8926 53.0019C32.8656 52.7589 32.528 51.9622 32.1229 51.7327C31.1102 51.1791 29.2874 50.855 28.7338 55.1624C28.5717 56.4316 29.2064 60.1178 29.733 62.0082C30.9347 66.3425 30.03 66.41 29.976 66.41C26.8434 66.41 24.8315 61.1305 23.7108 59.9558L20.3757 50.585Z" fill="#FFD3A6"/>
<path d="M32.6589 55.0949C32.6589 55.0949 32.848 52.5024 31.6057 52.0838C30.215 51.6247 29.9179 54.2307 29.9854 54.6628C29.9719 54.6763 30.458 56.2696 32.6589 55.0949Z" fill="white"/>
<path d="M19.769 44.5898C19.769 44.5898 20.8897 43.1585 20.7682 42.6454C20.6872 42.2944 20.5386 41.9703 20.3226 42.1863C19.7015 42.794 19.0533 44.2117 18.9453 44.5763C18.9453 44.5898 19.1749 45.2244 19.769 44.5898Z" fill="white"/>
<path d="M37.8881 80.6284H24.75V102.381H37.8881V80.6284Z" fill="#2C5871"/>
</g>
<defs>
<clipPath id="clip0_671_6158">
<rect x="0.5" width="100" height="100" rx="50" fill="white"/>
</clipPath>
</defs>
</svg>
