<svg width="101" height="100" viewBox="0 0 101 100" fill="none" xmlns="http://www.w3.org/2000/svg">
<rect x="0.5" width="100" height="100" rx="50" fill="#B2C1E5"/>
<path d="M18.5312 63.42V27.64C18.5312 26.18 19.7112 25 21.1712 25H78.9413C80.4013 25 81.5812 26.18 81.5812 27.64V63.42H18.5312Z" fill="#424B4E"/>
<path d="M78.9263 27.64H21.1562V60.78H78.9263V27.64Z" fill="white"/>
<path opacity="0.2" d="M22.0363 28.52H78.9363V27.64H21.1562V60.78H22.0363V28.52Z" fill="black"/>
<path d="M85.0878 72.21H15.0078L18.5278 63.42H81.5678L85.0878 72.21Z" fill="#1DA8B5"/>
<path d="M58.9906 67.8201H50.0506H41.1106L39.6406 70.4601H50.0506H60.4606L58.9906 67.8201Z" fill="#0B929F"/>
<path d="M80.7 75H19.4C16.97 75 15 73.75 15 72.21H85.09C85.09 73.75 83.13 75 80.7 75Z" fill="#295C6F"/>
<path d="M39.035 53.1099H34.375V58.4399H39.035V53.1099Z" fill="#077277"/>
<path d="M46.0506 50.0499H41.3906V58.4399H46.0506V50.0499Z" fill="#FD3A0B"/>
<path d="M53.0741 46.22H48.4141V58.43H53.0741V46.22Z" fill="#077277"/>
<path d="M60.0897 43.1199H55.4297V58.4399H60.0897V43.1199Z" fill="#FD3A0B"/>
<path d="M67.1209 38.6499H62.4609V58.4299H67.1209V38.6499Z" fill="#077277"/>
<path d="M65.403 31.5658L31.5234 49.5566L31.8658 50.2014L65.7454 32.2105L65.403 31.5658Z" fill="#FD3A0B"/>
<path d="M64.8791 32.2399L63.2891 31.2899L63.3191 31.2299L66.079 30.92C66.969 30.67 67.859 30.4199 68.739 30.1799C68.039 30.7799 67.339 31.3699 66.639 31.9699L64.8391 34.0899H64.7791L64.8791 32.2399Z" fill="#FD3A0B"/>
<path d="M68.7328 58.7499H31.3828V30.1899H32.0128V58.1199H68.7328V58.7499Z" fill="#424B4E"/>
</svg>
