<svg width="101" height="100" viewBox="0 0 101 100" fill="none" xmlns="http://www.w3.org/2000/svg">
<g clip-path="url(#clip0_671_6327)">
<rect x="0.5" width="100" height="100" rx="50" fill="#B2C1E5"/>
<path d="M71.923 55.3476C71.923 69.9397 61.8001 76.2584 49.3169 76.2584C36.8338 76.2584 26.7109 69.9397 26.7109 55.3476C26.7109 40.7555 36.8338 27.8181 49.3169 27.8181C61.8001 27.8181 71.923 40.7555 71.923 55.3476Z" fill="#077277"/>
<path d="M64.5896 16.4542C62.6916 15.4565 57.9708 16.2433 54.1018 17.6222C53.0554 16.657 51.7495 16 50.3382 16C48.6591 16 47.1342 16.9166 46.0068 18.1981C41.9592 16.4867 36.1841 15.3187 34.0346 16.4542C31.5931 17.7439 34.7646 21.5075 38.7148 23.584C41.0102 24.8007 43.0705 25.1657 44.8631 25.0197C45.9256 26.2364 47.9778 26.6744 50.3382 26.6744C52.7391 26.6744 54.8156 26.2201 55.8619 24.9629C57.111 24.7845 58.4656 24.3546 59.9094 23.5921C63.8596 21.5075 67.0311 17.7439 64.5896 16.4542Z" fill="#077277"/>
<path d="M56.4888 28.6048C56.4888 29.1483 56.0508 29.5944 55.5073 29.5944H43.1458C42.6024 29.5944 42.1562 29.1564 42.1562 28.6048V25.9768C42.1562 25.4333 42.5943 24.9872 43.1458 24.9872H55.5073C56.0508 24.9872 56.4888 25.4252 56.4888 25.9768V28.6048Z" fill="#19AABB"/>
<path d="M51.0536 50.3268V41.0881C53.8764 41.6234 55.9609 43.4241 55.9609 45.5655C55.9609 46.5226 56.7315 47.2932 57.6967 47.2932C58.6458 47.2932 59.4244 46.5145 59.4244 45.5655C59.4244 41.5666 55.7987 38.2411 51.0536 37.5759V37.1298C51.0536 36.1727 50.275 35.4021 49.3178 35.4021C48.3607 35.4021 47.5902 36.1808 47.5902 37.1298V37.5759C43.5021 38.1437 40.2495 40.6825 39.414 43.927C39.2842 44.4542 39.2112 44.9977 39.2112 45.5574C39.2112 49.5481 42.837 52.8818 47.582 53.5388V62.7775C44.7593 62.2422 42.6747 60.4415 42.6747 58.3001C42.6747 57.343 41.8961 56.5724 40.9389 56.5724C39.9818 56.5724 39.2031 57.3511 39.2031 58.3001C39.2031 62.299 42.8289 65.6246 47.5739 66.2897V66.7358C47.5739 67.6929 48.3526 68.4716 49.3016 68.4716C50.2588 68.4716 51.0374 67.6929 51.0374 66.7358V66.2897C55.7825 65.6246 59.4082 62.299 59.4082 58.3001C59.4244 54.3175 55.7987 50.9838 51.0536 50.3268ZM42.7153 45.0869C42.9911 43.1564 44.9702 41.5829 47.5902 41.0881V50.0429C44.7674 49.5076 42.6829 47.7068 42.6829 45.5655C42.6829 45.4033 42.691 45.241 42.7153 45.0869ZM55.9609 58.3082C55.9609 60.4496 53.8764 62.2503 51.0536 62.7856V53.8389C53.8682 54.3743 55.9447 56.1669 55.9609 58.3001C55.9609 58.3082 55.9609 58.3082 55.9609 58.3082Z" fill="#19AABB"/>
<path d="M83.5693 66.9224C83.7883 66.9954 60.217 64.0753 59.9331 70.2561C59.7303 74.6929 45.1463 75.8691 45.1463 75.8691C44.684 75.8691 40.7014 76.1692 40.7014 76.1692L31.122 69.956C29.4024 68.0742 26.3039 67.1333 24.414 68.8123C22.9378 70.1263 25.7524 71.1808 27.4801 73.0626L38.1463 81.0441C38.3491 81.2712 39.2332 81.6605 40.6203 81.8552C46.7524 82.7555 51.7164 83.0232 61.9528 84.3859C65.1 84.8077 67.6388 84.3453 68.6689 83.8424C72.611 81.9201 83.5693 81.8471 83.5693 81.8471V66.9224Z" fill="#EFC498"/>
<path d="M55.4446 71.9351C52.995 73.387 51.608 73.2978 51.462 73.3546L47.8525 70.1912C46.7088 68.9421 42.5802 68.4148 41.4365 69.664C40.2928 70.9131 41.1283 71.1077 42.272 72.3569L49.272 78.2538C49.9128 78.9513 50.7807 79.2433 51.6161 79.1622C51.7054 79.1703 51.7865 79.1947 51.8757 79.1947L70.7343 80.1112C71.586 80.1112 72.3809 79.8192 73.0298 79.3245C76.3554 78.0267 78.6671 76.1367 78.6671 72.8841C78.6671 68.3905 74.2708 66.5817 68.8444 66.5817C61.4469 66.5736 59.5976 69.4612 55.4446 71.9351Z" fill="#FFD3A6"/>
<path d="M85.1232 66.2897H82.4141V82.3905H85.1232V66.2897Z" fill="white"/>
<path d="M101.3 65.3325H83.8125V83.3232H93.9678C97.4556 77.9212 99.9863 71.8458 101.3 65.3325Z" fill="#073856"/>
</g>
<defs>
<clipPath id="clip0_671_6327">
<rect x="0.5" width="100" height="100" rx="50" fill="white"/>
</clipPath>
</defs>
</svg>
