<svg width="101" height="100" viewBox="0 0 101 100" fill="none" xmlns="http://www.w3.org/2000/svg">
<path d="M52.8533 73.5046C65.6359 72.1225 74.8778 60.6397 73.4957 47.8571C72.1135 35.0744 60.6307 25.8325 47.8481 27.2147C35.0655 28.5968 25.8236 40.0796 27.2057 52.8623C28.5879 65.6449 40.0707 74.8868 52.8533 73.5046Z" fill="#0B929F"/>
<path d="M59.5424 57.4202C65.7907 51.1719 65.7907 41.0414 59.5424 34.793C53.294 28.5447 43.1635 28.5447 36.9152 34.793C30.6668 41.0414 30.6668 51.1719 36.9152 57.4202C43.1635 63.6686 53.294 63.6686 59.5424 57.4202Z" fill="#0B929F"/>
<path d="M54.754 27.5C42.124 25.07 29.924 33.34 27.494 45.97C25.064 58.6 33.334 70.8 45.964 73.23C58.594 75.66 70.794 67.39 73.224 54.76C75.644 42.13 67.374 29.93 54.754 27.5ZM72.714 54.66C70.344 67.01 58.404 75.1 46.054 72.72C33.704 70.35 25.614 58.41 27.994 46.06C30.364 33.71 42.304 25.62 54.654 28C67.004 30.37 75.094 42.31 72.714 54.66Z" fill="#0B929F"/>
<path d="M32.6627 63.77C32.7927 63.48 33.5627 63.37 33.7227 63.1C34.3027 62.12 34.3627 59.64 33.9927 58.57C33.5327 57.26 30.7127 55.76 30.2727 54.44C30.0427 53.74 30.7527 52.21 30.5427 51.51C30.3027 50.69 28.7527 49.63 28.4127 48.84C28.2227 48.41 28.4227 47.36 28.1427 46.97C28.0327 46.81 27.5127 46.63 27.3827 46.58C26.2027 53.74 28.4327 60.72 32.9327 65.8C33.0227 65.86 33.0627 65.9 33.0627 65.9C33.0627 65.9 32.4427 64.26 32.6627 63.77Z" fill="white"/>
<path d="M32.7034 36.84C33.4734 36.32 35.4634 36.32 36.2934 35.91C36.8634 35.62 37.9134 34.83 38.2834 34.31C38.6634 33.79 39.6534 32.38 39.2134 31.91C38.8334 31.5 37.4234 33.02 37.0834 32.58C36.7934 32.2 37.7634 31.27 38.1434 30.98C38.4734 30.72 39.3334 30.54 39.7334 30.45C40.2234 30.34 41.2634 30.37 41.7234 30.18C42.7434 29.78 45.3134 27.65 45.3134 27.65C45.3134 27.65 45.2834 27.65 45.2434 27.65C38.6634 29.13 32.9634 33.44 29.7734 39.47C30.0634 39.27 31.4634 38.31 31.9034 37.92C32.1534 37.68 32.4234 37.02 32.7034 36.84Z" fill="white"/>
<path d="M47.1859 28.44C47.5159 28.78 48.6459 28.47 49.0459 28.71C49.3359 28.88 49.5359 29.64 49.8459 29.78C50.5759 30.11 52.2959 29.82 53.0359 29.51C53.7159 29.23 55.2959 27.63 55.2959 27.63C55.2959 27.63 55.2859 27.62 55.2559 27.61C55.0859 27.57 54.9159 27.54 54.7559 27.51C52.2559 27.03 49.7759 26.97 47.3759 27.28C47.2659 27.31 47.1659 27.35 47.0559 27.39C47.0559 27.37 46.9959 28.25 47.1859 28.44Z" fill="white"/>
<path d="M45.3196 32.44C46.2096 32.16 48.3496 31.24 48.3796 30.31C48.3896 29.93 47.5496 29.48 47.1796 29.38C46.6296 29.23 45.4096 29.35 44.9196 29.65C44.5096 29.9 44.2296 30.95 43.8596 31.25C43.3596 31.65 41.9096 31.72 41.4696 32.18C41.1796 32.49 40.6196 33.5 40.9396 33.78C41.4996 34.27 42.8696 32.62 43.5996 32.45C44.0096 32.34 44.9096 32.57 45.3196 32.44Z" fill="white"/>
<path d="M56.2011 29.28C56.3311 29.84 57.861 30.36 57.791 30.94C57.741 31.36 56.551 31.48 56.381 31.86C56.251 32.16 56.7411 32.87 56.5611 33.15C56.4511 33.33 55.931 33.27 55.761 33.4C55.481 33.61 55.141 34.26 54.961 34.57C54.801 34.86 54.631 35.55 54.411 35.8C54.131 36.12 53.351 36.56 52.941 36.66C52.371 36.8 51.1611 36.35 50.6111 36.54C50.1411 36.7 49.511 37.58 49.081 37.83C48.801 37.99 48.051 38 47.851 38.26C47.641 38.54 48.061 39.45 47.791 39.67C47.481 39.93 46.751 39.64 46.411 39.86C45.991 40.13 45.4611 40.86 45.6411 41.32C45.7511 41.6 46.381 41.89 46.681 41.93C47.101 41.99 47.7411 41.73 48.0011 41.39C48.1511 41.2 48.2111 40.73 48.3411 40.52C48.6511 39.98 49.861 39.26 50.491 39.23C50.951 39.21 51.791 39.74 52.151 40.03C52.461 40.27 52.791 41.07 53.131 41.26C53.441 41.43 54.201 41.48 54.541 41.38C54.861 41.29 55.261 40.63 55.581 40.58C55.791 40.55 56.261 40.71 56.381 40.89C56.501 41.07 56.261 41.57 56.381 41.75C56.571 42.04 57.3211 42.34 57.6711 42.3C57.9311 42.27 58.2711 41.64 58.5311 41.69C58.8411 41.75 59.2111 42.42 59.2011 42.73C59.2011 43.06 58.771 43.71 58.461 43.83C58.091 43.97 57.321 43.51 56.931 43.46C56.351 43.39 55.121 43.2 54.601 43.46C54.391 43.56 54.261 44.1 54.051 44.2C53.801 44.32 53.2011 44.25 52.9511 44.14C52.5211 43.95 51.951 43.16 51.601 42.85C51.341 42.62 50.851 42.06 50.511 41.97C49.411 41.68 46.971 42.1 46.021 42.73C45.351 43.17 44.901 44.89 44.301 45.43C43.891 45.8 42.6411 45.96 42.3411 46.41C41.4811 47.69 41.251 51.13 41.851 52.54C42.191 53.34 43.721 54.49 44.551 54.75C45.311 54.99 46.981 54.77 47.741 54.5C48.161 54.36 48.771 53.54 49.211 53.52C49.841 53.49 51.2711 54.13 51.4211 54.75C51.5211 55.18 50.421 55.78 50.441 56.22C50.471 57 52.291 57.9 52.401 58.67C52.511 59.46 51.1311 60.82 51.1711 61.61C51.2511 63.01 52.541 66.08 53.871 66.52C55.281 66.99 58.321 65.21 59.271 64.07C59.761 63.49 59.571 61.75 60.011 61.13C60.261 60.77 61.2511 60.53 61.4811 60.15C62.0911 59.15 61.361 56.49 61.971 55.49C62.311 54.92 63.791 54.56 64.181 54.02C64.731 53.25 65.741 51.09 65.161 50.34C64.821 49.9 63.4311 50.61 62.9511 50.34C61.9411 49.78 59.6811 47.24 60.5011 46.41C61.1611 45.75 62.751 48.35 63.691 48.37C64.461 48.39 66.1811 47.64 66.3911 46.9C66.5411 46.37 65.811 45.17 65.291 45C64.961 44.89 64.3211 45.71 64.0011 45.55C63.3611 45.24 62.761 43.29 63.261 42.79C63.871 42.19 65.721 43.59 66.571 43.71C67.031 43.77 68.011 43.49 68.411 43.71C69.081 44.08 69.721 45.61 70.071 46.29C70.411 46.95 70.5211 48.69 71.1711 49.05C71.3211 49.13 71.7411 49.07 71.8411 48.93C72.1511 48.5 71.7311 47.33 71.5311 46.84C71.3811 46.47 70.7111 45.93 70.6111 45.55C70.3811 44.67 70.1011 42.15 70.9811 41.93C71.5211 41.79 71.6811 43.67 72.2311 43.78C72.3411 43.8 72.601 43.53 72.601 43.53C72.601 43.53 72.6011 43.51 72.5911 43.48C70.3011 36.13 64.4211 30.13 56.621 27.96C56.571 28.05 56.1211 28.95 56.2011 29.28Z" fill="white"/>
<path d="M64.4627 61.5C64.8227 61.61 64.7827 62.6 64.7327 62.97C64.6127 63.78 63.9326 65.42 63.2726 65.9C62.9526 66.14 62.0127 66.4 61.6827 66.17C61.4027 65.98 61.2626 65.14 61.4126 64.84C61.5926 64.48 62.6227 64.49 62.8727 64.17C63.0827 63.9 62.9827 63.14 63.1427 62.84C63.3527 62.42 64.0127 61.36 64.4627 61.5Z" fill="white"/>
<path d="M38.2856 34.3C38.4956 34.02 38.8756 33.48 39.1156 32.97C37.8556 33.85 36.7256 34.9 35.7656 36.09C35.9656 36.04 36.1456 35.98 36.2856 35.91C36.8656 35.62 37.9056 34.82 38.2856 34.3Z" fill="white"/>
<path d="M43.8674 31.24C43.3674 31.64 41.9174 31.71 41.4774 32.17C41.1874 32.48 40.6274 33.49 40.9474 33.77C41.5074 34.26 42.8774 32.61 43.6074 32.44C44.0274 32.34 44.9274 32.57 45.3374 32.44C46.2274 32.16 48.3674 31.24 48.3974 30.31C48.3974 30.25 48.3774 30.19 48.3374 30.12C48.3074 30.12 48.2774 30.12 48.2374 30.12C46.8774 30.12 45.5574 30.29 44.2974 30.61C44.1574 30.87 44.0174 31.11 43.8674 31.24Z" fill="white"/>
<path d="M56.5767 33.14C56.4667 33.32 55.9467 33.26 55.7767 33.39C55.4967 33.6 55.1567 34.25 54.9767 34.56C54.8167 34.85 54.6467 35.54 54.4267 35.79C54.1467 36.11 53.3667 36.55 52.9567 36.65C52.3867 36.79 51.1767 36.34 50.6267 36.53C50.1567 36.69 49.5267 37.57 49.0967 37.82C48.8167 37.98 48.0667 37.99 47.8667 38.25C47.6567 38.53 48.0767 39.44 47.8067 39.66C47.4967 39.92 46.7667 39.63 46.4267 39.85C46.0067 40.12 45.4767 40.85 45.6567 41.31C45.7667 41.59 46.3967 41.88 46.6967 41.92C47.1167 41.98 47.7567 41.72 48.0167 41.38C48.1667 41.19 48.2267 40.72 48.3567 40.51C48.6667 39.97 49.8767 39.25 50.5067 39.22C50.9667 39.2 51.8067 39.73 52.1667 40.02C52.4767 40.26 52.8067 41.06 53.1467 41.25C53.4567 41.42 54.2167 41.47 54.5567 41.37C54.8767 41.28 55.2767 40.62 55.5967 40.57C55.8067 40.54 56.2767 40.7 56.3967 40.88C56.5167 41.06 56.2767 41.56 56.3967 41.74C56.5867 42.03 57.3367 42.33 57.6867 42.29C57.9467 42.26 58.2867 41.63 58.5467 41.68C58.8567 41.74 59.2267 42.41 59.2167 42.72C59.2167 43.05 58.7867 43.7 58.4767 43.82C58.1067 43.96 57.3367 43.5 56.9467 43.45C56.3667 43.38 55.1367 43.19 54.6167 43.45C54.4067 43.55 54.2767 44.09 54.0667 44.19C53.8167 44.31 53.2167 44.24 52.9667 44.13C52.5367 43.94 51.9667 43.15 51.6167 42.84C51.3567 42.61 50.8667 42.05 50.5267 41.96C49.4267 41.67 46.9867 42.09 46.0367 42.72C45.3667 43.16 44.9167 44.88 44.3167 45.42C43.9067 45.79 42.6567 45.95 42.3567 46.4C41.4967 47.68 41.2667 51.12 41.8667 52.53C42.2067 53.33 43.7367 54.48 44.5667 54.74C45.3267 54.98 46.9967 54.76 47.7567 54.49C48.1767 54.35 48.7867 53.53 49.2267 53.51C49.8567 53.48 51.2867 54.12 51.4367 54.74C51.5367 55.17 50.4367 55.77 50.4567 56.21C50.4867 56.99 52.3067 57.89 52.4167 58.66C52.5267 59.45 51.1467 60.81 51.1867 61.6C51.1867 61.67 51.1967 61.75 51.2067 61.83C57.2367 60.7 62.0667 56.19 63.6667 50.34C63.3767 50.39 63.1167 50.41 62.9567 50.32C61.9467 49.76 59.6867 47.22 60.5067 46.39C61.1667 45.73 62.7567 48.33 63.6967 48.35C63.8067 48.35 63.9367 48.34 64.0867 48.31C64.1867 47.59 64.2367 46.85 64.2367 46.11C64.2367 45.91 64.2367 45.72 64.2267 45.52C64.1467 45.55 64.0667 45.56 64.0067 45.53C63.3667 45.22 62.7667 43.27 63.2667 42.77C63.4067 42.63 63.6167 42.6 63.8567 42.63C62.8967 38.29 60.1667 34.61 56.4667 32.39C56.5567 32.68 56.6767 32.98 56.5767 33.14Z" fill="white"/>
<path d="M32.7243 64.77C28.7443 59.9 26.8044 53.42 27.8744 46.78C27.6944 46.69 27.4744 46.61 27.3944 46.58C26.8044 50.32 27.0343 54.07 28.3143 57.83C29.6443 61.76 32.2844 65.36 33.0744 65.9C33.0644 65.9 32.8543 65.34 32.7243 64.77Z" fill="white"/>
<path d="M44.4112 28.37C44.9412 27.96 45.3312 27.64 45.3312 27.64C44.0912 27.67 39.6713 29.25 36.2812 31.82C32.9413 34.36 30.2312 38.11 29.7812 39.46C29.9213 39.36 30.3112 39.09 30.7312 38.79C33.7612 33.64 38.7112 29.92 44.4112 28.37Z" fill="white"/>
<path d="M47.0469 27.82C49.6369 27.44 52.2669 27.51 54.8669 28.04C55.1169 27.8 55.2869 27.63 55.2869 27.63C54.9469 27.41 51.9269 27.13 51.4769 27.11C50.7469 27.02 47.8669 27.1 47.0469 27.38C47.0569 27.37 47.0469 27.58 47.0469 27.82Z" fill="white"/>
<path d="M56.4141 28.4099C64.1241 30.5299 69.9241 36.4599 72.1441 43.7299C72.3241 43.8399 72.6241 43.5699 72.5941 43.4599C70.2641 35.9799 64.2941 30.0799 56.6341 27.9399C56.6041 27.9899 56.5141 28.1799 56.4141 28.4099Z" fill="white"/>
<path d="M50.71 81.71L50.7 81.2C51.2 81.19 51.71 81.18 52.21 81.15L52.24 81.66C51.73 81.69 51.22 81.7 50.71 81.71ZM49.17 81.69C48.66 81.67 48.15 81.64 47.64 81.59L47.68 81.09C48.18 81.13 48.69 81.17 49.18 81.19L49.17 81.69ZM53.76 81.53L53.7 81.03C54.2 80.97 54.7 80.91 55.19 80.83L55.27 81.33C54.78 81.4 54.27 81.47 53.76 81.53ZM46.12 81.42C45.62 81.35 45.11 81.27 44.61 81.18L44.7 80.68C45.2 80.77 45.69 80.85 46.19 80.92L46.12 81.42ZM56.79 81.04L56.69 80.54C57.18 80.44 57.67 80.32 58.16 80.19L58.29 80.68C57.79 80.82 57.29 80.94 56.79 81.04ZM43.11 80.86C42.61 80.74 42.12 80.61 41.63 80.47L41.77 79.98C42.25 80.12 42.74 80.25 43.23 80.36L43.11 80.86ZM59.75 80.27L59.6 79.79C60.08 79.64 60.56 79.47 61.03 79.3L61.21 79.77C60.72 79.95 60.24 80.11 59.75 80.27ZM40.17 80.01C39.69 79.84 39.21 79.67 38.73 79.48L38.92 79.01C39.39 79.2 39.86 79.37 40.33 79.53L40.17 80.01ZM62.62 79.21L62.42 78.75C62.88 78.55 63.34 78.34 63.79 78.12L64.01 78.58C63.56 78.8 63.09 79.01 62.62 79.21ZM37.33 78.88C36.86 78.67 36.4 78.44 35.95 78.21L36.18 77.76C36.63 77.99 37.08 78.21 37.54 78.42L37.33 78.88ZM65.37 77.87L65.13 77.42C65.57 77.18 66.01 76.93 66.43 76.67L66.69 77.1C66.27 77.37 65.82 77.63 65.37 77.87ZM34.6 77.47C34.16 77.21 33.72 76.95 33.29 76.67L33.57 76.24C33.99 76.51 34.42 76.78 34.86 77.03L34.6 77.47ZM32.03 75.8C31.62 75.5 31.21 75.19 30.81 74.87L31.13 74.47C31.52 74.78 31.92 75.09 32.33 75.38L32.03 75.8ZM29.63 73.89C29.25 73.55 28.87 73.2 28.51 72.85L28.86 72.49C29.22 72.84 29.59 73.18 29.97 73.51L29.63 73.89ZM27.44 71.76C27.09 71.39 26.75 71 26.42 70.61L26.81 70.28C27.13 70.66 27.47 71.04 27.81 71.41L27.44 71.76ZM25.46 69.42C25.15 69.01 24.85 68.6 24.56 68.18L24.98 67.89C25.27 68.3 25.56 68.71 25.87 69.11L25.46 69.42ZM23.72 66.9C23.45 66.47 23.19 66.03 22.94 65.58L23.38 65.33C23.62 65.77 23.88 66.2 24.14 66.63L23.72 66.9ZM22.23 64.22C22 63.76 21.79 63.3 21.59 62.83L22.06 62.63C22.26 63.09 22.47 63.55 22.69 64L22.23 64.22ZM21.01 61.42C20.83 60.94 20.66 60.46 20.5 59.98L20.98 59.82C21.13 60.3 21.3 60.77 21.48 61.24L21.01 61.42ZM20.07 58.5C19.94 58.01 19.82 57.51 19.71 57.01L20.2 56.9C20.31 57.39 20.43 57.88 20.56 58.36L20.07 58.5ZM19.42 55.52C19.34 55.02 19.26 54.51 19.21 54.01L19.71 53.95C19.77 54.45 19.84 54.95 19.92 55.44L19.42 55.52ZM19.07 52.48C19.04 51.97 19.01 51.46 19 50.95L19.51 50.94C19.52 51.44 19.54 51.94 19.57 52.44L19.07 52.48ZM19.52 49.44L19.01 49.42C19.03 48.91 19.05 48.4 19.09 47.89L19.59 47.93C19.56 48.43 19.53 48.93 19.52 49.44ZM19.76 46.43L19.26 46.36C19.33 45.86 19.4 45.35 19.49 44.85L19.99 44.94C19.9 45.44 19.82 45.94 19.76 46.43ZM20.29 43.46L19.8 43.35C19.91 42.85 20.04 42.35 20.18 41.87L20.67 42.01C20.52 42.48 20.4 42.97 20.29 43.46ZM21.1 40.56L20.62 40.4C20.78 39.91 20.96 39.43 21.14 38.96L21.61 39.14C21.43 39.61 21.26 40.08 21.1 40.56ZM22.19 37.75L21.73 37.54C21.94 37.07 22.16 36.61 22.39 36.16L22.84 36.39C22.61 36.84 22.4 37.29 22.19 37.75Z" fill="#FFC300"/>
<path d="M78.1781 64.81L77.7281 64.58C77.9381 64.18 78.1281 63.78 78.3181 63.37L78.7781 63.58C78.5881 63.99 78.3881 64.4 78.1781 64.81ZM79.3881 62.17L78.9181 61.98C79.1081 61.52 79.2881 61.05 79.4481 60.57L79.9281 60.74C79.7681 61.22 79.5881 61.7 79.3881 62.17ZM80.4081 59.28L79.9181 59.14C80.0581 58.66 80.1881 58.18 80.3081 57.68L80.7981 57.8C80.6781 58.3 80.5481 58.79 80.4081 59.28ZM81.1281 56.27L80.6281 56.22C80.7281 55.69 80.8081 55.2 80.8781 54.72L81.3781 54.79C81.3081 55.28 81.2281 55.78 81.1281 56.27ZM81.5681 53.27L81.0681 53.22C81.1181 52.72 81.1481 52.22 81.1781 51.72L81.6881 51.74C81.6481 52.25 81.6081 52.76 81.5681 53.27ZM81.1981 50.21C81.1981 49.71 81.1781 49.2 81.1581 48.7L81.6681 48.67C81.6981 49.18 81.7081 49.69 81.7081 50.2L81.1981 50.21ZM81.0381 47.2C80.9881 46.7 80.9281 46.2 80.8481 45.71L81.3481 45.63C81.4281 46.13 81.4881 46.64 81.5381 47.15L81.0381 47.2ZM80.5881 44.23C80.4881 43.74 80.3781 43.25 80.2481 42.76L80.7381 42.64C80.8681 43.13 80.9781 43.63 81.0781 44.13L80.5881 44.23ZM79.8381 41.31C79.6881 40.83 79.5281 40.35 79.3581 39.88L79.8381 39.71C80.0081 40.19 80.1681 40.67 80.3281 41.16L79.8381 41.31ZM78.8181 38.48C78.6281 38.02 78.4181 37.56 78.1981 37.1L78.6581 36.88C78.8781 37.34 79.0881 37.81 79.2881 38.28L78.8181 38.48ZM77.5181 35.77C77.2781 35.33 77.0281 34.89 76.7681 34.46L77.1981 34.2C77.4581 34.64 77.7181 35.08 77.9581 35.53L77.5181 35.77ZM75.9681 33.19C75.6881 32.77 75.3981 32.36 75.0981 31.96L75.5081 31.66C75.8081 32.07 76.1081 32.49 76.3881 32.91L75.9681 33.19ZM74.1681 30.77C73.8481 30.38 73.5181 30 73.1781 29.63L73.5581 29.29C73.8981 29.67 74.2381 30.06 74.5581 30.45L74.1681 30.77ZM72.1481 28.53C71.7981 28.17 71.4281 27.83 71.0581 27.49L71.3981 27.11C71.7781 27.45 72.1481 27.81 72.5081 28.17L72.1481 28.53ZM69.9081 26.51C69.5181 26.19 69.1281 25.88 68.7181 25.58L69.0181 25.17C69.4281 25.48 69.8281 25.79 70.2281 26.11L69.9081 26.51ZM67.4981 24.71C67.0781 24.43 66.6581 24.16 66.2181 23.9L66.4781 23.47C66.9181 23.73 67.3481 24.01 67.7781 24.29L67.4981 24.71ZM64.9081 23.16C64.4681 22.92 64.0181 22.7 63.5681 22.48L63.7881 22.02C64.2481 22.24 64.7081 22.47 65.1581 22.71L64.9081 23.16ZM37.2981 22.41L37.0781 21.95C37.5381 21.73 38.0081 21.53 38.4781 21.34L38.6681 21.81C38.2181 21.99 37.7581 22.2 37.2981 22.41ZM62.1781 21.87C61.7181 21.68 61.2481 21.5 60.7681 21.33L60.9381 20.85C61.4181 21.02 61.8981 21.21 62.3681 21.4L62.1781 21.87ZM40.0881 21.27L39.9181 20.79C40.3981 20.62 40.8881 20.46 41.3781 20.32L41.5181 20.8C41.0381 20.94 40.5581 21.1 40.0881 21.27ZM59.3481 20.85C58.8681 20.7 58.3881 20.57 57.8981 20.45L58.0181 19.96C58.5181 20.09 59.0081 20.22 59.4981 20.37L59.3481 20.85ZM42.9681 20.4L42.8481 19.91C43.3381 19.79 43.8381 19.68 44.3481 19.58L44.4481 20.08C43.9481 20.17 43.4581 20.28 42.9681 20.4ZM56.4281 20.12L56.1781 20.07C55.7681 19.99 55.3581 19.92 54.9481 19.86L55.0281 19.36C55.4481 19.42 55.8581 19.49 56.2781 19.57L56.5381 19.62L56.4281 20.12ZM45.9281 19.82L45.8581 19.32C46.3581 19.25 46.8681 19.19 47.3781 19.14L47.4281 19.64C46.9281 19.69 46.4281 19.75 45.9281 19.82ZM53.4481 19.67C52.9481 19.62 52.4481 19.58 51.9481 19.55L51.9781 19.04C52.4881 19.07 52.9981 19.11 53.5081 19.16L53.4481 19.67ZM48.9281 19.54L48.9081 19.03C49.3781 19.01 49.8481 19 50.3181 19H50.4381V19.51H50.3181C49.8481 19.51 49.3881 19.52 48.9281 19.54Z" fill="#FFC300"/>
<path d="M36.3297 26.97C36.3297 30.53 33.4397 33.42 29.8797 33.42C26.3197 33.42 23.4297 30.53 23.4297 26.97C23.4297 23.41 26.3197 20.52 29.8797 20.52C33.4397 20.52 36.3297 23.4 36.3297 26.97Z" fill="#FFC300"/>
<path d="M30.8627 28.63C30.8627 28.37 30.7927 28.17 30.6427 28.01C30.4927 27.85 30.2327 27.7 29.8527 27.56C29.1427 27.32 28.6127 27.04 28.2727 26.73C27.9327 26.41 27.7627 25.97 27.7627 25.39C27.7627 24.86 27.9327 24.42 28.2727 24.09C28.6127 23.75 29.0827 23.55 29.6727 23.49V22.48H30.4227V23.5C30.9927 23.58 31.4327 23.8 31.7527 24.16C32.0727 24.52 32.2327 24.99 32.2227 25.58L32.2127 25.6H30.8727C30.8727 25.26 30.7927 24.99 30.6427 24.81C30.4827 24.62 30.2727 24.53 29.9927 24.53C29.6927 24.53 29.4827 24.61 29.3527 24.76C29.2227 24.91 29.1527 25.12 29.1527 25.38C29.1527 25.62 29.2227 25.82 29.3627 25.96C29.5027 26.1 29.7727 26.26 30.1627 26.43C30.8627 26.66 31.3827 26.93 31.7227 27.26C32.0727 27.59 32.2427 28.04 32.2427 28.61C32.2427 29.16 32.0727 29.59 31.7327 29.92C31.3927 30.25 30.9227 30.44 30.3327 30.5V31.43H29.5827V30.5C28.9827 30.45 28.4827 30.25 28.0927 29.9C27.7027 29.55 27.5127 29.04 27.5327 28.37L27.5427 28.34H28.8827C28.8827 28.74 28.9827 29.03 29.1727 29.2C29.3727 29.37 29.6227 29.46 29.9427 29.46C30.2527 29.46 30.4827 29.38 30.6327 29.23C30.7827 29.1 30.8627 28.89 30.8627 28.63Z" fill="white"/>
<path d="M29.8759 32.75C26.6859 32.75 24.0859 30.15 24.0859 26.96C24.0859 23.77 26.6859 21.17 29.8759 21.17C33.0659 21.17 35.6659 23.77 35.6659 26.96C35.6659 30.16 33.0659 32.75 29.8759 32.75ZM29.8759 21.38C26.7959 21.38 24.2859 23.89 24.2859 26.97C24.2859 30.05 26.7959 32.56 29.8759 32.56C32.9559 32.56 35.4659 30.05 35.4659 26.97C35.4559 23.89 32.9559 21.38 29.8759 21.38Z" fill="white"/>
<path d="M77.7519 72.67C77.7519 75.73 75.2719 78.21 72.2119 78.21C69.1519 78.21 66.6719 75.73 66.6719 72.67C66.6719 69.61 69.1519 67.13 72.2119 67.13C75.2719 67.13 77.7519 69.61 77.7519 72.67Z" fill="#FFC300"/>
<path d="M73.0658 74.1C73.0658 73.88 73.0058 73.7 72.8758 73.57C72.7458 73.44 72.5258 73.31 72.1958 73.18C71.5858 72.97 71.1358 72.73 70.8358 72.46C70.5458 72.19 70.3958 71.8 70.3958 71.31C70.3958 70.85 70.5458 70.48 70.8358 70.19C71.1258 69.9 71.5258 69.73 72.0358 69.68V68.81H72.6758V69.69C73.1658 69.76 73.5458 69.95 73.8158 70.26C74.0958 70.57 74.2258 70.98 74.2158 71.48L74.2058 71.5H73.0558C73.0558 71.21 72.9858 70.98 72.8558 70.82C72.7258 70.66 72.5358 70.58 72.2958 70.58C72.0458 70.58 71.8558 70.65 71.7458 70.78C71.6358 70.91 71.5758 71.09 71.5758 71.31C71.5758 71.52 71.6358 71.69 71.7558 71.81C71.8758 71.93 72.1058 72.07 72.4458 72.21C73.0458 72.41 73.4958 72.64 73.7858 72.92C74.0858 73.2 74.2358 73.59 74.2358 74.08C74.2358 74.55 74.0858 74.93 73.7958 75.21C73.5058 75.49 73.1058 75.66 72.5958 75.71V76.51H71.9558V75.71C71.4358 75.66 71.0158 75.49 70.6758 75.19C70.3458 74.89 70.1858 74.45 70.1958 73.88L70.2058 73.86H71.3558C71.3558 74.2 71.4358 74.45 71.6058 74.6C71.7758 74.75 71.9958 74.82 72.2658 74.82C72.5358 74.82 72.7258 74.76 72.8658 74.63C72.9958 74.5 73.0658 74.33 73.0658 74.1Z" fill="white"/>
<path d="M72.2088 77.66C69.4588 77.66 67.2188 75.42 67.2188 72.67C67.2188 69.92 69.4588 67.68 72.2088 67.68C74.9588 67.68 77.1988 69.92 77.1988 72.67C77.1988 75.42 74.9588 77.66 72.2088 77.66ZM72.2088 67.89C69.5688 67.89 67.4288 70.04 67.4288 72.67C67.4288 75.3 69.5788 77.45 72.2088 77.45C74.8488 77.45 76.9888 75.3 76.9888 72.67C76.9888 70.04 74.8488 67.89 72.2088 67.89Z" fill="white"/>
<path d="M24.5325 36.92L24.1225 33.67L21.2525 34.83L21.0625 34.36L24.5325 32.95L25.0425 36.86L24.5325 36.92Z" fill="#FFC300"/>
<path d="M76.3825 67.12L76.0625 63.2L76.5625 63.16L76.8425 66.43L79.7525 65.4L79.9225 65.87L76.3825 67.12Z" fill="#FFC300"/>
</svg>
