<svg width="101" height="100" viewBox="0 0 101 100" fill="none" xmlns="http://www.w3.org/2000/svg">
<g clip-path="url(#clip0_671_6526)">
<path d="M44.1671 48.0645C44.7838 48.1774 46.019 46.8421 47.6428 42.294L49.9154 38.4113L61.4917 28.6621L57.3547 25.2384C56.5821 25.8558 55.8044 26.4911 55.0203 27.1148L45.9839 36.7355C43.9896 42.7461 41.8125 47.6267 44.1671 48.0645Z" fill="#F7CEA8"/>
<path d="M41.6117 49.7784C42.2284 49.8913 43.4635 48.556 45.0873 44.0079L47.3599 40.1252L58.9362 30.376L54.7992 26.9523C54.0267 27.5697 53.2489 28.205 52.4532 28.835L43.4106 38.4441C41.4457 44.4537 39.2571 49.3406 41.6117 49.7784Z" fill="#F7CEA8"/>
<path d="M50.6377 35.2864C48.1701 35.3004 51.5282 29.5342 56.4379 27.2099C61.3477 24.8857 71.0049 29.2967 68.6525 30.0427C66.632 30.6823 53.6998 35.2624 50.6377 35.2864Z" fill="#EFC498"/>
<path d="M37.9469 51.4497C38.612 51.5961 39.7089 50.8314 40.4234 49.9157C41.3572 48.7151 42.5316 46.528 44.4987 41.7022L57.5429 31.3455L53.2416 27.4566C52.3756 28.0951 51.5096 28.7335 50.632 29.3783L40.4289 39.3069C38.0127 45.6983 35.4335 50.8586 37.9469 51.4497Z" fill="#EFC498"/>
<path d="M86.3654 9.78388C84.5185 11.7837 81.6775 14.462 81.6775 14.462C75.2731 16.9884 62.8057 18.8241 62.8057 18.8241C59.0195 19.664 53.896 23.7101 48.7041 27.4938L38.5009 37.4223C36.0847 43.8137 33.494 48.9804 36.0189 49.5651C36.684 49.7116 37.781 48.9468 38.4955 48.0311C39.4293 46.8306 41.179 44.2688 43.146 39.4431L55.6658 33.0934C57.941 32.9746 65.1418 29.5178 68.334 32.5579C68.395 32.6146 69.2426 33.5613 63.8138 36.8294C61.4453 38.2593 57.2191 41.3949 56.1543 42.8771C52.5423 47.8221 54.7277 49.2675 56.2859 49.6757C56.9279 49.8347 58.041 49.3462 58.3097 49.1243C62.7842 45.3729 64.0567 43.6121 67.4779 41.1717C69.3213 39.8788 75.5825 36.9808 77.4827 35.7919C79.8375 34.3095 80.5632 33.0576 82.247 30.787C84.0441 28.3943 85.6552 25.9084 88.0243 24.0131C89.2545 23.0255 94.5327 18.2197 94.5327 18.2197C94.5264 18.2082 86.3654 9.78388 86.3654 9.78388Z" fill="#FFDAB8"/>
<path d="M60.0976 46.738C60.0976 46.738 57.7694 49.586 56.1025 48.7872C54.2381 47.9013 56.4622 44.9452 56.943 44.5624C56.943 44.5624 58.9798 43.4038 60.0976 46.738Z" fill="#FAECD0"/>
<path d="M36.7135 44.9865C36.7135 44.9865 36.4891 47.5395 35.856 47.9456C35.4361 48.2201 34.9604 48.4202 34.9442 47.979C34.8937 46.7615 35.606 44.662 35.8597 44.1932C35.8713 44.1869 36.7102 43.7732 36.7135 44.9865Z" fill="#FAECD0"/>
<path d="M63.3229 48.7401C62.6525 48.6115 61.3041 50.0689 59.5304 55.0288L57.047 59.2668L44.4369 69.8962L48.9387 73.6305C49.7795 72.9458 50.6381 72.2664 51.4904 71.5754L61.3495 61.0999C63.506 54.5354 65.8907 49.2114 63.3229 48.7401Z" fill="#F7CEA8"/>
<path d="M66.1119 46.8709C65.43 46.7486 64.0931 48.1996 62.3195 53.1596L59.836 57.3975L47.2259 68.027L51.7393 71.755C52.5864 71.0818 53.4387 70.3908 54.291 69.6998L64.15 59.2243C66.3014 52.6777 68.6797 47.3421 66.1119 46.8709Z" fill="#F7CEA8"/>
<path d="M56.2598 62.6649C58.9511 62.6486 55.2942 68.9383 49.9381 71.4615C44.5821 73.9847 34.0621 69.1753 36.6245 68.3745C38.8372 67.6748 52.9382 62.6808 56.2598 62.6649Z" fill="#EFC498"/>
<path d="M70.0916 45.052C69.3666 44.8783 68.1667 45.7294 67.4019 46.7176C66.3779 48.0274 65.1102 50.4007 62.9649 55.6688L48.7472 66.9522L53.4322 71.1863C54.3728 70.4921 55.3249 69.7915 56.2833 69.1025L67.4079 58.2802C70.021 51.3161 72.8423 45.6933 70.0916 45.052Z" fill="#EFC498"/>
<path d="M72.2079 47.1066C71.4829 46.9329 70.283 47.7839 69.5119 48.7605C68.4879 50.0704 66.5819 52.8676 64.4482 58.1294L50.8008 65.0507C48.3197 65.1771 40.4826 68.9517 36.9855 65.6282C36.9182 65.56 35.997 64.5335 41.9098 60.9708C44.4914 59.4094 49.1018 55.9888 50.2505 54.3857C54.194 49.0044 51.8152 47.4247 50.1025 46.981C49.4069 46.8062 48.1952 47.3337 47.8982 47.5861C43.0237 51.6762 41.6389 53.5884 37.9018 56.2466C35.8978 57.6572 29.0749 60.8174 26.9899 62.1073C24.422 63.7212 23.6418 65.0928 21.8058 67.5517C19.8461 70.1682 18.0839 72.8718 15.5028 74.928C14.0784 76.0818 11.6925 78.0012 9.29923 79.8797L17.2514 89.6782C19.8897 86.9307 22.4356 85.3588 22.4356 85.3588C29.4091 82.6113 43.0015 80.6106 43.0015 80.6106C47.1321 79.6874 52.708 75.2889 58.3702 71.1581L69.4948 60.3358C72.131 53.3591 74.9524 47.7363 72.2079 47.1066Z" fill="#FFDAB8"/>
<path d="M45.9599 50.1898C45.9599 50.1898 48.4906 47.0811 50.313 47.9449C52.3571 48.9125 49.9305 52.1294 49.392 52.5438C49.3983 52.5553 47.1767 53.8149 45.9599 50.1898Z" fill="#FAECD0"/>
<path d="M71.4393 52.1001C71.4393 52.1001 71.6908 49.3224 72.3753 48.8732C72.8414 48.5734 73.3402 48.3607 73.3638 48.8428C73.4123 50.1664 72.6424 52.4625 72.3667 52.9733C72.3719 52.9554 71.4521 53.4132 71.4393 52.1001Z" fill="#FAECD0"/>
</g>
<defs>
<clipPath id="clip0_671_6526">
<rect x="0.5" width="100" height="100" rx="50" fill="white"/>
</clipPath>
</defs>
</svg>
