<svg width="101" height="100" viewBox="0 0 101 100" fill="none" xmlns="http://www.w3.org/2000/svg">
<g clip-path="url(#clip0_671_6555)">
<path d="M40.5609 68.1511H27.4609V83.0811H40.5609V68.1511Z" fill="#FFDAB8"/>
<path opacity="0.2" d="M40.5631 68.1511V69.8711C40.3131 70.0611 40.0231 70.2611 39.7331 70.4611C39.6231 70.5411 39.5131 70.6111 39.4131 70.6811C37.8931 71.7111 36.2731 72.6911 36.2731 72.6911C35.0731 73.3811 33.1431 73.3811 31.9431 72.6911C31.9431 72.6911 29.9731 71.4911 28.3331 70.3511C28.0231 70.1311 27.7331 69.9211 27.4531 69.7211V68.1511H40.5631Z" fill="black"/>
<path d="M43.4913 54.4812C43.4913 59.0012 43.4113 64.1411 43.2113 65.0911C43.0513 65.8811 42.1712 67.3311 41.5912 67.9011C41.3512 68.1311 40.9913 68.4211 40.5613 68.7511C40.2713 68.9611 39.9513 69.1812 39.6313 69.4111C39.5113 69.4911 39.3812 69.5812 39.2512 69.6712C37.7512 70.6712 36.1713 71.6412 36.1713 71.6412C34.9813 72.3312 33.0513 72.3312 31.8513 71.6412C31.8513 71.6412 29.8713 70.4312 28.2413 69.2912C27.9713 69.1012 27.7113 68.9111 27.4613 68.7411C27.0413 68.4211 26.6712 68.1311 26.4312 67.9011C25.8512 67.3311 24.9813 65.8811 24.8113 65.0911C24.6113 64.1411 24.5312 59.0111 24.5312 54.4911C24.5312 51.5311 24.5713 48.8312 24.6213 47.7612C24.7113 46.0312 25.8313 43.8011 27.1013 43.5111C27.2913 43.4711 27.4713 43.4311 27.6413 43.3911C28.6513 43.1711 29.4013 43.0011 29.4013 43.0011C29.4813 42.9811 29.5712 42.9611 29.6612 42.9511C32.1812 42.4511 36.0512 42.4611 38.5012 42.9811C38.5412 42.9911 38.5713 43.0011 38.6013 43.0011C39.4413 43.1811 40.2312 43.3611 40.9112 43.5011C41.8012 43.7011 42.6113 44.8511 43.0513 46.1211C43.2413 46.6711 43.3613 47.2411 43.3913 47.7511C43.4113 48.1411 43.4313 48.7611 43.4413 49.5211C43.4813 50.8511 43.4913 52.6112 43.4913 54.4812Z" fill="#FFDAB8"/>
<path d="M40.8553 54.6011H36.3153C35.6953 54.6011 35.1953 55.1011 35.1953 55.7211V58.2911C35.1953 58.9111 35.6953 59.4111 36.3153 59.4111H40.8553C41.4753 59.4111 41.9753 58.9111 41.9753 58.2911V55.7211C41.9653 55.1011 41.4653 54.6011 40.8553 54.6011ZM40.9653 58.2911C40.9653 58.3511 40.9153 58.4111 40.8453 58.4111H36.3053C36.2453 58.4111 36.1953 58.3611 36.1953 58.2911V55.7211C36.1953 55.6611 36.2453 55.6011 36.3053 55.6011H40.8453C40.9053 55.6011 40.9653 55.6511 40.9653 55.7211V58.2911Z" fill="#295C6F"/>
<path d="M31.7225 54.6011H27.1825C26.5625 54.6011 26.0625 55.1011 26.0625 55.7211V58.2911C26.0625 58.9111 26.5625 59.4111 27.1825 59.4111H31.7225C32.3425 59.4111 32.8425 58.9111 32.8425 58.2911V55.7211C32.8325 55.1011 32.3325 54.6011 31.7225 54.6011ZM31.8225 58.2911C31.8225 58.3511 31.7725 58.4111 31.7125 58.4111H27.1725C27.1125 58.4111 27.0625 58.3611 27.0625 58.2911V55.7211C27.0625 55.6611 27.1125 55.6011 27.1725 55.6011H31.7125C31.7725 55.6011 31.8225 55.6511 31.8225 55.7211V58.2911Z" fill="#295C6F"/>
<path d="M35.6881 56.3311H32.3281V57.6711H35.6881V56.3311Z" fill="#295C6F"/>
<path d="M44.9956 78.5811V95.9811H23.0156V78.5811H34.0156C34.0156 78.5811 34.0156 78.5811 34.0256 78.5811H44.9956Z" fill="#F0F0F0"/>
<path d="M36.74 95.9809H31.25L31.4 94.7209L31.41 94.6109L31.69 92.1709L31.74 91.7609L32.73 83.0809L32.75 82.9409H35.25L35.26 83.0809L36.28 92.0209L36.33 92.4209L36.6 94.7409V94.8209L36.74 95.9809Z" fill="#1DA8B5"/>
<path d="M35.2678 82.9411H32.7478L31.2578 78.5211L34.0178 78.5811L36.7578 78.5211L35.2678 82.9411Z" fill="#0B929F"/>
<path d="M33.98 95.801C34.03 95.861 34.08 95.921 34.12 95.981H11.5V81.291C11.5 79.441 12.93 77.4811 14.68 76.8911L19.52 74.991L20.87 74.541L23.67 73.951L23.68 73.941L23.91 73.8911L25.39 73.571H25.4L25.44 73.681V73.691L26.09 75.361V75.381L26.1 75.3911L26.21 75.6411L26.5 76.371V76.381L26.92 77.461C26.92 77.481 26.92 77.481 26.92 77.481C26.95 77.841 26.99 78.211 27.04 78.581C27.14 79.271 27.28 79.981 27.47 80.721C27.57 81.141 27.69 81.571 27.84 82.011C27.84 82.031 27.84 82.031 27.85 82.051C27.94 82.311 28.02 82.561 28.1 82.831V82.841C28.13 82.921 28.15 82.991 28.18 83.081C28.23 83.241 28.3 83.411 28.35 83.581C29.36 86.501 30.61 89.421 31.74 91.751C32.62 93.551 33.41 94.991 33.98 95.801Z" fill="#007090"/>
<path d="M56.5294 81.291V95.981H34.1094C34.1594 95.931 34.1894 95.861 34.2494 95.801C34.6494 95.221 35.1594 94.311 35.7194 93.181C35.7994 93.001 35.8994 92.821 35.9894 92.621C36.0794 92.431 36.1794 92.231 36.2794 92.021C36.2794 92.021 36.2794 92.021 36.2794 92.011C36.9894 90.511 37.7494 88.721 38.4794 86.851C38.6094 86.511 38.7394 86.171 38.8694 85.831C39.1594 85.081 39.4294 84.331 39.6794 83.571C39.7294 83.401 39.7994 83.231 39.8594 83.071C39.8794 82.981 39.9094 82.911 39.9394 82.831V82.821C40.0294 82.551 40.1094 82.301 40.1894 82.041C40.3394 81.581 40.4594 81.151 40.5694 80.711C40.6194 80.531 40.6594 80.341 40.6994 80.161C40.7494 79.971 40.7794 79.801 40.8194 79.621C40.8594 79.441 40.8894 79.271 40.9194 79.091C40.9494 78.911 40.9794 78.731 40.9994 78.561C41.0394 78.251 41.0794 77.951 41.0994 77.651C41.1194 77.371 41.1494 77.101 41.1494 76.831L41.4994 75.901L41.7494 75.411L41.7794 75.341L41.9194 75.051V75.041L41.9694 74.941L42.6494 73.561L44.1194 73.871L44.3594 73.9211L47.1694 74.521L48.5094 74.971L50.0594 75.581L53.3494 76.871C53.3994 76.891 53.4694 76.911 53.5194 76.931C53.6594 76.981 53.7994 77.041 53.9394 77.131C54.5694 77.451 55.1394 77.961 55.5694 78.561C56.1594 79.391 56.5294 80.351 56.5294 81.291Z" fill="#007090"/>
<path d="M28.2364 42.3711C24.4264 46.7511 36.3564 53.7311 42.1264 50.7611C44.9764 49.2911 44.5664 44.5711 41.9664 42.8711C39.1064 41.0011 30.2564 40.0411 28.2364 42.3711Z" fill="#424B4E"/>
<path d="M28.243 42.3712C23.653 43.2912 23.383 48.6212 24.423 54.8712C25.563 51.1912 26.623 47.4612 28.243 46.6012C30.023 45.6512 30.623 41.8912 28.243 42.3712Z" fill="#424B4E"/>
<path d="M43.6088 54.8712C43.5688 54.7412 43.5288 54.6212 43.4888 54.4912C43.0988 53.1912 42.7388 51.8512 42.3688 50.6312C41.9588 49.2912 41.5388 48.0912 41.0288 47.2612C40.7388 46.7812 40.4088 46.4313 40.0488 46.2313C38.9888 45.6713 38.3488 44.0712 38.5088 42.9912C38.6188 42.2712 39.0688 41.7912 39.9788 41.9912C39.9988 41.9912 40.0288 42.0012 40.0488 42.0112C42.1888 42.5512 43.3688 43.8412 43.9188 45.7012C44.5888 47.9812 44.2888 51.1412 43.6088 54.8712Z" fill="#424B4E"/>
<path opacity="0.3" d="M41.9844 76.9711C42.0944 79.0311 41.6444 81.1911 40.6944 82.9211C40.5044 83.3011 40.2744 83.6611 40.0144 83.9911C39.9244 83.8611 39.8144 83.7211 39.6844 83.5811C39.4844 83.3411 39.2544 83.0711 38.9744 82.7911C37.3244 81.0711 34.7044 79.0011 34.4944 78.8411C34.4844 78.8411 34.4844 78.8411 34.4844 78.8311C38.2944 77.9311 40.0144 76.0011 40.5644 72.3711C40.6944 72.5411 40.7944 72.7211 40.9044 72.9111C41.3144 73.6411 41.6144 74.4711 41.7844 75.3511C41.8944 75.8811 41.9544 76.4211 41.9844 76.9711Z" fill="black"/>
<path d="M41.9812 77.231C41.9512 77.691 41.9012 78.131 41.8212 78.581C41.7412 79.081 41.6113 79.571 41.4613 80.041V80.051C41.2413 80.771 40.9412 81.461 40.5612 82.091C40.3912 82.381 40.2112 82.671 40.0112 82.931C39.9912 82.901 39.9612 82.871 39.9312 82.841V82.831C39.2212 81.891 37.6312 80.771 36.2912 79.911C35.5712 79.451 34.9012 79.071 34.4912 78.841L34.4812 78.831C34.4612 78.821 34.4412 78.811 34.4312 78.801C34.2112 78.681 34.0712 78.601 34.0312 78.581C37.3812 77.781 39.4713 75.571 40.3013 72.561C40.4113 72.161 40.5012 71.741 40.5612 71.311C40.5612 71.321 40.5712 71.321 40.5712 71.321C40.5812 71.331 40.5912 71.341 40.5912 71.351V71.361C41.1912 72.221 41.5912 73.261 41.8112 74.371V74.381C41.8612 74.601 41.8912 74.841 41.9212 75.071V75.081C41.9412 75.161 41.9412 75.241 41.9412 75.331C42.0012 75.951 42.0212 76.591 41.9812 77.231Z" fill="#E6E6E6"/>
<path opacity="0.3" d="M44.9972 82.3913C45.5872 82.6813 47.2772 83.5513 48.2172 84.1013C47.5372 85.2813 46.4672 86.8013 44.9972 88.3913C44.5672 88.8613 44.1072 89.3413 43.5972 89.8213C41.7372 91.6013 39.4072 93.3913 36.6072 94.8313C35.8172 95.2513 34.9872 95.6313 34.1172 95.9913C34.1672 95.9413 34.1972 95.8713 34.2572 95.8113C34.7572 95.1113 35.5072 93.9213 36.3272 92.4413C36.3272 92.4413 36.3272 92.4413 36.3272 92.4313C37.7872 89.8413 39.5072 86.3513 40.6872 82.9313C40.7872 82.6413 40.8872 82.3413 40.9772 82.0613C41.1972 81.3713 41.3472 80.7113 41.4572 80.0613V80.0513C41.5372 79.5513 41.5872 79.0613 41.6072 78.5913C41.6472 77.6713 41.5972 76.7913 41.4872 75.9313L41.7272 75.4413H41.7372L41.7672 75.3713L41.9072 75.0813V75.0713L41.9572 74.9713L42.6372 73.5913L44.1072 73.9013L44.3472 73.9513C45.2072 74.8713 45.9672 75.9213 46.5772 76.9613C47.5272 78.5513 48.1172 80.1113 48.2172 81.1213C47.2772 81.3013 45.5872 81.9513 44.9972 82.1813C44.8672 82.2313 44.7872 82.2613 44.7872 82.2613C44.7872 82.2613 44.8672 82.3213 44.9972 82.3913Z" fill="black"/>
<path d="M44.9972 82.7913C45.7572 83.1813 46.7672 83.7112 47.4172 84.0912C46.8372 85.1112 46.0472 86.3313 44.9972 87.6413C44.5772 88.1613 44.1072 88.7113 43.5972 89.2613C41.8372 91.1313 39.5472 93.0713 36.5972 94.7313C35.8172 95.1613 34.9872 95.5813 34.1172 95.9713C34.1672 95.9213 34.1972 95.8513 34.2572 95.7913C34.6572 95.2113 35.1672 94.3013 35.7272 93.1713C35.8072 92.9913 35.9072 92.8112 35.9972 92.6112C36.0872 92.4212 36.1872 92.2213 36.2872 92.0113C36.2872 92.0113 36.2872 92.0113 36.2872 92.0013C36.9972 90.5013 37.7572 88.7112 38.4872 86.8412C38.6172 86.5012 38.7472 86.1613 38.8772 85.8213C39.1672 85.0713 39.4372 84.3212 39.6872 83.5612C39.7372 83.3912 39.8072 83.2212 39.8672 83.0612C39.8872 82.9712 39.9172 82.9013 39.9472 82.8213V82.8112C40.0372 82.5412 40.1172 82.2913 40.1972 82.0312C40.3472 81.5712 40.4672 81.1413 40.5772 80.7013C40.6272 80.5213 40.6672 80.3312 40.7072 80.1512C40.7572 79.9612 40.7872 79.7912 40.8272 79.6112C40.8672 79.4312 40.8972 79.2612 40.9272 79.0812C40.9572 78.9012 40.9872 78.7212 41.0072 78.5512C41.0472 78.2412 41.0872 77.9413 41.1072 77.6413C41.1272 77.3613 41.1572 77.0913 41.1572 76.8213C41.1772 76.4613 41.1772 76.1012 41.1672 75.7412C41.1572 74.9912 41.1072 74.2613 41.0072 73.5312V73.5212C40.9772 73.3112 40.9472 73.1013 40.9072 72.8813C40.8272 72.3713 40.7272 71.8512 40.5972 71.3312V71.3213C40.5972 71.3113 40.5872 71.3012 40.5872 71.2812C41.9572 71.7212 43.1372 72.6912 44.1272 73.8612C44.9672 74.8512 45.6572 76.0012 46.1972 77.1212C46.9272 78.6512 47.3572 80.1312 47.4372 81.0912C46.7872 81.2212 45.7772 81.5813 45.0172 81.8513C44.4472 82.0613 44.0172 82.2412 44.0172 82.2412C44.0172 82.2412 44.4272 82.4913 44.9972 82.7913Z" fill="#295C6F"/>
<path opacity="0.3" d="M33.5397 78.8411C33.5397 78.8511 33.5397 78.8511 33.5297 78.8511C33.3297 79.0111 30.6697 81.1211 28.9997 82.8511C28.7497 83.1011 28.5197 83.3511 28.3397 83.5811C28.2097 83.7311 28.1097 83.8711 28.0097 83.9911C27.7597 83.6611 27.5197 83.3011 27.3297 82.9211C26.3797 81.1911 25.9297 79.0311 26.0397 76.9711C26.0497 76.5211 26.0997 76.0811 26.1897 75.6411C26.1997 75.5411 26.2197 75.4511 26.2397 75.3511C26.4097 74.4711 26.7097 73.6411 27.1197 72.9111C27.2297 72.7211 27.3297 72.5411 27.4597 72.3711C28.0197 76.0111 29.7297 77.9411 33.5397 78.8411Z" fill="black"/>
<path d="M27.4726 71.311C28.0126 74.941 30.2026 77.671 34.0126 78.581C34.0126 78.581 29.2926 81.121 28.0126 82.931C25.6526 79.861 25.2926 74.401 27.4726 71.311Z" fill="#E6E6E6"/>
<path opacity="0.3" d="M34.1091 95.9811C26.5891 92.9411 21.6291 87.3011 19.7891 84.1011C20.9391 83.4211 23.2191 82.2811 23.2191 82.2811C23.2191 82.2811 20.9391 81.3711 19.7891 81.1311C19.9491 79.4611 21.4691 76.3011 23.6491 73.9611L23.6591 73.9511L23.8891 73.9011L25.3591 73.5911L25.4091 73.7011V73.7111L26.0891 75.0811L26.2291 75.3711L26.5091 75.9311C26.4891 76.0811 26.4791 76.2411 26.4691 76.3911C26.4691 76.3911 26.4591 76.3911 26.4691 76.4011C26.3391 77.5611 26.3491 78.7711 26.5591 80.0611C26.6691 80.7111 26.8091 81.3811 27.0391 82.0711C27.1391 82.3611 27.2291 82.6511 27.3391 82.9411C29.2191 88.3211 32.5891 93.8911 33.9791 95.8211C34.0291 95.8611 34.0691 95.9311 34.1091 95.9811Z" fill="black"/>
<path d="M34.1059 95.9811C26.5759 92.6211 22.4059 87.3011 20.5859 84.1011C21.7359 83.4211 24.0159 82.2811 24.0159 82.2811C24.0159 82.2811 21.7359 81.3711 20.5859 81.1311C20.7459 79.4611 21.9159 76.2611 23.8959 73.9111V73.9011C24.8859 72.7311 26.0659 71.7711 27.4359 71.3211C27.4359 71.3411 27.4259 71.3511 27.4259 71.3711C27.2959 71.8911 27.2059 72.4111 27.1159 72.9211C26.8659 74.4111 26.7659 75.8911 26.8959 77.4711C26.8959 77.4811 26.8959 77.4811 26.8959 77.4811C27.0159 78.9111 27.3059 80.4111 27.8259 82.0511C27.9159 82.3211 27.9959 82.5711 28.0759 82.8311C28.1659 83.0711 28.2459 83.3311 28.3259 83.5711C30.1159 88.7411 32.6659 93.9311 33.9559 95.7911C34.0259 95.8611 34.0659 95.9311 34.1059 95.9811Z" fill="#295C6F"/>
<path d="M72.6547 68.1511H59.5547V83.0811H72.6547V68.1511Z" fill="#FFDAB8"/>
<path opacity="0.2" d="M72.6547 68.1511V69.8711C72.4047 70.0611 72.1147 70.2611 71.8247 70.4611C70.2247 71.5611 68.3747 72.7011 68.3747 72.7011C67.1747 73.3911 65.2447 73.3911 64.0447 72.7011C64.0447 72.7011 62.3047 71.6411 60.7447 70.5711C60.6447 70.5011 60.5447 70.4311 60.4447 70.3611C60.1347 70.1411 59.8347 69.9311 59.5547 69.7311V68.1611H72.6547V68.1511Z" fill="black"/>
<path d="M75.585 54.4512C75.585 58.9812 75.505 64.1412 75.315 65.0912C75.145 65.8812 74.275 67.3312 73.685 67.9012C73.445 68.1312 73.085 68.4212 72.655 68.7512C72.365 68.9612 72.045 69.1812 71.725 69.4112C70.125 70.5012 68.275 71.6512 68.275 71.6512C67.075 72.3412 65.145 72.3412 63.945 71.6512C63.945 71.6512 62.365 70.6912 60.865 69.6712C60.685 69.5512 60.515 69.4212 60.335 69.3012C60.065 69.1112 59.805 68.9212 59.555 68.7512C59.135 68.4312 58.765 68.1412 58.525 67.9112C57.945 67.3412 57.075 65.8912 56.905 65.1012C56.705 64.1512 56.625 59.0212 56.625 54.5012C56.625 51.5412 56.665 48.8412 56.715 47.7712C56.745 47.1312 56.925 46.4112 57.205 45.7612C57.665 44.6512 58.405 43.7012 59.205 43.5212C59.395 43.4812 59.575 43.4412 59.745 43.4012C60.755 43.1812 61.505 43.0112 61.505 43.0112C61.585 42.9912 61.665 42.9712 61.755 42.9612C64.285 42.4612 68.155 42.4712 70.615 43.0012C70.645 43.0012 70.675 43.0112 70.705 43.0212C71.555 43.2012 72.335 43.3812 73.015 43.5212C74.285 43.8112 75.415 46.0412 75.495 47.7712C75.515 48.1612 75.535 48.7812 75.545 49.5512C75.575 50.8512 75.585 52.6012 75.585 54.4512Z" fill="#FFDAB8"/>
<path d="M77.095 78.5811V95.9811H55.125V78.5811H66.115C66.125 78.5811 66.125 78.5811 66.135 78.5811H77.095Z" fill="#F0F0F0"/>
<path d="M68.8316 95.9809H63.3516L63.5016 94.7209L63.5116 94.6209L63.7916 92.1809L63.8416 91.7509L64.8316 83.0809L64.8416 82.9409H67.3416L67.3616 83.0809L68.3816 92.0309L68.4216 92.4209L68.6916 94.7409L68.7016 94.8209L68.8316 95.9809Z" fill="#007090"/>
<path d="M67.3716 82.941H64.8416L63.3516 78.521L66.1216 78.581L68.8616 78.521L67.3716 82.941Z" fill="#1A4A59"/>
<path d="M66.2116 95.981H43.6016V81.291C43.6016 80.351 43.9616 79.381 44.5516 78.581C44.9916 77.991 45.5616 77.481 46.1816 77.151C46.3116 77.071 46.4416 77.011 46.5816 76.961C46.6416 76.941 46.7016 76.9111 46.7616 76.8911L50.0516 75.601L51.5916 74.991L52.9416 74.541L55.7416 73.951L55.7516 73.941L55.9916 73.8911L57.4616 73.571H57.4716L57.5216 73.681V73.691L58.1416 75.291L58.1616 75.351V75.381L58.2816 75.631L58.5716 76.361V76.371L58.9916 77.451C58.9916 77.471 58.9916 77.471 58.9916 77.471C59.0216 77.831 59.0616 78.201 59.1116 78.571C59.1416 78.801 59.1816 79.031 59.2316 79.261C59.2716 79.501 59.3116 79.751 59.3816 79.991C59.3916 80.051 59.4016 80.1111 59.4216 80.1711C59.4616 80.3511 59.5116 80.531 59.5516 80.721C59.6616 81.151 59.7816 81.591 59.9316 82.051C60.0216 82.311 60.1016 82.561 60.1816 82.831V82.841C60.2116 82.921 60.2316 82.991 60.2616 83.081C60.3116 83.241 60.3816 83.411 60.4316 83.581C60.5516 83.941 60.6816 84.3111 60.8216 84.6711C60.9516 85.0311 61.0916 85.401 61.2316 85.761C61.4516 86.311 61.6616 86.861 61.8816 87.401C62.0016 87.711 62.1316 88.021 62.2716 88.331C62.7916 89.561 63.3216 90.711 63.8316 91.751C63.8316 91.761 63.8316 91.761 63.8316 91.761C64.0516 92.211 64.2616 92.631 64.4716 93.031C64.4916 93.081 64.5216 93.141 64.5516 93.181C64.6316 93.331 64.7016 93.471 64.7716 93.611C64.8716 93.791 64.9616 93.961 65.0616 94.131C65.4516 94.821 65.7816 95.391 66.0716 95.801C66.1216 95.871 66.1716 95.931 66.2116 95.981Z" fill="#424B4E"/>
<path d="M88.6209 81.2911V95.9811H66.2109C66.2609 95.9311 66.2909 95.8611 66.3509 95.8011C66.8809 95.0311 67.6009 93.7011 68.3909 92.0311C69.4909 89.6611 70.7409 86.6211 71.7709 83.5811C71.8209 83.4111 71.8909 83.2411 71.9509 83.0811C71.9709 82.9911 72.0009 82.9211 72.0309 82.8411C72.0309 82.8311 72.0309 82.8311 72.0309 82.8211C72.1109 82.5611 72.2009 82.3011 72.2809 82.0511C72.2909 82.0311 72.2909 82.0311 72.3009 82.0111C72.4309 81.5811 72.5509 81.1611 72.6609 80.7511C72.8509 79.9911 73.0009 79.2811 73.0909 78.5811C73.1809 77.9911 73.2209 77.4211 73.2409 76.8511L73.5909 75.9211L73.8709 75.3611L74.0009 75.0711L74.0109 75.0511L74.7409 73.5811L76.2209 73.8911L76.4509 73.9411L79.2709 74.5411L80.6009 74.9911L85.4509 76.8911C87.2009 77.4811 88.6209 79.4411 88.6209 81.2911Z" fill="#424B4E"/>
<path d="M60.3302 42.3711C56.5202 46.7511 68.4502 53.7311 74.2202 50.7611C77.0802 49.2911 76.6602 44.5711 74.0602 42.8711C71.2002 41.0011 62.3502 40.0411 60.3302 42.3711Z" fill="#AB6B00"/>
<path d="M60.4488 46.5211C60.4088 46.5511 60.3688 46.5711 60.3288 46.6011C60.0788 46.7311 59.8388 46.9311 59.6288 47.1911C58.4288 48.5511 57.5488 51.5111 56.6188 54.5011C56.5788 54.6211 56.5388 54.7511 56.4988 54.8711C55.8888 51.2311 55.7388 47.9111 56.6188 45.5811C57.2388 43.9111 58.4088 42.7611 60.3188 42.3811C61.0788 42.2311 61.5288 42.5011 61.7388 42.9711C62.2088 43.9411 61.5988 45.8111 60.4488 46.5211Z" fill="#AB6B00"/>
<path d="M72.1534 42.001C76.9234 43.211 76.9635 48.111 75.7135 54.861C74.5735 51.181 73.7734 47.081 72.1534 46.231C70.3634 45.291 69.7834 41.401 72.1534 42.001Z" fill="#AB6B00"/>
<path opacity="0.3" d="M74.0703 76.9711C74.1803 79.0311 73.7303 81.1911 72.7803 82.9211C72.5903 83.3011 72.3603 83.6611 72.1003 83.9911C72.0103 83.8611 71.9003 83.7211 71.7703 83.5811C71.5703 83.3411 71.3403 83.0711 71.0603 82.7911C69.4103 81.0711 66.7903 79.0011 66.5803 78.8411C66.5703 78.8411 66.5703 78.8411 66.5703 78.8311C70.3803 77.9311 72.1003 76.0011 72.6503 72.3711C72.7803 72.5411 72.8803 72.7211 72.9903 72.9111C73.4003 73.6411 73.7003 74.4711 73.8703 75.3511C73.9903 75.8811 74.0503 76.4211 74.0703 76.9711Z" fill="black"/>
<path d="M72.6494 71.3111C72.1094 74.9411 69.9194 77.6711 66.1094 78.5811C66.1094 78.5811 70.8294 81.1211 72.1094 82.9311C74.4594 79.8611 74.8294 74.4011 72.6494 71.3111Z" fill="#E6E6E6"/>
<path opacity="0.3" d="M76.8909 82.281C76.8909 82.281 79.1709 83.431 80.3209 84.101C78.4809 87.301 73.7309 92.941 66.2109 95.981C66.2509 95.931 66.2909 95.861 66.3509 95.801C67.7309 93.871 70.9209 88.3011 72.7809 82.9211C72.8909 82.6311 72.9809 82.341 73.0809 82.051C73.3009 81.361 73.4509 80.691 73.5609 80.041C73.7909 78.581 73.7609 77.221 73.6009 75.911L73.8809 75.351L74.0209 75.061L74.7509 73.571L76.2209 73.881L76.4509 73.931C78.6509 76.271 80.1609 79.451 80.3209 81.111C79.1709 81.361 76.8909 82.281 76.8909 82.281Z" fill="black"/>
<path d="M76.0987 82.2811C76.0987 82.2811 78.3787 83.4311 79.5287 84.1011C77.7087 87.3011 73.7488 92.6211 66.2188 95.9811C66.2587 95.9311 66.2987 95.8611 66.3587 95.8011C67.6387 93.9411 70.0187 88.7511 71.7787 83.5811C71.8587 83.3411 71.9487 83.0811 72.0287 82.8411C72.1187 82.5711 72.1987 82.3211 72.2787 82.0611C72.8887 80.1711 73.1787 78.4811 73.2487 76.8611C73.3087 75.5011 73.2187 74.2211 72.9887 72.9211C72.9087 72.4111 72.8087 71.8911 72.6787 71.3711C72.6787 71.3511 72.6687 71.3411 72.6687 71.3211C74.0387 71.7711 75.2287 72.7311 76.2087 73.9011C78.1887 76.2511 79.3687 79.4611 79.5187 81.1311C78.3787 81.3611 76.0987 82.2811 76.0987 82.2811Z" fill="#32393B"/>
<path opacity="0.3" d="M65.6413 78.8411C65.6413 78.8511 65.6413 78.8511 65.6313 78.8511C65.4313 79.0111 62.7713 81.1211 61.1013 82.8511C60.8413 83.1011 60.6213 83.3511 60.4413 83.5811C60.3113 83.7311 60.2113 83.8711 60.1113 83.9911C59.8613 83.6611 59.6213 83.3011 59.4313 82.9211C58.4813 81.1911 58.0313 79.0311 58.1413 76.9711C58.1513 76.5211 58.2013 76.0811 58.2913 75.6411C58.3013 75.5411 58.3213 75.4511 58.3413 75.3511C58.5113 74.4711 58.8113 73.6411 59.2213 72.9111C59.3313 72.7211 59.4313 72.5411 59.5613 72.3711C60.1113 76.0111 61.8313 77.9411 65.6413 78.8411Z" fill="black"/>
<path d="M66.1114 78.5811C66.1114 78.5811 65.9614 78.6611 65.7014 78.8011C65.6814 78.8211 65.6614 78.8211 65.6414 78.8311C65.6314 78.8411 65.6214 78.8511 65.6214 78.8511C65.2014 79.0911 64.5514 79.4711 63.8314 79.9111C62.4814 80.7711 60.9014 81.8811 60.1914 82.8311V82.8411C60.1614 82.8711 60.1414 82.9011 60.1114 82.9311C59.9114 82.6711 59.7214 82.3911 59.5514 82.1011C59.1814 81.4811 58.8914 80.7911 58.6614 80.0611C58.6614 80.0511 58.6614 80.0511 58.6614 80.0411C58.5114 79.5711 58.3914 79.0811 58.3114 78.5811C58.2314 78.1111 58.1714 77.6211 58.1414 77.1411C58.1114 76.5511 58.1214 75.9711 58.1814 75.4011V75.3911C58.1814 75.3711 58.1814 75.3411 58.1914 75.3211C58.2014 75.2411 58.2114 75.1511 58.2114 75.0711C58.2414 74.8411 58.2814 74.6111 58.3314 74.3811V74.3711C58.5514 73.2611 58.9514 72.2311 59.5414 71.3711V71.3611C59.5514 71.3411 59.5614 71.3411 59.5614 71.3311C59.5714 71.3211 59.5714 71.3111 59.5814 71.3111C59.6414 71.7411 59.7314 72.1611 59.8414 72.5611C60.6514 75.5711 62.7514 77.7811 66.1114 78.5811Z" fill="#E6E6E6"/>
<path opacity="0.3" d="M66.2106 95.9811C65.2706 95.5911 64.3706 95.1711 63.5006 94.7211C60.7406 93.2811 58.4006 91.5111 56.5306 89.7511C56.0306 89.2811 55.5506 88.8111 55.1206 88.3411C53.6406 86.7711 52.5606 85.2811 51.8906 84.1111C52.8306 83.5511 54.5406 82.6811 55.1206 82.3911C55.2406 82.3311 55.3206 82.2911 55.3206 82.2911C55.3206 82.2911 55.2406 82.2611 55.1206 82.2111C54.5406 81.9811 52.8306 81.3311 51.8906 81.1411C51.9906 80.1311 52.5806 78.5611 53.5206 76.9711C54.1406 75.9411 54.8906 74.8911 55.7506 73.9711L55.7606 73.9611L56.0006 73.9111L57.4706 73.6011L57.5206 73.7111V73.7211L58.1406 74.9811L58.1906 75.0911L58.3306 75.3811L58.3606 75.4511H58.3706L58.6106 75.9411C58.5906 76.0911 58.5706 76.2511 58.5606 76.3911V76.4011C58.4806 77.1111 58.4506 77.8411 58.4906 78.6011C58.5106 79.0811 58.5706 79.5611 58.6406 80.0611C58.6406 80.0711 58.6406 80.0711 58.6406 80.0811C58.7506 80.7211 58.8906 81.3811 59.1206 82.0711C59.2106 82.3511 59.3106 82.6511 59.4106 82.9411C60.5706 86.2511 62.2906 89.6311 63.7706 92.1911V92.2011C64.7006 93.8011 65.5206 95.0811 66.0606 95.8311C66.1206 95.8711 66.1706 95.9311 66.2106 95.9811Z" fill="black"/>
<path d="M66.2075 95.9811C65.2475 95.5611 64.3575 95.1011 63.5075 94.6211C60.5975 92.9711 58.2975 91.0511 56.5275 89.1911C56.0075 88.6511 55.5475 88.1211 55.1175 87.6011C54.0575 86.3011 53.2575 85.0911 52.6875 84.0911C53.3375 83.7011 54.3575 83.1611 55.1175 82.7811C55.6875 82.4811 56.1075 82.2711 56.1075 82.2711C56.1075 82.2711 55.6875 82.1011 55.1175 81.8911C54.3575 81.6011 53.3375 81.2511 52.6875 81.1211C52.7775 80.1611 53.2075 78.6811 53.9375 77.1511C54.4675 76.0311 55.1675 74.8911 55.9975 73.9011V73.8911C56.9875 72.7211 58.1675 71.7511 59.5375 71.3111C59.5375 71.3311 59.5275 71.3411 59.5275 71.3611V71.3711C59.3975 71.9011 59.3075 72.4011 59.2175 72.9111C59.1775 73.1311 59.1475 73.3411 59.1275 73.5611C59.0175 74.2911 58.9575 75.0211 58.9475 75.7611C58.9275 76.3211 58.9475 76.8811 58.9975 77.4611C58.9975 77.4811 58.9975 77.4811 58.9975 77.4811C59.0275 77.8411 59.0675 78.2111 59.1175 78.5811C59.1475 78.8111 59.1875 79.0411 59.2375 79.2711C59.2775 79.5111 59.3275 79.7611 59.3875 80.0011C59.3975 80.0611 59.4075 80.1211 59.4275 80.1811C59.4675 80.3611 59.5175 80.5411 59.5575 80.7311C59.6675 81.1611 59.7875 81.6011 59.9375 82.0611C60.0275 82.3211 60.1075 82.5711 60.1875 82.8411V82.8511C60.2175 82.9311 60.2375 83.0011 60.2675 83.0911C60.3175 83.2511 60.3875 83.4211 60.4375 83.5911C60.5575 83.9511 60.6875 84.3211 60.8275 84.6811C60.9575 85.0411 61.0975 85.4111 61.2375 85.7711C61.4575 86.3211 61.6675 86.8711 61.8875 87.4111C62.0075 87.7311 62.1375 88.0411 62.2775 88.3411C62.7975 89.5711 63.3275 90.7211 63.8375 91.7611C63.8375 91.7711 63.8375 91.7711 63.8375 91.7711C64.0575 92.2211 64.2675 92.6511 64.4775 93.0411C64.4975 93.0911 64.5275 93.1511 64.5575 93.1911C64.6375 93.3411 64.7075 93.4811 64.7775 93.6211C64.8775 93.8011 64.9675 93.9711 65.0675 94.1411C65.4575 94.8311 65.7875 95.4011 66.0775 95.8111C66.1175 95.8711 66.1675 95.9311 66.2075 95.9811Z" fill="#32393B"/>
<path opacity="0.2" d="M74.12 86.3111V95.9811H26V86.3111C26 85.0511 26.47 83.7811 27.23 82.7311V82.7211C27.25 82.7111 27.25 82.7011 27.25 82.7011C27.31 82.6111 27.38 82.5211 27.45 82.4411C27.49 82.3911 27.54 82.3411 27.57 82.2911C27.65 82.2011 27.73 82.1111 27.82 82.0111C28.49 81.3211 29.29 80.761 30.18 80.461L31.7 79.871L32.02 79.741L32.03 79.7311L32.77 79.4411H32.78L34.42 78.801L34.99 78.581L35.05 78.5611H35.06L35.07 78.551L36.5 78.081L36.85 78.0011H36.87L39.13 77.521C39.59 77.011 40.07 76.5611 40.57 76.1911C40.76 76.0411 40.96 75.901 41.16 75.771C41.35 75.641 41.54 75.5211 41.74 75.4211H41.75C41.76 75.4011 41.77 75.401 41.79 75.401C41.84 75.371 41.89 75.3411 41.94 75.3211C41.95 75.3111 41.96 75.3111 41.97 75.3111V74.521C41.92 74.471 41.86 74.4411 41.81 74.3911V74.3811C41.66 74.2611 41.52 74.1411 41.42 74.0311C41.41 74.0211 41.41 74.021 41.4 74.021C41.27 73.901 41.14 73.7411 41 73.5711V73.5611C40.85 73.3811 40.72 73.201 40.57 72.991L40.48 72.8511C40.42 72.7611 40.36 72.6711 40.3 72.5611C39.91 71.941 39.59 71.2711 39.42 70.6911C39.39 70.6011 39.37 70.511 39.35 70.431C39.31 70.261 39.28 70.0011 39.26 69.6711C39.22 69.2611 39.19 68.741 39.17 68.151C39.07 65.781 39.05 62.291 39.05 60.151L38.96 60.1411C38.92 59.9211 38.88 59.6811 38.84 59.4111C38.79 59.1111 38.75 58.7711 38.69 58.4111C38.58 57.5811 38.48 56.631 38.44 55.611C38.43 55.281 38.42 54.941 38.43 54.611C38.43 53.571 38.52 52.5011 38.75 51.4811C39.1 49.8511 39.8 48.3311 41.05 47.2611C41.61 46.7811 42.28 46.4011 43.08 46.1411C43.23 46.0811 43.38 46.031 43.54 45.991C43.66 45.891 43.78 45.8011 43.92 45.7111C43.93 45.7011 43.94 45.6911 43.94 45.6911C44.61 47.9811 44.31 51.141 43.62 54.871C43.58 54.741 43.54 54.621 43.5 54.491C43.5 59.011 43.42 64.1511 43.22 65.1011C43.06 65.8911 42.18 67.3411 41.6 67.9111C41.36 68.1411 41 68.4311 40.57 68.7611V71.341C40.58 71.351 40.59 71.361 40.59 71.371C40.59 71.361 40.58 71.351 40.58 71.331C41.95 71.771 43.13 72.7411 44.12 73.9111L44.36 73.961L47.17 74.5611L48.51 75.0111L50.06 75.621L51.6 75.0111L52.95 74.5611L55.75 73.9711L55.76 73.961L56 73.9111C56.99 72.7411 58.17 71.771 59.54 71.331C59.54 71.351 59.53 71.3611 59.53 71.3811C59.54 71.3611 59.55 71.3611 59.55 71.3511V68.7511C59.13 68.4311 58.76 68.1411 58.52 67.9111C57.94 67.3411 57.07 65.8911 56.9 65.1011C56.7 64.1511 56.62 59.0211 56.62 54.5011C56.58 54.6211 56.54 54.751 56.5 54.871C55.89 51.231 55.74 47.9111 56.62 45.5811C56.82 45.6311 57.01 45.7011 57.19 45.7611C58.18 46.1011 58.99 46.5911 59.62 47.1911C62.98 50.3511 61.84 56.5311 61.16 60.1711H61.07C61.07 62.3211 61.05 65.801 60.95 68.151C60.93 68.741 60.9 69.2511 60.86 69.6611C60.84 69.9911 60.81 70.2511 60.77 70.4211C60.76 70.4611 60.75 70.5111 60.74 70.5611C60.59 71.1611 60.24 71.8911 59.83 72.5611C59.77 72.6611 59.71 72.7511 59.65 72.8511C59.62 72.8911 59.59 72.941 59.56 72.991C59.42 73.201 59.27 73.3911 59.14 73.5611C59 73.7311 58.86 73.8811 58.73 74.0111L58.72 74.021C58.61 74.131 58.48 74.241 58.33 74.371V74.3811C58.28 74.4211 58.22 74.4611 58.16 74.5111V75.301C58.17 75.311 58.18 75.3111 58.19 75.3111C58.24 75.3311 58.3 75.3611 58.34 75.3911C58.36 75.3911 58.37 75.4011 58.38 75.4111H58.39C58.59 75.5111 58.78 75.6311 58.96 75.7511C59.16 75.8811 59.36 76.0211 59.56 76.1711C60.05 76.5511 60.53 76.9911 60.99 77.5011L63.25 77.991H63.27L63.63 78.0711L65.04 78.5411H65.05L65.13 78.5711L65.71 78.7911L67.35 79.431L68.11 79.7311L68.42 79.8511L69.95 80.4411C70.84 80.7411 71.64 81.301 72.31 81.991C72.39 82.081 72.48 82.1811 72.56 82.2811C72.6 82.3211 72.63 82.3611 72.67 82.4111C72.74 82.4911 72.81 82.5811 72.87 82.6711C72.88 82.6811 72.89 82.6911 72.89 82.7011C73.65 83.7811 74.12 85.0511 74.12 86.3111Z" fill="black"/>
<path d="M56.6078 73.1711H43.5078V88.1011H56.6078V73.1711Z" fill="#FFDAB8"/>
<path opacity="0.2" d="M56.61 73.1711V74.8911C56.36 75.0811 56.07 75.2811 55.78 75.4811C54.18 76.5811 52.32 77.7211 52.32 77.7211C51.12 78.4111 49.19 78.4111 47.99 77.7211C47.99 77.7211 46.02 76.5111 44.38 75.3811C44.07 75.1611 43.78 74.9411 43.5 74.7411V73.1711H56.61Z" fill="black"/>
<path d="M59.2568 70.1111C59.0868 70.9011 58.2168 72.3511 57.6368 72.9211C57.2368 73.3111 56.4868 73.8611 55.6668 74.4311C54.0668 75.5311 52.2068 76.6611 52.2068 76.6611C51.0168 77.3511 49.0868 77.3511 47.8868 76.6611C47.8868 76.6611 45.9068 75.4511 44.2768 74.3111C43.5268 73.7911 42.8468 73.2711 42.4668 72.9111C41.8868 72.3411 41.0168 70.8911 40.8468 70.1011C40.5168 68.5411 40.5168 55.4811 40.6668 52.7811C40.7568 51.0611 41.8768 48.8211 43.1468 48.5311C44.4168 48.2511 45.4468 48.0311 45.4468 48.0311C47.9968 47.4711 52.1168 47.4711 54.6568 48.0311C55.4968 48.2111 56.2868 48.3811 56.9568 48.5311C58.2268 48.8111 59.3568 51.0511 59.4468 52.7811C59.5868 55.4811 59.5868 68.5511 59.2568 70.1111Z" fill="#FFDAB8"/>
<path d="M50.0525 83.6011H39.0625V101.001H50.0525H61.0425V83.6011H50.0525Z" fill="#F0F0F0"/>
<path d="M52.7769 101.001H47.2969L48.7869 87.9609H51.2869L52.7769 101.001Z" fill="#FD6E4C"/>
<path d="M51.3169 87.961H48.7869L47.2969 83.541L50.0669 83.601L52.8069 83.541L51.3169 87.961Z" fill="#FD3A0B"/>
<path d="M72.5769 86.3111V101.001H27.5469V86.3111C27.5469 84.4611 28.9669 82.5011 30.7169 81.9211L35.5569 80.0211L36.9069 79.5711L39.7069 78.9811L39.7169 78.9711L39.9469 78.9311L41.4169 78.6111H41.4269L41.4669 78.7211V78.7311L42.1169 80.4011V80.4111L42.2369 80.6811L42.5269 81.4111V81.4211L42.9469 82.5011C42.9469 82.5111 42.9469 82.5111 42.9469 82.5111C43.0669 83.9411 43.3569 85.4411 43.8769 87.0811C43.9569 87.3411 44.0469 87.6011 44.1269 87.8611C44.2169 88.1011 44.2969 88.3611 44.3769 88.6011C46.1669 93.7711 48.7169 98.9611 50.0069 100.821C50.0569 100.881 50.0969 100.951 50.1469 101.001C50.1869 100.951 50.2269 100.881 50.2869 100.821C51.5669 98.9611 53.9469 93.7711 55.7069 88.6011C55.7869 88.3611 55.8769 88.1011 55.9569 87.8611C56.0369 87.5911 56.1269 87.3411 56.2069 87.0811C56.8169 85.1911 57.1069 83.5011 57.1769 81.8811L57.5269 80.9511L57.8069 80.3911L57.9469 80.1011L58.6769 78.6211L60.1469 78.9311L60.3769 78.9811L63.1969 79.5811L64.5369 80.0311L69.3869 81.9311C71.1469 82.5011 72.5769 84.4611 72.5769 86.3111Z" fill="#1DA8B5"/>
<path d="M44.2755 47.3911C40.4655 51.7711 52.3955 58.7511 58.1655 55.7811C61.0155 54.3111 60.6055 49.5911 58.0055 47.8911C55.1555 46.0211 46.3055 45.0611 44.2755 47.3911Z" fill="#FF9F00"/>
<path d="M44.2743 47.3913C39.6843 48.3113 39.4143 53.6413 40.4543 59.8913C41.5943 56.2113 42.6543 52.4812 44.2743 51.6212C46.0643 50.6712 46.6643 46.9113 44.2743 47.3913Z" fill="#FF9F00"/>
<path d="M56.0948 47.0211C60.8648 48.2311 60.9048 53.1311 59.6548 59.8811C58.5148 56.2011 57.7148 52.1011 56.0948 51.2511C54.3048 50.3111 53.7348 46.4211 56.0948 47.0211Z" fill="#FF9F00"/>
<path opacity="0.3" d="M58.0178 81.9911C58.1278 84.0511 57.6778 86.2111 56.7178 87.9411C56.5278 88.3211 56.2978 88.6811 56.0378 89.0111C55.9378 88.8811 55.8378 88.7411 55.7078 88.6011C55.5078 88.3611 55.2778 88.0911 54.9978 87.8211C53.3478 86.1011 50.7278 84.0311 50.5178 83.8711C50.5078 83.8711 50.5078 83.8711 50.5078 83.8611C54.3178 82.9611 56.0378 81.0311 56.5878 77.4011C56.7178 77.5711 56.8178 77.7511 56.9278 77.9411C57.3378 78.6711 57.6378 79.5011 57.8078 80.3811C57.9378 80.9011 57.9978 81.4411 58.0178 81.9911Z" fill="black"/>
<path d="M56.5947 76.3311C56.0447 79.9611 53.8647 82.6911 50.0547 83.6011C50.0547 83.6011 54.7747 86.1411 56.0547 87.9511C58.4147 84.8811 58.7747 79.4211 56.5947 76.3311Z" fill="#E6E6E6"/>
<path opacity="0.3" d="M60.8363 87.3011C60.8363 87.3011 63.1163 88.4511 64.2663 89.1211C62.4263 92.3211 57.6762 97.9611 50.1562 101.001C50.1962 100.951 50.2363 100.881 50.2963 100.821C51.6763 98.8911 54.8662 93.3211 56.7262 87.9411C56.8362 87.6511 56.9263 87.3611 57.0263 87.0711C57.2463 86.3811 57.3963 85.7111 57.5063 85.0711C57.7363 83.6111 57.7063 82.2511 57.5463 80.9411L57.8262 80.3811L57.9663 80.0911L58.6963 78.6111L60.1663 78.9211L60.3962 78.9711C62.5962 81.3111 64.1063 84.4911 64.2663 86.1511C63.1163 86.3811 60.8363 87.3011 60.8363 87.3011Z" fill="black"/>
<path d="M60.0441 87.3011C60.0441 87.3011 62.3241 88.4511 63.4741 89.1211C61.6541 92.3211 57.6941 97.6411 50.1641 101.001C50.2041 100.951 50.2441 100.881 50.3041 100.821C51.5841 98.9611 53.9641 93.7711 55.7241 88.6011C55.8041 88.3611 55.8941 88.1011 55.9741 87.8611C56.0541 87.5911 56.1441 87.3411 56.2241 87.0811C56.8341 85.1911 57.1241 83.5011 57.1941 81.8811C57.2541 80.5211 57.1641 79.2411 56.9341 77.9411C56.8441 77.4311 56.7541 76.9111 56.6241 76.3911C56.6241 76.3711 56.6141 76.3611 56.6141 76.3411C57.9841 76.7811 59.1741 77.7511 60.1541 78.9211C62.1341 81.2711 63.3141 84.4811 63.4641 86.1511C62.3241 86.3811 60.0441 87.3011 60.0441 87.3011Z" fill="#0B929F"/>
<path opacity="0.3" d="M49.5866 83.8611C49.5866 83.8711 49.5866 83.8711 49.5766 83.8711C49.3766 84.0311 46.7166 86.1411 45.0466 87.8711C44.7866 88.1211 44.5666 88.3711 44.3866 88.6011C44.2566 88.7511 44.1566 88.8911 44.0566 89.0111C43.8066 88.6811 43.5666 88.3211 43.3766 87.9411C42.4266 86.2111 41.9766 84.0511 42.0866 81.9911C42.0966 81.5511 42.1466 81.1011 42.2366 80.6611C42.2466 80.5611 42.2666 80.4711 42.2866 80.3711C42.4566 79.4911 42.7566 78.6611 43.1666 77.9311C43.2666 77.7411 43.3766 77.5611 43.5066 77.3911C44.0566 81.0311 45.7766 82.9611 49.5866 83.8611Z" fill="black"/>
<path d="M43.5195 76.3311C44.0595 79.9611 46.2495 82.6911 50.0595 83.6011C50.0595 83.6011 45.3395 86.1411 44.0595 87.9511C41.6995 84.8811 41.3395 79.4211 43.5195 76.3311Z" fill="#E6E6E6"/>
<path opacity="0.3" d="M50.1559 101.001C42.6359 97.9611 37.6659 92.3211 35.8359 89.1211C36.9859 88.4411 39.2659 87.3011 39.2659 87.3011C39.2659 87.3011 36.9859 86.3911 35.8359 86.1511C35.9959 84.4911 37.5159 81.3211 39.6959 78.9811L39.7059 78.9711L39.9359 78.9211L41.4059 78.6111L41.4559 78.7211V78.7311L42.1359 80.1011L42.2759 80.3911L42.5559 80.9511C42.5359 81.1011 42.5259 81.2611 42.5159 81.4111C42.5159 81.4111 42.5059 81.4111 42.5159 81.4211C42.3859 82.5811 42.3959 83.7911 42.5959 85.0811C42.7059 85.7311 42.8559 86.3911 43.0759 87.0811C43.1759 87.3711 43.2659 87.6611 43.3759 87.9511C45.2559 93.3311 48.6259 98.9011 50.0159 100.831C50.0759 100.881 50.1159 100.951 50.1559 101.001Z" fill="black"/>
<path d="M50.1528 101.001C42.6228 97.6411 38.4528 92.3211 36.6328 89.1211C37.7828 88.4411 40.0628 87.3011 40.0628 87.3011C40.0628 87.3011 37.7828 86.3911 36.6328 86.1511C36.7928 84.4911 37.9628 81.2811 39.9428 78.9311V78.9211C40.9328 77.7511 42.1128 76.7911 43.4828 76.3411C43.4828 76.3611 43.4728 76.3711 43.4728 76.3911C43.3428 76.9111 43.2528 77.4311 43.1628 77.9411C42.9128 79.4311 42.8128 80.9111 42.9428 82.4911C42.9428 82.5011 42.9428 82.5011 42.9428 82.5011C43.0628 83.9311 43.3528 85.4311 43.8728 87.0711C43.9528 87.3311 44.0428 87.5911 44.1228 87.8511C44.2128 88.0911 44.2928 88.3511 44.3728 88.5911C46.1628 93.7611 48.7128 98.9511 50.0028 100.811C50.0728 100.881 50.1128 100.951 50.1528 101.001Z" fill="#0B929F"/>
</g>
<defs>
<clipPath id="clip0_671_6555">
<rect x="0.5" width="100" height="100" rx="50" fill="white"/>
</clipPath>
</defs>
</svg>
