<svg width="30" height="30" viewBox="0 0 30 30" fill="none" xmlns="http://www.w3.org/2000/svg">
<path d="M2.07294 5.10469L11.9548 16.6148C12.1025 16.7845 12.1846 17.0016 12.1862 17.2266V24.218C12.1853 24.3159 12.2153 24.4117 12.272 24.4916C12.3287 24.5714 12.4092 24.6313 12.502 24.6627L17.1983 26.2254C17.2685 26.2489 17.3433 26.2553 17.4165 26.2441C17.4896 26.2329 17.5591 26.2044 17.619 26.1609C17.6789 26.1175 17.7276 26.0604 17.7611 25.9944C17.7945 25.9283 17.8117 25.8553 17.8112 25.7813V17.2266C17.8136 17.0012 17.8968 16.7841 18.0456 16.6148L27.9245 5.10469C28.0267 4.9857 28.0926 4.83992 28.1144 4.68461C28.1363 4.52931 28.1132 4.371 28.0478 4.22844C27.9824 4.08587 27.8776 3.96504 27.7456 3.88024C27.6137 3.79545 27.4602 3.75025 27.3034 3.75H2.69696C2.53988 3.74969 2.38601 3.79448 2.25364 3.87905C2.12127 3.96363 2.01597 4.08443 1.95025 4.22711C1.88453 4.36978 1.86115 4.52832 1.8829 4.68389C1.90465 4.83946 1.97061 4.98551 2.07294 5.10469Z" stroke="#0049FF" stroke-linecap="round" stroke-linejoin="round"/>
</svg>
