<svg width="1728" height="507" viewBox="0 0 1728 507" fill="none" xmlns="http://www.w3.org/2000/svg">
<g opacity="0.2">
<path d="M1002.49 34.9927C991.041 84.0589 976.634 132.442 959.399 179.8C951.731 200.85 943.227 222.166 928.441 238.983C890.611 281.975 824.424 283.323 767.937 273.965C715.909 265.367 664.907 250.542 616.372 229.929C568.274 209.505 521.751 183.14 470.199 174.485C418.665 165.83 358.703 179.743 330.934 224.026C314.42 250.371 311.782 283.702 318.236 314.129C324.689 344.537 339.495 372.534 355.913 398.937C374.724 429.174 396.552 459.771 399.38 495.266C402.303 532.013 381.993 569.577 349.668 587.267C303.677 612.436 247.36 596.644 195.788 587.248C130.266 575.29 59.9785 575.404 0.112041 604.597C-59.7544 633.809 -106.03 697.263 -99.8805 763.602" stroke="#0049FF" stroke-miterlimit="10"/>
<path d="M990.855 25.0654C979.694 73.0307 965.535 120.294 948.527 166.494C940.954 187.031 932.564 207.816 918.139 224.272C881.296 266.372 817.254 268.688 762.323 260.678C749.283 258.78 736.3 256.464 723.392 253.769C686.246 245.987 649.784 234.94 614.574 220.78C567.576 201.856 522.022 177.161 471.646 169.227C421.289 161.274 364.478 175.795 335.152 216.946C324.143 232.434 316.608 249.119 313.419 267.132C311.236 279.393 310.762 292.13 312.052 304.79C312.641 310.579 313.552 316.369 314.805 322.177C319.854 345.41 330.578 368.149 342.327 389.769C343.485 391.914 344.662 394.039 345.858 396.184C364.232 429.363 383.63 463.283 384.693 500.372C385.718 536.094 366.851 572.443 335.361 589.868C290.566 614.676 235.919 600.459 185.999 592.544C182.07 591.918 178.122 591.348 174.155 590.817C114.25 582.807 51.6124 586.071 -1.83846 613.708C-58.8198 643.167 -102.343 705.254 -95.4533 769.714" stroke="#0049FF" stroke-miterlimit="10"/>
<path d="M979.227 15.1382C968.37 62.0026 954.438 108.165 937.639 153.207C930.161 173.232 921.885 193.466 907.839 209.6C871.965 250.808 810.067 254.111 756.692 247.41C744.013 245.816 731.391 243.842 718.844 241.488C682.704 234.674 647.171 224.671 612.778 211.65C566.881 194.244 522.295 171.22 473.114 163.988C423.953 156.737 369.933 171.789 339.392 209.903C327.074 225.278 316.995 240.425 311.623 257.907C307.96 269.827 305.891 282.487 305.834 295.489C305.796 301.43 306.157 307.485 306.954 313.616C310.143 338.178 320.81 363.024 332.331 386.485C333.47 388.82 334.628 391.135 335.786 393.451C353.723 429.572 370.749 466.661 370.009 505.516C369.345 540.156 351.73 575.328 321.076 592.525C277.457 616.992 224.481 604.35 176.25 597.897C172.453 597.384 168.638 596.929 164.804 596.511C106.969 590.247 47.0072 594.974 -3.72933 622.857C-57.8255 652.581 -98.616 713.283 -90.9666 775.845" stroke="#0049FF" stroke-miterlimit="10"/>
<path d="M967.621 5.21118C957.048 50.9937 943.363 96.0169 926.792 139.92C919.428 159.433 911.228 179.135 897.561 194.909C862.655 235.224 802.903 239.495 751.103 234.143C738.803 232.871 726.541 231.219 714.337 229.188C679.203 223.342 644.581 214.402 611.022 202.501C566.227 186.614 522.608 165.241 474.605 158.712C426.621 152.182 375.087 167.671 343.635 202.824C329.95 218.122 317.422 231.694 309.868 248.663C304.724 260.223 301.061 272.826 299.675 286.17C299.03 292.282 298.821 298.564 299.144 305.037C300.453 330.927 311.064 357.861 322.376 383.201C323.496 385.707 324.616 388.212 325.755 390.718C343.275 429.781 357.966 469.907 355.347 510.641C353.183 544.142 336.612 578.213 306.793 595.144C264.37 619.25 213.045 608.184 166.484 603.211C162.821 602.813 159.139 602.471 155.437 602.167C99.6519 597.631 42.3859 603.838 -5.65533 631.987C-56.8854 661.977 -94.9046 721.293 -86.4959 781.976" stroke="#0049FF" stroke-miterlimit="10"/>
<path d="M956.004 -4.69702C945.735 39.9845 932.296 83.8879 915.916 126.633C908.646 145.633 900.56 164.785 887.273 180.236C853.335 219.679 795.727 224.918 745.503 220.875C733.564 219.926 721.663 218.597 709.819 216.908C675.691 212.029 641.999 204.133 609.276 193.371C565.581 178.983 522.93 159.3 476.104 153.473C429.297 147.645 379.965 163.457 347.906 195.763C332.759 211.023 317.858 223.001 308.14 239.438C301.478 250.637 296.239 263.184 293.506 276.85C292.234 283.114 291.475 289.643 291.323 296.458C290.772 323.676 301.307 352.718 312.392 379.899C313.493 382.594 314.594 385.289 315.695 387.984C332.778 430.009 345.229 473.077 340.655 515.784C337.2 548.109 321.465 581.098 292.481 597.783C251.254 621.528 201.599 612.038 156.69 608.545C153.159 608.279 149.61 608.033 146.041 607.843C92.3058 605.053 37.735 612.74 -7.61086 641.117C-55.9558 671.354 -91.2227 729.303 -82.0738 788.107" stroke="#0049FF" stroke-miterlimit="10"/>
<path d="M944.376 -14.624C934.392 28.9566 921.2 71.7401 905.047 113.347C897.872 131.834 889.881 150.455 876.974 165.545C844.004 204.095 788.541 210.321 739.873 207.607C728.314 206.962 716.773 205.975 705.271 204.608C672.149 200.698 639.368 193.865 607.48 184.222C564.886 171.353 523.204 153.321 477.554 148.215C431.943 143.09 384.528 159.072 352.127 188.702C335.461 203.944 318.246 214.288 306.344 230.213C298.201 241.071 291.349 253.522 287.287 267.549C285.408 273.965 284.08 280.741 283.453 287.897C281.043 316.445 291.52 347.574 302.377 376.634C303.459 379.5 304.522 382.385 305.604 385.27C322.251 430.237 332.557 476.19 325.952 520.928C321.358 552.038 306.306 584.003 278.176 600.421C238.145 623.806 190.142 615.891 146.922 613.879C143.505 613.727 140.108 613.613 136.691 613.537C85.0245 612.474 33.1301 621.642 -9.52045 650.266C-54.9802 680.768 -87.5139 737.332 -77.6058 794.257" stroke="#0049FF" stroke-miterlimit="10"/>
<path d="M932.767 -24.5513C923.087 17.9285 910.122 59.611 894.178 100.06C887.098 118.035 879.221 136.124 866.694 150.872C834.691 188.531 781.392 195.725 734.281 194.339C723.082 194.016 711.903 193.333 700.761 192.327C668.645 189.385 636.794 183.596 605.722 175.092C564.229 163.741 523.515 147.38 479.042 142.976C434.607 138.554 388.92 154.574 356.367 181.66C338.088 196.864 318.671 205.595 304.587 221.008C294.944 231.504 286.517 243.899 281.107 258.248C278.601 264.835 276.722 271.839 275.64 279.337C271.37 309.213 281.771 342.43 292.42 373.35C293.483 376.406 294.527 379.481 295.571 382.537C311.799 430.445 320.037 479.227 311.287 526.072C305.706 555.967 291.186 586.907 263.891 603.079C225.037 626.122 178.704 619.763 137.154 619.231C133.87 619.193 130.606 619.193 127.322 619.231C77.7052 619.915 28.5062 630.544 -11.4301 659.415C-54.0048 690.183 -83.7862 745.361 -73.1188 800.406" stroke="#0049FF" stroke-miterlimit="10"/>
<path d="M921.131 -34.4785C911.735 6.90033 899.018 47.463 883.301 86.7539C876.316 104.217 868.553 121.755 856.386 136.162C825.371 172.928 774.198 181.109 728.662 181.033C717.843 181.033 707.024 180.673 696.223 179.989C665.113 178.015 634.193 173.289 603.937 165.905C563.545 156.092 523.799 141.401 480.484 137.699C437.245 133.979 388.179 144.513 360.58 174.561C338.258 185.93 319.05 196.863 302.783 211.745C291.66 221.881 281.619 234.218 274.88 248.91C271.768 255.648 269.319 262.899 267.763 270.738C261.632 301.943 271.957 337.267 282.378 370.047C283.403 373.293 284.428 376.539 285.453 379.785C301.245 430.635 307.547 482.226 296.538 531.178C290.084 559.877 275.981 589.754 249.522 605.679C211.863 628.361 167.182 623.578 127.302 624.527C124.151 624.603 121.019 624.717 117.869 624.869C70.3209 627.279 23.7792 639.389 -13.4428 668.506C-53.1323 699.522 -80.1804 753.333 -68.7538 806.499" stroke="#0049FF" stroke-miterlimit="10"/>
<path d="M909.519 -44.4055C900.427 -4.12757 887.937 35.3152 872.43 73.4673C865.54 90.4174 857.871 107.424 846.103 121.489C816.056 157.364 767.028 166.513 723.048 167.784C712.59 168.088 702.131 168.069 691.692 167.728C661.588 166.722 631.578 163.039 602.158 156.794C562.867 148.462 524.088 135.441 481.969 132.442C439.907 129.443 392.416 139.484 364.837 167.5C340.731 178.243 319.491 188.151 301.041 202.501C288.419 212.295 276.802 224.557 268.716 239.571C264.977 246.461 261.978 253.978 259.947 262.14C251.956 294.673 262.225 332.085 272.418 366.726C273.424 370.142 274.43 373.578 275.417 377.032C290.772 430.844 295.252 485.206 281.87 536.303C274.676 563.788 260.858 592.639 235.253 608.298C198.79 630.62 155.779 627.412 117.57 629.842C114.552 630.032 111.553 630.26 108.535 630.544C63.0368 634.701 19.1904 648.273 -15.3362 677.655C-52.1596 708.936 -76.4365 761.362 -64.2696 812.649" stroke="#0049FF" stroke-miterlimit="10"/>
<path d="M897.897 -54.3328C889.108 -15.1557 876.847 23.1672 861.567 60.1804C854.772 76.637 847.217 93.0936 835.81 106.798C806.73 141.799 759.847 151.916 717.443 154.498C707.364 155.124 697.266 155.428 687.168 155.409C658.07 155.371 628.991 152.751 600.387 147.645C562.197 140.831 524.386 129.461 483.444 127.184C442.559 124.887 396.624 134.453 369.064 160.439C343.173 170.575 319.884 179.439 299.27 193.276C285.167 202.71 271.937 214.895 262.523 230.27C258.176 237.331 254.607 245.075 252.121 253.579C242.27 287.441 252.463 326.941 262.447 363.461C263.434 367.067 264.421 370.693 265.37 374.318C280.308 431.071 283.098 488.243 267.211 541.447C259.353 567.755 245.743 595.524 220.973 610.937C185.706 632.898 144.346 631.265 107.808 635.176C104.922 635.479 102.056 635.84 99.1711 636.219C55.7423 642.104 14.5722 657.156 -17.2591 686.785C-51.1974 718.313 -72.722 769.353 -59.7958 818.78" stroke="#0049FF" stroke-miterlimit="10"/>
<path d="M886.291 -64.2598C877.787 -26.1647 865.772 11.0383 850.701 46.8747C844.001 62.8189 836.56 78.725 825.532 92.1067C797.421 126.216 752.683 137.32 711.835 141.23C702.117 142.16 692.38 142.805 682.642 143.128C654.55 144.077 626.401 142.483 598.613 138.516C561.543 133.201 524.681 123.52 484.916 121.945C445.226 120.351 400.83 129.443 373.307 153.378C345.633 162.906 320.312 170.746 297.496 184.051C281.894 193.124 267.089 205.253 256.326 220.951C251.353 228.163 247.234 236.154 244.273 245C232.562 280.191 242.679 321.797 252.435 360.158C253.403 363.954 254.352 367.751 255.282 371.566C269.784 431.261 271.037 491.28 252.492 546.572C244.065 571.703 230.569 598.409 206.653 613.575C172.563 635.195 132.873 635.138 98.0048 640.509C95.2525 640.927 92.5192 641.401 89.767 641.895C48.3881 649.525 9.91339 666.058 -19.2037 695.915C-50.2568 727.709 -69.0481 777.363 -55.3627 824.911" stroke="#0049FF" stroke-miterlimit="10"/>
<path d="M874.642 -74.1868C866.442 -37.1926 854.655 -1.10944 839.812 33.5881C833.206 49.0197 825.86 64.3944 815.212 77.4155C788.069 110.632 745.494 122.704 706.203 127.943C696.865 129.196 687.488 130.164 678.073 130.809C651.006 132.726 623.787 132.195 596.834 129.367C560.865 125.571 524.972 117.542 486.383 116.687C447.87 115.795 405.03 124.394 377.526 146.298C348.068 155.2 320.697 162.014 295.718 174.808C278.616 183.539 262.216 195.592 250.125 211.631C244.545 219.015 239.856 227.233 236.421 236.42C222.849 272.94 232.909 316.635 242.438 356.875C243.387 360.842 244.317 364.847 245.209 368.852C259.274 431.489 259.141 494.412 237.787 551.716C228.847 575.708 215.409 601.295 192.328 616.214C159.433 637.473 121.414 638.991 88.2161 645.843C85.5967 646.394 82.9963 646.963 80.3958 647.589C41.0859 656.947 5.28754 674.96 -21.1342 705.064C-49.3022 737.123 -65.3412 785.392 -50.9156 831.061" stroke="#0049FF" stroke-miterlimit="10"/>
<path d="M863.031 -84.114C855.116 -48.2207 843.575 -13.2575 828.941 20.3012C822.43 35.2203 815.199 50.0446 804.93 62.7429C778.755 95.0678 738.325 108.127 700.61 114.675C691.631 116.251 682.615 117.522 673.561 118.528C647.481 121.414 621.174 121.926 595.037 120.218C560.168 117.94 525.243 111.581 487.831 111.43C450.514 111.24 409.23 119.364 381.746 139.256C350.503 147.551 321.082 153.321 293.92 165.602C275.337 173.972 257.343 185.968 243.905 202.349C237.698 209.885 232.459 218.35 228.568 227.879C213.136 265.727 223.12 311.529 232.44 353.61C233.37 357.767 234.262 361.942 235.135 366.137C248.783 431.736 247.416 497.62 223.101 556.879C213.706 579.751 200.267 604.217 178.021 618.871C146.323 639.769 109.955 642.863 78.4273 651.196C75.9407 651.86 73.4732 652.543 71.0056 653.284C33.7457 664.388 0.642613 683.862 -23.0838 714.213C-48.3666 746.519 -61.6724 793.421 -46.4685 837.192" stroke="#0049FF" stroke-miterlimit="10"/>
<path d="M851.409 -94.0413C843.798 -59.2489 832.485 -25.4055 818.079 6.99526C811.663 21.4019 804.526 35.6947 794.637 48.0325C769.449 79.4652 731.145 93.4922 695.005 101.388C686.407 103.268 677.751 104.881 669.039 106.21C643.965 110.063 618.568 111.619 593.266 111.05C559.499 110.272 525.542 105.583 489.307 106.134C453.166 106.665 416.134 119.307 385.992 132.138C354.787 145.425 321.513 144.57 292.169 156.301C272.087 164.311 252.498 176.231 237.731 192.953C230.916 200.641 225.108 209.372 220.743 219.223C203.451 258.4 213.359 306.29 222.451 350.231C223.343 354.578 224.235 358.943 225.07 363.309C238.281 431.85 235.871 500.808 208.405 561.927C198.611 583.718 185.115 607.008 163.723 621.414C133.202 641.952 98.5042 646.621 68.6658 656.434C66.3122 657.213 63.9775 658.01 61.6428 658.864C26.4329 671.695 -3.97491 692.65 -25.006 723.248C-47.4227 755.82 -57.9572 801.336 -42.0131 843.228" stroke="#0049FF" stroke-miterlimit="10"/>
<path d="M839.796 -103.949C832.47 -70.2577 821.423 -37.5343 807.206 -6.27236C800.885 7.62182 793.862 21.3831 784.352 33.3792C760.133 63.9388 723.973 78.9339 689.39 88.1397C681.171 90.3416 672.857 92.2776 664.506 93.948C640.438 98.7692 615.971 101.389 591.485 101.939C558.819 102.679 525.829 99.6613 490.771 100.914C455.827 102.148 419.839 113.916 390.228 125.115C357.03 137.661 321.934 135.877 290.407 147.114C268.844 154.763 247.661 166.627 231.546 183.672C224.106 191.53 217.747 200.489 212.907 210.682C193.736 251.188 203.606 301.165 212.47 346.985C213.343 351.503 214.197 356.058 215.014 360.633C227.788 432.116 224.523 504.263 193.717 567.109C183.543 587.856 169.971 609.95 149.415 624.11C120.089 644.306 87.0619 650.531 58.8749 661.825C56.6541 662.717 54.4523 663.647 52.2505 664.596C19.1094 679.174 -8.64096 701.591 -26.9388 732.454C-46.4703 765.291 -54.2526 809.422 -37.5682 849.435" stroke="#0049FF" stroke-miterlimit="10"/>
<path d="M828.172 -113.876C821.149 -81.2859 810.33 -49.6633 796.341 -19.5593C790.115 -6.17758 783.206 7.03329 774.057 18.6877C750.805 48.3552 716.791 64.3373 683.783 74.8718C675.924 77.3963 667.99 79.6551 659.98 81.6481C636.918 87.4373 613.382 91.1007 589.731 92.79C558.166 95.0488 526.144 93.6821 492.263 95.6562C458.496 97.5922 423.608 108.392 394.472 118.054C359.205 129.746 322.344 127.184 288.634 137.889C265.571 145.178 242.794 156.965 225.351 174.352C217.303 182.362 210.374 191.568 205.06 202.102C184.029 243.937 193.823 296.021 202.478 343.683C203.332 348.39 204.168 353.116 204.946 357.88C217.303 432.305 213.354 507.793 179.037 572.234C168.521 591.956 154.836 612.835 135.114 626.729C106.984 646.564 75.6084 654.365 49.0918 667.14C47.0039 668.146 44.9349 669.19 42.866 670.272C11.7749 686.577 -13.2802 710.474 -28.8827 741.584C-45.5291 774.668 -50.5781 817.432 -33.1155 855.565" stroke="#0049FF" stroke-miterlimit="10"/>
<path d="M816.566 -123.803C809.847 -92.3138 799.256 -61.8111 785.475 -32.8649C779.344 -19.9957 772.53 -7.3163 763.78 3.99645C741.496 32.7718 709.646 49.722 678.194 61.5852C670.715 64.4134 663.123 67.0138 655.474 69.3485C633.418 76.1057 610.792 80.832 587.977 83.6412C557.512 87.3995 526.478 87.7222 493.754 90.3985C461.164 93.0369 427.396 102.793 398.735 110.974C361.399 121.622 322.753 118.472 286.879 128.645C262.337 135.593 237.965 147.304 219.173 165.032C210.499 173.194 203.021 182.647 197.25 193.523C174.359 236.686 184.077 290.858 192.505 340.399C193.34 345.296 194.137 350.212 194.897 355.147C206.817 432.533 202.413 511.514 164.356 577.359C153.518 596.113 139.7 615.701 120.832 629.348C93.8981 648.823 64.1737 658.2 39.3463 672.455C37.3913 673.575 35.4552 674.732 33.5191 675.928C4.497 693.979 -17.8818 719.338 -30.7889 750.695C-44.5502 784.045 -46.8469 825.424 -28.644 861.677" stroke="#0049FF" stroke-miterlimit="10"/>
<path d="M804.938 -133.731C798.503 -103.323 788.158 -73.9592 774.606 -46.1518C768.589 -33.7951 761.869 -21.6472 753.48 -10.6951C732.164 17.1882 702.458 35.1254 672.563 48.2983C665.445 51.4491 658.232 54.3532 650.925 57.0296C629.875 64.7549 608.179 70.5252 586.18 74.4922C556.816 79.769 526.75 81.743 495.204 85.1406C463.809 88.4813 431.18 97.1367 402.955 103.913C363.57 113.347 323.159 109.759 285.102 119.421C259.059 126.007 233.093 137.661 212.973 155.731C203.71 164.045 195.663 173.745 189.418 184.943C164.666 229.435 174.309 285.714 182.528 337.096C183.344 342.164 184.122 347.27 184.843 352.395C196.346 432.742 191.676 515.424 149.69 582.503C138.548 600.307 124.578 618.605 106.546 631.987C80.7888 651.12 52.7536 662.053 29.5777 677.788C27.7555 679.022 25.9523 680.294 24.1681 681.603C-2.80411 701.382 -22.4875 728.24 -32.6994 759.825C-43.5756 793.44 -43.139 833.434 -24.1769 867.808" stroke="#0049FF" stroke-miterlimit="10"/>
<path d="M793.317 -143.658C787.186 -114.351 777.069 -86.1072 763.726 -59.4577C757.803 -47.6135 751.179 -36.016 743.188 -25.3866C722.84 1.60458 695.28 20.5098 666.96 35.0303C660.221 38.4849 653.35 41.7307 646.403 44.7487C626.359 53.442 605.594 60.2752 584.411 65.3622C556.148 72.1574 527.05 75.8018 496.68 79.8827C466.462 83.9447 435.067 91.4233 407.184 96.8519C365.748 104.9 323.572 101.047 283.332 110.177C255.81 116.421 228.249 128 206.8 146.412C196.892 154.896 188.294 164.823 181.574 176.383C154.963 222.184 164.548 280.57 172.539 333.831C173.337 339.089 174.077 344.385 174.798 349.699C185.864 432.97 181.138 519.58 135.014 587.647C123.549 604.559 109.465 621.49 92.2493 634.644C67.6877 653.416 41.304 665.944 19.7984 683.141C18.109 684.508 16.4197 685.893 14.7874 687.317C-10.1159 708.841 -27.123 737.161 -34.6205 768.992C-42.6305 802.855 -39.4227 841.481 -19.7013 873.977" stroke="#0049FF" stroke-miterlimit="10"/>
<path d="M781.697 -153.585C775.851 -125.379 765.981 -98.236 752.865 -72.7444C747.038 -61.4126 740.527 -50.3466 732.897 -40.0778C713.536 -13.9598 688.101 5.91342 661.357 21.7437C654.979 25.5209 648.488 29.0894 641.882 32.43C622.844 42.0914 602.99 49.9686 582.642 56.1944C555.48 64.4892 527.35 69.8039 498.157 74.6061C469.135 79.3704 439.031 85.6531 411.433 89.753C368.004 96.2066 323.986 92.3155 281.583 100.914C252.542 106.817 223.387 118.339 200.59 137.092C190.075 145.728 180.926 155.902 173.732 167.784C145.26 214.915 154.77 275.388 162.533 330.51C163.292 335.957 164.033 341.424 164.716 346.928C175.345 433.141 170.771 523.908 120.3 592.753C108.532 608.811 94.2959 624.356 77.9342 637.245C54.5684 655.656 29.836 669.759 10.0197 688.437C8.46328 689.917 6.92583 691.417 5.40734 692.954C-17.4459 716.206 -31.7577 746.006 -36.5599 778.104C-41.6848 812.232 -35.7248 849.453 -15.2631 880.089" stroke="#0049FF" stroke-miterlimit="10"/>
<path d="M770.079 -163.512C764.536 -136.407 754.894 -110.384 741.987 -86.0312C736.255 -75.212 729.858 -64.6965 722.607 -54.7504C704.214 -29.5244 680.925 -8.66419 655.737 8.49475C649.739 12.5947 643.589 16.4858 637.344 20.1681C619.312 30.7976 600.388 39.7187 580.856 47.0834C554.795 56.8966 527.633 63.8817 499.617 69.3862C471.772 74.8528 443.034 79.9018 415.663 82.7299C370.261 87.4183 324.402 83.641 279.797 91.727C249.275 97.2505 218.525 108.715 194.4 127.791C183.278 136.56 173.54 147 165.891 159.224C135.559 207.683 144.993 270.263 152.547 327.245C153.287 332.863 153.99 338.52 154.654 344.214C164.866 433.387 160.614 528.559 105.607 597.897C93.4968 613.157 79.1471 627.241 63.6205 639.883C41.4505 657.934 18.3885 673.612 0.223542 693.77C-1.20004 695.365 -2.62363 696.978 -3.99027 698.629C-24.7746 723.628 -36.41 754.89 -38.5169 787.233C-40.7567 821.627 -32.0634 857.464 -10.8425 886.22" stroke="#0049FF" stroke-miterlimit="10"/>
<path d="M758.451 -173.439C743.532 -99.5457 695.149 -34.5733 632.815 7.84951C570.481 50.2723 495.164 71.2465 419.903 75.6311C372.603 78.3834 324.808 74.8909 278.039 82.4643C231.269 90.0378 183.797 110.841 158.059 150.645C125.867 200.432 135.244 265.101 142.57 323.942C154.623 420.708 154.453 529.033 90.9227 603.022C59.2812 639.883 14.5237 664.52 -13.3596 704.305C-52.0052 759.445 -49.0062 840.21 -6.37455 892.332" stroke="#0049FF" stroke-miterlimit="10"/>
<path d="M-309 18.175C-272.613 -16.6743 -234.119 -49.3408 -193.823 -79.5967C-175.904 -93.0354 -157.151 -106.265 -135.569 -112.263C-80.4103 -127.619 -24.2262 -92.5988 17.9878 -53.9153C56.8802 -18.2877 91.5017 21.9713 120.903 65.7607C150.039 109.152 174.62 156.642 213.057 192.042C251.513 227.442 309.329 248.53 356.782 226.607C385.007 213.567 405.431 187.069 416.629 158.066C427.828 129.063 430.732 97.5351 431.397 66.444C432.156 30.8544 430.58 -6.70921 447.588 -37.9901C465.202 -70.3529 502.728 -90.7576 539.475 -87.9105C591.749 -83.8675 630.3 -39.8882 668.357 -3.84306C716.721 41.9584 775.657 80.2623 841.75 88.5001C907.842 96.7379 981.28 68.8357 1012.35 9.93725" stroke="#0049FF" stroke-miterlimit="10"/>
<path d="M-304.688 32.8282C-268.946 -1.47065 -231.003 -33.4539 -191.218 -62.8936C-173.528 -75.9906 -155.021 -88.8028 -133.819 -94.7249C-91.2258 -106.607 -47.9678 -88.6699 -11.0305 -62.514C-0.970548 -55.396 8.63389 -47.6707 17.612 -39.7556C56.2575 -5.76039 90.8222 32.9042 120.376 75.0992C149.645 116.896 174.32 162.982 212.51 197.281C233.921 216.528 260.627 231.902 288.454 238.887C312.693 244.961 337.899 244.544 360.791 234.37C364.872 232.548 368.82 230.46 372.597 228.106C395.887 213.642 412.78 189.802 422.973 164.083C426.257 155.826 428.895 147.36 431.059 138.8C436.696 116.44 439.164 93.1882 440.663 70.3349C443.093 34.062 444.327 -3.31183 462.7 -34.2511C480.941 -64.9815 517.005 -84.8737 552.899 -82.2923C603.977 -78.6099 641.996 -36.8515 679.465 -2.95119C682.426 -0.27485 685.406 2.36352 688.443 4.96394C734.244 44.3877 788.492 75.8584 848.359 81.8944C912.192 88.329 982.555 60.1041 1011.98 2.34455" stroke="#0049FF" stroke-miterlimit="10"/>
<path d="M-300.383 47.5008C-265.287 13.7714 -227.894 -17.5285 -188.622 -46.19C-171.178 -58.9263 -152.899 -71.359 -132.077 -77.1862C-90.2238 -88.8785 -47.7061 -72.0613 -11.2054 -47.2339C-1.2403 -40.4767 8.26924 -33.131 17.2094 -25.5955C55.6082 6.78633 90.1158 43.8375 119.802 84.4381C149.223 124.64 174.05 169.303 211.937 202.539C234.24 222.108 261.629 238.052 290.215 245.645C315.061 252.231 341.141 252.25 364.792 242.114C369.024 240.311 373.105 238.204 377.035 235.813C401.216 221.159 418.546 196.579 429.308 170.1C432.763 161.615 435.591 152.922 437.945 144.153C444.114 121.243 447.379 97.4781 449.903 74.2263C454.003 37.289 457.989 0.123961 477.767 -30.5306C496.559 -59.6476 531.218 -79.0273 566.276 -76.6926C616.159 -73.352 653.646 -33.8333 690.527 -2.07785C693.431 0.427655 696.373 2.89521 699.353 5.34377C744.376 42.1861 797.182 70.9615 854.922 75.3082C916.478 79.9586 983.785 51.373 1011.55 -5.20974" stroke="#0049FF" stroke-miterlimit="10"/>
<path d="M-296.055 62.1545C-261.604 28.9755 -224.762 -1.64109 -186.021 -29.5054C-168.805 -41.8811 -150.792 -53.9341 -130.33 -59.6664C-89.2364 -71.1689 -47.4399 -55.4716 -11.3568 -31.9919C-1.48661 -25.5953 7.94699 -18.6292 16.8302 -11.4733C54.9822 19.2951 89.4519 54.7328 119.271 93.739C148.806 132.385 173.823 175.605 211.368 207.797C234.563 227.689 262.598 244.202 291.962 252.402C317.434 259.501 344.349 259.976 368.778 249.878C373.163 248.075 377.396 245.949 381.458 243.538C406.532 228.676 424.317 203.355 435.649 176.117C439.274 167.405 442.273 158.484 444.855 149.506C451.555 126.045 455.636 101.749 459.185 78.1176C464.956 40.497 471.637 3.59769 492.896 -26.8101C512.124 -54.3137 545.492 -73.1809 579.715 -71.074C628.421 -68.094 665.358 -30.7961 701.65 -1.18555C704.516 1.14913 707.401 3.44584 710.325 5.72358C754.57 39.9845 805.951 66.0646 861.547 68.7409C920.825 71.6071 985.095 42.6798 1011.19 -12.745" stroke="#0049FF" stroke-miterlimit="10"/>
<path d="M-291.742 76.8266C-257.956 44.217 -221.645 14.2648 -183.417 -12.8023C-166.429 -24.8363 -148.662 -36.4907 -128.58 -42.1281C-88.2456 -53.4409 -47.1894 -38.8634 -11.5049 -16.7124C-1.74859 -10.6764 7.60909 -4.08994 16.4543 2.68632C54.3596 31.8413 88.7724 65.6847 118.725 103.077C148.392 140.129 173.618 181.868 210.821 213.035C234.927 233.231 263.607 250.333 293.75 259.159C319.83 266.752 347.599 267.682 372.806 257.622C377.323 255.819 381.708 253.693 385.922 251.244C411.888 236.192 430.129 210.131 442.011 182.134C445.807 173.175 448.996 164.026 451.767 154.839C458.999 130.828 463.877 106.02 468.471 81.9895C475.911 43.6855 485.212 7.07095 508.008 -23.109C527.597 -49.0372 559.77 -67.335 593.139 -65.4939C640.649 -62.8745 677.054 -27.7974 712.758 -0.350655C715.567 1.81319 718.414 3.93907 721.299 6.04597C764.785 37.7255 814.705 61.1102 868.175 62.0972C925.195 63.1602 986.39 33.8913 1010.84 -20.3568" stroke="#0049FF" stroke-miterlimit="10"/>
<path d="M-287.438 91.48C-254.296 59.4209 -218.536 30.152 -180.821 3.88211C-164.06 -7.79128 -146.56 -19.0661 -126.838 -24.6085C-87.2626 -35.7505 -46.9277 -22.2739 -11.6797 -1.45158C-2.01836 4.20479 7.26338 10.4306 16.0516 16.8272C53.7292 44.3689 88.0661 76.5988 118.17 112.397C147.97 147.873 173.424 188.094 210.248 218.293C235.265 238.811 264.59 256.502 295.511 265.917C322.217 274.021 350.841 275.407 376.807 265.385C381.476 263.582 385.994 261.456 390.359 258.969C417.237 243.728 435.895 216.907 448.347 188.151C452.314 178.964 455.692 169.587 458.654 160.192C466.417 135.63 472.054 110.271 477.711 85.8806C486.746 46.8933 498.685 10.5635 523.094 -19.3887C542.949 -43.7795 574.002 -61.4889 606.535 -59.8945C652.849 -57.6167 688.724 -24.7604 723.839 0.522457C726.61 2.51547 729.4 4.47053 732.228 6.4066C774.936 35.5236 823.414 56.1941 874.758 55.4918C929.499 54.7705 987.638 25.16 1010.43 -27.9492" stroke="#0049FF" stroke-miterlimit="10"/>
<path d="M-283.125 106.133C-250.629 74.6247 -215.419 46.0581 -178.216 20.5854C-161.703 9.27268 -144.43 -1.6035 -125.069 -7.07006C-86.2528 -18.0222 -46.6392 -5.64649 -11.8088 13.8281C-2.2613 19.1239 6.94455 24.9511 15.6949 30.9871C53.1066 56.8963 87.3866 87.5129 117.623 121.736C147.557 155.636 173.257 194.339 209.682 223.551C235.629 244.354 265.6 262.652 297.28 272.693C324.613 281.31 354.071 283.132 380.816 273.148C385.637 271.364 390.306 269.2 394.805 266.695C422.574 251.263 441.688 223.702 454.69 194.168C458.828 184.753 462.397 175.149 465.566 165.544C473.861 140.432 480.315 114.561 486.996 89.7906C497.702 50.1201 512.146 14.0939 538.207 -15.6495C558.251 -38.5218 588.279 -55.6238 619.959 -54.2761C665.077 -52.359 700.42 -21.7235 734.947 1.4145C737.661 3.23669 740.413 5.03988 743.184 6.78614C785.114 33.3218 832.149 51.2779 881.367 48.9053C933.831 46.3998 988.914 16.4286 1010.06 -35.5038" stroke="#0049FF" stroke-miterlimit="10"/>
<path d="M-278.82 120.806C-246.97 89.8668 -212.31 61.9646 -175.639 37.2891C-159.353 26.318 -142.346 15.8404 -123.346 10.4688C-85.2888 -0.293532 -46.4154 10.9623 -11.9837 29.0893C-2.53107 34.0243 6.59887 39.4719 15.2922 45.1283C52.4763 69.4431 86.6992 98.4463 117.069 131.075C147.135 163.381 173.101 200.546 209.108 228.809C236.005 249.897 266.583 268.783 299.041 279.45C326.981 288.58 357.313 290.858 384.836 280.912C389.79 279.128 394.611 276.964 399.261 274.42C427.923 258.78 447.473 230.479 461.045 200.204C465.354 190.562 469.093 180.71 472.472 170.897C481.298 145.235 488.549 118.832 496.274 93.682C508.65 53.3282 525.524 17.5867 553.331 -11.929C573.489 -33.3397 602.549 -49.7773 633.394 -48.6574C677.335 -47.082 712.146 -18.6862 746.066 2.30689C748.742 3.95825 751.437 5.59062 754.151 7.16605C795.303 31.1202 840.895 46.3811 887.987 42.3191C938.174 38.0104 990.22 7.71651 1009.69 -43.058" stroke="#0049FF" stroke-miterlimit="10"/>
<path d="M-274.492 135.459C-243.287 105.071 -209.178 77.8516 -173.019 53.9734C-156.961 43.3629 -140.201 33.265 -121.58 27.9882C-84.2823 17.4157 -46.1682 27.6086 -12.1351 44.35C-2.79637 48.9434 6.25763 53.9924 14.894 59.2691C51.8313 81.9516 85.9973 109.36 116.519 140.394C146.718 171.125 172.969 206.714 208.539 234.066C236.385 255.439 267.571 274.933 300.807 286.207C329.373 295.831 360.54 298.564 388.841 288.675C393.947 286.891 398.92 284.727 403.703 282.145C433.257 266.315 453.263 237.274 467.385 206.221C471.865 196.351 475.794 186.272 479.381 176.25C488.739 150.056 496.806 123.103 505.556 97.573C519.602 56.5358 538.849 21.0411 568.441 -8.1898C588.655 -28.1579 616.804 -43.8933 646.814 -43.0391C689.559 -41.8244 723.839 -15.6494 757.17 3.19887C759.789 4.6794 762.447 6.14095 765.123 7.54555C805.496 28.9183 849.646 41.4838 894.612 35.7325C942.54 29.6396 991.511 -1.01494 1009.33 -50.6316" stroke="#0049FF" stroke-miterlimit="10"/>
<path d="M-270.18 150.113C-239.639 120.293 -206.061 93.7389 -170.415 70.6578C-154.585 60.408 -138.09 50.6897 -119.83 45.5078C-83.2916 35.1252 -45.8987 44.2171 -12.2832 59.6108C-3.03937 63.8436 5.93869 68.513 14.5182 73.4101C51.2087 94.4792 85.3178 120.274 115.972 149.714C146.304 178.869 172.84 212.883 207.974 239.305C236.768 260.963 268.543 281.102 302.557 292.965C331.75 303.101 363.752 306.29 392.831 296.419C398.089 294.635 403.195 292.452 408.149 289.852C438.613 273.832 459.056 244.031 473.728 212.238C478.379 202.14 482.498 191.833 486.275 181.603C496.164 154.858 505.047 127.392 514.804 101.464C530.52 59.7437 552.064 24.4578 583.534 -4.46945C603.749 -23.052 631.063 -38.0471 660.218 -37.4397C701.768 -36.5665 735.516 -12.6313 768.24 4.07206C770.821 5.38176 773.421 6.67247 776.041 7.90624C815.635 26.6976 858.343 36.5677 901.183 29.1461C946.833 21.2689 992.748 -9.72722 1008.9 -58.186" stroke="#0049FF" stroke-miterlimit="10"/>
<path d="M-265.875 164.785C-235.98 135.516 -202.953 109.664 -167.819 87.3611C-152.235 77.472 -135.968 68.1333 -118.088 63.0463C-82.3085 52.8535 -45.637 60.8255 -12.4391 74.8716C-3.30913 78.7437 5.59302 83.0334 14.1345 87.551C50.5783 107.007 84.6494 131.189 115.437 159.034C145.902 186.594 172.76 219.014 207.438 244.544C237.182 266.467 269.564 287.232 304.337 299.722C334.137 310.37 367.013 313.996 396.851 304.183C402.261 302.417 407.518 300.215 412.605 297.577C443.962 281.367 464.841 250.827 480.083 218.255C484.904 207.929 489.194 197.395 493.18 186.936C503.601 159.641 513.281 131.644 524.081 105.336C541.487 62.9514 565.251 27.8174 598.639 -0.768214C618.778 -18.0031 645.314 -32.2199 673.634 -31.8403C713.988 -31.3278 747.204 -9.61342 779.34 4.92612C781.883 6.06499 784.427 7.18488 786.989 8.24782C825.805 24.4577 867.07 31.6326 907.785 22.5216C951.157 12.8413 994.016 -18.4966 1008.52 -65.7786" stroke="#0049FF" stroke-miterlimit="10"/>
<path d="M-261.562 179.439C-232.313 150.72 -199.836 125.551 -165.214 104.065C-149.859 94.5171 -133.857 85.5959 -116.338 80.5849C-81.2987 70.5819 -45.3865 77.4341 -12.5871 90.1514C-3.55205 93.6629 5.27415 97.554 13.7587 101.711C49.9557 119.553 83.9699 142.122 114.89 168.373C145.488 194.358 172.669 225.145 206.873 249.802C237.603 271.953 270.554 293.382 306.106 306.479C336.533 317.64 370.243 321.721 400.86 311.927C406.402 310.162 411.812 307.96 417.051 305.283C449.3 288.865 470.634 257.584 486.446 224.253C491.438 213.7 495.917 202.918 500.112 192.27C511.064 164.425 521.561 135.896 533.386 109.227C552.462 66.1593 578.39 31.1201 613.79 2.95213C633.834 -12.992 659.61 -26.3547 687.095 -26.2408C726.253 -26.089 758.939 -6.57639 790.485 5.7993C792.972 6.76734 795.477 7.71639 797.983 8.62748C836.021 22.2559 875.843 26.7355 914.432 15.9352C955.545 4.47062 995.349 -27.2089 1008.18 -73.333" stroke="#0049FF" stroke-miterlimit="10"/>
<path d="M-257.234 194.111C-228.63 165.962 -196.685 141.457 -162.613 120.768C-147.486 111.581 -131.731 103.04 -114.591 98.1236C-80.3113 88.2914 -45.1203 94.0426 -12.7575 105.431C-3.81738 108.563 4.91393 112.094 13.3605 115.871C49.3298 132.1 83.268 153.055 114.34 177.711C145.071 202.102 172.574 231.257 206.304 255.059C238.021 277.438 271.542 299.532 307.891 313.256C338.944 324.929 373.508 329.447 404.884 319.709C410.579 317.944 416.121 315.723 421.512 313.047C454.653 296.438 476.424 264.417 492.805 230.327C497.987 219.527 502.637 208.537 507.022 197.68C518.505 169.284 529.875 140.262 542.649 113.176C563.49 69.4621 591.431 34.385 628.88 6.72946C648.773 -7.96193 673.866 -20.4515 700.496 -20.5844C738.477 -20.7742 770.612 -3.50136 801.571 6.72946C804.019 7.52667 806.468 8.3049 808.935 9.04516C846.214 20.0922 884.575 21.8574 921.038 9.38682C959.873 -3.862 996.621 -35.9021 1007.8 -80.8684" stroke="#0049FF" stroke-miterlimit="10"/>
<path d="M-252.93 208.764C-224.989 181.166 -193.576 157.364 -160.017 137.452C-145.117 128.626 -129.628 120.464 -112.849 115.643C-79.3283 106.001 -44.8586 110.632 -12.9134 120.673C-4.06818 123.444 4.5872 126.595 12.9769 129.993C48.6993 144.608 82.5806 163.969 113.786 187.012C144.649 209.846 172.513 237.369 205.73 260.298C238.454 282.886 272.525 305.682 309.652 319.994C341.312 332.161 376.731 337.153 408.885 327.453C414.731 325.707 420.426 323.467 425.949 320.753C460.001 303.955 482.209 271.193 499.14 236.325C504.493 225.297 509.333 214.079 513.927 203.013C525.942 174.067 538.109 144.513 551.927 117.048C574.438 72.6698 604.41 37.4978 644.004 10.4307C663.726 -3.04588 688.135 -14.6244 713.931 -15.004C750.716 -15.5544 782.32 -0.502411 812.69 7.58355C815.081 8.22891 817.492 8.81732 819.902 9.38675C856.403 17.8713 893.321 16.9223 927.658 2.76234C964.216 -12.2897 997.907 -44.6525 1007.44 -88.4609" stroke="#0049FF" stroke-miterlimit="10"/>
<path d="M-248.617 223.418C-221.322 196.37 -190.459 173.251 -157.413 154.137C-142.759 145.652 -127.499 137.889 -111.099 133.163C-78.3375 123.71 -44.5891 127.222 -13.0615 135.934C-4.33014 138.345 4.24932 141.116 12.601 144.134C48.0767 157.117 81.9011 174.883 113.258 196.332C144.235 217.591 172.441 243.443 205.165 265.556C238.894 288.352 273.516 311.832 311.421 326.751C343.708 339.431 379.962 344.859 412.894 335.198C418.873 333.452 424.719 331.212 430.394 328.46C465.339 311.471 487.983 277.951 505.484 242.342C511.007 231.086 516.018 219.622 520.821 208.347C533.367 178.85 546.35 148.784 561.193 120.92C585.375 75.8587 617.34 40.4779 659.098 14.1511C678.63 1.83232 702.375 -8.77814 727.335 -9.38553C762.925 -10.2776 793.997 2.53462 823.778 8.47571C826.132 8.95024 828.486 9.36783 830.839 9.76643C866.562 15.6696 902.037 12.0252 934.229 -3.82406C968.509 -20.6603 999.145 -53.3838 1007.02 -96.0154" stroke="#0049FF" stroke-miterlimit="10"/>
<path d="M-244.312 238.09C-217.663 211.612 -187.35 189.157 -154.817 170.84C-140.391 162.716 -125.377 155.333 -109.357 150.701C-77.3545 141.439 -44.3274 143.83 -13.2363 151.214C-4.5999 153.264 3.90363 155.636 12.1984 158.294C47.4273 169.663 81.1948 185.816 112.684 205.671C143.814 225.335 172.38 249.517 204.591 270.795C239.346 293.762 274.499 317.963 313.163 333.509C346.076 346.7 383.184 352.585 416.876 342.961C423.007 341.215 429.005 338.975 434.813 336.185C470.649 318.988 493.749 284.746 511.801 248.359C517.495 236.876 522.696 225.183 527.688 213.7C540.766 183.672 554.546 153.055 570.414 124.811C596.267 79.0855 630.148 43.3631 674.146 17.8714C693.488 6.67255 716.588 -2.91292 740.694 -3.78606C775.088 -5.03881 805.628 5.55267 834.821 9.34889C837.118 9.65259 839.434 9.89934 841.749 10.1271C876.694 13.4488 910.727 7.10911 940.793 -10.4105C972.814 -29.0309 1000.39 -62.0961 1006.6 -103.57" stroke="#0049FF" stroke-miterlimit="10"/>
<path d="M-239.984 252.744C-213.98 226.816 -184.218 205.044 -152.197 187.544C-137.999 179.78 -123.25 172.795 -107.591 168.24C-76.3481 159.167 -44.0422 160.439 -13.3687 166.475C-4.82724 168.164 3.58141 170.157 11.8382 172.435C46.8204 182.191 80.5309 196.73 112.172 215.009C143.434 233.079 172.381 255.591 204.06 276.053C239.839 299.172 275.524 324.113 314.967 340.266C348.487 353.97 386.45 360.291 420.919 350.705C427.202 348.959 433.333 346.7 439.293 343.891C476.022 326.504 499.577 291.503 518.179 254.357C524.044 242.646 529.434 230.726 534.635 219.033C548.245 188.455 562.841 157.326 579.734 128.702C607.257 82.2933 643.036 46.0963 689.312 21.5916C708.445 11.4557 730.9 2.93318 754.171 1.8133C787.369 0.199903 817.397 8.58956 845.983 10.2219C848.241 10.3548 850.5 10.4497 852.759 10.4877C886.925 11.2279 919.534 2.19292 947.456 -17.016C977.199 -37.4397 1001.72 -70.8464 1006.28 -111.162" stroke="#0049FF" stroke-miterlimit="10"/>
<path d="M-235.672 267.416C-210.332 242.057 -181.101 220.969 -149.611 204.247C-135.641 196.825 -121.14 190.239 -105.86 185.778C-75.3763 176.895 -43.7917 177.047 -13.5358 181.754C-5.10816 183.064 3.24354 184.696 11.4244 186.594C46.1599 194.737 79.8134 207.663 111.588 224.348C142.983 240.842 172.289 261.646 203.456 281.329C240.28 304.581 276.477 330.3 316.698 347.061C350.845 361.278 389.661 368.054 424.89 358.506C431.306 356.779 437.608 354.501 443.701 351.654C481.34 334.078 505.313 298.336 524.484 260.431C530.52 248.492 536.082 236.325 541.491 224.424C555.632 193.295 571.045 161.634 588.963 132.631C618.156 85.5388 655.777 48.6965 704.368 25.3497C723.311 16.2577 745.121 8.81713 767.537 7.45049C799.559 5.49543 829.036 11.6453 857.033 11.1138C859.235 11.0759 861.456 10.9999 863.658 10.8671C897.046 9.02591 928.213 -2.70442 954.008 -23.6026C981.474 -45.8105 1002.94 -79.559 1005.85 -118.717" stroke="#0049FF" stroke-miterlimit="10"/>
<path d="M-231.367 282.07C-206.673 257.261 -177.992 236.857 -147.015 220.931C-133.292 213.87 -119.037 207.664 -104.118 203.298C-74.3933 194.586 -43.53 193.561 -13.6917 197.015C-5.35896 197.945 2.89783 199.217 11.0407 200.736C45.5484 207.265 79.145 218.578 111.052 233.668C142.561 248.587 172.266 267.663 202.921 286.568C240.807 309.934 277.498 336.432 318.497 353.799C353.251 368.51 392.922 375.741 428.929 366.251C435.497 364.524 441.931 362.246 448.176 359.361C486.708 341.575 511.136 305.094 530.858 266.429C537.065 254.262 542.816 241.868 548.434 229.758C563.107 198.078 579.317 165.905 598.26 136.503C629.142 88.7469 668.566 51.0883 719.511 29.0512C738.265 20.9463 759.409 14.6635 780.991 13.0501C811.816 10.7345 840.763 14.6635 868.171 11.9872C870.335 11.7784 872.499 11.5317 874.644 11.228C907.253 6.80536 936.978 -7.63928 960.647 -30.2078C985.854 -54.219 1004.25 -88.3091 1005.5 -126.29" stroke="#0049FF" stroke-miterlimit="10"/>
<path d="M-227.055 296.723C-203.006 272.465 -174.876 252.744 -144.411 237.616C-130.915 230.916 -116.907 225.088 -102.368 220.818C-73.3835 212.295 -43.2605 210.15 -13.8587 212.257C-5.62089 212.827 2.54098 213.719 10.6459 214.857C44.9068 219.755 78.4465 229.473 110.487 242.969C142.147 256.331 172.232 273.68 202.336 291.807C241.286 315.249 278.47 342.563 320.247 360.557C355.628 375.779 396.134 383.467 432.919 373.995C439.638 372.268 446.206 369.971 452.602 367.067C492.026 349.092 516.892 311.87 537.182 272.446C543.56 260.052 549.501 247.429 555.309 235.11C570.513 202.88 587.539 170.176 607.507 140.395C640.06 91.9547 681.287 53.2902 734.586 32.7716C753.169 25.6157 773.63 20.5098 794.377 18.6496C824.006 15.9923 852.421 17.6816 879.222 12.8604C881.329 12.4808 883.455 12.0632 885.562 11.6076C917.412 4.60359 945.675 -12.5364 967.219 -36.7942C990.148 -62.5896 1005.5 -97.0213 1005.09 -133.845" stroke="#0049FF" stroke-miterlimit="10"/>
<path d="M-222.727 311.395C-199.323 287.707 -171.743 268.65 -141.791 254.338C-128.523 247.998 -114.781 242.551 -100.602 238.375C-72.3771 230.042 -42.9753 226.778 -13.9912 227.556C-5.86723 227.765 2.23771 228.258 10.2857 229.036C44.2999 232.32 77.7826 240.425 109.975 252.326C141.749 264.075 172.214 279.697 201.805 297.065C241.836 320.563 279.495 348.712 322.051 367.314C358.058 383.049 399.418 391.173 436.962 381.758C443.815 380.031 450.553 377.734 457.082 374.792C497.398 356.627 522.719 318.646 543.579 278.463C550.128 265.841 556.259 252.991 562.257 240.444C577.992 207.664 595.834 174.428 616.827 144.267C651.05 95.1625 694.081 55.3021 749.752 36.4918C768.202 30.266 787.961 26.3559 807.854 24.249C836.287 21.231 864.17 20.6995 890.383 13.7334C892.452 13.183 894.521 12.5946 896.571 11.9682C927.643 2.38272 954.464 -17.4525 973.881 -43.3997C994.533 -70.9793 1006.83 -105.772 1004.76 -141.437" stroke="#0049FF" stroke-miterlimit="10"/>
<path d="M-218.422 326.049C-165.559 272.294 -89.5401 244.297 -14.166 242.798C61.208 241.317 135.766 264.873 201.213 302.303C242.345 325.821 280.459 354.862 323.774 374.071C367.089 393.28 418.224 401.784 461.501 382.499C515.673 358.374 543.139 299.077 569.124 245.797C611.888 158.161 671.185 67.507 764.819 40.2121C811.456 26.6216 862.42 30.4179 907.481 12.3289C969.986 -12.7452 1011.57 -82.0453 1004.32 -148.992" stroke="#0049FF" stroke-miterlimit="10"/>
<path d="M112.126 1104.26C104.135 1039.72 167.855 985.188 232.106 975.147C296.357 965.125 360.817 985.814 424.479 999.082C488.142 1012.35 559.777 1016.73 612.962 979.303C680.952 931.452 696.688 830.795 766.633 785.848C821.147 750.809 892.117 761.305 947.979 787.366C979.563 802.096 1006.42 826.885 1036.6 844.158C1173.49 922.474 1182.74 1082.48 1299.03 1106.36C1424.97 1132.2 1493.31 1070.79 1517.07 1028.22C1547.52 973.666 1598.27 832.143 1473.89 733.783C1423.36 693.827 1373.46 651.234 1336.29 598.618C1280.64 519.846 1281.02 399.43 1352.18 334.325C1400.96 289.719 1475.88 273.414 1509.02 216.205C1531.29 177.769 1528.25 128.209 1509.1 88.1017C1489.95 48.0136 1456.6 16.2961 1420.38 -9.4043" stroke="#0049FF" stroke-miterlimit="10"/>
<path d="M115.014 1107.48C109.51 1041.09 172.868 983.726 239.037 972.318C303.629 961.176 369.152 981.714 432.815 996.349C495.737 1010.81 565.588 1017.38 618.602 983.365C686.327 939.823 705.365 844.272 775.216 799.913C830.868 764.76 900.7 771.308 957.89 794.086C990.746 807.183 1019.86 830.529 1051.47 848.049C1185.49 922.303 1196.52 1077.13 1310.29 1100.67C1432.66 1125.93 1500.64 1067.83 1525.33 1025.92C1556.63 972.812 1605.05 836.452 1487.52 739.211C1439.06 699.123 1391.02 655.713 1354.44 603.42C1300.42 526.528 1299.93 410.382 1367.1 345.846C1413.59 301.203 1485.81 283.019 1518.8 226.55C1541.45 187.962 1540.06 139.104 1523.32 98.7123C1506.44 57.9408 1475.64 24.4391 1440.83 -3.15942" stroke="#0049FF" stroke-miterlimit="10"/>
<path d="M117.895 1110.69C114.858 1042.45 177.875 982.265 245.96 969.452C310.876 957.228 377.461 977.557 441.143 993.596C503.325 1009.26 571.41 1018.01 624.254 987.389C691.694 948.174 713.959 857.559 783.828 813.959C840.525 778.578 909.388 781.235 967.85 800.786C1002.02 812.213 1033.34 834.174 1066.38 851.921C1197.41 922.303 1210.33 1071.74 1321.58 1094.96C1440.4 1119.65 1507.98 1064.83 1533.62 1023.61C1565.76 971.958 1611.88 840.665 1501.2 744.64C1454.81 704.4 1408.61 660.193 1372.62 608.241C1320.25 533.209 1318.89 421.315 1382.06 357.406C1426.24 312.705 1495.77 292.661 1528.63 236.952C1551.65 198.192 1551.92 150.018 1537.61 109.361C1522.99 67.8869 1494.75 32.601 1461.34 3.12329" stroke="#0049FF" stroke-miterlimit="10"/>
<path d="M120.777 1113.92C120.208 1043.82 182.865 980.86 252.886 966.605C318.143 953.318 385.792 973.4 449.473 990.844C510.896 1007.66 577.216 1018.65 629.889 991.432C697.063 956.526 722.593 870.978 792.405 828.024C850.203 792.472 918.098 791.144 977.756 807.505C1013.27 817.243 1046.73 837.837 1081.26 855.831C1209.17 922.493 1224.13 1066.39 1332.85 1089.28C1448.13 1113.41 1515.3 1061.87 1541.89 1021.33C1574.83 971.104 1618.71 844.803 1514.85 750.087C1470.49 709.639 1426.3 664.596 1390.79 613.063C1340.26 539.758 1337.81 432.21 1397.01 368.946C1438.9 324.17 1505.6 302.209 1538.44 247.315C1561.75 208.347 1563.8 160.875 1551.86 119.99C1539.52 77.776 1513.82 40.7628 1481.84 9.38696" stroke="#0049FF" stroke-miterlimit="10"/>
<path d="M123.664 1117.14C125.562 1045.19 187.877 979.474 259.816 963.777C325.414 949.465 394.107 969.243 457.808 988.13C518.49 1006.1 583.026 1019.32 635.547 995.513C702.436 964.916 731.25 884.417 801.024 842.127C859.923 806.404 926.907 801.033 987.723 814.282C1024.6 822.311 1060.19 841.576 1096.18 859.779C1220.89 922.873 1237.97 1061.09 1344.17 1083.64C1455.89 1107.18 1522.63 1058.95 1550.21 1019.09C1583.94 970.306 1625.6 848.884 1528.53 755.592C1486.21 714.915 1443.95 669.133 1408.97 617.941C1360.15 546.458 1356.75 443.125 1411.97 380.544C1451.58 335.654 1515.53 311.889 1548.25 257.736C1571.9 218.597 1575.7 171.752 1566.12 130.657C1556.09 87.6651 1532.9 48.9626 1502.32 15.6887" stroke="#0049FF" stroke-miterlimit="10"/>
<path d="M126.555 1120.37C130.939 1046.57 192.894 978.089 266.749 960.93C332.69 945.612 402.426 965.068 466.146 985.377C526.088 1004.49 588.897 1020.06 641.19 999.556C707.871 973.419 739.911 897.855 809.628 856.173C869.647 820.299 935.739 810.808 997.655 820.982C1035.94 827.265 1073.6 845.24 1111.07 863.651C1232.47 923.328 1251.77 1055.7 1355.43 1077.93C1463.6 1100.9 1529.92 1055.95 1558.47 1016.77C1592.98 969.414 1632.46 852.756 1542.17 761.021C1501.87 720.078 1461.54 673.575 1427.12 622.743C1379.99 553.101 1375.65 453.906 1426.89 392.065C1464.21 347.023 1525.43 321.475 1558.05 268.1C1582.07 228.809 1587.61 182.552 1580.36 141.268C1572.65 97.4595 1551.94 57.0866 1522.81 21.9336" stroke="#0049FF" stroke-miterlimit="10"/>
<path d="M129.43 1123.58C136.282 1047.92 197.895 976.722 273.667 958.064C339.949 941.759 410.749 960.854 474.488 982.625C533.69 1002.86 594.714 1020.7 646.855 1003.6C713.251 981.79 748.594 911.275 818.236 870.238C879.355 834.212 944.593 820.545 1007.61 827.701C1047.3 832.219 1087.01 848.941 1125.98 867.543C1244.02 923.917 1265.6 1050.35 1366.73 1072.24C1471.34 1094.63 1537.22 1052.97 1566.76 1014.48C1602.02 968.541 1639.4 856.515 1555.82 766.449C1517.54 725.184 1479.14 678.035 1445.3 627.545C1399.86 559.745 1394.54 464.63 1441.84 403.587C1476.88 358.374 1535.36 331.079 1567.86 278.445C1592.23 238.983 1599.56 193.295 1594.6 151.878C1589.25 107.254 1571.01 65.2296 1543.28 28.1785" stroke="#0049FF" stroke-miterlimit="10"/>
<path d="M132.328 1126.81C141.648 1049.31 202.938 975.393 280.609 955.235C347.232 937.944 419.076 956.64 482.834 979.911C541.295 1001.23 600.535 1021.4 652.506 1007.66C718.636 990.199 757.263 924.752 826.847 884.322C889.087 848.144 953.47 830.226 1017.55 834.44C1058.66 837.135 1100.4 852.68 1140.87 871.453C1255.48 924.638 1279.41 1045 1378 1066.56C1479.06 1088.39 1544.49 1049.99 1575.03 1012.2C1611.03 967.687 1646.38 860.178 1569.48 771.916C1533.21 730.271 1496.75 682.534 1463.46 632.385C1419.68 566.426 1413.4 475.336 1456.77 415.147C1489.52 369.706 1545.28 340.722 1577.66 288.827C1602.4 249.195 1611.55 204.076 1608.85 162.508C1605.89 117.029 1590.08 73.3724 1563.75 34.4421" stroke="#0049FF" stroke-miterlimit="10"/>
<path d="M135.203 1130.03C146.99 1050.67 207.939 974.065 287.527 952.388C354.511 934.147 427.399 952.407 491.156 977.159C548.878 999.556 606.334 1022.05 658.133 1011.7C723.979 998.569 765.927 938.19 835.417 898.387C898.776 862.076 962.306 839.849 1027.47 841.159C1070 842.013 1113.76 856.42 1155.76 875.363C1266.88 925.473 1293.22 1039.64 1389.29 1060.88C1486.79 1082.12 1551.75 1047.01 1583.31 1009.92C1620.02 966.814 1653.45 863.67 1583.14 777.363C1548.88 735.301 1514.33 687.013 1481.63 637.207C1439.53 573.107 1432.24 485.965 1471.72 426.687C1502.15 380.999 1555.22 350.326 1587.47 299.191C1612.56 259.406 1623.57 214.82 1623.1 173.137C1622.56 126.804 1609.14 81.5342 1584.24 40.7058" stroke="#0049FF" stroke-miterlimit="10"/>
<path d="M138.094 1133.24C152.368 1052.02 212.974 972.755 294.46 949.541C361.786 930.351 435.737 948.155 499.494 974.425C556.476 997.905 612.147 1022.71 663.795 1015.77C729.356 1006.96 774.626 951.667 844.04 912.452C908.537 876.008 971.213 849.416 1037.42 847.897C1081.4 846.872 1127.12 860.197 1170.67 879.273C1278.25 926.403 1307.03 1034.31 1400.59 1055.21C1494.54 1075.88 1559 1044.03 1591.61 1007.64C1629.02 965.922 1660.63 867.03 1596.81 782.83C1564.58 740.293 1531.95 691.531 1499.8 642.047C1459.37 579.789 1451.04 496.556 1486.66 438.246C1514.78 392.255 1565.17 359.968 1597.29 309.592C1622.76 269.637 1635.63 225.601 1637.36 183.785C1639.29 136.598 1628.21 89.6961 1604.73 46.9885" stroke="#0049FF" stroke-miterlimit="10"/>
<path d="M140.984 1136.47C157.726 1053.41 218.01 971.464 301.394 946.694C369.081 926.593 444.075 943.885 507.833 971.673C564.093 996.197 617.961 1023.34 669.438 1019.81C734.714 1015.33 783.306 965.144 852.625 926.517C918.242 889.959 980.064 858.944 1047.35 854.616C1092.75 851.693 1140.47 863.993 1185.55 883.164C1289.55 927.409 1320.83 1028.94 1411.85 1049.53C1502.25 1069.63 1566.2 1041.03 1599.87 1005.38C1637.97 965.049 1667.86 870.257 1610.45 788.296C1580.27 745.209 1549.52 696.029 1517.95 646.887C1479.17 586.489 1469.76 507.091 1501.59 449.806C1527.35 403.473 1575.1 369.63 1607.07 319.975C1632.9 279.868 1647.71 236.363 1651.58 194.415C1656.02 146.374 1647.25 97.8581 1625.18 53.2524" stroke="#0049FF" stroke-miterlimit="10"/>
<path d="M143.859 1139.69C163.068 1054.77 223.03 970.212 308.312 943.847C376.359 922.816 452.417 939.614 516.155 968.94C571.694 994.488 623.74 1024 675.084 1023.87C740.056 1023.7 791.989 978.639 861.232 940.601C927.989 903.929 988.937 868.454 1057.29 861.355C1104.11 856.496 1153.81 867.827 1200.44 887.074C1300.82 928.51 1334.64 1023.59 1423.13 1043.86C1509.97 1063.39 1573.42 1038.01 1608.16 1003.11C1646.94 964.138 1675.26 873.313 1624.12 793.763C1596.03 750.068 1567.1 700.547 1536.12 651.727C1498.98 593.208 1488.44 517.569 1516.54 461.366C1539.88 414.653 1585.06 379.272 1616.89 330.358C1643.1 290.08 1659.84 247.126 1665.84 205.063C1672.83 156.168 1666.34 106.02 1645.68 59.5352" stroke="#0049FF" stroke-miterlimit="10"/>
<path d="M146.75 1142.92C168.445 1056.16 228.065 968.959 315.245 941.019C383.653 919.095 460.774 935.324 524.493 966.206C579.33 992.78 629.554 1024.65 680.727 1027.93C745.415 1032.07 800.688 992.135 869.817 954.666C937.712 917.881 997.769 877.906 1067.22 868.074C1115.45 861.26 1167.12 871.68 1215.33 890.984C1312.06 929.687 1348.41 1018.42 1434.41 1038.18C1517.66 1057.3 1580.62 1034.99 1616.44 1000.83C1655.86 963.207 1682.8 876.217 1637.77 799.211C1611.83 754.833 1584.68 705.045 1554.3 656.548C1518.8 599.89 1507.05 527.97 1531.48 472.925C1552.4 425.795 1595.01 388.915 1626.69 340.759C1653.28 300.33 1671.98 257.926 1680.08 215.712C1689.63 165.962 1685.4 114.201 1666.15 65.8179" stroke="#0049FF" stroke-miterlimit="10"/>
<path d="M149.648 1146.13C173.811 1057.51 233.127 967.706 322.187 938.153C390.974 915.337 469.139 930.997 532.839 963.454C586.955 991.034 635.375 1025.28 686.378 1031.96C750.781 1040.4 809.394 1005.61 878.429 968.712C947.463 931.832 1006.61 887.302 1077.16 874.794C1126.8 865.986 1180.42 875.572 1230.22 894.876C1323.27 930.902 1362.22 1013.07 1445.68 1032.49C1525.38 1051.03 1587.81 1031.94 1624.71 998.531C1664.78 962.259 1690.5 878.969 1651.42 804.658C1627.69 759.521 1602.24 709.544 1572.45 661.37C1538.59 606.59 1525.57 538.334 1546.41 484.466C1564.82 436.88 1604.95 398.557 1636.5 351.123C1663.47 310.542 1684.16 268.707 1694.33 226.341C1706.48 175.776 1704.47 122.344 1686.64 72.0818" stroke="#0049FF" stroke-miterlimit="10"/>
<path d="M152.539 1149.36C179.17 1058.89 238.182 966.491 329.12 935.305C398.288 911.598 477.515 926.65 541.178 960.721C594.609 989.306 641.189 1025.92 692.04 1036.02C756.158 1048.77 818.112 1019.13 887.033 982.796C957.206 945.821 1015.42 896.717 1087.11 881.532C1138.13 870.731 1193.71 879.539 1245.15 898.785C1334.49 932.23 1376.06 1007.72 1457 1026.81C1533.15 1044.79 1595.03 1028.88 1633.03 996.254C1673.74 961.29 1698.44 881.627 1665.11 810.125C1643.7 764.19 1619.84 714.08 1590.64 666.21C1558.4 613.328 1544.05 548.679 1561.38 496.025C1577.21 447.946 1614.94 408.218 1646.32 361.506C1673.67 320.791 1696.37 279.507 1708.59 236.971C1723.38 185.589 1723.53 130.506 1707.13 78.3455" stroke="#0049FF" stroke-miterlimit="10"/>
<path d="M155.43 1152.58C184.528 1060.26 243.255 965.277 336.054 932.477C405.601 907.897 485.91 922.322 549.516 957.988C602.245 987.56 647.003 1026.55 697.682 1040.08C761.516 1057.13 826.811 1032.64 895.637 996.88C966.968 959.81 1024.21 906.112 1097.05 888.27C1149.45 875.439 1206.98 883.544 1260.04 902.696C1345.66 933.597 1389.85 1002.37 1468.26 1021.14C1540.86 1038.52 1602.17 1025.83 1641.29 993.976C1682.63 960.323 1706.53 884.189 1678.74 815.572C1659.8 768.765 1637.36 718.579 1608.8 671.031C1578.16 620.029 1562.39 558.986 1576.3 507.566C1589.45 458.974 1624.89 417.861 1656.1 371.889C1683.85 331.022 1708.54 290.327 1722.83 247.6C1740.28 195.44 1742.59 138.668 1727.6 84.6094" stroke="#0049FF" stroke-miterlimit="10"/>
<path d="M158.305 1155.79C189.889 1061.61 248.313 964.062 342.991 929.611C412.917 904.176 494.309 917.956 557.857 955.235C609.923 985.776 652.82 1027.15 703.348 1044.12C766.915 1065.46 835.532 1046.15 904.244 1010.93C976.733 973.78 1033.01 915.432 1107 894.97C1160.75 880.089 1220.24 887.587 1274.95 906.568C1356.83 935.001 1403.68 996.975 1479.56 1015.42C1548.62 1032.22 1609.35 1022.69 1649.59 991.66C1691.54 959.297 1714.87 886.657 1692.44 821.001C1676.11 773.263 1654.93 723.077 1626.99 675.833C1597.95 626.729 1580.66 569.273 1591.27 519.087C1601.65 469.983 1634.88 427.484 1665.94 382.233C1694.07 341.215 1720.79 301.127 1737.12 258.211C1757.22 205.272 1761.7 146.791 1748.13 90.854" stroke="#0049FF" stroke-miterlimit="10"/>
<path d="M161.195 1159.02C195.247 1062.99 253.387 962.885 349.925 926.783C420.231 900.475 502.723 913.591 566.196 952.502C617.577 984.011 658.672 1027.71 708.991 1048.19C772.331 1073.7 844.231 1059.69 912.848 1025.01C986.495 987.788 1041.77 924.809 1116.93 901.709C1172.04 884.777 1233.48 891.724 1289.83 910.497C1367.98 936.501 1417.52 991.489 1490.84 1009.77C1556.36 1025.85 1616.52 1019.62 1657.88 989.401C1700.43 958.31 1723.42 889.162 1706.09 826.467C1692.63 777.781 1672.45 727.633 1645.16 680.673C1617.71 633.467 1598.83 579.599 1606.21 530.647C1613.71 481.03 1644.85 437.145 1675.74 392.616C1704.27 351.465 1733.02 311.984 1751.36 268.84C1774.15 215.161 1780.76 154.953 1768.59 97.1177" stroke="#0049FF" stroke-miterlimit="10"/>
<path d="M164.07 1162.24C200.59 1064.36 258.444 961.708 356.824 923.936C427.528 896.774 511.121 909.206 574.499 949.769C625.236 982.227 664.47 1028.35 714.618 1052.25C777.673 1082.07 852.933 1073.22 921.417 1039.09C996.222 1001.82 1050.47 934.148 1126.85 908.466C1183.3 889.485 1246.66 895.976 1304.7 914.426C1379.11 938.077 1431.31 986.156 1502.09 1004.11C1564.06 1019.62 1623.62 1016.51 1666.12 987.143C1709.29 957.323 1732.18 891.725 1719.71 831.953C1709.34 782.318 1689.94 732.207 1663.28 685.533C1637.4 640.244 1616.83 590.001 1621.1 542.225C1625.58 492.115 1654.79 446.845 1685.5 403.018C1714.45 361.734 1745.22 322.879 1765.56 279.508C1791.06 225.108 1799.77 163.134 1789.03 103.42" stroke="#0049FF" stroke-miterlimit="10"/>
<path d="M166.969 1165.47C205.956 1065.72 263.545 960.55 363.765 921.088C434.868 893.091 519.562 904.802 582.845 947.016C632.917 980.423 670.291 1028.98 720.268 1056.27C783.058 1090.4 861.716 1086.87 930.029 1053.14C1006.07 1015.96 1059.21 943.448 1136.79 915.166C1194.55 894.097 1259.86 900.266 1319.62 918.298C1390.28 939.614 1445.14 980.765 1513.39 998.398C1571.82 1013.34 1630.79 1013.34 1674.43 984.827C1718.2 956.241 1741.23 894.344 1733.39 837.363C1726.42 786.816 1707.46 736.706 1681.47 690.316C1657.18 646.944 1634.84 600.364 1636.07 553.728C1637.42 503.181 1664.88 456.506 1695.33 413.362C1724.75 372.002 1757.49 333.736 1779.83 290.099C1808.04 234.997 1818.86 171.258 1809.54 109.645" stroke="#0049FF" stroke-miterlimit="10"/>
<path d="M169.844 1168.68C211.299 1067.09 268.678 959.544 370.683 918.241C442.223 889.504 527.999 900.399 591.168 944.283C640.614 978.639 676.089 1029.64 725.896 1060.33C788.401 1098.79 870.38 1100.35 938.598 1067.21C1015.78 1029.91 1067.88 952.768 1146.71 921.886C1205.78 898.729 1273.01 904.689 1334.49 922.189C1401.43 941.246 1458.93 975.412 1524.64 992.704C1579.51 1007.05 1637.88 1010.15 1682.68 982.53C1727.04 955.16 1750.42 897.172 1747.02 842.81C1743.8 791.447 1724.91 741.261 1699.63 695.156C1676.89 653.701 1652.73 610.88 1651 565.287C1649.08 514.38 1674.82 466.168 1705.13 423.745C1734.93 382.214 1769.72 344.651 1794.08 300.728C1825 244.943 1837.92 179.401 1830.01 115.909" stroke="#0049FF" stroke-miterlimit="10"/>
<path d="M172.734 1171.9C216.676 1068.46 273.733 958.272 377.636 915.394C449.536 885.726 536.489 895.957 599.525 941.55C648.325 976.836 681.941 1030.29 731.577 1064.4C793.816 1107.16 879.098 1113.84 947.24 1081.29C1025.54 1043.88 1076.62 962.107 1156.68 928.624C1217.06 903.379 1286.17 909.282 1349.41 926.118C1412.64 942.955 1472.77 970.079 1535.96 987.067C1587.26 1000.85 1645.06 1007.02 1691 980.29C1735.96 954.134 1759.88 900.323 1760.71 848.315C1761.55 796.306 1742.42 745.874 1717.82 700.034C1696.61 660.496 1670.57 621.528 1665.96 576.904C1660.66 525.731 1684.77 475.867 1714.95 434.185C1745.13 392.502 1781.99 355.622 1808.34 311.434C1841.99 254.984 1857.01 187.639 1850.51 122.249" stroke="#0049FF" stroke-miterlimit="10"/>
<path d="M925.289 1557.18C869.978 1522.98 867.397 1439.16 899.835 1382.79C932.274 1326.41 988.781 1289.15 1039.01 1247.83C1089.23 1206.51 1137.52 1153.44 1141.67 1088.52C1146.97 1005.55 1078.37 930.218 1087.16 847.536C1094.01 783.095 1146.65 734.352 1201.96 707.133C1233.24 691.739 1269.38 686.349 1301.74 673.631C1448.54 615.986 1579.06 709.05 1670.53 633.353C1769.57 551.393 1764.52 459.657 1746.22 414.463C1722.78 356.571 1644.28 228.315 1489.67 263.658C1426.87 278.008 1362.42 290.213 1298.14 286.227C1201.86 280.267 1108.25 204.513 1102.1 108.26C1097.88 42.3002 1132.11 -26.3166 1108.29 -87.9862C1092.29 -129.422 1051.74 -158.102 1008.5 -168.295C965.263 -178.488 919.652 -172.357 876.906 -160.228" stroke="#0049FF" stroke-miterlimit="10"/>
<path d="M929.595 1556.96C874.398 1519.66 869.387 1434.34 901.94 1375.61C933.714 1318.29 990.771 1280.08 1042.08 1239.63C1092.78 1199.66 1141.65 1149.32 1148.35 1086.68C1156.84 1006.62 1094.29 931.926 1103.5 849.681C1110.98 784.291 1159.82 733.953 1213.4 703.64C1244.19 686.235 1280.63 678.187 1314.1 664.52C1455.94 606.571 1583.51 694.985 1673.14 621.053C1769.51 541.504 1766.8 452.121 1749.6 406.624C1727.83 348.959 1651.86 225.772 1502.45 256.464C1440.85 269.124 1376.9 279.374 1313.24 275.122C1219.46 269.049 1128.63 196.674 1120.43 103.894C1114.76 39.6996 1145.83 -27.987 1122.5 -89.0683C1106.61 -130.903 1067.66 -160.418 1025.7 -172.68C983.35 -185.056 937.928 -182.057 894.613 -172.206" stroke="#0049FF" stroke-miterlimit="10"/>
<path d="M933.922 1556.73C878.819 1516.34 871.398 1429.54 904.064 1368.42C935.212 1310.16 992.763 1270.99 1045.17 1231.41C1096.32 1192.77 1145.81 1145.18 1155.05 1084.8C1166.72 1007.66 1110.07 933.559 1119.84 851.769C1127.79 785.411 1173.01 733.403 1224.86 700.091C1255.18 680.616 1291.91 669.968 1326.45 655.333C1463.38 597.308 1587.97 680.844 1675.76 608.678C1769.45 531.539 1769.05 444.529 1752.99 398.709C1732.86 341.31 1659.44 223.095 1515.24 249.213C1454.8 260.166 1391.4 268.479 1328.37 263.962C1237.07 257.774 1149.02 188.74 1138.77 99.4523C1131.61 37.0044 1159.55 -29.7332 1136.7 -90.245C1120.92 -132.459 1083.53 -162.867 1042.87 -177.16C1001.38 -191.756 956.205 -191.832 912.283 -184.278" stroke="#0049FF" stroke-miterlimit="10"/>
<path d="M938.24 1556.48C883.251 1513.01 873.438 1424.71 906.2 1361.22C936.74 1302.04 994.765 1261.89 1048.25 1223.17C1099.86 1185.84 1149.96 1141.02 1161.74 1082.92C1176.62 1008.71 1125.92 935.21 1136.19 853.876C1144.7 786.55 1186.21 732.796 1236.34 696.561C1266.18 674.979 1303.19 661.787 1338.84 646.166C1470.93 588.235 1592.46 666.722 1678.41 596.321C1769.42 521.593 1771.34 436.956 1756.4 390.832C1737.9 333.698 1666.94 220.362 1528.04 241.982C1468.72 251.206 1405.93 257.432 1343.51 252.839C1254.71 246.29 1169.35 180.824 1157.13 95.0488C1148.47 34.3471 1173.15 -31.3845 1150.92 -91.3838C1135.15 -133.958 1099.43 -165.296 1060.08 -181.601C1019.44 -198.437 974.494 -201.588 930.002 -196.311" stroke="#0049FF" stroke-miterlimit="10"/>
<path d="M942.552 1556.25C887.659 1509.69 875.473 1419.95 908.311 1354.05C938.244 1293.95 996.706 1252.8 1051.33 1214.97C1103.36 1178.93 1154.1 1136.9 1168.45 1081.06C1186.52 1009.75 1141.82 936.861 1152.56 855.983C1161.63 787.689 1199.41 732.131 1247.81 693.011C1277.17 669.284 1314.47 653.625 1351.22 636.979C1478.52 579.314 1596.96 652.581 1681.05 583.945C1769.39 511.608 1773.62 429.382 1759.82 382.916C1742.93 326.068 1674.39 217.515 1540.88 234.731C1482.66 242.228 1420.5 246.499 1358.68 241.678C1272.37 234.958 1189.71 172.852 1175.51 90.607C1165.33 31.6137 1186.88 -33.1309 1165.18 -92.5608C1149.5 -135.515 1115.36 -167.821 1077.32 -186.1C1037.52 -205.214 992.814 -211.383 947.734 -208.403" stroke="#0049FF" stroke-miterlimit="10"/>
<path d="M946.867 1556.03C892.088 1506.37 877.529 1415.19 910.423 1346.87C939.787 1285.89 998.648 1243.71 1054.41 1206.77C1106.86 1172.02 1158.34 1132.82 1175.13 1079.22C1196.53 1010.87 1157.71 938.551 1168.91 858.109C1178.55 788.847 1212.55 731.391 1259.28 689.5C1288.17 663.609 1325.77 645.501 1363.58 627.83C1486.16 570.583 1601.43 638.478 1683.7 571.608C1769.36 501.682 1775.89 421.847 1763.23 375.039C1747.95 318.476 1681.74 214.611 1553.67 227.518C1496.5 233.269 1435 235.585 1373.81 230.555C1289.99 223.665 1209.96 164.899 1193.87 86.2227C1182.14 28.9187 1200.59 -34.801 1179.4 -93.6804C1163.82 -137.014 1131.23 -170.307 1094.52 -190.522C1055.55 -211.971 1011.12 -221.12 965.45 -220.417" stroke="#0049FF" stroke-miterlimit="10"/>
<path d="M951.201 1555.8C896.516 1503.07 879.642 1410.42 912.574 1339.68C941.387 1277.8 1000.63 1234.58 1057.53 1198.55C1110.38 1165.09 1162.54 1128.7 1181.86 1077.34C1206.46 1011.93 1173.64 940.202 1185.28 860.216C1195.49 790.005 1225.71 730.594 1270.77 685.969C1299.14 657.858 1337.07 637.377 1375.98 618.681C1493.87 562.003 1605.94 624.375 1686.36 559.27C1769.34 491.754 1778.15 414.311 1766.67 367.181C1752.96 310.921 1689.07 211.612 1566.51 220.305C1510.37 224.291 1449.55 224.69 1389 219.432C1307.69 212.371 1230.22 156.927 1212.27 81.8189C1198.96 26.1852 1214.34 -36.5095 1193.68 -94.8005C1178.2 -138.514 1147.18 -172.851 1111.78 -194.945C1073.65 -218.747 1029.46 -230.838 983.203 -232.433" stroke="#0049FF" stroke-miterlimit="10"/>
<path d="M955.515 1555.57C900.944 1499.75 881.735 1405.68 914.687 1332.5C942.95 1269.75 1002.53 1225.47 1060.59 1190.34C1113.84 1158.12 1166.68 1124.58 1188.53 1075.48C1216.33 1012.99 1189.53 941.873 1201.61 862.323C1212.41 791.143 1238.77 729.739 1282.2 682.438C1310.06 652.088 1348.33 629.291 1388.32 609.513C1501.58 553.519 1610.38 610.253 1688.96 546.913C1769.29 481.808 1780.34 406.776 1770.03 359.285C1757.89 303.329 1694.56 192.82 1579.27 213.073C1524.87 222.621 1464.04 213.776 1404.1 208.29C1325.27 201.077 1250.33 148.917 1230.59 77.3963C1215.69 23.4139 1228.03 -38.2177 1207.87 -95.9583C1192.48 -140.07 1163.04 -175.47 1128.95 -199.405C1091.65 -225.599 1047.71 -240.613 1000.88 -244.486" stroke="#0049FF" stroke-miterlimit="10"/>
<path d="M959.839 1555.34C905.383 1496.43 883.839 1400.95 916.809 1325.33C944.56 1261.7 1004.46 1216.32 1063.69 1182.14C1117.31 1151.18 1170.83 1120.48 1195.22 1073.64C1226.24 1014.1 1205.46 943.562 1217.96 864.468C1229.37 792.339 1251.85 728.885 1293.68 678.927C1321.01 646.298 1359.64 621.224 1400.7 600.364C1509.36 545.148 1614.86 596.15 1691.6 534.576C1769.25 471.881 1782.56 399.259 1773.45 351.427C1762.85 295.793 1702 188.227 1592.08 205.86C1538.52 214.459 1478.56 202.88 1419.24 197.186C1342.9 189.84 1270.41 140.926 1248.94 73.0306C1232.39 20.6806 1241.75 -39.8882 1222.1 -97.0593C1206.8 -141.551 1178.96 -178.052 1146.16 -203.809C1109.71 -232.433 1066.02 -250.313 1018.59 -256.501" stroke="#0049FF" stroke-miterlimit="10"/>
<path d="M964.137 1555.1C909.775 1493.1 885.954 1396.19 918.924 1318.12C946.162 1253.62 1006.35 1207.13 1066.77 1173.9C1120.77 1144.19 1174.98 1116.35 1201.91 1071.74C1236.12 1015.14 1221.39 945.213 1234.31 866.536C1246.31 793.44 1264.86 727.936 1305.15 675.358C1331.92 640.452 1370.94 613.138 1413.08 591.158C1517.21 536.834 1619.35 581.99 1694.25 522.181C1769.22 461.897 1784.77 391.705 1776.85 343.493C1767.78 288.182 1709.49 183.728 1604.88 198.591C1552.04 206.107 1493.08 191.947 1434.38 186.006C1360.52 178.528 1290.42 132.878 1267.3 68.5699C1249.06 17.8524 1255.48 -41.6535 1236.33 -98.2552C1221.14 -143.127 1194.89 -180.766 1163.38 -208.308C1127.81 -239.38 1084.33 -260.126 1036.3 -268.592" stroke="#0049FF" stroke-miterlimit="10"/>
<path d="M968.474 1554.87C914.226 1489.78 888.127 1391.46 921.059 1310.94C947.785 1245.59 1008.26 1197.98 1069.85 1165.7C1124.21 1137.21 1179.13 1112.23 1208.62 1069.9C1246.02 1016.22 1237.34 946.903 1250.69 868.662C1263.31 794.617 1277.87 727.006 1316.63 671.847C1342.8 634.625 1382.26 605.147 1425.46 582.009C1525.1 528.672 1623.84 567.887 1696.91 509.843C1769.21 451.97 1786.98 384.207 1780.3 335.615C1772.72 280.646 1717.09 179.439 1617.72 191.378C1565.49 197.642 1507.63 181.071 1449.55 174.883C1378.18 167.272 1310.4 124.868 1285.69 64.1664C1265.7 15.0622 1269.25 -43.3617 1250.57 -99.394C1235.5 -144.664 1210.86 -183.442 1180.61 -212.749C1145.95 -246.308 1102.63 -269.882 1054.04 -280.626" stroke="#0049FF" stroke-miterlimit="10"/>
<path d="M972.78 1554.64C918.627 1486.46 890.269 1386.75 923.164 1303.77C949.414 1237.56 1010.14 1188.8 1072.92 1157.5C1127.65 1130.22 1183.24 1108.13 1215.3 1068.04C1255.88 1017.28 1253.28 948.573 1267.01 870.788C1280.24 795.775 1290.77 726.057 1328.07 668.336C1353.62 628.798 1393.57 597.176 1437.8 572.88C1532.97 520.606 1628.27 553.804 1699.51 497.525C1769.13 442.062 1789.12 376.729 1783.67 327.776C1777.6 273.149 1724.55 194.149 1630.5 184.184C1578.83 178.699 1522.13 170.214 1464.66 163.78C1395.77 156.054 1330.21 116.896 1304.02 59.801C1282.25 12.3292 1282.95 -45.0318 1264.79 -100.476C1249.81 -146.125 1226.82 -186.099 1197.8 -217.134C1164.05 -253.217 1120.93 -279.563 1071.73 -292.603" stroke="#0049FF" stroke-miterlimit="10"/>
<path d="M977.109 1554.41C923.07 1483.16 892.473 1382.04 925.31 1296.59C951.086 1229.53 1012.03 1179.61 1076.04 1149.28C1131.1 1123.2 1187.42 1104.01 1222.02 1066.18C1265.77 1018.35 1269.27 950.243 1283.39 872.895C1297.25 796.933 1303.72 725.07 1339.57 664.786C1364.48 622.914 1404.96 589.184 1450.21 563.693C1540.96 512.558 1632.91 539.815 1702.19 485.149C1769.25 432.23 1791.3 369.193 1787.11 319.861C1782.5 265.556 1731.57 190.068 1643.33 176.933C1592.48 169.36 1536.67 159.319 1479.84 152.619C1413.45 144.798 1350.03 108.886 1322.41 55.3594C1298.78 9.53894 1296.73 -46.778 1279.04 -101.652C1264.2 -147.701 1242.86 -188.852 1215.04 -221.613C1182.26 -260.221 1139.25 -289.357 1089.48 -304.675" stroke="#0049FF" stroke-miterlimit="10"/>
<path d="M981.412 1554.18C927.467 1479.84 894.649 1377.34 927.41 1289.4C952.712 1221.48 1013.89 1170.37 1079.11 1141.06C1134.51 1116.16 1191.53 1099.87 1228.7 1064.3C1275.64 1019.39 1285.22 951.913 1299.72 875.002C1314.23 798.09 1316.58 724.083 1351.03 661.256C1375.27 617.049 1416.33 581.269 1462.58 554.525C1548.97 504.585 1637.4 525.692 1704.82 472.811C1769.2 422.302 1793.42 361.696 1790.52 311.984C1787.35 258.021 1738.55 185.797 1656.13 169.701C1606.1 159.926 1551.19 148.443 1494.98 141.477C1431.07 133.561 1369.71 100.933 1340.78 50.9366C1315.21 6.76752 1310.51 -48.5055 1293.29 -102.811C1278.56 -149.257 1258.92 -191.585 1232.27 -226.074C1200.47 -267.225 1157.56 -299.113 1107.2 -316.728" stroke="#0049FF" stroke-miterlimit="10"/>
<path d="M985.75 1553.96C931.919 1476.51 896.88 1372.63 929.547 1282.22C954.393 1213.47 1015.78 1161.14 1082.19 1132.86C1137.94 1109.12 1195.66 1095.75 1235.39 1062.46C1285.5 1020.47 1301.2 953.603 1316.08 877.128C1331.23 799.267 1329.42 723.134 1362.49 657.744C1386.02 611.202 1427.73 573.411 1474.93 545.376C1556.97 496.689 1641.85 511.589 1707.43 460.473C1769.14 412.375 1795.52 354.198 1793.89 304.126C1792.14 250.504 1745.53 181.337 1668.92 162.508C1619.7 150.417 1565.68 137.623 1510.1 130.392C1448.68 122.4 1389.31 93.0746 1359.13 46.5709C1331.57 4.11012 1324.24 -50.1949 1307.5 -103.911C1292.9 -150.738 1274.95 -194.281 1249.45 -230.478C1218.67 -274.191 1175.83 -308.832 1124.9 -328.724" stroke="#0049FF" stroke-miterlimit="10"/>
<path d="M990.056 1553.71C936.34 1473.17 899.08 1367.9 931.67 1275.03C956.08 1205.43 1017.64 1151.88 1085.28 1124.64C1141.37 1102.05 1199.8 1091.61 1242.11 1060.58C1295.39 1021.5 1317.2 955.273 1332.44 879.216C1348.23 800.387 1342.25 722.128 1373.97 654.195C1396.8 605.318 1439.17 565.553 1487.32 536.189C1565.05 488.812 1646.35 497.449 1710.11 448.098C1769.14 402.41 1797.65 346.663 1797.34 296.211C1797.02 242.912 1752.64 176.592 1681.77 155.257C1633.4 140.698 1580.26 126.747 1525.29 119.231C1466.35 111.164 1408.87 85.2165 1377.52 42.1484C1347.89 1.45282 1338.04 -51.9221 1321.75 -105.069C1307.29 -152.294 1291.04 -197.052 1266.69 -234.938C1236.94 -281.214 1194.16 -318.588 1142.63 -340.777" stroke="#0049FF" stroke-miterlimit="10"/>
<path d="M994.386 1553.48C940.764 1469.87 901.341 1363.22 933.798 1267.84C957.771 1197.4 1019.52 1142.58 1088.38 1116.42C1144.79 1094.97 1203.94 1087.48 1248.81 1058.72C1305.26 1022.54 1333.2 956.962 1348.8 881.341C1365.26 801.583 1355.05 721.16 1385.45 650.664C1407.55 599.453 1450.65 557.77 1499.72 527.04C1573.18 481.03 1650.83 483.326 1712.76 435.76C1769.12 392.464 1799.76 339.146 1800.76 288.333C1801.82 235.357 1759.82 171.675 1694.58 148.025C1647.15 130.828 1594.78 115.909 1540.43 108.089C1483.97 99.9647 1428.35 77.4341 1395.89 37.7255C1364.1 -1.12882 1351.8 -53.6496 1335.97 -106.208C1321.64 -153.832 1307.14 -199.785 1283.89 -239.38C1255.22 -288.218 1212.44 -328.344 1160.34 -352.811" stroke="#0049FF" stroke-miterlimit="10"/>
<path d="M998.718 1553.25C945.21 1466.55 903.604 1358.53 935.929 1260.66C959.484 1189.39 1021.38 1133.3 1091.48 1108.2C1148.23 1087.89 1208.02 1083.22 1255.51 1056.84C1315.08 1023.45 1349.2 958.633 1365.17 883.43C1382.29 802.722 1367.83 720.173 1396.92 647.115C1418.26 593.55 1462.16 550.026 1512.08 517.853C1581.32 473.228 1655.2 469.072 1715.39 423.384C1768.97 382.385 1801.79 331.61 1804.16 280.437C1806.59 227.784 1767.11 166.55 1707.38 140.793C1660.99 120.787 1609.28 105.09 1555.57 96.9467C1501.59 88.7658 1447.75 69.7467 1414.23 33.303C1380.26 -3.6153 1365.59 -55.3958 1350.21 -107.366C1336.01 -155.388 1323.26 -202.537 1301.11 -243.84C1273.55 -295.241 1230.74 -338.101 1178.05 -364.864" stroke="#0049FF" stroke-miterlimit="10"/>
<path d="M1003.02 1553.03C949.604 1463.23 905.852 1353.84 938.044 1253.49C961.182 1181.36 1023.23 1124 1094.54 1100C1151.62 1080.8 1212.15 1079.11 1262.18 1055C1324.94 1024.54 1365.2 960.341 1381.5 885.575C1399.3 803.918 1380.57 719.243 1408.38 643.622C1428.93 587.723 1473.71 542.415 1524.45 508.723C1589.5 465.541 1659.67 454.988 1718.02 411.066C1768.92 372.477 1803.81 324.113 1807.55 272.579C1811.35 220.248 1774.56 161.312 1720.16 133.581C1674.99 110.556 1623.76 94.2895 1570.7 85.824C1519.19 77.6051 1467.14 62.1735 1432.6 28.9186C1396.36 -5.96874 1379.36 -57.1039 1364.46 -108.486C1350.41 -156.907 1339.42 -205.233 1318.33 -248.263C1291.91 -302.226 1249.07 -347.838 1195.79 -376.879" stroke="#0049FF" stroke-miterlimit="10"/>
<path d="M1007.34 1552.8C954.04 1459.92 908.144 1349.15 940.165 1246.31C962.886 1173.35 1025.09 1114.68 1097.63 1091.8C1155.05 1073.7 1216.3 1075.01 1268.88 1053.14C1334.82 1025.58 1381.34 962.049 1397.84 887.681C1416.5 805.132 1393.28 718.275 1419.84 640.092C1439.62 581.876 1485.32 534.841 1536.82 499.555C1597.71 457.835 1664.14 440.866 1720.65 398.709C1768.88 362.531 1805.84 316.558 1810.96 264.702C1816.11 212.675 1782.28 155.94 1732.97 126.367C1689.22 100.098 1638.27 83.4891 1585.85 74.6819C1536.82 66.444 1486.52 54.6757 1450.95 24.4958C1412.4 -8.20872 1393.23 -58.8693 1378.67 -109.644C1364.85 -158.501 1355.55 -207.966 1335.54 -252.724C1310.26 -309.23 1267.36 -357.594 1213.49 -388.932" stroke="#0049FF" stroke-miterlimit="10"/>
<path d="M1011.65 1552.57C958.448 1456.6 910.578 1344.5 942.276 1239.12C964.693 1165.36 1026.91 1105.32 1100.71 1083.59C1158.45 1066.58 1220.44 1070.87 1275.58 1051.28C1344.71 1026.64 1397.29 963.739 1414.2 889.788C1433.49 806.271 1406 717.326 1431.31 636.542C1450.27 575.992 1497.04 527.344 1549.18 490.387C1605.97 450.147 1668.63 426.744 1723.27 386.352C1768.85 352.585 1807.82 309.004 1814.34 256.806C1820.82 205.082 1790.26 150.511 1745.75 119.117C1703.68 89.4492 1652.74 72.7269 1600.96 63.559C1554.4 55.3212 1505.88 47.3111 1469.29 20.0922C1428.4 -10.2966 1406.95 -60.5776 1392.87 -110.783C1379.16 -160.02 1371.69 -210.68 1352.72 -257.165C1328.62 -316.215 1285.63 -367.35 1231.17 -400.966" stroke="#0049FF" stroke-miterlimit="10"/>
<path d="M1015.98 1552.32C962.886 1453.26 912.737 1339.75 944.417 1231.92C966.34 1157.29 1028.79 1095.94 1103.8 1075.35C1161.88 1059.4 1224.6 1066.71 1282.28 1049.38C1354.6 1027.67 1413.25 965.371 1430.56 891.876C1450.45 807.41 1418.72 716.358 1442.79 632.993C1460.93 570.127 1508.84 519.941 1561.57 481.201C1614.3 442.46 1673.12 412.603 1725.95 373.976C1768.84 342.62 1809.84 301.431 1817.8 248.891C1825.58 197.452 1798.62 145.102 1758.59 111.866C1718.58 78.6301 1667.28 61.9457 1616.14 52.3982C1572.05 44.1604 1525.35 40.0225 1487.68 15.6697C1444.47 -12.2705 1420.71 -62.3047 1407.14 -111.921C1393.57 -161.557 1387.91 -213.394 1369.97 -261.607C1347.06 -323.2 1303.98 -377.088 1248.93 -413" stroke="#0049FF" stroke-miterlimit="10"/>
</g>
</svg>
