<svg width="595" height="467" viewBox="0 0 595 467" fill="none" xmlns="http://www.w3.org/2000/svg">
<g opacity="0.2">
<path d="M360.886 106.793C357.745 118.38 353.792 129.806 349.062 140.99C346.958 145.961 344.624 150.994 340.567 154.966C330.186 165.118 312.024 165.437 296.523 163.227C282.246 161.196 268.251 157.695 254.932 152.828C241.734 148.005 228.967 141.779 214.821 139.735C200.679 137.691 184.225 140.976 176.605 151.434C172.074 157.655 171.35 165.526 173.12 172.711C174.891 179.892 178.954 186.504 183.46 192.739C188.621 199.879 194.611 207.105 195.387 215.487C196.189 224.165 190.616 233.036 181.746 237.213C169.125 243.157 153.671 239.427 139.52 237.209C121.54 234.385 102.252 234.412 85.8241 241.306C69.3961 248.204 56.6975 263.189 58.3851 278.855" stroke="#0049FF" stroke-miterlimit="10"/>
<path d="M357.698 104.449C354.635 115.776 350.749 126.937 346.082 137.848C344.004 142.697 341.702 147.606 337.743 151.492C327.634 161.434 310.06 161.981 294.986 160.089C291.408 159.641 287.845 159.094 284.303 158.458C274.11 156.62 264.104 154.011 254.442 150.667C241.546 146.198 229.045 140.367 215.221 138.493C201.403 136.615 185.813 140.044 177.766 149.762C174.745 153.419 172.677 157.359 171.802 161.613C171.203 164.509 171.073 167.516 171.427 170.506C171.589 171.873 171.839 173.24 172.182 174.612C173.568 180.099 176.511 185.468 179.735 190.574C180.053 191.08 180.376 191.582 180.704 192.089C185.746 199.924 191.069 207.934 191.361 216.693C191.642 225.129 186.464 233.712 177.823 237.827C165.531 243.686 150.535 240.328 136.837 238.459C135.759 238.311 134.675 238.177 133.587 238.051C117.148 236.16 99.9598 236.931 85.2923 243.457C69.656 250.414 57.7127 265.076 59.6034 280.298" stroke="#0049FF" stroke-miterlimit="10"/>
<path d="M354.504 102.105C351.524 113.172 347.701 124.073 343.092 134.71C341.04 139.439 338.769 144.217 334.914 148.027C325.07 157.758 308.085 158.538 293.438 156.956C289.959 156.579 286.495 156.113 283.052 155.557C273.135 153.948 263.384 151.586 253.946 148.511C241.352 144.401 229.117 138.964 215.621 137.256C202.131 135.544 187.307 139.098 178.927 148.099C175.546 151.73 172.78 155.306 171.306 159.435C170.301 162.25 169.733 165.239 169.718 168.31C169.707 169.713 169.806 171.143 170.025 172.591C170.9 178.391 173.827 184.258 176.989 189.798C177.302 190.35 177.619 190.897 177.937 191.444C182.859 199.974 187.531 208.732 187.328 217.908C187.146 226.088 182.312 234.394 173.9 238.455C161.931 244.233 147.394 241.247 134.159 239.723C133.117 239.602 132.07 239.495 131.018 239.396C115.147 237.917 98.6931 239.033 84.7705 245.618C69.9259 252.637 58.7326 266.972 60.8317 281.746" stroke="#0049FF" stroke-miterlimit="10"/>
<path d="M351.315 99.7605C348.414 110.572 344.659 121.204 340.112 131.572C338.091 136.18 335.841 140.833 332.09 144.558C322.512 154.078 306.115 155.087 291.901 153.823C288.525 153.522 285.161 153.132 281.812 152.653C272.17 151.272 262.67 149.161 253.461 146.35C241.169 142.599 229.199 137.552 216.027 136.01C202.859 134.468 188.718 138.125 180.087 146.427C176.332 150.039 172.894 153.244 170.821 157.252C169.41 159.981 168.404 162.958 168.024 166.109C167.847 167.552 167.79 169.036 167.878 170.564C168.238 176.678 171.149 183.039 174.254 189.023C174.561 189.614 174.868 190.206 175.181 190.798C179.988 200.023 184.02 209.498 183.301 219.118C182.707 227.029 178.16 235.075 169.977 239.073C158.336 244.766 144.252 242.153 131.475 240.978C130.47 240.884 129.46 240.803 128.444 240.732C113.136 239.66 97.4214 241.126 84.2384 247.774C70.1804 254.856 59.7475 268.863 62.0549 283.193" stroke="#0049FF" stroke-miterlimit="10"/>
<path d="M348.132 97.4207C345.314 107.972 341.626 118.34 337.131 128.434C335.136 132.921 332.918 137.444 329.272 141.093C319.959 150.407 304.15 151.644 290.368 150.689C287.092 150.465 283.826 150.152 280.576 149.753C271.211 148.601 261.966 146.736 252.986 144.194C240.996 140.797 229.292 136.149 216.443 134.772C203.598 133.396 190.061 137.13 181.264 144.759C177.107 148.363 173.018 151.191 170.351 155.073C168.523 157.718 167.086 160.681 166.336 163.908C165.987 165.387 165.778 166.929 165.737 168.538C165.586 174.966 168.476 181.824 171.518 188.243C171.82 188.879 172.122 189.516 172.425 190.152C177.112 200.076 180.529 210.247 179.274 220.332C178.326 227.966 174.008 235.756 166.054 239.696C154.741 245.304 141.116 243.062 128.792 242.238C127.823 242.175 126.849 242.117 125.87 242.072C111.124 241.413 96.1496 243.228 83.7062 249.93C70.4398 257.07 60.7622 270.755 63.2728 284.641" stroke="#0049FF" stroke-miterlimit="10"/>
<path d="M344.94 95.0764C342.2 105.368 338.58 115.471 334.148 125.297C332.179 129.663 329.986 134.06 326.444 137.623C317.397 146.727 302.177 148.197 288.822 147.556C285.65 147.404 282.483 147.171 279.327 146.848C270.238 145.925 261.243 144.311 252.492 142.034C240.804 138.995 229.366 134.737 216.839 133.531C204.323 132.321 191.312 136.095 182.421 143.092C177.847 146.691 173.123 149.134 169.857 152.895C167.623 155.459 165.743 158.399 164.628 161.712C164.112 163.227 163.748 164.827 163.576 166.517C162.914 173.258 165.79 180.609 168.769 187.472C169.066 188.149 169.357 188.83 169.654 189.511C174.222 200.13 177.051 210.982 175.238 221.547C173.977 228.894 169.847 236.442 162.128 240.319C151.143 245.842 137.97 243.972 126.11 243.497C125.173 243.461 124.24 243.435 123.303 243.417C109.125 243.166 94.8847 245.331 83.1809 252.09C70.7063 259.293 61.7787 272.651 64.4976 286.094" stroke="#0049FF" stroke-miterlimit="10"/>
<path d="M341.756 92.7322C339.099 102.764 335.542 112.607 331.167 122.159C329.224 126.404 327.062 130.676 323.625 134.158C314.843 143.052 300.217 144.75 287.289 144.423C284.216 144.347 281.148 144.186 278.091 143.948C269.278 143.253 260.538 141.886 252.011 139.878C240.625 137.198 229.453 133.334 217.249 132.294C205.056 131.249 192.519 135.033 183.586 141.429C178.57 145.019 173.242 147.081 169.377 150.721C166.731 153.2 164.418 156.127 162.934 159.515C162.246 161.071 161.73 162.725 161.434 164.495C160.262 171.551 163.116 179.395 166.038 186.697C166.33 187.418 166.616 188.144 166.903 188.866C171.356 200.18 173.617 211.699 171.215 222.762C169.684 229.822 165.699 237.128 158.209 240.947C147.547 246.389 134.833 244.887 123.432 244.761C122.53 244.752 121.635 244.752 120.733 244.761C107.118 244.923 93.6174 247.433 82.6585 254.251C70.9756 261.517 62.8033 274.547 65.7305 287.546" stroke="#0049FF" stroke-miterlimit="10"/>
<path d="M338.561 90.3879C335.983 100.16 332.493 109.738 328.18 119.017C326.264 123.141 324.133 127.283 320.795 130.685C312.284 139.367 298.241 141.299 285.746 141.281C282.777 141.281 279.808 141.196 276.844 141.034C268.307 140.568 259.823 139.452 251.52 137.709C240.436 135.391 229.529 131.922 217.643 131.048C205.778 130.169 192.314 132.657 184.74 139.753C178.615 142.437 173.344 145.019 168.88 148.534C165.828 150.927 163.073 153.841 161.223 157.31C160.369 158.901 159.697 160.614 159.27 162.465C157.588 169.834 160.421 178.176 163.281 185.917C163.562 186.683 163.843 187.45 164.125 188.216C168.458 200.224 170.187 212.408 167.166 223.968C165.396 230.745 161.526 237.8 154.265 241.561C143.931 246.918 131.67 245.788 120.726 246.012C119.862 246.03 119.002 246.057 118.138 246.093C105.09 246.662 92.3187 249.522 82.1046 256.398C71.2134 263.722 63.7911 276.43 66.9267 288.985" stroke="#0049FF" stroke-miterlimit="10"/>
<path d="M335.376 88.0437C332.881 97.5553 329.454 106.87 325.198 115.879C323.308 119.882 321.203 123.898 317.974 127.22C309.729 135.692 296.275 137.852 284.206 138.152C281.337 138.224 278.467 138.22 275.602 138.139C267.341 137.901 259.106 137.032 251.033 135.557C240.251 133.589 229.61 130.514 218.052 129.806C206.51 129.098 193.478 131.469 185.91 138.085C179.295 140.622 173.466 142.962 168.403 146.351C164.94 148.664 161.752 151.559 159.533 155.105C158.507 156.732 157.684 158.507 157.127 160.434C154.934 168.117 157.752 176.952 160.549 185.132C160.825 185.939 161.101 186.75 161.372 187.566C165.586 200.274 166.815 213.111 163.143 225.178C161.169 231.668 157.377 238.482 150.35 242.18C140.345 247.451 128.542 246.693 118.057 247.267C117.229 247.312 116.406 247.366 115.578 247.433C103.093 248.415 91.0606 251.62 81.5862 258.558C71.4815 265.945 64.8196 278.326 68.1584 290.437" stroke="#0049FF" stroke-miterlimit="10"/>
<path d="M332.187 85.6992C329.775 94.9509 326.41 104.001 322.217 112.741C320.353 116.628 318.28 120.514 315.149 123.75C307.17 132.016 294.304 134.405 282.668 135.014C279.903 135.162 277.132 135.234 274.361 135.23C266.376 135.221 258.396 134.602 250.547 133.396C240.067 131.787 229.691 129.102 218.456 128.564C207.237 128.022 194.632 130.281 187.069 136.417C179.965 138.811 173.574 140.904 167.917 144.172C164.047 146.4 160.417 149.277 157.833 152.908C156.641 154.576 155.661 156.404 154.979 158.413C152.276 166.409 155.073 175.737 157.813 184.361C158.083 185.213 158.354 186.069 158.615 186.925C162.714 200.327 163.48 213.828 159.12 226.393C156.964 232.605 153.229 239.163 146.432 242.803C136.754 247.989 125.405 247.603 115.378 248.527C114.586 248.598 113.8 248.683 113.008 248.773C101.091 250.163 89.7933 253.717 81.0584 260.714C71.7454 268.159 65.8389 280.213 69.3859 291.885" stroke="#0049FF" stroke-miterlimit="10"/>
<path d="M329.003 83.355C326.67 92.3511 323.373 101.137 319.237 109.599C317.399 113.365 315.357 117.121 312.331 120.281C304.617 128.336 292.34 130.958 281.131 131.881C278.464 132.101 275.792 132.253 273.12 132.33C265.411 132.554 257.687 132.177 250.062 131.24C239.889 129.985 229.774 127.699 218.862 127.327C207.971 126.951 195.788 129.098 188.235 134.75C180.641 137 173.693 138.851 167.432 141.994C163.151 144.136 159.088 147 156.135 150.707C154.77 152.411 153.64 154.298 152.827 156.387C149.614 164.697 152.39 174.522 155.067 183.581C155.333 184.478 155.593 185.374 155.848 186.275C159.828 200.372 160.171 214.546 155.083 227.603C152.77 233.537 149.067 239.844 142.504 243.426C133.149 248.531 122.258 248.518 112.69 249.786C111.934 249.885 111.184 249.997 110.429 250.113C99.0743 251.915 88.5165 255.819 80.5264 262.87C72.0051 270.378 66.8486 282.104 70.604 293.333" stroke="#0049FF" stroke-miterlimit="10"/>
<path d="M325.807 81.0107C323.557 89.7469 320.323 98.2679 316.249 106.462C314.437 110.106 312.421 113.737 309.499 116.812C302.051 124.656 290.368 127.507 279.586 128.744C277.023 129.04 274.45 129.268 271.867 129.421C264.439 129.873 256.97 129.748 249.574 129.08C239.704 128.183 229.854 126.287 219.265 126.086C208.697 125.875 196.941 127.906 189.394 133.078C181.31 135.18 173.799 136.79 166.944 139.811C162.251 141.873 157.751 144.719 154.433 148.507C152.902 150.25 151.615 152.191 150.673 154.361C146.949 162.985 149.709 173.303 152.324 182.806C152.584 183.743 152.84 184.688 153.084 185.634C156.944 200.426 156.907 215.285 151.048 228.818C148.594 234.483 144.907 240.526 138.573 244.049C129.547 249.069 119.114 249.428 110.004 251.046C109.285 251.176 108.571 251.31 107.858 251.458C97.0709 253.668 87.2474 257.922 79.997 265.031C72.2675 272.602 67.8662 284 71.8247 294.785" stroke="#0049FF" stroke-miterlimit="10"/>
<path d="M322.616 78.6663C320.444 87.1425 317.277 95.399 313.261 103.324C311.475 106.847 309.49 110.348 306.672 113.347C299.49 120.98 288.395 124.064 278.046 125.61C275.582 125.982 273.108 126.283 270.624 126.52C263.467 127.202 256.248 127.323 249.076 126.919C239.507 126.381 229.924 124.88 219.657 124.844C209.417 124.799 198.088 126.717 190.546 131.415C181.973 133.374 173.9 134.736 166.446 137.637C161.347 139.613 156.409 142.446 152.721 146.315C151.018 148.094 149.581 150.093 148.513 152.343C144.278 161.281 147.018 172.097 149.575 182.035C149.831 183.016 150.075 184.002 150.315 184.993C154.06 200.484 153.685 216.043 147.013 230.037C144.434 235.438 140.747 241.216 134.642 244.676C125.944 249.611 115.964 250.342 107.313 252.31C106.63 252.467 105.953 252.628 105.276 252.803C95.0516 255.425 85.9678 260.024 79.457 267.191C72.5192 274.82 68.8679 285.896 73.04 296.233" stroke="#0049FF" stroke-miterlimit="10"/>
<path d="M319.43 76.322C317.341 84.5382 314.237 92.5303 310.284 100.182C308.523 103.584 306.565 106.959 303.851 109.873C296.939 117.296 286.428 120.608 276.511 122.473C274.152 122.916 271.776 123.297 269.386 123.611C262.505 124.521 255.536 124.889 248.593 124.754C239.327 124.57 230.009 123.463 220.065 123.593C210.148 123.719 199.986 126.704 191.715 129.734C183.152 132.872 174.021 132.67 165.969 135.44C160.458 137.332 155.083 140.147 151.03 144.096C149.16 145.911 147.567 147.973 146.369 150.299C141.624 159.551 144.342 170.86 146.837 181.237C147.082 182.263 147.327 183.294 147.556 184.325C151.181 200.511 150.52 216.796 142.983 231.229C140.295 236.375 136.592 241.875 130.722 245.277C122.346 250.127 112.825 251.229 104.637 253.547C103.991 253.731 103.351 253.919 102.71 254.121C93.048 257.151 84.7038 262.099 78.9326 269.325C72.7813 277.017 69.8905 287.765 74.2657 297.658" stroke="#0049FF" stroke-miterlimit="10"/>
<path d="M316.245 73.9824C314.234 81.9387 311.203 89.6663 307.301 97.0488C305.567 100.33 303.64 103.58 301.03 106.413C294.384 113.629 284.462 117.17 274.972 119.344C272.716 119.864 270.435 120.321 268.143 120.716C261.538 121.854 254.825 122.473 248.105 122.603C239.141 122.778 230.089 122.065 220.469 122.361C210.88 122.652 201.004 125.431 192.879 128.076C183.769 131.039 174.138 130.617 165.486 133.271C159.569 135.077 153.757 137.879 149.335 141.904C147.293 143.76 145.548 145.875 144.22 148.283C138.959 157.848 141.667 169.65 144.1 180.471C144.339 181.537 144.574 182.613 144.798 183.693C148.303 200.574 147.407 217.612 138.954 232.453C136.162 237.352 132.438 242.57 126.797 245.913C118.75 250.683 109.687 252.153 101.952 254.82C101.342 255.031 100.738 255.25 100.134 255.474C91.0397 258.917 83.4247 264.211 78.4036 271.499C73.044 279.253 70.9084 289.675 75.4868 299.124" stroke="#0049FF" stroke-miterlimit="10"/>
<path d="M313.05 71.6379C311.123 79.3342 308.154 86.8019 304.315 93.9109C302.607 97.071 300.711 100.191 298.201 102.943C291.82 109.949 282.486 113.723 273.428 116.211C271.272 116.807 269.095 117.34 266.897 117.811C260.568 119.178 254.11 120.043 247.62 120.442C238.958 120.976 230.171 120.653 220.873 121.119C211.607 121.576 202.034 124.127 194.039 126.408C184.361 129.169 174.246 128.564 164.995 131.092C158.667 132.814 152.417 135.597 147.63 139.703C145.421 141.595 143.52 143.769 142.062 146.256C136.291 156.135 138.978 168.435 141.354 179.69C141.588 180.802 141.817 181.918 142.031 183.043C145.421 200.619 144.338 218.445 134.921 233.663C132.035 238.32 128.28 243.251 122.868 246.532C115.149 251.216 106.539 253.058 99.2627 256.075C98.6898 256.312 98.122 256.559 97.5543 256.814C89.0226 260.665 82.1472 266.308 77.8657 273.655C73.2978 281.468 71.9123 291.566 76.7042 300.572" stroke="#0049FF" stroke-miterlimit="10"/>
<path d="M309.869 69.2937C308.026 76.73 305.119 83.9332 301.338 90.7688C299.655 93.8079 297.785 96.8021 295.384 99.4736C289.269 106.269 280.529 110.272 271.899 113.073C269.846 113.741 267.763 114.355 265.664 114.907C259.612 116.502 253.403 117.618 247.142 118.282C238.782 119.169 230.266 119.245 221.287 119.877C212.343 120.501 203.077 122.804 195.212 124.736C184.967 127.251 174.362 126.507 164.518 128.909C157.783 130.55 151.095 133.316 145.939 137.502C143.558 139.43 141.506 141.662 139.923 144.23C133.641 154.423 136.308 167.216 138.621 178.915C138.85 180.072 139.069 181.232 139.277 182.398C142.548 200.673 141.34 219.324 130.896 234.873C127.922 239.302 124.13 243.928 118.953 247.15C111.562 251.749 103.405 253.964 96.5924 257.33C96.0559 257.594 95.5246 257.868 94.9933 258.15C87.0293 262.413 80.8884 268.402 77.3465 275.806C73.5703 283.682 72.94 293.454 77.9351 302.015" stroke="#0049FF" stroke-miterlimit="10"/>
<path d="M306.679 66.9495C304.913 74.1303 302.074 81.0645 298.356 87.6312C296.704 90.5493 294.861 93.418 292.558 96.0043C286.709 102.589 278.558 106.825 270.354 109.936C268.401 110.68 266.422 111.365 264.416 111.997C258.64 113.822 252.686 115.184 246.65 116.121C238.592 117.367 230.341 117.834 221.685 118.636C213.07 119.425 204.116 121.469 196.371 123.069C185.563 125.297 174.474 124.45 164.031 126.731C156.884 128.287 149.759 131.039 144.238 135.306C141.696 137.269 139.488 139.56 137.774 142.204C130.982 152.711 133.628 166.001 135.883 178.135C136.107 179.332 136.321 180.538 136.519 181.748C139.675 200.722 138.394 220.247 126.872 236.088C123.815 240.293 119.981 244.614 115.033 247.774C107.965 252.292 100.272 254.874 93.9122 258.59C93.4122 258.881 92.9174 259.181 92.4278 259.491C85.0263 264.161 79.625 270.504 76.8228 277.963C73.8382 285.901 73.958 295.345 79.1614 303.463" stroke="#0049FF" stroke-miterlimit="10"/>
<path d="M303.485 64.605C301.802 71.5258 299.026 78.1956 295.364 84.4889C293.739 87.2859 291.921 90.0246 289.729 92.5348C284.145 98.9087 276.582 103.373 268.811 106.802C266.962 107.618 265.076 108.384 263.17 109.097C257.67 111.15 251.971 112.764 246.159 113.965C238.403 115.57 230.418 116.43 222.084 117.394C213.792 118.353 205.177 120.119 197.526 121.401C186.155 123.302 174.582 122.392 163.54 124.548C155.987 126.023 148.424 128.757 142.538 133.105C139.82 135.109 137.46 137.453 135.616 140.183C128.314 150.999 130.944 164.786 133.137 177.364C133.356 178.606 133.559 179.856 133.757 181.111C136.793 200.776 135.496 221.229 122.839 237.303C119.693 241.296 115.829 245.295 111.104 248.401C104.364 252.834 97.1245 255.792 91.2231 259.853C90.7596 260.176 90.296 260.503 89.8481 260.84C83.0144 265.923 78.3474 272.61 76.29 280.127C74.092 288.124 74.9723 297.246 80.384 304.919" stroke="#0049FF" stroke-miterlimit="10"/>
<path d="M300.304 62.2607C298.7 68.9216 295.991 75.3314 292.392 81.3512C290.793 84.0272 289.006 86.6405 286.912 89.0654C281.6 95.2332 274.62 99.9263 267.281 103.665C265.531 104.557 263.75 105.399 261.937 106.188C256.713 108.47 251.265 110.33 245.681 111.8C238.228 113.759 230.508 115.014 222.498 116.148C214.534 117.273 206.273 118.757 198.699 119.725C186.782 121.249 174.703 120.33 163.067 122.361C155.098 123.755 147.098 126.475 140.842 130.904C137.957 132.944 135.446 135.346 133.472 138.152C125.659 149.282 128.269 163.563 130.399 176.58C130.607 177.866 130.81 179.157 130.998 180.457C133.915 200.816 132.659 222.251 118.81 238.508C115.58 242.3 111.674 245.972 107.184 249.015C100.772 253.363 93.9854 256.693 88.5476 261.104C88.1205 261.454 87.6986 261.808 87.2819 262.171C81.0108 267.662 77.0835 274.699 75.7657 282.279C74.3594 290.338 75.9949 299.128 81.6098 306.363" stroke="#0049FF" stroke-miterlimit="10"/>
<path d="M297.114 59.9165C295.593 66.3174 292.947 72.4627 289.405 78.2136C287.832 80.7686 286.077 83.2518 284.087 85.6006C279.04 91.5577 272.649 96.4838 265.737 100.536C264.091 101.504 262.404 102.423 260.69 103.293C255.742 105.803 250.549 107.909 245.189 109.649C238.038 111.966 230.584 113.616 222.896 114.915C215.255 116.206 207.369 117.399 199.859 118.067C187.4 119.174 174.816 118.282 162.575 120.191C154.2 121.496 145.762 124.203 139.142 128.708C136.089 130.779 133.417 133.244 131.318 136.131C122.995 147.574 125.584 162.353 127.657 175.809C127.86 177.135 128.053 178.471 128.235 179.816C131.037 200.874 129.87 223.349 114.776 239.723C111.453 243.327 107.515 246.653 103.254 249.638C97.1707 253.901 90.8422 257.603 85.8576 262.364C85.4669 262.74 85.0763 263.121 84.7013 263.511C78.9978 269.414 75.8049 276.797 75.2268 284.435C74.6122 292.557 76.9977 301.02 82.8209 307.811" stroke="#0049FF" stroke-miterlimit="10"/>
<path d="M293.917 57.5723C289.823 75.0222 276.546 90.3654 259.441 100.384C242.336 110.402 221.668 115.355 201.016 116.39C188.036 117.04 174.921 116.215 162.087 118.004C149.253 119.792 136.226 124.705 129.163 134.105C120.33 145.862 122.903 161.133 124.913 175.029C128.221 197.88 128.174 223.461 110.741 240.933C102.058 249.638 89.7758 255.456 82.1244 264.851C71.5196 277.873 72.3426 296.945 84.0412 309.254" stroke="#0049FF" stroke-miterlimit="10"/>
<path d="M185.469 356.942C193.568 347.296 202.339 338.071 211.72 329.326C215.892 325.44 220.299 321.572 225.83 319.259C239.961 313.342 256.853 319.084 270.166 326.274C282.427 332.894 293.766 340.77 303.866 349.685C313.877 358.52 322.862 368.507 334.987 375.091C347.118 381.676 363.765 384.11 375.484 377.001C382.459 372.769 386.657 365.746 388.245 358.533C389.834 351.317 389.053 343.872 387.693 336.623C386.136 328.322 383.849 319.667 386.896 311.679C390.048 303.409 399.168 297.075 409.226 296.17C423.534 294.883 436.118 303.454 448.176 310.209C463.494 318.788 481.297 325.175 499.548 324.27C517.794 323.369 536.232 313.763 541.707 298.752" stroke="#0049FF" stroke-miterlimit="10"/>
<path d="M187.359 360.165C195.308 350.676 203.97 341.63 213.246 333.096C217.371 329.304 221.731 325.534 227.164 323.257C238.076 318.685 250.639 321.007 261.9 325.512C264.968 326.735 267.942 328.125 270.76 329.577C282.875 335.83 294.115 343.338 304.178 351.877C314.147 360.34 323.091 369.995 335.097 376.337C341.826 379.892 349.8 382.326 357.65 382.765C364.489 383.146 371.276 381.972 376.953 378.632C377.969 378.036 378.927 377.382 379.828 376.678C385.396 372.326 388.777 366.068 390.256 359.663C390.73 357.606 391.027 355.53 391.188 353.446C391.605 348.009 391.115 342.509 390.391 337.134C389.25 328.604 387.735 319.873 391.162 311.903C394.568 303.987 403.314 297.833 413.132 296.905C427.102 295.587 439.43 303.664 451.223 309.944C452.15 310.437 453.092 310.926 454.035 311.401C468.349 318.609 484.553 323.607 501.007 322.459C518.554 321.235 536.149 311.683 541.233 297.013" stroke="#0049FF" stroke-miterlimit="10"/>
<path d="M189.25 363.388C197.053 354.056 205.595 345.194 214.777 336.866C218.856 333.163 223.174 329.497 228.507 327.255C239.221 322.755 251.535 324.853 262.613 329.062C265.634 330.205 268.567 331.509 271.353 332.876C283.323 338.766 294.469 345.902 304.491 354.065C314.418 362.155 323.33 371.47 335.201 377.579C342.185 381.174 350.368 383.711 358.462 384.258C365.494 384.729 372.531 383.626 378.416 380.264C379.469 379.664 380.469 379 381.411 378.279C387.214 373.845 390.678 367.395 392.271 360.788C392.782 358.668 393.115 356.53 393.318 354.392C393.85 348.807 393.558 343.146 393.089 337.641C392.37 328.887 391.605 320.084 395.428 312.118C399.058 304.557 407.455 298.577 417.033 297.627C430.664 296.278 442.738 303.862 454.264 309.667C455.171 310.124 456.093 310.572 457.014 311.011C470.989 317.654 486.667 322.087 502.47 320.639C519.315 319.098 536.071 309.595 540.764 295.265" stroke="#0049FF" stroke-miterlimit="10"/>
<path d="M191.141 366.606C198.797 357.435 207.225 348.753 216.303 340.631C220.34 337.023 224.606 333.455 229.846 331.254C240.367 326.83 252.425 328.699 263.327 332.616C266.306 333.683 269.197 334.898 271.952 336.18C283.776 341.702 294.829 348.466 304.808 356.256C314.694 363.975 323.585 372.944 335.315 378.825C342.56 382.456 350.946 385.101 359.28 385.755C366.504 386.315 373.796 385.28 379.89 381.896C380.984 381.291 382.021 380.618 383 379.883C389.032 375.365 392.579 368.726 394.287 361.918C394.834 359.739 395.204 357.538 395.454 355.342C396.1 349.605 396.001 343.791 395.792 338.152C395.49 329.169 395.464 320.312 399.699 312.342C403.527 305.135 411.6 299.335 420.945 298.362C434.237 296.981 446.055 304.072 457.316 309.402C458.202 309.823 459.098 310.236 460.004 310.635C473.645 316.708 488.797 320.577 503.939 318.828C520.08 316.968 535.993 307.515 540.295 293.525" stroke="#0049FF" stroke-miterlimit="10"/>
<path d="M193.023 369.829C200.529 360.815 208.847 352.312 217.827 344.396C221.817 340.877 226.036 337.417 231.177 335.247C241.5 330.9 253.308 332.54 264.032 336.166C266.965 337.153 269.819 338.282 272.538 339.479C284.216 344.638 295.175 351.03 305.113 358.444C314.952 365.79 323.827 374.406 335.411 380.067C342.917 383.733 351.506 386.481 360.079 387.248C367.496 387.902 375.038 386.934 381.341 383.523C382.471 382.913 383.549 382.232 384.565 381.483C390.831 376.88 394.461 370.049 396.279 363.038C396.857 360.797 397.269 358.538 397.561 356.283C398.326 350.398 398.415 344.427 398.462 338.654C398.576 329.443 399.274 320.541 403.931 312.558C407.936 305.7 415.713 300.079 424.812 299.088C437.766 297.676 449.329 304.27 460.324 309.129C461.189 309.51 462.064 309.886 462.944 310.249C476.247 315.758 490.878 319.062 505.363 317.013C520.802 314.835 535.875 305.431 539.787 291.782" stroke="#0049FF" stroke-miterlimit="10"/>
<path d="M194.914 373.052C202.274 364.195 210.477 355.875 219.358 348.166C223.301 344.741 227.473 341.379 232.52 339.25C242.651 334.978 254.204 336.39 264.751 339.725C267.637 340.631 270.449 341.675 273.137 342.791C284.669 347.583 295.529 353.607 305.425 360.645C315.223 367.615 324.083 375.876 335.515 381.317C343.281 385.015 352.074 387.875 360.887 388.749C368.496 389.493 376.288 388.597 382.804 385.163C383.976 384.549 385.091 383.859 386.148 383.097C392.649 378.413 396.357 371.389 398.295 364.177C398.909 361.877 399.357 359.551 399.696 357.242C400.576 351.209 400.847 345.077 401.165 339.169C401.675 329.73 403.102 320.783 408.202 312.786C412.358 306.278 419.859 300.841 428.718 299.823C441.334 298.38 452.642 304.48 463.371 308.864C464.215 309.209 465.069 309.545 465.929 309.873C478.893 314.817 493.003 317.551 506.827 315.202C521.567 312.705 535.792 303.346 539.318 290.042" stroke="#0049FF" stroke-miterlimit="10"/>
<path d="M196.812 376.275C204.026 367.574 212.115 359.434 220.892 351.935C224.788 348.605 228.913 345.342 233.867 343.249C243.799 339.053 255.102 340.236 265.472 343.275C268.316 344.1 271.087 345.059 273.744 346.09C285.13 350.519 295.896 356.171 305.751 362.828C315.506 369.426 324.356 377.324 335.638 382.555C343.669 386.284 352.665 389.256 361.712 390.237C369.515 391.076 377.557 390.246 384.286 386.786C385.5 386.163 386.651 385.468 387.745 384.693C394.474 379.923 398.271 372.711 400.318 365.297C400.969 362.935 401.454 360.551 401.834 358.184C402.829 351.998 403.292 345.714 403.871 339.672C404.798 329.999 406.912 321.016 412.475 313.001C416.757 306.834 424.007 301.585 432.633 300.549C444.909 299.075 455.962 304.682 466.426 308.586C467.249 308.896 468.082 309.191 468.916 309.483C481.547 313.858 495.131 316.031 508.298 313.382C522.335 310.563 535.721 301.258 538.857 288.294" stroke="#0049FF" stroke-miterlimit="10"/>
<path d="M198.695 379.493C205.758 370.95 213.738 362.993 222.415 355.701C226.27 352.46 230.343 349.3 235.202 347.242C244.943 343.123 255.995 344.078 266.183 346.825C268.98 347.569 271.71 348.448 274.335 349.389C285.575 353.45 296.247 358.731 306.06 365.015C315.775 371.241 324.619 378.767 335.739 383.796C344.042 387.552 353.23 390.641 362.517 391.73C370.512 392.658 378.809 391.896 385.742 388.418C386.992 387.79 388.185 387.086 389.315 386.297C396.279 381.447 400.154 374.038 402.316 366.427C403.003 364.002 403.524 361.559 403.951 359.134C405.066 352.8 405.717 346.355 406.555 340.183C407.899 330.281 410.686 321.258 416.728 313.225C421.114 307.394 428.14 302.342 436.521 301.284C448.454 299.778 459.256 304.893 469.455 308.322C470.257 308.591 471.069 308.855 471.882 309.106C484.174 312.916 497.237 314.521 509.743 311.571C523.077 308.434 535.62 299.178 538.365 286.555" stroke="#0049FF" stroke-miterlimit="10"/>
<path d="M200.586 382.716C207.503 374.329 215.368 366.552 223.941 359.466C227.749 356.319 231.775 353.258 236.536 351.241C246.083 347.197 256.875 347.942 266.886 350.38C269.637 351.048 272.329 351.837 274.923 352.693C286.018 356.391 296.596 361.299 306.368 367.207C316.04 373.061 324.884 380.21 335.843 385.042C344.411 388.825 353.797 392.026 363.324 393.227C371.512 394.249 380.059 393.554 387.205 390.049C388.497 389.417 389.726 388.7 390.898 387.902C398.091 382.967 402.055 375.369 404.331 367.556C405.055 365.073 405.613 362.568 406.081 360.084C407.311 353.598 408.154 347 409.248 340.693C411.009 330.563 414.446 321.5 420.988 313.445C425.457 307.945 432.276 303.091 440.417 302.01C452.011 300.473 462.558 305.094 472.491 308.048C473.273 308.281 474.059 308.505 474.851 308.721C486.805 311.966 499.342 313.006 511.196 309.756C523.827 306.3 535.531 297.093 537.885 284.812" stroke="#0049FF" stroke-miterlimit="10"/>
<path d="M202.477 385.939C209.248 377.709 216.993 370.116 225.473 363.235C229.233 360.179 233.213 357.22 237.88 355.239C247.229 351.272 257.771 351.787 267.605 353.935C270.308 354.522 272.96 355.225 275.522 355.996C286.471 359.327 296.95 363.868 306.685 369.399C316.316 374.876 325.16 381.649 335.953 386.288C344.797 390.094 354.37 393.415 364.142 394.724C372.522 395.836 381.32 395.213 388.679 391.685C390.008 391.049 391.284 390.323 392.487 389.511C399.914 384.491 403.956 376.701 406.347 368.691C407.102 366.145 407.701 363.576 408.217 361.039C409.561 354.405 410.597 347.646 411.951 341.209C414.129 330.85 418.197 321.738 425.259 313.674C429.791 308.497 436.427 303.853 444.328 302.75C455.584 301.181 465.881 305.305 475.543 307.788C476.304 307.986 477.07 308.169 477.84 308.349C489.461 311.029 501.472 311.5 512.665 307.95C524.598 304.176 535.458 295.018 537.422 283.077" stroke="#0049FF" stroke-miterlimit="10"/>
<path d="M204.367 389.162C210.987 381.089 218.623 373.675 227.004 367.005C230.723 364.042 234.65 361.182 239.223 359.242C248.38 355.346 258.667 355.642 268.324 357.489C270.98 358 273.595 358.614 276.126 359.3C286.929 362.267 297.315 366.436 307.008 371.591C316.592 376.696 325.447 383.083 336.072 387.534C345.187 391.358 354.953 394.805 364.964 396.221C373.538 397.427 382.585 396.867 390.153 393.317C391.523 392.676 392.836 391.941 394.075 391.116C401.737 386.015 405.862 378.032 408.363 369.816C409.154 367.211 409.79 364.58 410.352 361.985C411.816 355.198 413.045 348.287 414.655 341.715C417.254 331.128 421.926 321.957 429.53 313.893C434.114 309.03 440.573 304.601 448.235 303.481C459.152 301.88 469.194 305.511 478.585 307.519C479.325 307.676 480.07 307.829 480.814 307.968C492.096 310.079 503.586 309.989 514.123 306.139C525.353 302.042 535.369 292.938 536.942 281.338" stroke="#0049FF" stroke-miterlimit="10"/>
<path d="M206.258 392.38C212.732 384.464 220.253 377.234 228.53 370.766C232.202 367.897 236.082 365.14 240.557 363.231C249.515 359.412 259.552 359.479 269.032 361.035C271.647 361.465 274.22 361.994 276.715 362.599C287.372 365.199 297.664 368.995 307.31 373.774C316.852 378.507 325.712 384.5 336.166 388.772C345.557 392.609 355.516 396.181 365.761 397.709C374.527 399.005 383.83 398.516 391.606 394.939C393.018 394.294 394.367 393.55 395.648 392.707C403.539 387.521 407.748 379.35 410.368 370.932C411.196 368.265 411.868 365.575 412.472 362.922C414.05 355.987 415.472 348.914 417.342 342.213C420.358 331.397 425.624 322.154 433.78 314.104C438.401 309.545 444.698 305.345 452.12 304.198C462.699 302.566 472.486 305.704 481.611 307.237C482.33 307.358 483.054 307.47 483.778 307.573C494.721 309.12 505.691 308.461 515.566 304.31C526.093 299.895 535.27 290.84 536.453 279.581" stroke="#0049FF" stroke-miterlimit="10"/>
<path d="M208.148 395.603C214.472 387.844 221.884 380.797 230.061 374.536C233.686 371.756 237.52 369.103 241.9 367.229C250.666 363.486 260.453 363.325 269.751 364.589C272.319 364.939 274.85 365.382 277.319 365.902C287.83 368.139 298.028 371.564 307.633 375.965C317.134 380.327 326.004 385.93 336.28 390.018C345.953 393.864 356.094 397.571 366.579 399.207C375.538 400.596 385.09 400.175 393.075 396.575C394.523 395.925 395.914 395.172 397.232 394.316C405.357 389.045 409.649 380.681 412.378 372.066C413.243 369.34 413.951 366.584 414.602 363.876C416.295 356.794 417.925 349.569 420.04 342.728C423.499 331.688 429.306 322.352 438.046 314.333C442.687 310.074 448.844 306.103 456.026 304.937C466.267 303.274 475.798 305.919 484.658 306.977C485.356 307.062 486.059 307.134 486.757 307.201C497.362 308.183 507.81 306.959 517.03 302.508C526.853 297.775 535.187 288.769 535.984 277.85" stroke="#0049FF" stroke-miterlimit="10"/>
<path d="M210.039 398.826C216.216 391.224 223.514 384.357 231.587 378.305C235.171 375.62 238.952 373.065 243.239 371.232C251.807 367.566 261.344 367.176 270.464 368.144C272.985 368.413 275.48 368.776 277.913 369.206C288.278 371.08 298.377 374.132 307.945 378.157C317.404 382.147 326.285 387.351 336.39 391.264C346.338 395.119 356.667 398.96 367.391 400.704C376.543 402.183 386.345 401.833 394.544 398.207C396.033 397.553 397.461 396.791 398.815 395.921C407.175 390.569 411.545 382.012 414.389 373.195C415.285 370.407 416.035 367.592 416.727 364.827C418.535 357.592 420.363 350.21 422.728 343.24C426.608 331.971 432.957 322.526 442.302 314.557C446.958 310.585 452.974 306.856 459.917 305.673C469.819 303.978 479.095 306.13 487.689 306.713C488.367 306.757 489.049 306.798 489.726 306.825C499.997 307.242 509.92 305.449 518.483 300.697C527.608 295.646 535.098 286.69 535.499 276.111" stroke="#0049FF" stroke-miterlimit="10"/>
<path d="M211.922 402.049C217.953 394.603 225.136 387.92 233.111 382.075C236.647 379.48 240.382 377.028 244.569 375.23C252.945 371.64 262.227 371.021 271.165 371.698C273.644 371.887 276.092 372.164 278.493 372.51C288.712 374.016 298.718 376.701 308.245 380.349C317.662 383.962 326.558 388.767 336.481 392.51C346.71 396.365 357.221 400.345 368.186 402.201C377.525 403.77 387.582 403.487 395.994 399.843C397.52 399.18 398.989 398.413 400.385 397.53C408.974 392.093 413.433 383.344 416.391 374.329C417.324 371.483 418.11 368.605 418.85 365.782C420.777 358.399 422.793 350.86 425.418 343.755C429.715 332.258 436.59 322.679 446.56 314.785C451.221 311.092 457.107 307.618 463.816 306.412C473.379 304.687 482.4 306.341 490.729 306.453C491.385 306.462 492.041 306.462 492.697 306.453C502.63 306.3 512.027 303.947 519.933 298.895C528.356 293.525 535.002 284.619 535.017 274.381" stroke="#0049FF" stroke-miterlimit="10"/>
<path d="M213.812 405.267C219.693 397.983 226.766 391.474 234.642 385.836C238.132 383.334 241.819 380.981 245.913 379.22C254.091 375.705 263.128 374.854 271.883 375.244C274.316 375.351 276.727 375.544 279.097 375.804C289.171 376.947 299.083 379.255 308.568 382.532C317.943 385.773 326.85 390.175 336.6 393.747C347.117 397.602 357.805 401.726 369.008 403.689C378.54 405.352 388.853 405.137 397.468 401.466C399.036 400.798 400.541 400.022 401.974 399.126C410.797 393.608 415.334 384.666 418.407 375.445C419.376 372.536 420.199 369.6 420.98 366.718C423.022 359.183 425.23 351.487 428.116 344.252C432.83 332.527 440.21 322.791 450.825 314.991C455.492 311.562 461.253 308.353 467.717 307.125C476.941 305.368 485.707 306.529 493.77 306.166C494.406 306.139 495.041 306.098 495.677 306.054C505.271 305.336 514.146 302.414 521.397 297.062C529.116 291.369 534.924 282.517 534.549 272.619" stroke="#0049FF" stroke-miterlimit="10"/>
<path d="M215.703 408.49C221.438 401.363 228.391 395.038 236.168 389.605C239.616 387.198 243.251 384.944 247.252 383.223C255.237 379.785 264.018 378.704 272.597 378.803C274.982 378.83 277.352 378.937 279.691 379.112C289.619 379.888 299.437 381.829 308.875 384.729C318.203 387.597 327.131 391.591 336.699 394.998C347.502 398.844 358.367 403.12 369.816 405.191C379.54 406.943 390.103 406.8 398.932 403.106C400.541 402.434 402.083 401.65 403.552 400.74C412.604 395.137 417.23 386.006 420.412 376.584C421.417 373.612 422.277 370.614 423.105 367.678C425.261 359.995 427.662 352.142 430.808 344.773C435.939 332.823 443.804 322.89 455.086 315.225C459.748 312.056 465.388 309.12 471.613 307.869C480.493 306.081 489.01 306.748 496.807 305.91C497.421 305.843 498.036 305.767 498.645 305.686C507.906 304.404 516.256 300.917 522.845 295.265C529.861 289.254 534.83 280.45 534.064 270.894" stroke="#0049FF" stroke-miterlimit="10"/>
<path d="M217.594 411.712C223.183 404.742 230.022 398.597 237.699 393.375C241.1 391.058 244.689 388.906 248.595 387.221C256.388 383.859 264.914 382.546 273.316 382.353C275.654 382.299 277.988 382.321 280.295 382.416C290.077 382.828 299.801 384.397 309.198 386.916C318.485 389.413 327.428 392.994 336.814 396.235C347.903 400.067 358.95 404.496 370.633 406.679C380.55 408.525 391.364 408.449 400.406 404.729C402.052 404.052 403.635 403.259 405.146 402.335C414.433 396.647 419.136 387.324 422.438 377.705C423.475 374.674 424.376 371.613 425.246 368.619C427.522 360.784 430.116 352.778 433.512 345.274C439.064 333.096 447.393 322.934 459.352 315.44C464.013 312.517 469.529 309.864 475.519 308.595C484.061 306.775 492.322 306.95 499.854 305.637C500.448 305.534 501.041 305.422 501.63 305.3C510.552 303.449 518.381 299.397 524.313 293.445C530.632 287.115 534.752 278.361 533.595 269.146" stroke="#0049FF" stroke-miterlimit="10"/>
<path d="M219.484 414.931C224.922 408.118 231.652 402.156 239.225 397.136C242.579 394.913 246.121 392.864 249.929 391.215C257.523 387.924 265.799 386.374 274.024 385.903C276.321 385.764 278.613 385.706 280.884 385.715C290.519 385.759 300.145 386.961 309.505 389.103C318.75 391.228 327.709 394.393 336.918 397.476C348.299 401.291 359.518 405.881 371.44 408.171C381.55 410.108 392.614 410.099 401.864 406.356C403.552 405.675 405.177 404.872 406.718 403.936C416.24 398.167 421.026 388.651 424.438 378.83C425.511 375.737 426.449 372.617 427.365 369.565C429.756 361.581 432.543 353.415 436.199 345.781C442.168 333.374 450.945 322.943 463.607 315.659C468.269 312.979 473.665 310.617 479.41 309.321C487.613 307.47 495.619 307.152 502.885 305.363C503.458 305.22 504.031 305.072 504.599 304.911C513.183 302.495 520.49 297.878 525.761 291.625C531.376 284.977 534.658 276.273 533.111 267.397" stroke="#0049FF" stroke-miterlimit="10"/>
<path d="M221.375 418.154C226.667 411.497 233.282 405.715 240.756 400.906C244.069 398.772 247.559 396.827 251.272 395.213C258.674 391.999 266.695 390.22 274.742 389.458C276.993 389.238 279.243 389.099 281.488 389.018C290.978 388.7 300.509 389.525 309.828 391.295C319.031 393.043 328.006 395.796 337.032 398.723C348.705 402.51 360.096 407.271 372.258 409.669C382.561 411.699 393.879 411.757 403.338 407.992C405.062 407.306 406.729 406.491 408.307 405.545C418.057 399.691 422.928 389.982 426.454 379.964C427.563 376.813 428.537 373.626 429.496 370.519C432.001 362.388 434.98 354.065 438.897 346.297C445.283 333.661 454.497 322.921 467.873 315.888C472.534 313.436 477.806 311.374 483.311 310.061C491.176 308.183 498.932 307.363 505.927 305.103C506.479 304.924 507.026 304.736 507.573 304.539C515.823 301.558 522.605 296.372 527.22 289.818C532.131 282.853 534.569 274.197 532.637 265.663" stroke="#0049FF" stroke-miterlimit="10"/>
<path d="M223.266 421.377C228.407 414.877 234.912 409.279 242.287 404.675C245.553 402.636 248.996 400.789 252.616 399.211C259.82 396.073 267.596 394.065 275.456 393.012C277.659 392.712 279.873 392.488 282.081 392.322C291.426 391.636 300.864 392.093 310.14 393.487C319.302 394.863 328.297 397.194 337.142 399.969C349.111 403.72 360.669 408.66 373.071 411.166C383.566 413.286 395.134 413.416 404.801 409.624C406.567 408.933 408.27 408.109 409.89 407.145C419.875 401.21 424.829 391.309 428.469 381.089C429.615 377.875 430.626 374.63 431.631 371.465C434.256 363.182 437.423 354.705 441.6 346.803C448.408 333.939 458.049 322.845 472.144 316.108C476.816 313.875 481.951 312.127 487.223 310.791C494.749 308.882 502.249 307.569 508.979 304.834C509.51 304.619 510.036 304.395 510.562 304.158C518.474 300.612 524.73 294.861 528.688 288.007C532.897 280.719 534.496 272.117 532.168 263.924" stroke="#0049FF" stroke-miterlimit="10"/>
<path d="M225.148 424.599C236.758 409.861 255.89 400.121 276.162 396.566C296.434 393.012 317.721 395.307 337.238 401.215C349.504 404.926 361.229 410.045 373.87 412.663C386.511 415.28 400.736 415.074 411.461 408.754C424.888 400.843 429.363 385.903 433.748 372.415C440.952 350.236 452.473 326.655 476.391 316.332C488.303 311.19 502.247 309.899 513.518 303.777C529.144 295.287 536.947 277.42 531.675 262.18" stroke="#0049FF" stroke-miterlimit="10"/>
<path d="M1 102.822C10.9849 94.5922 21.548 86.878 32.6059 79.7331C37.5228 76.5596 42.6689 73.4354 48.5911 72.0189C63.7273 68.3927 79.1449 76.6627 90.7288 85.7978C101.401 94.2112 110.902 103.718 118.97 114.059C126.965 124.306 133.71 135.521 144.258 143.881C154.81 152.24 170.676 157.22 183.697 152.043C191.443 148.964 197.047 142.706 200.12 135.857C203.193 129.008 203.99 121.563 204.172 114.221C204.381 105.816 203.948 96.9455 208.615 89.5585C213.449 81.916 223.746 77.0975 233.83 77.7698C248.175 78.7246 258.754 89.1103 269.197 97.6223C282.468 108.438 298.641 117.484 316.777 119.429C334.914 121.375 355.066 114.785 363.592 100.877" stroke="#0049FF" stroke-miterlimit="10"/>
<path d="M2.1875 106.282C11.9953 98.1824 22.4073 90.6296 33.3246 83.6774C38.179 80.5845 43.2574 77.5589 49.0754 76.1604C60.7636 73.3544 72.634 77.5903 82.77 83.767C85.5305 85.4479 88.1661 87.2723 90.6298 89.1414C101.234 97.1694 110.719 106.3 118.829 116.264C126.861 126.135 133.632 137.018 144.112 145.118C149.987 149.663 157.316 153.293 164.951 154.943C171.603 156.377 178.52 156.279 184.801 153.876C185.921 153.446 187.005 152.953 188.041 152.397C194.432 148.981 199.068 143.351 201.865 137.278C202.766 135.328 203.49 133.329 204.084 131.307C205.631 126.027 206.308 120.536 206.719 115.139C207.386 106.573 207.725 97.7476 212.767 90.4413C217.772 83.1843 227.668 78.4868 237.518 79.0964C251.534 79.966 261.967 89.8272 272.249 97.8328C273.061 98.4648 273.879 99.0878 274.713 99.7019C287.281 109.012 302.167 116.444 318.595 117.869C336.112 119.389 355.42 112.723 363.493 99.0834" stroke="#0049FF" stroke-miterlimit="10"/>
<path d="M3.36719 109.747C12.9979 101.782 23.2589 94.3904 34.0355 87.622C38.8222 84.6143 43.8381 81.6783 49.552 80.3022C61.037 77.5411 72.7043 81.5125 82.7204 87.3755C85.455 88.9712 88.0645 90.7059 90.5177 92.4854C101.055 100.132 110.524 108.882 118.67 118.47C126.744 127.964 133.557 138.511 143.953 146.359C150.073 150.981 157.589 154.746 165.433 156.539C172.251 158.094 179.408 158.099 185.898 155.705C187.059 155.279 188.179 154.782 189.257 154.217C195.893 150.756 200.649 144.952 203.602 138.699C204.55 136.695 205.326 134.642 205.972 132.571C207.665 127.161 208.561 121.549 209.253 116.058C210.378 107.336 211.472 98.559 216.9 91.32C222.056 84.444 231.567 79.8675 241.187 80.4188C254.876 81.2077 265.163 90.54 275.283 98.0391C276.08 98.6307 276.887 99.2135 277.705 99.7917C290.06 108.492 304.55 115.287 320.395 116.314C337.286 117.412 355.756 110.661 363.376 97.2995" stroke="#0049FF" stroke-miterlimit="10"/>
<path d="M4.55469 113.208C14.0083 105.372 24.1182 98.1422 34.749 91.5621C39.4732 88.6395 44.4162 85.7932 50.0311 84.4395C61.3078 81.7232 72.7771 85.4302 82.6787 90.9749C85.3872 92.4854 87.9759 94.1305 90.4135 95.8203C100.883 103.086 110.342 111.455 118.524 120.666C126.629 129.792 133.494 139.999 143.797 147.601C150.162 152.298 157.855 156.198 165.912 158.135C172.902 159.811 180.288 159.923 186.992 157.538C188.195 157.113 189.356 156.611 190.471 156.041C197.352 152.532 202.232 146.552 205.342 140.12C206.336 138.062 207.159 135.956 207.868 133.835C209.706 128.295 210.826 122.558 211.8 116.977C213.384 108.093 215.217 99.3794 221.051 92.1986C226.327 85.7036 235.484 81.2481 244.875 81.7456C258.24 82.4494 268.376 91.2573 278.335 98.2498C279.122 98.8011 279.913 99.3435 280.715 99.8814C292.857 107.972 306.956 114.131 322.212 114.763C338.479 115.44 356.115 108.609 363.277 95.52" stroke="#0049FF" stroke-miterlimit="10"/>
<path d="M5.73438 116.673C15.0057 108.972 24.9698 101.899 35.4599 95.5067C40.1216 92.6648 44.9969 89.9126 50.5076 88.5814C61.5759 85.9099 72.8422 89.3523 82.6344 94.5833C85.3116 96.0087 87.8794 97.5641 90.3066 99.1643C100.708 106.049 110.151 114.041 118.371 122.872C126.512 131.621 133.434 141.478 143.643 148.838C150.258 153.607 158.128 157.646 166.399 159.73C173.556 161.523 181.176 161.743 188.093 159.367C189.333 158.941 190.536 158.439 191.692 157.861C198.818 154.307 203.823 148.152 207.084 141.541C208.126 139.425 209.001 137.265 209.761 135.095C211.746 129.425 213.084 123.566 214.345 117.892C216.386 108.846 218.939 100.2 225.194 93.0727C230.569 86.9498 239.398 82.6288 248.555 83.0635C261.592 83.6821 271.582 91.9656 281.379 98.4471C282.15 98.9581 282.932 99.4601 283.723 99.9577C295.656 107.439 309.355 112.961 324.028 113.194C339.674 113.445 356.467 106.533 363.176 93.7227" stroke="#0049FF" stroke-miterlimit="10"/>
<path d="M6.91406 120.133C16.0083 112.562 25.8213 105.65 36.1708 99.4467C40.7701 96.69 45.5724 94.0275 50.9841 92.7186C61.8441 90.0874 72.9124 93.2699 82.5848 98.1871C85.236 99.5229 87.783 100.993 90.1946 102.504C100.534 109.008 109.956 116.619 118.217 125.073C126.394 133.45 133.379 142.948 143.484 150.08C150.349 154.925 158.396 159.103 166.881 161.326C174.21 163.24 182.064 163.567 189.19 161.201C190.471 160.775 191.71 160.273 192.908 159.686C200.284 156.086 205.404 149.753 208.821 142.962C209.909 140.792 210.837 138.578 211.649 136.359C213.779 130.559 215.326 124.57 216.879 118.811C219.358 109.604 222.634 101.024 229.332 93.9513C234.781 88.1914 243.302 84.0093 252.229 84.3858C264.938 84.9237 274.783 92.6827 284.419 98.6533C285.179 99.1239 285.945 99.5856 286.721 100.043C298.44 106.919 311.743 111.8 325.832 111.634C340.854 111.464 356.808 104.471 363.064 91.9297" stroke="#0049FF" stroke-miterlimit="10"/>
<path d="M8.10156 123.593C17.0187 116.153 26.6807 109.407 36.8896 103.391C41.4211 100.72 46.1609 98.1513 51.4737 96.8604C62.1253 94.274 72.9957 97.1965 82.5535 101.795C85.1734 103.046 87.6996 104.422 90.1008 105.848C100.367 111.966 109.774 119.196 118.071 127.278C126.285 135.283 133.337 144.423 143.333 151.321C150.453 156.234 158.677 160.555 167.371 162.926C174.871 164.961 182.955 165.392 190.294 163.034C191.617 162.613 192.898 162.102 194.132 161.51C201.753 157.866 206.998 151.357 210.566 144.383C211.701 142.159 212.68 139.891 213.55 137.623C215.826 131.693 217.597 125.584 219.431 119.734C222.368 110.366 226.332 101.858 233.484 94.8343C238.984 89.433 247.224 85.3944 255.917 85.7127C268.298 86.1654 277.996 93.4 287.471 98.864C288.216 99.2943 288.971 99.7201 289.731 100.133C301.237 106.399 314.144 110.639 327.65 110.079C342.047 109.487 357.162 102.41 362.964 90.1457" stroke="#0049FF" stroke-miterlimit="10"/>
<path d="M9.28125 127.058C18.0213 119.752 27.5322 113.163 37.5953 107.336C42.0643 104.745 46.7312 102.271 51.945 101.002C62.3883 98.4605 73.0555 101.119 82.504 105.399C85.0978 106.565 87.6032 107.851 89.9887 109.187C100.192 114.929 109.584 121.778 117.917 129.483C126.168 137.112 133.293 145.889 143.174 152.563C150.554 157.543 158.946 162.003 167.852 164.522C175.519 166.678 183.843 167.216 191.395 164.867C192.755 164.446 194.078 163.935 195.354 163.334C203.219 159.641 208.584 152.957 212.308 145.808C213.49 143.531 214.516 141.205 215.443 138.887C217.865 132.827 219.855 126.592 221.975 120.653C225.371 111.123 230.001 102.683 237.632 95.7128C243.164 90.6567 251.138 86.7749 259.602 87.0394C271.66 87.4114 281.213 94.1171 290.52 99.0746C291.255 99.4646 291.994 99.85 292.739 100.222C304.032 105.879 316.543 109.483 329.465 108.523C343.237 107.506 357.519 100.352 362.863 88.3617" stroke="#0049FF" stroke-miterlimit="10"/>
<path d="M10.4688 130.519C19.0317 123.342 28.3916 116.915 38.314 111.276C42.7205 108.77 47.3197 106.385 52.4294 105.139C62.6643 102.643 73.1232 105.05 82.4622 109.003C85.0249 110.088 87.5094 111.28 89.8793 112.526C100.015 117.883 109.391 124.355 117.766 131.684C126.053 138.941 133.257 147.346 143.018 153.805C150.659 158.852 159.216 163.455 168.337 166.118C176.176 168.39 184.728 169.036 192.494 166.7C193.895 166.279 195.26 165.768 196.573 165.159C204.682 161.42 210.172 154.562 214.047 147.229C215.277 144.898 216.355 142.518 217.339 140.151C219.907 133.966 222.121 127.601 224.522 121.572C228.376 111.881 233.658 103.499 241.778 96.5959C247.325 91.8804 255.05 88.1645 263.285 88.3662C275.014 88.6531 284.421 94.8343 293.567 99.2853C294.286 99.6349 295.015 99.9801 295.75 100.312C306.829 105.359 318.944 108.326 331.283 106.968C344.435 105.529 357.873 98.2902 362.764 86.5732" stroke="#0049FF" stroke-miterlimit="10"/>
<path d="M11.6562 133.979C20.0369 126.937 29.2509 120.666 39.0327 115.216C43.3767 112.795 47.903 110.5 52.9137 109.277C62.9403 106.825 73.2012 108.972 82.4257 112.607C84.9623 113.607 87.426 114.709 89.7803 115.866C99.8485 120.841 109.208 126.933 117.62 133.885C125.944 140.77 133.225 148.802 142.866 155.042C150.768 160.156 159.487 164.912 168.821 167.714C176.832 170.107 185.614 170.86 193.593 168.529C195.036 168.108 196.437 167.593 197.797 166.978C206.156 163.195 211.766 156.158 215.792 148.65C217.068 146.265 218.199 143.831 219.235 141.415C221.949 135.1 224.386 128.614 227.064 122.491C231.376 112.638 237.288 104.306 245.924 97.4745C251.471 93.0862 258.966 89.5451 266.967 89.6886C278.369 89.8948 287.629 95.547 296.609 99.4916C297.317 99.8008 298.031 100.106 298.75 100.397C309.615 104.835 321.334 107.165 333.09 105.413C345.617 103.553 358.217 96.2329 362.649 84.7893" stroke="#0049FF" stroke-miterlimit="10"/>
<path d="M12.8359 137.444C21.0395 130.532 30.1025 124.427 39.7436 119.16C44.0199 116.825 48.4837 114.62 53.3902 113.418C63.2085 111.011 73.2715 112.894 82.3814 116.211C84.8867 117.125 87.3295 118.138 89.6734 119.205C99.674 123.8 109.023 129.51 117.472 136.086C125.832 142.594 133.202 150.25 142.718 156.279C150.88 161.456 159.766 166.36 169.308 169.309C177.485 171.824 186.507 172.68 194.695 170.363C196.179 169.946 197.622 169.426 199.018 168.803C207.623 164.975 213.352 157.763 217.535 150.071C218.857 147.632 220.035 145.145 221.128 142.675C223.988 136.229 226.644 129.618 229.608 123.405C234.384 113.396 240.906 105.099 250.068 98.3485C255.594 94.2785 262.876 90.9212 270.647 91.0109C281.72 91.1319 290.835 96.2597 299.654 99.6932C300.351 99.9622 301.049 100.227 301.753 100.478C312.404 104.306 323.728 106 334.9 103.848C346.802 101.562 358.563 94.162 362.542 82.9963" stroke="#0049FF" stroke-miterlimit="10"/>
<path d="M14.0156 140.904C22.0421 134.122 30.954 128.179 40.4546 123.105C44.6683 120.85 49.0592 118.743 53.8667 117.56C63.4818 115.198 73.3365 116.816 82.337 119.819C84.8163 120.648 87.2383 121.567 89.5666 122.549C99.4994 126.762 108.833 132.092 117.318 138.291C125.714 144.427 133.173 151.698 142.559 157.52C150.992 162.751 160.034 167.812 169.79 170.905C178.139 173.54 187.39 174.504 195.791 172.191C197.312 171.774 198.796 171.254 200.234 170.622C209.083 166.745 214.938 159.358 219.277 151.487C220.647 148.995 221.876 146.449 223.027 143.934C226.032 137.359 228.913 130.622 232.158 124.324C237.392 114.153 244.507 105.879 254.221 99.2269C259.722 95.4617 266.795 92.3061 274.337 92.333C285.082 92.3688 294.052 96.9767 302.708 99.8992C303.391 100.128 304.078 100.352 304.766 100.567C315.204 103.785 326.131 104.843 336.721 102.293C348.002 99.5855 358.925 92.1044 362.446 81.2122" stroke="#0049FF" stroke-miterlimit="10"/>
<path d="M15.2031 144.369C23.0525 137.722 31.8186 131.935 41.1681 127.049C45.3193 124.88 49.6425 122.863 54.3459 121.702C63.7526 119.38 73.4094 120.738 82.2901 123.428C84.7433 124.167 87.1393 125.001 89.4571 125.893C99.3275 129.725 108.64 134.674 117.167 140.496C125.6 146.256 133.147 153.141 142.403 158.762C151.106 164.047 160.305 169.264 170.279 172.505C178.801 175.262 188.285 176.329 196.895 174.029C198.458 173.612 199.979 173.088 201.458 172.456C210.552 168.534 216.527 160.972 221.022 152.922C222.444 150.371 223.72 147.776 224.923 145.212C228.074 138.506 231.194 131.653 234.699 125.256C240.418 114.933 248.086 106.65 258.362 100.119C263.821 96.6497 270.707 93.7003 278.014 93.6689C288.437 93.6241 297.255 97.7031 305.75 100.119C306.422 100.307 307.094 100.491 307.771 100.666C318.001 103.275 328.527 103.692 338.533 100.747C349.19 97.6179 359.274 90.0516 362.342 79.4329" stroke="#0049FF" stroke-miterlimit="10"/>
<path d="M16.3828 147.83C24.0499 141.312 32.6702 135.691 41.879 130.989C45.9677 128.905 50.218 126.978 54.8224 125.839C64.0208 123.562 73.4797 124.656 82.2458 127.027C84.673 127.681 87.0481 128.425 89.3503 129.228C99.1529 132.679 108.45 137.251 117.013 142.693C125.482 148.085 133.129 154.585 142.244 159.999C151.223 165.333 160.573 170.717 170.761 174.096C179.449 176.97 189.168 178.149 197.992 175.858C199.596 175.446 201.158 174.917 202.674 174.276C212.018 170.309 218.112 162.572 222.759 154.338C224.227 151.734 225.556 149.085 226.816 146.471C230.113 139.636 233.452 132.657 237.244 126.171C243.421 115.691 251.646 107.385 262.511 100.993C267.922 97.8107 274.621 95.0764 281.699 94.9867C291.794 94.8568 300.466 98.4113 308.8 100.321C309.456 100.473 310.117 100.612 310.779 100.747C320.795 102.75 330.926 102.526 340.348 99.1823C350.38 95.6277 359.625 87.9853 362.24 77.6399" stroke="#0049FF" stroke-miterlimit="10"/>
<path d="M17.5703 151.29C25.0603 144.902 33.5295 139.443 42.5977 134.929C46.6188 132.926 50.8065 131.092 55.3067 129.976C64.2968 127.744 73.5577 128.573 82.2092 130.631C84.6052 131.2 86.9595 131.854 89.2513 132.567C98.9862 135.633 108.268 139.828 116.873 144.894C125.373 149.914 133.113 156.019 142.093 161.241C151.348 166.624 160.849 172.169 171.25 175.692C180.11 178.686 190.059 179.968 199.096 177.687C200.736 177.274 202.341 176.745 203.898 176.095C213.487 172.084 219.701 164.168 224.503 155.759C226.019 153.101 227.394 150.393 228.712 147.731C232.155 140.765 235.718 133.665 239.791 127.085C246.426 116.444 255.198 108.089 266.657 101.872C272.016 98.9624 278.532 96.4568 285.382 96.3133C295.148 96.1027 303.674 99.1283 311.847 100.531C312.492 100.643 313.138 100.742 313.784 100.836C323.587 102.23 333.322 101.369 342.156 97.6267C351.562 93.6508 359.969 85.9232 362.131 75.8557" stroke="#0049FF" stroke-miterlimit="10"/>
<path d="M18.75 154.755C26.0629 148.502 34.3811 143.199 43.3086 138.874C47.2672 136.955 51.3872 135.212 55.7832 134.118C64.565 131.93 73.628 132.495 82.1597 134.239C84.5296 134.723 86.8631 135.283 89.1392 135.911C98.8064 138.596 108.073 142.41 116.714 147.099C125.256 151.743 133.095 157.453 141.934 162.478C151.471 167.902 161.117 173.617 171.727 177.288C180.759 180.403 190.942 181.793 200.187 179.52C201.869 179.108 203.515 178.579 205.109 177.92C214.943 173.859 221.282 165.773 226.235 157.18C227.798 154.468 229.225 151.707 230.595 148.995C234.184 141.904 237.965 134.674 242.319 128.004C249.414 117.206 258.711 108.77 270.784 102.75C276.092 100.106 282.431 97.8419 289.046 97.6357C298.484 97.3399 306.865 99.841 314.875 100.738C315.506 100.809 316.141 100.868 316.777 100.921C326.366 101.706 335.705 100.209 343.955 96.0714C352.742 91.6741 360.31 83.8658 362.013 74.0718" stroke="#0049FF" stroke-miterlimit="10"/>
<path d="M19.9375 158.215C27.0733 152.092 35.2404 146.951 44.0273 142.818C47.9234 140.985 51.9705 139.335 56.2676 138.26C64.841 136.117 73.706 136.417 82.1232 137.843C84.467 138.242 86.7744 138.712 89.0402 139.25C98.6397 141.554 107.89 144.988 116.573 149.304C125.152 153.571 133.095 158.888 141.788 163.72C151.606 169.179 161.398 175.069 172.222 178.884C181.42 182.12 191.837 183.612 201.296 181.349C203.02 180.936 204.703 180.403 206.338 179.74C216.417 175.634 222.881 167.368 227.985 158.596C229.595 155.831 231.074 153.016 232.501 150.254C236.236 143.033 240.241 135.682 244.877 128.923C252.429 117.963 262.247 109.415 274.946 103.629C280.196 101.235 286.358 99.2225 292.744 98.958C301.854 98.577 310.094 100.558 317.938 100.944C318.558 100.975 319.178 100.997 319.797 101.006C329.173 101.181 338.121 99.0477 345.783 94.5115C353.945 89.6884 360.675 81.7994 361.925 72.2788" stroke="#0049FF" stroke-miterlimit="10"/>
<path d="M21.125 161.68C28.0785 155.692 36.0998 150.712 44.7409 146.763C48.5744 145.01 52.5538 143.455 56.7467 142.401C65.1117 140.304 73.7789 140.339 82.0814 141.451C84.394 141.76 86.6858 142.146 88.9307 142.594C98.4625 144.517 107.697 147.57 116.417 151.51C125.032 155.405 133.074 160.318 141.626 164.966C151.731 170.457 161.664 176.53 172.701 180.488C182.071 183.846 192.723 185.446 202.39 183.191C204.15 182.783 205.88 182.245 207.552 181.573C217.88 177.422 224.459 168.982 229.72 160.031C231.376 157.211 232.902 154.338 234.386 151.528C238.267 144.176 242.496 136.7 247.413 129.851C255.424 118.73 265.748 110.03 279.082 104.516C284.28 102.369 290.265 100.612 296.416 100.289C305.203 99.8276 313.292 101.28 320.974 101.154C321.579 101.145 322.188 101.128 322.792 101.096C331.954 100.661 340.507 97.8912 347.585 92.9561C355.122 87.7117 361.013 79.742 361.81 70.4949" stroke="#0049FF" stroke-miterlimit="10"/>
<path d="M22.3047 165.14C29.0811 159.282 36.9513 154.463 45.4518 150.703C49.2176 149.035 53.1293 147.569 57.2232 146.539C65.3799 144.481 73.8491 144.239 82.0371 145.055C84.3237 145.275 86.5894 145.575 88.8239 145.933C98.2932 147.475 107.512 150.147 116.268 153.71C124.914 157.234 133.066 161.738 141.478 166.203C151.874 171.721 161.942 177.978 173.193 182.079C182.73 185.553 193.616 187.261 203.497 185.02C205.299 184.612 207.065 184.074 208.778 183.393C219.352 179.193 226.055 170.578 231.467 161.447C233.17 158.574 234.748 155.647 236.29 152.787C240.316 145.306 244.765 137.708 249.963 130.765C258.437 119.487 269.256 110.594 283.235 105.39C288.382 103.476 294.184 101.993 300.106 101.612C308.565 101.065 316.508 101.993 324.029 101.361C324.623 101.311 325.217 101.253 325.805 101.181C334.754 100.137 342.911 96.7257 349.406 91.3962C356.323 85.7259 361.37 77.6756 361.714 68.7063" stroke="#0049FF" stroke-miterlimit="10"/>
<path d="M23.4844 168.601C30.0837 162.872 37.8029 158.215 46.1627 154.643C49.866 153.06 53.71 151.684 57.6998 150.676C65.6533 148.663 73.9194 148.157 81.9875 148.654C84.2481 148.789 86.4878 148.999 88.7119 149.268C98.1134 150.425 107.317 152.72 116.109 155.907C124.797 159.062 133.053 163.159 141.314 167.44C152.002 172.976 162.205 179.426 173.67 183.675C183.378 187.27 194.494 189.085 204.588 186.849C206.432 186.441 208.234 185.898 209.989 185.213C220.808 180.968 227.631 172.178 233.199 162.868C234.949 159.941 236.579 156.96 238.173 154.051C242.345 146.44 247.017 138.717 252.497 131.684C261.43 120.245 272.743 111.114 287.368 106.269C292.468 104.579 298.083 103.373 303.776 102.934C311.906 102.306 319.703 102.705 327.058 101.567C327.636 101.477 328.22 101.379 328.798 101.271C337.538 99.6169 345.293 95.5693 351.205 89.8408C357.497 83.7493 361.711 75.6182 361.596 66.9224" stroke="#0049FF" stroke-miterlimit="10"/>
<path d="M24.6719 172.066C31.0941 166.472 38.6622 161.971 46.8814 158.592C50.5222 157.095 54.2933 155.808 58.1841 154.822C65.9293 152.854 73.9974 152.083 81.951 152.267C84.1803 152.316 86.4044 152.433 88.6128 152.617C97.9467 153.392 107.135 155.306 115.968 158.117C124.688 160.891 133.048 164.58 141.168 168.682C152.153 174.231 162.487 180.878 174.164 185.271C184.045 188.987 195.395 190.905 205.697 188.682C207.578 188.274 209.427 187.732 211.218 187.037C222.281 182.747 229.23 173.778 234.954 164.289C236.751 161.308 238.433 158.273 240.079 155.311C244.397 147.57 249.293 139.721 255.054 132.598C264.445 121.002 276.253 111.589 291.53 107.147C296.593 105.677 302.015 104.754 307.474 104.256C315.276 103.543 322.928 103.418 330.121 101.773C330.688 101.643 331.256 101.504 331.819 101.356C340.345 99.0925 347.705 94.4084 353.033 88.2809C358.7 81.768 362.075 73.5518 361.508 65.1294" stroke="#0049FF" stroke-miterlimit="10"/>
<path d="M25.8594 175.526C40.3654 162.832 61.2259 156.221 81.9093 155.866C102.593 155.517 123.052 161.08 141.011 169.919C152.298 175.472 162.757 182.331 174.643 186.867C186.53 191.403 200.562 193.411 212.437 188.857C227.303 183.16 234.839 169.157 241.97 156.575C253.705 135.879 269.977 114.472 295.671 108.026C308.468 104.817 322.453 105.713 334.819 101.441C351.971 95.5201 363.383 79.1549 361.393 63.3455" stroke="#0049FF" stroke-miterlimit="10"/>
<path d="M116.562 359.3C114.369 344.06 131.854 331.182 149.485 328.811C167.117 326.444 184.805 331.33 202.275 334.463C219.744 337.596 239.402 338.632 253.996 329.792C272.654 318.492 276.971 294.722 296.165 284.108C311.124 275.833 330.599 278.312 345.928 284.466C354.595 287.945 361.966 293.799 370.247 297.878C407.812 316.372 410.348 354.159 442.262 359.797C476.821 365.898 495.572 351.397 502.093 341.343C510.448 328.461 524.375 295.04 490.243 271.813C476.378 262.377 462.685 252.319 452.486 239.893C437.214 221.292 437.319 192.855 456.846 177.481C470.232 166.947 490.79 163.097 499.885 149.587C505.994 140.51 505.161 128.806 499.905 119.335C494.65 109.868 485.498 102.378 475.56 96.3091" stroke="#0049FF" stroke-miterlimit="10"/>
<path d="M117.35 360.062C115.839 344.383 133.225 330.837 151.383 328.143C169.108 325.512 187.088 330.362 204.557 333.818C221.824 337.233 240.992 338.784 255.539 330.752C274.124 320.469 279.348 297.905 298.516 287.429C313.787 279.128 332.95 280.674 348.643 286.053C357.659 289.146 365.649 294.659 374.322 298.797C411.1 316.332 414.126 352.895 445.346 358.453C478.926 364.419 497.578 350.698 504.355 340.801C512.944 328.26 526.231 296.058 493.979 273.095C480.682 263.628 467.499 253.377 457.462 241.028C442.638 222.87 442.503 195.442 460.936 180.202C473.692 169.659 493.51 165.365 502.563 152.03C508.777 142.917 508.397 131.379 503.803 121.841C499.172 112.213 490.719 104.301 481.166 97.7839" stroke="#0049FF" stroke-miterlimit="10"/>
<path d="M118.146 360.82C117.313 344.705 134.605 330.492 153.289 327.466C171.102 324.579 189.374 329.38 206.849 333.168C223.912 336.866 242.596 338.932 257.096 331.702C275.603 322.441 281.712 301.042 300.885 290.746C316.443 282.391 335.34 283.019 351.383 287.636C360.758 290.334 369.352 295.52 378.421 299.711C414.376 316.332 417.923 351.622 448.45 357.104C481.056 362.935 499.599 349.99 506.636 340.254C515.454 328.058 528.111 297.053 497.74 274.377C485.01 264.874 472.332 254.434 462.456 242.166C448.086 224.447 447.711 198.024 465.045 182.931C477.171 172.375 496.25 167.642 505.266 154.486C511.584 145.333 511.657 133.957 507.73 124.356C503.719 114.561 495.969 106.229 486.801 99.2676" stroke="#0049FF" stroke-miterlimit="10"/>
<path d="M118.939 361.581C118.782 345.028 135.976 330.16 155.191 326.794C173.098 323.656 191.661 328.398 209.136 332.518C225.991 336.489 244.19 339.084 258.644 332.657C277.077 324.413 284.083 304.211 303.24 294.068C319.1 285.672 337.732 285.358 354.102 289.222C363.848 291.522 373.03 296.385 382.505 300.634C417.606 316.376 421.71 350.357 451.545 355.763C483.177 361.46 501.61 349.291 508.908 339.716C517.944 327.856 529.987 298.03 501.485 275.663C489.313 266.111 477.187 255.474 467.442 243.305C453.576 225.994 452.904 200.596 469.15 185.657C480.646 175.083 498.949 169.896 507.96 156.933C514.356 147.731 514.918 136.521 511.642 126.865C508.256 116.897 501.204 108.156 492.427 100.747" stroke="#0049FF" stroke-miterlimit="10"/>
<path d="M119.727 362.343C120.247 345.351 137.347 329.833 157.088 326.126C175.089 322.746 193.939 327.417 211.419 331.876C228.071 336.121 245.78 339.241 260.192 333.62C278.548 326.395 286.454 307.385 305.601 297.398C321.764 288.962 340.145 287.694 356.833 290.822C366.953 292.718 376.72 297.268 386.595 301.567C420.816 316.466 425.504 349.107 454.646 354.432C485.304 359.99 503.617 348.6 511.185 339.187C520.441 327.668 531.874 298.994 505.237 276.963C493.622 267.357 482.027 256.545 472.428 244.456C459.031 227.576 458.099 203.174 473.251 188.395C484.121 177.794 501.669 172.182 510.649 159.394C517.139 150.151 518.18 139.089 515.55 129.384C512.8 119.232 506.435 110.092 498.044 102.235" stroke="#0049FF" stroke-miterlimit="10"/>
<path d="M120.523 363.105C121.727 345.678 138.728 329.505 158.994 325.453C177.089 321.836 196.225 326.431 213.711 331.227C230.16 335.74 247.395 339.416 261.745 334.575C280.042 328.403 288.835 310.558 307.966 300.715C324.435 292.243 342.572 290.002 359.562 292.405C370.068 293.888 380.402 298.133 390.684 302.481C423.998 316.574 429.295 347.834 457.74 353.083C487.423 358.507 505.622 347.892 513.456 338.641C522.925 327.457 533.759 299.908 508.982 278.245C497.924 268.576 486.856 257.594 477.412 245.591C464.48 229.145 463.287 205.72 477.35 191.116C487.59 180.479 504.388 174.446 513.342 161.842C519.93 152.563 521.451 141.639 519.462 131.89C517.347 121.545 511.664 112.011 503.669 103.709" stroke="#0049FF" stroke-miterlimit="10"/>
<path d="M121.312 363.863C123.193 345.996 140.1 329.183 160.893 324.777C179.081 320.926 198.509 325.436 216 330.577C232.246 335.355 248.991 339.569 263.299 335.53C281.519 330.38 291.217 313.728 310.328 304.037C327.1 295.529 345.002 292.302 362.294 293.992C373.185 295.058 384.082 299.007 394.775 303.4C427.168 316.713 433.09 346.57 460.841 351.738C489.546 357.027 507.625 347.189 515.73 338.098C525.407 327.251 535.663 300.796 512.729 279.527C502.224 269.782 491.687 258.648 482.4 246.725C469.93 230.714 468.472 208.252 481.452 193.837C491.067 183.16 507.115 176.714 516.032 164.285C522.72 154.966 524.73 144.177 523.371 134.396C521.902 123.858 516.896 113.934 509.287 105.184" stroke="#0049FF" stroke-miterlimit="10"/>
<path d="M122.109 364.625C124.667 346.323 141.485 328.869 162.799 324.109C181.081 320.025 200.796 324.44 218.292 329.936C234.334 334.969 250.59 339.734 264.851 336.489C282.998 332.365 293.598 316.91 312.693 307.362C329.772 298.819 347.439 294.588 365.024 295.583C376.305 296.219 387.759 299.89 398.864 304.323C430.313 316.883 436.882 345.306 463.935 350.398C491.666 355.553 509.62 346.485 518.001 337.56C527.881 327.049 537.58 301.661 516.48 280.818C506.526 270.983 496.52 259.71 487.384 247.868C475.373 232.291 473.649 210.78 485.551 196.567C494.536 185.836 509.839 178.991 518.725 166.736C525.511 157.377 528.022 146.722 527.282 136.906C526.47 126.166 522.131 115.857 514.907 106.663" stroke="#0049FF" stroke-miterlimit="10"/>
<path d="M122.898 365.387C126.133 346.646 142.858 328.555 164.698 323.436C183.079 319.129 203.08 323.441 220.576 329.286C236.415 334.575 252.181 339.887 266.396 337.444C284.464 334.342 295.976 320.083 315.044 310.684C332.431 302.109 349.864 296.86 367.745 297.17C379.418 297.371 391.423 300.773 402.95 305.247C433.441 317.08 440.671 344.042 467.032 349.058C493.788 354.073 511.612 345.781 520.274 337.022C530.348 326.843 539.52 302.486 520.227 282.104C510.826 272.171 501.346 260.768 492.372 249.006C480.819 233.869 478.819 213.291 489.653 199.292C498.002 188.503 512.565 181.259 521.415 169.184C528.301 159.789 531.322 149.26 531.191 139.416C531.045 128.475 527.363 117.784 520.529 108.143" stroke="#0049FF" stroke-miterlimit="10"/>
<path d="M123.688 366.144C127.604 346.964 144.235 328.246 166.596 322.764C185.071 318.232 205.364 322.437 222.86 328.64C238.496 334.185 253.773 340.044 267.945 338.403C285.936 336.323 298.358 323.266 317.406 314.005C335.105 305.399 352.304 299.119 370.472 298.761C382.54 298.519 395.088 301.665 407.036 306.17C436.559 317.3 444.455 342.782 470.128 347.717C495.911 352.599 513.599 345.077 522.548 336.485C532.814 326.632 541.486 303.279 523.975 283.395C515.131 273.35 506.177 261.835 497.353 250.149C486.259 235.447 483.973 215.792 493.749 202.022C501.463 191.161 515.292 183.536 524.105 171.64C531.095 162.205 534.626 151.806 535.1 141.931C535.632 130.788 532.59 119.712 526.147 109.626" stroke="#0049FF" stroke-miterlimit="10"/>
<path d="M124.477 366.907C129.071 347.292 145.613 327.941 168.495 322.092C187.068 317.345 207.648 321.428 225.143 327.99C240.582 333.782 255.364 340.191 269.49 339.358C287.402 338.3 300.736 326.448 319.758 317.327C337.764 308.694 354.729 301.37 373.193 300.348C385.652 299.657 398.747 302.562 411.117 307.089C439.655 317.537 448.239 341.514 473.214 346.377C498.023 351.124 515.571 344.369 524.811 335.951C535.264 326.426 543.468 304.041 527.712 284.686C519.43 274.511 510.992 262.897 502.33 251.292C491.689 237.029 489.106 218.279 497.84 204.752C504.909 193.81 518.013 185.818 526.785 174.092C533.874 164.621 537.936 154.347 538.999 144.441C540.218 133.096 537.811 121.639 531.754 111.105" stroke="#0049FF" stroke-miterlimit="10"/>
<path d="M125.266 367.669C130.537 347.614 146.991 327.645 170.393 321.419C189.066 316.453 209.937 320.42 227.427 327.345C242.668 333.378 256.95 340.348 271.039 340.317C288.868 340.277 303.119 329.635 322.12 320.653C340.439 311.993 357.164 303.615 375.92 301.939C388.769 300.791 402.406 303.467 415.203 308.012C442.746 317.797 452.028 340.25 476.311 345.037C500.14 349.649 517.552 343.656 527.084 335.413C537.725 326.211 545.497 304.763 531.465 285.977C523.756 275.659 515.818 263.964 507.317 252.435C497.124 238.616 494.233 220.754 501.942 207.481C508.349 196.45 520.745 188.095 529.48 176.544C536.673 167.032 541.267 156.889 542.913 146.956C544.83 135.409 543.049 123.566 537.382 112.589" stroke="#0049FF" stroke-miterlimit="10"/>
<path d="M126.062 368.431C132.016 347.942 148.376 327.349 172.299 320.751C191.071 315.574 212.234 319.407 229.719 326.699C244.767 332.975 258.549 340.501 272.591 341.276C290.342 342.253 305.51 332.822 324.479 323.974C343.111 315.287 359.591 305.847 378.649 303.526C391.884 301.916 406.062 304.377 419.292 308.936C445.835 318.075 455.81 339.031 479.41 343.697C502.255 348.21 519.532 342.944 529.36 334.875C540.179 325.991 547.57 305.448 535.215 287.263C528.095 276.784 520.646 265.026 512.307 253.574C502.567 240.194 499.343 223.21 506.047 210.211C511.786 199.081 523.48 190.372 532.173 179C539.47 169.453 544.601 159.439 546.825 149.47C549.445 137.722 548.283 125.498 543.002 114.073" stroke="#0049FF" stroke-miterlimit="10"/>
<path d="M126.859 369.188C133.49 348.26 149.767 327.054 174.206 320.075C193.082 314.687 214.531 318.385 232.011 326.05C246.861 332.562 260.148 340.649 274.143 342.227C291.816 344.221 307.9 336.005 326.844 327.291C345.788 318.582 362.018 308.066 381.378 305.112C394.999 303.032 409.713 305.296 423.381 309.855C448.913 318.362 459.601 337.767 482.504 342.352C504.375 346.731 521.506 342.222 531.631 334.333C542.627 325.767 549.684 306.098 538.96 288.55C532.449 277.891 525.464 266.089 517.292 254.712C508 241.776 504.427 225.657 510.146 212.936C515.198 201.699 526.209 192.649 534.866 181.448C542.267 171.864 547.945 161.985 550.736 151.98C554.07 140.039 553.518 127.421 548.627 115.552" stroke="#0049FF" stroke-miterlimit="10"/>
<path d="M127.648 369.95C134.956 348.587 151.15 326.767 176.104 319.402C195.084 313.804 216.825 317.358 234.295 325.404C248.957 332.155 261.739 340.801 275.693 343.186C293.288 346.198 310.289 339.196 329.201 330.617C348.457 321.885 364.432 310.29 384.105 306.704C398.106 304.153 413.357 306.233 427.472 310.778C451.989 318.676 463.396 336.503 485.605 341.012C506.502 345.257 523.482 341.5 533.91 333.795C545.082 325.539 551.859 306.726 542.713 289.841C536.837 278.993 530.29 267.16 522.279 255.855C513.43 243.367 509.492 228.1 514.247 215.666C518.591 204.312 528.946 194.931 537.556 183.9C545.062 174.285 551.291 164.536 554.645 154.491C558.703 142.357 558.745 129.349 554.244 117.031" stroke="#0049FF" stroke-miterlimit="10"/>
<path d="M128.445 370.712C136.43 348.91 152.546 326.48 178.01 318.734C197.095 312.93 219.133 316.336 236.587 324.759C251.056 331.742 263.338 340.949 277.245 344.145C294.762 348.17 312.679 342.388 331.566 333.943C351.14 325.189 366.849 312.508 386.834 308.295C401.215 305.265 417.003 307.179 431.561 311.702C455.057 318.999 467.182 335.239 488.699 339.672C508.622 343.778 525.446 340.779 536.181 333.257C547.525 325.31 554.083 307.331 546.457 291.127C541.259 280.074 535.103 268.222 527.264 256.994C518.857 244.95 514.529 230.534 518.347 218.392C521.956 206.917 531.681 197.208 540.244 186.351C547.859 176.701 554.635 167.091 558.557 157.001C563.344 144.683 563.979 131.276 559.864 118.51" stroke="#0049FF" stroke-miterlimit="10"/>
<path d="M129.234 371.47C137.902 349.228 153.934 326.193 179.914 318.057C199.103 312.051 221.437 315.305 238.876 324.109C253.163 331.321 264.934 341.092 278.8 345.1C296.243 350.138 315.073 345.579 333.928 337.26C353.819 328.488 369.263 314.709 389.566 309.877C404.317 306.363 420.641 308.133 435.652 312.616C458.122 319.33 470.977 333.965 491.801 338.322C510.75 342.289 527.417 340.039 538.46 332.71C549.971 325.068 556.372 307.914 550.215 292.409C545.736 281.136 539.923 269.285 532.256 258.128C524.287 246.532 519.542 232.964 522.454 221.112C525.303 209.516 534.423 199.48 542.944 188.794C550.663 179.108 557.997 169.641 562.477 159.506C567.992 147.005 569.222 133.195 565.498 119.985" stroke="#0049FF" stroke-miterlimit="10"/>
<path d="M130.023 372.232C139.368 349.555 155.322 325.915 181.813 317.39C201.105 311.177 223.742 314.274 241.16 323.463C255.259 330.904 266.536 341.223 280.344 346.059C297.725 352.083 317.455 348.775 336.285 340.586C356.494 331.796 371.661 316.924 392.288 311.468C407.408 307.47 424.268 309.111 439.733 313.544C461.177 319.685 474.771 332.67 494.892 336.987C512.872 340.783 529.378 339.313 540.728 332.177C552.406 324.835 558.713 308.506 553.958 293.7C550.265 282.203 544.728 270.36 537.238 259.271C529.706 248.123 524.524 235.402 526.55 223.842C528.607 212.125 537.155 201.762 545.629 191.246C553.458 181.528 561.349 172.205 566.38 162.017C572.636 149.34 574.448 135.122 571.11 121.464" stroke="#0049FF" stroke-miterlimit="10"/>
<path d="M130.812 372.994C140.834 349.878 156.71 325.637 183.706 316.717C203.108 310.303 226.047 313.239 243.438 322.818C257.361 330.483 268.127 341.375 281.888 347.018C299.191 354.06 319.844 351.971 338.636 343.912C359.163 335.108 374.05 319.129 395.009 313.064C410.499 308.582 427.886 310.115 443.814 314.472C464.232 320.057 478.555 331.41 497.978 335.651C514.984 339.313 531.329 338.578 542.991 331.644C554.835 324.602 561.117 309.111 557.695 294.996C554.851 283.274 549.528 271.441 542.21 260.418C535.11 249.723 529.464 237.858 530.636 226.576C531.865 214.743 539.881 204.052 548.309 193.702C556.252 183.953 564.695 174.778 570.279 164.536C577.274 151.689 579.665 137.054 576.717 122.952" stroke="#0049FF" stroke-miterlimit="10"/>
<path d="M131.609 373.756C142.308 350.201 158.111 325.364 185.612 316.045C205.124 309.433 228.365 312.199 245.73 322.168C259.47 330.057 269.726 341.523 283.441 347.968C300.671 356.028 322.255 355.194 341.001 347.229C361.867 338.448 376.451 321.325 397.738 314.646C413.588 309.671 431.511 311.128 447.908 315.386C467.299 320.42 482.352 330.137 501.082 334.302C517.115 337.829 533.298 337.829 545.272 331.097C557.283 324.346 563.601 309.729 561.45 296.273C559.539 284.336 554.335 272.503 547.205 261.548C540.538 251.306 534.407 240.306 534.746 229.293C535.116 217.356 542.652 206.334 551.007 196.145C559.08 186.378 568.065 177.342 574.196 167.037C581.936 154.024 584.905 138.972 582.347 124.423" stroke="#0049FF" stroke-miterlimit="10"/>
<path d="M132.398 374.513C143.774 350.523 159.52 325.126 187.511 315.373C207.142 308.586 230.68 311.159 248.014 321.522C261.582 329.635 271.317 341.68 284.985 348.928C302.137 358.009 324.633 358.377 343.353 350.55C364.531 341.742 378.828 323.526 400.46 316.233C416.669 310.765 435.118 312.172 451.989 316.305C470.359 320.805 486.136 328.873 504.169 332.957C519.227 336.346 535.243 337.076 547.535 330.554C559.708 324.091 566.125 310.397 565.193 297.559C564.307 285.43 559.125 273.579 552.187 262.691C545.947 252.901 539.316 242.789 538.842 232.022C538.316 220.001 545.379 208.615 553.697 198.597C561.875 188.79 571.422 179.919 578.105 169.547C586.59 156.373 590.137 140.895 587.965 125.902" stroke="#0049FF" stroke-miterlimit="10"/>
<path d="M133.195 375.275C145.253 350.846 160.91 324.826 189.422 314.7C209.153 307.694 233.013 310.11 250.311 320.877C263.702 329.21 272.927 341.832 286.547 349.887C303.626 359.986 327.029 361.563 345.728 353.876C367.213 345.041 381.23 325.731 403.2 317.824C419.768 311.863 438.733 313.257 456.088 317.233C473.438 321.209 489.939 327.614 507.278 331.626C521.357 334.88 537.217 336.337 549.822 330.025C562.161 323.849 568.724 311.141 568.953 298.859C569.182 286.578 563.932 274.668 557.182 263.843C551.364 254.506 544.218 245.304 542.952 234.766C541.499 222.681 548.114 210.906 556.395 201.063C564.677 191.219 574.792 182.51 582.022 172.075C591.257 158.744 595.377 142.841 593.595 127.399" stroke="#0049FF" stroke-miterlimit="10"/>
<path d="M339.706 466.259C324.529 458.182 323.82 438.387 332.722 425.075C341.623 411.762 357.129 402.963 370.911 393.205C384.693 383.447 397.944 370.914 399.085 355.584C400.538 335.992 381.714 318.201 384.126 298.676C386.006 283.458 400.449 271.947 415.627 265.519C424.211 261.884 434.128 260.611 443.009 257.608C483.292 243.995 519.107 265.972 544.207 248.096C571.386 228.741 570 207.078 564.979 196.405C558.546 182.734 537.004 152.447 494.579 160.793C477.344 164.182 459.661 167.064 442.019 166.122C415.601 164.715 389.912 146.826 388.225 124.096C387.068 108.519 396.46 92.3154 389.923 77.7521C385.532 67.967 374.406 61.1941 362.541 58.7871C350.676 56.38 338.159 57.8278 326.43 60.6921" stroke="#0049FF" stroke-miterlimit="10"/>
<path d="M340.89 466.205C325.743 457.397 324.368 437.249 333.301 423.38C342.02 409.843 357.677 400.82 371.756 391.268C385.668 381.828 399.081 369.941 400.919 355.149C403.247 336.243 386.085 318.604 388.611 299.182C390.663 283.74 404.065 271.853 418.769 264.695C427.218 260.584 437.218 258.684 446.401 255.456C485.325 241.772 520.332 262.651 544.927 245.192C571.371 226.406 570.626 205.298 565.907 194.554C559.933 180.937 539.088 151.846 498.086 159.094C481.184 162.084 463.636 164.504 446.166 163.5C420.431 162.066 395.507 144.974 393.257 123.065C391.7 107.905 400.226 91.9209 393.825 77.4965C389.465 67.6173 378.777 60.6472 367.261 57.7516C355.641 54.8291 343.177 55.5373 331.29 57.8637" stroke="#0049FF" stroke-miterlimit="10"/>
<path d="M342.077 466.151C326.957 456.613 324.92 436.115 333.884 421.681C342.431 407.925 358.224 398.673 372.605 389.328C386.642 380.201 400.221 368.964 402.758 354.706C405.961 336.489 390.413 318.99 393.096 299.675C395.278 284.005 407.685 271.723 421.915 263.856C430.233 259.258 440.312 256.743 449.791 253.287C487.366 239.584 521.556 259.311 545.645 242.269C571.355 224.053 571.246 203.506 566.839 192.685C561.313 179.13 541.166 151.214 501.596 157.382C485.012 159.968 467.615 161.931 450.317 160.865C425.264 159.403 401.101 143.101 398.289 122.016C396.325 107.269 403.992 91.5085 397.721 77.2187C393.393 67.2498 383.132 60.069 371.975 56.6938C360.589 53.2468 348.192 53.2289 336.139 55.0129" stroke="#0049FF" stroke-miterlimit="10"/>
<path d="M343.261 466.093C328.172 455.828 325.479 434.976 334.469 419.982C342.849 406.006 358.772 396.526 373.45 387.382C387.612 378.565 401.358 367.982 404.592 354.262C408.676 336.736 394.764 319.38 397.582 300.173C399.915 284.274 411.306 271.579 425.062 263.023C433.25 257.926 443.407 254.811 453.189 251.122C489.435 237.442 522.786 255.976 546.371 239.351C571.346 221.704 571.872 201.717 567.773 190.825C562.695 177.333 543.225 150.568 505.108 155.674C488.831 157.852 471.601 159.322 454.47 158.238C430.104 156.691 406.681 141.232 403.327 120.976C400.952 106.641 407.723 91.1184 401.623 76.9496C397.295 66.8956 387.492 59.4951 376.695 55.6448C365.543 51.6689 353.209 50.9248 341 52.1709" stroke="#0049FF" stroke-miterlimit="10"/>
<path d="M344.443 466.039C329.379 455.044 326.035 433.851 335.046 418.288C343.26 404.097 359.303 394.379 374.293 385.446C388.57 376.934 402.493 367.01 406.43 353.822C411.389 336.982 399.123 319.77 402.071 300.67C404.56 284.543 414.926 271.423 428.208 262.184C436.265 256.581 446.5 252.883 456.584 248.952C491.518 235.335 524.02 252.637 547.094 236.429C571.335 219.346 572.497 199.928 568.71 188.956C564.074 175.531 545.266 149.896 508.629 153.962C492.654 155.732 475.595 156.741 458.631 155.602C434.947 154.015 412.264 139.349 408.368 119.927C405.576 105.996 411.488 90.7061 405.534 76.6717C401.232 66.5281 391.862 58.899 381.424 54.5825C370.501 50.0687 358.235 48.612 345.865 49.3157" stroke="#0049FF" stroke-miterlimit="10"/>
<path d="M345.631 465.985C330.599 454.259 326.604 432.726 335.631 416.594C343.688 402.192 359.84 392.232 375.143 383.509C389.534 375.302 403.66 366.046 408.27 353.388C414.14 337.247 403.488 320.169 406.561 301.172C409.207 284.816 418.536 271.248 431.36 261.355C439.287 255.241 449.605 250.965 459.981 246.792C493.618 233.273 525.25 249.307 547.824 233.515C571.331 217.002 573.123 198.149 569.648 187.095C565.455 173.738 547.288 149.21 512.145 152.258C496.457 153.616 479.581 154.163 462.788 152.975C439.787 151.348 417.828 137.471 413.411 118.891C410.192 105.359 415.255 90.3116 409.442 76.4073C405.166 66.174 396.222 58.3118 386.149 53.5381C375.456 48.473 363.262 46.3125 350.73 46.4783" stroke="#0049FF" stroke-miterlimit="10"/>
<path d="M346.817 465.931C331.811 453.479 327.181 431.601 336.218 414.895C344.124 400.282 360.38 390.076 375.996 381.568C390.496 373.666 404.81 365.073 410.112 352.944C416.863 337.497 407.857 320.559 411.05 301.67C413.852 285.089 422.144 271.059 434.509 260.521C442.296 253.883 452.703 249.046 463.381 244.631C495.731 231.247 526.483 245.976 548.552 230.601C571.324 214.658 573.741 196.369 570.59 185.24C566.829 171.954 549.297 148.502 515.665 150.555C500.258 151.496 483.569 151.59 466.954 150.349C444.64 148.681 423.384 135.588 418.456 117.851C414.805 104.713 419.024 89.9081 413.357 76.1427C409.107 65.8197 400.596 57.7111 390.882 52.4936C380.418 46.8727 368.292 44.0174 355.599 43.6409" stroke="#0049FF" stroke-miterlimit="10"/>
<path d="M348.005 465.878C333.03 452.695 327.759 430.48 336.801 413.201C344.557 398.382 360.907 387.924 376.84 379.628C391.45 372.021 405.951 364.101 411.946 352.505C419.576 337.749 412.222 320.953 415.535 302.167C418.498 285.358 425.733 270.858 437.65 259.688C445.297 252.52 455.797 247.137 466.772 242.466C497.852 229.243 527.707 242.641 549.271 227.683C571.314 212.309 574.345 194.59 571.517 183.375C568.183 170.161 550.808 144.064 519.17 148.847C504.243 151.102 487.549 149.013 471.1 147.718C449.469 146.014 428.905 133.697 423.488 116.807C419.399 104.059 422.785 89.5048 417.253 75.8694C413.029 65.4523 404.951 57.0927 395.596 51.4404C385.361 45.2547 373.303 41.7091 360.453 40.7947" stroke="#0049FF" stroke-miterlimit="10"/>
<path d="M349.186 465.824C334.243 451.911 328.331 429.364 337.378 411.506C344.993 396.481 361.432 385.764 377.683 377.691C392.397 370.38 407.085 363.132 413.778 352.07C422.289 338.009 416.586 321.352 420.018 302.674C423.149 285.641 429.316 270.656 440.795 258.858C448.296 251.153 458.895 245.232 470.162 240.306C499.981 227.267 528.93 239.311 549.989 224.77C571.297 209.965 574.948 192.815 572.448 181.519C569.542 168.381 552.843 142.98 522.68 147.144C507.981 149.174 491.527 146.44 475.25 145.095C454.301 143.361 434.41 131.81 428.519 115.776C423.977 103.414 426.545 89.1103 421.154 75.6094C416.956 65.1026 409.315 56.483 400.314 50.4004C390.314 43.6409 378.323 39.4185 365.307 37.9573" stroke="#0049FF" stroke-miterlimit="10"/>
<path d="M350.371 465.766C335.454 451.126 328.917 428.239 337.964 409.803C345.439 394.572 361.955 383.594 378.534 375.746C393.353 368.731 408.228 362.155 415.619 351.622C425.005 338.255 420.963 321.742 424.511 303.162C427.802 285.901 432.891 270.432 443.949 258.016C451.293 249.773 462.002 243.323 473.565 238.132C502.14 225.303 530.167 235.967 550.72 221.843C571.294 207.607 575.56 191.031 573.388 179.646C570.899 166.584 554.903 141.917 526.198 145.427C511.698 147.202 495.52 143.858 479.409 142.455C459.143 140.689 439.907 129.909 433.563 114.723C428.558 102.746 430.318 88.6935 425.063 75.327C420.896 64.7307 413.692 55.8421 405.046 49.3381C395.285 42.0005 383.352 37.1012 370.174 35.1021" stroke="#0049FF" stroke-miterlimit="10"/>
<path d="M351.555 465.712C336.668 450.342 329.506 427.123 338.543 408.109C345.877 392.676 362.472 381.434 379.374 373.809C394.291 367.081 409.36 361.183 417.454 351.187C427.715 338.511 425.335 322.141 428.996 303.665C432.46 286.179 436.455 270.212 447.091 257.187C454.274 248.397 465.102 241.436 476.957 235.971C504.297 223.376 531.392 232.637 551.446 218.929C571.285 205.263 576.16 189.26 574.327 177.786C572.249 164.805 556.982 140.904 529.715 143.724C515.381 145.203 499.505 141.29 483.567 139.829C463.982 138.031 445.383 128.018 438.601 113.683C433.116 102.087 434.09 88.2901 428.965 75.0581C424.829 64.3676 418.069 55.2101 409.766 48.2893C400.255 40.3644 388.369 34.7973 375.035 32.2603" stroke="#0049FF" stroke-miterlimit="10"/>
<path d="M352.739 465.658C337.879 449.557 330.097 426.011 339.124 406.414C346.327 390.78 362.989 379.265 380.22 371.873C395.236 365.432 410.492 360.214 419.289 350.748C430.425 338.762 429.712 322.535 433.478 304.167C437.108 286.452 439.999 269.988 450.234 256.357C457.245 247.021 468.209 239.553 480.345 233.815C506.461 221.471 532.613 229.311 552.161 216.02C571.266 202.923 576.751 187.494 575.256 175.934C573.589 163.034 559.031 144.378 533.223 142.025C519.045 140.73 503.487 138.726 487.715 137.206C468.813 135.382 450.822 126.135 443.634 112.652C437.66 101.441 437.853 87.8957 432.868 74.8026C428.759 64.0225 422.451 54.5826 414.487 47.2539C405.226 38.7328 393.392 32.5113 379.891 29.4319" stroke="#0049FF" stroke-miterlimit="10"/>
<path d="M353.923 465.604C339.094 448.778 330.698 424.9 339.709 404.72C346.782 388.884 363.507 377.095 381.07 369.932C396.181 363.773 411.635 359.242 421.13 350.308C433.136 339.013 434.094 322.93 437.969 304.664C441.772 286.726 443.548 269.755 453.387 255.519C460.221 245.631 471.331 237.666 483.748 231.646C508.65 219.57 533.881 226.007 552.892 213.098C571.294 200.601 577.347 185.715 576.196 174.065C574.93 161.241 560.955 143.415 536.74 140.313C522.787 138.524 507.473 136.153 491.879 134.571C473.659 132.724 456.257 124.243 448.678 111.603C442.194 100.783 441.631 87.4833 436.777 74.5247C432.703 63.6504 426.849 53.9326 419.213 46.196C410.218 37.0788 398.415 30.1983 384.758 26.5811" stroke="#0049FF" stroke-miterlimit="10"/>
<path d="M355.109 465.55C340.306 447.993 331.301 423.788 340.291 403.021C347.234 386.983 364.021 374.912 381.918 367.991C397.122 362.11 412.769 358.264 422.967 349.864C435.848 339.259 438.478 323.324 442.458 305.162C446.437 286.999 447.083 269.522 456.537 254.685C463.188 244.246 474.454 235.797 487.148 229.481C510.852 217.688 535.119 222.672 553.62 210.184C571.288 198.257 577.934 183.944 577.137 172.205C576.267 159.461 562.876 142.406 540.26 138.605C526.53 136.296 511.462 133.585 496.039 131.94C478.501 130.07 461.662 122.365 453.724 110.559C446.708 100.128 445.416 87.0753 440.692 74.2512C436.65 63.2828 431.259 53.287 423.946 45.1425C415.222 35.4247 403.445 27.8943 389.627 23.7346" stroke="#0049FF" stroke-miterlimit="10"/>
<path d="M356.299 465.497C341.527 447.209 331.912 422.676 340.876 401.327C347.694 385.092 364.539 372.734 382.764 366.055C398.062 360.447 413.901 357.292 424.803 349.43C438.553 339.515 442.861 323.723 446.944 305.664C451.101 287.277 450.606 269.298 459.68 253.856C466.138 242.865 477.582 233.941 490.535 227.32C513.047 215.823 536.34 219.342 554.336 207.271C571.269 195.912 578.509 182.174 578.061 170.349C577.582 157.686 564.789 141.353 543.767 136.906C530.261 134.051 515.438 131.03 500.187 129.322C483.332 127.435 467.039 120.51 458.758 109.528C451.195 99.5006 449.184 86.6765 444.59 73.9913C440.585 62.9332 435.657 52.6506 428.662 44.1027C420.214 33.7798 408.458 25.5994 394.483 20.9019" stroke="#0049FF" stroke-miterlimit="10"/>
<path d="M357.477 465.438C342.737 446.42 332.512 421.56 341.455 399.628C348.154 383.191 365.045 370.546 383.609 364.114C399 358.78 415.032 356.315 426.642 348.986C441.263 339.757 447.248 324.118 451.43 306.157C455.764 287.541 454.123 269.06 462.827 253.018C469.093 241.476 480.718 232.085 493.932 225.151C515.262 213.963 537.57 216.002 555.066 204.348C571.265 193.559 579.088 180.394 579.005 168.48C578.916 155.893 566.738 140.232 547.289 135.194C534.018 131.756 519.434 128.461 504.35 126.686C488.177 124.781 472.405 118.654 463.801 108.483C455.67 98.8729 452.967 86.2684 448.498 73.7178C444.529 62.5656 440.07 51.9961 433.387 43.0492C425.226 32.1212 413.485 23.2953 399.344 18.0554" stroke="#0049FF" stroke-miterlimit="10"/>
<path d="M358.667 465.385C343.953 445.64 333.135 420.453 342.041 397.929C348.62 381.295 365.564 368.35 384.46 362.173C399.94 357.108 416.17 355.337 428.484 348.547C443.974 340.003 451.641 324.517 455.923 306.659C460.438 287.824 457.636 268.832 465.98 252.184C472.043 240.091 483.872 230.247 497.336 222.99C517.494 212.125 538.802 212.667 555.798 201.435C571.262 191.21 579.669 178.619 579.945 166.62C580.237 154.109 568.71 139.071 550.808 133.486C537.792 129.425 523.421 125.902 508.509 124.055C493.013 122.137 477.752 116.816 468.845 107.439C460.121 98.2634 456.746 85.8606 452.402 73.4488C448.469 62.2025 444.49 51.3506 438.109 42.0004C430.244 30.4672 418.504 20.9914 404.206 15.2136" stroke="#0049FF" stroke-miterlimit="10"/>
<path d="M359.855 465.331C345.172 444.855 333.754 419.346 342.625 396.235C349.089 379.403 366.074 366.158 385.309 360.232C400.883 355.436 417.29 354.333 430.322 348.103C446.667 340.218 456.032 324.911 460.412 307.152C465.11 288.093 461.141 268.599 469.126 251.346C474.981 238.697 487.028 228.418 500.727 220.821C519.728 210.283 540 209.301 556.516 198.512C571.22 188.83 580.226 176.84 580.877 164.755C581.544 152.321 570.71 137.861 554.318 131.778C541.588 127.054 527.4 123.347 512.66 121.424C497.847 119.492 483.075 115 473.876 106.394C464.553 97.6761 460.527 85.4481 456.308 73.1753C452.412 61.8349 448.912 50.7006 442.833 40.9469C435.27 28.8086 423.525 18.6874 409.066 12.3672" stroke="#0049FF" stroke-miterlimit="10"/>
<path d="M361.036 465.277C346.379 444.071 334.373 418.239 343.207 394.541C349.556 377.507 366.583 363.962 386.152 358.296C401.814 353.76 418.424 353.361 432.154 347.668C449.374 340.474 460.421 325.314 464.896 307.658C469.781 288.375 464.64 268.379 472.271 250.521C477.912 237.321 490.199 226.621 504.122 218.665C521.972 208.468 541.228 205.975 557.239 195.603C571.209 186.49 580.782 175.069 581.808 162.9C582.85 150.542 572.756 136.624 557.828 130.075C545.431 124.638 531.373 120.796 516.815 118.797C502.679 116.856 488.397 113.212 478.917 105.359C468.974 97.1204 464.307 85.0449 460.218 72.911C456.364 61.4765 453.348 50.0643 447.561 39.9027C440.311 27.1593 428.555 16.3881 413.934 9.53003" stroke="#0049FF" stroke-miterlimit="10"/>
<path d="M362.221 465.223C347.596 443.291 335.001 417.132 343.788 392.846C350.023 375.616 367.091 361.761 386.999 356.359C402.755 352.083 419.563 352.392 433.991 347.229C452.086 340.72 464.852 325.718 469.378 308.156C474.498 288.662 468.128 268.15 475.415 249.687C480.842 235.94 493.385 224.833 507.516 216.5C524.225 206.648 542.455 202.64 557.961 192.685C571.196 184.141 581.337 173.285 582.744 161.039C584.155 148.753 574.873 135.355 561.341 128.372C549.336 122.168 535.356 118.246 520.969 116.166C507.516 114.221 493.713 111.442 483.952 104.315C473.373 96.5914 468.112 84.6279 464.117 72.6375C460.326 61.0998 457.773 49.4187 452.283 38.8492C445.346 25.5052 433.574 14.084 418.792 6.68359" stroke="#0049FF" stroke-miterlimit="10"/>
<path d="M363.403 465.169C348.804 442.507 335.667 416.034 344.366 391.147C350.517 373.729 367.591 359.551 387.842 354.419C403.687 350.402 420.698 351.415 435.829 346.79C454.799 340.971 469.227 326.117 473.868 308.653C479.16 288.931 471.618 267.926 478.561 248.849C483.764 234.55 496.598 223.062 510.906 214.335C526.49 204.832 543.684 199.305 558.68 189.767C571.185 181.793 581.879 171.501 583.67 159.175C585.447 146.96 577.061 134.073 564.846 126.659C553.304 119.653 539.324 115.704 525.115 113.539C512.338 111.594 499.025 109.702 488.983 103.275C477.764 96.0984 471.878 84.2245 468.013 72.3686C464.253 60.7413 462.2 48.7778 456.997 37.8004C450.382 23.8557 438.584 11.7801 423.641 3.8418" stroke="#0049FF" stroke-miterlimit="10"/>
<path d="M364.595 465.111C350.026 441.718 336.265 414.913 344.958 389.448C350.974 371.824 368.111 357.337 388.695 352.473C404.634 348.708 421.843 350.434 437.672 346.341C457.517 341.213 473.611 326.502 478.361 309.146C483.82 289.2 475.111 267.698 481.716 248.011C486.695 233.165 499.842 221.314 514.311 212.165C528.781 203.017 544.922 195.966 559.418 186.844C571.189 179.44 582.44 169.713 584.622 157.305C586.758 145.158 579.362 132.796 568.377 124.947C557.397 117.098 543.318 113.158 529.286 110.904C517.187 108.958 504.373 107.981 494.034 102.23C482.179 95.6322 475.658 83.8167 471.934 72.0997C468.21 60.3782 466.658 48.1368 461.736 36.7516C455.449 22.2062 443.625 9.48068 428.52 1" stroke="#0049FF" stroke-miterlimit="10"/>
</g>
</svg>
