<svg width="212" height="184" viewBox="0 0 212 184" fill="none" xmlns="http://www.w3.org/2000/svg">
<g opacity="0.3">
<g clip-path="url(#clip0_671_7048)">
<path d="M67.335 141.528C67.1199 140.631 64.5769 139.765 57.4538 140.16L50.835 139.334L30.6806 129.402L28.5443 136.849C29.8602 137.533 31.1761 138.216 32.492 138.899L50.9337 145.517C60.2396 144.744 68.1549 144.9 67.335 141.528Z" fill="#FFC17D"/>
<path d="M71.1789 143.949C70.9638 143.051 68.4208 142.185 61.2977 142.581L54.6789 141.755L34.5245 131.822L32.3882 139.27C33.7041 139.953 35.02 140.636 36.3358 141.32L54.7776 147.937C64.1006 147.2 72.016 147.356 71.1789 143.949Z" fill="#FFF5E9"/>
<path d="M46.1705 140.096C47.6878 143.37 37.8392 142.16 31.7661 136.937C25.6664 131.705 25.8463 116.316 28.2567 119.037C30.3265 121.37 44.302 136.051 46.1705 140.096Z" fill="#EFC498"/>
<path d="M75.6452 147.886C75.4583 146.911 73.7565 145.883 72.0793 145.448C69.9051 144.892 66.2376 144.554 58.5315 144.65L36.6773 133.104L34.006 141.03C35.3734 141.82 36.7674 142.62 38.1614 143.419L57.7278 151.411C67.8463 151.051 76.3789 151.578 75.6452 147.886Z" fill="#EFC498"/>
<path d="M102.975 45.0783C102.233 45.6282 99.728 44.6588 94.5223 39.7807L88.9186 36.1628L67.0912 30.8317L70.2371 23.751C71.6846 24.0724 73.1321 24.3938 74.5795 24.7152L92.9649 31.4875C99.6374 38.0404 105.805 43.0046 102.975 45.0783Z" fill="#FFC17D"/>
<path d="M107.201 44.8871C106.46 45.4371 103.955 44.4676 98.7488 39.5895L93.1451 35.9716L71.3177 30.6405L74.4637 23.5599C75.9111 23.8813 77.3586 24.2026 78.8061 24.524L97.1914 31.2964C103.864 37.8493 110.031 42.8135 107.201 44.8871Z" fill="#FFF5E9"/>
<path d="M85.5531 31.7793C88.8186 30.2446 80.4927 24.8467 72.4833 24.9493C64.4474 25.0423 54.702 36.9529 58.2966 36.4159C61.3816 35.957 81.5229 33.6799 85.5531 31.7793Z" fill="#EFC498"/>
<path d="M113.144 44.7382C112.375 45.3657 110.41 45.0611 108.845 44.3167C106.822 43.3467 103.793 41.2505 97.9482 36.2278L73.7818 31.0414L76.8251 23.2502C78.3805 23.523 79.9624 23.8055 81.5444 24.088L101.675 30.5289C109.199 37.3037 116.078 42.3802 113.144 44.7382Z" fill="#EFC498"/>
<path d="M20.2004 88.6546C20.2521 86.3611 20.4289 84.0546 20.7838 81.7544C20.4554 84.0643 20.2521 86.3611 20.2004 88.6546Z" fill="white"/>
<path d="M22.4845 74.1771C22.8168 73.0979 23.1396 72.0445 23.5343 70.9588C23.1396 72.0445 22.7808 73.1141 22.4845 74.1771Z" fill="white"/>
<path d="M29.5867 121.075C28.8525 120.281 29.0492 120.733 32.3496 124.977C31.5311 123.918 30.7486 122.844 30.0115 121.727C29.8725 121.53 29.7163 121.298 29.5867 121.075Z" fill="#0B929F"/>
<path d="M85.2262 145.867C86.1025 144.781 86.4224 143.405 87.2362 142.325C87.7119 141.678 88.1542 141.868 88.8185 142.11C89.6953 142.429 90.4274 141.905 90.9828 141.287C91.8387 140.34 92.9022 139.731 94.1907 139.497C95.0944 139.328 98.1482 138.624 96.7297 137.23C95.3814 135.891 94.2004 134.671 95.032 132.632C95.7055 130.945 97.8494 130.262 99.5328 130.844C101.588 131.562 100.504 134.212 102.758 134.798C105.234 135.434 107.567 133.239 109.261 131.806C109.342 131.747 110.448 130.774 110.516 131.003C110.698 131.743 109.47 133.052 108.989 133.463C108.001 134.362 104.983 135.05 105.413 136.846C105.824 138.693 109.549 136.476 110.148 135.904C110.783 135.315 111.107 134.175 111.996 133.883C112.749 133.63 113.643 133.984 114.437 133.951C116.553 133.842 118.666 131.918 119.679 130.208C120.416 128.925 121.943 127.373 123.585 127.823C123.93 127.451 124.259 127.044 124.561 126.627C124.356 124.708 123.937 122.8 123.758 120.891C123.686 120.016 123.459 118.324 124.308 117.725C125.664 116.725 127.748 119.268 129.302 118.634C130.435 118.167 130.347 116.174 130.685 115.244C130.77 115.011 131.418 114.222 131.119 113.967C130.874 113.732 130.256 113.858 129.953 113.865C128.73 113.918 127.802 113.493 128.532 112.148C129.086 111.121 130.292 110.535 131.394 110.233L131.186 107.494C127.465 107.634 133.899 100.695 132.402 99.6823C131.918 99.3598 130.932 100.084 130.773 100.524C130.669 100.808 131.073 101.599 130.776 101.755C130.11 102.098 128.746 101.631 128.062 101.441C127.956 101.402 127.098 101.032 127.209 101.306C128.005 103.089 128.085 105.02 128.828 106.783C129.076 107.341 129.465 108.01 129.417 108.636C129.331 109.454 128.36 109.891 127.703 110.208C125.346 111.312 122.054 112.34 119.501 111.089C119.121 110.893 118.354 110.438 118.667 109.908C119.072 109.207 120.614 109.27 121.297 108.962C122.762 108.324 124.99 106.002 123.272 104.441C122.114 103.405 120.737 105.041 119.992 105.766C119.72 106.018 119.263 106.613 118.836 106.545C118.231 106.472 118.373 105.089 118.459 104.769C118.831 103.002 120.726 102.257 122.159 101.461C123.484 100.713 121.391 100.596 120.762 100.836C120.591 100.891 120.086 101.205 119.921 100.998C119.572 100.549 120.086 99.302 120.21 98.8787C120.901 96.2325 120.99 93.8357 120.22 91.1555C119.726 89.4538 119.034 87.7976 118.118 86.2643C118.066 86.1577 118.005 86.0771 117.927 85.9609C116.166 84.7645 114.28 83.5811 112.757 82.0614C111.943 81.2387 112.576 81.2348 113.418 81.4825C115.333 82.0909 117.394 83.4549 119.465 82.8905C123.175 81.8689 120.688 75.6376 119.667 73.481C118.852 71.7506 117.009 68.7099 114.604 69.5331C112.235 70.34 114.328 72.8571 113.943 74.4145C113.78 75.0284 113.412 75.6264 112.914 76.0016C112.384 74.8135 111.987 73.5865 111.493 72.3822C111.271 71.8334 110.976 71.4041 110.536 72.0345C110.106 72.639 109.817 73.7634 109.045 74.0679C108.38 74.3238 107.629 73.4945 107.163 73.1203C106.091 72.2623 103.583 70.4724 102.115 71.2848C101.025 71.8836 101.245 74.4222 101.092 75.4205C100.465 80.3729 98.4462 85.3463 92.9422 86.4184C92.0651 86.597 91.1833 86.5399 90.3904 86.9833C89.5349 87.4332 88.9059 88.1704 88.2691 88.8462C87.8232 89.328 87.2677 89.9456 86.5875 90.0788C85.5227 90.277 84.7263 88.9923 84.1233 88.334C83.1532 87.2789 81.6132 85.2263 80.0578 84.9534C79.7202 84.8892 79.4667 85.0898 79.4962 85.4224C78.0945 88.864 75.6108 92.4684 72.4418 94.565C71.2593 95.3351 69.7126 96.0313 68.2794 95.4224C66.2711 94.5752 65.7742 92.053 65.0579 90.2999C63.8047 87.2101 62.3243 84.8279 59.4411 83.0772C56.8579 81.4941 56.7068 78.6001 57.2294 75.9218C50.0493 70.7649 53.1591 66.1003 53.1591 66.1003C51.9311 65.0099 49.6904 63.2294 49.8591 61.359C49.9269 60.5934 50.5996 59.9014 50.1233 59.1429C49.1895 57.5741 46.8228 57.299 45.1877 56.9972C44.281 56.8431 41.1012 56.6529 41.379 55.1441C41.6458 53.7484 43.105 52.9619 44.4417 53.0088C46.7226 53.1064 48.9918 54.3119 50.9985 55.2464C53.7038 56.4934 56.3033 57.2044 59.2954 57.4142C61.0229 57.5447 63.4697 57.3514 64.901 58.5449C65.6119 59.1546 65.7019 60.0654 66.1156 60.8305C66.6839 61.9152 67.5947 62.8024 68.6433 63.4763C70.0262 64.3889 72.3081 65.3941 73.8956 64.4201C75.2845 63.5787 76.4444 61.6297 78.169 61.4372C79.2322 61.3262 79.6864 62.3108 80.2534 62.9853C81.1953 64.118 82.4957 64.6786 83.9607 64.5381C86.0777 64.3419 88.1614 62.5824 90.3311 62.903C92.7682 63.2329 93.8007 66.6815 94.6765 68.4926C95.3196 69.8679 95.9721 71.2174 96.6872 72.5603C97.1962 73.4771 97.7285 74.578 98.5535 75.2877C99.0534 75.7329 99.371 75.4386 99.4621 74.857C99.6741 73.5292 99.6078 72.3051 100.326 71.0736C100.888 70.1072 101.796 69.2664 102.873 68.8679C104.063 69.154 105.269 69.4757 106.515 69.6067C106.978 69.6579 107.556 69.7218 107.927 69.4468C108.65 68.9486 108.828 68.4574 109.848 68.3012C110.742 68.1581 111.58 68.1701 112.425 67.8332C113.171 67.5191 113.768 67.0339 114.366 66.5487C115.434 65.6786 116.463 64.9991 117.85 65.7373C120.252 66.9911 121.719 69.5736 124.046 71.0342C124.707 71.4501 126.742 72.3071 125.969 70.709C125.574 69.8922 124.901 69.1791 124.226 68.5533C123.85 68.1822 123.209 67.6274 123.139 67.0751C123.049 66.1643 125.34 67.6411 125.534 67.7701C129.589 70.7663 130.686 75.5263 132.432 79.9076C132.594 80.2885 133.393 82.8911 134.037 82.7741C134.385 81.8176 134.94 81.2 135.608 80.7697C133.229 69.1924 127.171 58.3848 118.435 50.1449C109.671 41.8954 98.3423 36.4007 86.3915 34.602C65.8335 31.4886 44.7436 39.6843 32.1593 55.5969C24.9909 64.6396 20.8038 75.9076 20.2858 87.4267C19.7536 99.2333 23.0719 111.123 29.6263 121.145C30.5089 122.11 32.7128 124.901 32.3891 125.047C33.2961 124.704 34.1766 124.351 34.0367 123.246C33.9029 122.29 33.3939 121.373 32.9552 120.511C31.6281 118.039 30.0852 115.663 28.9379 113.109C28.3729 111.85 27.9064 110.568 27.2694 109.342C26.8385 108.541 26.2653 107.718 25.9782 106.853C25.501 105.186 29.4187 105.499 30.2362 105.65C32.4763 106.025 33.7804 107.816 34.5826 109.747C35.1117 111.022 35.4333 113.861 36.8571 114.496C38.3512 115.185 40.4251 113.949 41.7595 115.078C42.5673 115.752 42.4366 117.022 42.9019 117.894C43.4358 118.907 44.3499 119.62 45.3015 120.229C46.0063 120.691 46.8284 121.077 47.3782 121.716C47.8749 122.336 48.0463 123.188 48.5602 123.844C49.7441 125.386 51.8645 126.918 53.885 126.16C54.6122 125.898 55.2804 124.97 56.0996 125.033C56.714 125.081 56.9495 125.84 57.1102 126.308C57.6266 127.784 58.1287 129.547 60.025 129.71C61.6102 129.818 60.3702 127.933 60.7413 127.16C61.2424 126.113 63.4412 127.264 64.2416 127.379C65.1577 127.507 64.9771 124.281 64.9946 123.819C65.1273 121.964 65.2059 119.183 67.1936 118.267C68.867 117.47 70.9694 118.059 72.7454 117.973C75.039 117.871 77.0018 116.857 79.205 116.341C80.9516 115.923 79.7292 117.878 79.7567 118.796C79.821 120.604 81.6401 121.558 83.1718 122.145C84.5441 122.673 86.0104 122.942 87.4203 123.367C88.2362 123.605 89.2475 123.885 89.8771 124.553C90.7691 125.492 89.8332 126.908 89.8934 127.984C89.949 128.823 90.7462 129.113 91.3994 129.468C92.4324 130.019 92.374 130.759 92.2482 131.767C92.042 133.74 92.6345 135.917 91.9656 137.839C91.7024 138.563 91.1236 138.997 90.3139 138.907C89.7354 138.843 88.6415 138.211 88.0754 138.445C87.8596 138.542 87.7076 139.043 87.5167 139.237C86.5374 140.11 85.0597 140.451 83.84 140.827C83.4272 140.969 82.3546 141.106 82.1588 141.562C81.9819 141.966 82.4394 142.776 82.5298 143.189C82.7776 144.245 82.5827 145.609 83.2434 146.522C83.8354 147.293 84.7881 146.411 85.2262 145.867Z" fill="#0B929F"/>
<path d="M29.5893 121.074C29.7189 121.296 29.8751 121.529 30.0141 121.726C30.7606 122.817 31.5337 123.917 32.3522 124.976C32.6665 124.856 30.472 122.039 29.5893 121.074Z" fill="#0B929F"/>
<path d="M97.8859 37.4927C97.9125 37.5024 97.9656 37.5217 97.9922 37.5314C97.939 37.5121 97.9125 37.5024 97.8859 37.4927C67.5421 26.4603 34.2701 41.4368 23.5364 70.959C34.2513 41.4885 67.5952 26.4797 97.8859 37.4927Z" fill="white"/>
<path d="M120.58 52.2713C120.536 52.2264 120.476 52.1463 120.432 52.1014C120.476 52.1463 120.519 52.1911 120.58 52.2713Z" fill="white"/>
<path d="M118.836 50.5249C118.748 50.4345 118.661 50.3442 118.591 50.2894C118.687 50.3539 118.748 50.4345 118.836 50.5249Z" fill="white"/>
<path d="M116.716 48.5823C116.102 48.0371 115.452 47.5081 114.802 46.9791C115.462 47.4822 116.102 48.0371 116.716 48.5823Z" fill="white"/>
<path d="M118.593 50.2898C118.076 49.8091 117.532 49.3188 117.015 48.838C117.542 49.2929 118.085 49.7833 118.593 50.2898Z" fill="white"/>
<path d="M120.58 52.2722C128.189 60.2194 133.373 70.1236 135.574 80.6997C134.906 81.13 134.341 81.7735 134.003 82.7041C134.003 82.7041 133.627 83.7382 130.753 75.2591C127.87 66.806 120.347 64.7439 124.201 68.4574C128.056 72.1709 125.705 73.4236 120.362 67.764C115.019 62.1044 115.322 67.8924 110.699 68.114C106.093 68.3711 110.703 70.7497 102.812 68.7882C102.812 68.7882 99.5456 69.9127 99.4769 74.0731C99.3817 78.2239 96.328 72.2258 93.9648 66.9763C91.5844 61.6913 89.8844 62.4781 86.8303 63.6799C83.7761 64.8817 81.5888 65.023 79.7053 62.2602C77.8484 59.507 75.2876 63.9028 73.3844 64.5864C71.4813 65.2701 66.6846 63.3213 65.6288 59.6886C64.573 56.0559 58.3895 58.6663 52.0786 55.6694C45.7944 52.6821 43.0012 51.8421 41.5234 54.5829C40.0455 57.3237 47.3505 56.2625 49.6361 58.4984C51.9218 60.7343 46.7815 60.4752 53.0983 66.0207C53.0983 66.0207 49.9885 70.6852 57.1686 75.8421C57.1686 75.8421 56.1708 80.5721 58.3943 82.3171C60.6177 84.0621 62.6677 83.6366 65.7633 92.1671C68.8589 100.698 77.0705 91.1854 79.4448 85.3169C79.4448 85.3169 79.3309 82.8169 84.964 89.1675C87.4181 91.9329 88.4693 86.7248 91.6478 86.5049C94.8358 86.259 99.0316 84.565 100.48 78.5942C101.929 72.6233 100.422 70.2315 104.085 71.3289C107.747 72.4262 108.453 75.6975 109.921 72.9826C111.39 70.2677 111.076 71.7926 112.907 75.9413C112.907 75.9413 114.849 74.5695 113.613 72.0127C112.394 69.4913 116.537 67.2805 119.325 72.6846C122.131 78.1242 123.038 85.3909 115.191 82.0694C107.262 78.8062 117.83 85.8974 117.83 85.8974C117.83 85.8974 121.93 92.2464 120.392 97.7167C118.881 103.197 120.287 99.9908 122.174 100.677C124.06 101.363 118.119 101.983 118.314 105.42C118.508 108.856 121.144 102.848 123.017 104.232C124.891 105.616 123.011 108.883 119.757 109.31C116.503 109.737 120.1 112.918 125.881 110.834C131.636 108.741 128.674 108.367 128.056 104.191C127.429 100.041 125.849 101.076 129.237 101.606C132.624 102.135 129.325 100.701 131.591 99.681C133.866 98.6351 131.432 102.931 130.292 105.238C129.153 107.546 131.162 107.398 131.162 107.398L131.369 110.137C131.369 110.137 128.503 110.822 128.251 112.838C128.009 114.828 132.068 112.85 130.975 114.53C129.883 116.211 130.69 119.285 128.064 118.565C125.465 117.854 122.683 114.998 124.029 123.127C124.301 124.777 124.451 125.856 124.544 126.592C128.242 121.966 131.264 116.714 133.389 110.871C140.955 90.061 135.23 67.5794 120.58 52.2722Z" fill="white"/>
<path d="M116.984 48.829C116.897 48.7386 116.8 48.6741 116.712 48.5838C116.809 48.6483 116.897 48.7386 116.984 48.829Z" fill="white"/>
<path d="M123.539 127.778C123.015 127.646 122.321 127.569 121.453 128.22C118.811 130.274 120.573 129.978 117.205 132.705C113.837 135.431 112.343 132.342 110.96 134.824C109.566 137.332 104.9 138.416 105.43 136.297C105.96 134.177 108.56 134.888 110.103 131.966C111.647 129.045 108.589 132.821 105.96 134.177C103.331 135.534 101.073 134.712 100.938 132.351C100.804 129.99 95.4231 129.731 94.8389 133.324C94.2642 136.891 98.2758 136.944 96.7754 138.506C95.2578 140.032 93.3749 138.675 91.017 141.271C88.6231 143.884 88.218 139.785 86.6614 143.405C85.1047 147.024 82.976 148.328 82.6817 144.504C82.3874 140.68 80.5371 141.88 85.1674 140.315C89.7978 138.75 86.2667 137.788 89.7978 138.75C93.3288 139.712 91.7961 133.915 92.2639 131.305C92.7317 128.694 89.4649 129.819 89.8575 127.415C90.2501 125.012 91.2638 124.209 85.5646 122.84C79.8655 121.47 79.143 119.568 80.0359 117.112C80.9288 114.657 76.3346 118.108 72.0932 117.942C67.8784 117.785 65.4556 117.168 65.0074 123.034C64.5326 128.891 65.1341 127.236 61.9857 126.794C58.8108 126.342 62.6164 130.272 59.5433 129.623C56.4435 128.964 57.8172 123.2 54.8122 125.591C51.8072 127.981 48.1876 124.119 47.6777 122.294C47.1318 120.486 42.9922 120.122 42.4101 116.428C41.8547 112.743 37.2699 116.169 36.0241 113.638C34.8049 111.116 34.2885 105.338 28.9619 105.509C23.6618 105.689 26.3986 106.684 28.3632 111.789C30.3279 116.894 34.7938 122.234 33.9045 124.018C33.5898 124.636 32.9362 124.779 32.3435 125.002C25.0461 115.617 20.7737 104.2 20.2272 92.3819C21.2241 114.959 35.9283 135.993 59.0182 144.388C82.835 153.018 108.439 145.645 123.539 127.778Z" fill="white"/>
<path d="M124.203 127.025C123.984 127.297 123.774 127.542 123.529 127.804C123.774 127.542 123.993 127.271 124.203 127.025Z" fill="white"/>
<path d="M56.2899 147.755C63.996 147.659 68.5183 148.542 70.6925 149.099C72.3432 149.523 74.045 150.552 74.2584 151.537C74.9921 155.228 66.4595 154.701 56.3581 155.097L36.7917 147.105C28.553 142.295 19.9967 137.779 16.5777 133.199C16.5777 133.199 6.60509 117.603 -0.67207 110.479C-0.67207 110.479 -13.8739 106.908 -22.2983 101.533C-22.2983 101.533 -18.6232 84.7227 -11.8932 85.3257C-11.2607 86.3166 3.0546 93.775 8.4416 96.5824C12.433 98.6775 16.7349 99.4221 21.0757 100.473C25.1414 101.454 27.2768 101.704 30.6849 103.996C33.432 105.873 41.1269 112.593 43.9929 114.308C49.3546 117.516 52.4981 118.22 60.2467 122.062C60.7061 122.287 62.0388 123.504 62.2086 124.443C62.593 126.778 61.9619 130.5 53.1004 128.478C50.49 127.88 43.6779 124.028 40.3246 121.667C32.6319 116.265 31.8693 117.949 31.8317 118.053C29.6511 124.05 38.6399 131.679 40.1714 134.665L56.2899 147.755Z" fill="#FFD3A6"/>
<path d="M55.9613 121.03C55.9613 121.03 61.1944 122.523 61.1534 125.201C61.0887 128.192 55.7538 126.896 54.9505 126.458C54.924 126.448 52.127 124.378 55.9613 121.03Z" fill="white"/>
<path d="M67.6644 153.207C67.6644 153.207 71.2704 152.059 72.1861 152.685C72.8206 153.091 73.3549 153.608 72.7794 153.867C71.1513 154.621 67.9103 154.848 67.1177 154.794C67.0911 154.784 66.002 153.89 67.6644 153.207Z" fill="white"/>
<path d="M0.214136 117.886L9.35938 92.7328L-33.4461 77.1696L-42.5914 102.323L0.214136 117.886Z" fill="#2C5871"/>
<path d="M98.2304 32.4071C104.075 37.4298 108.109 39.6573 110.133 40.6273C111.671 41.362 113.636 41.6667 114.432 41.0489C117.365 38.6908 110.487 33.6143 102.998 26.8234L82.8678 20.3824C73.4636 18.7779 64.0049 16.7438 58.443 18.0582C58.443 18.0582 40.782 23.6079 30.6288 24.3945C30.6288 24.3945 18.2164 18.6523 8.30697 17.3617C8.30697 17.3617 0.327348 32.607 5.87305 36.4672C6.99426 36.1139 22.757 39.5913 28.6892 40.8993C33.0941 41.8569 36.8697 44.0492 40.8721 46.0312C44.6183 47.8908 46.4153 49.071 50.5002 49.5025C53.8112 49.8282 64.025 49.6198 67.3234 50.1458C73.4934 51.1306 76.3549 52.61 84.7614 54.642C85.2585 54.7642 87.0611 54.6879 87.7948 54.0766C89.5891 52.5338 91.4957 49.2757 83.405 45.1341C81.0201 43.9158 73.3245 42.4935 69.2381 42.1492C59.8723 41.3489 60.3692 39.5686 60.4068 39.4652C62.5874 33.4677 74.377 33.3931 77.4688 32.0879L98.2304 32.4071Z" fill="#FFD3A6"/>
<path d="M80.8044 52.7048C80.8044 52.7048 85.7744 54.9215 87.4628 52.8427C89.3343 50.5085 84.4129 48.0752 83.5156 47.8954C83.4985 47.8599 80.0248 47.6505 80.8044 52.7048Z" fill="white"/>
<path d="M110.451 35.5342C110.451 35.5342 112.487 38.7039 113.581 38.8383C114.329 38.9344 115.07 38.8819 114.795 38.3137C114.032 36.6898 111.693 34.4346 111.051 33.9669C111.024 33.9573 109.615 33.9427 110.451 35.5342Z" fill="white"/>
<path d="M26.9173 44.4422L36.0625 19.2888L-6.743 3.72561L-15.8882 28.8789L26.9173 44.4422Z" fill="#2C5871"/>
</g>
</g>
<defs>
<clipPath id="clip0_671_7048">
<rect x="211.609" y="30.5459" width="203.716" height="209.385" rx="101.858" transform="rotate(109.98 211.609 30.5459)" fill="white"/>
</clipPath>
</defs>
</svg>
