<svg width="204" height="241" viewBox="0 0 204 241" fill="none" xmlns="http://www.w3.org/2000/svg">
<g opacity="0.3" clip-path="url(#clip0_684_5119)">
<rect width="250.189" height="250.189" transform="translate(-105 0.116577) rotate(-15.7988)" fill="white"/>
<path d="M116.892 107.639C116.547 106.417 116.677 105.18 117.142 104.069C116.99 99.5716 116.676 94.0801 116.075 87.2899C115.935 87.0093 115.815 86.7236 115.725 86.4087C115.453 85.4458 115.498 84.4731 115.741 83.5643C115.084 76.93 114.304 71.4902 113.464 67.1076C112.443 66.3966 111.642 65.4031 111.286 64.1439C110.872 62.681 111.111 61.1933 111.838 59.9474C109.183 50.1383 106.575 48.4159 106.575 48.4159C97.4075 46.4098 78.7057 57.2217 69.3772 58.0411C66.2333 58.3107 59.1681 58.9297 57.0115 56.6798C52.8008 52.331 54.9634 38.8385 52.7441 33.1862C50.9844 28.6638 44.8695 20.5536 40.7919 17.9472C38.6673 16.5883 35.8237 14.1727 33.4268 14.8909C32.8342 15.0586 32.1351 15.5565 31.4541 16.1892C30.3464 17.2226 29.296 18.5999 29.0636 19.5456C27.7125 24.8082 34.509 35.1856 34.429 40.6285C34.2768 48.4319 29.5083 63.7418 25.6446 70.5152C24.192 73.0863 18.2554 78.9663 18.2554 78.9663L36.3902 143.058C36.3902 143.058 42.5956 140.602 45.0197 140.616C61.5789 140.611 103.479 132.336 116.404 121.958C116.404 121.958 117.371 118.945 117.26 108.515C117.097 108.222 116.982 107.954 116.892 107.639Z" fill="#EFC498"/>
<path d="M111.762 53.0106C113.696 57.3034 111.801 62.3398 107.508 64.2745L82.853 75.2509C78.5602 77.1856 73.5238 75.2905 71.5891 70.9977C69.6545 66.7049 71.5496 61.6685 75.8424 59.7338L100.498 48.7574C104.772 46.8279 109.827 48.7178 111.762 53.0106Z" fill="#FFD3A6"/>
<path d="M118.764 72.8897C120.412 77.5836 117.94 82.7031 113.27 84.3645L86.1007 93.1721C81.4068 94.8202 76.2873 92.3486 74.6444 87.6733C72.9963 82.9794 75.4679 77.8599 80.1432 76.217L107.312 67.4094C111.996 65.7242 117.115 68.1958 118.764 72.8897Z" fill="#FFD3A6"/>
<path d="M123.396 93.9391C124.6 98.6187 121.772 103.399 117.074 104.608L89.8841 110.302C85.2045 111.506 80.4243 108.678 79.2202 103.999C78.0161 99.319 80.8438 94.5388 85.5233 93.3347L112.714 87.6413C117.43 86.4268 122.21 89.2544 123.396 93.9391Z" fill="#FFD3A6"/>
<path d="M121.238 113.171C122.1 117.347 119.414 121.427 115.238 122.289L91.6914 125.592C87.515 126.453 83.4534 123.762 82.597 119.604C81.7353 115.428 84.4263 111.366 88.5841 110.51L112.131 107.208C116.302 106.327 120.382 109.013 121.238 113.171Z" fill="#FFD3A6"/>
<path d="M56.9958 56.6849C52.7852 52.3361 54.9478 38.8436 52.7284 33.1913C50.9688 28.669 44.8539 20.5588 40.7762 17.9524C38.6516 16.5934 35.8081 14.1778 33.4112 14.8961C32.8186 15.0637 32.1194 15.5616 31.4384 16.1943C30.3308 17.2277 29.2804 18.605 29.048 19.5508C27.6969 24.8133 34.4933 35.1908 34.4133 40.6336C34.2612 48.437 29.4927 63.7469 25.629 70.5204C24.1764 73.0915 18.2398 78.9714 18.2398 78.9714L29.2904 118.026C34.3709 119.229 39.6157 119.245 44.7638 117.788C63.9117 112.371 72.6602 90.2743 66.0739 66.9968C65.3846 64.6317 58.4485 58.214 56.9958 56.6849Z" fill="#FFD3A6"/>
<path d="M21.8781 75.1002L15.5078 76.9027L34.6119 144.42L40.9822 142.618L21.8781 75.1002Z" fill="white"/>
<path d="M-70.9402 120.485C-65.6429 139.207 -56.3507 155.718 -44.2464 169.374L37.4933 146.246L17.5142 75.6358L-74.7439 101.74C-73.9774 107.984 -72.706 114.244 -70.9402 120.485Z" fill="#2C5871"/>
</g>
<defs>
<clipPath id="clip0_684_5119">
<rect width="250.189" height="250.189" fill="white" transform="translate(-105 0.116577) rotate(-15.7988)"/>
</clipPath>
</defs>
</svg>
