<svg width="153" height="163" viewBox="0 0 153 163" fill="none" xmlns="http://www.w3.org/2000/svg">
<g opacity="0.3">
<path d="M29.9335 136.068L15.2609 120.329C12.3908 117.251 12.5594 112.441 15.6372 109.599L17.9392 107.453L42.9657 134.299L40.6638 136.445C37.586 139.287 32.8046 139.119 29.9335 136.068Z" fill="#424B4E"/>
<path d="M43.3051 114.28L40.1979 110.54L37.0907 106.799C33.4099 102.368 18.543 84.4709 0.474746 107.562C-24.9988 140.12 -29.487 154.007 -29.487 154.007L-6.69629 138.574L-34.7858 183.483L9.46126 158.025L-7.13898 180.91C-7.13898 180.91 6.0997 177.526 38.7174 153.6C61.8528 136.608 46.9859 118.711 43.3051 114.28Z" fill="#FF9F00"/>
<path d="M-0.0854832 142.597C1.68569 139.781 1.5473 136.17 -0.415071 133.839C-0.462874 133.781 -0.534599 133.695 -0.582402 133.637C-2.19599 131.852 -4.62052 131.219 -6.89378 131.895C-3.43136 126.888 0.844005 121.013 6.14305 114.271C10.0844 109.214 13.9001 106.543 17.4274 106.311C23.3133 105.944 28.4761 112.159 30.1731 114.202L35.9812 121.194C37.6782 123.237 42.841 129.452 41.8788 135.746C41.289 139.546 38.4317 143.34 33.367 147.044C26.61 152.03 20.7571 156.007 15.7889 159.201C16.6519 156.827 16.3278 154.151 14.8581 152.225C14.8102 152.168 14.7386 152.081 14.6908 152.024C12.7548 149.693 9.45369 149.133 6.67865 150.74L-11.8815 161.433L-0.0854832 142.597Z" fill="#FFC300"/>
<path d="M77.815 113.983C77.815 113.983 81.0521 138.12 73.2275 147.389C63.2546 159.215 44.6367 162.181 23.2164 167.011C43.246 153.457 44.8238 134.17 44.8238 134.17C51.8924 130.008 77.815 113.983 77.815 113.983Z" fill="#295C6F"/>
<path d="M39.434 73.0508C39.434 73.0508 17.6584 67.0189 8.33725 74.4338C-3.55343 83.8833 -8.23983 103.549 -14.9282 125.997C-0.390817 105.938 17.45 106.289 17.45 106.289C22.0057 99.2005 39.434 73.0508 39.434 73.0508Z" fill="#295C6F"/>
<path d="M83.0077 114.745C62.6744 127.085 43.6403 137.3 43.6403 137.3L14.9926 106.57C14.9926 106.57 26.516 88.2987 40.2506 68.8799C44.2684 78.1221 50.1297 87.1785 57.7735 95.4068C65.4451 103.636 74.0686 110.117 83.0077 114.745Z" fill="#FD3A0B"/>
<path d="M124.828 85.678C115.822 94.0739 98.9865 105.09 83.0049 114.772C74.0669 110.116 65.4155 103.634 57.7708 95.4337C50.0992 87.2044 44.2379 78.148 40.2479 68.9068C51.0256 53.6427 63.1938 37.6202 72.1999 29.2244C83.2489 18.9241 95.5021 13.1749 107.05 10.073C110.372 18.5393 115.723 27.049 122.884 34.7593C130.073 42.4706 138.216 48.3784 146.401 52.2837C142.499 63.5305 135.877 75.3777 124.828 85.678Z" fill="#E6E6E6"/>
<path d="M96.843 79.799C108.726 80.2158 118.697 70.9205 119.114 59.0374C119.53 47.1544 110.235 37.1835 98.3521 36.7668C86.4691 36.35 76.4981 45.6453 76.0814 57.5283C75.6647 69.4114 84.96 79.3823 96.843 79.799Z" fill="#1DA8B5"/>
<path opacity="0.2" d="M82.8008 46.13C91.4904 38.0292 105.112 38.5069 113.213 47.1965C116.834 51.0809 118.723 55.9344 118.941 60.8406C119.655 54.7703 117.817 48.4434 113.337 43.6383C105.237 34.9487 91.6152 34.471 82.9256 42.5718C78.1205 47.0513 75.8162 53.2329 76.1309 59.3393C76.6926 54.4326 78.9174 49.7234 82.8008 46.13Z" fill="black"/>
<path d="M79.5264 75.0991C70.2453 65.1435 70.7942 49.4929 80.7498 40.2118C90.7055 30.9308 106.356 31.4797 115.637 41.4353C124.918 51.3909 124.369 67.0416 114.414 76.3226C104.458 85.6036 88.8074 85.0548 79.5264 75.0991ZM111.925 44.8956C104.549 36.9829 92.1228 36.5471 84.1823 43.9226C76.2696 51.2992 75.8338 63.7252 83.2103 71.6379C90.5869 79.5506 103.013 79.9864 110.953 72.6108C118.865 65.2621 119.302 52.8083 111.925 44.8956Z" fill="#295C6F"/>
<path d="M150.074 38.1899C153.141 21.3751 151.061 8.44345 151.061 8.44345C151.061 8.44345 138.307 5.46339 121.319 7.34475C116.793 7.82619 111.976 8.68706 107.03 10.0444C110.351 18.5107 115.703 27.0204 122.863 34.7307C130.052 42.442 138.195 48.3498 146.38 52.2551C148.081 47.3884 149.249 42.6699 150.074 38.1899Z" fill="#FD3A0B"/>
<path opacity="0.3" d="M80.8119 38.4607C105.778 14.6485 151.057 8.44318 151.057 8.44318C151.057 8.44318 140.019 7.30462 123.031 9.18598C118.505 9.66742 113.688 10.5283 108.742 11.8856C97.1936 14.9876 84.9394 20.7646 73.8913 31.0371C64.8852 39.4329 52.7181 55.4276 41.9393 70.7195C28.2047 90.1383 16.6813 108.41 16.6813 108.41L23.6028 115.806C23.6028 115.806 35.1262 97.534 48.8608 78.1152C59.6386 62.8512 71.9141 46.9438 80.8119 38.4607Z" fill="white"/>
<path d="M31.127 125.896C16.769 139.281 2.29929 147.124 2.29929 147.124C2.29929 147.124 11.136 133.239 25.494 119.854C39.852 106.469 51.5052 95.6049 54.3217 98.6262C57.1382 101.647 45.485 112.511 31.127 125.896Z" fill="#295C6F"/>
</g>
</svg>
