<svg width="55" height="55" viewBox="0 0 55 55" fill="none" xmlns="http://www.w3.org/2000/svg">
<g clip-path="url(#clip0_156_2412)">
<path d="M10.702 24.8682L10.702 24.8682C12.0994 23.403 12.77 22.7306 13.3855 22.3924C13.9562 22.0788 14.4952 22.0452 15.7593 22.0452C16.9794 22.0452 17.7762 22.0231 18.5952 21.5912C19.375 21.1801 20.1502 20.4078 21.4424 19.0867C26.4894 13.9269 32.3071 10.3702 38.283 8.76571C40.3184 8.21935 42.1902 7.97041 43.673 8.00279C44.4146 8.01899 45.0445 8.10529 45.5429 8.25153C46.046 8.39917 46.3794 8.59722 46.5721 8.81025L46.5721 8.81027C46.9235 9.19853 47.1596 9.99626 47.1852 11.2115C47.2101 12.397 47.0331 13.873 46.6759 15.4982C45.9618 18.748 44.5444 22.5201 42.6874 25.6311C41.7813 27.149 39.2935 30.2603 37.1611 32.5262C35.2732 34.5323 34.2457 35.6316 33.7129 36.5525C33.1426 37.5381 33.1308 38.3313 33.1308 39.5995C33.1308 40.8715 33.097 41.4131 32.7937 41.9711C32.4677 42.5709 31.8199 43.2116 30.3983 44.5518L30.7413 44.9156L30.3983 44.5518C28.2118 46.6133 27.244 47.1465 26.3132 47.1579C25.2604 47.1705 24.8083 46.9722 24.5451 46.5805C24.3957 46.3581 24.2748 46.028 24.1947 45.5267C24.1149 45.0271 24.0805 44.3911 24.0805 43.5809V40.692V39.9411L23.3876 40.2307L21.5531 40.9974C21.5531 40.9975 21.553 40.9975 21.553 40.9975C20.728 41.3419 18.1936 42.0279 15.7897 42.6039C14.5975 42.8895 13.4556 43.1438 12.5991 43.3108C12.2329 43.3822 11.9247 43.4364 11.6895 43.4705C11.7155 43.2715 11.7563 43.0189 11.8105 42.7212C11.9492 41.9584 12.1684 40.9365 12.4235 39.8482C12.936 37.6618 13.5809 35.2603 13.9925 34.1771L14.9061 31.7731L15.1636 31.0955H14.4387H11.5724C10.7776 31.0955 10.1505 31.061 9.65564 30.9824C9.15911 30.9035 8.8272 30.7847 8.60098 30.6374C8.20355 30.3788 8 29.9418 8 28.9452C8 28.5382 8.13649 28.0774 8.55237 27.4298C8.97269 26.7754 9.6553 25.9654 10.702 24.8682ZM21.421 37.0664L22.0863 36.7884L21.5926 36.2627L20.4198 35.014C20.0909 34.6638 19.7675 34.3426 19.5095 34.1062C19.3815 33.9888 19.2632 33.8865 19.1649 33.8107C19.1168 33.7735 19.0641 33.7355 19.0117 33.7042C18.9858 33.6887 18.9507 33.6693 18.9098 33.6524C18.8781 33.6393 18.7977 33.608 18.6935 33.608C18.467 33.608 18.3183 33.7461 18.2772 33.7849C18.2127 33.8456 18.1583 33.9166 18.1151 33.9788C18.0265 34.1065 17.9341 34.2728 17.8439 34.4517C17.6614 34.8143 17.4579 35.2902 17.2753 35.7662C17.0927 36.2422 16.9252 36.733 16.8175 37.1267C16.7644 37.3212 16.7215 37.5073 16.7013 37.6623C16.6914 37.7381 16.6841 37.8264 16.6903 37.9136C16.6943 37.9706 16.7096 38.1621 16.8612 38.314L16.8623 38.3151C17.0059 38.4581 17.1843 38.4809 17.2485 38.4875C17.3371 38.4965 17.4271 38.4917 17.5055 38.4833C17.6653 38.4663 17.8568 38.4254 18.0599 38.3713C18.4708 38.2619 18.9914 38.0815 19.528 37.8574L19.528 37.8573L21.421 37.0664ZM39.6584 18.5301C39.6584 18.1135 39.5808 17.6681 39.4581 17.2796C39.34 16.9056 39.1591 16.5171 38.909 16.267C38.6588 16.0168 38.2703 15.836 37.8963 15.7179C37.5078 15.5952 37.0625 15.5175 36.6458 15.5175C35.7352 15.5175 34.959 15.7517 34.4132 16.2974C33.8674 16.8432 33.6333 17.6194 33.6333 18.5301C33.6333 19.4408 33.8674 20.217 34.4132 20.7627C34.959 21.3085 35.7352 21.5427 36.6458 21.5427C37.5565 21.5427 38.3327 21.3085 38.8785 20.7627C39.4242 20.217 39.6584 19.4408 39.6584 18.5301ZM31.6182 26.5703C31.6182 26.1537 31.5405 25.7084 31.4178 25.3199C31.2997 24.9458 31.1189 24.5574 30.8687 24.3072C30.6186 24.0571 30.2301 23.8762 29.8561 23.7581C29.4676 23.6354 29.0222 23.5578 28.6056 23.5578C28.189 23.5578 27.7437 23.6354 27.3552 23.7581C26.9811 23.8762 26.5926 24.0571 26.3425 24.3072C26.0924 24.5574 25.9115 24.9458 25.7934 25.3199C25.6707 25.7084 25.593 26.1537 25.593 26.5703C25.593 27.481 25.8272 28.2572 26.373 28.803C26.9187 29.3487 27.6949 29.5829 28.6056 29.5829C29.0222 29.5829 29.4676 29.5052 29.8561 29.3826C30.2301 29.2644 30.6186 29.0836 30.8687 28.8334C31.1189 28.5833 31.2997 28.1948 31.4178 27.8208C31.5405 27.4323 31.6182 26.9869 31.6182 26.5703Z" stroke="#0049FF"/>
</g>
<defs>
<clipPath id="clip0_156_2412">
<rect width="55" height="55" fill="white"/>
</clipPath>
</defs>
</svg>
