<svg width="55" height="55" viewBox="0 0 55 55" fill="none" xmlns="http://www.w3.org/2000/svg">
<g clip-path="url(#clip0_156_2430)">
<path d="M33.5365 38.8659C43.699 35.4784 46.8444 23.6221 43.699 18.1175C42.3441 15.7462 38.6178 14.3065 36.924 13.8831C35.2295 6.68462 28.5091 4.54082 20.8335 8.37841C1.35461 18.1175 13.634 38.8659 23.374 38.8659C24.6436 38.8659 23.374 42.2534 24.2209 46.9112C24.6064 49.0315 27.185 48.1815 27.185 42.6768C27.185 37.578 30.5717 38.8659 30.5717 43.9471C30.5717 47.7581 33.5365 48.6049 33.5365 43.9471V38.8659Z" stroke="#0049FF"/>
<circle cx="27.6075" cy="13.0362" r="2.8875" stroke="#0049FF"/>
<circle cx="18.2918" cy="18.1175" r="2.8875" stroke="#0049FF"/>
<circle cx="19.1387" cy="29.1268" r="2.8875" stroke="#0049FF"/>
<circle cx="27.6075" cy="34.2081" r="2.8875" stroke="#0049FF"/>
<circle cx="36.9234" cy="28.2798" r="2.8875" stroke="#0049FF"/>
</g>
<defs>
<clipPath id="clip0_156_2430">
<rect width="55" height="55" fill="white"/>
</clipPath>
</defs>
</svg>
