<svg width="55" height="55" viewBox="0 0 55 55" fill="none" xmlns="http://www.w3.org/2000/svg">
<g clip-path="url(#clip0_156_2421)">
<path d="M15.1957 28.544V41.5C15.1957 44.2614 17.4342 46.5 20.1957 46.5H23.0435M15.1957 28.544V28.544C14.0751 29.6768 12.2322 29.633 11.1668 28.4481L11.0024 28.2653C9.89575 27.0346 9.99406 25.1404 11.2222 24.0309L24.9874 11.5948C26.9219 9.84713 29.8746 9.87912 31.7708 11.6683L44.8299 23.9908C46.0367 25.1295 46.1145 27.0233 45.005 28.2571V28.2571C43.8411 29.5514 41.8329 29.6137 40.591 28.3941L39.9783 27.7923M15.1957 28.544L24.9159 19.6382C26.8764 17.8419 29.8999 17.8943 31.797 19.7575L39.9783 27.7923M23.0435 46.5V39.9753C23.0435 37.3519 25.1701 35.2253 27.7935 35.2253V35.2253C30.4168 35.2253 32.5435 37.3519 32.5435 39.9753V45.6648V46.5M23.0435 46.5H32.5435M39.9783 27.7923V41.5C39.9783 44.2614 37.7397 46.5 34.9783 46.5H32.5435" stroke="#0049FF"/>
</g>
<defs>
<clipPath id="clip0_156_2421">
<rect width="55" height="55" fill="white"/>
</clipPath>
</defs>
</svg>
