<svg width="55" height="55" viewBox="0 0 55 55" fill="none" xmlns="http://www.w3.org/2000/svg">
<path d="M37.9091 14.867V15.367H38.4091H46.9475L44.003 44.7889C43.8483 46.037 42.7993 47 41.5364 47H39.0182V32.857C39.0182 28.31 37.1243 25.5157 34.4512 22.8785L34.4499 22.8772C32.6898 21.153 29.8371 19.6195 26.7903 18.7323L26.3591 15.367H34.8273H35.3273V14.867V8H37.9091V14.867ZM8 45.681V44.3802H34.3273V45.681C34.3273 46.4023 33.736 47 32.9909 47H9.33636C8.59129 47 8 46.4023 8 45.681ZM8.01144 32.4479C8.15952 29.2396 9.73353 26.8215 12.0594 25.1701C14.5194 23.4234 17.828 22.5339 21.1636 22.5339C24.4993 22.5339 27.8079 23.4234 30.2679 25.1701C32.5937 26.8215 34.1678 29.2396 34.3158 32.4479H8.01144ZM8.03636 37.1041H34.3091V39.7422H8.03636V37.1041Z" stroke="#0049FF"/>
</svg>
