<svg width="65" height="65" viewBox="0 0 65 65" fill="none" xmlns="http://www.w3.org/2000/svg">
<g clip-path="url(#clip0_569_5224)">
<path d="M74.3031 101.888C90.6594 101.888 103.919 88.6281 103.919 72.2719C103.919 55.9156 90.6594 42.6562 74.3031 42.6562C57.9469 42.6562 44.6875 55.9156 44.6875 72.2719C44.6875 88.6281 57.9469 101.888 74.3031 101.888Z" fill="white"/>
<path d="M32.7531 41.6677C37.6779 41.6677 41.6703 37.6753 41.6703 32.7505C41.6703 27.8257 37.6779 23.8333 32.7531 23.8333C27.8283 23.8333 23.8359 27.8257 23.8359 32.7505C23.8359 37.6753 27.8283 41.6677 32.7531 41.6677Z" fill="white"/>
<path d="M19.1915 35.7731H25.8865V51.3731C25.8865 55.0131 27.8581 55.7498 30.2631 53.0198L46.6648 34.3865C48.6798 32.1115 47.8348 30.2265 44.7798 30.2265H38.0848V14.6265C38.0848 10.9865 36.1131 10.2498 33.7081 12.9798L17.3065 31.6131C15.3131 33.9098 16.1581 35.7731 19.1915 35.7731Z" stroke="white" stroke-width="1.5" stroke-miterlimit="10" stroke-linecap="round" stroke-linejoin="round"/>
</g>
<defs>
<clipPath id="clip0_569_5224">
<rect width="65" height="65" fill="white"/>
</clipPath>
</defs>
</svg>
