<svg width="65" height="65" viewBox="0 0 65 65" fill="none" xmlns="http://www.w3.org/2000/svg">
<g clip-path="url(#clip0_569_5234)">
<path d="M74.3031 101.888C90.6594 101.888 103.919 88.6281 103.919 72.2719C103.919 55.9156 90.6594 42.6562 74.3031 42.6562C57.9469 42.6562 44.6875 55.9156 44.6875 72.2719C44.6875 88.6281 57.9469 101.888 74.3031 101.888Z" fill="white"/>
<path d="M32.7531 41.6677C37.6779 41.6677 41.6703 37.6753 41.6703 32.7505C41.6703 27.8257 37.6779 23.8333 32.7531 23.8333C27.8283 23.8333 23.8359 27.8257 23.8359 32.7505C23.8359 37.6753 27.8283 41.6677 32.7531 41.6677Z" fill="white"/>
<path d="M10.3359 39.5H46.0859C50.2676 39.5 53.6693 42.9017 53.6693 47.0833C53.6693 51.265 50.2676 54.6667 46.0859 54.6667C41.9043 54.6667 38.5026 51.265 38.5026 47.0833V46" stroke="white" stroke-width="1.5" stroke-miterlimit="10" stroke-linecap="round" stroke-linejoin="round"/>
<path d="M10.3359 33H46.0859C50.2459 33 53.6693 29.5983 53.6693 25.4166C53.6693 21.2566 50.2459 17.8333 46.0859 17.8333C41.9259 17.8333 38.5026 21.235 38.5026 25.4166V26.5" stroke="white" stroke-width="1.5" stroke-miterlimit="10" stroke-linecap="round" stroke-linejoin="round"/>
<path d="M10.3359 26.5002H26.1743C29.4026 26.5002 32.0026 23.8786 32.0026 20.6719C32.0026 17.4436 29.3809 14.8436 26.1743 14.8436C22.9459 14.8436 20.3459 17.4652 20.3459 20.6719V21.4952" stroke="white" stroke-width="1.5" stroke-miterlimit="10" stroke-linecap="round" stroke-linejoin="round"/>
</g>
<defs>
<clipPath id="clip0_569_5234">
<rect width="65" height="65" fill="white"/>
</clipPath>
</defs>
</svg>
