<svg width="65" height="65" viewBox="0 0 65 65" fill="none" xmlns="http://www.w3.org/2000/svg">
<g clip-path="url(#clip0_569_6257)">
<path d="M74.3031 101.888C90.6594 101.888 103.919 88.6281 103.919 72.2719C103.919 55.9156 90.6594 42.6562 74.3031 42.6562C57.9469 42.6562 44.6875 55.9156 44.6875 72.2719C44.6875 88.6281 57.9469 101.888 74.3031 101.888Z" fill="#0049FF"/>
<path d="M17.0422 30.0219C21.967 30.0219 25.9594 26.0295 25.9594 21.1047C25.9594 16.1799 21.967 12.1875 17.0422 12.1875C12.1174 12.1875 8.125 16.1799 8.125 21.1047C8.125 26.0295 12.1174 30.0219 17.0422 30.0219Z" fill="#0049FF"/>
<path d="M20.9062 46.3251V41.8401" stroke="#3A3A3A" stroke-width="1.5" stroke-linecap="round"/>
<path d="M32 46.325V37.355" stroke="#3A3A3A" stroke-width="1.5" stroke-linecap="round"/>
<path d="M43.0938 46.3243V32.8477" stroke="#3A3A3A" stroke-width="1.5" stroke-linecap="round"/>
<path d="M43.0929 19.6753L42.0963 20.8453C36.5713 27.302 29.1613 31.8736 20.9062 33.932" stroke="#3A3A3A" stroke-width="1.5" stroke-linecap="round"/>
<path d="M36.7422 19.6753H43.0905V26.002" stroke="#3A3A3A" stroke-width="1.5" stroke-linecap="round" stroke-linejoin="round"/>
<path d="M25.5026 54.6666H38.5026C49.3359 54.6666 53.6693 50.3332 53.6693 39.4999V26.4999C53.6693 15.6666 49.3359 11.3333 38.5026 11.3333H25.5026C14.6693 11.3333 10.3359 15.6666 10.3359 26.4999V39.4999C10.3359 50.3332 14.6693 54.6666 25.5026 54.6666Z" stroke="#3A3A3A" stroke-width="1.5" stroke-linecap="round" stroke-linejoin="round"/>
</g>
<defs>
<clipPath id="clip0_569_6257">
<rect width="65" height="65" fill="white"/>
</clipPath>
</defs>
</svg>
