<svg width="65" height="65" viewBox="0 0 65 65" fill="none" xmlns="http://www.w3.org/2000/svg">
<g clip-path="url(#clip0_569_6241)">
<path d="M74.3031 101.888C90.6594 101.888 103.919 88.6281 103.919 72.2719C103.919 55.9156 90.6594 42.6562 74.3031 42.6562C57.9469 42.6562 44.6875 55.9156 44.6875 72.2719C44.6875 88.6281 57.9469 101.888 74.3031 101.888Z" fill="#0049FF"/>
<path d="M32.7531 41.6676C37.6779 41.6676 41.6703 37.6752 41.6703 32.7504C41.6703 27.8256 37.6779 23.8333 32.7531 23.8333C27.8283 23.8333 23.8359 27.8256 23.8359 32.7504C23.8359 37.6752 27.8283 41.6676 32.7531 41.6676Z" fill="#0049FF"/>
<path d="M36.3359 41.6668C36.3359 45.5018 34.6676 48.9685 32.0026 51.3302C29.7059 53.4102 26.6726 54.6668 23.3359 54.6668C16.1643 54.6668 10.3359 48.8385 10.3359 41.6668C10.3359 35.6868 14.4093 30.6168 19.9126 29.1218C21.4076 32.8918 24.6143 35.7952 28.5793 36.8785C29.6626 37.1818 30.8109 37.3335 32.0026 37.3335C33.1943 37.3335 34.3426 37.1818 35.4259 36.8785C36.0109 38.3518 36.3359 39.9768 36.3359 41.6668Z" stroke="#3A3A3A" stroke-width="1.5" stroke-linecap="round" stroke-linejoin="round"/>
<path d="M45 24.3333C45 26.0233 44.675 27.6483 44.09 29.1216C42.595 32.8916 39.3883 35.7949 35.4233 36.8783C34.34 37.1816 33.1917 37.3333 32 37.3333C30.8083 37.3333 29.66 37.1816 28.5767 36.8783C24.6117 35.7949 21.405 32.8916 19.91 29.1216C19.325 27.6483 19 26.0233 19 24.3333C19 17.1616 24.8283 11.3333 32 11.3333C39.1717 11.3333 45 17.1616 45 24.3333Z" stroke="#3A3A3A" stroke-width="1.5" stroke-linecap="round" stroke-linejoin="round"/>
<path d="M53.6667 41.6668C53.6667 48.8385 47.8383 54.6668 40.6667 54.6668C37.33 54.6668 34.2967 53.4102 32 51.3302C34.665 48.9685 36.3333 45.5018 36.3333 41.6668C36.3333 39.9768 36.0083 38.3518 35.4233 36.8785C39.3883 35.7952 42.595 32.8918 44.09 29.1218C49.5933 30.6168 53.6667 35.6868 53.6667 41.6668Z" stroke="#3A3A3A" stroke-width="1.5" stroke-linecap="round" stroke-linejoin="round"/>
</g>
<defs>
<clipPath id="clip0_569_6241">
<rect width="65" height="65" fill="white"/>
</clipPath>
</defs>
</svg>
