<svg width="65" height="65" viewBox="0 0 65 65" fill="none" xmlns="http://www.w3.org/2000/svg">
<g clip-path="url(#clip0_569_6223)">
<path d="M74.3031 101.888C90.6594 101.888 103.919 88.6281 103.919 72.2719C103.919 55.9156 90.6594 42.6562 74.3031 42.6562C57.9469 42.6562 44.6875 55.9156 44.6875 72.2719C44.6875 88.6281 57.9469 101.888 74.3031 101.888Z" fill="#0049FF"/>
<path d="M32.7531 41.6676C37.6779 41.6676 41.6703 37.6752 41.6703 32.7504C41.6703 27.8256 37.6779 23.8333 32.7531 23.8333C27.8283 23.8333 23.8359 27.8256 23.8359 32.7504C23.8359 37.6752 27.8283 41.6676 32.7531 41.6676Z" fill="#0049FF"/>
<path d="M45.0037 22.5133C44.8737 22.4916 44.7221 22.4916 44.5921 22.5133C41.6021 22.4049 39.2188 19.9566 39.2188 16.9233C39.2188 13.8249 41.7104 11.3333 44.8087 11.3333C47.9071 11.3333 50.3987 13.8466 50.3987 16.9233C50.3771 19.9566 47.9937 22.4049 45.0037 22.5133Z" stroke="#3A3A3A" stroke-width="1.5" stroke-linecap="round" stroke-linejoin="round"/>
<path d="M42.7759 38.2869C45.7443 38.7853 49.0159 38.2653 51.3126 36.7269C54.3676 34.6903 54.3676 31.3536 51.3126 29.3169C48.9943 27.7786 45.6793 27.2586 42.7109 27.7786" stroke="#3A3A3A" stroke-width="1.5" stroke-linecap="round" stroke-linejoin="round"/>
<path d="M18.9341 22.5133C19.0641 22.4916 19.2157 22.4916 19.3457 22.5133C22.3357 22.4049 24.7191 19.9566 24.7191 16.9233C24.7191 13.8249 22.2274 11.3333 19.1291 11.3333C16.0307 11.3333 13.5391 13.8466 13.5391 16.9233C13.5607 19.9566 15.9441 22.4049 18.9341 22.5133Z" stroke="#3A3A3A" stroke-width="1.5" stroke-linecap="round" stroke-linejoin="round"/>
<path d="M21.1639 38.2867C18.1955 38.785 14.9239 38.265 12.6272 36.7267C9.57219 34.69 9.57219 31.3534 12.6272 29.3167C14.9455 27.7784 18.2605 27.2583 21.2288 27.7783" stroke="#3A3A3A" stroke-width="1.5" stroke-linecap="round" stroke-linejoin="round"/>
<path d="M32.0037 38.6978C31.8737 38.6762 31.7221 38.6762 31.5921 38.6978C28.6021 38.5895 26.2188 36.1412 26.2188 33.1078C26.2188 30.0095 28.7104 27.5178 31.8087 27.5178C34.9071 27.5178 37.3987 30.0312 37.3987 33.1078C37.3771 36.1412 34.9937 38.6112 32.0037 38.6978Z" stroke="#3A3A3A" stroke-width="1.5" stroke-linecap="round" stroke-linejoin="round"/>
<path d="M25.6975 45.5228C22.6425 47.5595 22.6425 50.8961 25.6975 52.9328C29.1642 55.2511 34.8408 55.2511 38.3075 52.9328C41.3625 50.8961 41.3625 47.5595 38.3075 45.5228C34.8625 43.2261 29.1642 43.2261 25.6975 45.5228Z" stroke="#3A3A3A" stroke-width="1.5" stroke-linecap="round" stroke-linejoin="round"/>
</g>
<defs>
<clipPath id="clip0_569_6223">
<rect width="65" height="65" fill="white"/>
</clipPath>
</defs>
</svg>
