<svg width="65" height="65" viewBox="0 0 65 65" fill="none" xmlns="http://www.w3.org/2000/svg">
<g clip-path="url(#clip0_569_6179)">
<path d="M74.3031 101.888C90.6594 101.888 103.919 88.6281 103.919 72.2719C103.919 55.9156 90.6594 42.6562 74.3031 42.6562C57.9469 42.6562 44.6875 55.9156 44.6875 72.2719C44.6875 88.6281 57.9469 101.888 74.3031 101.888Z" fill="#0049FF"/>
<path d="M32.7531 41.6677C37.6779 41.6677 41.6703 37.6753 41.6703 32.7505C41.6703 27.8257 37.6779 23.8333 32.7531 23.8333C27.8283 23.8333 23.8359 27.8257 23.8359 32.7505C23.8359 37.6753 27.8283 41.6677 32.7531 41.6677Z" fill="#0049FF"/>
<path d="M53.6693 32.7617V34.69C53.6693 42.4033 51.7409 44.31 44.0493 44.31H19.9559C12.2643 44.31 10.3359 42.3817 10.3359 34.69V20.9533C10.3359 13.2617 12.2643 11.3333 19.9559 11.3333H23.3359" stroke="#3A3A3A" stroke-width="1.5" stroke-linecap="round" stroke-linejoin="round"/>
<path d="M32 44.3099V54.6666" stroke="#3A3A3A" stroke-width="1.5" stroke-linecap="round" stroke-linejoin="round"/>
<path d="M10.3359 35.1667H53.6693" stroke="#3A3A3A" stroke-width="1.5" stroke-linecap="round" stroke-linejoin="round"/>
<path d="M22.25 54.6667H41.75" stroke="#3A3A3A" stroke-width="1.5" stroke-linecap="round" stroke-linejoin="round"/>
<path d="M44.6984 27.3017H34.3851C31.3951 27.3017 30.3984 25.3084 30.3984 23.315V15.6884C30.3984 13.305 32.3484 11.355 34.7318 11.355H44.6984C46.9084 11.355 48.6851 13.1317 48.6851 15.3417V23.315C48.6851 25.525 46.9084 27.3017 44.6984 27.3017Z" stroke="#3A3A3A" stroke-width="1.5" stroke-linecap="round" stroke-linejoin="round"/>
<path d="M51.3092 24.1599L48.6875 22.3183V16.3383L51.3092 14.4966C52.6092 13.6083 53.6708 14.1499 53.6708 15.7316V22.9466C53.6708 24.5283 52.6092 25.0699 51.3092 24.1599Z" stroke="#3A3A3A" stroke-width="1.5" stroke-linecap="round" stroke-linejoin="round"/>
</g>
<defs>
<clipPath id="clip0_569_6179">
<rect width="65" height="65" fill="white"/>
</clipPath>
</defs>
</svg>
