<svg width="65" height="65" viewBox="0 0 65 65" fill="none" xmlns="http://www.w3.org/2000/svg">
<g clip-path="url(#clip0_569_6194)">
<path d="M74.3031 101.888C90.6594 101.888 103.919 88.6281 103.919 72.2719C103.919 55.9156 90.6594 42.6562 74.3031 42.6562C57.9469 42.6562 44.6875 55.9156 44.6875 72.2719C44.6875 88.6281 57.9469 101.888 74.3031 101.888Z" fill="#0049FF"/>
<path d="M32.7531 41.6677C37.6779 41.6677 41.6703 37.6753 41.6703 32.7505C41.6703 27.8257 37.6779 23.8333 32.7531 23.8333C27.8283 23.8333 23.8359 27.8257 23.8359 32.7505C23.8359 37.6753 27.8283 41.6677 32.7531 41.6677Z" fill="#0049FF"/>
<path d="M25.5026 54.6668H38.5026C49.3359 54.6668 53.6693 50.3334 53.6693 39.5001V26.5001C53.6693 15.6668 49.3359 11.3334 38.5026 11.3334H25.5026C14.6693 11.3334 10.3359 15.6668 10.3359 26.5001V39.5001C10.3359 50.3334 14.6693 54.6668 25.5026 54.6668Z" stroke="#3A3A3A" stroke-width="1.5" stroke-linecap="round" stroke-linejoin="round"/>
<path d="M20.9297 12.46V53.54" stroke="#3A3A3A" stroke-width="1.5" stroke-linecap="round" stroke-linejoin="round"/>
<path d="M42.5938 12.46V53.54" stroke="#3A3A3A" stroke-width="1.5" stroke-linecap="round" stroke-linejoin="round"/>
<path d="M20.925 22.1016H11.5" stroke="#3A3A3A" stroke-width="1.5" stroke-linecap="round" stroke-linejoin="round"/>
<path d="M20.9284 33H10.3984" stroke="#3A3A3A" stroke-width="1.5" stroke-linecap="round" stroke-linejoin="round"/>
<path d="M20.93 43.7682H11.375" stroke="#3A3A3A" stroke-width="1.5" stroke-linecap="round" stroke-linejoin="round"/>
<path d="M53.425 22.1016H44" stroke="#3A3A3A" stroke-width="1.5" stroke-linecap="round" stroke-linejoin="round"/>
<path d="M53.4284 33H42.8984" stroke="#3A3A3A" stroke-width="1.5" stroke-linecap="round" stroke-linejoin="round"/>
<path d="M42.7708 33H18.9375" stroke="#3A3A3A" stroke-width="1.5" stroke-linecap="round" stroke-linejoin="round"/>
<path d="M53.43 43.7682H43.875" stroke="#3A3A3A" stroke-width="1.5" stroke-linecap="round" stroke-linejoin="round"/>
</g>
<defs>
<clipPath id="clip0_569_6194">
<rect width="65" height="65" fill="white"/>
</clipPath>
</defs>
</svg>
