<svg width="65" height="65" viewBox="0 0 65 65" fill="none" xmlns="http://www.w3.org/2000/svg">
<g clip-path="url(#clip0_569_5563)">
<path d="M74.3031 101.888C90.6594 101.888 103.919 88.6281 103.919 72.2719C103.919 55.9156 90.6594 42.6562 74.3031 42.6562C57.9469 42.6562 44.6875 55.9156 44.6875 72.2719C44.6875 88.6281 57.9469 101.888 74.3031 101.888Z" fill="white"/>
<path d="M32.7531 41.6677C37.6779 41.6677 41.6703 37.6753 41.6703 32.7505C41.6703 27.8257 37.6779 23.8333 32.7531 23.8333C27.8283 23.8333 23.8359 27.8257 23.8359 32.7505C23.8359 37.6753 27.8283 41.6677 32.7531 41.6677Z" fill="white"/>
<path d="M43.4635 15.9697L43.3118 24.1813C43.2901 25.3079 44.0053 26.803 44.9153 27.4747L50.2885 31.5479C53.7336 34.1479 53.1702 37.333 49.0535 38.633L42.0552 40.8213C40.8852 41.1896 39.6502 42.468 39.3469 43.6597L37.6785 50.0296C36.3569 55.0563 33.0635 55.5546 30.3335 51.1346L26.5201 44.9596C25.8268 43.8329 24.1802 42.988 22.8802 43.053L15.6436 43.4213C10.4652 43.6813 8.99188 40.6913 12.3719 36.748L16.6618 31.7646C17.4635 30.8329 17.8318 29.0996 17.4635 27.9296L15.2753 20.9313C13.9969 16.8146 16.2936 14.5396 20.3886 15.883L26.7803 17.9846C27.8636 18.3313 29.4886 18.093 30.3986 17.4213L37.0719 12.6113C40.6686 10.0113 43.5502 11.528 43.4635 15.9697Z" stroke="white" stroke-width="1.5" stroke-linecap="round" stroke-linejoin="round"/>
<path d="M53.4712 54.6659L46.9062 48.1009" stroke="white" stroke-width="1.5" stroke-linecap="round" stroke-linejoin="round"/>
</g>
<defs>
<clipPath id="clip0_569_5563">
<rect width="65" height="65" fill="white"/>
</clipPath>
</defs>
</svg>
