<svg width="65" height="65" viewBox="0 0 65 65" fill="none" xmlns="http://www.w3.org/2000/svg">
<g clip-path="url(#clip0_569_5550)">
<path d="M74.3031 101.888C90.6594 101.888 103.919 88.6281 103.919 72.2719C103.919 55.9156 90.6594 42.6562 74.3031 42.6562C57.9469 42.6562 44.6875 55.9156 44.6875 72.2719C44.6875 88.6281 57.9469 101.888 74.3031 101.888Z" fill="white"/>
<path d="M32.7531 41.6677C37.6779 41.6677 41.6703 37.6753 41.6703 32.7505C41.6703 27.8257 37.6779 23.8333 32.7531 23.8333C27.8283 23.8333 23.8359 27.8257 23.8359 32.7505C23.8359 37.6753 27.8283 41.6677 32.7531 41.6677Z" fill="white"/>
<g clip-path="url(#clip1_569_5550)">
<path d="M51.9528 27.1831L51.3655 25.0766C51.1282 24.2256 51.2365 23.3332 51.6704 22.5638L55.5872 15.6181C56.2369 15.481 56.8271 15.0767 57.1781 14.4543C57.8258 13.3057 57.4183 11.8444 56.2697 11.1967L53.4333 9.59714C52.2847 8.94944 50.8233 9.35693 50.1756 10.5055C49.8246 11.128 49.7841 11.8422 50.0029 12.4691L46.0862 19.4147C45.6522 20.1842 44.9446 20.7386 44.0937 20.9759L41.9872 21.5633C39.9057 22.1437 38.1748 23.4999 37.1133 25.3822L23.437 49.6346C22.7893 50.7831 23.1968 52.2445 24.3454 52.8922L34.273 58.4905C35.4215 59.1382 36.8829 58.7308 37.5306 57.5822L51.2069 33.3299C52.2684 31.4475 52.5332 29.2646 51.9528 27.1831ZM52.6835 10.9267L55.5199 12.5262C55.9354 12.7605 56.0828 13.2891 55.8485 13.7045C55.6142 14.12 55.0856 14.2674 54.6702 14.0331L51.8337 12.4336C51.4183 12.1993 51.2709 11.6707 51.5052 11.2553C51.7395 10.8398 52.268 10.6924 52.6835 10.9267ZM32.7892 36.1578L34.2517 36.9825C34.6189 37.1896 35.0844 37.0598 35.2914 36.6926C35.4985 36.3255 35.3687 35.86 35.0015 35.653L33.539 34.8282L34.3887 33.3213L37.2695 34.9459C37.6366 35.1529 38.1021 35.0231 38.3092 34.656C38.5162 34.2888 38.3864 33.8233 38.0192 33.6163L35.1385 31.9918L36.3881 29.7758L40.6871 32.2001C41.1025 32.4343 41.2499 32.9629 41.0157 33.3784L34.6176 44.7241C34.3833 45.1396 33.8547 45.287 33.4393 45.0527L29.1403 42.6284L32.7892 36.1578ZM36.201 56.8324C35.9667 57.2478 35.4382 57.3952 35.0227 57.161L25.0952 51.5626C24.6797 51.3284 24.5323 50.7998 24.7666 50.3843L28.3905 43.958L32.6895 46.3823C33.8381 47.03 35.2995 46.6225 35.9472 45.4739L42.3452 34.1281C42.9929 32.9796 42.5855 31.5182 41.4369 30.8705L37.1379 28.4462L38.4429 26.132C39.3041 24.6049 40.7084 23.5045 42.3972 23.0337L44.5037 22.4463C45.7474 22.0995 46.7816 21.2892 47.4158 20.1646L51.0404 13.7371C51.055 13.7458 51.0692 13.7548 51.0841 13.7632L53.9205 15.3627C53.9354 15.3711 53.9505 15.3786 53.9655 15.3866L50.3409 21.8141C49.7067 22.9387 49.5484 24.243 49.8953 25.4866L50.4827 27.5931C50.9534 29.2819 50.7385 31.0529 49.8773 32.5801L36.201 56.8324Z" fill="white" fill-opacity="0.84"/>
<path d="M48.0789 30.6907C47.7117 30.4836 47.2462 30.6134 47.0392 30.9806L43.3599 37.5051C43.1528 37.8723 43.2826 38.3378 43.6498 38.5448C44.0169 38.7518 44.4824 38.622 44.6895 38.2549L48.3688 31.7304C48.5758 31.3632 48.446 30.8977 48.0789 30.6907Z" fill="white" fill-opacity="0.84"/>
<path d="M47.3453 28.4677C47.4018 28.6708 47.5354 28.8316 47.7055 28.9275C47.8756 29.0235 48.0824 29.0546 48.2854 28.9979C48.6914 28.8847 48.9287 28.4638 48.8155 28.0578L48.2281 25.9512C48.115 25.5453 47.6941 25.3079 47.288 25.4211C46.882 25.5343 46.6447 25.9552 46.7579 26.3612L47.3453 28.4677Z" fill="white" fill-opacity="0.84"/>
<path d="M29.5304 50.3257L28.7769 49.9009L30.0016 47.7292C30.2086 47.3621 30.0788 46.8966 29.7117 46.6895C29.3445 46.4825 28.879 46.6123 28.672 46.9794L27.0725 49.8159C26.8654 50.183 26.9952 50.6485 27.3624 50.8556L28.7806 51.6553C29.1477 51.8623 29.6132 51.7325 29.8203 51.3654C30.0273 50.9983 29.8975 50.5328 29.5304 50.3257Z" fill="white" fill-opacity="0.84"/>
<path d="M33.7861 52.725L32.3679 51.9252C32.0008 51.7182 31.5353 51.848 31.3282 52.2151C31.1212 52.5823 31.251 53.0478 31.6181 53.2548L33.0364 54.0546C33.4035 54.2616 33.869 54.1318 34.076 53.7647C34.2831 53.3975 34.1533 52.932 33.7861 52.725Z" fill="white" fill-opacity="0.84"/>
</g>
</g>
<defs>
<clipPath id="clip0_569_5550">
<rect width="65" height="65" fill="white"/>
</clipPath>
<clipPath id="clip1_569_5550">
<rect width="52" height="52" fill="white" transform="translate(32.125 -2.4184) rotate(29.4194)"/>
</clipPath>
</defs>
</svg>
