<svg width="600" height="194" viewBox="0 0 600 194" fill="none" xmlns="http://www.w3.org/2000/svg">
<path d="M203.147 119.392V74.5722H215.633V100.888L234.137 74.5722H246.047V119.392H233.561V93.1406L215.121 119.392H203.147Z" fill="white"/>
<path d="M284.996 74.5722H297.674V119.392H284.996V74.5722ZM267.709 119.392H255.031V74.5722H267.709V119.392ZM285.893 101.913H266.812V91.4118H285.893V101.913Z" fill="white"/>
<path d="M306.664 119.392V74.5722H328.434C333.813 74.5722 337.974 75.5966 340.92 77.6456C343.908 79.6518 345.402 82.5118 345.402 86.2255C345.402 89.8538 344.015 92.7137 341.24 94.8053C338.465 96.8543 334.752 97.8787 330.099 97.8787L331.379 94.8694C336.416 94.8694 340.344 95.8725 343.161 97.8787C346.021 99.8423 347.451 102.745 347.451 106.587C347.451 110.514 345.914 113.63 342.841 115.935C339.81 118.24 335.413 119.392 329.651 119.392H306.664ZM319.15 110.3H329.138C330.974 110.3 332.34 109.916 333.236 109.148C334.175 108.337 334.645 107.163 334.645 105.626C334.645 104.09 334.175 102.958 333.236 102.233C332.34 101.464 330.974 101.08 329.138 101.08H319.15V110.3ZM319.15 92.5003H327.218C329.01 92.5003 330.355 92.1375 331.251 91.4118C332.148 90.6435 332.596 89.5336 332.596 88.0823C332.596 86.631 332.148 85.5425 331.251 84.8168C330.355 84.0485 329.01 83.6643 327.218 83.6643H319.15V92.5003Z" fill="white"/>
<path d="M365.324 91.924H386.133V101.4H365.324V91.924ZM366.22 109.596H389.655V119.392H353.671V74.5722H388.822V84.3686H366.22V109.596Z" fill="white"/>
<path d="M418.071 120.289C414.528 120.289 411.241 119.734 408.211 118.624C405.223 117.472 402.619 115.85 400.399 113.758C398.222 111.666 396.515 109.212 395.277 106.395C394.039 103.535 393.42 100.397 393.42 96.9823C393.42 93.5674 394.039 90.4514 395.277 87.6341C396.515 84.7741 398.222 82.2983 400.399 80.2067C402.619 78.1151 405.223 76.5144 408.211 75.4046C411.241 74.252 414.528 73.6758 418.071 73.6758C422.212 73.6758 425.904 74.4014 429.148 75.8528C432.435 77.3041 435.167 79.3957 437.344 82.1276L429.276 89.4269C427.825 87.7195 426.224 86.4175 424.474 85.5211C422.767 84.6247 420.846 84.1765 418.711 84.1765C416.876 84.1765 415.19 84.4753 413.653 85.0729C412.116 85.6705 410.793 86.5456 409.683 87.6981C408.616 88.808 407.763 90.1526 407.122 91.732C406.525 93.3113 406.226 95.0615 406.226 96.9823C406.226 98.9032 406.525 100.653 407.122 102.233C407.763 103.812 408.616 105.178 409.683 106.331C410.793 107.44 412.116 108.294 413.653 108.892C415.19 109.489 416.876 109.788 418.711 109.788C420.846 109.788 422.767 109.34 424.474 108.444C426.224 107.547 427.825 106.245 429.276 104.538L437.344 111.837C435.167 114.526 432.435 116.618 429.148 118.112C425.904 119.563 422.212 120.289 418.071 120.289Z" fill="white"/>
<path d="M451.98 119.392V81.8075L454.797 84.6247H438.214V74.5722H478.168V84.6247H461.648L464.466 81.8075V119.392H451.98Z" fill="white"/>
<path d="M485.409 119.969C483.36 119.969 481.631 119.286 480.223 117.92C478.814 116.554 478.11 114.825 478.11 112.733C478.11 110.556 478.814 108.828 480.223 107.547C481.631 106.224 483.36 105.562 485.409 105.562C487.458 105.562 489.187 106.224 490.596 107.547C492.004 108.828 492.708 110.556 492.708 112.733C492.708 114.825 492.004 116.554 490.596 117.92C489.187 119.286 487.458 119.969 485.409 119.969Z" fill="white"/>
<path d="M498.676 119.392V74.5722H519.165C523.263 74.5722 526.785 75.2338 529.73 76.5571C532.718 77.8803 535.023 79.8012 536.645 82.3197C538.267 84.7955 539.078 87.7408 539.078 91.1557C539.078 94.5279 538.267 97.4519 536.645 99.9277C535.023 102.403 532.718 104.324 529.73 105.69C526.785 107.014 523.263 107.675 519.165 107.675H505.719L511.354 102.169V119.392H498.676ZM511.354 103.513L505.719 97.6866H518.397C521.044 97.6866 523.007 97.1104 524.288 95.9579C525.611 94.8053 526.273 93.2046 526.273 91.1557C526.273 89.0641 525.611 87.442 524.288 86.2895C523.007 85.137 521.044 84.5607 518.397 84.5607H505.719L511.354 78.7341V103.513Z" fill="white"/>
<path d="M569.458 116.703C563.482 116.703 558.424 115.935 554.283 114.398C550.185 112.862 547.069 110.62 544.935 107.675C542.843 104.687 541.798 101.08 541.798 96.8543C541.798 92.5857 542.843 88.9787 544.935 86.0334C547.069 83.0454 550.207 80.783 554.347 79.2463C558.488 77.7096 563.546 76.9413 569.522 76.9413C569.608 76.9413 569.885 76.9413 570.355 76.9413C570.867 76.9413 571.379 76.9413 571.891 76.9413C572.404 76.9413 572.681 76.9413 572.724 76.9413C578.657 76.9413 583.63 77.7309 587.642 79.3103C591.698 80.847 594.771 83.1094 596.863 86.0974C598.954 89.0427 600 92.6284 600 96.8543C600 101.037 598.976 104.623 596.927 107.611C594.92 110.556 591.932 112.819 587.963 114.398C583.993 115.935 579.105 116.703 573.3 116.703C573.215 116.703 572.873 116.703 572.275 116.703C571.678 116.703 571.102 116.703 570.547 116.703C569.992 116.703 569.629 116.703 569.458 116.703ZM570.611 106.971C570.739 106.971 570.931 106.971 571.187 106.971C571.486 106.971 571.699 106.971 571.827 106.971C575.498 106.971 578.508 106.608 580.855 105.882C583.203 105.157 584.932 104.047 586.042 102.553C587.152 101.059 587.706 99.138 587.706 96.7902C587.706 94.3998 587.13 92.479 585.978 91.0276C584.825 89.5763 583.096 88.5092 580.791 87.8262C578.486 87.1005 575.541 86.7377 571.955 86.7377C571.827 86.7377 571.614 86.7377 571.315 86.7377C571.059 86.7377 570.824 86.7377 570.611 86.7377C566.769 86.7377 563.632 87.0792 561.198 87.7622C558.765 88.4451 556.973 89.5336 555.82 91.0276C554.667 92.479 554.091 94.4212 554.091 96.8543C554.091 99.2447 554.71 101.187 555.948 102.681C557.229 104.175 559.085 105.263 561.519 105.946C563.994 106.629 567.025 106.971 570.611 106.971ZM565.104 121.505V72.4592H576.693V121.505H565.104Z" fill="white"/>
<path d="M104.227 110.967L182.458 66.436L102.783 193.772L85.4517 142.019L104.227 110.967Z" fill="url(#paint0_linear_219_13136)"/>
<path d="M77.0267 83.5264L147.073 43.5684L182.458 66.4358L35.6237 150.203L77.0267 83.5264Z" fill="url(#paint1_linear_219_13136)"/>
<path d="M79.9159 0L96.7656 51.7527L35.6251 150.203L0 127.577L79.9159 0Z" fill="url(#paint2_linear_219_13136)"/>
<path d="M79.9157 0L78.2307 81.6008L35.625 150.203L79.9157 0Z" fill="url(#paint3_linear_219_13136)"/>
<path d="M79.9159 0L22.3861 141.778L0 127.577L79.9159 0Z" fill="url(#paint4_linear_219_13136)"/>
<path d="M147.074 43.5686L35.625 150.203L77.0272 83.5265L147.074 43.5686Z" fill="url(#paint5_linear_219_13136)"/>
<path d="M147.059 43.5723L182.444 66.4397L133.351 94.4507L147.059 43.5723Z" fill="url(#paint6_linear_219_13136)"/>
<path d="M104.136 111.093L133.355 94.4487L129.488 108.897L85.4518 142.019L104.136 111.093Z" fill="url(#paint7_linear_219_13136)"/>
<path d="M122.763 134.316L146.593 86.8965L133.364 94.4433L122.763 134.316Z" fill="url(#paint8_linear_219_13136)"/>
<g style="mix-blend-mode:soft-light">
<path d="M85.4517 142.019L129.502 108.801L122.762 134.317L95.6968 172.595L85.4517 142.019Z" fill="url(#paint9_linear_219_13136)" style="mix-blend-mode:screen"/>
</g>
<path d="M102.783 193.772L96.7656 175.719L146.593 86.8966L182.458 66.4362L102.783 193.772Z" fill="url(#paint10_linear_219_13136)"/>
<defs>
<linearGradient id="paint0_linear_219_13136" x1="169.104" y1="55.6013" x2="85.4517" y2="183.585" gradientUnits="userSpaceOnUse">
<stop stop-color="#0137BD"/>
<stop offset="1" stop-color="#6B96FF"/>
</linearGradient>
<linearGradient id="paint1_linear_219_13136" x1="161.998" y1="53.1969" x2="15.8863" y2="138.168" gradientUnits="userSpaceOnUse">
<stop stop-color="#0E51FE"/>
<stop offset="1" stop-color="#0233B3"/>
</linearGradient>
<linearGradient id="paint2_linear_219_13136" x1="96.7656" y1="10.1098" x2="17.0904" y2="138.408" gradientUnits="userSpaceOnUse">
<stop stop-color="#1C5BFE"/>
<stop offset="1" stop-color="#4779FD"/>
</linearGradient>
<linearGradient id="paint3_linear_219_13136" x1="79.9157" y1="3.89221e-07" x2="57.7704" y2="150.203" gradientUnits="userSpaceOnUse">
<stop stop-color="#487EFF"/>
<stop offset="1" stop-color="#467DFE"/>
</linearGradient>
<linearGradient id="paint4_linear_219_13136" x1="79.9159" y1="-218.324" x2="57.7705" y2="-68.1211" gradientUnits="userSpaceOnUse">
<stop stop-color="#487EFF"/>
<stop offset="1" stop-color="#467DFE"/>
</linearGradient>
<linearGradient id="paint5_linear_219_13136" x1="151.407" y1="42.1243" x2="62.8253" y2="74.3795" gradientUnits="userSpaceOnUse">
<stop stop-color="#497FFF"/>
<stop offset="1" stop-color="#0C40C8"/>
</linearGradient>
<linearGradient id="paint6_linear_219_13136" x1="162.72" y1="53.4377" x2="151.127" y2="91.1074" gradientUnits="userSpaceOnUse">
<stop stop-color="#316FFF"/>
<stop offset="1" stop-color="#2362FE"/>
</linearGradient>
<linearGradient id="paint7_linear_219_13136" x1="111.645" y1="107.414" x2="116.972" y2="118.149" gradientUnits="userSpaceOnUse">
<stop stop-color="#0042E5"/>
<stop offset="1" stop-color="#0E51FF"/>
</linearGradient>
<linearGradient id="paint8_linear_219_13136" x1="134.255" y1="87.1058" x2="117.467" y2="126.373" gradientUnits="userSpaceOnUse">
<stop stop-color="#0843E7"/>
<stop offset="1" stop-color="#4077FF"/>
</linearGradient>
<linearGradient id="paint9_linear_219_13136" x1="107.477" y1="108.801" x2="107.477" y2="160.795" gradientUnits="userSpaceOnUse">
<stop stop-color="#2664FF"/>
<stop offset="1" stop-color="#2664FF" stop-opacity="0"/>
</linearGradient>
<linearGradient id="paint10_linear_219_13136" x1="102.061" y1="54.6414" x2="102.061" y2="194.013" gradientUnits="userSpaceOnUse">
<stop stop-color="#052EB2"/>
<stop offset="0.259808" stop-color="#3A66DF"/>
<stop offset="0.440142" stop-color="#5F8CFE"/>
<stop offset="0.79471" stop-color="#5D8CFF"/>
<stop offset="1" stop-color="#598AFD"/>
</linearGradient>
</defs>
</svg>
