<svg width="600" height="194" viewBox="0 0 600 194" fill="none" xmlns="http://www.w3.org/2000/svg">
<path d="M203.147 119.392V74.5721H215.633V100.888L234.137 74.5721H246.047V119.392H233.561V93.1405L215.121 119.392H203.147Z" fill="#2C2B30"/>
<path d="M284.996 74.5721H297.674V119.392H284.996V74.5721ZM267.709 119.392H255.031V74.5721H267.709V119.392ZM285.893 101.912H266.812V91.4117H285.893V101.912Z" fill="#2C2B30"/>
<path d="M306.664 119.392V74.5721H328.434C333.813 74.5721 337.974 75.5965 340.92 77.6455C343.908 79.6517 345.402 82.5117 345.402 86.2253C345.402 89.8536 344.015 92.7136 341.24 94.8052C338.465 96.8541 334.752 97.8786 330.099 97.8786L331.379 94.8692C336.416 94.8692 340.344 95.8724 343.161 97.8786C346.021 99.8422 347.451 102.745 347.451 106.587C347.451 110.514 345.914 113.63 342.841 115.935C339.81 118.24 335.413 119.392 329.651 119.392H306.664ZM319.15 110.3H329.138C330.974 110.3 332.34 109.916 333.236 109.148C334.175 108.337 334.645 107.163 334.645 105.626C334.645 104.089 334.175 102.958 333.236 102.233C332.34 101.464 330.974 101.08 329.138 101.08H319.15V110.3ZM319.15 92.5002H327.218C329.01 92.5002 330.355 92.1373 331.251 91.4117C332.148 90.6433 332.596 89.5335 332.596 88.0822C332.596 86.6309 332.148 85.5424 331.251 84.8167C330.355 84.0484 329.01 83.6642 327.218 83.6642H319.15V92.5002Z" fill="#2C2B30"/>
<path d="M365.324 91.9239H386.133V101.4H365.324V91.9239ZM366.22 109.596H389.655V119.392H353.671V74.5721H388.822V84.3685H366.22V109.596Z" fill="#2C2B30"/>
<path d="M418.071 120.289C414.528 120.289 411.241 119.734 408.211 118.624C405.223 117.471 402.619 115.849 400.399 113.758C398.222 111.666 396.515 109.212 395.277 106.394C394.039 103.535 393.42 100.397 393.42 96.9822C393.42 93.5673 394.039 90.4512 395.277 87.634C396.515 84.774 398.222 82.2982 400.399 80.2066C402.619 78.115 405.223 76.5143 408.211 75.4044C411.241 74.2519 414.528 73.6757 418.071 73.6757C422.212 73.6757 425.904 74.4013 429.148 75.8526C432.435 77.304 435.167 79.3956 437.344 82.1275L429.276 89.4268C427.825 87.7193 426.224 86.4174 424.474 85.521C422.767 84.6246 420.846 84.1764 418.711 84.1764C416.876 84.1764 415.19 84.4752 413.653 85.0728C412.116 85.6704 410.793 86.5455 409.683 87.698C408.616 88.8078 407.763 90.1524 407.122 91.7318C406.525 93.3112 406.226 95.0613 406.226 96.9822C406.226 98.9031 406.525 100.653 407.122 102.233C407.763 103.812 408.616 105.178 409.683 106.33C410.793 107.44 412.116 108.294 413.653 108.892C415.19 109.489 416.876 109.788 418.711 109.788C420.846 109.788 422.767 109.34 424.474 108.443C426.224 107.547 427.825 106.245 429.276 104.538L437.344 111.837C435.167 114.526 432.435 116.618 429.148 118.112C425.904 119.563 422.212 120.289 418.071 120.289Z" fill="#2C2B30"/>
<path d="M451.98 119.392V81.8073L454.797 84.6246H438.214V74.5721H478.168V84.6246H461.648L464.466 81.8073V119.392H451.98Z" fill="#2C2B30"/>
<path d="M485.409 119.969C483.36 119.969 481.631 119.286 480.223 117.92C478.814 116.554 478.11 114.825 478.11 112.733C478.11 110.556 478.814 108.828 480.223 107.547C481.631 106.224 483.36 105.562 485.409 105.562C487.458 105.562 489.187 106.224 490.596 107.547C492.004 108.828 492.708 110.556 492.708 112.733C492.708 114.825 492.004 116.554 490.596 117.92C489.187 119.286 487.458 119.969 485.409 119.969Z" fill="#2C2B30"/>
<path d="M498.676 119.392V74.5721H519.165C523.263 74.5721 526.785 75.2337 529.73 76.557C532.718 77.8802 535.023 79.8011 536.645 82.3196C538.267 84.7954 539.078 87.7407 539.078 91.1556C539.078 94.5278 538.267 97.4518 536.645 99.9275C535.023 102.403 532.718 104.324 529.73 105.69C526.785 107.013 523.263 107.675 519.165 107.675H505.719L511.354 102.169V119.392H498.676ZM511.354 103.513L505.719 97.6865H518.397C521.044 97.6865 523.007 97.1103 524.288 95.9577C525.611 94.8052 526.273 93.2045 526.273 91.1556C526.273 89.064 525.611 87.4419 524.288 86.2894C523.007 85.1368 521.044 84.5606 518.397 84.5606H505.719L511.354 78.7339V103.513Z" fill="#2C2B30"/>
<path d="M569.458 116.703C563.482 116.703 558.424 115.935 554.283 114.398C550.185 112.861 547.069 110.62 544.935 107.675C542.843 104.687 541.798 101.08 541.798 96.8541C541.798 92.5855 542.843 88.9786 544.935 86.0332C547.069 83.0452 550.207 80.7829 554.347 79.2462C558.488 77.7095 563.546 76.9411 569.522 76.9411C569.608 76.9411 569.885 76.9411 570.355 76.9411C570.867 76.9411 571.379 76.9411 571.891 76.9411C572.404 76.9411 572.681 76.9411 572.724 76.9411C578.657 76.9411 583.63 77.7308 587.642 79.3102C591.698 80.8469 594.771 83.1093 596.863 86.0973C598.954 89.0426 600 92.6282 600 96.8541C600 101.037 598.976 104.623 596.927 107.611C594.92 110.556 591.932 112.819 587.963 114.398C583.993 115.935 579.105 116.703 573.3 116.703C573.215 116.703 572.873 116.703 572.275 116.703C571.678 116.703 571.102 116.703 570.547 116.703C569.992 116.703 569.629 116.703 569.458 116.703ZM570.611 106.971C570.739 106.971 570.931 106.971 571.187 106.971C571.486 106.971 571.699 106.971 571.827 106.971C575.498 106.971 578.508 106.608 580.855 105.882C583.203 105.157 584.932 104.047 586.042 102.553C587.152 101.059 587.706 99.1378 587.706 96.7901C587.706 94.3997 587.13 92.4788 585.978 91.0275C584.825 89.5762 583.096 88.509 580.791 87.8261C578.486 87.1004 575.541 86.7376 571.955 86.7376C571.827 86.7376 571.614 86.7376 571.315 86.7376C571.059 86.7376 570.824 86.7376 570.611 86.7376C566.769 86.7376 563.632 87.0791 561.198 87.762C558.765 88.445 556.973 89.5335 555.82 91.0275C554.667 92.4788 554.091 94.421 554.091 96.8541C554.091 99.2446 554.71 101.187 555.948 102.681C557.229 104.175 559.085 105.263 561.519 105.946C563.994 106.629 567.025 106.971 570.611 106.971ZM565.104 121.505V72.4591H576.693V121.505H565.104Z" fill="#2C2B30"/>
<path d="M104.227 110.967L182.458 66.4359L102.783 193.772L85.4517 142.019L104.227 110.967Z" fill="url(#paint0_linear_210_12548)"/>
<path d="M77.0267 83.5265L147.073 43.5685L182.458 66.436L35.6237 150.203L77.0267 83.5265Z" fill="url(#paint1_linear_210_12548)"/>
<path d="M79.9159 0L96.7656 51.7527L35.6251 150.203L0 127.577L79.9159 0Z" fill="url(#paint2_linear_210_12548)"/>
<path d="M79.9157 0L78.2307 81.6008L35.625 150.203L79.9157 0Z" fill="url(#paint3_linear_210_12548)"/>
<path d="M79.9159 0L22.3861 141.778L0 127.577L79.9159 0Z" fill="url(#paint4_linear_210_12548)"/>
<path d="M147.074 43.5686L35.625 150.203L77.0272 83.5265L147.074 43.5686Z" fill="url(#paint5_linear_210_12548)"/>
<path d="M147.059 43.5723L182.444 66.4397L133.351 94.4507L147.059 43.5723Z" fill="url(#paint6_linear_210_12548)"/>
<path d="M104.136 111.093L133.355 94.4487L129.488 108.897L85.4518 142.019L104.136 111.093Z" fill="url(#paint7_linear_210_12548)"/>
<path d="M122.763 134.316L146.593 86.8965L133.364 94.4433L122.763 134.316Z" fill="url(#paint8_linear_210_12548)"/>
<g style="mix-blend-mode:soft-light">
<path d="M85.4517 142.019L129.502 108.801L122.762 134.317L95.6968 172.595L85.4517 142.019Z" fill="url(#paint9_linear_210_12548)" style="mix-blend-mode:screen"/>
</g>
<path d="M102.783 193.772L96.7656 175.719L146.593 86.8967L182.458 66.4363L102.783 193.772Z" fill="url(#paint10_linear_210_12548)"/>
<defs>
<linearGradient id="paint0_linear_210_12548" x1="169.104" y1="55.6012" x2="85.4517" y2="183.585" gradientUnits="userSpaceOnUse">
<stop stop-color="#0137BD"/>
<stop offset="1" stop-color="#6B96FF"/>
</linearGradient>
<linearGradient id="paint1_linear_210_12548" x1="161.998" y1="53.197" x2="15.8863" y2="138.168" gradientUnits="userSpaceOnUse">
<stop stop-color="#0E51FE"/>
<stop offset="1" stop-color="#0233B3"/>
</linearGradient>
<linearGradient id="paint2_linear_210_12548" x1="96.7656" y1="10.1098" x2="17.0904" y2="138.408" gradientUnits="userSpaceOnUse">
<stop stop-color="#1C5BFE"/>
<stop offset="1" stop-color="#4779FD"/>
</linearGradient>
<linearGradient id="paint3_linear_210_12548" x1="79.9157" y1="3.89221e-07" x2="57.7704" y2="150.203" gradientUnits="userSpaceOnUse">
<stop stop-color="#487EFF"/>
<stop offset="1" stop-color="#467DFE"/>
</linearGradient>
<linearGradient id="paint4_linear_210_12548" x1="79.9159" y1="-218.324" x2="57.7705" y2="-68.1211" gradientUnits="userSpaceOnUse">
<stop stop-color="#487EFF"/>
<stop offset="1" stop-color="#467DFE"/>
</linearGradient>
<linearGradient id="paint5_linear_210_12548" x1="151.407" y1="42.1243" x2="62.8253" y2="74.3795" gradientUnits="userSpaceOnUse">
<stop stop-color="#497FFF"/>
<stop offset="1" stop-color="#0C40C8"/>
</linearGradient>
<linearGradient id="paint6_linear_210_12548" x1="162.72" y1="53.4377" x2="151.127" y2="91.1074" gradientUnits="userSpaceOnUse">
<stop stop-color="#316FFF"/>
<stop offset="1" stop-color="#2362FE"/>
</linearGradient>
<linearGradient id="paint7_linear_210_12548" x1="111.645" y1="107.414" x2="116.972" y2="118.149" gradientUnits="userSpaceOnUse">
<stop stop-color="#0042E5"/>
<stop offset="1" stop-color="#0E51FF"/>
</linearGradient>
<linearGradient id="paint8_linear_210_12548" x1="134.255" y1="87.1058" x2="117.467" y2="126.373" gradientUnits="userSpaceOnUse">
<stop stop-color="#0843E7"/>
<stop offset="1" stop-color="#4077FF"/>
</linearGradient>
<linearGradient id="paint9_linear_210_12548" x1="107.477" y1="108.801" x2="107.477" y2="160.795" gradientUnits="userSpaceOnUse">
<stop stop-color="#2664FF"/>
<stop offset="1" stop-color="#2664FF" stop-opacity="0"/>
</linearGradient>
<linearGradient id="paint10_linear_210_12548" x1="102.061" y1="54.6415" x2="102.061" y2="194.013" gradientUnits="userSpaceOnUse">
<stop stop-color="#052EB2"/>
<stop offset="0.259808" stop-color="#3A66DF"/>
<stop offset="0.440142" stop-color="#5F8CFE"/>
<stop offset="0.79471" stop-color="#5D8CFF"/>
<stop offset="1" stop-color="#598AFD"/>
</linearGradient>
</defs>
</svg>
